<?xml version="1.0" encoding="UTF-8"?>
<svg xmlns="http://www.w3.org/2000/svg" version="1.1" width="180" height="180" viewBox="0 0 180 180"><rect x="0" y="0" width="180" height="180" fill="#ffffff"/><g transform="scale(4)"><g transform="translate(0,0)"><path fill-rule="evenodd" d="M9 0L9 2L8 2L8 3L11 3L11 2L12 2L12 4L13 4L13 6L12 6L12 8L10 8L10 7L11 7L11 6L10 6L10 7L9 7L9 6L8 6L8 8L4 8L4 9L3 9L3 8L0 8L0 12L2 12L2 11L1 11L1 9L2 9L2 10L3 10L3 11L4 11L4 12L3 12L3 13L4 13L4 14L5 14L5 15L3 15L3 17L2 17L2 16L0 16L0 17L2 17L2 18L0 18L0 19L1 19L1 20L2 20L2 21L3 21L3 23L4 23L4 24L3 24L3 25L2 25L2 26L1 26L1 25L0 25L0 29L1 29L1 30L0 30L0 32L1 32L1 33L0 33L0 34L1 34L1 33L2 33L2 34L3 34L3 33L4 33L4 31L5 31L5 32L6 32L6 33L5 33L5 34L4 34L4 35L1 35L1 36L0 36L0 37L1 37L1 36L3 36L3 37L5 37L5 34L6 34L6 35L9 35L9 36L6 36L6 37L8 37L8 41L9 41L9 42L8 42L8 45L9 45L9 44L14 44L14 45L15 45L15 44L16 44L16 43L17 43L17 44L18 44L18 45L19 45L19 44L20 44L20 45L21 45L21 44L22 44L22 45L27 45L27 44L28 44L28 45L29 45L29 44L30 44L30 45L31 45L31 44L32 44L32 45L33 45L33 44L36 44L36 45L37 45L37 44L38 44L38 43L39 43L39 44L42 44L42 43L43 43L43 45L45 45L45 44L44 44L44 43L43 43L43 42L42 42L42 41L44 41L44 40L45 40L45 37L41 37L41 36L42 36L42 35L41 35L41 34L43 34L43 36L45 36L45 33L44 33L44 32L45 32L45 29L43 29L43 28L42 28L42 27L41 27L41 26L43 26L43 27L45 27L45 24L43 24L43 25L42 25L42 23L41 23L41 22L42 22L42 21L43 21L43 22L44 22L44 23L45 23L45 20L44 20L44 19L45 19L45 16L44 16L44 15L45 15L45 13L44 13L44 15L43 15L43 14L42 14L42 13L41 13L41 12L42 12L42 11L41 11L41 10L42 10L42 9L43 9L43 10L44 10L44 11L43 11L43 12L45 12L45 9L43 9L43 8L42 8L42 9L41 9L41 10L40 10L40 9L39 9L39 8L37 8L37 10L36 10L36 9L35 9L35 8L36 8L36 7L37 7L37 6L36 6L36 7L35 7L35 6L34 6L34 7L33 7L33 6L32 6L32 5L33 5L33 4L32 4L32 3L31 3L31 0L25 0L25 1L26 1L26 3L25 3L25 2L24 2L24 1L23 1L23 0L20 0L20 1L19 1L19 2L18 2L18 0L16 0L16 1L15 1L15 2L14 2L14 0L13 0L13 1L11 1L11 2L10 2L10 0ZM32 0L32 1L33 1L33 2L34 2L34 1L33 1L33 0ZM36 0L36 1L35 1L35 4L34 4L34 5L37 5L37 3L36 3L36 1L37 1L37 0ZM16 1L16 2L15 2L15 3L14 3L14 2L13 2L13 3L14 3L14 6L13 6L13 8L12 8L12 9L13 9L13 10L10 10L10 11L9 11L9 9L5 9L5 10L4 10L4 11L5 11L5 14L7 14L7 15L6 15L6 16L7 16L7 17L5 17L5 16L4 16L4 17L3 17L3 18L5 18L5 20L9 20L9 22L10 22L10 21L11 21L11 22L13 22L13 23L12 23L12 24L11 24L11 23L10 23L10 24L9 24L9 25L8 25L8 27L10 27L10 28L9 28L9 29L8 29L8 28L7 28L7 27L6 27L6 28L7 28L7 29L4 29L4 30L3 30L3 29L2 29L2 30L3 30L3 31L2 31L2 32L3 32L3 31L4 31L4 30L5 30L5 31L6 31L6 32L7 32L7 33L6 33L6 34L7 34L7 33L8 33L8 32L9 32L9 33L10 33L10 36L9 36L9 37L10 37L10 39L9 39L9 41L11 41L11 40L10 40L10 39L12 39L12 42L10 42L10 43L14 43L14 44L15 44L15 43L16 43L16 42L17 42L17 43L22 43L22 44L24 44L24 43L26 43L26 44L27 44L27 43L28 43L28 42L29 42L29 43L30 43L30 44L31 44L31 43L36 43L36 44L37 44L37 43L38 43L38 42L39 42L39 43L40 43L40 42L39 42L39 41L38 41L38 42L37 42L37 43L36 43L36 42L35 42L35 41L36 41L36 40L35 40L35 39L36 39L36 38L35 38L35 37L36 37L36 36L37 36L37 35L38 35L38 34L39 34L39 35L40 35L40 36L41 36L41 35L40 35L40 34L41 34L41 33L42 33L42 32L43 32L43 31L42 31L42 30L41 30L41 29L42 29L42 28L41 28L41 27L40 27L40 26L41 26L41 25L40 25L40 26L39 26L39 25L38 25L38 26L37 26L37 25L36 25L36 24L35 24L35 23L36 23L36 20L37 20L37 19L38 19L38 20L39 20L39 19L40 19L40 18L41 18L41 19L42 19L42 20L41 20L41 21L42 21L42 20L43 20L43 19L44 19L44 16L43 16L43 15L42 15L42 14L41 14L41 13L40 13L40 12L39 12L39 11L40 11L40 10L39 10L39 9L38 9L38 10L37 10L37 11L36 11L36 10L35 10L35 9L34 9L34 8L35 8L35 7L34 7L34 8L33 8L33 7L32 7L32 6L31 6L31 5L32 5L32 4L31 4L31 3L30 3L30 2L29 2L29 1L28 1L28 2L27 2L27 3L26 3L26 4L25 4L25 3L24 3L24 2L23 2L23 1L22 1L22 2L21 2L21 1L20 1L20 2L19 2L19 3L18 3L18 2L17 2L17 1ZM16 2L16 3L15 3L15 4L16 4L16 5L17 5L17 6L16 6L16 7L17 7L17 8L18 8L18 10L20 10L20 9L21 9L21 10L22 10L22 11L21 11L21 12L22 12L22 11L23 11L23 12L24 12L24 13L23 13L23 14L24 14L24 15L23 15L23 16L24 16L24 17L23 17L23 18L22 18L22 17L21 17L21 16L20 16L20 15L19 15L19 14L21 14L21 15L22 15L22 14L21 14L21 13L19 13L19 12L20 12L20 11L17 11L17 10L16 10L16 9L15 9L15 8L14 8L14 11L15 11L15 10L16 10L16 11L17 11L17 14L18 14L18 15L16 15L16 16L14 16L14 15L11 15L11 11L10 11L10 12L9 12L9 11L8 11L8 10L5 10L5 11L7 11L7 12L6 12L6 13L7 13L7 14L8 14L8 15L7 15L7 16L9 16L9 18L6 18L6 19L9 19L9 18L10 18L10 20L11 20L11 21L12 21L12 19L13 19L13 20L14 20L14 21L13 21L13 22L15 22L15 23L13 23L13 24L12 24L12 25L11 25L11 24L10 24L10 25L11 25L11 28L10 28L10 29L11 29L11 28L14 28L14 29L13 29L13 30L14 30L14 34L12 34L12 32L13 32L13 31L10 31L10 30L8 30L8 29L7 29L7 30L6 30L6 31L7 31L7 30L8 30L8 31L9 31L9 32L10 32L10 33L11 33L11 34L12 34L12 35L11 35L11 37L12 37L12 35L14 35L14 34L15 34L15 36L14 36L14 37L13 37L13 38L12 38L12 39L13 39L13 40L14 40L14 43L15 43L15 42L16 42L16 39L18 39L18 38L19 38L19 39L20 39L20 41L19 41L19 40L18 40L18 42L20 42L20 41L23 41L23 42L26 42L26 43L27 43L27 42L28 42L28 41L29 41L29 42L30 42L30 41L31 41L31 42L33 42L33 41L35 41L35 40L34 40L34 37L35 37L35 35L33 35L33 34L31 34L31 35L32 35L32 37L31 37L31 36L30 36L30 35L28 35L28 34L26 34L26 33L27 33L27 32L28 32L28 33L29 33L29 34L30 34L30 33L29 33L29 32L30 32L30 31L29 31L29 30L30 30L30 29L31 29L31 28L30 28L30 26L28 26L28 25L31 25L31 27L32 27L32 29L35 29L35 30L36 30L36 31L37 31L37 32L36 32L36 33L35 33L35 34L36 34L36 35L37 35L37 34L38 34L38 33L39 33L39 34L40 34L40 33L39 33L39 32L40 32L40 31L41 31L41 32L42 32L42 31L41 31L41 30L40 30L40 29L39 29L39 28L40 28L40 27L39 27L39 26L38 26L38 27L37 27L37 26L36 26L36 25L35 25L35 24L34 24L34 25L35 25L35 26L36 26L36 27L37 27L37 28L36 28L36 29L35 29L35 27L34 27L34 26L32 26L32 25L33 25L33 22L32 22L32 21L33 21L33 20L34 20L34 18L33 18L33 16L34 16L34 17L35 17L35 18L36 18L36 19L35 19L35 20L36 20L36 19L37 19L37 18L38 18L38 17L39 17L39 18L40 18L40 17L41 17L41 18L42 18L42 19L43 19L43 18L42 18L42 15L41 15L41 14L40 14L40 13L39 13L39 12L38 12L38 11L37 11L37 12L38 12L38 13L37 13L37 14L36 14L36 13L35 13L35 12L36 12L36 11L35 11L35 12L34 12L34 11L33 11L33 10L34 10L34 9L33 9L33 8L32 8L32 7L31 7L31 6L30 6L30 5L31 5L31 4L30 4L30 3L29 3L29 4L28 4L28 3L27 3L27 4L26 4L26 5L25 5L25 4L24 4L24 3L23 3L23 2L22 2L22 3L21 3L21 2L20 2L20 3L19 3L19 4L17 4L17 2ZM9 4L9 5L10 5L10 4ZM19 4L19 5L18 5L18 6L17 6L17 7L18 7L18 6L19 6L19 7L20 7L20 6L19 6L19 5L20 5L20 4ZM27 4L27 5L28 5L28 6L27 6L27 7L26 7L26 6L25 6L25 7L26 7L26 8L25 8L25 11L24 11L24 12L25 12L25 13L26 13L26 14L25 14L25 15L24 15L24 16L26 16L26 17L25 17L25 19L24 19L24 18L23 18L23 19L22 19L22 18L21 18L21 17L20 17L20 16L19 16L19 15L18 15L18 16L16 16L16 18L18 18L18 19L16 19L16 20L15 20L15 19L14 19L14 16L13 16L13 19L14 19L14 20L15 20L15 22L16 22L16 23L15 23L15 24L16 24L16 26L18 26L18 27L20 27L20 28L19 28L19 31L18 31L18 32L15 32L15 33L16 33L16 34L17 34L17 33L18 33L18 32L19 32L19 35L16 35L16 37L15 37L15 39L14 39L14 40L15 40L15 39L16 39L16 38L18 38L18 36L19 36L19 37L20 37L20 36L22 36L22 34L21 34L21 33L22 33L22 32L23 32L23 35L24 35L24 36L25 36L25 39L28 39L28 38L29 38L29 39L30 39L30 40L29 40L29 41L30 41L30 40L31 40L31 39L32 39L32 38L33 38L33 37L34 37L34 36L33 36L33 37L32 37L32 38L31 38L31 37L30 37L30 36L29 36L29 37L28 37L28 36L27 36L27 35L26 35L26 34L25 34L25 33L24 33L24 32L25 32L25 31L26 31L26 30L27 30L27 31L28 31L28 30L29 30L29 29L30 29L30 28L29 28L29 29L28 29L28 28L27 28L27 27L28 27L28 26L27 26L27 25L28 25L28 24L26 24L26 23L28 23L28 22L29 22L29 23L30 23L30 24L31 24L31 25L32 25L32 22L31 22L31 21L32 21L32 19L33 19L33 18L31 18L31 17L32 17L32 16L30 16L30 17L28 17L28 18L27 18L27 15L28 15L28 16L29 16L29 15L30 15L30 14L31 14L31 15L32 15L32 14L34 14L34 16L35 16L35 17L36 17L36 18L37 18L37 17L38 17L38 16L39 16L39 17L40 17L40 16L39 16L39 15L40 15L40 14L39 14L39 13L38 13L38 14L37 14L37 15L36 15L36 14L35 14L35 13L34 13L34 12L33 12L33 13L32 13L32 10L33 10L33 9L32 9L32 10L31 10L31 9L29 9L29 11L31 11L31 12L29 12L29 13L28 13L28 12L27 12L27 11L28 11L28 10L27 10L27 7L28 7L28 6L29 6L29 7L30 7L30 8L31 8L31 7L30 7L30 6L29 6L29 5L30 5L30 4L29 4L29 5L28 5L28 4ZM21 5L21 8L24 8L24 5ZM14 6L14 7L15 7L15 6ZM22 6L22 7L23 7L23 6ZM19 8L19 9L20 9L20 8ZM22 9L22 10L23 10L23 9ZM12 11L12 13L13 13L13 14L15 14L15 12L14 12L14 13L13 13L13 11ZM25 11L25 12L26 12L26 13L27 13L27 14L28 14L28 15L29 15L29 14L30 14L30 13L29 13L29 14L28 14L28 13L27 13L27 12L26 12L26 11ZM8 12L8 14L10 14L10 13L9 13L9 12ZM1 13L1 14L0 14L0 15L1 15L1 14L2 14L2 13ZM31 13L31 14L32 14L32 13ZM9 15L9 16L11 16L11 15ZM35 15L35 16L36 16L36 15ZM37 15L37 16L38 16L38 15ZM18 16L18 18L19 18L19 19L18 19L18 20L17 20L17 22L18 22L18 23L16 23L16 24L18 24L18 26L19 26L19 24L20 24L20 25L21 25L21 26L20 26L20 27L21 27L21 26L22 26L22 27L23 27L23 28L21 28L21 29L20 29L20 30L22 30L22 31L21 31L21 32L20 32L20 31L19 31L19 32L20 32L20 33L21 33L21 32L22 32L22 31L23 31L23 30L24 30L24 29L25 29L25 28L26 28L26 29L27 29L27 30L28 30L28 29L27 29L27 28L26 28L26 26L25 26L25 28L24 28L24 27L23 27L23 25L25 25L25 22L26 22L26 21L27 21L27 22L28 22L28 21L29 21L29 22L30 22L30 21L29 21L29 20L31 20L31 19L29 19L29 18L28 18L28 19L27 19L27 20L26 20L26 19L25 19L25 20L22 20L22 19L21 19L21 20L20 20L20 17L19 17L19 16ZM10 17L10 18L11 18L11 19L12 19L12 18L11 18L11 17ZM3 19L3 21L4 21L4 19ZM19 20L19 21L20 21L20 20ZM25 20L25 21L26 21L26 20ZM27 20L27 21L28 21L28 20ZM0 21L0 22L1 22L1 21ZM5 21L5 24L8 24L8 21ZM21 21L21 24L24 24L24 21ZM37 21L37 24L40 24L40 21ZM6 22L6 23L7 23L7 22ZM22 22L22 23L23 23L23 22ZM38 22L38 23L39 23L39 22ZM1 23L1 24L2 24L2 23ZM13 24L13 25L12 25L12 26L13 26L13 27L14 27L14 28L15 28L15 31L17 31L17 28L16 28L16 27L14 27L14 24ZM4 25L4 26L5 26L5 25ZM6 25L6 26L7 26L7 25ZM2 26L2 27L1 27L1 28L3 28L3 26ZM23 28L23 29L24 29L24 28ZM37 28L37 29L36 29L36 30L37 30L37 31L38 31L38 30L39 30L39 31L40 31L40 30L39 30L39 29L38 29L38 28ZM37 29L37 30L38 30L38 29ZM32 30L32 32L31 32L31 33L33 33L33 32L34 32L34 30ZM37 32L37 33L36 33L36 34L37 34L37 33L38 33L38 32ZM20 34L20 35L19 35L19 36L20 36L20 35L21 35L21 34ZM26 36L26 37L27 37L27 38L28 38L28 37L27 37L27 36ZM21 37L21 40L24 40L24 37ZM29 37L29 38L30 38L30 37ZM37 37L37 40L40 40L40 37ZM22 38L22 39L23 39L23 38ZM38 38L38 39L39 39L39 38ZM41 38L41 39L42 39L42 40L41 40L41 41L42 41L42 40L44 40L44 39L43 39L43 38ZM25 40L25 41L26 41L26 42L27 42L27 41L28 41L28 40ZM41 42L41 43L42 43L42 42ZM0 0L0 7L7 7L7 0ZM1 1L1 6L6 6L6 1ZM2 2L2 5L5 5L5 2ZM38 0L38 7L45 7L45 0ZM39 1L39 6L44 6L44 1ZM40 2L40 5L43 5L43 2ZM0 38L0 45L7 45L7 38ZM1 39L1 44L6 44L6 39ZM2 40L2 43L5 43L5 40Z" fill="#000000"/></g></g></svg>
