<?xml version="1.0" encoding="UTF-8"?>
<svg xmlns="http://www.w3.org/2000/svg" version="1.1" width="170" height="170" viewBox="0 0 170 170"><rect x="0" y="0" width="170" height="170" fill="#ffffff"/><g transform="scale(2.787)"><g transform="translate(0,0)"><path fill-rule="evenodd" d="M8 0L8 1L10 1L10 0ZM11 0L11 1L12 1L12 3L13 3L13 4L12 4L12 5L13 5L13 6L12 6L12 7L13 7L13 6L14 6L14 8L11 8L11 3L10 3L10 2L8 2L8 5L9 5L9 3L10 3L10 8L8 8L8 9L11 9L11 11L12 11L12 12L13 12L13 13L11 13L11 12L10 12L10 10L6 10L6 9L7 9L7 8L6 8L6 9L5 9L5 11L7 11L7 12L4 12L4 14L3 14L3 15L2 15L2 16L1 16L1 14L2 14L2 12L0 12L0 13L1 13L1 14L0 14L0 16L1 16L1 17L0 17L0 20L1 20L1 21L0 21L0 23L1 23L1 24L0 24L0 25L1 25L1 24L2 24L2 25L4 25L4 30L2 30L2 31L1 31L1 29L3 29L3 27L2 27L2 26L0 26L0 27L1 27L1 28L0 28L0 31L1 31L1 33L2 33L2 34L1 34L1 40L0 40L0 42L1 42L1 43L0 43L0 44L2 44L2 45L0 45L0 46L2 46L2 45L4 45L4 47L3 47L3 48L2 48L2 47L0 47L0 49L3 49L3 50L2 50L2 51L0 51L0 53L4 53L4 52L5 52L5 51L7 51L7 52L6 52L6 53L8 53L8 54L10 54L10 53L11 53L11 55L10 55L10 56L9 56L9 57L8 57L8 61L9 61L9 60L10 60L10 57L11 57L11 55L12 55L12 56L13 56L13 58L11 58L11 59L13 59L13 60L14 60L14 61L19 61L19 59L18 59L18 60L14 60L14 59L15 59L15 58L16 58L16 59L17 59L17 58L23 58L23 59L22 59L22 60L21 60L21 59L20 59L20 61L22 61L22 60L24 60L24 58L25 58L25 56L24 56L24 57L23 57L23 56L22 56L22 55L20 55L20 56L19 56L19 57L17 57L17 56L16 56L16 57L14 57L14 56L13 56L13 55L14 55L14 54L15 54L15 55L16 55L16 54L17 54L17 53L18 53L18 55L19 55L19 54L20 54L20 53L18 53L18 52L19 52L19 51L20 51L20 50L21 50L21 51L24 51L24 53L25 53L25 51L26 51L26 54L23 54L23 55L27 55L27 56L26 56L26 57L27 57L27 58L26 58L26 60L25 60L25 61L26 61L26 60L27 60L27 59L29 59L29 58L28 58L28 57L30 57L30 58L32 58L32 59L31 59L31 60L33 60L33 61L34 61L34 60L35 60L35 59L36 59L36 61L37 61L37 60L38 60L38 59L36 59L36 58L38 58L38 57L36 57L36 58L34 58L34 57L35 57L35 56L37 56L37 54L38 54L38 56L39 56L39 59L40 59L40 57L41 57L41 55L42 55L42 59L41 59L41 61L42 61L42 60L43 60L43 59L44 59L44 60L45 60L45 61L47 61L47 60L48 60L48 61L50 61L50 60L49 60L49 59L48 59L48 58L51 58L51 61L52 61L52 60L53 60L53 61L54 61L54 59L52 59L52 58L53 58L53 57L56 57L56 59L55 59L55 60L56 60L56 59L57 59L57 58L58 58L58 57L57 57L57 55L58 55L58 54L59 54L59 53L60 53L60 52L61 52L61 51L60 51L60 52L58 52L58 54L57 54L57 52L56 52L56 51L55 51L55 52L52 52L52 54L50 54L50 53L49 53L49 54L48 54L48 55L47 55L47 53L48 53L48 51L49 51L49 50L48 50L48 51L47 51L47 53L46 53L46 55L47 55L47 56L46 56L46 57L45 57L45 58L44 58L44 57L43 57L43 56L44 56L44 55L42 55L42 54L41 54L41 53L43 53L43 52L41 52L41 51L40 51L40 52L41 52L41 53L39 53L39 54L38 54L38 53L37 53L37 54L36 54L36 55L35 55L35 53L36 53L36 52L35 52L35 53L34 53L34 54L33 54L33 52L34 52L34 50L33 50L33 49L36 49L36 50L37 50L37 51L38 51L38 52L39 52L39 49L40 49L40 50L41 50L41 49L40 49L40 48L39 48L39 47L43 47L43 48L42 48L42 49L43 49L43 48L45 48L45 47L46 47L46 49L44 49L44 50L43 50L43 51L44 51L44 53L45 53L45 52L46 52L46 51L44 51L44 50L46 50L46 49L50 49L50 52L51 52L51 49L52 49L52 48L53 48L53 47L54 47L54 49L53 49L53 50L52 50L52 51L53 51L53 50L54 50L54 49L55 49L55 50L57 50L57 51L58 51L58 49L59 49L59 50L61 50L61 48L60 48L60 47L58 47L58 48L56 48L56 47L57 47L57 46L58 46L58 45L57 45L57 43L58 43L58 42L59 42L59 41L60 41L60 43L61 43L61 40L58 40L58 39L59 39L59 38L60 38L60 37L61 37L61 36L60 36L60 37L59 37L59 35L60 35L60 34L59 34L59 35L58 35L58 36L57 36L57 34L56 34L56 33L57 33L57 31L58 31L58 30L59 30L59 33L60 33L60 31L61 31L61 29L60 29L60 30L59 30L59 28L58 28L58 27L59 27L59 26L60 26L60 25L59 25L59 23L60 23L60 24L61 24L61 23L60 23L60 22L59 22L59 23L58 23L58 24L57 24L57 22L58 22L58 21L57 21L57 22L56 22L56 23L55 23L55 21L56 21L56 20L55 20L55 19L54 19L54 16L55 16L55 18L56 18L56 17L57 17L57 16L58 16L58 18L57 18L57 20L58 20L58 18L59 18L59 16L61 16L61 15L59 15L59 14L61 14L61 13L59 13L59 11L60 11L60 12L61 12L61 11L60 11L60 10L59 10L59 11L58 11L58 12L57 12L57 10L58 10L58 9L59 9L59 8L56 8L56 9L57 9L57 10L56 10L56 11L55 11L55 9L54 9L54 8L53 8L53 6L52 6L52 7L51 7L51 5L52 5L52 4L53 4L53 0L51 0L51 2L50 2L50 0L48 0L48 1L44 1L44 2L43 2L43 0L42 0L42 1L41 1L41 0L40 0L40 1L41 1L41 2L43 2L43 3L42 3L42 4L41 4L41 5L40 5L40 2L39 2L39 3L38 3L38 1L37 1L37 0L36 0L36 1L37 1L37 2L36 2L36 4L35 4L35 5L36 5L36 4L37 4L37 3L38 3L38 5L37 5L37 6L36 6L36 7L35 7L35 6L34 6L34 7L35 7L35 8L34 8L34 9L33 9L33 4L34 4L34 3L35 3L35 1L34 1L34 0L32 0L32 2L31 2L31 3L32 3L32 2L34 2L34 3L33 3L33 4L29 4L29 2L30 2L30 1L31 1L31 0L30 0L30 1L27 1L27 0L26 0L26 2L25 2L25 1L24 1L24 0L23 0L23 4L22 4L22 5L23 5L23 6L22 6L22 7L21 7L21 6L20 6L20 5L21 5L21 3L20 3L20 2L21 2L21 1L22 1L22 0L21 0L21 1L20 1L20 0L19 0L19 3L18 3L18 4L17 4L17 5L16 5L16 3L17 3L17 2L18 2L18 0L17 0L17 2L16 2L16 0L15 0L15 1L14 1L14 0ZM48 1L48 2L49 2L49 1ZM13 2L13 3L14 3L14 4L13 4L13 5L14 5L14 6L15 6L15 8L14 8L14 9L13 9L13 10L14 10L14 9L16 9L16 10L15 10L15 11L14 11L14 13L13 13L13 16L11 16L11 15L9 15L9 14L11 14L11 13L10 13L10 12L9 12L9 11L8 11L8 12L7 12L7 13L5 13L5 14L4 14L4 15L3 15L3 16L2 16L2 17L1 17L1 20L2 20L2 18L3 18L3 19L4 19L4 20L5 20L5 21L1 21L1 23L2 23L2 24L3 24L3 23L4 23L4 22L7 22L7 21L9 21L9 22L10 22L10 23L11 23L11 17L13 17L13 16L14 16L14 18L12 18L12 20L13 20L13 19L14 19L14 20L15 20L15 21L14 21L14 22L15 22L15 24L13 24L13 23L12 23L12 24L13 24L13 25L11 25L11 24L10 24L10 25L9 25L9 26L8 26L8 27L6 27L6 28L11 28L11 30L10 30L10 31L12 31L12 32L13 32L13 33L12 33L12 34L10 34L10 33L11 33L11 32L10 32L10 33L9 33L9 36L8 36L8 33L6 33L6 34L7 34L7 35L5 35L5 33L4 33L4 32L2 32L2 33L3 33L3 34L2 34L2 35L3 35L3 36L2 36L2 37L3 37L3 36L4 36L4 37L5 37L5 36L8 36L8 37L6 37L6 38L5 38L5 39L6 39L6 40L7 40L7 39L6 39L6 38L8 38L8 41L3 41L3 42L2 42L2 40L4 40L4 38L2 38L2 40L1 40L1 42L2 42L2 44L4 44L4 45L5 45L5 47L6 47L6 48L3 48L3 49L4 49L4 50L7 50L7 49L6 49L6 48L8 48L8 47L6 47L6 46L7 46L7 45L5 45L5 44L8 44L8 46L9 46L9 47L10 47L10 46L9 46L9 45L10 45L10 44L11 44L11 46L12 46L12 47L13 47L13 46L14 46L14 49L15 49L15 48L16 48L16 49L18 49L18 50L13 50L13 48L12 48L12 49L11 49L11 50L10 50L10 49L8 49L8 52L9 52L9 51L10 51L10 52L11 52L11 50L12 50L12 51L15 51L15 52L14 52L14 53L13 53L13 54L14 54L14 53L15 53L15 54L16 54L16 51L17 51L17 52L18 52L18 51L19 51L19 49L20 49L20 48L21 48L21 47L24 47L24 46L21 46L21 45L22 45L22 43L21 43L21 42L23 42L23 41L24 41L24 42L25 42L25 43L23 43L23 45L24 45L24 44L25 44L25 47L26 47L26 49L24 49L24 51L25 51L25 50L26 50L26 49L28 49L28 50L27 50L27 51L28 51L28 52L27 52L27 55L28 55L28 52L29 52L29 51L31 51L31 52L33 52L33 51L31 51L31 50L32 50L32 49L33 49L33 48L34 48L34 46L36 46L36 47L35 47L35 48L36 48L36 47L39 47L39 45L37 45L37 44L40 44L40 43L44 43L44 45L43 45L43 47L44 47L44 46L45 46L45 42L46 42L46 41L47 41L47 43L50 43L50 44L51 44L51 45L50 45L50 46L49 46L49 44L47 44L47 45L46 45L46 46L49 46L49 48L50 48L50 49L51 49L51 45L52 45L52 47L53 47L53 46L54 46L54 47L56 47L56 46L57 46L57 45L55 45L55 44L56 44L56 43L57 43L57 42L58 42L58 40L57 40L57 39L58 39L58 38L59 38L59 37L57 37L57 38L56 38L56 36L55 36L55 38L54 38L54 39L53 39L53 40L52 40L52 38L53 38L53 37L54 37L54 35L56 35L56 34L54 34L54 33L52 33L52 31L51 31L51 33L49 33L49 32L50 32L50 30L51 30L51 29L52 29L52 28L50 28L50 29L49 29L49 27L50 27L50 26L49 26L49 27L48 27L48 26L47 26L47 25L48 25L48 23L49 23L49 25L50 25L50 23L51 23L51 24L53 24L53 25L51 25L51 27L53 27L53 28L54 28L54 26L56 26L56 27L58 27L58 26L59 26L59 25L57 25L57 24L55 24L55 23L54 23L54 22L53 22L53 18L52 18L52 16L54 16L54 14L56 14L56 16L57 16L57 15L58 15L58 16L59 16L59 15L58 15L58 14L59 14L59 13L57 13L57 12L56 12L56 13L54 13L54 12L55 12L55 11L53 11L53 10L54 10L54 9L53 9L53 8L52 8L52 10L51 10L51 8L50 8L50 6L49 6L49 8L47 8L47 7L48 7L48 6L47 6L47 5L49 5L49 4L48 4L48 3L47 3L47 2L46 2L46 3L43 3L43 4L42 4L42 5L43 5L43 7L42 7L42 6L41 6L41 9L40 9L40 6L39 6L39 8L38 8L38 6L37 6L37 8L35 8L35 9L34 9L34 10L33 10L33 11L32 11L32 9L31 9L31 10L30 10L30 9L28 9L28 8L26 8L26 10L27 10L27 11L26 11L26 12L24 12L24 11L25 11L25 10L24 10L24 11L23 11L23 10L22 10L22 11L23 11L23 12L22 12L22 13L21 13L21 14L20 14L20 12L21 12L21 11L20 11L20 12L19 12L19 10L21 10L21 8L20 8L20 6L19 6L19 10L18 10L18 9L17 9L17 7L18 7L18 6L17 6L17 7L16 7L16 5L15 5L15 3L16 3L16 2ZM26 2L26 3L24 3L24 6L23 6L23 7L22 7L22 9L24 9L24 8L25 8L25 7L26 7L26 6L27 6L27 7L28 7L28 5L27 5L27 4L28 4L28 2ZM19 3L19 5L20 5L20 3ZM46 3L46 4L43 4L43 5L44 5L44 7L43 7L43 8L44 8L44 7L45 7L45 5L46 5L46 4L47 4L47 3ZM51 3L51 4L52 4L52 3ZM25 4L25 6L24 6L24 7L25 7L25 6L26 6L26 4ZM29 5L29 8L32 8L32 5ZM8 6L8 7L9 7L9 6ZM30 6L30 7L31 7L31 6ZM46 6L46 7L47 7L47 6ZM0 8L0 10L1 10L1 11L3 11L3 10L1 10L1 9L4 9L4 8ZM37 8L37 9L36 9L36 10L34 10L34 12L33 12L33 13L34 13L34 12L35 12L35 11L36 11L36 13L35 13L35 14L36 14L36 13L38 13L38 14L37 14L37 15L38 15L38 17L37 17L37 18L36 18L36 17L35 17L35 16L36 16L36 15L33 15L33 16L32 16L32 17L31 17L31 18L30 18L30 19L31 19L31 18L33 18L33 19L32 19L32 20L29 20L29 21L30 21L30 22L28 22L28 19L29 19L29 17L30 17L30 16L31 16L31 15L32 15L32 13L31 13L31 15L30 15L30 16L29 16L29 17L27 17L27 16L28 16L28 15L27 15L27 16L26 16L26 15L25 15L25 14L26 14L26 13L25 13L25 14L22 14L22 15L23 15L23 16L24 16L24 15L25 15L25 16L26 16L26 18L28 18L28 19L25 19L25 18L23 18L23 17L21 17L21 20L20 20L20 19L19 19L19 17L17 17L17 18L16 18L16 17L15 17L15 20L18 20L18 19L19 19L19 21L21 21L21 22L19 22L19 23L20 23L20 24L21 24L21 22L22 22L22 24L23 24L23 25L22 25L22 26L23 26L23 27L21 27L21 26L20 26L20 25L19 25L19 24L18 24L18 22L17 22L17 23L16 23L16 24L15 24L15 25L13 25L13 28L14 28L14 29L15 29L15 30L14 30L14 31L15 31L15 30L16 30L16 31L17 31L17 30L18 30L18 32L14 32L14 33L13 33L13 35L11 35L11 37L12 37L12 38L9 38L9 40L10 40L10 41L8 41L8 42L10 42L10 43L9 43L9 44L10 44L10 43L11 43L11 44L12 44L12 43L11 43L11 42L12 42L12 41L13 41L13 42L14 42L14 41L15 41L15 40L16 40L16 42L15 42L15 43L16 43L16 44L14 44L14 46L15 46L15 47L16 47L16 46L15 46L15 45L16 45L16 44L17 44L17 45L18 45L18 44L17 44L17 43L20 43L20 44L19 44L19 45L21 45L21 43L20 43L20 41L22 41L22 40L18 40L18 41L19 41L19 42L17 42L17 40L16 40L16 39L20 39L20 38L21 38L21 39L22 39L22 38L24 38L24 39L23 39L23 40L24 40L24 41L25 41L25 40L26 40L26 41L27 41L27 43L26 43L26 44L27 44L27 43L29 43L29 42L30 42L30 44L28 44L28 45L27 45L27 46L26 46L26 47L27 47L27 48L28 48L28 49L29 49L29 48L28 48L28 46L29 46L29 47L30 47L30 50L31 50L31 48L32 48L32 47L30 47L30 46L29 46L29 45L30 45L30 44L31 44L31 45L32 45L32 44L33 44L33 43L35 43L35 44L34 44L34 45L33 45L33 46L34 46L34 45L35 45L35 44L37 44L37 42L36 42L36 43L35 43L35 41L36 41L36 40L35 40L35 41L34 41L34 42L32 42L32 41L33 41L33 40L34 40L34 39L33 39L33 38L32 38L32 34L30 34L30 33L33 33L33 35L34 35L34 36L33 36L33 37L34 37L34 36L35 36L35 35L36 35L36 37L35 37L35 38L36 38L36 37L37 37L37 36L38 36L38 38L37 38L37 41L38 41L38 38L39 38L39 39L40 39L40 40L39 40L39 42L38 42L38 43L40 43L40 42L42 42L42 41L43 41L43 42L45 42L45 40L46 40L46 39L44 39L44 38L45 38L45 37L44 37L44 38L42 38L42 37L43 37L43 36L48 36L48 38L49 38L49 36L50 36L50 34L49 34L49 35L48 35L48 34L44 34L44 35L43 35L43 33L44 33L44 32L43 32L43 33L42 33L42 34L41 34L41 35L42 35L42 36L41 36L41 37L40 37L40 35L39 35L39 34L40 34L40 33L41 33L41 32L42 32L42 28L44 28L44 29L43 29L43 30L45 30L45 33L48 33L48 32L49 32L49 30L48 30L48 31L47 31L47 29L46 29L46 27L43 27L43 26L42 26L42 28L41 28L41 26L39 26L39 25L38 25L38 26L37 26L37 27L38 27L38 28L41 28L41 29L39 29L39 30L41 30L41 31L39 31L39 32L37 32L37 30L38 30L38 29L37 29L37 30L36 30L36 31L35 31L35 29L36 29L36 28L35 28L35 29L34 29L34 30L33 30L33 28L34 28L34 27L33 27L33 28L31 28L31 27L32 27L32 26L31 26L31 24L32 24L32 23L33 23L33 22L34 22L34 24L33 24L33 25L34 25L34 24L35 24L35 23L36 23L36 25L35 25L35 26L36 26L36 25L37 25L37 23L36 23L36 22L37 22L37 21L38 21L38 20L40 20L40 21L39 21L39 22L38 22L38 23L39 23L39 22L40 22L40 23L41 23L41 21L42 21L42 24L41 24L41 25L44 25L44 24L45 24L45 25L46 25L46 24L47 24L47 23L48 23L48 22L49 22L49 21L51 21L51 20L50 20L50 19L52 19L52 18L50 18L50 17L51 17L51 16L52 16L52 15L53 15L53 14L54 14L54 13L53 13L53 14L52 14L52 13L51 13L51 10L50 10L50 8L49 8L49 9L48 9L48 10L46 10L46 9L47 9L47 8L46 8L46 9L45 9L45 10L44 10L44 9L41 9L41 11L43 11L43 12L42 12L42 13L41 13L41 14L40 14L40 16L41 16L41 17L39 17L39 15L38 15L38 14L39 14L39 13L40 13L40 10L39 10L39 13L38 13L38 12L37 12L37 11L36 11L36 10L38 10L38 8ZM60 8L60 9L61 9L61 8ZM17 10L17 11L16 11L16 13L15 13L15 14L14 14L14 16L16 16L16 15L17 15L17 16L18 16L18 15L17 15L17 14L16 14L16 13L19 13L19 12L17 12L17 11L18 11L18 10ZM43 10L43 11L44 11L44 10ZM45 10L45 12L43 12L43 13L42 13L42 14L41 14L41 16L42 16L42 17L41 17L41 18L40 18L40 19L42 19L42 21L43 21L43 23L44 23L44 22L45 22L45 24L46 24L46 22L48 22L48 21L49 21L49 20L45 20L45 17L46 17L46 16L48 16L48 17L49 17L49 16L51 16L51 15L52 15L52 14L51 14L51 15L48 15L48 14L47 14L47 12L48 12L48 11L50 11L50 10L48 10L48 11L47 11L47 12L46 12L46 10ZM27 11L27 14L30 14L30 13L29 13L29 12L28 12L28 11ZM31 11L31 12L32 12L32 11ZM52 11L52 12L53 12L53 11ZM45 12L45 13L44 13L44 14L45 14L45 15L44 15L44 17L43 17L43 18L44 18L44 17L45 17L45 16L46 16L46 14L45 14L45 13L46 13L46 12ZM49 12L49 13L50 13L50 12ZM7 13L7 14L6 14L6 15L5 15L5 18L4 18L4 19L5 19L5 20L6 20L6 21L7 21L7 20L8 20L8 19L7 19L7 18L6 18L6 17L7 17L7 16L8 16L8 17L9 17L9 18L10 18L10 17L11 17L11 16L9 16L9 15L8 15L8 13ZM56 13L56 14L57 14L57 13ZM19 14L19 15L20 15L20 14ZM42 14L42 16L43 16L43 14ZM6 15L6 16L7 16L7 15ZM3 16L3 17L4 17L4 16ZM33 16L33 18L34 18L34 16ZM38 17L38 18L37 18L37 20L35 20L35 19L36 19L36 18L35 18L35 19L33 19L33 20L32 20L32 21L31 21L31 22L30 22L30 24L29 24L29 26L30 26L30 27L28 27L28 28L30 28L30 27L31 27L31 26L30 26L30 24L31 24L31 23L32 23L32 21L34 21L34 22L36 22L36 21L37 21L37 20L38 20L38 19L39 19L39 17ZM60 17L60 19L59 19L59 20L60 20L60 19L61 19L61 17ZM17 18L17 19L18 19L18 18ZM22 18L22 20L23 20L23 18ZM48 18L48 19L49 19L49 18ZM6 19L6 20L7 20L7 19ZM24 19L24 20L25 20L25 19ZM26 20L26 21L27 21L27 20ZM34 20L34 21L35 21L35 20ZM43 20L43 21L44 21L44 20ZM54 20L54 21L55 21L55 20ZM15 21L15 22L16 22L16 21ZM23 21L23 22L24 22L24 21ZM2 22L2 23L3 23L3 22ZM26 22L26 23L28 23L28 22ZM51 22L51 23L52 23L52 22ZM6 23L6 24L7 24L7 25L6 25L6 26L7 26L7 25L8 25L8 23ZM23 23L23 24L24 24L24 25L23 25L23 26L24 26L24 27L25 27L25 29L24 29L24 30L23 30L23 32L22 32L22 29L23 29L23 28L19 28L19 25L18 25L18 24L17 24L17 25L15 25L15 27L16 27L16 28L17 28L17 29L20 29L20 30L19 30L19 32L18 32L18 33L16 33L16 35L15 35L15 34L14 34L14 35L13 35L13 37L14 37L14 38L13 38L13 40L15 40L15 39L16 39L16 38L17 38L17 37L18 37L18 36L19 36L19 38L20 38L20 36L21 36L21 38L22 38L22 37L23 37L23 35L21 35L21 33L20 33L20 36L19 36L19 32L20 32L20 31L21 31L21 32L22 32L22 34L23 34L23 33L24 33L24 34L25 34L25 36L24 36L24 38L25 38L25 37L26 37L26 40L27 40L27 41L28 41L28 42L29 42L29 41L32 41L32 40L33 40L33 39L31 39L31 36L30 36L30 34L29 34L29 33L27 33L27 32L28 32L28 31L26 31L26 30L25 30L25 29L26 29L26 27L25 27L25 26L26 26L26 25L25 25L25 24L24 24L24 23ZM4 24L4 25L5 25L5 24ZM54 24L54 25L53 25L53 26L54 26L54 25L55 25L55 24ZM27 25L27 26L28 26L28 25ZM56 25L56 26L57 26L57 25ZM9 26L9 27L10 27L10 26ZM11 26L11 28L12 28L12 26ZM16 26L16 27L17 27L17 26ZM47 27L47 28L48 28L48 27ZM60 27L60 28L61 28L61 27ZM57 28L57 30L58 30L58 28ZM5 29L5 32L8 32L8 29ZM12 29L12 31L13 31L13 29ZM27 29L27 30L28 30L28 29ZM29 29L29 32L32 32L32 29ZM45 29L45 30L46 30L46 29ZM53 29L53 32L56 32L56 29ZM6 30L6 31L7 31L7 30ZM24 30L24 32L25 32L25 33L26 33L26 34L27 34L27 33L26 33L26 32L25 32L25 30ZM30 30L30 31L31 31L31 30ZM54 30L54 31L55 31L55 30ZM33 31L33 33L34 33L34 34L36 34L36 33L37 33L37 35L38 35L38 34L39 34L39 33L40 33L40 32L39 32L39 33L37 33L37 32L36 32L36 33L34 33L34 32L35 32L35 31ZM46 31L46 32L47 32L47 31ZM51 33L51 34L52 34L52 33ZM3 34L3 35L4 35L4 34ZM17 34L17 35L16 35L16 36L15 36L15 37L17 37L17 35L18 35L18 34ZM53 34L53 35L51 35L51 37L50 37L50 39L48 39L48 40L47 40L47 41L48 41L48 42L49 42L49 41L51 41L51 40L50 40L50 39L51 39L51 37L52 37L52 36L53 36L53 35L54 35L54 34ZM27 35L27 38L29 38L29 39L30 39L30 40L31 40L31 39L30 39L30 36L29 36L29 35ZM39 37L39 38L40 38L40 37ZM14 38L14 39L15 39L15 38ZM55 38L55 39L56 39L56 38ZM27 39L27 40L28 40L28 39ZM42 39L42 40L40 40L40 41L42 41L42 40L43 40L43 39ZM48 40L48 41L49 41L49 40ZM53 40L53 41L54 41L54 42L50 42L50 43L51 43L51 44L52 44L52 45L53 45L53 44L55 44L55 42L56 42L56 41L54 41L54 40ZM10 41L10 42L11 42L11 41ZM4 42L4 43L7 43L7 42ZM31 42L31 44L32 44L32 42ZM52 43L52 44L53 44L53 43ZM41 44L41 45L42 45L42 44ZM36 45L36 46L37 46L37 45ZM54 45L54 46L55 46L55 45ZM59 45L59 46L60 46L60 45ZM20 46L20 47L19 47L19 48L18 48L18 47L17 47L17 48L18 48L18 49L19 49L19 48L20 48L20 47L21 47L21 46ZM22 48L22 50L23 50L23 48ZM37 48L37 50L38 50L38 48ZM59 48L59 49L60 49L60 48ZM28 50L28 51L29 51L29 50ZM3 51L3 52L4 52L4 51ZM29 53L29 56L32 56L32 53ZM53 53L53 56L56 56L56 53ZM30 54L30 55L31 55L31 54ZM39 54L39 56L40 56L40 55L41 55L41 54ZM49 54L49 55L48 55L48 56L47 56L47 57L46 57L46 58L45 58L45 60L46 60L46 58L48 58L48 57L51 57L51 58L52 58L52 55L50 55L50 54ZM54 54L54 55L55 55L55 54ZM60 54L60 55L61 55L61 54ZM33 55L33 57L34 57L34 56L35 56L35 55ZM49 55L49 56L50 56L50 55ZM20 56L20 57L22 57L22 56ZM27 56L27 57L28 57L28 56ZM59 56L59 57L60 57L60 58L59 58L59 59L58 59L58 60L57 60L57 61L61 61L61 60L59 60L59 59L60 59L60 58L61 58L61 57L60 57L60 56ZM16 57L16 58L17 58L17 57ZM33 58L33 60L34 60L34 58ZM0 0L0 7L7 7L7 0ZM1 1L1 6L6 6L6 1ZM2 2L2 5L5 5L5 2ZM54 0L54 7L61 7L61 0ZM55 1L55 6L60 6L60 1ZM56 2L56 5L59 5L59 2ZM0 54L0 61L7 61L7 54ZM1 55L1 60L6 60L6 55ZM2 56L2 59L5 59L5 56Z" fill="#000000"/></g></g></svg>
