<?xml version="1.0" encoding="UTF-8"?>
<svg xmlns="http://www.w3.org/2000/svg" version="1.1" width="170" height="170" viewBox="0 0 170 170"><rect x="0" y="0" width="170" height="170" fill="#ffffff"/><g transform="scale(2.787)"><g transform="translate(0,0)"><path fill-rule="evenodd" d="M10 0L10 1L9 1L9 2L8 2L8 3L9 3L9 4L11 4L11 3L12 3L12 5L11 5L11 6L10 6L10 5L9 5L9 6L8 6L8 8L4 8L4 9L3 9L3 8L0 8L0 11L3 11L3 12L1 12L1 14L0 14L0 16L1 16L1 14L3 14L3 15L4 15L4 14L5 14L5 17L4 17L4 16L3 16L3 17L4 17L4 18L1 18L1 17L0 17L0 23L1 23L1 22L3 22L3 23L4 23L4 24L1 24L1 25L0 25L0 26L1 26L1 28L3 28L3 29L4 29L4 30L2 30L2 32L1 32L1 31L0 31L0 32L1 32L1 33L0 33L0 34L1 34L1 33L3 33L3 31L4 31L4 33L5 33L5 35L4 35L4 34L3 34L3 36L0 36L0 38L1 38L1 37L2 37L2 39L3 39L3 37L5 37L5 35L7 35L7 34L8 34L8 33L10 33L10 34L9 34L9 35L8 35L8 37L7 37L7 36L6 36L6 37L7 37L7 38L6 38L6 39L7 39L7 40L6 40L6 41L8 41L8 43L7 43L7 42L5 42L5 40L2 40L2 41L1 41L1 39L0 39L0 41L1 41L1 42L0 42L0 44L1 44L1 42L2 42L2 43L3 43L3 44L4 44L4 43L3 43L3 42L5 42L5 46L6 46L6 47L5 47L5 48L4 48L4 46L3 46L3 48L4 48L4 49L2 49L2 48L0 48L0 49L2 49L2 51L0 51L0 53L4 53L4 52L5 52L5 51L7 51L7 50L8 50L8 52L11 52L11 53L8 53L8 57L9 57L9 58L8 58L8 61L10 61L10 60L9 60L9 59L11 59L11 61L15 61L15 60L18 60L18 61L19 61L19 60L18 60L18 59L19 59L19 58L18 58L18 59L15 59L15 58L16 58L16 57L14 57L14 54L12 54L12 52L13 52L13 53L15 53L15 52L14 52L14 51L15 51L15 49L14 49L14 48L16 48L16 50L17 50L17 51L16 51L16 52L17 52L17 54L15 54L15 56L17 56L17 54L18 54L18 55L19 55L19 56L18 56L18 57L19 57L19 56L20 56L20 58L21 58L21 59L20 59L20 60L21 60L21 61L23 61L23 60L24 60L24 59L25 59L25 58L26 58L26 56L27 56L27 55L28 55L28 57L29 57L29 58L28 58L28 59L26 59L26 60L25 60L25 61L27 61L27 60L28 60L28 61L29 61L29 60L30 60L30 61L33 61L33 60L34 60L34 61L36 61L36 59L38 59L38 60L40 60L40 61L41 61L41 60L42 60L42 61L43 61L43 60L44 60L44 61L45 61L45 60L46 60L46 61L47 61L47 60L46 60L46 58L44 58L44 57L47 57L47 56L48 56L48 57L49 57L49 58L47 58L47 59L48 59L48 61L49 61L49 60L50 60L50 61L51 61L51 60L52 60L52 61L53 61L53 60L54 60L54 59L55 59L55 60L56 60L56 61L57 61L57 60L58 60L58 59L59 59L59 61L61 61L61 60L60 60L60 59L61 59L61 58L60 58L60 57L61 57L61 56L59 56L59 58L57 58L57 56L58 56L58 55L59 55L59 54L58 54L58 53L57 53L57 52L58 52L58 51L59 51L59 52L60 52L60 55L61 55L61 52L60 52L60 51L61 51L61 50L60 50L60 49L61 49L61 48L60 48L60 47L61 47L61 44L60 44L60 47L59 47L59 46L58 46L58 45L57 45L57 46L56 46L56 45L55 45L55 44L56 44L56 43L57 43L57 42L56 42L56 39L57 39L57 40L58 40L58 39L59 39L59 40L61 40L61 37L59 37L59 38L58 38L58 35L59 35L59 36L61 36L61 34L60 34L60 33L61 33L61 26L60 26L60 25L61 25L61 24L60 24L60 23L61 23L61 21L60 21L60 22L58 22L58 19L59 19L59 20L61 20L61 13L59 13L59 14L58 14L58 13L57 13L57 10L60 10L60 11L59 11L59 12L61 12L61 9L59 9L59 8L58 8L58 9L57 9L57 10L56 10L56 9L55 9L55 8L53 8L53 6L52 6L52 7L51 7L51 5L52 5L52 4L53 4L53 0L51 0L51 2L50 2L50 0L49 0L49 1L47 1L47 0L46 0L46 1L45 1L45 0L42 0L42 3L41 3L41 2L40 2L40 1L39 1L39 0L34 0L34 2L32 2L32 3L33 3L33 4L31 4L31 2L30 2L30 1L31 1L31 0L30 0L30 1L29 1L29 0L28 0L28 1L29 1L29 2L26 2L26 1L27 1L27 0L26 0L26 1L24 1L24 0L22 0L22 1L21 1L21 0L19 0L19 1L18 1L18 0L16 0L16 1L17 1L17 2L16 2L16 5L15 5L15 6L14 6L14 5L13 5L13 1L14 1L14 2L15 2L15 0L13 0L13 1L12 1L12 0ZM11 1L11 2L12 2L12 1ZM20 1L20 2L19 2L19 3L17 3L17 4L18 4L18 5L16 5L16 6L15 6L15 7L14 7L14 6L13 6L13 7L14 7L14 8L13 8L13 9L11 9L11 8L12 8L12 6L11 6L11 7L10 7L10 6L9 6L9 9L4 9L4 10L3 10L3 11L4 11L4 12L3 12L3 14L4 14L4 12L7 12L7 13L6 13L6 14L7 14L7 15L6 15L6 16L7 16L7 17L5 17L5 18L4 18L4 19L5 19L5 18L7 18L7 19L6 19L6 20L7 20L7 19L8 19L8 20L9 20L9 22L11 22L11 24L12 24L12 23L13 23L13 25L12 25L12 26L11 26L11 25L10 25L10 23L8 23L8 22L7 22L7 21L5 21L5 20L4 20L4 21L3 21L3 22L4 22L4 21L5 21L5 23L6 23L6 24L4 24L4 25L6 25L6 26L8 26L8 27L6 27L6 28L9 28L9 31L10 31L10 32L11 32L11 34L12 34L12 32L11 32L11 29L12 29L12 30L13 30L13 29L15 29L15 30L14 30L14 31L17 31L17 32L19 32L19 33L20 33L20 34L19 34L19 35L18 35L18 33L16 33L16 34L17 34L17 35L16 35L16 36L14 36L14 33L15 33L15 32L14 32L14 33L13 33L13 35L10 35L10 37L9 37L9 39L10 39L10 41L11 41L11 42L9 42L9 43L11 43L11 46L14 46L14 45L15 45L15 47L16 47L16 48L17 48L17 50L18 50L18 48L19 48L19 49L20 49L20 50L19 50L19 51L18 51L18 52L19 52L19 53L20 53L20 54L19 54L19 55L20 55L20 56L21 56L21 57L22 57L22 56L23 56L23 57L24 57L24 58L23 58L23 59L24 59L24 58L25 58L25 55L24 55L24 54L25 54L25 53L26 53L26 52L27 52L27 54L26 54L26 55L27 55L27 54L28 54L28 52L31 52L31 51L32 51L32 52L33 52L33 51L34 51L34 52L35 52L35 53L34 53L34 54L35 54L35 56L34 56L34 55L33 55L33 58L31 58L31 57L30 57L30 58L31 58L31 59L30 59L30 60L32 60L32 59L35 59L35 57L36 57L36 58L37 58L37 57L38 57L38 59L40 59L40 58L41 58L41 59L42 59L42 60L43 60L43 59L44 59L44 58L43 58L43 57L44 57L44 56L43 56L43 55L44 55L44 54L45 54L45 55L46 55L46 56L47 56L47 54L49 54L49 53L50 53L50 55L52 55L52 54L51 54L51 53L52 53L52 52L53 52L53 51L54 51L54 50L55 50L55 48L54 48L54 49L52 49L52 48L53 48L53 47L54 47L54 46L55 46L55 47L56 47L56 50L57 50L57 49L58 49L58 50L59 50L59 51L60 51L60 50L59 50L59 49L60 49L60 48L59 48L59 47L58 47L58 46L57 46L57 47L56 47L56 46L55 46L55 45L54 45L54 44L53 44L53 43L54 43L54 42L55 42L55 43L56 43L56 42L55 42L55 41L54 41L54 42L53 42L53 41L52 41L52 40L53 40L53 39L54 39L54 38L55 38L55 39L56 39L56 38L57 38L57 39L58 39L58 38L57 38L57 35L58 35L58 34L59 34L59 35L60 35L60 34L59 34L59 33L60 33L60 32L59 32L59 31L60 31L60 28L59 28L59 27L60 27L60 26L58 26L58 25L60 25L60 24L59 24L59 23L58 23L58 22L57 22L57 23L58 23L58 24L57 24L57 25L56 25L56 24L55 24L55 23L56 23L56 20L55 20L55 19L56 19L56 18L58 18L58 17L60 17L60 14L59 14L59 15L58 15L58 14L57 14L57 13L56 13L56 10L55 10L55 9L54 9L54 10L53 10L53 9L52 9L52 8L51 8L51 7L50 7L50 5L49 5L49 3L50 3L50 2L47 2L47 1L46 1L46 2L45 2L45 1L44 1L44 2L43 2L43 3L42 3L42 4L40 4L40 2L39 2L39 3L38 3L38 2L37 2L37 1L35 1L35 2L34 2L34 3L35 3L35 4L34 4L34 6L33 6L33 7L34 7L34 6L35 6L35 7L36 7L36 6L37 6L37 7L38 7L38 8L37 8L37 9L36 9L36 10L37 10L37 9L38 9L38 12L39 12L39 11L40 11L40 10L41 10L41 11L42 11L42 12L41 12L41 13L40 13L40 15L38 15L38 16L40 16L40 15L41 15L41 17L40 17L40 18L41 18L41 19L39 19L39 17L36 17L36 14L37 14L37 13L36 13L36 12L37 12L37 11L35 11L35 9L32 9L32 11L33 11L33 12L32 12L32 13L33 13L33 15L32 15L32 14L31 14L31 11L30 11L30 10L31 10L31 9L30 9L30 10L29 10L29 9L28 9L28 8L27 8L27 7L28 7L28 6L27 6L27 5L28 5L28 4L27 4L27 3L26 3L26 2L24 2L24 3L26 3L26 4L25 4L25 5L24 5L24 6L23 6L23 2L21 2L21 1ZM20 2L20 3L19 3L19 4L20 4L20 5L18 5L18 7L17 7L17 6L16 6L16 7L15 7L15 8L14 8L14 10L16 10L16 11L12 11L12 10L11 10L11 9L10 9L10 10L6 10L6 11L8 11L8 13L7 13L7 14L8 14L8 15L7 15L7 16L8 16L8 17L9 17L9 18L8 18L8 19L10 19L10 16L11 16L11 20L10 20L10 21L12 21L12 19L14 19L14 20L13 20L13 21L14 21L14 22L13 22L13 23L14 23L14 25L13 25L13 26L12 26L12 29L13 29L13 28L14 28L14 27L15 27L15 28L16 28L16 27L15 27L15 26L16 26L16 24L17 24L17 23L16 23L16 24L15 24L15 23L14 23L14 22L16 22L16 21L15 21L15 18L14 18L14 16L15 16L15 15L16 15L16 18L18 18L18 19L16 19L16 20L17 20L17 22L18 22L18 23L19 23L19 24L18 24L18 25L19 25L19 24L20 24L20 26L22 26L22 27L20 27L20 28L18 28L18 27L19 27L19 26L18 26L18 27L17 27L17 28L18 28L18 29L17 29L17 30L19 30L19 29L20 29L20 28L21 28L21 30L20 30L20 31L19 31L19 32L21 32L21 34L20 34L20 35L19 35L19 36L17 36L17 37L18 37L18 38L17 38L17 39L16 39L16 38L15 38L15 37L14 37L14 36L13 36L13 37L14 37L14 38L13 38L13 39L12 39L12 40L11 40L11 41L13 41L13 39L14 39L14 40L15 40L15 42L16 42L16 43L15 43L15 45L17 45L17 46L16 46L16 47L17 47L17 48L18 48L18 47L17 47L17 46L19 46L19 47L21 47L21 46L22 46L22 47L23 47L23 48L22 48L22 49L23 49L23 50L22 50L22 51L21 51L21 50L20 50L20 51L19 51L19 52L20 52L20 51L21 51L21 52L22 52L22 53L21 53L21 54L20 54L20 55L21 55L21 56L22 56L22 55L23 55L23 56L24 56L24 55L23 55L23 52L24 52L24 53L25 53L25 52L26 52L26 51L27 51L27 52L28 52L28 51L29 51L29 50L30 50L30 51L31 51L31 48L30 48L30 47L31 47L31 46L32 46L32 48L33 48L33 49L32 49L32 51L33 51L33 50L34 50L34 51L35 51L35 52L36 52L36 53L35 53L35 54L37 54L37 55L36 55L36 57L37 57L37 56L38 56L38 57L39 57L39 56L40 56L40 57L41 57L41 58L42 58L42 57L43 57L43 56L42 56L42 55L41 55L41 54L42 54L42 53L43 53L43 54L44 54L44 53L45 53L45 54L46 54L46 53L47 53L47 52L46 52L46 51L45 51L45 50L46 50L46 49L47 49L47 50L48 50L48 53L49 53L49 52L51 52L51 51L49 51L49 50L48 50L48 49L49 49L49 46L50 46L50 45L51 45L51 46L52 46L52 47L53 47L53 46L54 46L54 45L53 45L53 44L52 44L52 45L51 45L51 44L49 44L49 43L50 43L50 41L51 41L51 42L52 42L52 43L53 43L53 42L52 42L52 41L51 41L51 40L50 40L50 41L49 41L49 39L50 39L50 37L51 37L51 38L52 38L52 37L53 37L53 38L54 38L54 37L55 37L55 38L56 38L56 37L55 37L55 36L56 36L56 35L55 35L55 34L56 34L56 33L57 33L57 34L58 34L58 33L57 33L57 32L58 32L58 31L59 31L59 30L58 30L58 29L57 29L57 27L58 27L58 26L56 26L56 25L55 25L55 24L54 24L54 21L53 21L53 24L54 24L54 25L53 25L53 26L52 26L52 25L51 25L51 24L52 24L52 23L50 23L50 21L51 21L51 22L52 22L52 19L53 19L53 20L54 20L54 19L53 19L53 18L54 18L54 17L55 17L55 18L56 18L56 17L57 17L57 16L58 16L58 15L57 15L57 14L56 14L56 13L55 13L55 12L54 12L54 11L53 11L53 10L52 10L52 11L50 11L50 12L48 12L48 11L49 11L49 8L50 8L50 9L51 9L51 8L50 8L50 7L49 7L49 5L47 5L47 4L48 4L48 3L45 3L45 4L44 4L44 3L43 3L43 4L42 4L42 5L40 5L40 9L39 9L39 10L40 10L40 9L41 9L41 10L42 10L42 9L43 9L43 10L44 10L44 11L43 11L43 12L42 12L42 13L41 13L41 14L42 14L42 13L43 13L43 14L44 14L44 17L43 17L43 18L44 18L44 19L43 19L43 20L42 20L42 19L41 19L41 20L40 20L40 21L41 21L41 22L40 22L40 25L39 25L39 24L38 24L38 25L37 25L37 24L36 24L36 23L38 23L38 22L36 22L36 21L38 21L38 19L37 19L37 18L36 18L36 20L34 20L34 17L33 17L33 16L35 16L35 15L33 15L33 16L32 16L32 15L31 15L31 14L30 14L30 13L28 13L28 14L29 14L29 16L28 16L28 15L23 15L23 14L24 14L24 13L25 13L25 14L26 14L26 13L27 13L27 12L26 12L26 11L27 11L27 10L28 10L28 12L30 12L30 11L29 11L29 10L28 10L28 9L27 9L27 8L26 8L26 9L27 9L27 10L26 10L26 11L25 11L25 10L24 10L24 9L23 9L23 8L22 8L22 7L23 7L23 6L22 6L22 5L21 5L21 4L22 4L22 3L21 3L21 2ZM51 3L51 4L52 4L52 3ZM37 4L37 5L38 5L38 7L39 7L39 4ZM43 4L43 5L44 5L44 6L43 6L43 7L42 7L42 6L41 6L41 7L42 7L42 8L41 8L41 9L42 9L42 8L43 8L43 9L44 9L44 10L45 10L45 11L46 11L46 12L45 12L45 13L44 13L44 12L43 12L43 13L44 13L44 14L45 14L45 15L48 15L48 16L45 16L45 17L44 17L44 18L45 18L45 19L46 19L46 20L45 20L45 21L44 21L44 20L43 20L43 21L42 21L42 20L41 20L41 21L42 21L42 22L41 22L41 23L42 23L42 24L41 24L41 25L42 25L42 26L41 26L41 27L42 27L42 28L41 28L41 29L42 29L42 30L41 30L41 32L42 32L42 31L44 31L44 30L45 30L45 31L46 31L46 32L45 32L45 33L46 33L46 34L43 34L43 33L44 33L44 32L43 32L43 33L42 33L42 36L41 36L41 35L40 35L40 34L41 34L41 33L40 33L40 34L39 34L39 32L40 32L40 29L39 29L39 28L38 28L38 27L40 27L40 26L39 26L39 25L38 25L38 26L37 26L37 25L36 25L36 26L35 26L35 25L32 25L32 24L33 24L33 23L31 23L31 20L33 20L33 19L32 19L32 18L31 18L31 19L29 19L29 17L28 17L28 16L27 16L27 17L26 17L26 16L25 16L25 17L24 17L24 18L25 18L25 19L24 19L24 21L23 21L23 22L25 22L25 21L26 21L26 20L28 20L28 22L26 22L26 23L28 23L28 24L29 24L29 25L30 25L30 26L29 26L29 27L28 27L28 28L29 28L29 27L30 27L30 28L34 28L34 27L36 27L36 29L37 29L37 30L36 30L36 31L35 31L35 29L33 29L33 32L35 32L35 33L34 33L34 35L33 35L33 33L32 33L32 34L30 34L30 35L32 35L32 36L30 36L30 39L29 39L29 38L28 38L28 37L29 37L29 35L28 35L28 34L29 34L29 33L28 33L28 32L27 32L27 35L26 35L26 34L24 34L24 32L25 32L25 33L26 33L26 32L25 32L25 31L28 31L28 30L25 30L25 29L24 29L24 28L25 28L25 27L24 27L24 26L25 26L25 23L24 23L24 24L23 24L23 23L22 23L22 22L21 22L21 21L22 21L22 20L23 20L23 19L22 19L22 18L23 18L23 17L22 17L22 16L23 16L23 15L22 15L22 14L21 14L21 13L22 13L22 12L23 12L23 13L24 13L24 12L25 12L25 11L24 11L24 10L23 10L23 11L20 11L20 12L19 12L19 11L18 11L18 10L19 10L19 8L18 8L18 10L17 10L17 7L16 7L16 10L17 10L17 11L16 11L16 12L15 12L15 14L14 14L14 15L15 15L15 14L16 14L16 15L18 15L18 14L17 14L17 13L18 13L18 12L19 12L19 15L20 15L20 16L21 16L21 17L19 17L19 19L20 19L20 20L19 20L19 21L20 21L20 22L19 22L19 23L20 23L20 24L21 24L21 25L22 25L22 24L23 24L23 25L24 25L24 26L23 26L23 27L22 27L22 28L23 28L23 29L24 29L24 30L22 30L22 31L24 31L24 32L22 32L22 34L21 34L21 35L20 35L20 36L19 36L19 37L20 37L20 38L18 38L18 39L20 39L20 40L21 40L21 41L20 41L20 42L21 42L21 41L22 41L22 40L23 40L23 41L24 41L24 42L23 42L23 43L22 43L22 44L21 44L21 43L20 43L20 45L19 45L19 46L21 46L21 45L22 45L22 44L23 44L23 43L24 43L24 45L23 45L23 46L25 46L25 47L24 47L24 48L25 48L25 49L24 49L24 50L25 50L25 51L24 51L24 52L25 52L25 51L26 51L26 50L25 50L25 49L26 49L26 48L28 48L28 47L26 47L26 46L25 46L25 44L27 44L27 45L28 45L28 44L29 44L29 43L28 43L28 42L29 42L29 41L30 41L30 39L31 39L31 41L32 41L32 42L30 42L30 44L33 44L33 43L35 43L35 46L34 46L34 45L33 45L33 47L35 47L35 49L34 49L34 50L35 50L35 51L36 51L36 50L35 50L35 49L36 49L36 46L37 46L37 45L36 45L36 44L37 44L37 42L35 42L35 41L36 41L36 40L35 40L35 41L33 41L33 40L34 40L34 37L35 37L35 36L37 36L37 35L38 35L38 37L36 37L36 38L35 38L35 39L36 39L36 38L37 38L37 39L38 39L38 40L37 40L37 41L38 41L38 44L39 44L39 42L40 42L40 44L41 44L41 45L40 45L40 46L39 46L39 45L38 45L38 46L39 46L39 47L37 47L37 48L39 48L39 49L37 49L37 50L38 50L38 51L37 51L37 52L39 52L39 53L38 53L38 56L39 56L39 55L40 55L40 54L41 54L41 53L42 53L42 52L43 52L43 53L44 53L44 52L43 52L43 49L44 49L44 50L45 50L45 49L46 49L46 48L47 48L47 49L48 49L48 46L49 46L49 45L48 45L48 44L47 44L47 43L48 43L48 42L49 42L49 41L48 41L48 42L47 42L47 41L46 41L46 40L45 40L45 41L44 41L44 40L43 40L43 39L44 39L44 38L45 38L45 39L49 39L49 37L48 37L48 36L51 36L51 37L52 37L52 36L53 36L53 37L54 37L54 36L53 36L53 35L54 35L54 34L55 34L55 33L54 33L54 34L53 34L53 33L52 33L52 32L51 32L51 30L52 30L52 29L51 29L51 28L50 28L50 27L52 27L52 28L53 28L53 27L54 27L54 28L56 28L56 26L55 26L55 25L54 25L54 26L53 26L53 27L52 27L52 26L51 26L51 25L48 25L48 24L47 24L47 23L49 23L49 22L47 22L47 21L48 21L48 20L49 20L49 19L50 19L50 20L51 20L51 19L52 19L52 18L53 18L53 17L54 17L54 16L55 16L55 17L56 17L56 16L55 16L55 15L56 15L56 14L55 14L55 13L54 13L54 12L53 12L53 11L52 11L52 12L50 12L50 13L49 13L49 14L47 14L47 13L48 13L48 12L47 12L47 10L48 10L48 9L44 9L44 8L43 8L43 7L44 7L44 6L45 6L45 7L46 7L46 8L47 8L47 7L48 7L48 6L47 6L47 7L46 7L46 6L45 6L45 5L46 5L46 4L45 4L45 5L44 5L44 4ZM20 5L20 6L19 6L19 7L20 7L20 8L21 8L21 9L20 9L20 10L21 10L21 9L22 9L22 8L21 8L21 7L22 7L22 6L21 6L21 5ZM25 5L25 6L24 6L24 7L25 7L25 6L26 6L26 7L27 7L27 6L26 6L26 5ZM29 5L29 8L32 8L32 5ZM35 5L35 6L36 6L36 5ZM20 6L20 7L21 7L21 6ZM30 6L30 7L31 7L31 6ZM1 9L1 10L2 10L2 9ZM4 10L4 11L5 11L5 10ZM10 10L10 12L12 12L12 11L11 11L11 10ZM17 11L17 12L18 12L18 11ZM23 11L23 12L24 12L24 11ZM13 12L13 13L10 13L10 14L13 14L13 13L14 13L14 12ZM33 12L33 13L35 13L35 12ZM46 12L46 13L45 13L45 14L46 14L46 13L47 13L47 12ZM38 13L38 14L39 14L39 13ZM53 13L53 14L54 14L54 13ZM20 14L20 15L21 15L21 14ZM9 15L9 16L10 16L10 15ZM11 15L11 16L12 16L12 15ZM30 15L30 16L31 16L31 17L32 17L32 16L31 16L31 15ZM51 15L51 16L50 16L50 17L51 17L51 18L52 18L52 17L51 17L51 16L54 16L54 15ZM48 16L48 17L49 17L49 16ZM12 17L12 18L13 18L13 17ZM25 17L25 18L26 18L26 19L25 19L25 20L26 20L26 19L27 19L27 18L28 18L28 17L27 17L27 18L26 18L26 17ZM41 17L41 18L42 18L42 17ZM45 17L45 18L46 18L46 17ZM20 18L20 19L21 19L21 20L22 20L22 19L21 19L21 18ZM47 18L47 20L46 20L46 21L45 21L45 22L44 22L44 21L43 21L43 22L44 22L44 23L43 23L43 24L42 24L42 25L43 25L43 26L44 26L44 27L43 27L43 28L42 28L42 29L43 29L43 30L44 30L44 29L45 29L45 30L46 30L46 29L47 29L47 30L48 30L48 33L51 33L51 34L52 34L52 35L53 35L53 34L52 34L52 33L51 33L51 32L50 32L50 31L49 31L49 30L48 30L48 29L49 29L49 28L48 28L48 27L49 27L49 26L48 26L48 25L47 25L47 28L46 28L46 27L45 27L45 26L44 26L44 25L46 25L46 23L45 23L45 22L46 22L46 21L47 21L47 20L48 20L48 19L49 19L49 18ZM59 18L59 19L60 19L60 18ZM1 20L1 21L2 21L2 20ZM29 21L29 23L30 23L30 21ZM34 21L34 22L35 22L35 23L34 23L34 24L35 24L35 23L36 23L36 22L35 22L35 21ZM6 22L6 23L7 23L7 24L6 24L6 25L8 25L8 26L10 26L10 25L8 25L8 23L7 23L7 22ZM20 22L20 23L21 23L21 24L22 24L22 23L21 23L21 22ZM26 24L26 26L28 26L28 25L27 25L27 24ZM43 24L43 25L44 25L44 24ZM30 26L30 27L31 27L31 26ZM32 26L32 27L33 27L33 26ZM36 26L36 27L37 27L37 26ZM4 27L4 28L5 28L5 27ZM10 27L10 29L11 29L11 27ZM23 27L23 28L24 28L24 27ZM26 27L26 28L27 28L27 27ZM43 28L43 29L44 29L44 28ZM45 28L45 29L46 29L46 28ZM47 28L47 29L48 29L48 28ZM0 29L0 30L1 30L1 29ZM5 29L5 32L8 32L8 29ZM29 29L29 32L32 32L32 29ZM38 29L38 31L36 31L36 33L35 33L35 34L37 34L37 32L39 32L39 29ZM53 29L53 32L56 32L56 29ZM6 30L6 31L7 31L7 30ZM30 30L30 31L31 31L31 30ZM54 30L54 31L55 31L55 30ZM57 30L57 31L58 31L58 30ZM46 32L46 33L47 33L47 32ZM6 33L6 34L7 34L7 33ZM22 34L22 35L21 35L21 36L22 36L22 37L21 37L21 38L20 38L20 39L21 39L21 40L22 40L22 39L23 39L23 36L22 36L22 35L23 35L23 34ZM49 34L49 35L50 35L50 34ZM24 35L24 36L26 36L26 37L25 37L25 38L24 38L24 39L25 39L25 38L26 38L26 39L27 39L27 36L28 36L28 35L27 35L27 36L26 36L26 35ZM34 35L34 36L35 36L35 35ZM39 35L39 39L40 39L40 41L41 41L41 42L42 42L42 41L43 41L43 42L44 42L44 43L43 43L43 44L42 44L42 43L41 43L41 44L42 44L42 45L41 45L41 46L40 46L40 47L39 47L39 48L40 48L40 49L39 49L39 50L40 50L40 51L39 51L39 52L40 52L40 53L39 53L39 54L40 54L40 53L41 53L41 52L42 52L42 49L43 49L43 48L42 48L42 47L41 47L41 46L42 46L42 45L43 45L43 46L44 46L44 49L45 49L45 48L46 48L46 47L45 47L45 46L46 46L46 45L47 45L47 44L46 44L46 43L45 43L45 42L44 42L44 41L43 41L43 40L42 40L42 39L40 39L40 38L42 38L42 37L43 37L43 38L44 38L44 37L45 37L45 38L46 38L46 37L47 37L47 36L48 36L48 35L47 35L47 36L46 36L46 35L43 35L43 36L42 36L42 37L40 37L40 35ZM43 36L43 37L44 37L44 36ZM45 36L45 37L46 37L46 36ZM11 37L11 38L12 38L12 37ZM31 37L31 38L33 38L33 37ZM14 38L14 39L15 39L15 40L16 40L16 42L17 42L17 43L16 43L16 44L17 44L17 45L18 45L18 44L19 44L19 43L18 43L18 42L19 42L19 40L18 40L18 42L17 42L17 40L16 40L16 39L15 39L15 38ZM21 38L21 39L22 39L22 38ZM59 38L59 39L60 39L60 38ZM8 40L8 41L9 41L9 40ZM26 40L26 41L27 41L27 40ZM28 40L28 41L29 41L29 40ZM38 40L38 41L39 41L39 40ZM41 40L41 41L42 41L42 40ZM2 41L2 42L3 42L3 41ZM58 41L58 42L59 42L59 41ZM11 42L11 43L12 43L12 45L13 45L13 44L14 44L14 43L12 43L12 42ZM24 42L24 43L25 43L25 42ZM26 42L26 43L27 43L27 44L28 44L28 43L27 43L27 42ZM60 42L60 43L61 43L61 42ZM6 43L6 44L7 44L7 45L6 45L6 46L9 46L9 45L10 45L10 44L9 44L9 45L8 45L8 44L7 44L7 43ZM17 43L17 44L18 44L18 43ZM43 44L43 45L44 45L44 46L45 46L45 45L46 45L46 44L45 44L45 45L44 45L44 44ZM0 45L0 46L1 46L1 45ZM52 45L52 46L53 46L53 45ZM29 46L29 47L30 47L30 46ZM6 47L6 48L7 48L7 49L5 49L5 50L7 50L7 49L8 49L8 50L9 50L9 51L11 51L11 52L12 52L12 51L11 51L11 50L12 50L12 49L13 49L13 48L14 48L14 47L13 47L13 48L11 48L11 49L8 49L8 48L10 48L10 47ZM25 47L25 48L26 48L26 47ZM57 47L57 48L58 48L58 47ZM29 48L29 49L27 49L27 51L28 51L28 50L29 50L29 49L30 49L30 48ZM41 48L41 49L40 49L40 50L41 50L41 49L42 49L42 48ZM50 48L50 49L51 49L51 50L52 50L52 51L53 51L53 50L52 50L52 49L51 49L51 48ZM13 50L13 51L14 51L14 50ZM3 51L3 52L4 52L4 51ZM22 51L22 52L23 52L23 51ZM40 51L40 52L41 52L41 51ZM55 51L55 52L56 52L56 51ZM6 52L6 53L7 53L7 52ZM45 52L45 53L46 53L46 52ZM29 53L29 56L32 56L32 53ZM53 53L53 56L56 56L56 53ZM9 54L9 56L12 56L12 54ZM21 54L21 55L22 55L22 54ZM30 54L30 55L31 55L31 54ZM54 54L54 55L55 55L55 54ZM57 54L57 55L58 55L58 54ZM41 56L41 57L42 57L42 56ZM49 56L49 57L50 57L50 58L49 58L49 59L50 59L50 60L51 60L51 59L52 59L52 60L53 60L53 59L54 59L54 58L55 58L55 59L56 59L56 60L57 60L57 59L56 59L56 58L55 58L55 57L54 57L54 58L53 58L53 59L52 59L52 56ZM10 57L10 58L14 58L14 57ZM59 58L59 59L60 59L60 58ZM12 59L12 60L14 60L14 59ZM21 59L21 60L22 60L22 59ZM0 0L0 7L7 7L7 0ZM1 1L1 6L6 6L6 1ZM2 2L2 5L5 5L5 2ZM54 0L54 7L61 7L61 0ZM55 1L55 6L60 6L60 1ZM56 2L56 5L59 5L59 2ZM0 54L0 61L7 61L7 54ZM1 55L1 60L6 60L6 55ZM2 56L2 59L5 59L5 56Z" fill="#000000"/></g></g></svg>
