<?xml version="1.0" encoding="UTF-8"?>
<svg xmlns="http://www.w3.org/2000/svg" version="1.1" width="170" height="170" viewBox="0 0 170 170"><rect x="0" y="0" width="170" height="170" fill="#ffffff"/><g transform="scale(2.787)"><g transform="translate(0,0)"><path fill-rule="evenodd" d="M9 0L9 2L8 2L8 3L9 3L9 2L10 2L10 3L11 3L11 2L12 2L12 3L15 3L15 4L16 4L16 5L15 5L15 6L14 6L14 5L13 5L13 4L9 4L9 5L11 5L11 6L10 6L10 7L11 7L11 6L12 6L12 7L13 7L13 8L12 8L12 10L14 10L14 11L13 11L13 13L12 13L12 14L14 14L14 15L15 15L15 16L14 16L14 17L15 17L15 18L13 18L13 17L10 17L10 16L9 16L9 15L11 15L11 13L10 13L10 12L11 12L11 9L10 9L10 8L9 8L9 6L8 6L8 8L4 8L4 9L3 9L3 8L0 8L0 10L1 10L1 11L0 11L0 15L1 15L1 18L0 18L0 21L2 21L2 22L0 22L0 23L1 23L1 24L0 24L0 28L1 28L1 33L3 33L3 34L2 34L2 35L1 35L1 34L0 34L0 35L1 35L1 36L0 36L0 37L1 37L1 38L2 38L2 39L0 39L0 40L1 40L1 41L0 41L0 42L1 42L1 46L0 46L0 48L1 48L1 49L0 49L0 50L1 50L1 49L2 49L2 48L3 48L3 50L2 50L2 51L0 51L0 53L4 53L4 52L5 52L5 51L7 51L7 50L8 50L8 51L9 51L9 53L8 53L8 57L9 57L9 58L8 58L8 61L9 61L9 58L10 58L10 59L11 59L11 60L10 60L10 61L11 61L11 60L12 60L12 61L13 61L13 60L14 60L14 61L15 61L15 59L17 59L17 61L19 61L19 60L20 60L20 59L21 59L21 60L22 60L22 61L23 61L23 59L21 59L21 58L23 58L23 57L24 57L24 56L25 56L25 55L23 55L23 56L20 56L20 55L22 55L22 54L24 54L24 52L25 52L25 51L24 51L24 52L22 52L22 53L21 53L21 54L20 54L20 53L19 53L19 52L18 52L18 51L23 51L23 50L22 50L22 48L23 48L23 47L24 47L24 50L25 50L25 49L27 49L27 48L28 48L28 47L27 47L27 46L28 46L28 45L27 45L27 44L28 44L28 43L27 43L27 42L26 42L26 40L28 40L28 42L29 42L29 41L30 41L30 44L29 44L29 47L30 47L30 46L32 46L32 45L33 45L33 46L34 46L34 45L35 45L35 46L36 46L36 47L35 47L35 48L34 48L34 47L33 47L33 48L32 48L32 47L31 47L31 48L30 48L30 50L28 50L28 51L29 51L29 52L28 52L28 53L27 53L27 52L26 52L26 55L28 55L28 57L27 57L27 56L26 56L26 57L27 57L27 58L26 58L26 60L25 60L25 61L29 61L29 60L30 60L30 59L31 59L31 60L32 60L32 61L33 61L33 60L34 60L34 61L35 61L35 60L36 60L36 61L37 61L37 60L39 60L39 61L42 61L42 60L43 60L43 59L44 59L44 61L47 61L47 59L46 59L46 60L45 60L45 58L46 58L46 57L47 57L47 58L48 58L48 61L51 61L51 60L52 60L52 61L53 61L53 58L54 58L54 57L55 57L55 58L56 58L56 59L55 59L55 60L56 60L56 61L57 61L57 60L58 60L58 59L59 59L59 61L61 61L61 60L60 60L60 59L61 59L61 58L60 58L60 57L61 57L61 56L59 56L59 58L58 58L58 57L57 57L57 56L58 56L58 55L59 55L59 54L60 54L60 55L61 55L61 54L60 54L60 53L61 53L61 52L60 52L60 51L61 51L61 48L60 48L60 47L61 47L61 44L60 44L60 45L59 45L59 46L58 46L58 45L57 45L57 46L56 46L56 45L55 45L55 44L56 44L56 43L57 43L57 44L58 44L58 43L59 43L59 42L60 42L60 43L61 43L61 41L59 41L59 42L58 42L58 41L57 41L57 42L56 42L56 41L55 41L55 42L53 42L53 43L52 43L52 44L53 44L53 43L54 43L54 45L53 45L53 46L52 46L52 45L51 45L51 47L53 47L53 48L52 48L52 49L51 49L51 48L50 48L50 47L48 47L48 48L47 48L47 49L49 49L49 51L47 51L47 52L46 52L46 51L45 51L45 50L44 50L44 49L46 49L46 47L45 47L45 46L46 46L46 45L47 45L47 46L49 46L49 42L48 42L48 41L51 41L51 42L52 42L52 41L51 41L51 40L48 40L48 39L49 39L49 38L50 38L50 37L49 37L49 35L50 35L50 36L51 36L51 35L50 35L50 33L51 33L51 34L52 34L52 35L53 35L53 36L52 36L52 37L51 37L51 38L52 38L52 37L53 37L53 39L52 39L52 40L53 40L53 39L54 39L54 40L56 40L56 39L57 39L57 40L58 40L58 39L59 39L59 40L61 40L61 38L60 38L60 37L61 37L61 36L60 36L60 35L61 35L61 32L60 32L60 33L59 33L59 34L58 34L58 33L57 33L57 32L58 32L58 31L61 31L61 28L59 28L59 29L60 29L60 30L58 30L58 29L57 29L57 28L58 28L58 27L59 27L59 26L60 26L60 27L61 27L61 26L60 26L60 25L59 25L59 26L58 26L58 25L57 25L57 24L58 24L58 23L59 23L59 24L61 24L61 20L60 20L60 19L61 19L61 16L60 16L60 15L61 15L61 13L59 13L59 14L58 14L58 13L57 13L57 12L58 12L58 11L59 11L59 12L61 12L61 9L59 9L59 8L58 8L58 9L57 9L57 10L56 10L56 9L55 9L55 8L53 8L53 6L52 6L52 7L51 7L51 5L52 5L52 4L53 4L53 0L51 0L51 2L50 2L50 4L48 4L48 3L46 3L46 2L48 2L48 1L49 1L49 0L48 0L48 1L47 1L47 0L44 0L44 1L43 1L43 0L42 0L42 1L41 1L41 4L42 4L42 5L39 5L39 4L40 4L40 0L38 0L38 3L37 3L37 4L36 4L36 3L35 3L35 2L36 2L36 1L37 1L37 0L33 0L33 1L34 1L34 3L33 3L33 2L32 2L32 1L31 1L31 0L30 0L30 1L29 1L29 0L27 0L27 1L28 1L28 4L27 4L27 5L26 5L26 7L25 7L25 4L26 4L26 3L27 3L27 2L26 2L26 3L25 3L25 2L24 2L24 5L23 5L23 6L22 6L22 5L21 5L21 3L20 3L20 1L21 1L21 2L22 2L22 1L23 1L23 0L19 0L19 2L18 2L18 1L16 1L16 0L14 0L14 1L15 1L15 2L13 2L13 1L12 1L12 0ZM24 0L24 1L25 1L25 0ZM10 1L10 2L11 2L11 1ZM30 1L30 2L29 2L29 3L30 3L30 2L31 2L31 3L32 3L32 4L33 4L33 5L34 5L34 4L35 4L35 5L36 5L36 6L35 6L35 7L34 7L34 6L33 6L33 7L34 7L34 8L33 8L33 9L34 9L34 10L33 10L33 11L32 11L32 10L31 10L31 9L30 9L30 10L29 10L29 9L28 9L28 6L27 6L27 8L26 8L26 10L29 10L29 11L28 11L28 12L29 12L29 11L30 11L30 14L29 14L29 13L28 13L28 16L27 16L27 15L25 15L25 14L26 14L26 12L27 12L27 11L26 11L26 12L23 12L23 14L22 14L22 10L20 10L20 8L22 8L22 6L21 6L21 5L20 5L20 4L19 4L19 3L18 3L18 2L16 2L16 3L18 3L18 4L17 4L17 5L16 5L16 6L15 6L15 7L14 7L14 6L13 6L13 7L14 7L14 8L13 8L13 9L14 9L14 8L15 8L15 9L16 9L16 10L15 10L15 11L14 11L14 12L15 12L15 11L16 11L16 13L14 13L14 14L17 14L17 15L16 15L16 16L19 16L19 18L20 18L20 20L19 20L19 19L18 19L18 17L16 17L16 18L17 18L17 19L16 19L16 20L15 20L15 21L16 21L16 22L14 22L14 20L13 20L13 18L10 18L10 17L9 17L9 18L10 18L10 19L11 19L11 21L10 21L10 20L9 20L9 22L7 22L7 21L6 21L6 22L7 22L7 23L6 23L6 24L7 24L7 25L6 25L6 26L7 26L7 25L8 25L8 24L7 24L7 23L9 23L9 24L10 24L10 25L12 25L12 26L11 26L11 27L10 27L10 28L9 28L9 29L11 29L11 30L9 30L9 31L14 31L14 30L16 30L16 32L13 32L13 33L14 33L14 34L11 34L11 35L9 35L9 34L8 34L8 37L6 37L6 38L9 38L9 40L10 40L10 38L9 38L9 36L11 36L11 38L12 38L12 39L13 39L13 37L12 37L12 36L14 36L14 37L16 37L16 38L14 38L14 40L13 40L13 41L11 41L11 42L10 42L10 41L8 41L8 40L7 40L7 39L5 39L5 37L4 37L4 36L3 36L3 37L2 37L2 36L1 36L1 37L2 37L2 38L3 38L3 37L4 37L4 40L7 40L7 41L6 41L6 42L7 42L7 43L6 43L6 44L7 44L7 43L8 43L8 42L10 42L10 43L9 43L9 44L8 44L8 46L9 46L9 44L10 44L10 43L12 43L12 44L13 44L13 45L12 45L12 46L10 46L10 47L6 47L6 46L7 46L7 45L5 45L5 46L4 46L4 50L5 50L5 47L6 47L6 48L8 48L8 49L9 49L9 48L10 48L10 50L11 50L11 51L10 51L10 54L12 54L12 56L10 56L10 55L9 55L9 57L11 57L11 58L12 58L12 56L13 56L13 55L14 55L14 57L13 57L13 59L14 59L14 57L16 57L16 58L17 58L17 57L16 57L16 56L17 56L17 55L16 55L16 54L17 54L17 53L18 53L18 52L17 52L17 51L18 51L18 50L17 50L17 49L16 49L16 50L17 50L17 51L16 51L16 52L15 52L15 53L11 53L11 52L14 52L14 51L15 51L15 50L14 50L14 49L15 49L15 48L14 48L14 49L13 49L13 47L14 47L14 46L17 46L17 48L18 48L18 46L17 46L17 44L19 44L19 45L20 45L20 46L19 46L19 47L20 47L20 48L19 48L19 49L20 49L20 50L21 50L21 47L20 47L20 46L21 46L21 45L22 45L22 47L23 47L23 46L24 46L24 47L26 47L26 48L27 48L27 47L26 47L26 46L27 46L27 45L26 45L26 46L25 46L25 43L26 43L26 44L27 44L27 43L26 43L26 42L25 42L25 39L23 39L23 38L21 38L21 35L20 35L20 34L22 34L22 35L23 35L23 33L22 33L22 32L24 32L24 30L25 30L25 31L27 31L27 32L28 32L28 31L27 31L27 30L28 30L28 26L27 26L27 25L30 25L30 26L31 26L31 27L30 27L30 28L31 28L31 27L32 27L32 28L33 28L33 29L34 29L34 30L33 30L33 31L36 31L36 30L37 30L37 31L38 31L38 30L42 30L42 32L41 32L41 33L40 33L40 31L39 31L39 32L37 32L37 33L38 33L38 34L37 34L37 35L38 35L38 34L39 34L39 36L37 36L37 37L36 37L36 36L35 36L35 35L36 35L36 33L35 33L35 32L33 32L33 33L32 33L32 34L31 34L31 35L30 35L30 34L29 34L29 33L27 33L27 35L26 35L26 34L25 34L25 33L26 33L26 32L25 32L25 33L24 33L24 34L25 34L25 35L24 35L24 38L26 38L26 39L28 39L28 40L29 40L29 38L28 38L28 37L30 37L30 38L31 38L31 39L30 39L30 40L31 40L31 41L32 41L32 42L31 42L31 43L32 43L32 44L31 44L31 45L32 45L32 44L33 44L33 45L34 45L34 44L35 44L35 45L36 45L36 46L37 46L37 47L38 47L38 46L39 46L39 44L37 44L37 45L36 45L36 44L35 44L35 43L36 43L36 42L37 42L37 43L39 43L39 41L38 41L38 40L39 40L39 39L38 39L38 38L41 38L41 37L40 37L40 34L41 34L41 35L42 35L42 36L43 36L43 37L42 37L42 39L41 39L41 40L42 40L42 41L40 41L40 42L41 42L41 43L43 43L43 44L41 44L41 46L40 46L40 47L42 47L42 48L41 48L41 49L42 49L42 50L39 50L39 49L40 49L40 48L37 48L37 49L34 49L34 48L33 48L33 49L32 49L32 48L31 48L31 49L32 49L32 52L33 52L33 53L34 53L34 54L33 54L33 55L34 55L34 56L33 56L33 57L34 57L34 58L33 58L33 59L34 59L34 60L35 60L35 59L36 59L36 58L37 58L37 59L40 59L40 58L41 58L41 57L42 57L42 59L41 59L41 60L42 60L42 59L43 59L43 58L45 58L45 57L46 57L46 56L47 56L47 57L48 57L48 58L49 58L49 60L51 60L51 58L50 58L50 57L48 57L48 55L49 55L49 56L50 56L50 55L52 55L52 54L51 54L51 53L52 53L52 52L53 52L53 51L54 51L54 50L56 50L56 51L55 51L55 52L57 52L57 53L58 53L58 54L57 54L57 55L58 55L58 54L59 54L59 53L60 53L60 52L59 52L59 51L60 51L60 50L59 50L59 47L58 47L58 46L57 46L57 47L56 47L56 46L55 46L55 45L54 45L54 46L53 46L53 47L54 47L54 46L55 46L55 47L56 47L56 48L55 48L55 49L54 49L54 48L53 48L53 49L52 49L52 50L51 50L51 49L50 49L50 48L49 48L49 49L50 49L50 52L49 52L49 53L50 53L50 55L49 55L49 54L47 54L47 53L48 53L48 52L47 52L47 53L46 53L46 52L45 52L45 53L44 53L44 52L43 52L43 53L42 53L42 55L41 55L41 54L39 54L39 53L40 53L40 51L44 51L44 50L43 50L43 49L44 49L44 48L43 48L43 47L44 47L44 46L43 46L43 45L44 45L44 42L43 42L43 40L44 40L44 38L45 38L45 39L46 39L46 40L45 40L45 41L46 41L46 42L45 42L45 43L46 43L46 44L47 44L47 45L48 45L48 44L47 44L47 43L48 43L48 42L47 42L47 41L48 41L48 40L47 40L47 39L48 39L48 38L49 38L49 37L48 37L48 34L47 34L47 33L44 33L44 32L43 32L43 31L44 31L44 30L45 30L45 29L46 29L46 31L45 31L45 32L47 32L47 31L48 31L48 30L49 30L49 31L50 31L50 32L51 32L51 33L52 33L52 34L53 34L53 35L54 35L54 34L57 34L57 35L55 35L55 37L54 37L54 36L53 36L53 37L54 37L54 38L55 38L55 39L56 39L56 38L57 38L57 39L58 39L58 38L59 38L59 39L60 39L60 38L59 38L59 37L60 37L60 36L59 36L59 35L60 35L60 34L59 34L59 35L58 35L58 34L57 34L57 33L54 33L54 34L53 34L53 33L52 33L52 32L51 32L51 31L52 31L52 28L50 28L50 27L52 27L52 26L53 26L53 27L54 27L54 28L56 28L56 26L57 26L57 27L58 27L58 26L57 26L57 25L56 25L56 24L55 24L55 23L56 23L56 22L57 22L57 23L58 23L58 22L59 22L59 23L60 23L60 22L59 22L59 21L60 21L60 20L59 20L59 19L60 19L60 18L59 18L59 15L58 15L58 14L57 14L57 13L56 13L56 14L55 14L55 13L54 13L54 12L56 12L56 10L55 10L55 9L54 9L54 10L53 10L53 8L51 8L51 7L50 7L50 6L49 6L49 5L48 5L48 4L47 4L47 5L48 5L48 6L47 6L47 7L46 7L46 6L45 6L45 7L46 7L46 8L45 8L45 9L42 9L42 8L44 8L44 5L43 5L43 7L42 7L42 6L41 6L41 9L40 9L40 10L41 10L41 11L42 11L42 12L41 12L41 13L40 13L40 11L39 11L39 9L38 9L38 10L37 10L37 9L36 9L36 8L35 8L35 7L36 7L36 6L37 6L37 8L39 8L39 7L40 7L40 6L39 6L39 7L38 7L38 6L37 6L37 5L38 5L38 4L37 4L37 5L36 5L36 4L35 4L35 3L34 3L34 4L33 4L33 3L32 3L32 2L31 2L31 1ZM44 1L44 2L43 2L43 3L42 3L42 4L43 4L43 3L44 3L44 4L46 4L46 3L45 3L45 2L46 2L46 1ZM51 3L51 4L52 4L52 3ZM17 5L17 6L16 6L16 7L15 7L15 8L16 8L16 7L17 7L17 6L18 6L18 7L19 7L19 8L18 8L18 9L19 9L19 8L20 8L20 7L21 7L21 6L20 6L20 5L19 5L19 6L18 6L18 5ZM29 5L29 8L32 8L32 5ZM19 6L19 7L20 7L20 6ZM23 6L23 7L24 7L24 6ZM30 6L30 7L31 7L31 6ZM48 6L48 7L47 7L47 8L46 8L46 9L45 9L45 10L44 10L44 13L43 13L43 12L42 12L42 13L41 13L41 14L40 14L40 13L39 13L39 14L40 14L40 17L41 17L41 18L40 18L40 21L39 21L39 20L38 20L38 19L39 19L39 18L38 18L38 17L39 17L39 16L37 16L37 15L38 15L38 11L37 11L37 10L36 10L36 9L35 9L35 8L34 8L34 9L35 9L35 10L36 10L36 11L35 11L35 12L34 12L34 11L33 11L33 12L32 12L32 11L31 11L31 10L30 10L30 11L31 11L31 12L32 12L32 15L33 15L33 14L34 14L34 13L35 13L35 14L36 14L36 15L35 15L35 16L34 16L34 17L32 17L32 16L31 16L31 18L30 18L30 17L29 17L29 18L30 18L30 19L31 19L31 20L32 20L32 21L31 21L31 22L30 22L30 20L29 20L29 22L30 22L30 23L31 23L31 24L30 24L30 25L31 25L31 26L32 26L32 27L33 27L33 28L34 28L34 29L35 29L35 30L36 30L36 29L37 29L37 30L38 30L38 29L39 29L39 28L40 28L40 29L41 29L41 28L42 28L42 29L43 29L43 30L44 30L44 29L45 29L45 28L46 28L46 29L47 29L47 30L48 30L48 29L50 29L50 28L49 28L49 27L50 27L50 26L49 26L49 24L48 24L48 23L49 23L49 21L50 21L50 20L52 20L52 19L53 19L53 20L54 20L54 21L55 21L55 22L56 22L56 21L57 21L57 22L58 22L58 21L57 21L57 20L58 20L58 19L59 19L59 18L56 18L56 17L57 17L57 16L58 16L58 15L55 15L55 16L54 16L54 15L53 15L53 14L54 14L54 13L53 13L53 12L54 12L54 11L51 11L51 10L52 10L52 9L51 9L51 8L50 8L50 7L49 7L49 6ZM24 8L24 9L23 9L23 10L25 10L25 8ZM47 8L47 9L46 9L46 10L45 10L45 12L46 12L46 11L50 11L50 10L51 10L51 9L50 9L50 8L49 8L49 10L47 10L47 9L48 9L48 8ZM1 9L1 10L2 10L2 9ZM6 9L6 10L4 10L4 11L3 11L3 12L2 12L2 11L1 11L1 12L2 12L2 13L1 13L1 14L2 14L2 15L4 15L4 17L5 17L5 19L6 19L6 20L7 20L7 19L8 19L8 18L7 18L7 17L8 17L8 16L7 16L7 15L8 15L8 14L10 14L10 13L6 13L6 14L4 14L4 12L7 12L7 11L8 11L8 12L10 12L10 11L8 11L8 10L9 10L9 9L8 9L8 10L7 10L7 9ZM58 9L58 10L57 10L57 11L58 11L58 10L59 10L59 11L60 11L60 10L59 10L59 9ZM6 10L6 11L7 11L7 10ZM16 10L16 11L17 11L17 13L19 13L19 14L18 14L18 15L19 15L19 16L20 16L20 15L21 15L21 18L22 18L22 19L23 19L23 18L22 18L22 16L23 16L23 15L24 15L24 18L25 18L25 15L24 15L24 14L23 14L23 15L22 15L22 14L20 14L20 13L19 13L19 12L18 12L18 11L19 11L19 10L18 10L18 11L17 11L17 10ZM20 11L20 12L21 12L21 11ZM33 12L33 13L34 13L34 12ZM35 12L35 13L36 13L36 14L37 14L37 13L36 13L36 12ZM49 12L49 14L47 14L47 13L46 13L46 16L45 16L45 17L44 17L44 16L43 16L43 15L44 15L44 14L43 14L43 13L42 13L42 14L41 14L41 15L42 15L42 16L41 16L41 17L42 17L42 18L41 18L41 19L42 19L42 20L41 20L41 21L40 21L40 22L41 22L41 21L42 21L42 23L44 23L44 22L45 22L45 23L46 23L46 24L45 24L45 25L46 25L46 26L45 26L45 27L46 27L46 28L48 28L48 27L49 27L49 26L47 26L47 25L48 25L48 24L47 24L47 23L48 23L48 19L49 19L49 20L50 20L50 19L52 19L52 18L55 18L55 19L54 19L54 20L55 20L55 21L56 21L56 20L55 20L55 19L56 19L56 18L55 18L55 17L56 17L56 16L55 16L55 17L54 17L54 16L53 16L53 15L52 15L52 14L53 14L53 13L51 13L51 12ZM2 13L2 14L3 14L3 13ZM6 14L6 15L5 15L5 17L7 17L7 16L6 16L6 15L7 15L7 14ZM19 14L19 15L20 15L20 14ZM30 14L30 15L29 15L29 16L30 16L30 15L31 15L31 14ZM12 15L12 16L13 16L13 15ZM47 15L47 16L48 16L48 18L47 18L47 19L46 19L46 20L47 20L47 19L48 19L48 18L49 18L49 19L50 19L50 17L51 17L51 18L52 18L52 17L51 17L51 16L52 16L52 15L51 15L51 16L50 16L50 15ZM2 16L2 17L3 17L3 16ZM26 16L26 19L24 19L24 20L21 20L21 22L20 22L20 21L19 21L19 20L18 20L18 19L17 19L17 20L18 20L18 21L17 21L17 22L16 22L16 23L15 23L15 24L13 24L13 25L14 25L14 26L16 26L16 25L15 25L15 24L16 24L16 23L17 23L17 26L18 26L18 27L12 27L12 29L14 29L14 28L15 28L15 29L16 29L16 28L17 28L17 29L18 29L18 32L16 32L16 34L17 34L17 33L18 33L18 35L16 35L16 36L18 36L18 37L17 37L17 38L16 38L16 39L15 39L15 40L16 40L16 41L15 41L15 42L14 42L14 41L13 41L13 42L14 42L14 44L15 44L15 45L16 45L16 44L17 44L17 43L19 43L19 42L17 42L17 43L15 43L15 42L16 42L16 41L17 41L17 40L16 40L16 39L17 39L17 38L18 38L18 39L19 39L19 40L18 40L18 41L19 41L19 40L20 40L20 42L23 42L23 40L22 40L22 39L21 39L21 38L20 38L20 37L19 37L19 36L20 36L20 35L19 35L19 32L20 32L20 31L21 31L21 30L22 30L22 31L23 31L23 30L22 30L22 29L23 29L23 28L22 28L22 29L21 29L21 30L20 30L20 29L19 29L19 28L20 28L20 27L21 27L21 26L23 26L23 27L24 27L24 28L26 28L26 29L25 29L25 30L27 30L27 27L24 27L24 26L23 26L23 25L22 25L22 24L21 24L21 22L24 22L24 23L25 23L25 22L24 22L24 20L26 20L26 23L27 23L27 22L28 22L28 20L26 20L26 19L28 19L28 17L27 17L27 16ZM42 16L42 17L43 17L43 18L44 18L44 19L43 19L43 20L42 20L42 21L43 21L43 22L44 22L44 21L45 21L45 18L44 18L44 17L43 17L43 16ZM49 16L49 17L50 17L50 16ZM34 17L34 20L33 20L33 19L32 19L32 18L31 18L31 19L32 19L32 20L33 20L33 21L34 21L34 22L33 22L33 23L32 23L32 22L31 22L31 23L32 23L32 24L31 24L31 25L32 25L32 24L33 24L33 25L34 25L34 26L33 26L33 27L34 27L34 28L35 28L35 29L36 29L36 28L35 28L35 27L36 27L36 26L37 26L37 27L40 27L40 26L41 26L41 27L42 27L42 28L43 28L43 29L44 29L44 27L43 27L43 25L38 25L38 24L40 24L40 23L38 23L38 22L39 22L39 21L38 21L38 20L37 20L37 21L36 21L36 20L35 20L35 19L38 19L38 18L37 18L37 17L36 17L36 18L35 18L35 17ZM2 18L2 19L3 19L3 22L5 22L5 21L4 21L4 18ZM6 18L6 19L7 19L7 18ZM12 20L12 21L11 21L11 22L10 22L10 23L11 23L11 24L12 24L12 23L13 23L13 22L12 22L12 21L13 21L13 20ZM34 20L34 21L35 21L35 22L36 22L36 23L35 23L35 24L34 24L34 23L33 23L33 24L34 24L34 25L35 25L35 26L36 26L36 25L37 25L37 24L38 24L38 23L37 23L37 22L38 22L38 21L37 21L37 22L36 22L36 21L35 21L35 20ZM43 20L43 21L44 21L44 20ZM11 22L11 23L12 23L12 22ZM18 22L18 23L19 23L19 24L18 24L18 26L19 26L19 24L20 24L20 23L19 23L19 22ZM52 22L52 23L53 23L53 24L54 24L54 25L53 25L53 26L54 26L54 25L55 25L55 26L56 26L56 25L55 25L55 24L54 24L54 23L53 23L53 22ZM3 23L3 24L4 24L4 26L3 26L3 25L2 25L2 24L1 24L1 25L2 25L2 26L1 26L1 28L5 28L5 27L4 27L4 26L5 26L5 23ZM50 23L50 24L51 24L51 26L52 26L52 24L51 24L51 23ZM26 24L26 25L27 25L27 24ZM35 24L35 25L36 25L36 24ZM46 24L46 25L47 25L47 24ZM20 25L20 26L21 26L21 25ZM8 26L8 27L6 27L6 28L8 28L8 27L9 27L9 26ZM2 29L2 30L3 30L3 31L4 31L4 30L3 30L3 29ZM5 29L5 32L8 32L8 29ZM29 29L29 32L32 32L32 29ZM53 29L53 32L56 32L56 29ZM6 30L6 31L7 31L7 30ZM19 30L19 31L20 31L20 30ZM30 30L30 31L31 31L31 30ZM54 30L54 31L55 31L55 30ZM57 30L57 31L58 31L58 30ZM3 32L3 33L4 33L4 34L3 34L3 35L4 35L4 34L5 34L5 36L7 36L7 35L6 35L6 34L7 34L7 33L6 33L6 34L5 34L5 33L4 33L4 32ZM11 32L11 33L12 33L12 32ZM42 32L42 33L41 33L41 34L42 34L42 33L43 33L43 34L44 34L44 35L43 35L43 36L44 36L44 37L43 37L43 38L44 38L44 37L45 37L45 38L46 38L46 37L47 37L47 38L48 38L48 37L47 37L47 36L45 36L45 35L46 35L46 34L44 34L44 33L43 33L43 32ZM33 33L33 34L34 34L34 33ZM39 33L39 34L40 34L40 33ZM28 34L28 35L27 35L27 36L26 36L26 38L27 38L27 36L28 36L28 35L29 35L29 36L30 36L30 37L31 37L31 38L32 38L32 35L31 35L31 36L30 36L30 35L29 35L29 34ZM14 35L14 36L15 36L15 35ZM18 35L18 36L19 36L19 35ZM33 35L33 36L34 36L34 37L33 37L33 38L34 38L34 37L35 37L35 38L36 38L36 39L35 39L35 40L34 40L34 39L33 39L33 40L32 40L32 39L31 39L31 40L32 40L32 41L33 41L33 42L34 42L34 41L35 41L35 42L36 42L36 41L37 41L37 42L38 42L38 41L37 41L37 38L38 38L38 37L37 37L37 38L36 38L36 37L35 37L35 36L34 36L34 35ZM55 37L55 38L56 38L56 37ZM57 37L57 38L58 38L58 37ZM19 38L19 39L20 39L20 40L21 40L21 39L20 39L20 38ZM2 39L2 42L3 42L3 43L5 43L5 41L4 41L4 42L3 42L3 39ZM42 39L42 40L43 40L43 39ZM33 40L33 41L34 41L34 40ZM35 40L35 41L36 41L36 40ZM46 40L46 41L47 41L47 40ZM55 42L55 43L56 43L56 42ZM57 42L57 43L58 43L58 42ZM20 43L20 44L22 44L22 45L23 45L23 44L24 44L24 43ZM33 43L33 44L34 44L34 43ZM50 43L50 44L51 44L51 43ZM2 44L2 47L3 47L3 44ZM13 45L13 46L14 46L14 45ZM37 45L37 46L38 46L38 45ZM11 47L11 49L12 49L12 47ZM57 47L57 48L58 48L58 47ZM42 48L42 49L43 49L43 48ZM6 49L6 50L7 50L7 49ZM33 49L33 52L34 52L34 53L35 53L35 54L36 54L36 55L35 55L35 56L34 56L34 57L35 57L35 58L36 58L36 57L38 57L38 56L37 56L37 54L38 54L38 53L37 53L37 52L39 52L39 51L37 51L37 50L38 50L38 49L37 49L37 50L36 50L36 51L35 51L35 52L34 52L34 49ZM53 49L53 50L52 50L52 51L53 51L53 50L54 50L54 49ZM12 50L12 51L14 51L14 50ZM30 50L30 51L31 51L31 50ZM58 50L58 51L57 51L57 52L58 52L58 51L59 51L59 50ZM3 51L3 52L4 52L4 51ZM6 52L6 53L7 53L7 52ZM35 52L35 53L36 53L36 54L37 54L37 53L36 53L36 52ZM50 52L50 53L51 53L51 52ZM15 53L15 54L16 54L16 53ZM29 53L29 56L32 56L32 53ZM45 53L45 54L44 54L44 56L43 56L43 55L42 55L42 56L43 56L43 57L45 57L45 56L46 56L46 53ZM53 53L53 56L56 56L56 53ZM18 54L18 55L20 55L20 54ZM30 54L30 55L31 55L31 54ZM54 54L54 55L55 55L55 54ZM15 55L15 56L16 56L16 55ZM39 55L39 58L40 58L40 57L41 57L41 56L40 56L40 55ZM18 56L18 58L19 58L19 56ZM35 56L35 57L36 57L36 56ZM51 56L51 57L52 57L52 56ZM20 57L20 58L21 58L21 57ZM28 57L28 59L30 59L30 57ZM24 58L24 59L25 59L25 58ZM31 58L31 59L32 59L32 58ZM57 58L57 59L56 59L56 60L57 60L57 59L58 59L58 58ZM59 58L59 59L60 59L60 58ZM0 0L0 7L7 7L7 0ZM1 1L1 6L6 6L6 1ZM2 2L2 5L5 5L5 2ZM54 0L54 7L61 7L61 0ZM55 1L55 6L60 6L60 1ZM56 2L56 5L59 5L59 2ZM0 54L0 61L7 61L7 54ZM1 55L1 60L6 60L6 55ZM2 56L2 59L5 59L5 56Z" fill="#000000"/></g></g></svg>
