<?xml version="1.0" encoding="UTF-8"?>
<svg xmlns="http://www.w3.org/2000/svg" version="1.1" width="180" height="180" viewBox="0 0 180 180"><rect x="0" y="0" width="180" height="180" fill="#ffffff"/><g transform="scale(3.396)"><g transform="translate(0,0)"><path fill-rule="evenodd" d="M8 0L8 1L9 1L9 0ZM10 0L10 2L8 2L8 5L9 5L9 4L10 4L10 5L11 5L11 6L10 6L10 7L11 7L11 10L10 10L10 8L8 8L8 9L7 9L7 8L6 8L6 9L4 9L4 8L0 8L0 9L4 9L4 10L3 10L3 11L2 11L2 10L1 10L1 11L0 11L0 13L1 13L1 14L0 14L0 17L1 17L1 16L2 16L2 18L0 18L0 19L2 19L2 20L1 20L1 21L0 21L0 24L1 24L1 23L2 23L2 24L4 24L4 25L2 25L2 26L4 26L4 28L3 28L3 27L2 27L2 28L1 28L1 30L3 30L3 31L4 31L4 32L3 32L3 34L1 34L1 36L0 36L0 39L1 39L1 36L2 36L2 37L3 37L3 38L2 38L2 40L1 40L1 42L0 42L0 43L1 43L1 44L3 44L3 45L4 45L4 44L3 44L3 43L8 43L8 44L6 44L6 45L8 45L8 46L10 46L10 44L11 44L11 46L12 46L12 45L13 45L13 44L11 44L11 42L13 42L13 41L12 41L12 40L14 40L14 41L15 41L15 40L16 40L16 39L17 39L17 38L19 38L19 39L18 39L18 40L17 40L17 41L16 41L16 42L14 42L14 44L15 44L15 46L16 46L16 44L15 44L15 43L16 43L16 42L17 42L17 41L18 41L18 43L17 43L17 44L18 44L18 43L19 43L19 45L21 45L21 46L20 46L20 47L19 47L19 48L18 48L18 49L17 49L17 47L18 47L18 45L17 45L17 47L16 47L16 48L15 48L15 49L14 49L14 50L13 50L13 49L12 49L12 50L11 50L11 48L12 48L12 47L9 47L9 49L8 49L8 53L10 53L10 52L11 52L11 53L12 53L12 51L14 51L14 50L15 50L15 49L17 49L17 50L16 50L16 51L15 51L15 52L13 52L13 53L18 53L18 52L20 52L20 50L22 50L22 51L21 51L21 52L22 52L22 51L23 51L23 50L24 50L24 49L26 49L26 51L25 51L25 52L27 52L27 53L28 53L28 52L30 52L30 53L33 53L33 51L32 51L32 50L33 50L33 49L34 49L34 48L35 48L35 49L37 49L37 51L39 51L39 52L38 52L38 53L39 53L39 52L41 52L41 53L42 53L42 52L43 52L43 51L44 51L44 52L46 52L46 53L48 53L48 52L49 52L49 51L48 51L48 52L46 52L46 51L47 51L47 50L51 50L51 53L52 53L52 48L53 48L53 47L52 47L52 48L50 48L50 47L51 47L51 46L53 46L53 45L52 45L52 44L51 44L51 43L49 43L49 42L48 42L48 41L49 41L49 39L51 39L51 40L52 40L52 39L53 39L53 35L52 35L52 34L53 34L53 32L52 32L52 33L51 33L51 34L49 34L49 33L50 33L50 32L51 32L51 31L52 31L52 30L51 30L51 29L52 29L52 27L53 27L53 25L52 25L52 24L53 24L53 23L52 23L52 24L51 24L51 25L49 25L49 24L50 24L50 23L51 23L51 22L53 22L53 21L50 21L50 20L51 20L51 19L52 19L52 20L53 20L53 19L52 19L52 18L51 18L51 19L49 19L49 18L50 18L50 16L49 16L49 18L48 18L48 19L47 19L47 17L48 17L48 16L47 16L47 17L46 17L46 18L44 18L44 21L45 21L45 19L46 19L46 21L47 21L47 22L46 22L46 24L44 24L44 23L45 23L45 22L44 22L44 23L43 23L43 21L42 21L42 23L41 23L41 20L42 20L42 17L39 17L39 16L43 16L43 15L45 15L45 16L46 16L46 15L45 15L45 14L46 14L46 13L49 13L49 12L50 12L50 14L49 14L49 15L51 15L51 16L52 16L52 15L53 15L53 13L52 13L52 12L53 12L53 11L52 11L52 12L50 12L50 11L51 11L51 10L50 10L50 11L48 11L48 10L49 10L49 9L51 9L51 8L48 8L48 10L46 10L46 8L45 8L45 6L44 6L44 7L43 7L43 3L44 3L44 4L45 4L45 3L44 3L44 1L43 1L43 0L42 0L42 1L41 1L41 2L43 2L43 3L42 3L42 7L41 7L41 5L40 5L40 2L36 2L36 1L37 1L37 0L36 0L36 1L34 1L34 0L33 0L33 1L32 1L32 0L30 0L30 2L32 2L32 3L30 3L30 4L32 4L32 5L30 5L30 7L29 7L29 2L27 2L27 3L26 3L26 2L25 2L25 3L24 3L24 4L22 4L22 3L21 3L21 4L20 4L20 2L21 2L21 1L20 1L20 2L19 2L19 3L16 3L16 2L18 2L18 1L17 1L17 0L16 0L16 2L15 2L15 1L14 1L14 2L13 2L13 0L12 0L12 2L11 2L11 0ZM22 0L22 2L24 2L24 1L25 1L25 0L24 0L24 1L23 1L23 0ZM27 0L27 1L29 1L29 0ZM39 0L39 1L40 1L40 0ZM33 1L33 3L32 3L32 4L33 4L33 7L32 7L32 6L31 6L31 10L32 10L32 11L31 11L31 12L32 12L32 13L33 13L33 14L31 14L31 13L29 13L29 12L30 12L30 11L29 11L29 10L30 10L30 8L29 8L29 10L28 10L28 9L23 9L23 10L22 10L22 8L23 8L23 7L24 7L24 5L23 5L23 7L22 7L22 4L21 4L21 5L20 5L20 6L19 6L19 5L18 5L18 4L15 4L15 2L14 2L14 3L13 3L13 2L12 2L12 4L13 4L13 5L12 5L12 6L11 6L11 7L12 7L12 8L13 8L13 7L14 7L14 6L15 6L15 8L14 8L14 10L12 10L12 11L10 11L10 10L9 10L9 11L6 11L6 12L9 12L9 13L4 13L4 11L3 11L3 12L2 12L2 11L1 11L1 12L2 12L2 14L3 14L3 13L4 13L4 14L5 14L5 15L6 15L6 16L7 16L7 17L5 17L5 16L4 16L4 17L5 17L5 18L2 18L2 19L4 19L4 20L5 20L5 18L7 18L7 19L6 19L6 20L8 20L8 22L9 22L9 20L11 20L11 22L13 22L13 23L12 23L12 24L13 24L13 25L15 25L15 26L14 26L14 27L13 27L13 26L12 26L12 27L11 27L11 28L12 28L12 27L13 27L13 29L14 29L14 28L15 28L15 30L16 30L16 31L13 31L13 35L14 35L14 36L11 36L11 35L12 35L12 30L10 30L10 29L5 29L5 32L4 32L4 33L5 33L5 34L8 34L8 35L4 35L4 34L3 34L3 37L5 37L5 39L6 39L6 40L5 40L5 41L6 41L6 42L8 42L8 41L9 41L9 44L10 44L10 42L11 42L11 40L10 40L10 41L9 41L9 40L8 40L8 41L6 41L6 40L7 40L7 39L9 39L9 37L6 37L6 36L10 36L10 37L11 37L11 38L10 38L10 39L13 39L13 38L14 38L14 40L15 40L15 39L16 39L16 38L17 38L17 37L18 37L18 35L16 35L16 32L17 32L17 34L19 34L19 35L21 35L21 36L22 36L22 37L21 37L21 38L20 38L20 36L19 36L19 38L20 38L20 39L19 39L19 40L18 40L18 41L20 41L20 42L19 42L19 43L21 43L21 45L22 45L22 44L23 44L23 45L24 45L24 44L23 44L23 43L25 43L25 40L24 40L24 38L25 38L25 39L26 39L26 38L27 38L27 39L28 39L28 40L27 40L27 41L28 41L28 42L27 42L27 44L29 44L29 43L31 43L31 44L30 44L30 45L31 45L31 44L32 44L32 46L36 46L36 47L40 47L40 48L39 48L39 49L40 49L40 50L39 50L39 51L40 51L40 50L41 50L41 51L42 51L42 50L44 50L44 51L46 51L46 50L47 50L47 49L44 49L44 48L43 48L43 47L44 47L44 45L43 45L43 43L45 43L45 42L46 42L46 43L48 43L48 44L49 44L49 43L48 43L48 42L46 42L46 41L47 41L47 40L48 40L48 39L49 39L49 38L51 38L51 39L52 39L52 37L49 37L49 36L51 36L51 35L49 35L49 34L48 34L48 32L50 32L50 30L49 30L49 29L51 29L51 27L52 27L52 26L50 26L50 28L49 28L49 29L47 29L47 30L46 30L46 29L45 29L45 30L46 30L46 31L45 31L45 32L44 32L44 34L43 34L43 37L42 37L42 38L44 38L44 37L45 37L45 39L44 39L44 40L42 40L42 39L41 39L41 40L40 40L40 41L37 41L37 40L39 40L39 39L40 39L40 38L41 38L41 34L42 34L42 32L41 32L41 34L40 34L40 33L39 33L39 32L40 32L40 31L39 31L39 30L40 30L40 29L41 29L41 31L44 31L44 30L43 30L43 29L44 29L44 26L43 26L43 25L42 25L42 24L43 24L43 23L42 23L42 24L41 24L41 23L40 23L40 22L39 22L39 21L40 21L40 20L38 20L38 21L37 21L37 20L35 20L35 19L36 19L36 18L37 18L37 19L38 19L38 18L39 18L39 17L38 17L38 16L39 16L39 15L38 15L38 13L39 13L39 14L41 14L41 9L42 9L42 8L41 8L41 9L40 9L40 5L39 5L39 7L38 7L38 3L37 3L37 4L36 4L36 2L35 2L35 3L34 3L34 1ZM10 2L10 3L11 3L11 2ZM27 3L27 4L28 4L28 3ZM33 3L33 4L34 4L34 3ZM35 4L35 5L36 5L36 4ZM13 5L13 6L12 6L12 7L13 7L13 6L14 6L14 5ZM25 5L25 8L28 8L28 5ZM8 6L8 7L9 7L9 6ZM16 6L16 8L15 8L15 10L14 10L14 11L12 11L12 12L10 12L10 14L9 14L9 15L8 15L8 14L6 14L6 15L8 15L8 17L7 17L7 18L8 18L8 20L9 20L9 18L11 18L11 20L13 20L13 21L14 21L14 23L15 23L15 22L16 22L16 21L17 21L17 23L16 23L16 24L17 24L17 23L18 23L18 20L17 20L17 18L16 18L16 17L15 17L15 19L14 19L14 20L13 20L13 18L14 18L14 16L17 16L17 17L18 17L18 18L20 18L20 17L18 17L18 16L19 16L19 15L20 15L20 14L21 14L21 13L22 13L22 14L24 14L24 13L25 13L25 12L26 12L26 14L25 14L25 15L24 15L24 16L23 16L23 17L24 17L24 16L25 16L25 18L26 18L26 16L25 16L25 15L26 15L26 14L27 14L27 13L28 13L28 15L27 15L27 16L28 16L28 15L30 15L30 16L29 16L29 19L28 19L28 18L27 18L27 19L25 19L25 20L24 20L24 18L23 18L23 20L22 20L22 21L21 21L21 19L22 19L22 17L21 17L21 19L20 19L20 20L19 20L19 21L21 21L21 22L20 22L20 23L19 23L19 24L18 24L18 25L17 25L17 26L15 26L15 28L16 28L16 30L18 30L18 31L17 31L17 32L18 32L18 31L19 31L19 30L20 30L20 29L18 29L18 28L19 28L19 27L20 27L20 26L22 26L22 27L21 27L21 28L22 28L22 27L23 27L23 26L24 26L24 29L23 29L23 30L24 30L24 29L26 29L26 31L27 31L27 29L28 29L28 31L30 31L30 32L28 32L28 33L26 33L26 34L25 34L25 31L23 31L23 32L22 32L22 34L23 34L23 35L22 35L22 36L23 36L23 35L24 35L24 34L25 34L25 36L24 36L24 37L25 37L25 36L26 36L26 35L27 35L27 34L28 34L28 36L27 36L27 37L29 37L29 36L30 36L30 37L32 37L32 38L30 38L30 39L29 39L29 40L28 40L28 41L29 41L29 42L28 42L28 43L29 43L29 42L30 42L30 41L31 41L31 42L32 42L32 41L33 41L33 40L34 40L34 39L32 39L32 38L34 38L34 36L35 36L35 35L36 35L36 37L35 37L35 38L36 38L36 37L37 37L37 36L38 36L38 38L37 38L37 39L36 39L36 40L35 40L35 41L34 41L34 42L33 42L33 43L35 43L35 44L33 44L33 45L35 45L35 44L37 44L37 45L36 45L36 46L37 46L37 45L38 45L38 44L40 44L40 45L39 45L39 46L40 46L40 45L42 45L42 47L43 47L43 45L42 45L42 43L43 43L43 42L44 42L44 41L46 41L46 40L47 40L47 38L48 38L48 37L47 37L47 38L46 38L46 39L45 39L45 40L44 40L44 41L43 41L43 42L42 42L42 40L41 40L41 42L42 42L42 43L40 43L40 42L38 42L38 44L37 44L37 41L36 41L36 40L37 40L37 39L39 39L39 38L40 38L40 34L39 34L39 35L37 35L37 34L38 34L38 32L39 32L39 31L37 31L37 30L38 30L38 29L37 29L37 30L36 30L36 31L35 31L35 32L34 32L34 33L33 33L33 34L32 34L32 35L31 35L31 32L33 32L33 31L34 31L34 30L35 30L35 29L36 29L36 28L35 28L35 29L33 29L33 28L34 28L34 27L33 27L33 26L30 26L30 28L31 28L31 27L32 27L32 29L31 29L31 31L30 31L30 29L29 29L29 23L30 23L30 24L31 24L31 25L32 25L32 24L33 24L33 25L34 25L34 24L35 24L35 23L36 23L36 25L35 25L35 26L36 26L36 27L38 27L38 28L39 28L39 27L40 27L40 28L41 28L41 27L42 27L42 28L43 28L43 26L42 26L42 25L40 25L40 26L39 26L39 25L37 25L37 24L38 24L38 23L39 23L39 24L40 24L40 23L39 23L39 22L38 22L38 23L36 23L36 22L37 22L37 21L36 21L36 22L34 22L34 21L35 21L35 20L34 20L34 21L31 21L31 20L30 20L30 16L31 16L31 17L32 17L32 18L31 18L31 19L35 19L35 17L36 17L36 16L35 16L35 17L34 17L34 18L33 18L33 16L34 16L34 15L32 15L32 16L31 16L31 14L29 14L29 13L28 13L28 12L29 12L29 11L28 11L28 12L26 12L26 11L27 11L27 10L26 10L26 11L25 11L25 10L23 10L23 11L22 11L22 12L20 12L20 11L21 11L21 10L20 10L20 11L18 11L18 10L17 10L17 11L16 11L16 9L17 9L17 8L18 8L18 7L19 7L19 6L18 6L18 7L17 7L17 6ZM20 6L20 8L19 8L19 9L21 9L21 8L22 8L22 7L21 7L21 6ZM26 6L26 7L27 7L27 6ZM34 6L34 7L35 7L35 8L34 8L34 9L32 9L32 10L34 10L34 12L33 12L33 11L32 11L32 12L33 12L33 13L34 13L34 12L35 12L35 11L36 11L36 13L35 13L35 14L36 14L36 13L37 13L37 11L36 11L36 10L37 10L37 9L36 9L36 10L34 10L34 9L35 9L35 8L38 8L38 7L37 7L37 6L36 6L36 7L35 7L35 6ZM52 8L52 10L53 10L53 8ZM6 9L6 10L7 10L7 9ZM39 9L39 10L40 10L40 9ZM44 9L44 10L45 10L45 11L44 11L44 12L45 12L45 13L46 13L46 10L45 10L45 9ZM14 11L14 12L13 12L13 16L11 16L11 18L12 18L12 17L13 17L13 16L14 16L14 14L15 14L15 15L17 15L17 16L18 16L18 15L19 15L19 14L20 14L20 12L19 12L19 14L17 14L17 12L18 12L18 11L17 11L17 12L16 12L16 11ZM23 11L23 12L22 12L22 13L23 13L23 12L25 12L25 11ZM39 11L39 13L40 13L40 11ZM47 11L47 12L48 12L48 11ZM15 12L15 13L16 13L16 12ZM42 13L42 14L44 14L44 13ZM51 13L51 15L52 15L52 13ZM11 14L11 15L12 15L12 14ZM2 15L2 16L3 16L3 15ZM21 15L21 16L22 16L22 15ZM9 16L9 17L8 17L8 18L9 18L9 17L10 17L10 16ZM37 17L37 18L38 18L38 17ZM27 19L27 21L26 21L26 20L25 20L25 23L22 23L22 22L21 22L21 23L20 23L20 24L19 24L19 26L20 26L20 24L22 24L22 25L23 25L23 24L25 24L25 23L26 23L26 24L28 24L28 23L29 23L29 22L27 22L27 21L30 21L30 20L28 20L28 19ZM2 20L2 21L1 21L1 22L3 22L3 20ZM14 20L14 21L16 21L16 20ZM23 20L23 22L24 22L24 20ZM48 20L48 22L47 22L47 24L48 24L48 23L49 23L49 22L50 22L50 21L49 21L49 20ZM4 21L4 22L5 22L5 21ZM6 21L6 22L7 22L7 21ZM33 22L33 24L34 24L34 22ZM4 23L4 24L5 24L5 23ZM6 23L6 24L9 24L9 28L10 28L10 26L11 26L11 23ZM5 25L5 28L8 28L8 25ZM25 25L25 28L28 28L28 25ZM45 25L45 28L48 28L48 25ZM6 26L6 27L7 27L7 26ZM17 26L17 27L16 27L16 28L18 28L18 26ZM26 26L26 27L27 27L27 26ZM38 26L38 27L39 27L39 26ZM40 26L40 27L41 27L41 26ZM46 26L46 27L47 27L47 26ZM32 29L32 31L33 31L33 29ZM6 30L6 31L7 31L7 30ZM8 30L8 32L10 32L10 33L9 33L9 35L11 35L11 31L9 31L9 30ZM48 30L48 31L46 31L46 33L47 33L47 32L48 32L48 31L49 31L49 30ZM0 31L0 32L2 32L2 31ZM20 31L20 32L19 32L19 33L21 33L21 31ZM36 31L36 32L35 32L35 33L34 33L34 34L33 34L33 35L34 35L34 34L37 34L37 31ZM6 32L6 33L7 33L7 32ZM14 32L14 33L15 33L15 32ZM28 33L28 34L29 34L29 33ZM14 34L14 35L15 35L15 36L16 36L16 37L17 37L17 36L16 36L16 35L15 35L15 34ZM45 34L45 35L44 35L44 36L45 36L45 37L46 37L46 34ZM47 34L47 36L48 36L48 34ZM30 35L30 36L31 36L31 35ZM32 36L32 37L33 37L33 36ZM12 37L12 38L13 38L13 37ZM22 37L22 39L23 39L23 37ZM3 38L3 39L4 39L4 38ZM6 38L6 39L7 39L7 38ZM30 39L30 40L31 40L31 41L32 41L32 39ZM2 40L2 43L3 43L3 41L4 41L4 40ZM20 40L20 41L21 41L21 43L22 43L22 41L21 41L21 40ZM23 40L23 42L24 42L24 40ZM35 41L35 43L36 43L36 41ZM25 45L25 48L28 48L28 45ZM45 45L45 48L48 48L48 45ZM49 45L49 47L50 47L50 46L51 46L51 45ZM21 46L21 47L20 47L20 48L22 48L22 49L24 49L24 46L23 46L23 47L22 47L22 46ZM26 46L26 47L27 47L27 46ZM46 46L46 47L47 47L47 46ZM30 47L30 48L31 48L31 49L30 49L30 50L29 50L29 49L27 49L27 51L28 51L28 50L29 50L29 51L30 51L30 52L32 52L32 51L30 51L30 50L32 50L32 49L33 49L33 48L34 48L34 47L33 47L33 48L31 48L31 47ZM49 48L49 49L50 49L50 48ZM19 49L19 50L17 50L17 51L16 51L16 52L17 52L17 51L19 51L19 50L20 50L20 49ZM10 50L10 51L11 51L11 50ZM35 52L35 53L36 53L36 52ZM0 0L0 7L7 7L7 0ZM1 1L1 6L6 6L6 1ZM2 2L2 5L5 5L5 2ZM46 0L46 7L53 7L53 0ZM47 1L47 6L52 6L52 1ZM48 2L48 5L51 5L51 2ZM0 46L0 53L7 53L7 46ZM1 47L1 52L6 52L6 47ZM2 48L2 51L5 51L5 48Z" fill="#000000"/></g></g></svg>
