<?xml version="1.0" encoding="UTF-8"?>
<svg xmlns="http://www.w3.org/2000/svg" version="1.1" width="170" height="170" viewBox="0 0 170 170"><rect x="0" y="0" width="170" height="170" fill="#ffffff"/><g transform="scale(2.787)"><g transform="translate(0,0)"><path fill-rule="evenodd" d="M10 0L10 1L9 1L9 2L8 2L8 3L9 3L9 2L10 2L10 1L11 1L11 0ZM13 0L13 1L12 1L12 3L11 3L11 4L9 4L9 5L12 5L12 7L13 7L13 8L11 8L11 6L10 6L10 7L9 7L9 6L8 6L8 8L4 8L4 9L5 9L5 10L4 10L4 11L7 11L7 12L5 12L5 13L4 13L4 12L3 12L3 11L2 11L2 10L3 10L3 8L0 8L0 9L2 9L2 10L0 10L0 12L1 12L1 13L2 13L2 12L3 12L3 13L4 13L4 14L0 14L0 15L1 15L1 16L0 16L0 17L1 17L1 18L0 18L0 20L1 20L1 21L0 21L0 22L1 22L1 23L2 23L2 24L0 24L0 32L2 32L2 34L1 34L1 35L0 35L0 36L2 36L2 34L3 34L3 35L4 35L4 36L3 36L3 37L4 37L4 38L3 38L3 39L1 39L1 40L3 40L3 42L1 42L1 43L2 43L2 44L3 44L3 45L2 45L2 46L0 46L0 47L2 47L2 46L3 46L3 47L4 47L4 48L6 48L6 49L7 49L7 48L6 48L6 47L7 47L7 46L6 46L6 47L4 47L4 46L5 46L5 44L6 44L6 45L9 45L9 43L10 43L10 42L12 42L12 45L13 45L13 43L14 43L14 42L13 42L13 41L15 41L15 43L17 43L17 45L19 45L19 46L18 46L18 48L16 48L16 50L17 50L17 49L18 49L18 51L16 51L16 52L18 52L18 53L17 53L17 54L16 54L16 53L15 53L15 51L14 51L14 52L13 52L13 51L12 51L12 49L10 49L10 47L9 47L9 46L8 46L8 47L9 47L9 49L8 49L8 50L2 50L2 49L3 49L3 48L2 48L2 49L1 49L1 50L2 50L2 51L0 51L0 53L4 53L4 52L5 52L5 51L7 51L7 52L6 52L6 53L7 53L7 52L8 52L8 57L9 57L9 58L8 58L8 61L10 61L10 58L12 58L12 60L11 60L11 61L12 61L12 60L13 60L13 61L16 61L16 58L15 58L15 57L14 57L14 56L16 56L16 55L17 55L17 54L18 54L18 55L19 55L19 56L18 56L18 57L19 57L19 56L20 56L20 58L21 58L21 57L22 57L22 58L24 58L24 57L23 57L23 56L24 56L24 55L23 55L23 56L22 56L22 55L21 55L21 54L24 54L24 51L25 51L25 50L24 50L24 49L25 49L25 47L28 47L28 48L26 48L26 51L27 51L27 52L26 52L26 54L25 54L25 59L20 59L20 61L21 61L21 60L22 60L22 61L23 61L23 60L25 60L25 61L29 61L29 60L30 60L30 59L31 59L31 60L32 60L32 61L33 61L33 60L34 60L34 61L35 61L35 60L36 60L36 61L37 61L37 60L39 60L39 61L41 61L41 60L42 60L42 61L43 61L43 60L44 60L44 61L50 61L50 60L51 60L51 59L53 59L53 58L54 58L54 59L55 59L55 60L56 60L56 61L57 61L57 60L58 60L58 59L59 59L59 61L61 61L61 60L60 60L60 59L61 59L61 58L60 58L60 57L61 57L61 56L60 56L60 57L59 57L59 58L58 58L58 57L57 57L57 56L58 56L58 55L61 55L61 52L60 52L60 51L61 51L61 48L60 48L60 47L61 47L61 46L60 46L60 45L61 45L61 44L60 44L60 45L59 45L59 46L58 46L58 45L57 45L57 46L56 46L56 45L55 45L55 44L56 44L56 43L57 43L57 44L58 44L58 43L59 43L59 42L60 42L60 43L61 43L61 40L59 40L59 42L58 42L58 41L57 41L57 42L56 42L56 41L55 41L55 40L56 40L56 39L57 39L57 40L58 40L58 39L61 39L61 36L60 36L60 35L61 35L61 32L60 32L60 31L61 31L61 26L60 26L60 25L61 25L61 24L59 24L59 25L57 25L57 24L58 24L58 23L59 23L59 22L60 22L60 23L61 23L61 22L60 22L60 21L61 21L61 20L60 20L60 19L61 19L61 16L60 16L60 17L59 17L59 18L58 18L58 19L59 19L59 20L60 20L60 21L59 21L59 22L58 22L58 21L57 21L57 18L56 18L56 17L57 17L57 16L58 16L58 15L61 15L61 13L60 13L60 14L58 14L58 13L59 13L59 12L61 12L61 9L59 9L59 8L58 8L58 9L57 9L57 10L56 10L56 9L55 9L55 8L53 8L53 10L52 10L52 8L50 8L50 7L51 7L51 5L52 5L52 4L53 4L53 0L51 0L51 2L50 2L50 1L49 1L49 0L48 0L48 1L47 1L47 0L44 0L44 1L43 1L43 0L42 0L42 1L41 1L41 0L38 0L38 2L37 2L37 0L36 0L36 1L35 1L35 0L33 0L33 2L32 2L32 1L31 1L31 0L30 0L30 1L29 1L29 0L27 0L27 1L29 1L29 2L28 2L28 4L27 4L27 6L26 6L26 3L24 3L24 2L26 2L26 0L25 0L25 1L24 1L24 0L22 0L22 2L23 2L23 3L24 3L24 5L23 5L23 6L22 6L22 7L23 7L23 8L20 8L20 7L21 7L21 6L20 6L20 5L21 5L21 0L19 0L19 1L20 1L20 3L19 3L19 2L18 2L18 1L17 1L17 0L16 0L16 1L17 1L17 2L16 2L16 3L15 3L15 4L16 4L16 5L15 5L15 6L14 6L14 4L13 4L13 5L12 5L12 3L14 3L14 1L15 1L15 0ZM30 1L30 2L29 2L29 3L30 3L30 2L31 2L31 3L32 3L32 4L33 4L33 5L34 5L34 4L35 4L35 5L36 5L36 6L35 6L35 7L34 7L34 6L33 6L33 7L34 7L34 8L33 8L33 9L34 9L34 10L33 10L33 11L32 11L32 10L31 10L31 11L30 11L30 14L28 14L28 13L29 13L29 12L28 12L28 10L30 10L30 9L28 9L28 6L27 6L27 7L26 7L26 6L25 6L25 5L24 5L24 6L23 6L23 7L24 7L24 8L23 8L23 10L21 10L21 9L20 9L20 10L21 10L21 11L20 11L20 12L19 12L19 8L18 8L18 11L17 11L17 7L18 7L18 5L20 5L20 4L19 4L19 3L18 3L18 2L17 2L17 3L18 3L18 4L17 4L17 5L16 5L16 6L15 6L15 7L14 7L14 6L13 6L13 7L14 7L14 8L13 8L13 9L11 9L11 8L10 8L10 9L6 9L6 10L10 10L10 11L9 11L9 12L8 12L8 13L5 13L5 16L4 16L4 18L5 18L5 19L6 19L6 20L10 20L10 19L11 19L11 20L12 20L12 21L6 21L6 22L7 22L7 23L6 23L6 24L5 24L5 22L4 22L4 20L3 20L3 19L2 19L2 18L3 18L3 17L2 17L2 16L3 16L3 15L2 15L2 16L1 16L1 17L2 17L2 18L1 18L1 20L2 20L2 21L3 21L3 22L4 22L4 23L3 23L3 24L2 24L2 26L1 26L1 27L2 27L2 28L5 28L5 27L6 27L6 28L8 28L8 27L6 27L6 26L7 26L7 25L9 25L9 27L10 27L10 26L11 26L11 28L10 28L10 29L11 29L11 30L12 30L12 29L13 29L13 28L14 28L14 24L13 24L13 23L16 23L16 24L15 24L15 25L16 25L16 26L15 26L15 27L18 27L18 28L15 28L15 30L14 30L14 33L15 33L15 32L19 32L19 33L20 33L20 34L21 34L21 35L18 35L18 33L16 33L16 34L17 34L17 35L16 35L16 36L13 36L13 35L14 35L14 34L12 34L12 35L11 35L11 33L13 33L13 31L12 31L12 32L11 32L11 33L10 33L10 35L9 35L9 36L8 36L8 35L6 35L6 34L9 34L9 33L6 33L6 34L5 34L5 36L4 36L4 37L6 37L6 38L4 38L4 39L3 39L3 40L4 40L4 41L6 41L6 42L8 42L8 43L9 43L9 41L8 41L8 40L10 40L10 39L12 39L12 40L13 40L13 39L12 39L12 38L13 38L13 37L16 37L16 38L14 38L14 39L16 39L16 40L15 40L15 41L16 41L16 42L17 42L17 43L18 43L18 44L19 44L19 45L20 45L20 46L19 46L19 47L21 47L21 48L19 48L19 51L18 51L18 52L19 52L19 54L21 54L21 50L23 50L23 49L22 49L22 48L23 48L23 47L22 47L22 46L25 46L25 43L26 43L26 44L27 44L27 45L26 45L26 46L27 46L27 45L28 45L28 44L29 44L29 45L30 45L30 44L31 44L31 45L32 45L32 46L31 46L31 47L30 47L30 46L29 46L29 48L28 48L28 49L27 49L27 51L30 51L30 52L31 52L31 51L30 51L30 50L29 50L29 49L30 49L30 48L31 48L31 49L32 49L32 52L33 52L33 53L34 53L34 54L33 54L33 55L34 55L34 56L33 56L33 57L32 57L32 58L31 58L31 57L30 57L30 58L29 58L29 57L28 57L28 54L26 54L26 55L27 55L27 56L26 56L26 58L27 58L27 59L26 59L26 60L27 60L27 59L28 59L28 58L29 58L29 59L30 59L30 58L31 58L31 59L32 59L32 58L33 58L33 59L34 59L34 60L35 60L35 59L36 59L36 60L37 60L37 59L39 59L39 60L40 60L40 58L41 58L41 57L42 57L42 60L43 60L43 58L45 58L45 59L46 59L46 60L47 60L47 58L49 58L49 60L50 60L50 59L51 59L51 58L52 58L52 56L51 56L51 58L50 58L50 57L48 57L48 54L49 54L49 56L50 56L50 55L52 55L52 54L51 54L51 53L52 53L52 52L53 52L53 51L54 51L54 50L55 50L55 52L57 52L57 53L58 53L58 54L57 54L57 55L58 55L58 54L60 54L60 52L59 52L59 51L60 51L60 50L59 50L59 49L60 49L60 48L59 48L59 47L58 47L58 46L57 46L57 47L56 47L56 46L55 46L55 45L54 45L54 44L53 44L53 45L52 45L52 42L53 42L53 41L54 41L54 42L55 42L55 43L56 43L56 42L55 42L55 41L54 41L54 40L55 40L55 39L56 39L56 38L57 38L57 39L58 39L58 38L59 38L59 37L60 37L60 36L59 36L59 35L60 35L60 34L59 34L59 31L58 31L58 30L59 30L59 27L60 27L60 26L57 26L57 25L56 25L56 24L55 24L55 23L56 23L56 22L57 22L57 23L58 23L58 22L57 22L57 21L56 21L56 20L55 20L55 21L54 21L54 20L53 20L53 19L56 19L56 18L55 18L55 17L56 17L56 16L55 16L55 14L57 14L57 15L58 15L58 14L57 14L57 13L58 13L58 12L59 12L59 11L60 11L60 10L57 10L57 11L58 11L58 12L57 12L57 13L54 13L54 12L56 12L56 10L55 10L55 9L54 9L54 10L53 10L53 11L54 11L54 12L51 12L51 11L52 11L52 10L51 10L51 9L50 9L50 8L49 8L49 7L50 7L50 6L49 6L49 4L50 4L50 2L49 2L49 1L48 1L48 4L47 4L47 3L46 3L46 1L44 1L44 2L43 2L43 3L44 3L44 4L43 4L43 5L44 5L44 6L43 6L43 7L42 7L42 4L41 4L41 3L42 3L42 2L41 2L41 1L40 1L40 4L39 4L39 3L37 3L37 2L35 2L35 3L34 3L34 2L33 2L33 3L32 3L32 2L31 2L31 1ZM33 3L33 4L34 4L34 3ZM35 3L35 4L36 4L36 5L37 5L37 6L36 6L36 7L35 7L35 8L34 8L34 9L35 9L35 10L36 10L36 11L35 11L35 12L34 12L34 11L33 11L33 12L32 12L32 11L31 11L31 12L32 12L32 13L31 13L31 14L30 14L30 15L29 15L29 16L28 16L28 14L27 14L27 12L26 12L26 11L27 11L27 10L25 10L25 12L26 12L26 16L25 16L25 14L23 14L23 12L24 12L24 11L21 11L21 12L22 12L22 15L24 15L24 16L22 16L22 17L23 17L23 20L21 20L21 22L20 22L20 21L19 21L19 20L20 20L20 19L21 19L21 18L20 18L20 19L19 19L19 16L20 16L20 15L21 15L21 14L20 14L20 13L19 13L19 12L18 12L18 13L17 13L17 14L15 14L15 13L16 13L16 12L17 12L17 11L15 11L15 10L16 10L16 9L15 9L15 8L16 8L16 7L17 7L17 6L16 6L16 7L15 7L15 8L14 8L14 9L13 9L13 10L14 10L14 11L13 11L13 12L14 12L14 13L12 13L12 12L9 12L9 14L10 14L10 15L8 15L8 14L6 14L6 15L8 15L8 16L6 16L6 17L5 17L5 18L6 18L6 19L7 19L7 18L8 18L8 19L9 19L9 18L8 18L8 16L9 16L9 17L11 17L11 16L12 16L12 19L13 19L13 18L14 18L14 19L15 19L15 18L14 18L14 16L16 16L16 18L18 18L18 19L16 19L16 20L18 20L18 21L17 21L17 22L16 22L16 21L15 21L15 20L14 20L14 22L16 22L16 23L17 23L17 22L18 22L18 23L19 23L19 24L18 24L18 25L19 25L19 24L20 24L20 26L22 26L22 30L20 30L20 29L19 29L19 28L18 28L18 29L17 29L17 30L18 30L18 31L19 31L19 32L20 32L20 31L21 31L21 34L22 34L22 35L23 35L23 34L22 34L22 32L24 32L24 34L26 34L26 35L24 35L24 36L21 36L21 38L24 38L24 36L26 36L26 39L27 39L27 36L26 36L26 35L27 35L27 33L30 33L30 35L29 35L29 34L28 34L28 35L29 35L29 36L28 36L28 38L29 38L29 40L28 40L28 42L29 42L29 41L30 41L30 43L29 43L29 44L30 44L30 43L31 43L31 44L32 44L32 45L33 45L33 46L34 46L34 45L35 45L35 46L38 46L38 47L33 47L33 48L32 48L32 47L31 47L31 48L32 48L32 49L33 49L33 50L34 50L34 49L33 49L33 48L35 48L35 49L36 49L36 50L35 50L35 52L34 52L34 51L33 51L33 52L34 52L34 53L35 53L35 54L38 54L38 55L39 55L39 56L38 56L38 57L37 57L37 55L35 55L35 56L34 56L34 57L33 57L33 58L34 58L34 57L35 57L35 58L36 58L36 59L37 59L37 58L38 58L38 57L39 57L39 58L40 58L40 57L41 57L41 55L42 55L42 56L43 56L43 57L45 57L45 58L46 58L46 57L47 57L47 56L46 56L46 55L45 55L45 54L43 54L43 55L42 55L42 53L43 53L43 52L44 52L44 53L45 53L45 50L44 50L44 49L46 49L46 45L47 45L47 47L48 47L48 48L47 48L47 49L49 49L49 51L48 51L48 53L47 53L47 54L48 54L48 53L49 53L49 54L50 54L50 53L49 53L49 51L50 51L50 52L51 52L51 51L50 51L50 49L51 49L51 50L52 50L52 51L53 51L53 50L54 50L54 49L55 49L55 50L56 50L56 51L57 51L57 50L58 50L58 51L59 51L59 50L58 50L58 49L57 49L57 50L56 50L56 49L55 49L55 48L56 48L56 47L55 47L55 46L54 46L54 45L53 45L53 46L52 46L52 47L53 47L53 48L52 48L52 49L51 49L51 48L50 48L50 47L48 47L48 46L49 46L49 44L51 44L51 43L49 43L49 42L48 42L48 41L51 41L51 40L49 40L49 39L48 39L48 41L47 41L47 40L46 40L46 39L45 39L45 38L44 38L44 37L46 37L46 36L48 36L48 37L47 37L47 38L49 38L49 37L50 37L50 36L51 36L51 35L50 35L50 33L51 33L51 34L52 34L52 35L53 35L53 36L52 36L52 37L51 37L51 38L52 38L52 41L53 41L53 39L55 39L55 38L56 38L56 37L55 37L55 35L56 35L56 34L54 34L54 33L57 33L57 32L58 32L58 31L57 31L57 30L58 30L58 29L57 29L57 28L58 28L58 27L57 27L57 26L56 26L56 25L55 25L55 24L54 24L54 22L51 22L51 23L50 23L50 24L51 24L51 25L52 25L52 23L53 23L53 24L54 24L54 25L53 25L53 26L51 26L51 28L50 28L50 26L48 26L48 25L49 25L49 24L48 24L48 23L49 23L49 22L48 22L48 21L52 21L52 19L53 19L53 18L54 18L54 17L55 17L55 16L54 16L54 15L53 15L53 14L54 14L54 13L53 13L53 14L52 14L52 13L51 13L51 12L50 12L50 11L51 11L51 10L50 10L50 11L47 11L47 12L48 12L48 13L47 13L47 14L50 14L50 13L51 13L51 14L52 14L52 15L47 15L47 16L48 16L48 18L47 18L47 19L45 19L45 18L44 18L44 17L45 17L45 16L46 16L46 15L45 15L45 14L46 14L46 11L45 11L45 10L46 10L46 9L45 9L45 8L48 8L48 9L47 9L47 10L49 10L49 8L48 8L48 7L49 7L49 6L48 6L48 5L47 5L47 4L46 4L46 3L45 3L45 4L44 4L44 5L46 5L46 7L45 7L45 6L44 6L44 8L42 8L42 9L45 9L45 10L44 10L44 13L43 13L43 12L42 12L42 11L41 11L41 10L40 10L40 11L37 11L37 10L36 10L36 9L37 9L37 6L38 6L38 7L39 7L39 6L40 6L40 8L38 8L38 9L41 9L41 6L40 6L40 5L41 5L41 4L40 4L40 5L39 5L39 4L38 4L38 5L37 5L37 4L36 4L36 3ZM51 3L51 4L52 4L52 3ZM29 5L29 8L32 8L32 5ZM19 6L19 7L20 7L20 6ZM24 6L24 7L25 7L25 6ZM30 6L30 7L31 7L31 6ZM47 6L47 7L48 7L48 6ZM52 6L52 7L53 7L53 6ZM26 8L26 9L27 9L27 8ZM35 8L35 9L36 9L36 8ZM10 9L10 10L11 10L11 11L12 11L12 10L11 10L11 9ZM14 11L14 12L15 12L15 11ZM33 12L33 13L34 13L34 14L33 14L33 15L34 15L34 16L35 16L35 15L36 15L36 14L37 14L37 13L38 13L38 16L37 16L37 17L38 17L38 18L37 18L37 19L38 19L38 20L37 20L37 21L36 21L36 20L35 20L35 19L36 19L36 17L33 17L33 18L34 18L34 20L33 20L33 19L32 19L32 18L31 18L31 15L32 15L32 14L31 14L31 15L30 15L30 16L29 16L29 17L28 17L28 16L27 16L27 17L28 17L28 18L27 18L27 19L26 19L26 20L25 20L25 19L24 19L24 22L25 22L25 21L26 21L26 20L27 20L27 22L26 22L26 23L27 23L27 24L26 24L26 26L25 26L25 23L24 23L24 25L23 25L23 27L24 27L24 28L23 28L23 30L22 30L22 31L23 31L23 30L25 30L25 31L24 31L24 32L26 32L26 30L25 30L25 29L26 29L26 28L25 28L25 27L27 27L27 25L30 25L30 26L29 26L29 27L28 27L28 28L29 28L29 27L30 27L30 28L31 28L31 27L32 27L32 28L33 28L33 29L34 29L34 30L33 30L33 33L32 33L32 36L33 36L33 37L32 37L32 38L31 38L31 39L30 39L30 40L31 40L31 41L32 41L32 42L31 42L31 43L32 43L32 44L33 44L33 45L34 45L34 44L35 44L35 45L36 45L36 44L35 44L35 43L36 43L36 42L37 42L37 43L40 43L40 42L41 42L41 43L42 43L42 44L41 44L41 45L42 45L42 46L39 46L39 45L38 45L38 44L37 44L37 45L38 45L38 46L39 46L39 47L42 47L42 48L41 48L41 49L42 49L42 50L39 50L39 49L40 49L40 48L37 48L37 49L38 49L38 50L37 50L37 51L36 51L36 52L35 52L35 53L36 53L36 52L37 52L37 53L38 53L38 54L39 54L39 55L40 55L40 54L39 54L39 53L40 53L40 51L42 51L42 52L43 52L43 51L44 51L44 50L43 50L43 49L44 49L44 48L43 48L43 46L44 46L44 47L45 47L45 45L46 45L46 44L47 44L47 43L48 43L48 42L47 42L47 41L46 41L46 40L45 40L45 41L46 41L46 42L45 42L45 43L46 43L46 44L45 44L45 45L44 45L44 42L43 42L43 40L44 40L44 38L43 38L43 37L44 37L44 34L46 34L46 35L45 35L45 36L46 36L46 35L48 35L48 34L47 34L47 33L44 33L44 32L43 32L43 31L44 31L44 30L43 30L43 29L44 29L44 27L43 27L43 25L40 25L40 26L41 26L41 28L42 28L42 27L43 27L43 29L42 29L42 30L40 30L40 29L39 29L39 25L38 25L38 26L37 26L37 25L36 25L36 24L35 24L35 23L36 23L36 22L37 22L37 21L38 21L38 23L37 23L37 24L39 24L39 23L40 23L40 22L41 22L41 23L44 23L44 20L43 20L43 19L44 19L44 18L43 18L43 17L44 17L44 16L43 16L43 15L44 15L44 14L45 14L45 13L44 13L44 14L43 14L43 13L42 13L42 12L41 12L41 13L42 13L42 14L40 14L40 15L39 15L39 12L37 12L37 13L36 13L36 12L35 12L35 13L34 13L34 12ZM49 12L49 13L50 13L50 12ZM35 13L35 14L36 14L36 13ZM12 14L12 16L13 16L13 14ZM14 14L14 15L15 15L15 14ZM18 14L18 16L19 16L19 15L20 15L20 14ZM10 15L10 16L11 16L11 15ZM40 15L40 17L41 17L41 18L40 18L40 21L41 21L41 22L42 22L42 21L43 21L43 20L42 20L42 21L41 21L41 18L42 18L42 17L43 17L43 16L42 16L42 15ZM52 15L52 16L49 16L49 17L50 17L50 18L48 18L48 19L47 19L47 20L45 20L45 23L46 23L46 24L45 24L45 25L46 25L46 26L45 26L45 28L46 28L46 27L47 27L47 29L46 29L46 31L45 31L45 32L47 32L47 30L51 30L51 31L50 31L50 32L49 32L49 33L50 33L50 32L51 32L51 33L52 33L52 34L53 34L53 35L54 35L54 34L53 34L53 33L52 33L52 32L51 32L51 31L52 31L52 28L51 28L51 29L50 29L50 28L49 28L49 29L48 29L48 26L47 26L47 25L48 25L48 24L47 24L47 23L48 23L48 22L47 22L47 21L48 21L48 19L52 19L52 18L53 18L53 17L54 17L54 16L53 16L53 15ZM41 16L41 17L42 17L42 16ZM6 17L6 18L7 18L7 17ZM24 17L24 18L26 18L26 17ZM29 17L29 18L30 18L30 19L31 19L31 20L32 20L32 21L31 21L31 22L30 22L30 20L28 20L28 22L30 22L30 23L29 23L29 24L30 24L30 23L31 23L31 24L32 24L32 25L31 25L31 26L30 26L30 27L31 27L31 26L32 26L32 27L33 27L33 28L34 28L34 29L35 29L35 30L36 30L36 31L35 31L35 32L34 32L34 33L33 33L33 36L34 36L34 37L33 37L33 38L34 38L34 37L35 37L35 38L38 38L38 37L37 37L37 36L38 36L38 35L39 35L39 34L40 34L40 37L39 37L39 38L41 38L41 39L42 39L42 40L40 40L40 39L39 39L39 40L38 40L38 39L35 39L35 40L34 40L34 39L33 39L33 40L32 40L32 39L31 39L31 40L32 40L32 41L33 41L33 42L34 42L34 41L35 41L35 42L36 42L36 41L37 41L37 40L38 40L38 41L39 41L39 42L40 42L40 41L42 41L42 40L43 40L43 39L42 39L42 37L43 37L43 36L42 36L42 35L41 35L41 34L42 34L42 33L43 33L43 34L44 34L44 33L43 33L43 32L42 32L42 31L40 31L40 30L39 30L39 31L38 31L38 27L37 27L37 26L36 26L36 25L35 25L35 24L34 24L34 23L33 23L33 22L34 22L34 21L35 21L35 22L36 22L36 21L35 21L35 20L34 20L34 21L33 21L33 20L32 20L32 19L31 19L31 18L30 18L30 17ZM51 17L51 18L52 18L52 17ZM38 18L38 19L39 19L39 18ZM59 18L59 19L60 19L60 18ZM18 19L18 20L19 20L19 19ZM38 20L38 21L39 21L39 20ZM55 21L55 22L56 22L56 21ZM8 22L8 23L9 23L9 22ZM12 22L12 23L13 23L13 22ZM19 22L19 23L20 23L20 24L23 24L23 22L22 22L22 23L20 23L20 22ZM31 22L31 23L32 23L32 24L33 24L33 25L34 25L34 26L33 26L33 27L34 27L34 28L35 28L35 29L36 29L36 30L37 30L37 29L36 29L36 28L35 28L35 27L36 27L36 26L35 26L35 25L34 25L34 24L33 24L33 23L32 23L32 22ZM6 24L6 25L7 25L7 24ZM10 24L10 25L12 25L12 26L13 26L13 25L12 25L12 24ZM16 24L16 25L17 25L17 24ZM46 24L46 25L47 25L47 24ZM4 25L4 27L5 27L5 25ZM54 25L54 26L53 26L53 27L54 27L54 28L55 28L55 27L56 27L56 26L55 26L55 25ZM18 26L18 27L19 27L19 26ZM24 26L24 27L25 27L25 26ZM20 27L20 28L21 28L21 27ZM1 29L1 30L2 30L2 31L3 31L3 32L4 32L4 30L2 30L2 29ZM5 29L5 32L8 32L8 29ZM29 29L29 32L32 32L32 29ZM53 29L53 32L56 32L56 29ZM6 30L6 31L7 31L7 30ZM9 30L9 31L10 31L10 30ZM19 30L19 31L20 31L20 30ZM27 30L27 31L28 31L28 30ZM30 30L30 31L31 31L31 30ZM54 30L54 31L55 31L55 30ZM39 31L39 32L37 32L37 33L34 33L34 36L35 36L35 37L36 37L36 36L35 36L35 35L36 35L36 34L37 34L37 35L38 35L38 34L39 34L39 33L40 33L40 34L41 34L41 33L42 33L42 32L41 32L41 33L40 33L40 31ZM3 33L3 34L4 34L4 33ZM37 33L37 34L38 34L38 33ZM57 34L57 36L58 36L58 35L59 35L59 34ZM17 35L17 36L18 36L18 37L17 37L17 38L16 38L16 39L17 39L17 40L16 40L16 41L17 41L17 42L18 42L18 43L19 43L19 44L20 44L20 43L21 43L21 44L22 44L22 45L21 45L21 46L22 46L22 45L23 45L23 44L24 44L24 43L25 43L25 42L24 42L24 43L23 43L23 44L22 44L22 43L21 43L21 42L23 42L23 41L25 41L25 39L23 39L23 41L22 41L22 40L21 40L21 39L20 39L20 37L19 37L19 36L18 36L18 35ZM30 35L30 36L29 36L29 37L30 37L30 36L31 36L31 35ZM49 35L49 36L50 36L50 35ZM6 36L6 37L8 37L8 36ZM10 36L10 38L6 38L6 39L4 39L4 40L6 40L6 41L7 41L7 40L8 40L8 39L10 39L10 38L12 38L12 37L13 37L13 36L12 36L12 37L11 37L11 36ZM41 36L41 37L42 37L42 36ZM53 36L53 37L52 37L52 38L53 38L53 37L54 37L54 38L55 38L55 37L54 37L54 36ZM57 37L57 38L58 38L58 37ZM18 38L18 39L19 39L19 40L18 40L18 42L19 42L19 40L20 40L20 39L19 39L19 38ZM6 39L6 40L7 40L7 39ZM26 40L26 41L27 41L27 40ZM33 40L33 41L34 41L34 40ZM35 40L35 41L36 41L36 40ZM20 41L20 42L21 42L21 41ZM3 42L3 44L4 44L4 42ZM26 42L26 43L27 43L27 44L28 44L28 43L27 43L27 42ZM57 42L57 43L58 43L58 42ZM6 43L6 44L7 44L7 43ZM33 43L33 44L34 44L34 43ZM42 44L42 45L43 45L43 44ZM12 46L12 47L14 47L14 48L13 48L13 49L14 49L14 48L15 48L15 47L17 47L17 46L15 46L15 47L14 47L14 46ZM53 46L53 47L54 47L54 46ZM57 47L57 48L58 48L58 47ZM42 48L42 49L43 49L43 48ZM53 48L53 49L52 49L52 50L53 50L53 49L54 49L54 48ZM9 49L9 51L8 51L8 52L9 52L9 54L10 54L10 57L11 57L11 55L12 55L12 54L10 54L10 53L12 53L12 51L11 51L11 50L10 50L10 49ZM3 51L3 52L4 52L4 51ZM10 51L10 52L11 52L11 51ZM19 51L19 52L20 52L20 51ZM22 51L22 52L23 52L23 51ZM37 51L37 52L38 52L38 53L39 53L39 52L38 52L38 51ZM46 51L46 52L47 52L47 51ZM29 53L29 56L32 56L32 53ZM53 53L53 56L56 56L56 53ZM14 54L14 55L16 55L16 54ZM30 54L30 55L31 55L31 54ZM54 54L54 55L55 55L55 54ZM43 55L43 56L44 56L44 55ZM12 56L12 57L13 57L13 60L15 60L15 59L14 59L14 57L13 57L13 56ZM35 56L35 57L36 57L36 58L37 58L37 57L36 57L36 56ZM39 56L39 57L40 57L40 56ZM45 56L45 57L46 57L46 56ZM27 57L27 58L28 58L28 57ZM54 57L54 58L55 58L55 59L56 59L56 60L57 60L57 59L58 59L58 58L57 58L57 59L56 59L56 58L55 58L55 57ZM18 58L18 59L17 59L17 61L19 61L19 58ZM59 58L59 59L60 59L60 58ZM53 60L53 61L54 61L54 60ZM0 0L0 7L7 7L7 0ZM1 1L1 6L6 6L6 1ZM2 2L2 5L5 5L5 2ZM54 0L54 7L61 7L61 0ZM55 1L55 6L60 6L60 1ZM56 2L56 5L59 5L59 2ZM0 54L0 61L7 61L7 54ZM1 55L1 60L6 60L6 55ZM2 56L2 59L5 59L5 56Z" fill="#000000"/></g></g></svg>
