<?xml version="1.0" encoding="UTF-8"?>
<svg xmlns="http://www.w3.org/2000/svg" version="1.1" width="180" height="180" viewBox="0 0 180 180"><rect x="0" y="0" width="180" height="180" fill="#ffffff"/><g transform="scale(3.158)"><g transform="translate(0,0)"><path fill-rule="evenodd" d="M9 0L9 1L10 1L10 2L8 2L8 3L10 3L10 5L9 5L9 6L8 6L8 8L4 8L4 9L10 9L10 10L6 10L6 11L5 11L5 10L3 10L3 8L0 8L0 11L2 11L2 10L3 10L3 11L4 11L4 12L3 12L3 13L4 13L4 14L3 14L3 15L2 15L2 12L1 12L1 15L2 15L2 16L0 16L0 18L1 18L1 19L0 19L0 21L1 21L1 19L2 19L2 21L4 21L4 22L3 22L3 23L2 23L2 22L0 22L0 23L1 23L1 24L0 24L0 25L1 25L1 24L2 24L2 26L1 26L1 28L0 28L0 31L2 31L2 33L0 33L0 34L3 34L3 35L4 35L4 37L3 37L3 36L2 36L2 35L1 35L1 36L0 36L0 39L1 39L1 36L2 36L2 38L3 38L3 41L1 41L1 40L0 40L0 42L1 42L1 43L2 43L2 44L1 44L1 45L3 45L3 46L2 46L2 47L1 47L1 46L0 46L0 48L5 48L5 47L7 47L7 48L6 48L6 49L8 49L8 53L9 53L9 54L8 54L8 57L9 57L9 56L10 56L10 57L12 57L12 56L13 56L13 55L12 55L12 54L13 54L13 53L14 53L14 54L15 54L15 55L14 55L14 56L16 56L16 55L17 55L17 56L18 56L18 57L19 57L19 56L18 56L18 55L19 55L19 52L20 52L20 54L24 54L24 55L20 55L20 57L21 57L21 56L22 56L22 57L24 57L24 55L25 55L25 56L26 56L26 57L27 57L27 56L28 56L28 57L29 57L29 56L30 56L30 55L31 55L31 54L32 54L32 57L33 57L33 56L36 56L36 57L37 57L37 53L39 53L39 54L40 54L40 57L46 57L46 56L48 56L48 57L49 57L49 56L50 56L50 55L49 55L49 54L51 54L51 53L52 53L52 55L51 55L51 56L52 56L52 57L53 57L53 56L52 56L52 55L53 55L53 54L54 54L54 55L55 55L55 57L57 57L57 56L56 56L56 55L57 55L57 54L56 54L56 53L57 53L57 52L55 52L55 54L54 54L54 51L55 51L55 50L56 50L56 51L57 51L57 49L55 49L55 50L54 50L54 49L53 49L53 48L54 48L54 47L57 47L57 44L56 44L56 43L57 43L57 42L56 42L56 41L57 41L57 40L56 40L56 41L53 41L53 42L52 42L52 40L51 40L51 38L52 38L52 39L53 39L53 40L54 40L54 39L55 39L55 38L56 38L56 39L57 39L57 38L56 38L56 37L57 37L57 36L56 36L56 35L57 35L57 33L56 33L56 35L55 35L55 34L54 34L54 33L53 33L53 34L52 34L52 31L53 31L53 32L54 32L54 31L55 31L55 32L56 32L56 31L57 31L57 28L56 28L56 27L57 27L57 24L56 24L56 23L57 23L57 17L55 17L55 18L54 18L54 17L53 17L53 16L54 16L54 15L55 15L55 16L57 16L57 12L56 12L56 13L55 13L55 14L54 14L54 13L53 13L53 12L52 12L52 11L51 11L51 12L50 12L50 11L49 11L49 12L50 12L50 13L49 13L49 14L48 14L48 13L47 13L47 12L48 12L48 11L47 11L47 12L46 12L46 10L45 10L45 9L47 9L47 10L48 10L48 9L47 9L47 8L48 8L48 7L49 7L49 6L48 6L48 7L47 7L47 5L48 5L48 0L46 0L46 1L45 1L45 0L44 0L44 1L43 1L43 0L42 0L42 1L41 1L41 0L40 0L40 1L39 1L39 0L38 0L38 1L37 1L37 0L34 0L34 2L33 2L33 0L31 0L31 1L30 1L30 0L28 0L28 1L29 1L29 2L30 2L30 3L33 3L33 4L32 4L32 5L31 5L31 4L26 4L26 3L27 3L27 0L26 0L26 1L25 1L25 0L24 0L24 1L21 1L21 0L19 0L19 1L20 1L20 2L18 2L18 1L17 1L17 0L15 0L15 6L14 6L14 5L12 5L12 2L14 2L14 1L13 1L13 0L11 0L11 1L10 1L10 0ZM11 1L11 2L12 2L12 1ZM24 1L24 2L20 2L20 3L18 3L18 2L16 2L16 5L18 5L18 6L17 6L17 7L18 7L18 8L16 8L16 6L15 6L15 7L14 7L14 6L13 6L13 7L12 7L12 5L11 5L11 7L10 7L10 6L9 6L9 8L11 8L11 9L12 9L12 10L10 10L10 11L8 11L8 12L7 12L7 11L6 11L6 12L7 12L7 13L5 13L5 12L4 12L4 13L5 13L5 14L4 14L4 15L5 15L5 16L3 16L3 17L4 17L4 18L3 18L3 20L4 20L4 21L5 21L5 22L4 22L4 25L3 25L3 26L2 26L2 28L4 28L4 26L7 26L7 25L8 25L8 24L7 24L7 23L6 23L6 24L7 24L7 25L5 25L5 22L9 22L9 23L10 23L10 24L9 24L9 26L10 26L10 24L11 24L11 27L10 27L10 28L9 28L9 29L10 29L10 30L9 30L9 31L10 31L10 32L9 32L9 34L11 34L11 36L12 36L12 37L11 37L11 38L12 38L12 39L15 39L15 40L13 40L13 43L14 43L14 45L13 45L13 46L12 46L12 45L11 45L11 43L12 43L12 41L11 41L11 39L10 39L10 40L9 40L9 37L10 37L10 35L8 35L8 36L7 36L7 35L6 35L6 34L8 34L8 33L4 33L4 35L6 35L6 36L7 36L7 37L6 37L6 38L5 38L5 39L4 39L4 41L3 41L3 42L2 42L2 43L3 43L3 42L4 42L4 43L5 43L5 44L3 44L3 45L4 45L4 46L3 46L3 47L5 47L5 45L6 45L6 46L7 46L7 47L8 47L8 48L11 48L11 49L9 49L9 50L10 50L10 51L11 51L11 52L9 52L9 53L11 53L11 54L10 54L10 56L11 56L11 54L12 54L12 53L13 53L13 50L11 50L11 49L13 49L13 46L15 46L15 47L14 47L14 48L15 48L15 47L16 47L16 49L14 49L14 52L15 52L15 51L16 51L16 52L17 52L17 53L16 53L16 54L17 54L17 55L18 55L18 54L17 54L17 53L18 53L18 52L19 52L19 51L20 51L20 52L21 52L21 53L22 53L22 52L23 52L23 53L24 53L24 54L25 54L25 55L26 55L26 53L25 53L25 51L24 51L24 50L26 50L26 48L30 48L30 46L29 46L29 45L30 45L30 44L29 44L29 43L28 43L28 42L29 42L29 41L30 41L30 40L31 40L31 41L32 41L32 42L33 42L33 41L32 41L32 39L33 39L33 37L34 37L34 44L33 44L33 45L32 45L32 44L31 44L31 46L33 46L33 47L34 47L34 48L33 48L33 50L34 50L34 52L35 52L35 51L36 51L36 50L37 50L37 51L38 51L38 52L39 52L39 51L40 51L40 50L41 50L41 56L42 56L42 55L44 55L44 54L45 54L45 56L46 56L46 55L47 55L47 53L48 53L48 52L47 52L47 51L48 51L48 50L47 50L47 49L48 49L48 48L49 48L49 47L48 47L48 46L47 46L47 45L49 45L49 43L50 43L50 42L49 42L49 41L51 41L51 40L50 40L50 39L47 39L47 37L48 37L48 38L49 38L49 37L50 37L50 38L51 38L51 37L52 37L52 38L55 38L55 37L56 37L56 36L55 36L55 35L54 35L54 37L53 37L53 35L52 35L52 34L51 34L51 35L50 35L50 34L49 34L49 33L51 33L51 32L49 32L49 31L48 31L48 30L47 30L47 29L48 29L48 28L47 28L47 27L48 27L48 26L51 26L51 24L52 24L52 22L53 22L53 25L52 25L52 26L53 26L53 27L54 27L54 30L53 30L53 31L54 31L54 30L55 30L55 31L56 31L56 29L55 29L55 27L54 27L54 26L55 26L55 25L56 25L56 24L55 24L55 23L54 23L54 22L55 22L55 21L56 21L56 20L55 20L55 19L56 19L56 18L55 18L55 19L54 19L54 18L53 18L53 19L54 19L54 21L52 21L52 20L49 20L49 18L50 18L50 19L51 19L51 18L52 18L52 17L49 17L49 16L51 16L51 15L50 15L50 14L51 14L51 13L52 13L52 14L53 14L53 15L54 15L54 14L53 14L53 13L52 13L52 12L51 12L51 13L50 13L50 14L49 14L49 15L48 15L48 14L47 14L47 13L46 13L46 12L45 12L45 13L44 13L44 12L43 12L43 11L45 11L45 10L43 10L43 9L44 9L44 8L43 8L43 7L44 7L44 6L45 6L45 7L46 7L46 8L47 8L47 7L46 7L46 6L45 6L45 5L44 5L44 4L45 4L45 3L46 3L46 5L47 5L47 3L46 3L46 2L47 2L47 1L46 1L46 2L45 2L45 1L44 1L44 2L43 2L43 3L42 3L42 2L41 2L41 1L40 1L40 3L38 3L38 2L37 2L37 1L35 1L35 3L34 3L34 4L33 4L33 5L32 5L32 6L31 6L31 7L32 7L32 8L31 8L31 9L30 9L30 10L29 10L29 11L31 11L31 12L29 12L29 13L30 13L30 14L27 14L27 15L26 15L26 13L28 13L28 12L27 12L27 11L28 11L28 9L26 9L26 6L25 6L25 5L26 5L26 4L25 4L25 5L24 5L24 4L23 4L23 3L24 3L24 2L25 2L25 3L26 3L26 2L25 2L25 1ZM17 3L17 4L18 4L18 3ZM21 3L21 4L20 4L20 5L21 5L21 6L20 6L20 7L19 7L19 6L18 6L18 7L19 7L19 8L18 8L18 9L17 9L17 10L16 10L16 9L15 9L15 8L14 8L14 7L13 7L13 8L14 8L14 9L13 9L13 10L14 10L14 11L15 11L15 12L14 12L14 13L16 13L16 11L17 11L17 14L16 14L16 15L15 15L15 14L14 14L14 15L13 15L13 11L12 11L12 13L10 13L10 12L9 12L9 14L10 14L10 16L11 16L11 18L10 18L10 20L8 20L8 19L9 19L9 15L7 15L7 14L8 14L8 13L7 13L7 14L6 14L6 15L7 15L7 16L6 16L6 17L7 17L7 18L6 18L6 19L4 19L4 20L5 20L5 21L7 21L7 20L8 20L8 21L10 21L10 22L12 22L12 21L13 21L13 23L11 23L11 24L12 24L12 26L13 26L13 28L15 28L15 29L17 29L17 28L16 28L16 27L17 27L17 26L18 26L18 27L19 27L19 28L18 28L18 29L19 29L19 30L16 30L16 31L15 31L15 32L14 32L14 29L13 29L13 30L12 30L12 29L11 29L11 28L12 28L12 27L11 27L11 28L10 28L10 29L11 29L11 30L12 30L12 31L11 31L11 32L10 32L10 33L12 33L12 35L13 35L13 38L14 38L14 37L15 37L15 36L16 36L16 38L18 38L18 39L16 39L16 40L18 40L18 41L17 41L17 42L16 42L16 41L14 41L14 42L16 42L16 43L15 43L15 44L16 44L16 43L17 43L17 46L16 46L16 45L15 45L15 46L16 46L16 47L17 47L17 48L18 48L18 49L17 49L17 50L16 50L16 51L17 51L17 52L18 52L18 51L19 51L19 50L20 50L20 51L21 51L21 52L22 52L22 51L23 51L23 52L24 52L24 51L23 51L23 50L24 50L24 49L23 49L23 48L24 48L24 46L22 46L22 47L21 47L21 46L20 46L20 45L19 45L19 46L20 46L20 47L17 47L17 46L18 46L18 44L21 44L21 43L18 43L18 42L20 42L20 41L19 41L19 40L20 40L20 39L21 39L21 38L22 38L22 41L21 41L21 42L22 42L22 43L23 43L23 44L22 44L22 45L23 45L23 44L26 44L26 45L25 45L25 48L26 48L26 47L29 47L29 46L28 46L28 45L27 45L27 44L28 44L28 43L27 43L27 42L28 42L28 39L32 39L32 38L31 38L31 37L30 37L30 36L32 36L32 37L33 37L33 36L34 36L34 37L38 37L38 36L37 36L37 33L38 33L38 31L36 31L36 32L34 32L34 31L32 31L32 30L31 30L31 26L30 26L30 25L31 25L31 24L32 24L32 29L33 29L33 30L34 30L34 29L35 29L35 30L36 30L36 29L37 29L37 30L38 30L38 29L37 29L37 28L39 28L39 32L40 32L40 33L39 33L39 34L40 34L40 35L39 35L39 37L41 37L41 36L42 36L42 37L43 37L43 38L42 38L42 39L41 39L41 38L40 38L40 41L39 41L39 42L40 42L40 44L38 44L38 41L37 41L37 40L38 40L38 39L37 39L37 38L36 38L36 41L35 41L35 42L36 42L36 43L35 43L35 44L34 44L34 45L33 45L33 46L34 46L34 45L36 45L36 48L34 48L34 49L37 49L37 44L38 44L38 45L41 45L41 42L42 42L42 41L41 41L41 40L42 40L42 39L43 39L43 40L44 40L44 41L43 41L43 44L42 44L42 45L43 45L43 46L44 46L44 47L43 47L43 48L42 48L42 46L40 46L40 47L39 47L39 46L38 46L38 49L39 49L39 50L40 50L40 49L41 49L41 50L42 50L42 49L43 49L43 50L44 50L44 51L43 51L43 52L42 52L42 53L43 53L43 54L44 54L44 53L45 53L45 54L46 54L46 53L47 53L47 52L46 52L46 51L45 51L45 50L46 50L46 49L45 49L45 48L47 48L47 47L45 47L45 46L46 46L46 45L47 45L47 44L46 44L46 43L44 43L44 42L45 42L45 41L47 41L47 42L48 42L48 43L49 43L49 42L48 42L48 41L49 41L49 40L48 40L48 41L47 41L47 39L45 39L45 38L46 38L46 37L47 37L47 36L46 36L46 35L47 35L47 34L48 34L48 33L49 33L49 32L48 32L48 33L47 33L47 34L46 34L46 33L45 33L45 32L47 32L47 31L45 31L45 30L46 30L46 29L47 29L47 28L46 28L46 27L45 27L45 26L44 26L44 25L45 25L45 22L46 22L46 21L47 21L47 22L48 22L48 23L47 23L47 24L46 24L46 25L47 25L47 26L48 26L48 23L49 23L49 22L50 22L50 24L49 24L49 25L50 25L50 24L51 24L51 22L52 22L52 21L51 21L51 22L50 22L50 21L49 21L49 22L48 22L48 21L47 21L47 20L48 20L48 19L47 19L47 18L46 18L46 17L47 17L47 16L48 16L48 15L47 15L47 16L46 16L46 15L45 15L45 14L46 14L46 13L45 13L45 14L44 14L44 13L43 13L43 12L42 12L42 9L43 9L43 8L42 8L42 7L43 7L43 6L44 6L44 5L43 5L43 4L44 4L44 3L43 3L43 4L42 4L42 3L41 3L41 4L38 4L38 3L37 3L37 6L36 6L36 9L35 9L35 10L36 10L36 12L35 12L35 11L34 11L34 9L33 9L33 8L35 8L35 5L36 5L36 4L34 4L34 7L33 7L33 6L32 6L32 7L33 7L33 8L32 8L32 9L31 9L31 10L33 10L33 11L32 11L32 13L31 13L31 14L32 14L32 15L31 15L31 16L30 16L30 15L27 15L27 16L28 16L28 17L27 17L27 18L26 18L26 17L25 17L25 18L24 18L24 17L23 17L23 16L25 16L25 15L23 15L23 14L24 14L24 13L25 13L25 12L26 12L26 11L27 11L27 10L26 10L26 9L25 9L25 10L26 10L26 11L25 11L25 12L24 12L24 7L25 7L25 6L24 6L24 5L21 5L21 4L22 4L22 3ZM41 4L41 5L39 5L39 7L38 7L38 6L37 6L37 7L38 7L38 8L37 8L37 9L38 9L38 11L37 11L37 13L35 13L35 12L34 12L34 11L33 11L33 13L32 13L32 14L34 14L34 15L36 15L36 14L37 14L37 13L38 13L38 16L37 16L37 21L38 21L38 22L37 22L37 23L38 23L38 24L37 24L37 25L36 25L36 22L35 22L35 20L33 20L33 21L32 21L32 20L31 20L31 21L30 21L30 20L29 20L29 22L30 22L30 23L29 23L29 24L30 24L30 23L32 23L32 24L33 24L33 25L34 25L34 27L36 27L36 26L37 26L37 25L38 25L38 27L40 27L40 26L41 26L41 25L42 25L42 28L41 28L41 29L40 29L40 30L42 30L42 32L41 32L41 33L40 33L40 34L41 34L41 35L42 35L42 36L43 36L43 37L44 37L44 38L43 38L43 39L44 39L44 38L45 38L45 37L46 37L46 36L45 36L45 37L44 37L44 36L43 36L43 35L44 35L44 34L45 34L45 35L46 35L46 34L45 34L45 33L44 33L44 32L43 32L43 31L44 31L44 30L45 30L45 29L46 29L46 28L45 28L45 29L44 29L44 28L43 28L43 27L44 27L44 26L43 26L43 25L44 25L44 22L45 22L45 21L46 21L46 20L47 20L47 19L46 19L46 18L45 18L45 17L46 17L46 16L45 16L45 17L44 17L44 16L43 16L43 15L44 15L44 14L43 14L43 13L42 13L42 12L41 12L41 13L40 13L40 12L39 12L39 10L40 10L40 11L41 11L41 9L42 9L42 8L41 8L41 9L40 9L40 6L41 6L41 7L42 7L42 6L41 6L41 5L42 5L42 4ZM27 5L27 8L30 8L30 5ZM21 6L21 7L20 7L20 8L19 8L19 9L20 9L20 10L18 10L18 11L20 11L20 12L18 12L18 15L20 15L20 16L19 16L19 19L18 19L18 18L17 18L17 15L16 15L16 16L15 16L15 15L14 15L14 16L13 16L13 17L14 17L14 16L15 16L15 18L14 18L14 19L15 19L15 20L14 20L14 23L13 23L13 26L15 26L15 27L16 27L16 26L17 26L17 25L18 25L18 24L19 24L19 25L20 25L20 26L19 26L19 27L20 27L20 28L19 28L19 29L20 29L20 30L19 30L19 31L16 31L16 32L15 32L15 35L14 35L14 36L15 36L15 35L18 35L18 36L17 36L17 37L18 37L18 36L19 36L19 35L20 35L20 36L21 36L21 37L20 37L20 38L21 38L21 37L22 37L22 36L23 36L23 37L24 37L24 38L23 38L23 39L24 39L24 42L23 42L23 41L22 41L22 42L23 42L23 43L25 43L25 41L26 41L26 42L27 42L27 41L26 41L26 40L25 40L25 39L24 39L24 38L25 38L25 37L26 37L26 38L27 38L27 39L28 39L28 38L29 38L29 36L27 36L27 37L26 37L26 36L25 36L25 35L24 35L24 34L25 34L25 33L26 33L26 32L27 32L27 33L28 33L28 34L26 34L26 35L30 35L30 34L35 34L35 35L34 35L34 36L36 36L36 33L34 33L34 32L33 32L33 33L30 33L30 31L28 31L28 32L27 32L27 31L26 31L26 32L25 32L25 31L22 31L22 30L23 30L23 29L24 29L24 30L25 30L25 29L26 29L26 28L25 28L25 27L26 27L26 26L27 26L27 23L28 23L28 22L27 22L27 21L28 21L28 18L29 18L29 19L30 19L30 18L32 18L32 19L36 19L36 17L35 17L35 16L33 16L33 17L30 17L30 16L29 16L29 17L28 17L28 18L27 18L27 19L26 19L26 18L25 18L25 19L24 19L24 18L23 18L23 19L22 19L22 18L21 18L21 17L22 17L22 16L23 16L23 15L22 15L22 14L23 14L23 13L24 13L24 12L23 12L23 11L22 11L22 8L21 8L21 7L22 7L22 6ZM23 6L23 7L24 7L24 6ZM28 6L28 7L29 7L29 6ZM11 7L11 8L12 8L12 7ZM49 8L49 9L51 9L51 10L53 10L53 11L57 11L57 9L56 9L56 10L55 10L55 8L54 8L54 9L51 9L51 8ZM1 9L1 10L2 10L2 9ZM15 10L15 11L16 11L16 10ZM20 10L20 11L21 11L21 12L22 12L22 13L21 13L21 14L20 14L20 13L19 13L19 14L20 14L20 15L21 15L21 16L22 16L22 15L21 15L21 14L22 14L22 13L23 13L23 12L22 12L22 11L21 11L21 10ZM38 12L38 13L39 13L39 12ZM41 13L41 14L39 14L39 16L38 16L38 17L39 17L39 18L38 18L38 19L39 19L39 20L38 20L38 21L39 21L39 22L42 22L42 21L43 21L43 22L44 22L44 21L45 21L45 20L46 20L46 19L45 19L45 18L44 18L44 17L43 17L43 16L42 16L42 15L41 15L41 14L42 14L42 13ZM11 14L11 15L12 15L12 14ZM55 14L55 15L56 15L56 14ZM7 16L7 17L8 17L8 16ZM39 16L39 17L40 17L40 18L39 18L39 19L40 19L40 18L41 18L41 19L42 19L42 20L41 20L41 21L42 21L42 20L43 20L43 21L44 21L44 20L43 20L43 19L44 19L44 18L43 18L43 17L42 17L42 16L41 16L41 17L40 17L40 16ZM1 17L1 18L2 18L2 17ZM33 17L33 18L34 18L34 17ZM41 17L41 18L42 18L42 17ZM15 18L15 19L16 19L16 20L15 20L15 23L14 23L14 25L15 25L15 26L16 26L16 25L15 25L15 24L16 24L16 23L17 23L17 24L18 24L18 23L19 23L19 20L20 20L20 22L21 22L21 23L20 23L20 24L22 24L22 26L20 26L20 27L21 27L21 30L20 30L20 31L19 31L19 32L18 32L18 35L19 35L19 33L21 33L21 34L20 34L20 35L21 35L21 36L22 36L22 35L23 35L23 36L24 36L24 35L23 35L23 34L24 34L24 33L23 33L23 32L22 32L22 31L21 31L21 30L22 30L22 28L23 28L23 27L22 27L22 26L24 26L24 27L25 27L25 26L26 26L26 25L25 25L25 26L24 26L24 23L25 23L25 24L26 24L26 23L27 23L27 22L26 22L26 19L25 19L25 22L24 22L24 21L23 21L23 20L24 20L24 19L23 19L23 20L22 20L22 19L19 19L19 20L18 20L18 19L16 19L16 18ZM6 19L6 20L7 20L7 19ZM10 20L10 21L11 21L11 20ZM17 20L17 21L16 21L16 22L17 22L17 23L18 23L18 22L17 22L17 21L18 21L18 20ZM21 20L21 21L22 21L22 20ZM31 21L31 22L32 22L32 23L33 23L33 22L34 22L34 21L33 21L33 22L32 22L32 21ZM23 22L23 23L22 23L22 24L23 24L23 23L24 23L24 22ZM25 22L25 23L26 23L26 22ZM39 23L39 24L38 24L38 25L39 25L39 24L40 24L40 25L41 25L41 24L42 24L42 23ZM34 24L34 25L35 25L35 26L36 26L36 25L35 25L35 24ZM28 25L28 26L29 26L29 25ZM5 27L5 30L8 30L8 27ZM27 27L27 30L30 30L30 27ZM49 27L49 30L52 30L52 27ZM6 28L6 29L7 29L7 28ZM24 28L24 29L25 29L25 28ZM28 28L28 29L29 29L29 28ZM42 28L42 29L43 29L43 30L44 30L44 29L43 29L43 28ZM50 28L50 29L51 29L51 28ZM1 29L1 30L2 30L2 31L3 31L3 30L2 30L2 29ZM4 31L4 32L5 32L5 31ZM6 31L6 32L7 32L7 31ZM20 31L20 32L21 32L21 33L22 33L22 32L21 32L21 31ZM12 32L12 33L14 33L14 32ZM28 32L28 33L29 33L29 34L30 34L30 33L29 33L29 32ZM42 32L42 33L41 33L41 34L42 34L42 33L43 33L43 34L44 34L44 33L43 33L43 32ZM21 34L21 35L22 35L22 34ZM48 35L48 36L50 36L50 35ZM8 36L8 37L9 37L9 36ZM27 37L27 38L28 38L28 37ZM6 38L6 39L7 39L7 38ZM18 39L18 40L19 40L19 39ZM6 40L6 41L4 41L4 42L5 42L5 43L7 43L7 44L6 44L6 45L7 45L7 46L8 46L8 45L9 45L9 46L11 46L11 47L12 47L12 46L11 46L11 45L10 45L10 44L8 44L8 43L7 43L7 42L8 42L8 41L9 41L9 43L10 43L10 41L9 41L9 40L8 40L8 41L7 41L7 40ZM6 41L6 42L7 42L7 41ZM36 41L36 42L37 42L37 41ZM40 41L40 42L41 42L41 41ZM51 42L51 43L52 43L52 44L50 44L50 45L52 45L52 46L51 46L51 47L52 47L52 48L53 48L53 47L52 47L52 46L54 46L54 45L55 45L55 46L56 46L56 44L55 44L55 42L53 42L53 43L52 43L52 42ZM26 43L26 44L27 44L27 43ZM53 43L53 44L54 44L54 43ZM43 44L43 45L44 45L44 46L45 46L45 45L46 45L46 44L45 44L45 45L44 45L44 44ZM26 45L26 46L27 46L27 45ZM20 47L20 48L19 48L19 49L20 49L20 50L21 50L21 51L22 51L22 50L21 50L21 49L22 49L22 48L23 48L23 47L22 47L22 48L21 48L21 47ZM39 48L39 49L40 49L40 48ZM41 48L41 49L42 49L42 48ZM43 48L43 49L44 49L44 50L45 50L45 49L44 49L44 48ZM27 49L27 52L30 52L30 49ZM49 49L49 52L52 52L52 49ZM17 50L17 51L18 51L18 50ZM28 50L28 51L29 51L29 50ZM31 50L31 51L32 51L32 50ZM50 50L50 51L51 51L51 50ZM53 50L53 51L54 51L54 50ZM11 52L11 53L12 53L12 52ZM31 52L31 53L30 53L30 54L29 54L29 53L28 53L28 54L27 54L27 55L28 55L28 54L29 54L29 55L30 55L30 54L31 54L31 53L32 53L32 54L33 54L33 53L32 53L32 52ZM43 52L43 53L44 53L44 52ZM45 52L45 53L46 53L46 52ZM34 53L34 55L36 55L36 54L35 54L35 53ZM55 54L55 55L56 55L56 54ZM48 55L48 56L49 56L49 55ZM38 56L38 57L39 57L39 56ZM0 0L0 7L7 7L7 0ZM1 1L1 6L6 6L6 1ZM2 2L2 5L5 5L5 2ZM50 0L50 7L57 7L57 0ZM51 1L51 6L56 6L56 1ZM52 2L52 5L55 5L55 2ZM0 50L0 57L7 57L7 50ZM1 51L1 56L6 56L6 51ZM2 52L2 55L5 55L5 52Z" fill="#000000"/></g></g></svg>
