<?xml version="1.0" encoding="UTF-8"?>
<svg xmlns="http://www.w3.org/2000/svg" version="1.1" width="180" height="180" viewBox="0 0 180 180"><rect x="0" y="0" width="180" height="180" fill="#ffffff"/><g transform="scale(3.158)"><g transform="translate(0,0)"><path fill-rule="evenodd" d="M10 0L10 1L11 1L11 2L10 2L10 5L9 5L9 6L8 6L8 8L4 8L4 9L3 9L3 8L0 8L0 10L1 10L1 9L2 9L2 11L3 11L3 10L4 10L4 11L9 11L9 10L4 10L4 9L10 9L10 10L11 10L11 11L12 11L12 10L11 10L11 9L10 9L10 7L11 7L11 6L12 6L12 7L13 7L13 8L14 8L14 10L13 10L13 13L12 13L12 12L11 12L11 13L10 13L10 12L9 12L9 13L10 13L10 15L7 15L7 14L6 14L6 13L7 13L7 12L4 12L4 13L3 13L3 12L2 12L2 13L1 13L1 12L0 12L0 13L1 13L1 14L0 14L0 16L2 16L2 13L3 13L3 16L4 16L4 17L2 17L2 18L4 18L4 20L5 20L5 21L3 21L3 22L2 22L2 21L1 21L1 20L0 20L0 22L2 22L2 25L1 25L1 24L0 24L0 25L1 25L1 26L2 26L2 27L4 27L4 28L3 28L3 29L2 29L2 28L1 28L1 27L0 27L0 30L2 30L2 32L1 32L1 31L0 31L0 32L1 32L1 33L0 33L0 35L2 35L2 36L3 36L3 37L2 37L2 39L1 39L1 38L0 38L0 42L3 42L3 45L2 45L2 44L1 44L1 43L0 43L0 45L1 45L1 46L0 46L0 48L5 48L5 47L8 47L8 45L9 45L9 44L10 44L10 43L8 43L8 42L6 42L6 41L7 41L7 40L6 40L6 41L3 41L3 40L4 40L4 38L5 38L5 39L8 39L8 40L9 40L9 41L10 41L10 42L12 42L12 44L11 44L11 45L10 45L10 46L11 46L11 47L9 47L9 49L8 49L8 53L9 53L9 54L8 54L8 57L9 57L9 56L10 56L10 57L12 57L12 56L13 56L13 57L15 57L15 56L14 56L14 55L13 55L13 54L14 54L14 53L15 53L15 52L16 52L16 54L17 54L17 55L16 55L16 56L17 56L17 57L20 57L20 55L21 55L21 57L24 57L24 56L25 56L25 57L27 57L27 56L25 56L25 55L24 55L24 56L22 56L22 55L21 55L21 54L23 54L23 52L24 52L24 54L25 54L25 52L26 52L26 55L28 55L28 56L29 56L29 53L30 53L30 54L31 54L31 55L30 55L30 57L32 57L32 55L33 55L33 54L34 54L34 53L35 53L35 55L34 55L34 56L36 56L36 57L37 57L37 56L38 56L38 57L39 57L39 56L40 56L40 57L41 57L41 56L42 56L42 57L43 57L43 56L42 56L42 53L41 53L41 52L42 52L42 51L40 51L40 50L41 50L41 49L42 49L42 48L44 48L44 49L43 49L43 50L44 50L44 51L43 51L43 52L44 52L44 53L43 53L43 54L44 54L44 57L47 57L47 56L48 56L48 57L49 57L49 56L48 56L48 55L49 55L49 54L50 54L50 55L51 55L51 56L52 56L52 57L54 57L54 55L53 55L53 54L54 54L54 53L53 53L53 50L54 50L54 51L55 51L55 52L56 52L56 53L55 53L55 54L56 54L56 55L55 55L55 57L57 57L57 56L56 56L56 55L57 55L57 54L56 54L56 53L57 53L57 52L56 52L56 51L57 51L57 48L56 48L56 47L57 47L57 46L56 46L56 45L57 45L57 40L56 40L56 38L57 38L57 36L56 36L56 35L57 35L57 32L56 32L56 31L57 31L57 29L56 29L56 28L55 28L55 30L54 30L54 27L55 27L55 26L54 26L54 27L53 27L53 24L54 24L54 23L57 23L57 20L56 20L56 19L57 19L57 16L56 16L56 17L55 17L55 18L54 18L54 19L55 19L55 20L56 20L56 21L55 21L55 22L54 22L54 21L53 21L53 16L54 16L54 15L57 15L57 12L56 12L56 11L57 11L57 9L56 9L56 11L55 11L55 8L54 8L54 9L53 9L53 10L51 10L51 12L50 12L50 9L51 9L51 8L49 8L49 6L48 6L48 7L47 7L47 5L48 5L48 0L44 0L44 1L43 1L43 0L42 0L42 1L41 1L41 3L42 3L42 2L44 2L44 1L45 1L45 2L46 2L46 3L45 3L45 4L44 4L44 3L43 3L43 4L42 4L42 7L41 7L41 6L40 6L40 7L39 7L39 5L41 5L41 4L38 4L38 7L37 7L37 6L36 6L36 5L37 5L37 4L35 4L35 3L36 3L36 1L37 1L37 2L38 2L38 3L40 3L40 1L39 1L39 0L38 0L38 1L37 1L37 0L36 0L36 1L35 1L35 0L34 0L34 1L33 1L33 0L32 0L32 1L31 1L31 0L30 0L30 1L29 1L29 0L28 0L28 1L27 1L27 0L26 0L26 1L25 1L25 0L24 0L24 1L25 1L25 2L22 2L22 1L21 1L21 0L20 0L20 1L19 1L19 2L18 2L18 1L17 1L17 0L16 0L16 1L15 1L15 2L14 2L14 1L13 1L13 0ZM16 1L16 2L15 2L15 3L14 3L14 2L11 2L11 3L12 3L12 4L11 4L11 5L10 5L10 6L9 6L9 7L10 7L10 6L11 6L11 5L12 5L12 4L13 4L13 5L14 5L14 6L13 6L13 7L14 7L14 8L15 8L15 9L16 9L16 10L14 10L14 11L17 11L17 12L14 12L14 14L12 14L12 13L11 13L11 15L10 15L10 16L9 16L9 18L7 18L7 17L6 17L6 16L7 16L7 15L6 15L6 14L5 14L5 13L4 13L4 14L5 14L5 15L6 15L6 16L5 16L5 17L4 17L4 18L7 18L7 19L6 19L6 20L8 20L8 19L9 19L9 18L10 18L10 19L12 19L12 20L11 20L11 21L12 21L12 23L13 23L13 26L14 26L14 25L15 25L15 24L16 24L16 26L15 26L15 27L16 27L16 28L15 28L15 29L16 29L16 30L15 30L15 31L12 31L12 32L11 32L11 31L10 31L10 30L11 30L11 28L10 28L10 27L11 27L11 25L12 25L12 24L11 24L11 23L10 23L10 21L9 21L9 23L8 23L8 24L9 24L9 25L10 25L10 26L9 26L9 28L10 28L10 29L9 29L9 31L8 31L8 32L7 32L7 31L3 31L3 32L2 32L2 33L1 33L1 34L2 34L2 33L3 33L3 32L5 32L5 33L4 33L4 35L3 35L3 36L7 36L7 37L6 37L6 38L8 38L8 35L9 35L9 34L10 34L10 36L9 36L9 37L10 37L10 38L9 38L9 40L10 40L10 41L11 41L11 40L12 40L12 42L14 42L14 41L16 41L16 42L15 42L15 43L14 43L14 44L12 44L12 46L13 46L13 47L12 47L12 48L10 48L10 49L9 49L9 50L10 50L10 51L9 51L9 52L10 52L10 54L11 54L11 56L12 56L12 54L11 54L11 53L12 53L12 52L13 52L13 53L14 53L14 50L15 50L15 51L16 51L16 52L17 52L17 53L18 53L18 52L20 52L20 50L21 50L21 51L24 51L24 52L25 52L25 51L26 51L26 50L25 50L25 49L26 49L26 48L27 48L27 47L28 47L28 48L29 48L29 47L30 47L30 46L31 46L31 47L32 47L32 46L33 46L33 47L34 47L34 48L33 48L33 49L32 49L32 48L31 48L31 49L32 49L32 50L31 50L31 51L32 51L32 50L33 50L33 51L34 51L34 52L33 52L33 53L32 53L32 52L31 52L31 54L33 54L33 53L34 53L34 52L35 52L35 51L37 51L37 52L39 52L39 51L38 51L38 50L39 50L39 48L37 48L37 49L38 49L38 50L35 50L35 49L36 49L36 48L35 48L35 47L37 47L37 46L39 46L39 45L40 45L40 46L42 46L42 47L41 47L41 48L42 48L42 47L43 47L43 46L44 46L44 47L46 47L46 48L47 48L47 49L46 49L46 50L45 50L45 49L44 49L44 50L45 50L45 52L47 52L47 53L46 53L46 54L45 54L45 53L44 53L44 54L45 54L45 55L46 55L46 56L47 56L47 55L48 55L48 52L47 52L47 51L48 51L48 50L47 50L47 49L48 49L48 48L50 48L50 47L47 47L47 46L49 46L49 45L50 45L50 46L52 46L52 47L51 47L51 48L52 48L52 47L53 47L53 49L54 49L54 50L55 50L55 51L56 51L56 50L55 50L55 49L56 49L56 48L55 48L55 46L53 46L53 45L56 45L56 44L55 44L55 43L56 43L56 42L53 42L53 39L52 39L52 38L54 38L54 37L56 37L56 36L55 36L55 35L56 35L56 34L55 34L55 33L53 33L53 32L55 32L55 31L54 31L54 30L53 30L53 32L52 32L52 31L51 31L51 32L52 32L52 38L51 38L51 37L50 37L50 36L49 36L49 34L50 34L50 32L49 32L49 31L48 31L48 29L46 29L46 28L48 28L48 27L47 27L47 26L49 26L49 25L50 25L50 26L51 26L51 24L49 24L49 23L50 23L50 22L52 22L52 21L51 21L51 20L48 20L48 22L47 22L47 21L46 21L46 20L47 20L47 19L52 19L52 18L51 18L51 17L52 17L52 15L51 15L51 14L52 14L52 12L53 12L53 13L54 13L54 14L53 14L53 15L54 15L54 14L56 14L56 12L55 12L55 11L52 11L52 12L51 12L51 13L49 13L49 12L48 12L48 11L49 11L49 8L47 8L47 7L46 7L46 6L45 6L45 5L44 5L44 4L43 4L43 5L44 5L44 6L43 6L43 7L42 7L42 8L41 8L41 9L40 9L40 8L39 8L39 7L38 7L38 8L37 8L37 7L36 7L36 6L35 6L35 5L34 5L34 4L33 4L33 3L35 3L35 2L33 2L33 1L32 1L32 2L31 2L31 3L30 3L30 2L29 2L29 1L28 1L28 3L26 3L26 2L25 2L25 3L22 3L22 2L19 2L19 3L18 3L18 2L17 2L17 1ZM46 1L46 2L47 2L47 1ZM8 2L8 3L9 3L9 2ZM16 2L16 3L17 3L17 4L16 4L16 5L17 5L17 6L16 6L16 7L15 7L15 6L14 6L14 7L15 7L15 8L16 8L16 7L17 7L17 6L18 6L18 7L19 7L19 6L20 6L20 8L22 8L22 9L21 9L21 14L20 14L20 13L19 13L19 12L20 12L20 11L19 11L19 8L17 8L17 9L18 9L18 11L19 11L19 12L18 12L18 13L19 13L19 14L18 14L18 15L17 15L17 14L16 14L16 13L15 13L15 14L14 14L14 15L12 15L12 16L10 16L10 17L11 17L11 18L12 18L12 19L13 19L13 18L12 18L12 17L13 17L13 16L14 16L14 19L15 19L15 20L14 20L14 21L15 21L15 20L16 20L16 22L17 22L17 23L16 23L16 24L17 24L17 26L16 26L16 27L17 27L17 30L16 30L16 31L15 31L15 32L13 32L13 33L12 33L12 35L13 35L13 38L14 38L14 36L15 36L15 39L14 39L14 40L16 40L16 39L17 39L17 38L19 38L19 36L18 36L18 35L19 35L19 34L20 34L20 38L21 38L21 39L20 39L20 40L21 40L21 41L22 41L22 42L20 42L20 43L19 43L19 40L17 40L17 42L18 42L18 43L19 43L19 44L18 44L18 45L19 45L19 46L18 46L18 47L17 47L17 46L16 46L16 45L13 45L13 46L14 46L14 47L13 47L13 48L12 48L12 49L11 49L11 51L13 51L13 49L15 49L15 50L16 50L16 51L17 51L17 52L18 52L18 51L19 51L19 48L20 48L20 47L21 47L21 46L22 46L22 47L23 47L23 48L21 48L21 50L23 50L23 48L24 48L24 47L25 47L25 48L26 48L26 46L27 46L27 45L28 45L28 43L31 43L31 44L30 44L30 45L29 45L29 46L28 46L28 47L29 47L29 46L30 46L30 45L31 45L31 46L32 46L32 45L35 45L35 46L37 46L37 44L38 44L38 45L39 45L39 44L40 44L40 45L41 45L41 42L42 42L42 41L43 41L43 40L44 40L44 41L45 41L45 42L44 42L44 45L45 45L45 46L46 46L46 45L47 45L47 44L46 44L46 41L45 41L45 40L47 40L47 39L46 39L46 37L47 37L47 38L48 38L48 37L47 37L47 36L46 36L46 33L47 33L47 34L48 34L48 33L49 33L49 32L48 32L48 33L47 33L47 32L46 32L46 31L45 31L45 30L46 30L46 29L45 29L45 28L46 28L46 25L47 25L47 24L45 24L45 23L46 23L46 21L45 21L45 20L46 20L46 19L44 19L44 18L43 18L43 20L44 20L44 21L43 21L43 22L44 22L44 23L43 23L43 24L42 24L42 21L41 21L41 20L42 20L42 18L40 18L40 17L41 17L41 16L42 16L42 17L43 17L43 16L44 16L44 17L45 17L45 18L46 18L46 17L47 17L47 18L48 18L48 15L49 15L49 14L48 14L48 13L47 13L47 12L46 12L46 9L45 9L45 8L46 8L46 7L45 7L45 6L44 6L44 7L43 7L43 8L42 8L42 9L41 9L41 10L40 10L40 9L39 9L39 8L38 8L38 9L36 9L36 7L35 7L35 6L34 6L34 5L33 5L33 4L32 4L32 3L31 3L31 4L30 4L30 3L29 3L29 4L26 4L26 5L25 5L25 4L24 4L24 5L25 5L25 6L24 6L24 7L23 7L23 6L22 6L22 7L21 7L21 5L20 5L20 3L19 3L19 6L18 6L18 5L17 5L17 4L18 4L18 3L17 3L17 2ZM13 3L13 4L14 4L14 3ZM21 3L21 4L22 4L22 3ZM46 3L46 5L47 5L47 3ZM27 5L27 8L30 8L30 5ZM31 5L31 9L30 9L30 10L29 10L29 9L26 9L26 10L25 10L25 7L26 7L26 6L25 6L25 7L24 7L24 8L23 8L23 7L22 7L22 8L23 8L23 10L22 10L22 11L24 11L24 14L25 14L25 15L22 15L22 14L23 14L23 12L22 12L22 14L21 14L21 15L20 15L20 14L19 14L19 15L18 15L18 16L17 16L17 15L16 15L16 14L15 14L15 15L16 15L16 16L15 16L15 17L16 17L16 18L15 18L15 19L16 19L16 20L17 20L17 21L18 21L18 20L19 20L19 19L22 19L22 20L21 20L21 21L20 21L20 22L21 22L21 21L22 21L22 22L23 22L23 25L24 25L24 26L25 26L25 27L22 27L22 26L21 26L21 24L22 24L22 23L20 23L20 25L19 25L19 26L18 26L18 27L19 27L19 26L21 26L21 28L18 28L18 30L17 30L17 31L16 31L16 32L15 32L15 33L13 33L13 35L14 35L14 34L15 34L15 35L16 35L16 36L17 36L17 37L16 37L16 38L17 38L17 37L18 37L18 36L17 36L17 35L18 35L18 34L17 34L17 33L18 33L18 32L19 32L19 33L20 33L20 34L21 34L21 35L23 35L23 34L25 34L25 32L27 32L27 31L26 31L26 28L25 28L25 27L26 27L26 26L27 26L27 25L26 25L26 23L28 23L28 22L29 22L29 23L30 23L30 24L29 24L29 25L30 25L30 26L31 26L31 25L30 25L30 24L31 24L31 23L32 23L32 25L33 25L33 26L32 26L32 27L33 27L33 28L34 28L34 29L32 29L32 28L31 28L31 29L32 29L32 30L31 30L31 31L32 31L32 30L34 30L34 32L33 32L33 33L32 33L32 32L31 32L31 33L30 33L30 32L29 32L29 31L28 31L28 33L26 33L26 34L29 34L29 35L26 35L26 36L25 36L25 35L24 35L24 36L25 36L25 37L24 37L24 38L25 38L25 37L26 37L26 40L25 40L25 39L24 39L24 40L23 40L23 39L21 39L21 40L23 40L23 42L22 42L22 43L23 43L23 44L22 44L22 46L23 46L23 44L24 44L24 46L25 46L25 45L27 45L27 44L26 44L26 42L25 42L25 41L26 41L26 40L27 40L27 41L28 41L28 42L27 42L27 43L28 43L28 42L29 42L29 41L30 41L30 42L31 42L31 43L32 43L32 42L33 42L33 41L32 41L32 40L33 40L33 39L34 39L34 40L35 40L35 39L36 39L36 41L38 41L38 42L36 42L36 43L35 43L35 45L36 45L36 43L38 43L38 44L39 44L39 43L40 43L40 42L41 42L41 41L42 41L42 40L43 40L43 39L44 39L44 40L45 40L45 39L44 39L44 38L45 38L45 37L44 37L44 36L43 36L43 35L44 35L44 34L45 34L45 33L46 33L46 32L45 32L45 33L44 33L44 32L41 32L41 33L40 33L40 32L37 32L37 33L36 33L36 32L35 32L35 31L36 31L36 30L37 30L37 31L40 31L40 30L42 30L42 31L44 31L44 30L45 30L45 29L44 29L44 27L45 27L45 26L43 26L43 25L44 25L44 24L43 24L43 25L42 25L42 24L41 24L41 25L40 25L40 24L39 24L39 23L41 23L41 22L39 22L39 20L37 20L37 21L35 21L35 20L33 20L33 21L32 21L32 20L31 20L31 19L32 19L32 18L33 18L33 19L36 19L36 18L37 18L37 19L38 19L38 18L39 18L39 19L40 19L40 18L39 18L39 17L40 17L40 14L41 14L41 15L42 15L42 16L43 16L43 15L44 15L44 14L45 14L45 16L47 16L47 15L48 15L48 14L47 14L47 13L46 13L46 12L45 12L45 13L44 13L44 12L43 12L43 11L44 11L44 10L45 10L45 9L44 9L44 8L43 8L43 9L42 9L42 10L41 10L41 11L42 11L42 12L41 12L41 13L40 13L40 10L39 10L39 9L38 9L38 10L36 10L36 12L35 12L35 11L34 11L34 12L33 12L33 13L32 13L32 12L30 12L30 11L32 11L32 10L33 10L33 9L32 9L32 8L33 8L33 7L34 7L34 8L35 8L35 7L34 7L34 6L33 6L33 7L32 7L32 5ZM28 6L28 7L29 7L29 6ZM34 9L34 10L35 10L35 9ZM43 9L43 10L44 10L44 9ZM24 10L24 11L25 11L25 12L26 12L26 11L25 11L25 10ZM28 11L28 12L27 12L27 13L25 13L25 14L26 14L26 15L25 15L25 18L22 18L22 17L23 17L23 16L22 16L22 15L21 15L21 16L20 16L20 15L19 15L19 16L18 16L18 17L17 17L17 18L16 18L16 19L17 19L17 20L18 20L18 19L19 19L19 18L20 18L20 17L21 17L21 18L22 18L22 19L23 19L23 20L22 20L22 21L23 21L23 20L24 20L24 22L25 22L25 18L26 18L26 19L27 19L27 20L26 20L26 22L28 22L28 21L29 21L29 22L30 22L30 21L31 21L31 22L32 22L32 23L33 23L33 22L34 22L34 21L33 21L33 22L32 22L32 21L31 21L31 20L30 20L30 19L28 19L28 18L30 18L30 17L31 17L31 18L32 18L32 17L33 17L33 18L34 18L34 17L35 17L35 18L36 18L36 17L37 17L37 18L38 18L38 17L39 17L39 16L38 16L38 13L39 13L39 14L40 14L40 13L39 13L39 12L38 12L38 13L37 13L37 12L36 12L36 13L37 13L37 14L36 14L36 15L35 15L35 16L34 16L34 15L33 15L33 14L32 14L32 13L30 13L30 15L29 15L29 14L27 14L27 13L29 13L29 11ZM42 12L42 13L41 13L41 14L42 14L42 13L43 13L43 12ZM45 13L45 14L46 14L46 13ZM31 14L31 15L30 15L30 16L29 16L29 15L28 15L28 17L30 17L30 16L31 16L31 17L32 17L32 16L31 16L31 15L32 15L32 14ZM26 15L26 18L27 18L27 15ZM19 16L19 17L20 17L20 16ZM33 16L33 17L34 17L34 16ZM35 16L35 17L36 17L36 16ZM37 16L37 17L38 17L38 16ZM50 16L50 17L49 17L49 18L50 18L50 17L51 17L51 16ZM0 18L0 19L1 19L1 18ZM17 18L17 19L18 19L18 18ZM55 18L55 19L56 19L56 18ZM2 19L2 20L3 20L3 19ZM27 20L27 21L28 21L28 20ZM29 20L29 21L30 21L30 20ZM5 21L5 23L6 23L6 24L4 24L4 23L3 23L3 24L4 24L4 25L3 25L3 26L4 26L4 25L5 25L5 26L8 26L8 25L6 25L6 24L7 24L7 23L6 23L6 22L8 22L8 21ZM37 21L37 24L36 24L36 25L37 25L37 26L36 26L36 29L37 29L37 30L38 30L38 29L37 29L37 28L39 28L39 27L37 27L37 26L38 26L38 25L39 25L39 26L40 26L40 29L39 29L39 30L40 30L40 29L41 29L41 28L42 28L42 29L43 29L43 30L44 30L44 29L43 29L43 28L42 28L42 27L41 27L41 26L42 26L42 25L41 25L41 26L40 26L40 25L39 25L39 24L38 24L38 21ZM44 21L44 22L45 22L45 21ZM49 21L49 22L48 22L48 23L49 23L49 22L50 22L50 21ZM14 22L14 24L15 24L15 22ZM18 23L18 24L19 24L19 23ZM24 23L24 24L25 24L25 23ZM34 23L34 24L35 24L35 23ZM10 24L10 25L11 25L11 24ZM37 24L37 25L38 25L38 24ZM25 25L25 26L26 26L26 25ZM34 25L34 28L35 28L35 25ZM56 25L56 27L57 27L57 25ZM5 27L5 30L8 30L8 27ZM27 27L27 30L30 30L30 27ZM49 27L49 30L52 30L52 27ZM6 28L6 29L7 29L7 28ZM13 28L13 29L12 29L12 30L14 30L14 28ZM22 28L22 29L23 29L23 30L20 30L20 29L19 29L19 30L18 30L18 31L17 31L17 32L18 32L18 31L19 31L19 32L20 32L20 33L21 33L21 34L23 34L23 33L24 33L24 31L23 31L23 30L24 30L24 28ZM28 28L28 29L29 29L29 28ZM50 28L50 29L51 29L51 28ZM3 29L3 30L4 30L4 29ZM19 30L19 31L20 31L20 32L21 32L21 31L20 31L20 30ZM6 32L6 33L5 33L5 34L6 34L6 35L7 35L7 34L6 34L6 33L7 33L7 32ZM8 32L8 34L9 34L9 32ZM10 32L10 34L11 34L11 32ZM34 32L34 33L33 33L33 34L32 34L32 33L31 33L31 34L30 34L30 35L31 35L31 36L30 36L30 37L29 37L29 36L27 36L27 40L28 40L28 39L29 39L29 40L30 40L30 41L31 41L31 40L30 40L30 39L31 39L31 38L32 38L32 39L33 39L33 38L34 38L34 37L35 37L35 38L36 38L36 37L37 37L37 40L38 40L38 41L39 41L39 42L40 42L40 41L41 41L41 40L42 40L42 37L43 37L43 38L44 38L44 37L43 37L43 36L42 36L42 35L41 35L41 34L38 34L38 33L37 33L37 34L36 34L36 33L35 33L35 32ZM15 33L15 34L16 34L16 35L17 35L17 34L16 34L16 33ZM34 33L34 34L33 34L33 35L34 35L34 36L33 36L33 37L32 37L32 36L31 36L31 37L30 37L30 38L31 38L31 37L32 37L32 38L33 38L33 37L34 37L34 36L35 36L35 35L36 35L36 34L35 34L35 33ZM43 33L43 34L44 34L44 33ZM31 34L31 35L32 35L32 34ZM37 34L37 35L38 35L38 36L37 36L37 37L38 37L38 40L39 40L39 41L40 41L40 40L39 40L39 39L40 39L40 38L41 38L41 37L42 37L42 36L41 36L41 37L39 37L39 35L38 35L38 34ZM53 34L53 36L54 36L54 35L55 35L55 34ZM10 36L10 37L12 37L12 36ZM21 36L21 37L22 37L22 38L23 38L23 37L22 37L22 36ZM28 37L28 38L29 38L29 37ZM49 37L49 38L50 38L50 40L52 40L52 39L51 39L51 38L50 38L50 37ZM10 38L10 39L11 39L11 38ZM2 39L2 40L1 40L1 41L2 41L2 40L3 40L3 39ZM12 39L12 40L13 40L13 39ZM48 39L48 40L49 40L49 39ZM54 39L54 41L56 41L56 40L55 40L55 39ZM34 41L34 42L35 42L35 41ZM47 41L47 42L48 42L48 45L49 45L49 44L50 44L50 45L51 45L51 42L52 42L52 43L53 43L53 44L54 44L54 43L53 43L53 42L52 42L52 41L49 41L49 42L48 42L48 41ZM5 42L5 43L6 43L6 44L7 44L7 45L6 45L6 46L7 46L7 45L8 45L8 43L6 43L6 42ZM24 42L24 43L25 43L25 42ZM49 42L49 43L50 43L50 42ZM16 43L16 44L17 44L17 43ZM20 43L20 44L19 44L19 45L20 45L20 46L19 46L19 47L18 47L18 48L17 48L17 47L16 47L16 46L15 46L15 47L14 47L14 48L15 48L15 49L16 49L16 50L17 50L17 51L18 51L18 50L17 50L17 49L18 49L18 48L19 48L19 47L20 47L20 46L21 46L21 43ZM31 44L31 45L32 45L32 44ZM42 44L42 45L43 45L43 44ZM45 44L45 45L46 45L46 44ZM1 46L1 47L2 47L2 46ZM3 46L3 47L5 47L5 46ZM15 47L15 48L16 48L16 47ZM6 48L6 49L7 49L7 48ZM34 48L34 49L33 49L33 50L34 50L34 49L35 49L35 48ZM27 49L27 52L30 52L30 49ZM49 49L49 52L52 52L52 49ZM28 50L28 51L29 51L29 50ZM50 50L50 51L51 51L51 50ZM21 52L21 53L20 53L20 54L21 54L21 53L22 53L22 52ZM36 53L36 54L37 54L37 53ZM38 53L38 56L39 56L39 55L40 55L40 54L39 54L39 53ZM51 53L51 55L52 55L52 56L53 56L53 55L52 55L52 53ZM18 54L18 55L17 55L17 56L18 56L18 55L19 55L19 54ZM36 55L36 56L37 56L37 55ZM0 0L0 7L7 7L7 0ZM1 1L1 6L6 6L6 1ZM2 2L2 5L5 5L5 2ZM50 0L50 7L57 7L57 0ZM51 1L51 6L56 6L56 1ZM52 2L52 5L55 5L55 2ZM0 50L0 57L7 57L7 50ZM1 51L1 56L6 56L6 51ZM2 52L2 55L5 55L5 52Z" fill="#000000"/></g></g></svg>
