<?xml version="1.0" encoding="UTF-8"?>
<svg xmlns="http://www.w3.org/2000/svg" version="1.1" width="170" height="170" viewBox="0 0 170 170"><rect x="0" y="0" width="170" height="170" fill="#ffffff"/><g transform="scale(2.982)"><g transform="translate(0,0)"><path fill-rule="evenodd" d="M9 0L9 1L12 1L12 3L13 3L13 4L12 4L12 5L11 5L11 3L10 3L10 4L9 4L9 6L8 6L8 8L4 8L4 11L7 11L7 10L8 10L8 12L9 12L9 13L7 13L7 12L4 12L4 13L3 13L3 11L1 11L1 10L2 10L2 9L3 9L3 8L0 8L0 11L1 11L1 15L0 15L0 16L1 16L1 17L2 17L2 16L3 16L3 15L5 15L5 16L4 16L4 17L3 17L3 18L2 18L2 19L0 19L0 20L2 20L2 22L1 22L1 21L0 21L0 22L1 22L1 23L2 23L2 24L3 24L3 23L5 23L5 21L8 21L8 20L6 20L6 19L7 19L7 18L8 18L8 19L9 19L9 17L10 17L10 19L11 19L11 20L10 20L10 21L11 21L11 23L10 23L10 24L9 24L9 25L10 25L10 26L11 26L11 25L10 25L10 24L12 24L12 22L14 22L14 20L15 20L15 23L14 23L14 24L13 24L13 25L12 25L12 27L11 27L11 29L9 29L9 28L10 28L10 27L9 27L9 26L6 26L6 25L8 25L8 24L5 24L5 25L3 25L3 27L4 27L4 29L3 29L3 31L7 31L7 32L6 32L6 33L5 33L5 35L4 35L4 36L3 36L3 35L0 35L0 36L1 36L1 37L0 37L0 38L1 38L1 37L5 37L5 38L4 38L4 39L3 39L3 40L2 40L2 39L1 39L1 40L0 40L0 41L1 41L1 42L0 42L0 43L2 43L2 44L3 44L3 45L2 45L2 47L1 47L1 46L0 46L0 48L5 48L5 47L7 47L7 48L6 48L6 49L7 49L7 48L8 48L8 53L9 53L9 54L8 54L8 57L9 57L9 55L10 55L10 53L9 53L9 51L10 51L10 50L9 50L9 49L11 49L11 50L12 50L12 52L11 52L11 54L13 54L13 52L14 52L14 53L15 53L15 54L14 54L14 56L16 56L16 57L17 57L17 56L18 56L18 57L20 57L20 55L21 55L21 56L22 56L22 57L23 57L23 56L25 56L25 55L23 55L23 54L24 54L24 53L23 53L23 52L24 52L24 51L25 51L25 54L26 54L26 55L27 55L27 56L26 56L26 57L30 57L30 55L32 55L32 57L33 57L33 56L34 56L34 55L33 55L33 54L29 54L29 53L31 53L31 52L32 52L32 53L34 53L34 52L33 52L33 48L34 48L34 49L35 49L35 50L34 50L34 51L35 51L35 50L36 50L36 52L35 52L35 54L36 54L36 55L35 55L35 56L36 56L36 57L37 57L37 56L38 56L38 55L39 55L39 57L47 57L47 56L45 56L45 54L46 54L46 55L49 55L49 56L48 56L48 57L50 57L50 55L51 55L51 56L52 56L52 57L53 57L53 56L54 56L54 55L55 55L55 57L57 57L57 56L56 56L56 55L57 55L57 54L56 54L56 53L55 53L55 54L54 54L54 53L53 53L53 52L54 52L54 51L55 51L55 52L57 52L57 48L56 48L56 47L57 47L57 44L56 44L56 43L57 43L57 40L56 40L56 41L53 41L53 40L54 40L54 39L55 39L55 38L56 38L56 39L57 39L57 38L56 38L56 36L57 36L57 32L56 32L56 31L57 31L57 28L56 28L56 27L57 27L57 25L55 25L55 26L54 26L54 27L53 27L53 24L54 24L54 23L55 23L55 24L56 24L56 23L57 23L57 21L56 21L56 20L57 20L57 16L56 16L56 15L57 15L57 12L56 12L56 11L57 11L57 9L55 9L55 8L54 8L54 9L51 9L51 8L49 8L49 9L51 9L51 12L52 12L52 13L51 13L51 14L52 14L52 15L51 15L51 16L50 16L50 15L49 15L49 14L48 14L48 13L47 13L47 12L48 12L48 11L49 11L49 12L50 12L50 11L49 11L49 10L48 10L48 9L47 9L47 8L48 8L48 7L49 7L49 6L48 6L48 7L47 7L47 5L48 5L48 0L46 0L46 1L47 1L47 2L46 2L46 3L45 3L45 4L44 4L44 3L43 3L43 1L45 1L45 0L42 0L42 1L41 1L41 0L40 0L40 1L39 1L39 0L38 0L38 1L37 1L37 0L36 0L36 1L35 1L35 0L34 0L34 1L33 1L33 3L36 3L36 1L37 1L37 2L38 2L38 3L37 3L37 4L34 4L34 5L33 5L33 4L32 4L32 3L31 3L31 2L32 2L32 0L26 0L26 1L25 1L25 0L24 0L24 2L20 2L20 1L21 1L21 0L20 0L20 1L19 1L19 2L16 2L16 1L17 1L17 0L13 0L13 1L12 1L12 0ZM22 0L22 1L23 1L23 0ZM14 1L14 2L13 2L13 3L14 3L14 4L13 4L13 5L12 5L12 6L11 6L11 5L10 5L10 6L9 6L9 9L8 9L8 10L9 10L9 11L10 11L10 12L11 12L11 18L12 18L12 16L13 16L13 17L14 17L14 16L15 16L15 17L16 17L16 18L14 18L14 19L16 19L16 20L17 20L17 21L16 21L16 22L17 22L17 23L16 23L16 24L15 24L15 25L13 25L13 26L14 26L14 27L18 27L18 28L14 28L14 30L13 30L13 31L16 31L16 32L15 32L15 33L14 33L14 32L12 32L12 35L11 35L11 33L10 33L10 34L9 34L9 35L8 35L8 36L7 36L7 35L6 35L6 36L7 36L7 37L6 37L6 38L5 38L5 39L6 39L6 40L7 40L7 41L5 41L5 40L3 40L3 41L2 41L2 40L1 40L1 41L2 41L2 42L4 42L4 43L3 43L3 44L4 44L4 45L3 45L3 47L5 47L5 46L4 46L4 45L6 45L6 46L8 46L8 48L11 48L11 49L13 49L13 50L15 50L15 51L14 51L14 52L15 52L15 51L16 51L16 52L17 52L17 53L16 53L16 54L17 54L17 55L16 55L16 56L17 56L17 55L18 55L18 56L19 56L19 55L20 55L20 54L21 54L21 55L22 55L22 54L21 54L21 51L20 51L20 50L21 50L21 49L22 49L22 48L23 48L23 50L22 50L22 52L23 52L23 50L25 50L25 48L27 48L27 47L30 47L30 46L29 46L29 45L31 45L31 47L32 47L32 46L33 46L33 47L34 47L34 48L35 48L35 49L36 49L36 50L37 50L37 51L38 51L38 52L37 52L37 55L38 55L38 54L39 54L39 55L40 55L40 54L39 54L39 53L38 53L38 52L39 52L39 51L42 51L42 52L41 52L41 53L42 53L42 54L41 54L41 55L43 55L43 56L44 56L44 54L45 54L45 53L46 53L46 54L48 54L48 52L47 52L47 51L48 51L48 50L47 50L47 49L48 49L48 48L50 48L50 46L51 46L51 47L53 47L53 48L54 48L54 50L53 50L53 51L54 51L54 50L55 50L55 49L56 49L56 48L55 48L55 47L56 47L56 46L55 46L55 45L56 45L56 44L55 44L55 43L56 43L56 42L53 42L53 41L51 41L51 40L49 40L49 39L48 39L48 38L47 38L47 37L48 37L48 34L51 34L51 37L50 37L50 38L51 38L51 39L52 39L52 40L53 40L53 39L54 39L54 38L55 38L55 36L56 36L56 35L54 35L54 34L55 34L55 33L56 33L56 32L55 32L55 31L56 31L56 30L53 30L53 31L54 31L54 32L52 32L52 31L51 31L51 32L49 32L49 31L48 31L48 30L47 30L47 29L48 29L48 28L47 28L47 27L48 27L48 26L49 26L49 24L51 24L51 23L52 23L52 22L53 22L53 23L54 23L54 22L55 22L55 19L54 19L54 18L55 18L55 17L56 17L56 16L55 16L55 15L56 15L56 14L55 14L55 13L56 13L56 12L55 12L55 11L56 11L56 10L55 10L55 11L53 11L53 10L52 10L52 12L53 12L53 14L55 14L55 15L54 15L54 18L53 18L53 17L52 17L52 16L51 16L51 17L50 17L50 16L49 16L49 15L48 15L48 14L47 14L47 13L46 13L46 12L47 12L47 11L48 11L48 10L47 10L47 9L46 9L46 8L47 8L47 7L46 7L46 5L47 5L47 3L46 3L46 5L44 5L44 4L43 4L43 3L42 3L42 2L41 2L41 1L40 1L40 3L38 3L38 4L37 4L37 5L38 5L38 4L41 4L41 5L39 5L39 8L37 8L37 9L36 9L36 8L35 8L35 9L34 9L34 13L32 13L32 14L31 14L31 11L32 11L32 10L31 10L31 9L32 9L32 5L31 5L31 9L28 9L28 10L27 10L27 11L24 11L24 10L26 10L26 9L25 9L25 8L26 8L26 6L25 6L25 5L26 5L26 4L31 4L31 3L30 3L30 1L27 1L27 2L28 2L28 3L26 3L26 4L25 4L25 5L24 5L24 4L23 4L23 3L22 3L22 4L21 4L21 5L20 5L20 4L19 4L19 3L20 3L20 2L19 2L19 3L18 3L18 4L17 4L17 3L16 3L16 2L15 2L15 1ZM8 2L8 3L9 3L9 2ZM14 2L14 3L15 3L15 6L14 6L14 5L13 5L13 6L12 6L12 8L10 8L10 9L9 9L9 10L10 10L10 11L13 11L13 10L14 10L14 11L15 11L15 12L14 12L14 13L15 13L15 14L14 14L14 15L13 15L13 16L14 16L14 15L15 15L15 16L16 16L16 15L17 15L17 16L18 16L18 17L17 17L17 18L16 18L16 19L17 19L17 20L18 20L18 21L17 21L17 22L18 22L18 21L19 21L19 22L20 22L20 23L17 23L17 24L18 24L18 27L19 27L19 28L18 28L18 29L17 29L17 30L16 30L16 29L15 29L15 30L16 30L16 31L17 31L17 32L18 32L18 33L17 33L17 34L16 34L16 33L15 33L15 34L13 34L13 35L12 35L12 36L11 36L11 37L9 37L9 38L10 38L10 39L11 39L11 38L12 38L12 36L14 36L14 35L15 35L15 36L16 36L16 38L17 38L17 39L16 39L16 41L14 41L14 40L15 40L15 38L14 38L14 37L13 37L13 38L14 38L14 39L13 39L13 40L11 40L11 41L12 41L12 42L11 42L11 44L9 44L9 43L7 43L7 42L8 42L8 41L7 41L7 42L6 42L6 43L7 43L7 44L6 44L6 45L7 45L7 44L9 44L9 45L10 45L10 47L11 47L11 48L14 48L14 49L15 49L15 50L16 50L16 51L17 51L17 52L18 52L18 53L17 53L17 54L20 54L20 53L19 53L19 52L20 52L20 51L19 51L19 50L20 50L20 49L19 49L19 48L20 48L20 47L21 47L21 48L22 48L22 47L23 47L23 48L25 48L25 47L26 47L26 46L28 46L28 45L27 45L27 44L28 44L28 43L29 43L29 42L28 42L28 40L27 40L27 38L28 38L28 36L29 36L29 34L30 34L30 37L29 37L29 41L31 41L31 42L30 42L30 44L31 44L31 45L35 45L35 48L36 48L36 49L37 49L37 50L38 50L38 49L39 49L39 50L42 50L42 51L43 51L43 52L42 52L42 53L43 53L43 54L44 54L44 53L45 53L45 52L46 52L46 53L47 53L47 52L46 52L46 50L45 50L45 48L46 48L46 49L47 49L47 48L46 48L46 47L43 47L43 48L42 48L42 46L40 46L40 45L41 45L41 43L40 43L40 42L41 42L41 38L42 38L42 37L43 37L43 38L44 38L44 40L42 40L42 41L43 41L43 42L44 42L44 41L46 41L46 40L45 40L45 39L46 39L46 37L47 37L47 36L46 36L46 35L44 35L44 34L46 34L46 33L47 33L47 34L48 34L48 33L49 33L49 32L48 32L48 33L47 33L47 32L46 32L46 31L43 31L43 33L44 33L44 34L43 34L43 36L42 36L42 35L39 35L39 36L38 36L38 35L37 35L37 34L38 34L38 33L39 33L39 34L42 34L42 30L40 30L40 29L41 29L41 28L42 28L42 29L43 29L43 30L46 30L46 29L47 29L47 28L46 28L46 27L45 27L45 26L46 26L46 25L47 25L47 26L48 26L48 25L47 25L47 24L48 24L48 23L49 23L49 22L50 22L50 23L51 23L51 22L52 22L52 21L53 21L53 22L54 22L54 21L53 21L53 20L54 20L54 19L53 19L53 18L52 18L52 17L51 17L51 18L50 18L50 19L49 19L49 18L48 18L48 17L47 17L47 16L48 16L48 15L46 15L46 16L45 16L45 14L46 14L46 13L45 13L45 12L46 12L46 11L43 11L43 12L42 12L42 11L41 11L41 10L40 10L40 9L41 9L41 8L42 8L42 7L43 7L43 6L44 6L44 8L43 8L43 9L45 9L45 8L46 8L46 7L45 7L45 6L44 6L44 5L43 5L43 4L42 4L42 3L41 3L41 4L42 4L42 5L41 5L41 6L40 6L40 9L39 9L39 10L40 10L40 11L39 11L39 12L38 12L38 13L37 13L37 10L38 10L38 9L37 9L37 10L36 10L36 11L35 11L35 16L34 16L34 14L33 14L33 15L32 15L32 16L30 16L30 10L28 10L28 11L27 11L27 13L29 13L29 14L28 14L28 17L26 17L26 18L22 18L22 17L23 17L23 16L24 16L24 15L21 15L21 16L22 16L22 17L21 17L21 18L20 18L20 17L19 17L19 16L20 16L20 14L19 14L19 12L18 12L18 11L21 11L21 12L22 12L22 13L21 13L21 14L23 14L23 12L24 12L24 11L23 11L23 10L24 10L24 7L25 7L25 6L24 6L24 5L23 5L23 6L22 6L22 5L21 5L21 6L20 6L20 5L19 5L19 4L18 4L18 5L19 5L19 6L18 6L18 7L17 7L17 5L16 5L16 3L15 3L15 2ZM24 2L24 3L25 3L25 2ZM27 5L27 8L30 8L30 5ZM10 6L10 7L11 7L11 6ZM13 6L13 7L14 7L14 8L12 8L12 9L10 9L10 10L12 10L12 9L14 9L14 8L15 8L15 9L16 9L16 10L15 10L15 11L16 11L16 12L15 12L15 13L16 13L16 14L15 14L15 15L16 15L16 14L17 14L17 15L18 15L18 16L19 16L19 15L18 15L18 14L17 14L17 13L18 13L18 12L17 12L17 11L18 11L18 8L16 8L16 6L15 6L15 7L14 7L14 6ZM19 6L19 7L20 7L20 10L21 10L21 11L22 11L22 12L23 12L23 11L22 11L22 8L21 8L21 7L22 7L22 6L21 6L21 7L20 7L20 6ZM23 6L23 7L24 7L24 6ZM28 6L28 7L29 7L29 6ZM33 6L33 8L34 8L34 6ZM35 6L35 7L36 7L36 6ZM37 6L37 7L38 7L38 6ZM41 6L41 7L42 7L42 6ZM5 9L5 10L7 10L7 9ZM16 10L16 11L17 11L17 10ZM12 12L12 14L13 14L13 12ZM39 12L39 13L38 13L38 16L37 16L37 17L36 17L36 16L35 16L35 17L34 17L34 16L33 16L33 17L30 17L30 16L29 16L29 17L30 17L30 18L27 18L27 19L26 19L26 21L27 21L27 23L26 23L26 22L25 22L25 20L23 20L23 19L22 19L22 18L21 18L21 19L20 19L20 18L17 18L17 19L20 19L20 20L19 20L19 21L20 21L20 22L21 22L21 19L22 19L22 20L23 20L23 21L24 21L24 22L23 22L23 23L22 23L22 24L21 24L21 23L20 23L20 26L19 26L19 27L22 27L22 28L20 28L20 29L18 29L18 30L17 30L17 31L18 31L18 32L19 32L19 33L20 33L20 34L17 34L17 35L16 35L16 34L15 34L15 35L16 35L16 36L17 36L17 37L18 37L18 36L17 36L17 35L20 35L20 36L19 36L19 37L20 37L20 38L19 38L19 39L18 39L18 40L17 40L17 41L16 41L16 42L15 42L15 43L17 43L17 42L18 42L18 43L19 43L19 42L18 42L18 40L19 40L19 39L20 39L20 45L19 45L19 44L18 44L18 46L17 46L17 44L13 44L13 43L12 43L12 45L11 45L11 47L14 47L14 48L15 48L15 49L16 49L16 50L17 50L17 51L18 51L18 52L19 52L19 51L18 51L18 50L17 50L17 49L18 49L18 48L19 48L19 47L18 47L18 46L21 46L21 47L22 47L22 46L21 46L21 45L22 45L22 44L23 44L23 46L24 46L24 45L26 45L26 44L27 44L27 43L28 43L28 42L27 42L27 41L26 41L26 42L25 42L25 40L26 40L26 39L24 39L24 38L25 38L25 37L26 37L26 38L27 38L27 37L26 37L26 36L27 36L27 34L29 34L29 33L31 33L31 32L30 32L30 31L28 31L28 32L27 32L27 31L26 31L26 32L23 32L23 37L24 37L24 38L23 38L23 39L22 39L22 38L21 38L21 36L22 36L22 34L21 34L21 33L22 33L22 32L21 32L21 31L24 31L24 30L26 30L26 28L25 28L25 26L26 26L26 24L29 24L29 25L28 25L28 26L29 26L29 25L30 25L30 26L31 26L31 27L32 27L32 26L33 26L33 25L34 25L34 28L36 28L36 26L37 26L37 25L38 25L38 27L39 27L39 25L40 25L40 24L39 24L39 23L42 23L42 24L43 24L43 23L44 23L44 22L45 22L45 21L44 21L44 20L43 20L43 17L42 17L42 16L43 16L43 15L44 15L44 14L45 14L45 13L44 13L44 12L43 12L43 13L42 13L42 12L41 12L41 13L40 13L40 12ZM5 13L5 15L6 15L6 16L5 16L5 17L6 17L6 18L5 18L5 19L6 19L6 18L7 18L7 17L6 17L6 16L7 16L7 15L8 15L8 16L9 16L9 15L10 15L10 14L9 14L9 15L8 15L8 14L7 14L7 13ZM25 13L25 14L26 14L26 13ZM36 13L36 14L37 14L37 13ZM39 13L39 14L40 14L40 15L39 15L39 16L38 16L38 17L37 17L37 18L36 18L36 17L35 17L35 18L36 18L36 19L35 19L35 20L34 20L34 19L33 19L33 18L34 18L34 17L33 17L33 18L32 18L32 19L31 19L31 20L32 20L32 21L31 21L31 22L32 22L32 25L31 25L31 24L30 24L30 25L31 25L31 26L32 26L32 25L33 25L33 24L34 24L34 23L33 23L33 22L32 22L32 21L33 21L33 20L34 20L34 21L35 21L35 23L36 23L36 25L35 25L35 26L36 26L36 25L37 25L37 24L38 24L38 25L39 25L39 24L38 24L38 23L37 23L37 22L38 22L38 21L39 21L39 22L42 22L42 21L43 21L43 22L44 22L44 21L43 21L43 20L42 20L42 17L41 17L41 16L42 16L42 15L41 15L41 14L42 14L42 13L41 13L41 14L40 14L40 13ZM43 13L43 14L44 14L44 13ZM2 14L2 15L3 15L3 14ZM6 14L6 15L7 15L7 14ZM39 16L39 17L38 17L38 18L37 18L37 19L38 19L38 20L37 20L37 21L38 21L38 20L39 20L39 19L40 19L40 18L41 18L41 17L40 17L40 16ZM39 17L39 18L40 18L40 17ZM46 17L46 18L44 18L44 19L45 19L45 20L48 20L48 22L47 22L47 21L46 21L46 23L45 23L45 25L44 25L44 26L43 26L43 25L41 25L41 26L40 26L40 27L41 27L41 26L42 26L42 28L43 28L43 29L44 29L44 28L43 28L43 27L44 27L44 26L45 26L45 25L46 25L46 24L47 24L47 23L48 23L48 22L49 22L49 21L50 21L50 22L51 22L51 20L52 20L52 18L51 18L51 20L49 20L49 19L47 19L47 17ZM2 19L2 20L3 20L3 22L2 22L2 23L3 23L3 22L4 22L4 21L5 21L5 20L3 20L3 19ZM12 19L12 21L13 21L13 19ZM28 19L28 21L30 21L30 19ZM41 20L41 21L42 21L42 20ZM6 22L6 23L7 23L7 22ZM24 22L24 23L23 23L23 24L22 24L22 25L21 25L21 26L22 26L22 27L23 27L23 28L22 28L22 29L21 29L21 30L23 30L23 29L24 29L24 27L23 27L23 26L24 26L24 23L25 23L25 24L26 24L26 23L25 23L25 22ZM28 22L28 23L29 23L29 22ZM0 24L0 27L2 27L2 26L1 26L1 24ZM15 25L15 26L16 26L16 25ZM50 25L50 26L52 26L52 25ZM55 26L55 27L54 27L54 29L56 29L56 28L55 28L55 27L56 27L56 26ZM5 27L5 30L8 30L8 27ZM27 27L27 30L30 30L30 27ZM49 27L49 30L52 30L52 27ZM6 28L6 29L7 29L7 28ZM12 28L12 29L11 29L11 30L10 30L10 31L8 31L8 33L9 33L9 32L10 32L10 31L12 31L12 29L13 29L13 28ZM28 28L28 29L29 29L29 28ZM37 28L37 29L33 29L33 30L34 30L34 32L33 32L33 33L32 33L32 35L33 35L33 37L32 37L32 36L31 36L31 37L30 37L30 38L31 38L31 39L30 39L30 40L31 40L31 41L32 41L32 42L33 42L33 41L34 41L34 43L33 43L33 44L35 44L35 42L36 42L36 43L37 43L37 41L38 41L38 44L37 44L37 45L36 45L36 46L39 46L39 47L38 47L38 48L37 48L37 49L38 49L38 48L39 48L39 49L40 49L40 48L41 48L41 49L42 49L42 50L43 50L43 51L45 51L45 50L43 50L43 49L42 49L42 48L41 48L41 47L40 47L40 46L39 46L39 45L40 45L40 44L39 44L39 42L40 42L40 41L39 41L39 39L40 39L40 38L41 38L41 37L42 37L42 36L41 36L41 37L38 37L38 36L37 36L37 37L34 37L34 36L35 36L35 35L36 35L36 34L37 34L37 33L38 33L38 32L39 32L39 33L40 33L40 32L39 32L39 31L40 31L40 30L39 30L39 29L40 29L40 28ZM45 28L45 29L46 29L46 28ZM50 28L50 29L51 29L51 28ZM0 29L0 34L1 34L1 33L2 33L2 34L4 34L4 32L3 32L3 33L2 33L2 32L1 32L1 30L2 30L2 29ZM31 29L31 31L32 31L32 29ZM37 29L37 30L36 30L36 31L35 31L35 32L34 32L34 33L33 33L33 34L34 34L34 33L35 33L35 34L36 34L36 33L37 33L37 32L38 32L38 31L37 31L37 30L38 30L38 29ZM18 30L18 31L19 31L19 32L20 32L20 30ZM35 32L35 33L36 33L36 32ZM45 32L45 33L46 33L46 32ZM51 32L51 34L52 34L52 32ZM6 33L6 34L7 34L7 33ZM25 33L25 34L24 34L24 35L25 35L25 36L26 36L26 34L27 34L27 33ZM53 33L53 34L54 34L54 33ZM20 34L20 35L21 35L21 34ZM49 35L49 36L50 36L50 35ZM53 35L53 36L54 36L54 35ZM43 36L43 37L44 37L44 38L45 38L45 37L46 37L46 36L45 36L45 37L44 37L44 36ZM7 37L7 38L6 38L6 39L8 39L8 40L9 40L9 42L10 42L10 40L9 40L9 39L8 39L8 37ZM31 37L31 38L32 38L32 39L31 39L31 40L32 40L32 41L33 41L33 40L34 40L34 41L35 41L35 40L34 40L34 39L33 39L33 38L34 38L34 37L33 37L33 38L32 38L32 37ZM37 37L37 38L35 38L35 39L36 39L36 41L37 41L37 40L38 40L38 39L37 39L37 38L38 38L38 37ZM51 37L51 38L52 38L52 39L53 39L53 38L54 38L54 37L53 37L53 38L52 38L52 37ZM20 38L20 39L21 39L21 40L22 40L22 43L21 43L21 44L22 44L22 43L24 43L24 44L25 44L25 42L24 42L24 39L23 39L23 40L22 40L22 39L21 39L21 38ZM48 40L48 41L49 41L49 42L47 42L47 43L49 43L49 44L48 44L48 45L49 45L49 46L48 46L48 47L49 47L49 46L50 46L50 45L51 45L51 44L52 44L52 43L53 43L53 44L54 44L54 43L53 43L53 42L52 42L52 43L51 43L51 41L49 41L49 40ZM4 41L4 42L5 42L5 41ZM13 41L13 42L14 42L14 41ZM26 42L26 43L27 43L27 42ZM49 42L49 43L50 43L50 42ZM43 43L43 44L42 44L42 45L43 45L43 46L46 46L46 45L47 45L47 44L46 44L46 43L45 43L45 44L44 44L44 43ZM0 44L0 45L1 45L1 44ZM38 44L38 45L39 45L39 44ZM43 44L43 45L44 45L44 44ZM45 44L45 45L46 45L46 44ZM49 44L49 45L50 45L50 44ZM12 45L12 46L13 46L13 45ZM14 45L14 46L16 46L16 47L15 47L15 48L16 48L16 47L17 47L17 48L18 48L18 47L17 47L17 46L16 46L16 45ZM53 45L53 46L54 46L54 47L55 47L55 46L54 46L54 45ZM39 47L39 48L40 48L40 47ZM27 49L27 52L30 52L30 49ZM31 49L31 51L32 51L32 49ZM49 49L49 52L52 52L52 49ZM28 50L28 51L29 51L29 50ZM50 50L50 51L51 51L51 50ZM43 52L43 53L44 53L44 52ZM51 53L51 55L52 55L52 56L53 56L53 55L54 55L54 54L53 54L53 55L52 55L52 53ZM49 54L49 55L50 55L50 54ZM55 54L55 55L56 55L56 54ZM28 55L28 56L29 56L29 55ZM10 56L10 57L12 57L12 56ZM0 0L0 7L7 7L7 0ZM1 1L1 6L6 6L6 1ZM2 2L2 5L5 5L5 2ZM50 0L50 7L57 7L57 0ZM51 1L51 6L56 6L56 1ZM52 2L52 5L55 5L55 2ZM0 50L0 57L7 57L7 50ZM1 51L1 56L6 56L6 51ZM2 52L2 55L5 55L5 52Z" fill="#000000"/></g></g></svg>
