<?xml version="1.0" encoding="UTF-8"?>
<svg xmlns="http://www.w3.org/2000/svg" version="1.1" width="180" height="180" viewBox="0 0 180 180"><rect x="0" y="0" width="180" height="180" fill="#ffffff"/><g transform="scale(3.158)"><g transform="translate(0,0)"><path fill-rule="evenodd" d="M9 0L9 1L11 1L11 2L10 2L10 3L11 3L11 6L10 6L10 5L9 5L9 6L8 6L8 8L4 8L4 9L5 9L5 10L3 10L3 8L0 8L0 10L2 10L2 11L1 11L1 12L2 12L2 11L3 11L3 12L4 12L4 13L1 13L1 14L0 14L0 15L3 15L3 18L2 18L2 17L0 17L0 18L2 18L2 20L3 20L3 18L4 18L4 15L5 15L5 14L4 14L4 13L7 13L7 14L6 14L6 15L7 15L7 14L9 14L9 12L10 12L10 11L9 11L9 10L10 10L10 9L12 9L12 10L11 10L11 12L12 12L12 13L13 13L13 12L12 12L12 11L13 11L13 10L14 10L14 11L15 11L15 12L14 12L14 13L15 13L15 14L14 14L14 15L13 15L13 14L11 14L11 13L10 13L10 19L9 19L9 18L8 18L8 17L9 17L9 15L8 15L8 17L7 17L7 16L5 16L5 19L4 19L4 20L5 20L5 22L4 22L4 21L1 21L1 19L0 19L0 24L1 24L1 22L2 22L2 23L3 23L3 25L4 25L4 27L3 27L3 28L2 28L2 29L4 29L4 32L3 32L3 35L5 35L5 36L3 36L3 37L0 37L0 38L2 38L2 39L3 39L3 40L4 40L4 39L3 39L3 37L5 37L5 36L6 36L6 37L7 37L7 38L5 38L5 39L8 39L8 40L10 40L10 38L9 38L9 39L8 39L8 36L6 36L6 35L7 35L7 34L8 34L8 33L9 33L9 34L10 34L10 33L9 33L9 32L11 32L11 35L9 35L9 37L10 37L10 36L11 36L11 39L12 39L12 41L7 41L7 40L5 40L5 41L4 41L4 42L1 42L1 41L0 41L0 43L1 43L1 45L0 45L0 48L5 48L5 47L9 47L9 46L10 46L10 47L11 47L11 48L10 48L10 49L9 49L9 48L6 48L6 49L8 49L8 53L9 53L9 54L8 54L8 57L10 57L10 55L9 55L9 54L11 54L11 55L12 55L12 53L13 53L13 54L14 54L14 53L15 53L15 54L16 54L16 55L15 55L15 56L14 56L14 55L13 55L13 56L12 56L12 57L16 57L16 55L17 55L17 56L18 56L18 57L19 57L19 56L20 56L20 55L21 55L21 56L22 56L22 57L24 57L24 56L22 56L22 55L26 55L26 54L28 54L28 55L29 55L29 57L30 57L30 55L31 55L31 53L33 53L33 52L34 52L34 53L35 53L35 54L36 54L36 57L37 57L37 56L38 56L38 57L43 57L43 56L44 56L44 57L45 57L45 55L46 55L46 53L47 53L47 56L46 56L46 57L47 57L47 56L48 56L48 57L50 57L50 56L48 56L48 55L51 55L51 56L52 56L52 57L53 57L53 56L54 56L54 55L55 55L55 57L57 57L57 56L56 56L56 55L57 55L57 54L56 54L56 53L57 53L57 52L56 52L56 51L57 51L57 50L54 50L54 49L53 49L53 48L54 48L54 47L53 47L53 46L56 46L56 47L55 47L55 48L56 48L56 49L57 49L57 48L56 48L56 47L57 47L57 44L56 44L56 43L57 43L57 40L56 40L56 41L53 41L53 42L52 42L52 41L49 41L49 40L52 40L52 39L53 39L53 40L54 40L54 39L55 39L55 38L56 38L56 39L57 39L57 38L56 38L56 37L55 37L55 38L54 38L54 37L53 37L53 38L52 38L52 37L51 37L51 36L52 36L52 35L53 35L53 36L54 36L54 35L55 35L55 36L57 36L57 32L56 32L56 31L57 31L57 28L56 28L56 27L57 27L57 25L55 25L55 26L54 26L54 27L53 27L53 24L54 24L54 23L55 23L55 24L57 24L57 21L56 21L56 20L57 20L57 16L56 16L56 15L57 15L57 12L56 12L56 11L57 11L57 9L55 9L55 8L54 8L54 9L52 9L52 10L51 10L51 11L52 11L52 13L51 13L51 12L50 12L50 11L49 11L49 10L48 10L48 9L47 9L47 8L48 8L48 7L49 7L49 6L48 6L48 7L47 7L47 5L48 5L48 0L46 0L46 1L44 1L44 2L46 2L46 3L45 3L45 4L44 4L44 3L41 3L41 4L42 4L42 5L39 5L39 4L38 4L38 3L39 3L39 2L40 2L40 1L41 1L41 2L43 2L43 0L40 0L40 1L39 1L39 0L38 0L38 1L37 1L37 0L36 0L36 1L35 1L35 0L34 0L34 1L33 1L33 0L28 0L28 1L27 1L27 0L26 0L26 5L25 5L25 2L23 2L23 4L24 4L24 5L23 5L23 6L22 6L22 5L21 5L21 2L22 2L22 1L21 1L21 0L20 0L20 1L19 1L19 2L20 2L20 3L19 3L19 4L20 4L20 5L16 5L16 3L18 3L18 1L17 1L17 0L16 0L16 1L15 1L15 2L14 2L14 1L11 1L11 0ZM23 0L23 1L25 1L25 0ZM16 1L16 2L15 2L15 3L14 3L14 2L11 2L11 3L12 3L12 6L11 6L11 8L12 8L12 6L13 6L13 7L14 7L14 6L13 6L13 5L15 5L15 3L16 3L16 2L17 2L17 1ZM20 1L20 2L21 2L21 1ZM28 1L28 2L29 2L29 3L27 3L27 4L30 4L30 1ZM32 1L32 2L31 2L31 3L32 3L32 5L31 5L31 7L32 7L32 5L33 5L33 7L34 7L34 8L33 8L33 9L32 9L32 8L31 8L31 9L28 9L28 10L27 10L27 11L25 11L25 12L24 12L24 11L22 11L22 8L21 8L21 7L22 7L22 6L21 6L21 5L20 5L20 6L19 6L19 7L20 7L20 10L19 10L19 11L18 11L18 8L17 8L17 9L16 9L16 6L15 6L15 9L16 9L16 10L15 10L15 11L18 11L18 12L15 12L15 13L16 13L16 14L15 14L15 15L14 15L14 16L13 16L13 17L14 17L14 16L15 16L15 17L16 17L16 18L14 18L14 19L16 19L16 20L17 20L17 21L16 21L16 22L17 22L17 23L16 23L16 24L15 24L15 23L12 23L12 22L13 22L13 21L12 21L12 20L13 20L13 19L12 19L12 17L11 17L11 19L12 19L12 20L11 20L11 23L10 23L10 21L9 21L9 19L8 19L8 18L7 18L7 17L6 17L6 18L7 18L7 19L5 19L5 20L7 20L7 21L6 21L6 22L5 22L5 23L4 23L4 22L3 22L3 23L4 23L4 25L5 25L5 26L7 26L7 25L6 25L6 24L8 24L8 26L9 26L9 31L5 31L5 32L4 32L4 33L5 33L5 35L6 35L6 34L7 34L7 33L8 33L8 32L9 32L9 31L10 31L10 28L11 28L11 29L12 29L12 30L13 30L13 32L12 32L12 36L13 36L13 37L12 37L12 39L14 39L14 40L13 40L13 41L12 41L12 42L9 42L9 43L12 43L12 45L13 45L13 46L14 46L14 47L13 47L13 48L15 48L15 49L16 49L16 50L14 50L14 49L12 49L12 48L11 48L11 49L10 49L10 50L11 50L11 51L9 51L9 52L10 52L10 53L11 53L11 52L12 52L12 50L14 50L14 51L13 51L13 52L14 52L14 51L16 51L16 52L15 52L15 53L16 53L16 54L17 54L17 55L20 55L20 54L21 54L21 52L22 52L22 50L21 50L21 49L22 49L22 48L20 48L20 46L21 46L21 47L23 47L23 50L25 50L25 48L24 48L24 47L23 47L23 46L25 46L25 45L27 45L27 44L28 44L28 46L31 46L31 45L32 45L32 46L33 46L33 47L32 47L32 48L33 48L33 49L32 49L32 50L31 50L31 51L32 51L32 50L33 50L33 51L34 51L34 52L35 52L35 51L36 51L36 52L37 52L37 53L36 53L36 54L37 54L37 55L38 55L38 56L40 56L40 55L39 55L39 53L38 53L38 52L40 52L40 50L41 50L41 51L42 51L42 52L41 52L41 53L40 53L40 54L41 54L41 55L42 55L42 56L43 56L43 55L44 55L44 54L45 54L45 53L46 53L46 52L47 52L47 49L48 49L48 48L49 48L49 47L50 47L50 46L51 46L51 47L52 47L52 48L53 48L53 47L52 47L52 46L53 46L53 45L56 45L56 44L55 44L55 43L56 43L56 42L53 42L53 43L52 43L52 42L51 42L51 43L50 43L50 42L49 42L49 41L48 41L48 40L49 40L49 39L50 39L50 38L51 38L51 39L52 39L52 38L51 38L51 37L50 37L50 36L49 36L49 37L50 37L50 38L47 38L47 37L48 37L48 34L49 34L49 33L50 33L50 32L49 32L49 31L48 31L48 30L47 30L47 29L48 29L48 27L47 27L47 25L48 25L48 26L51 26L51 24L50 24L50 22L51 22L51 23L52 23L52 22L53 22L53 23L54 23L54 22L55 22L55 20L56 20L56 19L54 19L54 18L55 18L55 17L56 17L56 16L55 16L55 15L56 15L56 14L54 14L54 13L56 13L56 12L55 12L55 11L56 11L56 10L55 10L55 11L53 11L53 10L52 10L52 11L53 11L53 17L52 17L52 16L51 16L51 15L52 15L52 14L51 14L51 13L50 13L50 12L49 12L49 11L48 11L48 10L47 10L47 9L46 9L46 8L47 8L47 7L46 7L46 5L47 5L47 3L46 3L46 5L44 5L44 4L43 4L43 5L44 5L44 6L43 6L43 7L42 7L42 6L41 6L41 7L42 7L42 8L41 8L41 10L40 10L40 9L39 9L39 8L38 8L38 6L37 6L37 5L38 5L38 4L37 4L37 3L38 3L38 2L37 2L37 1L36 1L36 2L35 2L35 3L34 3L34 2L33 2L33 1ZM46 1L46 2L47 2L47 1ZM8 2L8 3L9 3L9 2ZM13 3L13 4L14 4L14 3ZM33 4L33 5L34 5L34 7L35 7L35 6L36 6L36 9L37 9L37 10L38 10L38 9L37 9L37 6L36 6L36 5L37 5L37 4ZM24 5L24 6L23 6L23 7L24 7L24 10L25 10L25 8L26 8L26 6L25 6L25 5ZM27 5L27 8L30 8L30 5ZM9 6L9 7L10 7L10 6ZM17 6L17 7L18 7L18 6ZM20 6L20 7L21 7L21 6ZM24 6L24 7L25 7L25 6ZM28 6L28 7L29 7L29 6ZM39 6L39 7L40 7L40 6ZM44 6L44 8L42 8L42 9L43 9L43 10L44 10L44 9L45 9L45 6ZM9 8L9 9L8 9L8 10L9 10L9 9L10 9L10 8ZM13 8L13 9L14 9L14 8ZM34 8L34 9L33 9L33 10L32 10L32 9L31 9L31 12L30 12L30 11L29 11L29 10L28 10L28 11L29 11L29 12L27 12L27 14L26 14L26 13L25 13L25 14L24 14L24 15L23 15L23 16L22 16L22 14L23 14L23 13L24 13L24 12L22 12L22 11L21 11L21 10L20 10L20 11L19 11L19 12L18 12L18 13L17 13L17 14L16 14L16 15L15 15L15 16L16 16L16 15L17 15L17 16L18 16L18 17L17 17L17 18L16 18L16 19L19 19L19 20L18 20L18 21L17 21L17 22L18 22L18 23L17 23L17 24L16 24L16 25L15 25L15 24L14 24L14 25L12 25L12 26L11 26L11 25L10 25L10 23L9 23L9 25L10 25L10 27L12 27L12 28L16 28L16 27L17 27L17 28L18 28L18 29L17 29L17 30L16 30L16 29L14 29L14 31L15 31L15 32L16 32L16 31L17 31L17 32L18 32L18 33L17 33L17 34L16 34L16 33L14 33L14 32L13 32L13 35L14 35L14 36L16 36L16 38L18 38L18 39L16 39L16 40L15 40L15 42L16 42L16 40L18 40L18 43L17 43L17 44L18 44L18 45L17 45L17 46L16 46L16 45L15 45L15 44L16 44L16 43L15 43L15 44L14 44L14 42L13 42L13 44L14 44L14 45L15 45L15 46L16 46L16 47L15 47L15 48L16 48L16 47L17 47L17 48L18 48L18 49L17 49L17 50L16 50L16 51L17 51L17 52L16 52L16 53L17 53L17 54L20 54L20 53L19 53L19 52L20 52L20 51L21 51L21 50L20 50L20 49L19 49L19 48L18 48L18 47L19 47L19 44L20 44L20 43L21 43L21 44L22 44L22 45L21 45L21 46L23 46L23 44L24 44L24 43L25 43L25 44L27 44L27 42L28 42L28 43L29 43L29 44L30 44L30 45L31 45L31 44L32 44L32 45L35 45L35 46L36 46L36 47L35 47L35 48L34 48L34 47L33 47L33 48L34 48L34 49L33 49L33 50L34 50L34 49L35 49L35 50L36 50L36 51L37 51L37 52L38 52L38 51L37 51L37 50L38 50L38 49L39 49L39 50L40 50L40 49L41 49L41 50L42 50L42 49L41 49L41 48L42 48L42 46L40 46L40 45L41 45L41 44L42 44L42 45L43 45L43 46L44 46L44 48L43 48L43 50L44 50L44 51L43 51L43 52L42 52L42 53L41 53L41 54L42 54L42 53L43 53L43 54L44 54L44 53L45 53L45 52L46 52L46 51L45 51L45 50L46 50L46 49L47 49L47 48L46 48L46 47L45 47L45 46L46 46L46 45L47 45L47 46L48 46L48 47L49 47L49 46L48 46L48 45L52 45L52 43L51 43L51 44L50 44L50 43L49 43L49 44L48 44L48 45L47 45L47 44L46 44L46 43L45 43L45 40L46 40L46 41L47 41L47 43L48 43L48 41L47 41L47 40L46 40L46 37L47 37L47 36L45 36L45 35L43 35L43 36L42 36L42 33L43 33L43 34L46 34L46 33L47 33L47 34L48 34L48 33L49 33L49 32L48 32L48 33L47 33L47 31L46 31L46 32L45 32L45 30L46 30L46 29L47 29L47 28L46 28L46 27L45 27L45 26L46 26L46 25L47 25L47 24L49 24L49 23L47 23L47 24L45 24L45 23L46 23L46 21L47 21L47 22L48 22L48 21L47 21L47 20L48 20L48 19L49 19L49 20L50 20L50 21L49 21L49 22L50 22L50 21L51 21L51 22L52 22L52 21L53 21L53 22L54 22L54 21L53 21L53 20L54 20L54 19L53 19L53 18L54 18L54 17L53 17L53 18L52 18L52 17L51 17L51 16L50 16L50 14L48 14L48 13L47 13L47 12L48 12L48 11L47 11L47 12L46 12L46 11L45 11L45 12L44 12L44 11L43 11L43 12L42 12L42 11L40 11L40 10L39 10L39 12L37 12L37 11L36 11L36 10L35 10L35 11L34 11L34 9L35 9L35 8ZM49 8L49 9L51 9L51 8ZM6 9L6 10L7 10L7 9ZM4 11L4 12L9 12L9 11ZM20 11L20 13L19 13L19 14L20 14L20 16L19 16L19 15L18 15L18 14L17 14L17 15L18 15L18 16L19 16L19 17L20 17L20 18L19 18L19 19L20 19L20 20L19 20L19 21L18 21L18 22L19 22L19 23L20 23L20 26L19 26L19 27L18 27L18 24L17 24L17 25L16 25L16 26L14 26L14 27L16 27L16 26L17 26L17 27L18 27L18 28L19 28L19 27L20 27L20 29L19 29L19 30L21 30L21 31L20 31L20 32L19 32L19 31L18 31L18 30L17 30L17 31L18 31L18 32L19 32L19 33L20 33L20 34L17 34L17 35L16 35L16 34L14 34L14 35L16 35L16 36L17 36L17 37L18 37L18 38L19 38L19 39L20 39L20 42L19 42L19 43L18 43L18 44L19 44L19 43L20 43L20 42L21 42L21 43L22 43L22 44L23 44L23 43L24 43L24 42L25 42L25 41L26 41L26 42L27 42L27 39L30 39L30 38L31 38L31 37L30 37L30 34L31 34L31 35L32 35L32 33L30 33L30 32L27 32L27 33L26 33L26 36L27 36L27 35L28 35L28 38L27 38L27 39L26 39L26 40L24 40L24 42L23 42L23 43L22 43L22 40L21 40L21 39L22 39L22 38L21 38L21 35L22 35L22 36L23 36L23 37L24 37L24 38L23 38L23 39L25 39L25 37L24 37L24 36L25 36L25 32L23 32L23 33L22 33L22 32L21 32L21 31L23 31L23 30L24 30L24 29L25 29L25 30L26 30L26 26L27 26L27 25L28 25L28 24L27 24L27 23L29 23L29 22L30 22L30 23L31 23L31 25L30 25L30 24L29 24L29 26L31 26L31 27L32 27L32 26L31 26L31 25L32 25L32 23L34 23L34 24L35 24L35 25L34 25L34 26L33 26L33 31L34 31L34 32L33 32L33 33L34 33L34 34L33 34L33 36L35 36L35 35L36 35L36 34L37 34L37 35L38 35L38 36L37 36L37 37L36 37L36 38L37 38L37 39L40 39L40 38L39 38L39 37L38 37L38 36L39 36L39 35L41 35L41 34L39 34L39 33L40 33L40 32L41 32L41 33L42 33L42 32L43 32L43 31L44 31L44 30L45 30L45 29L46 29L46 28L45 28L45 27L44 27L44 28L43 28L43 26L45 26L45 25L38 25L38 24L39 24L39 23L40 23L40 22L41 22L41 23L43 23L43 24L44 24L44 22L45 22L45 21L44 21L44 20L43 20L43 18L44 18L44 19L46 19L46 20L47 20L47 18L49 18L49 19L51 19L51 20L53 20L53 19L52 19L52 18L51 18L51 17L50 17L50 16L49 16L49 15L48 15L48 14L47 14L47 13L46 13L46 12L45 12L45 13L46 13L46 14L43 14L43 13L44 13L44 12L43 12L43 13L42 13L42 12L41 12L41 13L40 13L40 12L39 12L39 13L36 13L36 14L38 14L38 16L37 16L37 17L36 17L36 16L35 16L35 13L30 13L30 12L29 12L29 13L28 13L28 14L27 14L27 15L26 15L26 14L25 14L25 16L24 16L24 17L22 17L22 16L21 16L21 13L22 13L22 12L21 12L21 11ZM33 11L33 12L34 12L34 11ZM29 13L29 14L28 14L28 17L29 17L29 18L28 18L28 19L27 19L27 20L28 20L28 21L26 21L26 19L25 19L25 18L26 18L26 16L25 16L25 18L22 18L22 17L21 17L21 18L20 18L20 19L25 19L25 22L29 22L29 21L30 21L30 19L29 19L29 18L30 18L30 17L31 17L31 21L33 21L33 19L32 19L32 17L33 17L33 18L34 18L34 17L35 17L35 18L36 18L36 19L35 19L35 20L34 20L34 21L37 21L37 22L38 22L38 21L41 21L41 22L42 22L42 21L43 21L43 22L44 22L44 21L43 21L43 20L42 20L42 19L39 19L39 20L38 20L38 19L37 19L37 18L38 18L38 17L39 17L39 18L42 18L42 17L44 17L44 18L46 18L46 17L48 17L48 15L47 15L47 16L46 16L46 15L43 15L43 16L41 16L41 14L42 14L42 13L41 13L41 14L40 14L40 13L39 13L39 14L40 14L40 15L39 15L39 16L38 16L38 17L37 17L37 18L36 18L36 17L35 17L35 16L34 16L34 15L33 15L33 14L32 14L32 15L31 15L31 16L30 16L30 13ZM29 16L29 17L30 17L30 16ZM33 16L33 17L34 17L34 16ZM39 16L39 17L40 17L40 16ZM45 16L45 17L46 17L46 16ZM49 17L49 18L50 18L50 17ZM14 20L14 22L15 22L15 20ZM22 20L22 21L21 21L21 22L20 22L20 21L19 21L19 22L20 22L20 23L21 23L21 24L22 24L22 27L21 27L21 26L20 26L20 27L21 27L21 28L22 28L22 29L21 29L21 30L23 30L23 28L24 28L24 27L25 27L25 26L24 26L24 25L23 25L23 24L25 24L25 25L26 25L26 23L23 23L23 22L24 22L24 21L23 21L23 20ZM37 20L37 21L38 21L38 20ZM41 20L41 21L42 21L42 20ZM6 22L6 23L8 23L8 22ZM21 22L21 23L22 23L22 24L23 24L23 23L22 23L22 22ZM35 23L35 24L36 24L36 25L35 25L35 26L36 26L36 27L34 27L34 28L35 28L35 30L36 30L36 31L35 31L35 32L34 32L34 33L35 33L35 34L36 34L36 33L37 33L37 34L38 34L38 33L39 33L39 32L40 32L40 31L41 31L41 32L42 32L42 31L41 31L41 30L42 30L42 29L43 29L43 30L44 30L44 29L45 29L45 28L44 28L44 29L43 29L43 28L42 28L42 26L41 26L41 27L39 27L39 28L38 28L38 29L37 29L37 28L36 28L36 27L38 27L38 25L37 25L37 24L38 24L38 23ZM0 25L0 26L1 26L1 27L0 27L0 28L1 28L1 27L2 27L2 25ZM36 25L36 26L37 26L37 25ZM12 26L12 27L13 27L13 26ZM55 26L55 27L54 27L54 29L53 29L53 30L55 30L55 31L54 31L54 34L53 34L53 32L52 32L52 34L53 34L53 35L54 35L54 34L55 34L55 33L56 33L56 32L55 32L55 31L56 31L56 30L55 30L55 29L56 29L56 28L55 28L55 27L56 27L56 26ZM5 27L5 30L8 30L8 27ZM22 27L22 28L23 28L23 27ZM27 27L27 30L30 30L30 27ZM49 27L49 30L52 30L52 27ZM6 28L6 29L7 29L7 28ZM28 28L28 29L29 29L29 28ZM39 28L39 29L38 29L38 32L37 32L37 33L38 33L38 32L39 32L39 31L40 31L40 30L41 30L41 29L42 29L42 28L41 28L41 29L40 29L40 28ZM50 28L50 29L51 29L51 28ZM31 29L31 30L32 30L32 29ZM36 29L36 30L37 30L37 29ZM39 29L39 30L40 30L40 29ZM0 30L0 32L1 32L1 31L3 31L3 30ZM15 30L15 31L16 31L16 30ZM5 32L5 33L7 33L7 32ZM35 32L35 33L36 33L36 32ZM0 33L0 36L2 36L2 34L1 34L1 33ZM21 33L21 34L20 34L20 35L17 35L17 36L18 36L18 37L19 37L19 38L20 38L20 39L21 39L21 38L20 38L20 37L19 37L19 36L20 36L20 35L21 35L21 34L22 34L22 35L23 35L23 36L24 36L24 35L23 35L23 34L22 34L22 33ZM27 33L27 34L28 34L28 35L29 35L29 34L28 34L28 33ZM41 36L41 37L42 37L42 38L41 38L41 39L42 39L42 40L41 40L41 41L40 41L40 42L41 42L41 43L42 43L42 44L43 44L43 45L44 45L44 46L45 46L45 45L46 45L46 44L45 44L45 45L44 45L44 44L43 44L43 42L44 42L44 41L43 41L43 39L44 39L44 38L45 38L45 37L44 37L44 36L43 36L43 37L42 37L42 36ZM14 37L14 38L15 38L15 37ZM29 37L29 38L30 38L30 37ZM32 37L32 38L33 38L33 40L34 40L34 39L35 39L35 41L34 41L34 43L36 43L36 39L35 39L35 37L34 37L34 38L33 38L33 37ZM37 37L37 38L38 38L38 37ZM43 37L43 38L44 38L44 37ZM53 38L53 39L54 39L54 38ZM0 39L0 40L1 40L1 39ZM31 39L31 41L32 41L32 42L31 42L31 43L32 43L32 42L33 42L33 41L32 41L32 39ZM28 40L28 42L30 42L30 40ZM37 40L37 41L38 41L38 42L37 42L37 43L39 43L39 40ZM6 41L6 42L5 42L5 43L4 43L4 44L3 44L3 43L2 43L2 44L3 44L3 45L5 45L5 46L3 46L3 47L5 47L5 46L7 46L7 45L6 45L6 44L8 44L8 46L9 46L9 44L8 44L8 43L6 43L6 42L7 42L7 41ZM53 43L53 44L54 44L54 43ZM10 44L10 46L11 46L11 47L12 47L12 46L11 46L11 44ZM35 44L35 45L36 45L36 46L37 46L37 47L38 47L38 48L37 48L37 49L36 49L36 48L35 48L35 49L36 49L36 50L37 50L37 49L38 49L38 48L39 48L39 49L40 49L40 48L41 48L41 47L40 47L40 46L39 46L39 45L40 45L40 44L37 44L37 45L36 45L36 44ZM37 45L37 46L38 46L38 45ZM1 46L1 47L2 47L2 46ZM17 46L17 47L18 47L18 46ZM26 46L26 48L30 48L30 47L27 47L27 46ZM39 47L39 48L40 48L40 47ZM45 48L45 49L44 49L44 50L45 50L45 49L46 49L46 48ZM11 49L11 50L12 50L12 49ZM27 49L27 52L30 52L30 49ZM49 49L49 52L52 52L52 49ZM17 50L17 51L20 51L20 50ZM28 50L28 51L29 51L29 50ZM50 50L50 51L51 51L51 50ZM53 50L53 51L54 51L54 52L53 52L53 53L54 53L54 54L53 54L53 55L52 55L52 53L51 53L51 55L52 55L52 56L53 56L53 55L54 55L54 54L55 54L55 55L56 55L56 54L55 54L55 53L56 53L56 52L55 52L55 51L54 51L54 50ZM23 51L23 53L24 53L24 54L25 54L25 53L24 53L24 51ZM17 52L17 53L18 53L18 52ZM43 52L43 53L44 53L44 52ZM37 53L37 54L38 54L38 53ZM48 53L48 54L49 54L49 53ZM29 54L29 55L30 55L30 54ZM32 54L32 57L33 57L33 56L34 56L34 55L33 55L33 54ZM26 56L26 57L28 57L28 56ZM0 0L0 7L7 7L7 0ZM1 1L1 6L6 6L6 1ZM2 2L2 5L5 5L5 2ZM50 0L50 7L57 7L57 0ZM51 1L51 6L56 6L56 1ZM52 2L52 5L55 5L55 2ZM0 50L0 57L7 57L7 50ZM1 51L1 56L6 56L6 51ZM2 52L2 55L5 55L5 52Z" fill="#000000"/></g></g></svg>
