<?xml version="1.0" encoding="UTF-8"?>
<svg xmlns="http://www.w3.org/2000/svg" version="1.1" width="170" height="170" viewBox="0 0 170 170"><rect x="0" y="0" width="170" height="170" fill="#ffffff"/><g transform="scale(2.787)"><g transform="translate(0,0)"><path fill-rule="evenodd" d="M8 0L8 1L10 1L10 0ZM16 0L16 2L15 2L15 1L14 1L14 2L13 2L13 1L11 1L11 2L13 2L13 6L12 6L12 7L11 7L11 6L10 6L10 7L9 7L9 6L8 6L8 7L9 7L9 8L8 8L8 9L7 9L7 8L6 8L6 9L7 9L7 10L6 10L6 11L5 11L5 10L2 10L2 9L4 9L4 8L0 8L0 10L1 10L1 11L3 11L3 12L1 12L1 14L3 14L3 15L1 15L1 16L0 16L0 17L1 17L1 16L2 16L2 18L3 18L3 20L4 20L4 21L3 21L3 24L1 24L1 25L4 25L4 28L3 28L3 27L2 27L2 26L1 26L1 27L0 27L0 29L1 29L1 30L0 30L0 33L1 33L1 32L2 32L2 34L0 34L0 36L1 36L1 37L2 37L2 39L3 39L3 40L5 40L5 41L7 41L7 40L8 40L8 41L10 41L10 40L13 40L13 39L14 39L14 38L15 38L15 42L14 42L14 41L12 41L12 42L11 42L11 43L10 43L10 44L11 44L11 43L13 43L13 44L14 44L14 45L10 45L10 46L12 46L12 47L13 47L13 48L11 48L11 50L8 50L8 52L9 52L9 53L8 53L8 54L9 54L9 57L8 57L8 61L9 61L9 60L10 60L10 61L11 61L11 60L12 60L12 61L14 61L14 57L15 57L15 55L17 55L17 57L18 57L18 58L16 58L16 60L15 60L15 61L17 61L17 59L18 59L18 58L19 58L19 60L18 60L18 61L19 61L19 60L20 60L20 61L22 61L22 60L23 60L23 59L24 59L24 60L25 60L25 61L26 61L26 60L27 60L27 61L28 61L28 60L27 60L27 59L26 59L26 56L28 56L28 57L27 57L27 58L28 58L28 57L29 57L29 61L32 61L32 60L36 60L36 61L38 61L38 58L37 58L37 57L39 57L39 59L40 59L40 58L41 58L41 59L43 59L43 60L42 60L42 61L43 61L43 60L45 60L45 61L46 61L46 60L47 60L47 61L52 61L52 60L53 60L53 59L54 59L54 58L55 58L55 57L56 57L56 59L55 59L55 60L56 60L56 59L57 59L57 61L61 61L61 60L59 60L59 59L60 59L60 58L61 58L61 53L60 53L60 52L61 52L61 51L59 51L59 52L58 52L58 50L57 50L57 49L60 49L60 50L61 50L61 49L60 49L60 48L61 48L61 47L60 47L60 46L59 46L59 45L58 45L58 42L60 42L60 43L61 43L61 42L60 42L60 41L61 41L61 40L60 40L60 38L61 38L61 36L60 36L60 33L59 33L59 32L60 32L60 31L61 31L61 29L59 29L59 28L61 28L61 27L59 27L59 28L58 28L58 27L56 27L56 26L57 26L57 25L58 25L58 26L60 26L60 24L61 24L61 23L60 23L60 24L59 24L59 23L58 23L58 24L57 24L57 23L56 23L56 22L58 22L58 20L57 20L57 21L56 21L56 22L55 22L55 21L54 21L54 20L55 20L55 19L54 19L54 20L53 20L53 21L54 21L54 23L55 23L55 24L54 24L54 25L53 25L53 23L50 23L50 22L47 22L47 23L45 23L45 22L46 22L46 21L47 21L47 20L46 20L46 21L45 21L45 22L44 22L44 23L43 23L43 21L44 21L44 20L43 20L43 21L42 21L42 22L41 22L41 23L43 23L43 24L42 24L42 25L41 25L41 26L40 26L40 27L39 27L39 25L40 25L40 23L39 23L39 24L38 24L38 23L37 23L37 24L36 24L36 23L33 23L33 20L35 20L35 17L36 17L36 15L38 15L38 13L40 13L40 12L39 12L39 11L38 11L38 10L37 10L37 9L36 9L36 8L38 8L38 7L39 7L39 6L38 6L38 5L39 5L39 4L40 4L40 3L41 3L41 2L40 2L40 3L39 3L39 4L37 4L37 3L38 3L38 2L36 2L36 1L38 1L38 0L36 0L36 1L34 1L34 0L32 0L32 2L31 2L31 4L30 4L30 1L29 1L29 2L28 2L28 1L27 1L27 0L24 0L24 1L26 1L26 2L25 2L25 3L24 3L24 4L25 4L25 3L26 3L26 2L28 2L28 3L27 3L27 5L26 5L26 7L27 7L27 5L28 5L28 9L31 9L31 10L29 10L29 11L28 11L28 10L27 10L27 11L28 11L28 12L29 12L29 11L31 11L31 10L32 10L32 11L34 11L34 12L33 12L33 13L32 13L32 14L31 14L31 12L30 12L30 15L29 15L29 17L28 17L28 18L27 18L27 16L28 16L28 15L26 15L26 14L25 14L25 15L22 15L22 14L23 14L23 13L22 13L22 14L21 14L21 11L22 11L22 12L23 12L23 11L24 11L24 10L25 10L25 8L24 8L24 7L25 7L25 6L24 6L24 7L23 7L23 4L22 4L22 7L23 7L23 8L22 8L22 9L20 9L20 8L21 8L21 6L20 6L20 5L21 5L21 3L23 3L23 1L22 1L22 2L21 2L21 1L20 1L20 2L19 2L19 3L18 3L18 2L17 2L17 0ZM39 0L39 1L41 1L41 0ZM42 0L42 2L43 2L43 3L42 3L42 4L41 4L41 5L40 5L40 9L41 9L41 8L42 8L42 7L43 7L43 6L44 6L44 7L45 7L45 6L44 6L44 5L45 5L45 4L44 4L44 5L42 5L42 4L43 4L43 3L45 3L45 1L46 1L46 0L45 0L45 1L43 1L43 0ZM51 0L51 2L49 2L49 1L47 1L47 2L46 2L46 4L47 4L47 5L48 5L48 4L49 4L49 5L50 5L50 8L49 8L49 6L48 6L48 7L47 7L47 6L46 6L46 7L47 7L47 8L46 8L46 9L47 9L47 10L46 10L46 12L45 12L45 10L44 10L44 11L43 11L43 9L44 9L44 8L43 8L43 9L42 9L42 10L41 10L41 11L43 11L43 12L42 12L42 13L41 13L41 14L40 14L40 16L37 16L37 17L40 17L40 18L41 18L41 17L45 17L45 16L46 16L46 18L45 18L45 19L47 19L47 17L48 17L48 20L49 20L49 21L50 21L50 20L51 20L51 19L52 19L52 18L53 18L53 17L54 17L54 16L55 16L55 15L56 15L56 17L55 17L55 18L56 18L56 17L57 17L57 16L58 16L58 15L59 15L59 14L61 14L61 13L59 13L59 11L60 11L60 12L61 12L61 11L60 11L60 10L59 10L59 11L58 11L58 10L56 10L56 11L55 11L55 9L54 9L54 8L53 8L53 9L54 9L54 10L53 10L53 11L52 11L52 12L51 12L51 13L50 13L50 14L49 14L49 15L48 15L48 16L47 16L47 14L48 14L48 13L49 13L49 12L50 12L50 11L47 11L47 10L50 10L50 8L51 8L51 5L52 5L52 4L53 4L53 0ZM8 2L8 5L9 5L9 2ZM14 2L14 4L15 4L15 2ZM16 2L16 3L17 3L17 2ZM20 2L20 3L19 3L19 5L18 5L18 4L16 4L16 5L17 5L17 8L16 8L16 6L15 6L15 5L14 5L14 6L13 6L13 8L14 8L14 9L16 9L16 10L14 10L14 11L13 11L13 12L14 12L14 13L13 13L13 14L12 14L12 13L11 13L11 14L10 14L10 12L11 12L11 11L12 11L12 10L13 10L13 9L12 9L12 8L11 8L11 7L10 7L10 8L9 8L9 10L10 10L10 9L11 9L11 11L9 11L9 14L8 14L8 15L6 15L6 14L7 14L7 13L8 13L8 10L7 10L7 11L6 11L6 12L7 12L7 13L4 13L4 15L3 15L3 17L4 17L4 18L5 18L5 20L8 20L8 19L9 19L9 20L11 20L11 21L9 21L9 23L8 23L8 21L6 21L6 22L7 22L7 23L5 23L5 22L4 22L4 23L5 23L5 24L8 24L8 25L10 25L10 24L11 24L11 25L12 25L12 27L11 27L11 26L10 26L10 27L6 27L6 28L9 28L9 33L8 33L8 34L9 34L9 35L8 35L8 36L7 36L7 35L6 35L6 34L7 34L7 33L5 33L5 35L4 35L4 34L3 34L3 35L2 35L2 36L3 36L3 37L4 37L4 38L3 38L3 39L4 39L4 38L8 38L8 37L9 37L9 40L10 40L10 36L11 36L11 39L12 39L12 38L14 38L14 37L16 37L16 38L17 38L17 39L16 39L16 40L17 40L17 39L19 39L19 40L18 40L18 42L15 42L15 45L14 45L14 46L15 46L15 47L14 47L14 48L15 48L15 49L13 49L13 50L14 50L14 51L15 51L15 50L17 50L17 51L16 51L16 52L14 52L14 54L13 54L13 52L12 52L12 50L11 50L11 52L10 52L10 51L9 51L9 52L10 52L10 53L9 53L9 54L10 54L10 53L11 53L11 54L13 54L13 55L14 55L14 54L15 54L15 53L16 53L16 52L17 52L17 53L20 53L20 54L18 54L18 55L19 55L19 58L21 58L21 57L22 57L22 56L23 56L23 58L22 58L22 59L23 59L23 58L24 58L24 57L25 57L25 55L28 55L28 52L33 52L33 53L34 53L34 55L33 55L33 58L32 58L32 57L30 57L30 59L34 59L34 58L35 58L35 59L36 59L36 60L37 60L37 58L36 58L36 57L37 57L37 56L38 56L38 55L37 55L37 56L36 56L36 54L35 54L35 53L37 53L37 54L40 54L40 55L39 55L39 57L40 57L40 55L42 55L42 56L41 56L41 58L42 58L42 57L43 57L43 59L44 59L44 58L45 58L45 60L46 60L46 58L47 58L47 60L48 60L48 59L49 59L49 60L50 60L50 59L51 59L51 60L52 60L52 59L53 59L53 58L54 58L54 57L53 57L53 58L52 58L52 55L49 55L49 56L48 56L48 57L45 57L45 56L47 56L47 55L48 55L48 54L49 54L49 53L50 53L50 54L52 54L52 52L55 52L55 51L57 51L57 50L56 50L56 49L55 49L55 50L53 50L53 49L54 49L54 47L56 47L56 48L58 48L58 46L57 46L57 45L55 45L55 44L54 44L54 41L55 41L55 42L58 42L58 40L59 40L59 41L60 41L60 40L59 40L59 39L58 39L58 38L59 38L59 37L58 37L58 34L59 34L59 33L58 33L58 32L59 32L59 31L60 31L60 30L59 30L59 29L58 29L58 28L57 28L57 30L59 30L59 31L57 31L57 33L55 33L55 34L54 34L54 33L52 33L52 31L51 31L51 32L50 32L50 31L49 31L49 32L48 32L48 31L47 31L47 30L46 30L46 28L45 28L45 29L44 29L44 27L47 27L47 28L48 28L48 30L51 30L51 29L52 29L52 28L54 28L54 26L56 26L56 25L57 25L57 24L55 24L55 25L54 25L54 26L53 26L53 25L51 25L51 24L50 24L50 25L51 25L51 27L49 27L49 25L48 25L48 27L47 27L47 24L48 24L48 23L47 23L47 24L46 24L46 25L45 25L45 24L43 24L43 25L42 25L42 26L41 26L41 28L39 28L39 27L38 27L38 24L37 24L37 25L36 25L36 26L35 26L35 24L33 24L33 23L30 23L30 24L28 24L28 25L27 25L27 23L29 23L29 22L30 22L30 20L31 20L31 19L30 19L30 18L31 18L31 17L32 17L32 15L33 15L33 14L32 14L32 15L30 15L30 17L29 17L29 19L28 19L28 20L26 20L26 19L27 19L27 18L26 18L26 17L25 17L25 16L24 16L24 17L25 17L25 18L23 18L23 21L22 21L22 20L21 20L21 21L19 21L19 20L20 20L20 19L22 19L22 17L21 17L21 15L20 15L20 14L17 14L17 13L18 13L18 12L19 12L19 13L20 13L20 11L21 11L21 10L18 10L18 11L16 11L16 10L17 10L17 9L19 9L19 8L20 8L20 6L19 6L19 5L20 5L20 3L21 3L21 2ZM32 2L32 3L33 3L33 5L35 5L35 7L34 7L34 6L33 6L33 7L34 7L34 8L35 8L35 7L36 7L36 5L35 5L35 4L36 4L36 2L35 2L35 3L34 3L34 2ZM47 3L47 4L48 4L48 3ZM49 3L49 4L50 4L50 3ZM51 3L51 4L52 4L52 3ZM10 4L10 5L11 5L11 4ZM29 5L29 8L32 8L32 5ZM41 5L41 7L42 7L42 5ZM14 6L14 8L15 8L15 6ZM18 6L18 7L19 7L19 6ZM30 6L30 7L31 7L31 6ZM37 6L37 7L38 7L38 6ZM52 6L52 7L53 7L53 6ZM23 8L23 10L22 10L22 11L23 11L23 10L24 10L24 8ZM26 8L26 9L27 9L27 8ZM47 8L47 9L49 9L49 8ZM56 8L56 9L59 9L59 8ZM60 8L60 9L61 9L61 8ZM32 9L32 10L35 10L35 9ZM51 9L51 10L52 10L52 9ZM14 11L14 12L15 12L15 13L17 13L17 12L15 12L15 11ZM35 11L35 12L34 12L34 14L35 14L35 12L36 12L36 13L38 13L38 11ZM54 11L54 12L55 12L55 13L54 13L54 14L53 14L53 13L51 13L51 14L53 14L53 16L54 16L54 14L55 14L55 13L57 13L57 14L56 14L56 15L58 15L58 14L59 14L59 13L58 13L58 11L57 11L57 12L55 12L55 11ZM25 12L25 13L26 13L26 12ZM43 12L43 13L42 13L42 14L41 14L41 16L40 16L40 17L41 17L41 16L43 16L43 15L42 15L42 14L44 14L44 15L46 15L46 14L47 14L47 13L48 13L48 12L47 12L47 13L45 13L45 12ZM44 13L44 14L45 14L45 13ZM9 14L9 16L6 16L6 17L7 17L7 18L6 18L6 19L7 19L7 18L8 18L8 17L10 17L10 18L9 18L9 19L10 19L10 18L11 18L11 19L13 19L13 20L12 20L12 22L15 22L15 21L13 21L13 20L14 20L14 18L12 18L12 17L13 17L13 16L14 16L14 17L16 17L16 18L17 18L17 17L18 17L18 18L20 18L20 17L18 17L18 16L20 16L20 15L18 15L18 16L17 16L17 17L16 17L16 15L17 15L17 14L16 14L16 15L15 15L15 16L14 16L14 14L13 14L13 16L12 16L12 17L11 17L11 16L10 16L10 14ZM11 14L11 15L12 15L12 14ZM49 15L49 16L48 16L48 17L50 17L50 18L49 18L49 20L50 20L50 18L52 18L52 15ZM33 16L33 19L34 19L34 16ZM50 16L50 17L51 17L51 16ZM59 16L59 17L58 17L58 18L57 18L57 19L58 19L58 18L60 18L60 19L59 19L59 20L60 20L60 19L61 19L61 16ZM0 18L0 21L1 21L1 20L2 20L2 19L1 19L1 18ZM36 18L36 20L37 20L37 18ZM38 18L38 21L34 21L34 22L38 22L38 21L39 21L39 22L40 22L40 21L41 21L41 20L42 20L42 19L40 19L40 21L39 21L39 18ZM17 19L17 22L18 22L18 24L17 24L17 23L11 23L11 22L10 22L10 23L11 23L11 24L16 24L16 25L17 25L17 26L16 26L16 27L15 27L15 25L13 25L13 28L11 28L11 27L10 27L10 28L11 28L11 29L10 29L10 33L9 33L9 34L10 34L10 35L9 35L9 36L10 36L10 35L11 35L11 34L13 34L13 36L14 36L14 35L15 35L15 36L16 36L16 37L17 37L17 38L19 38L19 39L20 39L20 38L21 38L21 37L22 37L22 36L20 36L20 35L21 35L21 34L20 34L20 35L19 35L19 36L16 36L16 35L18 35L18 34L19 34L19 33L21 33L21 32L22 32L22 33L24 33L24 34L25 34L25 33L24 33L24 31L25 31L25 32L26 32L26 31L25 31L25 30L28 30L28 31L27 31L27 32L28 32L28 33L31 33L31 36L30 36L30 34L29 34L29 35L28 35L28 36L27 36L27 38L26 38L26 40L25 40L25 39L24 39L24 40L23 40L23 41L25 41L25 43L23 43L23 44L20 44L20 43L21 43L21 40L22 40L22 39L23 39L23 38L24 38L24 37L23 37L23 38L22 38L22 39L21 39L21 40L20 40L20 43L19 43L19 42L18 42L18 43L16 43L16 44L18 44L18 43L19 43L19 46L20 46L20 47L19 47L19 48L17 48L17 47L18 47L18 46L17 46L17 47L16 47L16 48L17 48L17 49L18 49L18 51L17 51L17 52L19 52L19 51L20 51L20 50L21 50L21 48L20 48L20 47L23 47L23 46L25 46L25 47L24 47L24 51L21 51L21 52L23 52L23 53L25 53L25 54L24 54L24 55L23 55L23 56L24 56L24 55L25 55L25 54L27 54L27 52L28 52L28 51L31 51L31 49L32 49L32 51L34 51L34 53L35 53L35 52L36 52L36 49L37 49L37 50L38 50L38 51L39 51L39 52L37 52L37 53L39 53L39 52L41 52L41 53L40 53L40 54L41 54L41 53L42 53L42 52L43 52L43 51L44 51L44 53L43 53L43 54L44 54L44 53L45 53L45 52L46 52L46 54L45 54L45 55L47 55L47 54L48 54L48 51L44 51L44 48L45 48L45 49L46 49L46 48L48 48L48 49L47 49L47 50L48 50L48 49L49 49L49 51L50 51L50 52L51 52L51 51L50 51L50 50L51 50L51 49L52 49L52 48L53 48L53 47L54 47L54 46L55 46L55 45L54 45L54 46L53 46L53 47L51 47L51 49L49 49L49 48L50 48L50 47L49 47L49 46L50 46L50 45L51 45L51 46L52 46L52 45L53 45L53 44L52 44L52 42L53 42L53 41L54 41L54 40L53 40L53 41L51 41L51 40L50 40L50 39L51 39L51 37L52 37L52 36L54 36L54 37L53 37L53 38L54 38L54 37L55 37L55 36L56 36L56 38L55 38L55 39L56 39L56 38L57 38L57 36L56 36L56 35L57 35L57 34L58 34L58 33L57 33L57 34L56 34L56 35L54 35L54 34L53 34L53 35L51 35L51 37L50 37L50 39L49 39L49 40L50 40L50 41L49 41L49 42L48 42L48 41L47 41L47 40L48 40L48 37L49 37L49 36L50 36L50 35L49 35L49 33L50 33L50 32L49 32L49 33L47 33L47 32L46 32L46 33L45 33L45 34L46 34L46 35L47 35L47 36L45 36L45 35L43 35L43 33L42 33L42 35L43 35L43 36L42 36L42 37L41 37L41 38L40 38L40 40L41 40L41 41L39 41L39 40L38 40L38 41L36 41L36 40L35 40L35 38L33 38L33 37L32 37L32 38L31 38L31 39L30 39L30 40L29 40L29 41L27 41L27 42L26 42L26 40L27 40L27 38L29 38L29 37L28 37L28 36L30 36L30 37L31 37L31 36L32 36L32 34L33 34L33 35L34 35L34 36L35 36L35 37L36 37L36 38L37 38L37 39L39 39L39 37L40 37L40 36L39 36L39 35L38 35L38 36L39 36L39 37L37 37L37 35L36 35L36 34L38 34L38 33L39 33L39 34L40 34L40 33L41 33L41 32L42 32L42 31L40 31L40 30L41 30L41 29L42 29L42 28L43 28L43 27L44 27L44 26L45 26L45 25L44 25L44 26L42 26L42 28L41 28L41 29L40 29L40 30L39 30L39 32L37 32L37 31L38 31L38 29L39 29L39 28L37 28L37 27L35 27L35 29L33 29L33 28L34 28L34 27L33 27L33 26L34 26L34 25L32 25L32 24L31 24L31 25L29 25L29 26L28 26L28 29L27 29L27 28L26 28L26 26L27 26L27 25L25 25L25 27L24 27L24 28L23 28L23 32L22 32L22 28L21 28L21 31L19 31L19 30L20 30L20 29L18 29L18 28L19 28L19 27L18 27L18 28L17 28L17 26L18 26L18 24L19 24L19 25L20 25L20 26L21 26L21 25L22 25L22 27L23 27L23 26L24 26L24 25L22 25L22 24L23 24L23 23L24 23L24 22L25 22L25 21L26 21L26 23L27 23L27 21L26 21L26 20L25 20L25 19L24 19L24 22L23 22L23 23L22 23L22 24L21 24L21 25L20 25L20 23L21 23L21 22L22 22L22 21L21 21L21 22L20 22L20 23L19 23L19 22L18 22L18 19ZM29 19L29 20L28 20L28 22L29 22L29 20L30 20L30 19ZM31 21L31 22L32 22L32 21ZM51 21L51 22L52 22L52 21ZM6 25L6 26L7 26L7 25ZM31 25L31 28L32 28L32 25ZM29 26L29 28L30 28L30 26ZM52 26L52 27L51 27L51 28L50 28L50 29L51 29L51 28L52 28L52 27L53 27L53 26ZM14 28L14 29L13 29L13 30L11 30L11 31L12 31L12 32L14 32L14 31L15 31L15 33L14 33L14 34L15 34L15 35L16 35L16 32L17 32L17 31L18 31L18 33L19 33L19 31L18 31L18 29L17 29L17 30L16 30L16 28ZM36 28L36 30L35 30L35 31L34 31L34 30L33 30L33 32L35 32L35 33L34 33L34 34L36 34L36 33L37 33L37 32L36 32L36 30L37 30L37 28ZM2 29L2 32L3 32L3 31L4 31L4 29ZM5 29L5 32L8 32L8 29ZM14 29L14 30L15 30L15 31L16 31L16 30L15 30L15 29ZM24 29L24 30L25 30L25 29ZM29 29L29 32L32 32L32 29ZM43 29L43 30L44 30L44 29ZM53 29L53 32L56 32L56 29ZM6 30L6 31L7 31L7 30ZM30 30L30 31L31 31L31 30ZM45 30L45 31L46 31L46 30ZM54 30L54 31L55 31L55 30ZM10 33L10 34L11 34L11 33ZM26 33L26 35L25 35L25 36L26 36L26 35L27 35L27 33ZM46 33L46 34L47 34L47 33ZM51 33L51 34L52 34L52 33ZM22 34L22 35L23 35L23 34ZM3 35L3 36L4 36L4 35ZM5 35L5 37L7 37L7 36L6 36L6 35ZM35 35L35 36L36 36L36 35ZM19 36L19 38L20 38L20 36ZM43 36L43 37L42 37L42 38L41 38L41 40L42 40L42 41L41 41L41 43L42 43L42 44L41 44L41 45L40 45L40 42L39 42L39 41L38 41L38 42L39 42L39 43L38 43L38 44L39 44L39 45L40 45L40 46L39 46L39 47L38 47L38 46L37 46L37 45L35 45L35 43L36 43L36 44L37 44L37 42L36 42L36 41L35 41L35 40L34 40L34 39L32 39L32 40L34 40L34 41L35 41L35 43L33 43L33 44L31 44L31 43L29 43L29 42L30 42L30 41L31 41L31 42L32 42L32 41L31 41L31 40L30 40L30 41L29 41L29 42L28 42L28 43L27 43L27 44L25 44L25 46L26 46L26 45L28 45L28 46L27 46L27 47L25 47L25 50L26 50L26 51L24 51L24 52L25 52L25 53L26 53L26 52L27 52L27 51L28 51L28 50L29 50L29 49L30 49L30 48L31 48L31 45L32 45L32 46L33 46L33 47L32 47L32 49L33 49L33 50L34 50L34 51L35 51L35 49L36 49L36 46L37 46L37 48L38 48L38 49L39 49L39 51L40 51L40 50L41 50L41 48L43 48L43 47L44 47L44 46L45 46L45 48L46 48L46 46L47 46L47 47L48 47L48 46L49 46L49 44L51 44L51 45L52 45L52 44L51 44L51 43L49 43L49 44L48 44L48 45L47 45L47 44L46 44L46 43L45 43L45 41L44 41L44 39L45 39L45 40L47 40L47 39L46 39L46 38L47 38L47 37L48 37L48 36L47 36L47 37L45 37L45 36ZM44 37L44 38L42 38L42 40L43 40L43 39L44 39L44 38L45 38L45 37ZM0 38L0 41L1 41L1 42L0 42L0 44L1 44L1 42L3 42L3 44L4 44L4 43L7 43L7 44L5 44L5 50L4 50L4 48L3 48L3 47L4 47L4 45L1 45L1 48L0 48L0 49L1 49L1 50L2 50L2 51L0 51L0 53L4 53L4 52L5 52L5 51L7 51L7 50L6 50L6 49L7 49L7 48L8 48L8 49L9 49L9 44L8 44L8 42L4 42L4 41L2 41L2 40L1 40L1 38ZM6 39L6 40L7 40L7 39ZM57 39L57 40L58 40L58 39ZM43 41L43 42L44 42L44 41ZM50 41L50 42L51 42L51 41ZM47 42L47 43L48 43L48 42ZM56 43L56 44L57 44L57 43ZM23 44L23 45L24 45L24 44ZM43 44L43 45L42 45L42 46L41 46L41 47L43 47L43 45L44 45L44 44ZM6 45L6 46L7 46L7 45ZM15 45L15 46L16 46L16 45ZM20 45L20 46L21 46L21 45ZM45 45L45 46L46 46L46 45ZM28 46L28 48L27 48L27 49L26 49L26 50L28 50L28 48L29 48L29 47L30 47L30 46ZM34 46L34 47L33 47L33 49L34 49L34 48L35 48L35 46ZM56 46L56 47L57 47L57 46ZM6 47L6 48L7 48L7 47ZM59 47L59 48L60 48L60 47ZM2 48L2 50L3 50L3 48ZM19 48L19 50L20 50L20 48ZM22 48L22 49L23 49L23 48ZM39 48L39 49L40 49L40 48ZM42 49L42 50L43 50L43 49ZM52 50L52 51L53 51L53 50ZM3 51L3 52L4 52L4 51ZM41 51L41 52L42 52L42 51ZM6 52L6 53L7 53L7 52ZM11 52L11 53L12 53L12 52ZM57 52L57 54L58 54L58 55L57 55L57 57L59 57L59 58L60 58L60 56L59 56L59 54L60 54L60 53L59 53L59 54L58 54L58 52ZM29 53L29 56L32 56L32 53ZM53 53L53 56L56 56L56 53ZM21 54L21 55L20 55L20 56L21 56L21 55L22 55L22 54ZM30 54L30 55L31 55L31 54ZM54 54L54 55L55 55L55 54ZM10 55L10 57L9 57L9 58L10 58L10 59L11 59L11 57L13 57L13 56L12 56L12 55ZM43 56L43 57L44 57L44 56ZM49 56L49 57L48 57L48 58L49 58L49 57L51 57L51 56ZM12 58L12 60L13 60L13 58ZM57 58L57 59L58 59L58 58ZM20 59L20 60L21 60L21 59ZM39 60L39 61L40 61L40 60ZM0 0L0 7L7 7L7 0ZM1 1L1 6L6 6L6 1ZM2 2L2 5L5 5L5 2ZM54 0L54 7L61 7L61 0ZM55 1L55 6L60 6L60 1ZM56 2L56 5L59 5L59 2ZM0 54L0 61L7 61L7 54ZM1 55L1 60L6 60L6 55ZM2 56L2 59L5 59L5 56Z" fill="#000000"/></g></g></svg>
