<?xml version="1.0" encoding="UTF-8"?>
<svg xmlns="http://www.w3.org/2000/svg" version="1.1" width="180" height="180" viewBox="0 0 180 180"><rect x="0" y="0" width="180" height="180" fill="#ffffff"/><g transform="scale(3.158)"><g transform="translate(0,0)"><path fill-rule="evenodd" d="M11 0L11 1L10 1L10 2L8 2L8 3L10 3L10 2L11 2L11 3L12 3L12 4L10 4L10 9L9 9L9 6L8 6L8 8L4 8L4 9L3 9L3 8L0 8L0 9L2 9L2 10L3 10L3 11L1 11L1 13L0 13L0 14L2 14L2 15L1 15L1 16L0 16L0 18L1 18L1 17L2 17L2 18L4 18L4 19L2 19L2 20L1 20L1 19L0 19L0 20L1 20L1 21L0 21L0 23L1 23L1 24L2 24L2 27L3 27L3 28L2 28L2 29L3 29L3 32L5 32L5 33L7 33L7 32L8 32L8 33L9 33L9 34L6 34L6 35L4 35L4 34L3 34L3 37L2 37L2 35L1 35L1 37L2 37L2 38L1 38L1 39L2 39L2 38L3 38L3 39L4 39L4 40L3 40L3 41L2 41L2 40L1 40L1 41L0 41L0 42L1 42L1 43L10 43L10 47L9 47L9 49L8 49L8 53L10 53L10 52L11 52L11 53L12 53L12 54L13 54L13 55L11 55L11 54L8 54L8 57L10 57L10 56L11 56L11 57L16 57L16 55L17 55L17 54L16 54L16 53L17 53L17 52L18 52L18 55L19 55L19 52L20 52L20 54L22 54L22 55L20 55L20 56L22 56L22 57L23 57L23 56L24 56L24 55L25 55L25 56L26 56L26 57L27 57L27 55L29 55L29 56L28 56L28 57L29 57L29 56L30 56L30 55L31 55L31 56L32 56L32 57L33 57L33 56L34 56L34 57L35 57L35 56L34 56L34 53L33 53L33 52L34 52L34 51L33 51L33 50L32 50L32 51L31 51L31 49L33 49L33 46L34 46L34 45L35 45L35 44L34 44L34 43L33 43L33 42L34 42L34 41L35 41L35 42L37 42L37 43L36 43L36 45L37 45L37 44L38 44L38 45L39 45L39 46L38 46L38 47L36 47L36 46L35 46L35 47L34 47L34 49L35 49L35 50L36 50L36 51L35 51L35 54L36 54L36 57L37 57L37 54L38 54L38 53L39 53L39 54L40 54L40 57L41 57L41 56L42 56L42 57L43 57L43 56L42 56L42 55L41 55L41 53L42 53L42 51L41 51L41 50L42 50L42 49L41 49L41 48L43 48L43 52L44 52L44 53L43 53L43 54L44 54L44 57L45 57L45 56L46 56L46 57L47 57L47 56L48 56L48 57L49 57L49 56L50 56L50 55L51 55L51 56L52 56L52 57L54 57L54 56L52 56L52 55L55 55L55 57L57 57L57 56L56 56L56 55L57 55L57 54L56 54L56 52L57 52L57 48L56 48L56 47L57 47L57 46L56 46L56 45L57 45L57 44L55 44L55 45L54 45L54 46L53 46L53 47L52 47L52 48L51 48L51 46L50 46L50 45L51 45L51 44L52 44L52 43L53 43L53 44L54 44L54 43L53 43L53 42L55 42L55 43L57 43L57 40L56 40L56 38L57 38L57 36L55 36L55 37L56 37L56 38L55 38L55 40L56 40L56 42L55 42L55 41L53 41L53 42L52 42L52 41L49 41L49 40L51 40L51 37L50 37L50 36L52 36L52 32L51 32L51 31L53 31L53 30L56 30L56 31L55 31L55 32L57 32L57 30L56 30L56 29L54 29L54 27L55 27L55 28L56 28L56 27L57 27L57 25L56 25L56 26L54 26L54 27L53 27L53 26L50 26L50 25L49 25L49 26L48 26L48 25L47 25L47 28L46 28L46 27L44 27L44 26L43 26L43 28L42 28L42 25L41 25L41 24L42 24L42 23L40 23L40 25L41 25L41 26L40 26L40 28L39 28L39 27L38 27L38 25L37 25L37 24L39 24L39 23L38 23L38 21L39 21L39 22L41 22L41 21L42 21L42 20L41 20L41 18L42 18L42 19L43 19L43 20L44 20L44 21L43 21L43 22L44 22L44 25L45 25L45 26L46 26L46 25L45 25L45 24L46 24L46 23L47 23L47 24L48 24L48 23L49 23L49 24L50 24L50 23L51 23L51 24L52 24L52 25L54 25L54 24L53 24L53 23L55 23L55 24L57 24L57 21L53 21L53 20L54 20L54 19L55 19L55 20L57 20L57 17L55 17L55 18L54 18L54 16L53 16L53 15L50 15L50 16L49 16L49 17L50 17L50 16L51 16L51 17L53 17L53 18L54 18L54 19L49 19L49 18L48 18L48 15L49 15L49 14L50 14L50 13L51 13L51 14L52 14L52 13L53 13L53 14L54 14L54 15L55 15L55 16L57 16L57 12L56 12L56 11L57 11L57 9L55 9L55 8L54 8L54 9L53 9L53 10L52 10L52 9L51 9L51 8L49 8L49 10L48 10L48 9L47 9L47 10L48 10L48 11L47 11L47 12L46 12L46 9L45 9L45 8L46 8L46 7L47 7L47 8L48 8L48 7L49 7L49 6L48 6L48 7L47 7L47 5L48 5L48 0L46 0L46 1L45 1L45 2L46 2L46 3L45 3L45 4L44 4L44 3L43 3L43 2L44 2L44 0L42 0L42 1L41 1L41 0L40 0L40 1L39 1L39 0L38 0L38 1L37 1L37 0L36 0L36 1L35 1L35 0L34 0L34 1L33 1L33 0L30 0L30 3L31 3L31 1L33 1L33 2L32 2L32 3L34 3L34 2L36 2L36 1L37 1L37 2L39 2L39 3L37 3L37 4L38 4L38 5L37 5L37 6L36 6L36 7L35 7L35 5L36 5L36 4L34 4L34 7L33 7L33 6L32 6L32 5L33 5L33 4L32 4L32 5L31 5L31 4L28 4L28 3L27 3L27 2L28 2L28 0L26 0L26 3L25 3L25 4L26 4L26 5L24 5L24 3L23 3L23 2L25 2L25 0L24 0L24 1L23 1L23 2L22 2L22 1L21 1L21 0L20 0L20 1L17 1L17 0L15 0L15 1L16 1L16 2L14 2L14 1L13 1L13 0ZM12 1L12 2L13 2L13 3L14 3L14 4L13 4L13 7L12 7L12 6L11 6L11 7L12 7L12 8L13 8L13 9L10 9L10 10L11 10L11 11L12 11L12 12L10 12L10 11L9 11L9 9L8 9L8 12L7 12L7 11L3 11L3 12L2 12L2 14L3 14L3 15L4 15L4 18L5 18L5 19L4 19L4 22L5 22L5 23L6 23L6 24L7 24L7 23L6 23L6 22L8 22L8 24L9 24L9 25L8 25L8 26L9 26L9 27L10 27L10 29L12 29L12 30L9 30L9 32L10 32L10 31L11 31L11 32L12 32L12 31L14 31L14 30L15 30L15 31L16 31L16 32L17 32L17 33L15 33L15 34L14 34L14 35L13 35L13 36L12 36L12 37L11 37L11 38L12 38L12 37L13 37L13 39L14 39L14 40L11 40L11 39L8 39L8 38L10 38L10 36L11 36L11 35L12 35L12 34L13 34L13 33L14 33L14 32L13 32L13 33L12 33L12 34L11 34L11 35L10 35L10 34L9 34L9 35L8 35L8 36L7 36L7 35L6 35L6 36L5 36L5 37L4 37L4 38L7 38L7 39L6 39L6 40L10 40L10 41L12 41L12 43L14 43L14 44L16 44L16 46L17 46L17 47L16 47L16 48L15 48L15 47L14 47L14 48L13 48L13 46L14 46L14 45L11 45L11 47L10 47L10 49L11 49L11 50L9 50L9 51L11 51L11 52L12 52L12 53L13 53L13 54L14 54L14 53L13 53L13 52L15 52L15 51L16 51L16 52L17 52L17 51L18 51L18 52L19 52L19 51L20 51L20 52L21 52L21 53L22 53L22 52L23 52L23 51L22 51L22 50L21 50L21 49L22 49L22 48L23 48L23 50L25 50L25 51L26 51L26 50L25 50L25 49L26 49L26 48L27 48L27 47L29 47L29 48L30 48L30 44L31 44L31 45L32 45L32 46L33 46L33 45L34 45L34 44L33 44L33 45L32 45L32 44L31 44L31 43L32 43L32 42L33 42L33 41L34 41L34 40L35 40L35 41L36 41L36 38L37 38L37 37L34 37L34 36L36 36L36 34L37 34L37 35L38 35L38 36L39 36L39 35L40 35L40 34L41 34L41 35L42 35L42 36L43 36L43 37L38 37L38 44L39 44L39 43L40 43L40 42L41 42L41 45L40 45L40 46L39 46L39 47L38 47L38 48L37 48L37 49L36 49L36 48L35 48L35 49L36 49L36 50L37 50L37 52L39 52L39 51L40 51L40 50L41 50L41 49L40 49L40 48L39 48L39 47L41 47L41 46L42 46L42 47L43 47L43 45L42 45L42 44L43 44L43 43L44 43L44 42L45 42L45 41L44 41L44 40L43 40L43 39L44 39L44 38L45 38L45 40L46 40L46 39L47 39L47 41L46 41L46 44L45 44L45 45L44 45L44 46L45 46L45 48L46 48L46 49L45 49L45 50L44 50L44 51L46 51L46 52L47 52L47 53L44 53L44 54L46 54L46 56L47 56L47 55L48 55L48 56L49 56L49 55L50 55L50 54L51 54L51 55L52 55L52 53L50 53L50 54L49 54L49 55L48 55L48 52L47 52L47 51L48 51L48 50L47 50L47 49L48 49L48 48L49 48L49 47L50 47L50 46L49 46L49 45L50 45L50 44L49 44L49 43L50 43L50 42L49 42L49 41L48 41L48 40L49 40L49 39L50 39L50 38L49 38L49 37L48 37L48 36L49 36L49 35L50 35L50 34L51 34L51 33L50 33L50 32L49 32L49 31L48 31L48 29L46 29L46 28L45 28L45 29L44 29L44 28L43 28L43 29L42 29L42 28L41 28L41 29L39 29L39 28L37 28L37 29L36 29L36 22L35 22L35 19L36 19L36 18L37 18L37 19L38 19L38 20L37 20L37 21L38 21L38 20L39 20L39 19L40 19L40 18L41 18L41 17L42 17L42 18L43 18L43 19L44 19L44 18L46 18L46 20L45 20L45 21L44 21L44 22L45 22L45 23L46 23L46 22L47 22L47 23L48 23L48 22L49 22L49 23L50 23L50 22L51 22L51 23L52 23L52 22L53 22L53 21L52 21L52 20L49 20L49 19L48 19L48 18L47 18L47 17L46 17L46 16L47 16L47 15L48 15L48 14L49 14L49 13L50 13L50 12L51 12L51 13L52 13L52 12L53 12L53 13L54 13L54 14L55 14L55 15L56 15L56 14L55 14L55 13L56 13L56 12L55 12L55 11L52 11L52 10L51 10L51 9L50 9L50 12L49 12L49 11L48 11L48 12L47 12L47 13L46 13L46 12L45 12L45 13L44 13L44 14L43 14L43 13L42 13L42 12L43 12L43 11L44 11L44 10L43 10L43 9L44 9L44 6L45 6L45 7L46 7L46 6L45 6L45 5L44 5L44 4L43 4L43 3L42 3L42 4L41 4L41 1L40 1L40 3L39 3L39 4L41 4L41 5L39 5L39 7L38 7L38 6L37 6L37 7L36 7L36 8L33 8L33 9L32 9L32 8L31 8L31 9L30 9L30 12L29 12L29 13L30 13L30 14L28 14L28 15L29 15L29 17L28 17L28 16L27 16L27 15L26 15L26 14L27 14L27 11L28 11L28 10L29 10L29 9L28 9L28 10L27 10L27 11L24 11L24 10L25 10L25 9L26 9L26 6L25 6L25 8L24 8L24 6L23 6L23 3L22 3L22 2L21 2L21 1L20 1L20 2L19 2L19 3L17 3L17 2L16 2L16 5L17 5L17 4L18 4L18 6L17 6L17 7L18 7L18 8L16 8L16 6L15 6L15 3L14 3L14 2L13 2L13 1ZM46 1L46 2L47 2L47 1ZM20 2L20 3L21 3L21 4L20 4L20 5L21 5L21 6L20 6L20 7L19 7L19 6L18 6L18 7L19 7L19 8L18 8L18 9L17 9L17 10L16 10L16 11L15 11L15 8L14 8L14 7L15 7L15 6L14 6L14 7L13 7L13 8L14 8L14 9L13 9L13 10L14 10L14 11L15 11L15 12L14 12L14 13L15 13L15 14L13 14L13 12L12 12L12 13L11 13L11 14L10 14L10 12L8 12L8 13L7 13L7 12L6 12L6 13L5 13L5 12L3 12L3 14L4 14L4 13L5 13L5 15L8 15L8 16L6 16L6 17L5 17L5 18L6 18L6 19L7 19L7 20L5 20L5 22L6 22L6 21L8 21L8 22L10 22L10 23L9 23L9 24L11 24L11 25L12 25L12 26L10 26L10 25L9 25L9 26L10 26L10 27L12 27L12 29L14 29L14 27L17 27L17 26L18 26L18 27L19 27L19 28L18 28L18 29L20 29L20 27L21 27L21 30L20 30L20 31L19 31L19 30L18 30L18 31L17 31L17 30L16 30L16 28L15 28L15 30L16 30L16 31L17 31L17 32L18 32L18 33L17 33L17 34L16 34L16 35L14 35L14 36L13 36L13 37L14 37L14 36L16 36L16 38L17 38L17 39L16 39L16 40L17 40L17 42L16 42L16 43L17 43L17 46L18 46L18 47L17 47L17 48L18 48L18 49L17 49L17 50L16 50L16 49L15 49L15 50L16 50L16 51L17 51L17 50L18 50L18 51L19 51L19 50L20 50L20 51L21 51L21 52L22 52L22 51L21 51L21 50L20 50L20 49L19 49L19 48L20 48L20 47L21 47L21 48L22 48L22 47L23 47L23 48L24 48L24 47L25 47L25 48L26 48L26 45L25 45L25 46L24 46L24 45L23 45L23 44L24 44L24 43L25 43L25 44L26 44L26 43L25 43L25 42L24 42L24 41L23 41L23 40L22 40L22 39L23 39L23 36L22 36L22 35L24 35L24 38L26 38L26 39L27 39L27 42L28 42L28 43L29 43L29 44L28 44L28 45L27 45L27 46L28 46L28 45L29 45L29 44L30 44L30 43L31 43L31 42L32 42L32 41L33 41L33 40L34 40L34 37L33 37L33 36L34 36L34 35L33 35L33 33L34 33L34 31L33 31L33 30L34 30L34 29L35 29L35 30L36 30L36 31L35 31L35 32L36 32L36 33L35 33L35 34L36 34L36 33L37 33L37 34L38 34L38 33L39 33L39 34L40 34L40 33L41 33L41 34L42 34L42 35L43 35L43 36L44 36L44 37L43 37L43 38L44 38L44 37L45 37L45 34L42 34L42 33L41 33L41 32L44 32L44 33L45 33L45 32L47 32L47 31L45 31L45 30L46 30L46 29L45 29L45 30L43 30L43 31L42 31L42 30L40 30L40 31L39 31L39 32L38 32L38 31L37 31L37 30L38 30L38 29L37 29L37 30L36 30L36 29L35 29L35 27L33 27L33 26L34 26L34 25L33 25L33 24L35 24L35 23L34 23L34 21L33 21L33 20L34 20L34 19L35 19L35 18L36 18L36 17L37 17L37 18L38 18L38 17L39 17L39 18L40 18L40 17L41 17L41 16L42 16L42 17L43 17L43 18L44 18L44 17L45 17L45 16L46 16L46 15L45 15L45 14L46 14L46 13L45 13L45 14L44 14L44 17L43 17L43 16L42 16L42 15L41 15L41 14L42 14L42 13L41 13L41 12L42 12L42 9L43 9L43 8L42 8L42 7L43 7L43 6L44 6L44 5L43 5L43 4L42 4L42 5L41 5L41 6L40 6L40 9L39 9L39 8L38 8L38 7L37 7L37 8L36 8L36 9L35 9L35 10L34 10L34 9L33 9L33 10L32 10L32 9L31 9L31 10L32 10L32 13L31 13L31 12L30 12L30 13L31 13L31 14L32 14L32 15L31 15L31 16L30 16L30 17L32 17L32 19L29 19L29 18L28 18L28 17L25 17L25 16L26 16L26 15L25 15L25 14L26 14L26 13L25 13L25 14L24 14L24 13L23 13L23 12L24 12L24 11L23 11L23 10L24 10L24 9L23 9L23 8L22 8L22 7L23 7L23 6L22 6L22 5L21 5L21 4L22 4L22 3L21 3L21 2ZM26 3L26 4L27 4L27 3ZM46 3L46 5L47 5L47 3ZM27 5L27 8L30 8L30 5ZM21 6L21 7L20 7L20 8L19 8L19 9L20 9L20 10L18 10L18 11L20 11L20 12L18 12L18 14L17 14L17 11L16 11L16 14L15 14L15 15L16 15L16 16L15 16L15 18L14 18L14 19L18 19L18 20L17 20L17 21L16 21L16 22L17 22L17 23L16 23L16 24L15 24L15 20L14 20L14 22L13 22L13 21L11 21L11 23L12 23L12 22L13 22L13 23L14 23L14 24L13 24L13 26L14 26L14 25L16 25L16 26L17 26L17 23L18 23L18 24L19 24L19 25L18 25L18 26L19 26L19 27L20 27L20 26L21 26L21 25L22 25L22 24L23 24L23 25L24 25L24 26L22 26L22 27L24 27L24 28L22 28L22 30L21 30L21 31L20 31L20 32L19 32L19 31L18 31L18 32L19 32L19 33L20 33L20 34L17 34L17 35L16 35L16 36L17 36L17 37L18 37L18 36L17 36L17 35L20 35L20 36L21 36L21 37L20 37L20 38L21 38L21 39L20 39L20 40L19 40L19 39L18 39L18 40L19 40L19 41L20 41L20 42L18 42L18 43L20 43L20 44L21 44L21 45L19 45L19 44L18 44L18 46L19 46L19 47L18 47L18 48L19 48L19 47L20 47L20 46L21 46L21 47L22 47L22 46L23 46L23 47L24 47L24 46L23 46L23 45L22 45L22 44L23 44L23 43L24 43L24 42L23 42L23 43L22 43L22 42L21 42L21 41L22 41L22 40L21 40L21 39L22 39L22 38L21 38L21 37L22 37L22 36L21 36L21 35L22 35L22 34L21 34L21 33L22 33L22 32L23 32L23 33L24 33L24 35L25 35L25 36L27 36L27 37L26 37L26 38L27 38L27 39L28 39L28 42L29 42L29 43L30 43L30 42L31 42L31 41L32 41L32 40L31 40L31 41L30 41L30 40L29 40L29 39L28 39L28 38L32 38L32 39L33 39L33 37L32 37L32 36L28 36L28 35L25 35L25 33L26 33L26 34L29 34L29 35L30 35L30 34L31 34L31 35L32 35L32 33L30 33L30 31L29 31L29 32L27 32L27 31L26 31L26 32L25 32L25 31L24 31L24 30L26 30L26 26L27 26L27 25L28 25L28 24L27 24L27 23L32 23L32 22L33 22L33 21L32 21L32 20L29 20L29 21L30 21L30 22L27 22L27 21L28 21L28 18L27 18L27 19L26 19L26 18L25 18L25 17L24 17L24 16L25 16L25 15L24 15L24 14L23 14L23 13L22 13L22 12L23 12L23 11L22 11L22 10L21 10L21 9L22 9L22 8L21 8L21 7L22 7L22 6ZM28 6L28 7L29 7L29 6ZM31 6L31 7L32 7L32 6ZM41 6L41 7L42 7L42 6ZM41 8L41 9L40 9L40 10L39 10L39 9L38 9L38 11L37 11L37 9L36 9L36 10L35 10L35 11L37 11L37 13L36 13L36 12L34 12L34 10L33 10L33 13L32 13L32 14L34 14L34 16L33 16L33 19L34 19L34 18L35 18L35 17L36 17L36 16L35 16L35 15L36 15L36 14L37 14L37 13L38 13L38 16L37 16L37 17L38 17L38 16L39 16L39 17L40 17L40 16L39 16L39 13L40 13L40 14L41 14L41 13L40 13L40 10L41 10L41 9L42 9L42 8ZM4 9L4 10L7 10L7 9ZM20 10L20 11L21 11L21 10ZM51 11L51 12L52 12L52 11ZM38 12L38 13L39 13L39 12ZM6 13L6 14L7 14L7 13ZM8 13L8 15L9 15L9 13ZM47 13L47 14L48 14L48 13ZM11 14L11 15L10 15L10 16L9 16L9 17L6 17L6 18L9 18L9 17L11 17L11 16L12 16L12 17L13 17L13 16L14 16L14 15L13 15L13 14ZM16 14L16 15L17 15L17 16L18 16L18 17L17 17L17 18L20 18L20 19L19 19L19 20L18 20L18 23L19 23L19 20L20 20L20 22L22 22L22 23L20 23L20 24L22 24L22 23L23 23L23 24L24 24L24 23L25 23L25 24L26 24L26 25L25 25L25 26L24 26L24 27L25 27L25 26L26 26L26 25L27 25L27 24L26 24L26 23L27 23L27 22L26 22L26 21L27 21L27 20L26 20L26 19L23 19L23 18L24 18L24 17L23 17L23 16L24 16L24 15L23 15L23 14L22 14L22 15L21 15L21 16L22 16L22 17L21 17L21 18L20 18L20 17L19 17L19 16L20 16L20 15L19 15L19 14L18 14L18 15L17 15L17 14ZM18 15L18 16L19 16L19 15ZM22 15L22 16L23 16L23 15ZM2 16L2 17L3 17L3 16ZM34 16L34 17L35 17L35 16ZM12 18L12 19L9 19L9 21L10 21L10 20L13 20L13 18ZM21 18L21 19L20 19L20 20L21 20L21 21L22 21L22 20L23 20L23 19L22 19L22 18ZM55 18L55 19L56 19L56 18ZM21 19L21 20L22 20L22 19ZM47 19L47 20L46 20L46 21L47 21L47 22L48 22L48 21L47 21L47 20L48 20L48 19ZM2 20L2 21L1 21L1 22L2 22L2 23L3 23L3 22L2 22L2 21L3 21L3 20ZM25 20L25 21L24 21L24 22L25 22L25 23L26 23L26 22L25 22L25 21L26 21L26 20ZM31 21L31 22L32 22L32 21ZM49 21L49 22L50 22L50 21ZM51 21L51 22L52 22L52 21ZM3 24L3 25L5 25L5 26L7 26L7 25L5 25L5 24ZM29 24L29 25L30 25L30 26L31 26L31 29L32 29L32 30L31 30L31 32L32 32L32 30L33 30L33 29L32 29L32 26L33 26L33 25L32 25L32 24ZM19 25L19 26L20 26L20 25ZM31 25L31 26L32 26L32 25ZM3 26L3 27L4 27L4 26ZM5 27L5 30L8 30L8 27ZM27 27L27 30L30 30L30 27ZM49 27L49 30L52 30L52 27ZM6 28L6 29L7 29L7 28ZM28 28L28 29L29 29L29 28ZM50 28L50 29L51 29L51 28ZM0 29L0 30L1 30L1 31L0 31L0 32L1 32L1 33L0 33L0 34L1 34L1 33L2 33L2 30L1 30L1 29ZM23 29L23 30L22 30L22 31L21 31L21 32L22 32L22 31L23 31L23 32L24 32L24 33L25 33L25 32L24 32L24 31L23 31L23 30L24 30L24 29ZM5 31L5 32L7 32L7 31ZM26 32L26 33L27 33L27 32ZM37 32L37 33L38 33L38 32ZM39 32L39 33L40 33L40 32ZM48 32L48 33L47 33L47 34L48 34L48 35L49 35L49 34L50 34L50 33L49 33L49 32ZM29 33L29 34L30 34L30 33ZM48 33L48 34L49 34L49 33ZM53 33L53 34L54 34L54 35L53 35L53 36L54 36L54 35L55 35L55 34L54 34L54 33ZM56 33L56 35L57 35L57 33ZM20 34L20 35L21 35L21 34ZM9 35L9 36L10 36L10 35ZM6 36L6 37L7 37L7 38L8 38L8 37L7 37L7 36ZM46 36L46 37L47 37L47 36ZM27 37L27 38L28 38L28 37ZM53 37L53 38L52 38L52 39L53 39L53 38L54 38L54 37ZM40 38L40 41L39 41L39 42L40 42L40 41L41 41L41 42L42 42L42 41L43 41L43 40L42 40L42 41L41 41L41 38ZM47 38L47 39L49 39L49 38ZM24 39L24 40L25 40L25 41L26 41L26 40L25 40L25 39ZM4 40L4 41L3 41L3 42L5 42L5 40ZM14 40L14 41L15 41L15 40ZM1 41L1 42L2 42L2 41ZM6 41L6 42L9 42L9 41ZM29 41L29 42L30 42L30 41ZM47 41L47 42L48 42L48 43L49 43L49 42L48 42L48 41ZM10 42L10 43L11 43L11 42ZM20 42L20 43L21 43L21 42ZM51 42L51 43L52 43L52 42ZM0 44L0 45L1 45L1 44ZM5 44L5 45L3 45L3 46L2 46L2 47L1 47L1 46L0 46L0 48L5 48L5 47L7 47L7 48L6 48L6 49L7 49L7 48L8 48L8 46L9 46L9 44ZM46 44L46 45L45 45L45 46L46 46L46 45L47 45L47 46L48 46L48 47L49 47L49 46L48 46L48 45L49 45L49 44L48 44L48 45L47 45L47 44ZM6 45L6 46L8 46L8 45ZM3 46L3 47L5 47L5 46ZM54 46L54 47L53 47L53 49L54 49L54 50L53 50L53 51L54 51L54 52L53 52L53 53L54 53L54 54L55 54L55 55L56 55L56 54L55 54L55 51L54 51L54 50L55 50L55 49L56 49L56 48L55 48L55 47L56 47L56 46ZM31 47L31 48L32 48L32 47ZM46 47L46 48L47 48L47 47ZM38 48L38 49L37 49L37 50L38 50L38 49L39 49L39 50L40 50L40 49L39 49L39 48ZM27 49L27 52L30 52L30 49ZM49 49L49 52L52 52L52 49ZM12 50L12 51L14 51L14 50ZM28 50L28 51L29 51L29 50ZM50 50L50 51L51 51L51 50ZM25 52L25 53L24 53L24 54L25 54L25 55L27 55L27 54L25 54L25 53L26 53L26 52ZM31 52L31 53L30 53L30 54L29 54L29 55L30 55L30 54L31 54L31 55L32 55L32 54L33 54L33 53L32 53L32 52ZM31 53L31 54L32 54L32 53ZM9 55L9 56L10 56L10 55ZM22 55L22 56L23 56L23 55ZM17 56L17 57L19 57L19 56ZM38 56L38 57L39 57L39 56ZM0 0L0 7L7 7L7 0ZM1 1L1 6L6 6L6 1ZM2 2L2 5L5 5L5 2ZM50 0L50 7L57 7L57 0ZM51 1L51 6L56 6L56 1ZM52 2L52 5L55 5L55 2ZM0 50L0 57L7 57L7 50ZM1 51L1 56L6 56L6 51ZM2 52L2 55L5 55L5 52Z" fill="#000000"/></g></g></svg>
