<?xml version="1.0" encoding="UTF-8"?>
<svg xmlns="http://www.w3.org/2000/svg" version="1.1" width="170" height="170" viewBox="0 0 170 170"><rect x="0" y="0" width="170" height="170" fill="#ffffff"/><g transform="scale(2.787)"><g transform="translate(0,0)"><path fill-rule="evenodd" d="M10 0L10 2L8 2L8 3L9 3L9 4L10 4L10 2L11 2L11 1L12 1L12 2L13 2L13 3L15 3L15 6L14 6L14 5L13 5L13 6L12 6L12 7L11 7L11 5L12 5L12 3L11 3L11 5L9 5L9 6L8 6L8 8L4 8L4 11L3 11L3 10L2 10L2 9L3 9L3 8L0 8L0 9L1 9L1 10L2 10L2 11L3 11L3 12L2 12L2 13L0 13L0 15L3 15L3 17L7 17L7 16L8 16L8 15L12 15L12 16L11 16L11 17L10 17L10 16L9 16L9 17L10 17L10 18L9 18L9 19L7 19L7 18L5 18L5 20L4 20L4 18L3 18L3 19L2 19L2 20L0 20L0 22L2 22L2 20L4 20L4 21L5 21L5 22L6 22L6 23L5 23L5 24L6 24L6 25L1 25L1 24L2 24L2 23L1 23L1 24L0 24L0 25L1 25L1 26L2 26L2 28L3 28L3 29L2 29L2 30L0 30L0 31L2 31L2 32L3 32L3 34L0 34L0 35L2 35L2 36L1 36L1 37L2 37L2 36L3 36L3 37L5 37L5 38L4 38L4 40L2 40L2 42L1 42L1 41L0 41L0 42L1 42L1 45L0 45L0 47L1 47L1 49L2 49L2 51L0 51L0 53L4 53L4 52L5 52L5 51L7 51L7 50L5 50L5 49L4 49L4 47L5 47L5 48L6 48L6 49L8 49L8 51L9 51L9 50L10 50L10 54L9 54L9 53L8 53L8 52L6 52L6 53L8 53L8 57L9 57L9 58L8 58L8 61L11 61L11 60L9 60L9 58L10 58L10 59L12 59L12 61L13 61L13 60L14 60L14 61L15 61L15 60L17 60L17 61L19 61L19 58L17 58L17 59L15 59L15 60L14 60L14 59L12 59L12 58L13 58L13 57L12 57L12 56L14 56L14 58L16 58L16 57L17 57L17 56L16 56L16 55L17 55L17 54L18 54L18 55L19 55L19 56L18 56L18 57L19 57L19 56L20 56L20 58L22 58L22 59L20 59L20 60L22 60L22 61L23 61L23 60L22 60L22 59L23 59L23 56L22 56L22 57L21 57L21 56L20 56L20 55L25 55L25 58L24 58L24 59L25 59L25 58L26 58L26 60L25 60L25 61L29 61L29 60L30 60L30 59L31 59L31 60L32 60L32 61L33 61L33 60L34 60L34 61L35 61L35 60L36 60L36 61L37 61L37 60L38 60L38 61L42 61L42 60L43 60L43 59L44 59L44 61L45 61L45 60L46 60L46 59L45 59L45 58L46 58L46 57L47 57L47 58L48 58L48 61L51 61L51 60L49 60L49 58L48 58L48 57L50 57L50 58L51 58L51 59L55 59L55 60L56 60L56 61L57 61L57 60L58 60L58 59L59 59L59 61L61 61L61 60L60 60L60 59L61 59L61 58L60 58L60 57L61 57L61 56L59 56L59 58L58 58L58 57L57 57L57 56L58 56L58 55L59 55L59 54L60 54L60 55L61 55L61 54L60 54L60 53L61 53L61 52L60 52L60 51L61 51L61 48L60 48L60 49L59 49L59 50L60 50L60 51L59 51L59 52L60 52L60 53L59 53L59 54L58 54L58 53L57 53L57 52L55 52L55 51L58 51L58 50L54 50L54 49L56 49L56 47L57 47L57 48L58 48L58 47L61 47L61 44L60 44L60 46L58 46L58 45L57 45L57 46L56 46L56 45L55 45L55 44L56 44L56 43L57 43L57 44L58 44L58 43L59 43L59 42L60 42L60 43L61 43L61 41L59 41L59 42L58 42L58 41L57 41L57 42L56 42L56 41L55 41L55 40L56 40L56 39L57 39L57 40L58 40L58 39L59 39L59 40L61 40L61 38L60 38L60 37L61 37L61 36L60 36L60 35L61 35L61 32L60 32L60 31L61 31L61 28L60 28L60 27L61 27L61 26L60 26L60 25L59 25L59 26L58 26L58 25L57 25L57 24L58 24L58 23L59 23L59 24L61 24L61 20L60 20L60 19L61 19L61 16L59 16L59 18L58 18L58 17L57 17L57 16L58 16L58 15L59 15L59 14L60 14L60 15L61 15L61 13L59 13L59 14L58 14L58 13L57 13L57 12L58 12L58 11L59 11L59 12L61 12L61 9L59 9L59 8L58 8L58 9L57 9L57 10L56 10L56 9L55 9L55 8L53 8L53 6L52 6L52 8L50 8L50 7L51 7L51 5L52 5L52 4L53 4L53 0L51 0L51 2L50 2L50 4L48 4L48 1L50 1L50 0L48 0L48 1L47 1L47 0L44 0L44 1L43 1L43 0L42 0L42 1L41 1L41 2L42 2L42 3L41 3L41 4L40 4L40 0L38 0L38 3L37 3L37 4L36 4L36 3L35 3L35 0L34 0L34 3L33 3L33 2L32 2L32 1L31 1L31 0L30 0L30 1L29 1L29 0L27 0L27 1L28 1L28 4L27 4L27 6L26 6L26 3L27 3L27 2L26 2L26 1L24 1L24 0L22 0L22 1L21 1L21 0L19 0L19 1L21 1L21 2L20 2L20 3L19 3L19 2L18 2L18 0L16 0L16 1L17 1L17 2L16 2L16 3L15 3L15 2L13 2L13 1L15 1L15 0ZM36 0L36 1L37 1L37 0ZM22 1L22 2L21 2L21 5L20 5L20 4L19 4L19 3L18 3L18 2L17 2L17 3L16 3L16 4L17 4L17 5L16 5L16 6L15 6L15 7L14 7L14 6L13 6L13 7L14 7L14 8L12 8L12 9L11 9L11 8L9 8L9 9L10 9L10 10L11 10L11 14L13 14L13 13L12 13L12 12L13 12L13 11L12 11L12 10L13 10L13 9L14 9L14 8L15 8L15 9L16 9L16 10L15 10L15 11L14 11L14 12L15 12L15 11L16 11L16 13L15 13L15 14L14 14L14 15L15 15L15 14L17 14L17 15L16 15L16 16L14 16L14 18L12 18L12 17L11 17L11 18L10 18L10 19L9 19L9 20L10 20L10 21L6 21L6 20L7 20L7 19L6 19L6 20L5 20L5 21L6 21L6 22L8 22L8 23L6 23L6 24L7 24L7 25L6 25L6 26L7 26L7 27L6 27L6 28L7 28L7 27L8 27L8 28L9 28L9 27L11 27L11 28L10 28L10 29L9 29L9 32L10 32L10 33L9 33L9 35L10 35L10 33L11 33L11 34L12 34L12 33L13 33L13 34L14 34L14 33L15 33L15 32L14 32L14 33L13 33L13 32L12 32L12 31L13 31L13 30L16 30L16 32L18 32L18 29L17 29L17 27L18 27L18 26L19 26L19 29L20 29L20 30L19 30L19 31L20 31L20 32L19 32L19 34L20 34L20 36L19 36L19 35L18 35L18 34L17 34L17 33L16 33L16 34L17 34L17 35L16 35L16 36L15 36L15 35L13 35L13 36L12 36L12 35L11 35L11 36L9 36L9 37L11 37L11 38L10 38L10 41L11 41L11 38L12 38L12 39L13 39L13 38L12 38L12 37L13 37L13 36L15 36L15 37L14 37L14 40L15 40L15 41L14 41L14 42L13 42L13 45L12 45L12 46L11 46L11 44L10 44L10 43L9 43L9 42L8 42L8 41L9 41L9 40L8 40L8 38L7 38L7 37L6 37L6 38L5 38L5 39L6 39L6 40L4 40L4 41L6 41L6 42L8 42L8 43L5 43L5 42L4 42L4 44L2 44L2 45L4 45L4 44L9 44L9 46L7 46L7 45L6 45L6 46L7 46L7 47L6 47L6 48L8 48L8 49L11 49L11 50L13 50L13 51L11 51L11 53L12 53L12 54L11 54L11 55L12 55L12 54L15 54L15 55L16 55L16 54L17 54L17 53L18 53L18 52L19 52L19 53L20 53L20 54L19 54L19 55L20 55L20 54L21 54L21 53L22 53L22 52L23 52L23 51L20 51L20 50L23 50L23 49L22 49L22 48L24 48L24 47L26 47L26 48L28 48L28 49L26 49L26 50L25 50L25 49L24 49L24 50L25 50L25 51L24 51L24 54L26 54L26 55L27 55L27 56L26 56L26 58L27 58L27 57L28 57L28 59L29 59L29 57L28 57L28 55L27 55L27 54L26 54L26 52L25 52L25 51L28 51L28 52L27 52L27 53L28 53L28 52L31 52L31 51L32 51L32 52L33 52L33 53L34 53L34 54L33 54L33 55L34 55L34 56L33 56L33 57L34 57L34 58L33 58L33 59L34 59L34 60L35 60L35 59L36 59L36 58L37 58L37 59L38 59L38 60L39 60L39 57L36 57L36 56L35 56L35 55L36 55L36 54L37 54L37 55L38 55L38 56L39 56L39 54L41 54L41 53L42 53L42 55L41 55L41 57L40 57L40 58L41 58L41 57L42 57L42 59L41 59L41 60L42 60L42 59L43 59L43 58L45 58L45 57L46 57L46 56L47 56L47 57L48 57L48 56L50 56L50 55L52 55L52 54L51 54L51 53L52 53L52 52L53 52L53 51L54 51L54 50L53 50L53 49L54 49L54 48L53 48L53 47L54 47L54 46L55 46L55 47L56 47L56 46L55 46L55 45L54 45L54 44L53 44L53 42L51 42L51 41L52 41L52 38L53 38L53 37L54 37L54 36L53 36L53 35L54 35L54 34L55 34L55 35L56 35L56 34L57 34L57 35L58 35L58 36L55 36L55 37L56 37L56 38L55 38L55 39L56 39L56 38L57 38L57 39L58 39L58 38L59 38L59 39L60 39L60 38L59 38L59 37L60 37L60 36L59 36L59 35L60 35L60 34L59 34L59 31L58 31L58 30L59 30L59 27L60 27L60 26L59 26L59 27L58 27L58 26L57 26L57 25L56 25L56 24L55 24L55 23L56 23L56 22L57 22L57 23L58 23L58 22L59 22L59 23L60 23L60 22L59 22L59 21L60 21L60 20L59 20L59 19L60 19L60 18L59 18L59 19L58 19L58 18L57 18L57 17L56 17L56 18L55 18L55 17L54 17L54 16L57 16L57 15L58 15L58 14L57 14L57 13L56 13L56 14L55 14L55 13L54 13L54 12L55 12L55 11L56 11L56 10L55 10L55 9L54 9L54 10L53 10L53 8L52 8L52 10L51 10L51 9L50 9L50 8L49 8L49 9L48 9L48 8L47 8L47 7L48 7L48 5L47 5L47 7L46 7L46 6L45 6L45 7L46 7L46 8L45 8L45 9L42 9L42 8L44 8L44 5L43 5L43 7L42 7L42 4L43 4L43 3L44 3L44 4L46 4L46 3L47 3L47 2L46 2L46 1L44 1L44 2L43 2L43 3L42 3L42 4L41 4L41 5L40 5L40 6L39 6L39 7L38 7L38 6L37 6L37 5L38 5L38 4L37 4L37 5L36 5L36 4L35 4L35 3L34 3L34 4L33 4L33 3L32 3L32 2L31 2L31 1L30 1L30 2L29 2L29 3L30 3L30 2L31 2L31 3L32 3L32 4L33 4L33 5L34 5L34 4L35 4L35 5L36 5L36 6L35 6L35 7L34 7L34 6L33 6L33 7L34 7L34 8L33 8L33 9L34 9L34 10L33 10L33 11L32 11L32 10L31 10L31 9L30 9L30 10L31 10L31 11L30 11L30 12L28 12L28 10L29 10L29 9L28 9L28 6L27 6L27 7L26 7L26 6L25 6L25 5L24 5L24 3L26 3L26 2L24 2L24 3L23 3L23 1ZM45 2L45 3L46 3L46 2ZM17 3L17 4L18 4L18 3ZM51 3L51 4L52 4L52 3ZM18 5L18 7L17 7L17 6L16 6L16 7L15 7L15 8L16 8L16 7L17 7L17 10L16 10L16 11L17 11L17 13L19 13L19 14L18 14L18 16L16 16L16 18L17 18L17 17L18 17L18 19L16 19L16 20L18 20L18 21L17 21L17 22L16 22L16 21L15 21L15 22L14 22L14 19L15 19L15 18L14 18L14 19L13 19L13 20L12 20L12 18L11 18L11 21L10 21L10 22L9 22L9 23L8 23L8 24L9 24L9 25L7 25L7 26L8 26L8 27L9 27L9 26L13 26L13 27L12 27L12 28L11 28L11 30L10 30L10 32L11 32L11 33L12 33L12 32L11 32L11 31L12 31L12 30L13 30L13 28L14 28L14 27L15 27L15 29L16 29L16 27L17 27L17 26L16 26L16 25L15 25L15 24L16 24L16 23L17 23L17 22L18 22L18 23L20 23L20 26L23 26L23 27L20 27L20 28L22 28L22 29L21 29L21 30L20 30L20 31L21 31L21 38L20 38L20 37L19 37L19 36L18 36L18 35L17 35L17 36L18 36L18 37L17 37L17 38L16 38L16 37L15 37L15 38L16 38L16 39L15 39L15 40L16 40L16 39L17 39L17 43L15 43L15 42L16 42L16 41L15 41L15 42L14 42L14 44L15 44L15 45L16 45L16 44L17 44L17 46L15 46L15 47L14 47L14 46L12 46L12 47L11 47L11 49L12 49L12 48L13 48L13 47L14 47L14 48L16 48L16 50L18 50L18 51L16 51L16 52L18 52L18 51L19 51L19 52L20 52L20 51L19 51L19 50L18 50L18 49L19 49L19 48L20 48L20 47L21 47L21 46L22 46L22 47L24 47L24 46L23 46L23 43L25 43L25 46L26 46L26 47L28 47L28 48L30 48L30 51L31 51L31 50L32 50L32 49L33 49L33 52L34 52L34 53L35 53L35 54L36 54L36 53L37 53L37 54L38 54L38 53L37 53L37 52L39 52L39 51L37 51L37 50L38 50L38 49L37 49L37 48L40 48L40 49L39 49L39 50L41 50L41 48L42 48L42 49L43 49L43 50L42 50L42 51L40 51L40 53L41 53L41 52L44 52L44 53L45 53L45 54L44 54L44 56L43 56L43 55L42 55L42 56L43 56L43 57L45 57L45 56L46 56L46 53L47 53L47 54L48 54L48 55L47 55L47 56L48 56L48 55L49 55L49 54L50 54L50 53L49 53L49 52L51 52L51 51L50 51L50 49L51 49L51 50L52 50L52 51L53 51L53 50L52 50L52 49L53 49L53 48L52 48L52 49L51 49L51 48L49 48L49 47L48 47L48 48L47 48L47 49L49 49L49 51L48 51L48 53L47 53L47 52L46 52L46 51L45 51L45 50L44 50L44 49L46 49L46 45L47 45L47 46L49 46L49 43L46 43L46 44L45 44L45 42L46 42L46 41L47 41L47 42L49 42L49 41L51 41L51 40L48 40L48 39L50 39L50 37L51 37L51 38L52 38L52 37L53 37L53 36L52 36L52 37L51 37L51 36L50 36L50 33L49 33L49 32L50 32L50 31L49 31L49 30L48 30L48 29L50 29L50 28L52 28L52 31L51 31L51 32L52 32L52 33L51 33L51 34L52 34L52 35L53 35L53 34L54 34L54 33L57 33L57 32L58 32L58 31L57 31L57 30L58 30L58 29L57 29L57 28L58 28L58 27L57 27L57 26L56 26L56 25L55 25L55 24L54 24L54 22L51 22L51 23L50 23L50 24L54 24L54 25L53 25L53 26L54 26L54 25L55 25L55 26L56 26L56 28L54 28L54 27L50 27L50 26L49 26L49 22L50 22L50 21L49 21L49 19L50 19L50 20L52 20L52 19L53 19L53 21L55 21L55 22L56 22L56 21L57 21L57 22L58 22L58 21L57 21L57 18L56 18L56 19L54 19L54 18L52 18L52 17L51 17L51 16L52 16L52 15L53 15L53 16L54 16L54 15L53 15L53 14L54 14L54 13L53 13L53 12L54 12L54 11L53 11L53 10L52 10L52 11L51 11L51 10L50 10L50 11L49 11L49 10L48 10L48 9L47 9L47 8L46 8L46 9L45 9L45 10L44 10L44 11L43 11L43 12L42 12L42 11L41 11L41 10L39 10L39 11L37 11L37 10L36 10L36 9L37 9L37 8L38 8L38 9L39 9L39 8L40 8L40 9L41 9L41 6L40 6L40 7L39 7L39 8L38 8L38 7L37 7L37 6L36 6L36 7L35 7L35 8L34 8L34 9L35 9L35 10L36 10L36 11L35 11L35 12L34 12L34 11L33 11L33 12L32 12L32 11L31 11L31 12L32 12L32 15L31 15L31 14L30 14L30 13L28 13L28 14L30 14L30 15L29 15L29 16L28 16L28 15L27 15L27 12L26 12L26 11L27 11L27 10L24 10L24 11L23 11L23 12L22 12L22 11L21 11L21 10L23 10L23 9L22 9L22 8L20 8L20 7L21 7L21 6L22 6L22 7L23 7L23 8L24 8L24 7L25 7L25 6L24 6L24 7L23 7L23 5L21 5L21 6L20 6L20 5ZM29 5L29 8L32 8L32 5ZM9 6L9 7L10 7L10 6ZM19 6L19 7L20 7L20 6ZM30 6L30 7L31 7L31 6ZM49 6L49 7L50 7L50 6ZM18 8L18 10L17 10L17 11L18 11L18 12L19 12L19 13L20 13L20 14L19 14L19 15L20 15L20 16L19 16L19 19L18 19L18 20L19 20L19 21L20 21L20 22L21 22L21 23L22 23L22 24L23 24L23 23L25 23L25 22L26 22L26 23L27 23L27 24L26 24L26 26L25 26L25 24L24 24L24 25L23 25L23 26L25 26L25 27L23 27L23 29L22 29L22 31L23 31L23 32L22 32L22 35L23 35L23 36L24 36L24 38L22 38L22 39L20 39L20 38L18 38L18 39L20 39L20 40L24 40L24 41L23 41L23 42L21 42L21 41L20 41L20 42L21 42L21 43L20 43L20 44L19 44L19 43L17 43L17 44L19 44L19 45L20 45L20 46L19 46L19 47L17 47L17 49L18 49L18 48L19 48L19 47L20 47L20 46L21 46L21 45L22 45L22 44L21 44L21 43L23 43L23 42L25 42L25 43L26 43L26 44L27 44L27 45L26 45L26 46L27 46L27 45L28 45L28 44L30 44L30 41L29 41L29 42L28 42L28 40L29 40L29 38L28 38L28 37L29 37L29 35L28 35L28 34L30 34L30 35L31 35L31 34L30 34L30 33L27 33L27 34L24 34L24 30L25 30L25 31L28 31L28 30L25 30L25 29L26 29L26 28L25 28L25 27L27 27L27 25L29 25L29 26L30 26L30 24L31 24L31 25L32 25L32 24L33 24L33 25L34 25L34 26L33 26L33 27L32 27L32 26L31 26L31 27L30 27L30 28L31 28L31 27L32 27L32 28L33 28L33 29L34 29L34 30L33 30L33 31L34 31L34 32L33 32L33 33L32 33L32 36L33 36L33 37L34 37L34 38L32 38L32 37L31 37L31 36L30 36L30 38L31 38L31 39L30 39L30 40L31 40L31 41L32 41L32 42L31 42L31 43L32 43L32 44L31 44L31 45L32 45L32 46L31 46L31 47L32 47L32 48L31 48L31 49L32 49L32 48L33 48L33 49L34 49L34 52L35 52L35 53L36 53L36 52L35 52L35 51L36 51L36 49L35 49L35 47L36 47L36 46L37 46L37 47L39 47L39 44L37 44L37 45L36 45L36 44L35 44L35 43L36 43L36 42L37 42L37 43L40 43L40 42L41 42L41 43L43 43L43 44L41 44L41 46L40 46L40 47L42 47L42 48L43 48L43 49L44 49L44 48L43 48L43 47L44 47L44 46L45 46L45 45L44 45L44 42L43 42L43 40L44 40L44 38L45 38L45 39L46 39L46 40L45 40L45 41L46 41L46 40L47 40L47 41L48 41L48 40L47 40L47 39L48 39L48 34L47 34L47 33L44 33L44 32L43 32L43 31L44 31L44 30L43 30L43 29L44 29L44 27L43 27L43 25L40 25L40 26L41 26L41 27L42 27L42 28L41 28L41 29L40 29L40 28L37 28L37 29L36 29L36 28L35 28L35 27L36 27L36 26L37 26L37 27L39 27L39 25L38 25L38 24L39 24L39 23L41 23L41 22L39 22L39 21L40 21L40 18L41 18L41 19L42 19L42 20L43 20L43 21L42 21L42 23L44 23L44 22L45 22L45 23L46 23L46 24L45 24L45 25L46 25L46 26L45 26L45 27L46 27L46 28L48 28L48 27L49 27L49 28L50 28L50 27L49 27L49 26L47 26L47 25L48 25L48 24L47 24L47 23L48 23L48 22L49 22L49 21L48 21L48 20L46 20L46 19L47 19L47 18L48 18L48 19L49 19L49 18L48 18L48 16L47 16L47 15L50 15L50 16L51 16L51 15L52 15L52 14L53 14L53 13L51 13L51 12L49 12L49 14L47 14L47 13L46 13L46 12L47 12L47 11L48 11L48 10L47 10L47 9L46 9L46 10L45 10L45 11L46 11L46 12L45 12L45 13L44 13L44 12L43 12L43 13L42 13L42 12L41 12L41 13L40 13L40 11L39 11L39 13L38 13L38 12L37 12L37 13L36 13L36 12L35 12L35 13L34 13L34 12L33 12L33 13L34 13L34 14L33 14L33 15L32 15L32 16L31 16L31 15L30 15L30 16L29 16L29 17L28 17L28 16L27 16L27 15L25 15L25 14L26 14L26 12L23 12L23 13L22 13L22 12L21 12L21 11L20 11L20 12L19 12L19 11L18 11L18 10L19 10L19 8ZM26 8L26 9L27 9L27 8ZM35 8L35 9L36 9L36 8ZM5 9L5 11L4 11L4 13L5 13L5 14L4 14L4 15L5 15L5 16L7 16L7 15L8 15L8 12L9 12L9 10L7 10L7 9ZM20 9L20 10L21 10L21 9ZM58 9L58 10L57 10L57 11L58 11L58 10L59 10L59 11L60 11L60 10L59 10L59 9ZM6 10L6 11L5 11L5 13L7 13L7 12L8 12L8 11L7 11L7 10ZM0 11L0 12L1 12L1 11ZM6 11L6 12L7 12L7 11ZM52 11L52 12L53 12L53 11ZM2 13L2 14L3 14L3 13ZM9 13L9 14L10 14L10 13ZM21 13L21 14L20 14L20 15L21 15L21 14L22 14L22 15L24 15L24 16L22 16L22 17L23 17L23 18L22 18L22 19L23 19L23 20L21 20L21 18L20 18L20 20L21 20L21 22L24 22L24 19L25 19L25 18L24 18L24 17L25 17L25 15L24 15L24 14L22 14L22 13ZM35 13L35 14L36 14L36 16L35 16L35 15L33 15L33 16L32 16L32 17L31 17L31 16L30 16L30 17L29 17L29 18L30 18L30 19L31 19L31 20L32 20L32 21L31 21L31 22L30 22L30 20L29 20L29 22L30 22L30 23L31 23L31 24L32 24L32 23L33 23L33 24L34 24L34 25L35 25L35 26L36 26L36 25L37 25L37 26L38 26L38 25L37 25L37 22L38 22L38 23L39 23L39 22L38 22L38 21L39 21L39 20L38 20L38 19L39 19L39 18L38 18L38 17L37 17L37 14L38 14L38 15L39 15L39 14L40 14L40 17L41 17L41 18L42 18L42 17L43 17L43 18L44 18L44 19L43 19L43 20L44 20L44 21L43 21L43 22L44 22L44 21L45 21L45 18L44 18L44 17L45 17L45 16L46 16L46 13L45 13L45 14L44 14L44 13L43 13L43 16L42 16L42 15L41 15L41 14L42 14L42 13L41 13L41 14L40 14L40 13L39 13L39 14L38 14L38 13L37 13L37 14L36 14L36 13ZM5 14L5 15L7 15L7 14ZM56 14L56 15L57 15L57 14ZM26 16L26 19L28 19L28 18L27 18L27 16ZM33 16L33 17L34 17L34 18L33 18L33 19L32 19L32 18L31 18L31 17L30 17L30 18L31 18L31 19L32 19L32 20L33 20L33 21L34 21L34 22L33 22L33 23L34 23L34 24L35 24L35 25L36 25L36 24L35 24L35 23L36 23L36 22L37 22L37 21L38 21L38 20L37 20L37 21L36 21L36 20L35 20L35 19L36 19L36 18L37 18L37 19L38 19L38 18L37 18L37 17L35 17L35 16ZM41 16L41 17L42 17L42 16ZM43 16L43 17L44 17L44 16ZM0 17L0 18L1 18L1 17ZM50 17L50 19L52 19L52 18L51 18L51 17ZM33 19L33 20L34 20L34 21L35 21L35 22L36 22L36 21L35 21L35 20L34 20L34 19ZM26 20L26 22L28 22L28 20ZM55 20L55 21L56 21L56 20ZM12 21L12 24L11 24L11 22L10 22L10 23L9 23L9 24L11 24L11 25L12 25L12 24L13 24L13 26L15 26L15 27L16 27L16 26L15 26L15 25L14 25L14 24L13 24L13 21ZM47 21L47 22L48 22L48 21ZM3 22L3 23L4 23L4 22ZM15 22L15 23L16 23L16 22ZM31 22L31 23L32 23L32 22ZM18 24L18 25L19 25L19 24ZM46 24L46 25L47 25L47 24ZM51 25L51 26L52 26L52 25ZM3 26L3 28L4 28L4 27L5 27L5 26ZM0 27L0 29L1 29L1 27ZM28 27L28 28L29 28L29 27ZM33 27L33 28L34 28L34 29L35 29L35 30L36 30L36 31L35 31L35 32L34 32L34 33L33 33L33 36L34 36L34 37L35 37L35 38L36 38L36 39L35 39L35 40L34 40L34 39L33 39L33 40L32 40L32 39L31 39L31 40L32 40L32 41L33 41L33 42L34 42L34 41L35 41L35 42L36 42L36 41L38 41L38 40L37 40L37 38L38 38L38 39L40 39L40 40L39 40L39 41L42 41L42 40L43 40L43 39L42 39L42 37L43 37L43 38L44 38L44 37L45 37L45 38L46 38L46 37L47 37L47 36L45 36L45 35L46 35L46 34L44 34L44 33L43 33L43 32L42 32L42 30L38 30L38 29L37 29L37 30L36 30L36 29L35 29L35 28L34 28L34 27ZM42 28L42 29L43 29L43 28ZM3 29L3 30L2 30L2 31L3 31L3 32L4 32L4 31L3 31L3 30L4 30L4 29ZM5 29L5 32L8 32L8 29ZM29 29L29 32L32 32L32 29ZM46 29L46 30L45 30L45 32L47 32L47 31L48 31L48 30L47 30L47 29ZM53 29L53 32L56 32L56 29ZM6 30L6 31L7 31L7 30ZM30 30L30 31L31 31L31 30ZM37 30L37 31L38 31L38 30ZM54 30L54 31L55 31L55 30ZM39 31L39 32L37 32L37 33L36 33L36 34L35 34L35 33L34 33L34 36L35 36L35 37L36 37L36 38L37 38L37 37L38 37L38 38L39 38L39 37L40 37L40 34L41 34L41 35L44 35L44 34L43 34L43 33L42 33L42 32L41 32L41 33L40 33L40 31ZM25 32L25 33L26 33L26 32ZM6 33L6 34L5 34L5 36L8 36L8 34L7 34L7 33ZM37 33L37 34L38 34L38 35L35 35L35 36L36 36L36 37L37 37L37 36L39 36L39 34L40 34L40 33L39 33L39 34L38 34L38 33ZM41 33L41 34L42 34L42 33ZM52 33L52 34L53 34L53 33ZM3 34L3 36L4 36L4 34ZM6 34L6 35L7 35L7 34ZM58 34L58 35L59 35L59 34ZM24 35L24 36L25 36L25 35ZM26 36L26 39L27 39L27 40L26 40L26 41L27 41L27 40L28 40L28 39L27 39L27 36ZM43 36L43 37L44 37L44 36ZM49 36L49 37L50 37L50 36ZM57 37L57 38L58 38L58 37ZM0 38L0 40L1 40L1 38ZM2 38L2 39L3 39L3 38ZM6 38L6 39L7 39L7 38ZM41 39L41 40L42 40L42 39ZM6 40L6 41L8 41L8 40ZM12 40L12 41L13 41L13 40ZM18 40L18 42L19 42L19 40ZM33 40L33 41L34 41L34 40ZM35 40L35 41L36 41L36 40ZM53 40L53 41L54 41L54 40ZM11 42L11 43L12 43L12 42ZM26 42L26 43L27 43L27 44L28 44L28 43L27 43L27 42ZM55 42L55 43L56 43L56 42ZM57 42L57 43L58 43L58 42ZM33 43L33 44L32 44L32 45L33 45L33 46L34 46L34 45L35 45L35 46L36 46L36 45L35 45L35 44L34 44L34 43ZM50 43L50 44L51 44L51 43ZM33 44L33 45L34 45L34 44ZM47 44L47 45L48 45L48 44ZM52 44L52 45L51 45L51 47L53 47L53 46L54 46L54 45L53 45L53 44ZM37 45L37 46L38 46L38 45ZM43 45L43 46L44 46L44 45ZM52 45L52 46L53 46L53 45ZM1 46L1 47L2 47L2 49L3 49L3 50L4 50L4 49L3 49L3 47L2 47L2 46ZM29 46L29 47L30 47L30 46ZM57 46L57 47L58 47L58 46ZM33 47L33 48L34 48L34 47ZM28 50L28 51L29 51L29 50ZM43 50L43 51L44 51L44 50ZM3 51L3 52L4 52L4 51ZM13 51L13 53L15 53L15 54L16 54L16 53L15 53L15 51ZM45 52L45 53L46 53L46 52ZM29 53L29 56L32 56L32 53ZM48 53L48 54L49 54L49 53ZM53 53L53 56L56 56L56 53ZM30 54L30 55L31 55L31 54ZM54 54L54 55L55 55L55 54ZM57 54L57 55L58 55L58 54ZM9 55L9 56L10 56L10 57L11 57L11 56L10 56L10 55ZM15 56L15 57L16 57L16 56ZM34 56L34 57L35 57L35 58L36 58L36 57L35 57L35 56ZM51 56L51 58L52 58L52 56ZM30 57L30 58L31 58L31 59L32 59L32 57ZM55 58L55 59L56 59L56 60L57 60L57 59L58 59L58 58L57 58L57 59L56 59L56 58ZM59 58L59 59L60 59L60 58ZM52 60L52 61L54 61L54 60ZM0 0L0 7L7 7L7 0ZM1 1L1 6L6 6L6 1ZM2 2L2 5L5 5L5 2ZM54 0L54 7L61 7L61 0ZM55 1L55 6L60 6L60 1ZM56 2L56 5L59 5L59 2ZM0 54L0 61L7 61L7 54ZM1 55L1 60L6 60L6 55ZM2 56L2 59L5 59L5 56Z" fill="#000000"/></g></g></svg>
