<?xml version="1.0" encoding="UTF-8"?>
<svg xmlns="http://www.w3.org/2000/svg" version="1.1" width="180" height="180" viewBox="0 0 180 180"><rect x="0" y="0" width="180" height="180" fill="#ffffff"/><g transform="scale(3.158)"><g transform="translate(0,0)"><path fill-rule="evenodd" d="M11 0L11 1L10 1L10 2L11 2L11 1L12 1L12 2L14 2L14 3L12 3L12 4L11 4L11 3L10 3L10 4L9 4L9 5L10 5L10 4L11 4L11 6L10 6L10 7L9 7L9 6L8 6L8 8L4 8L4 9L3 9L3 8L0 8L0 9L2 9L2 10L1 10L1 11L0 11L0 13L1 13L1 11L2 11L2 13L3 13L3 14L2 14L2 15L1 15L1 14L0 14L0 15L1 15L1 16L0 16L0 19L1 19L1 17L2 17L2 19L3 19L3 20L0 20L0 22L1 22L1 23L0 23L0 25L1 25L1 24L3 24L3 25L2 25L2 27L1 27L1 26L0 26L0 28L1 28L1 30L2 30L2 31L0 31L0 32L3 32L3 33L4 33L4 34L3 34L3 35L1 35L1 36L0 36L0 38L1 38L1 37L2 37L2 36L3 36L3 38L2 38L2 40L1 40L1 39L0 39L0 40L1 40L1 41L0 41L0 43L2 43L2 44L0 44L0 48L5 48L5 47L7 47L7 46L5 46L5 47L3 47L3 46L2 46L2 44L3 44L3 45L7 45L7 44L8 44L8 43L9 43L9 45L8 45L8 47L10 47L10 48L6 48L6 49L8 49L8 53L10 53L10 52L9 52L9 51L11 51L11 52L13 52L13 53L14 53L14 57L15 57L15 53L14 53L14 52L15 52L15 50L14 50L14 49L15 49L15 48L16 48L16 47L18 47L18 48L17 48L17 50L18 50L18 51L16 51L16 54L18 54L18 55L16 55L16 56L18 56L18 57L20 57L20 55L21 55L21 56L22 56L22 57L23 57L23 56L24 56L24 55L25 55L25 56L26 56L26 57L27 57L27 56L28 56L28 57L29 57L29 56L30 56L30 57L31 57L31 56L30 56L30 55L29 55L29 54L32 54L32 57L33 57L33 56L35 56L35 55L34 55L34 53L35 53L35 54L36 54L36 57L37 57L37 56L38 56L38 55L37 55L37 54L36 54L36 53L37 53L37 52L38 52L38 53L39 53L39 55L40 55L40 57L41 57L41 56L42 56L42 57L49 57L49 56L50 56L50 55L51 55L51 56L52 56L52 57L54 57L54 56L52 56L52 55L55 55L55 57L57 57L57 56L56 56L56 55L57 55L57 54L56 54L56 53L55 53L55 54L54 54L54 53L53 53L53 52L54 52L54 51L53 51L53 50L55 50L55 52L57 52L57 48L56 48L56 47L57 47L57 46L54 46L54 45L53 45L53 46L52 46L52 45L51 45L51 44L52 44L52 43L53 43L53 44L54 44L54 43L53 43L53 42L56 42L56 43L55 43L55 44L56 44L56 45L57 45L57 44L56 44L56 43L57 43L57 40L56 40L56 41L53 41L53 42L52 42L52 40L51 40L51 38L50 38L50 37L51 37L51 36L52 36L52 35L53 35L53 37L54 37L54 35L56 35L56 36L55 36L55 38L54 38L54 39L55 39L55 38L56 38L56 39L57 39L57 38L56 38L56 36L57 36L57 32L56 32L56 31L57 31L57 28L56 28L56 27L57 27L57 21L56 21L56 20L57 20L57 12L56 12L56 11L57 11L57 9L55 9L55 8L54 8L54 9L53 9L53 11L52 11L52 10L51 10L51 11L52 11L52 13L51 13L51 14L52 14L52 15L51 15L51 16L50 16L50 13L49 13L49 14L48 14L48 13L47 13L47 12L46 12L46 11L44 11L44 10L45 10L45 8L46 8L46 9L47 9L47 8L49 8L49 10L50 10L50 9L51 9L51 8L49 8L49 6L48 6L48 7L47 7L47 5L48 5L48 0L44 0L44 1L43 1L43 0L42 0L42 1L41 1L41 0L40 0L40 1L39 1L39 0L38 0L38 1L37 1L37 0L29 0L29 1L30 1L30 2L29 2L29 4L26 4L26 3L27 3L27 2L28 2L28 1L27 1L27 0L26 0L26 3L25 3L25 2L24 2L24 1L25 1L25 0L24 0L24 1L23 1L23 2L24 2L24 3L23 3L23 4L24 4L24 5L20 5L20 3L22 3L22 1L21 1L21 0L20 0L20 1L19 1L19 2L18 2L18 1L17 1L17 0L15 0L15 2L14 2L14 0L13 0L13 1L12 1L12 0ZM16 1L16 2L15 2L15 3L14 3L14 4L13 4L13 5L14 5L14 6L13 6L13 7L14 7L14 8L12 8L12 10L11 10L11 9L10 9L10 10L11 10L11 11L13 11L13 9L14 9L14 8L15 8L15 9L16 9L16 10L14 10L14 11L16 11L16 12L14 12L14 14L12 14L12 13L13 13L13 12L12 12L12 13L11 13L11 14L10 14L10 13L9 13L9 9L8 9L8 10L7 10L7 9L6 9L6 10L7 10L7 11L5 11L5 10L2 10L2 11L5 11L5 12L7 12L7 11L8 11L8 13L6 13L6 14L4 14L4 15L2 15L2 16L3 16L3 17L4 17L4 20L3 20L3 21L4 21L4 20L5 20L5 19L6 19L6 20L7 20L7 21L5 21L5 22L4 22L4 23L3 23L3 24L4 24L4 25L3 25L3 26L5 26L5 22L7 22L7 21L8 21L8 23L10 23L10 25L8 25L8 24L7 24L7 23L6 23L6 24L7 24L7 25L6 25L6 26L7 26L7 25L8 25L8 26L9 26L9 30L10 30L10 27L11 27L11 28L12 28L12 27L13 27L13 29L11 29L11 31L12 31L12 32L13 32L13 33L14 33L14 34L12 34L12 35L11 35L11 33L10 33L10 32L9 32L9 33L5 33L5 34L8 34L8 35L6 35L6 36L5 36L5 35L3 35L3 36L4 36L4 38L3 38L3 39L4 39L4 40L5 40L5 37L6 37L6 38L7 38L7 39L6 39L6 40L7 40L7 41L5 41L5 42L4 42L4 41L3 41L3 40L2 40L2 42L3 42L3 43L4 43L4 44L7 44L7 43L5 43L5 42L7 42L7 41L8 41L8 40L9 40L9 42L11 42L11 41L10 41L10 40L9 40L9 39L10 39L10 38L9 38L9 33L10 33L10 36L13 36L13 35L15 35L15 36L14 36L14 37L11 37L11 40L12 40L12 42L13 42L13 41L14 41L14 42L15 42L15 43L11 43L11 45L9 45L9 46L12 46L12 47L13 47L13 49L12 49L12 48L10 48L10 50L11 50L11 51L12 51L12 50L13 50L13 49L14 49L14 48L15 48L15 47L16 47L16 46L18 46L18 47L20 47L20 48L19 48L19 49L20 49L20 50L19 50L19 51L18 51L18 52L17 52L17 53L18 53L18 52L19 52L19 53L20 53L20 54L19 54L19 55L18 55L18 56L19 56L19 55L20 55L20 54L21 54L21 55L24 55L24 54L25 54L25 51L24 51L24 50L26 50L26 48L27 48L27 47L26 47L26 48L24 48L24 46L25 46L25 44L27 44L27 45L26 45L26 46L28 46L28 45L30 45L30 46L29 46L29 48L30 48L30 46L31 46L31 47L33 47L33 48L35 48L35 45L36 45L36 46L37 46L37 47L36 47L36 48L37 48L37 49L36 49L36 50L35 50L35 49L34 49L34 51L33 51L33 50L31 50L31 51L33 51L33 53L32 53L32 52L31 52L31 53L32 53L32 54L33 54L33 53L34 53L34 52L35 52L35 51L36 51L36 52L37 52L37 51L38 51L38 52L40 52L40 50L41 50L41 51L42 51L42 52L41 52L41 53L40 53L40 54L41 54L41 55L42 55L42 56L44 56L44 54L45 54L45 55L46 55L46 56L48 56L48 55L47 55L47 53L46 53L46 52L47 52L47 49L48 49L48 48L50 48L50 47L47 47L47 46L49 46L49 45L50 45L50 46L51 46L51 47L52 47L52 48L53 48L53 49L56 49L56 48L55 48L55 47L54 47L54 48L53 48L53 47L52 47L52 46L51 46L51 45L50 45L50 44L51 44L51 43L52 43L52 42L51 42L51 43L50 43L50 42L49 42L49 41L51 41L51 40L49 40L49 39L50 39L50 38L49 38L49 39L48 39L48 38L47 38L47 37L49 37L49 36L50 36L50 34L51 34L51 33L48 33L48 32L49 32L49 31L48 31L48 29L46 29L46 28L48 28L48 27L47 27L47 26L49 26L49 25L50 25L50 26L51 26L51 25L52 25L52 26L53 26L53 27L54 27L54 30L53 30L53 31L52 31L52 34L53 34L53 35L54 35L54 34L53 34L53 31L54 31L54 33L56 33L56 32L55 32L55 31L54 31L54 30L56 30L56 28L55 28L55 27L56 27L56 26L55 26L55 25L56 25L56 23L54 23L54 22L55 22L55 19L53 19L53 20L54 20L54 22L53 22L53 21L52 21L52 19L51 19L51 18L53 18L53 17L56 17L56 16L55 16L55 15L54 15L54 16L53 16L53 17L52 17L52 16L51 16L51 17L50 17L50 16L49 16L49 15L48 15L48 14L47 14L47 13L46 13L46 12L45 12L45 13L44 13L44 12L43 12L43 10L44 10L44 9L43 9L43 8L42 8L42 6L41 6L41 9L40 9L40 6L39 6L39 7L38 7L38 5L37 5L37 4L39 4L39 5L42 5L42 4L43 4L43 5L44 5L44 6L43 6L43 7L44 7L44 6L45 6L45 7L46 7L46 8L47 8L47 7L46 7L46 6L45 6L45 5L44 5L44 4L45 4L45 3L46 3L46 5L47 5L47 3L46 3L46 2L47 2L47 1L46 1L46 2L45 2L45 1L44 1L44 2L43 2L43 3L42 3L42 2L41 2L41 1L40 1L40 2L39 2L39 3L38 3L38 2L37 2L37 1L36 1L36 2L35 2L35 4L36 4L36 5L37 5L37 7L38 7L38 8L37 8L37 9L36 9L36 8L35 8L35 7L36 7L36 6L35 6L35 7L34 7L34 6L33 6L33 5L32 5L32 4L34 4L34 1L31 1L31 5L32 5L32 6L31 6L31 9L30 9L30 10L29 10L29 9L27 9L27 10L28 10L28 11L26 11L26 12L25 12L25 9L26 9L26 6L25 6L25 5L26 5L26 4L25 4L25 5L24 5L24 6L23 6L23 7L24 7L24 13L23 13L23 14L24 14L24 16L23 16L23 15L22 15L22 14L21 14L21 13L22 13L22 12L23 12L23 11L22 11L22 8L21 8L21 9L20 9L20 6L19 6L19 9L20 9L20 10L19 10L19 11L18 11L18 10L17 10L17 9L18 9L18 8L17 8L17 7L18 7L18 6L17 6L17 5L19 5L19 3L20 3L20 2L21 2L21 1L20 1L20 2L19 2L19 3L18 3L18 2L17 2L17 1ZM8 2L8 3L9 3L9 2ZM16 2L16 3L17 3L17 4L16 4L16 5L17 5L17 4L18 4L18 3L17 3L17 2ZM32 2L32 3L33 3L33 2ZM41 3L41 4L42 4L42 3ZM43 3L43 4L44 4L44 3ZM27 5L27 8L30 8L30 5ZM11 6L11 7L10 7L10 8L11 8L11 7L12 7L12 6ZM14 6L14 7L15 7L15 8L16 8L16 7L17 7L17 6L16 6L16 7L15 7L15 6ZM21 6L21 7L22 7L22 6ZM24 6L24 7L25 7L25 6ZM28 6L28 7L29 7L29 6ZM32 6L32 9L31 9L31 10L33 10L33 11L32 11L32 13L39 13L39 16L38 16L38 14L36 14L36 15L35 15L35 19L34 19L34 18L32 18L32 17L34 17L34 14L32 14L32 15L31 15L31 20L29 20L29 18L28 18L28 17L29 17L29 16L30 16L30 13L29 13L29 12L30 12L30 11L28 11L28 12L26 12L26 13L27 13L27 14L25 14L25 16L26 16L26 15L27 15L27 16L28 16L28 17L27 17L27 18L26 18L26 17L25 17L25 18L24 18L24 17L23 17L23 16L22 16L22 15L21 15L21 14L20 14L20 13L19 13L19 12L22 12L22 11L19 11L19 12L18 12L18 13L19 13L19 14L18 14L18 15L17 15L17 14L16 14L16 13L15 13L15 14L14 14L14 15L13 15L13 16L12 16L12 19L11 19L11 18L8 18L8 19L9 19L9 20L10 20L10 19L11 19L11 20L12 20L12 21L11 21L11 22L10 22L10 23L11 23L11 27L12 27L12 25L13 25L13 27L14 27L14 26L16 26L16 27L15 27L15 28L16 28L16 27L17 27L17 30L16 30L16 29L15 29L15 30L16 30L16 31L14 31L14 33L15 33L15 35L17 35L17 36L15 36L15 38L14 38L14 41L15 41L15 42L16 42L16 43L15 43L15 44L16 44L16 43L17 43L17 42L18 42L18 43L19 43L19 44L18 44L18 45L19 45L19 46L20 46L20 47L21 47L21 48L22 48L22 49L21 49L21 50L20 50L20 51L19 51L19 52L20 52L20 53L21 53L21 54L24 54L24 53L23 53L23 52L24 52L24 51L21 51L21 50L24 50L24 49L23 49L23 48L22 48L22 47L23 47L23 44L24 44L24 43L27 43L27 44L28 44L28 43L29 43L29 44L30 44L30 45L31 45L31 46L34 46L34 45L35 45L35 44L36 44L36 45L37 45L37 46L38 46L38 45L37 45L37 44L40 44L40 45L39 45L39 46L40 46L40 47L39 47L39 48L38 48L38 47L37 47L37 48L38 48L38 49L37 49L37 50L36 50L36 51L37 51L37 50L38 50L38 49L39 49L39 50L40 50L40 49L41 49L41 50L42 50L42 49L43 49L43 50L44 50L44 51L43 51L43 52L42 52L42 53L41 53L41 54L42 54L42 53L43 53L43 54L44 54L44 53L45 53L45 54L46 54L46 53L45 53L45 52L46 52L46 51L45 51L45 50L46 50L46 49L45 49L45 48L46 48L46 47L45 47L45 46L46 46L46 45L47 45L47 44L46 44L46 43L45 43L45 42L44 42L44 41L45 41L45 40L46 40L46 39L45 39L45 38L46 38L46 37L47 37L47 36L46 36L46 33L47 33L47 34L48 34L48 33L47 33L47 32L46 32L46 31L45 31L45 30L46 30L46 29L45 29L45 28L46 28L46 26L45 26L45 27L43 27L43 28L42 28L42 25L47 25L47 24L50 24L50 25L51 25L51 24L52 24L52 25L53 25L53 22L52 22L52 23L51 23L51 22L50 22L50 21L49 21L49 18L48 18L48 19L47 19L47 20L46 20L46 19L43 19L43 20L42 20L42 19L41 19L41 18L42 18L42 17L43 17L43 18L46 18L46 17L48 17L48 15L47 15L47 16L45 16L45 14L46 14L46 13L45 13L45 14L44 14L44 13L43 13L43 12L42 12L42 11L40 11L40 10L39 10L39 12L37 12L37 11L38 11L38 9L39 9L39 8L38 8L38 9L37 9L37 10L36 10L36 9L35 9L35 8L34 8L34 7L33 7L33 6ZM33 8L33 9L34 9L34 12L35 12L35 9L34 9L34 8ZM41 9L41 10L42 10L42 9ZM16 10L16 11L17 11L17 10ZM55 10L55 11L53 11L53 13L52 13L52 14L55 14L55 13L56 13L56 12L55 12L55 11L56 11L56 10ZM48 11L48 12L50 12L50 11ZM41 12L41 13L40 13L40 14L41 14L41 15L42 15L42 16L41 16L41 17L40 17L40 16L39 16L39 17L38 17L38 16L37 16L37 17L36 17L36 19L37 19L37 21L34 21L34 20L33 20L33 21L32 21L32 20L31 20L31 21L28 21L28 18L27 18L27 19L26 19L26 18L25 18L25 19L24 19L24 18L23 18L23 19L20 19L20 18L21 18L21 17L22 17L22 16L21 16L21 15L20 15L20 14L19 14L19 15L18 15L18 16L19 16L19 17L17 17L17 15L16 15L16 14L15 14L15 15L14 15L14 16L13 16L13 17L14 17L14 16L15 16L15 17L16 17L16 18L15 18L15 19L14 19L14 18L13 18L13 19L12 19L12 20L13 20L13 21L12 21L12 22L13 22L13 23L12 23L12 24L13 24L13 23L14 23L14 24L15 24L15 25L16 25L16 26L17 26L17 25L18 25L18 24L19 24L19 25L20 25L20 26L18 26L18 27L19 27L19 28L18 28L18 30L17 30L17 31L16 31L16 34L17 34L17 35L18 35L18 36L17 36L17 37L16 37L16 38L17 38L17 39L16 39L16 40L15 40L15 41L16 41L16 42L17 42L17 41L18 41L18 40L20 40L20 42L19 42L19 43L20 43L20 44L19 44L19 45L20 45L20 46L21 46L21 47L22 47L22 46L21 46L21 45L22 45L22 44L23 44L23 43L24 43L24 42L25 42L25 41L26 41L26 42L27 42L27 41L28 41L28 42L29 42L29 41L30 41L30 42L31 42L31 41L32 41L32 42L33 42L33 41L32 41L32 39L33 39L33 38L34 38L34 40L35 40L35 41L34 41L34 44L33 44L33 45L34 45L34 44L35 44L35 43L36 43L36 42L37 42L37 41L36 41L36 39L35 39L35 37L32 37L32 36L31 36L31 35L32 35L32 34L33 34L33 35L34 35L34 36L35 36L35 35L36 35L36 33L35 33L35 30L36 30L36 29L35 29L35 27L36 27L36 26L35 26L35 25L36 25L36 22L37 22L37 23L38 23L38 24L39 24L39 25L38 25L38 26L37 26L37 29L38 29L38 32L37 32L37 33L38 33L38 34L37 34L37 36L39 36L39 35L40 35L40 34L41 34L41 35L42 35L42 36L41 36L41 37L42 37L42 38L41 38L41 39L44 39L44 38L45 38L45 37L46 37L46 36L45 36L45 37L44 37L44 36L43 36L43 35L45 35L45 34L43 34L43 33L44 33L44 32L45 32L45 33L46 33L46 32L45 32L45 31L44 31L44 30L45 30L45 29L44 29L44 28L43 28L43 29L42 29L42 28L41 28L41 27L40 27L40 24L39 24L39 23L40 23L40 22L41 22L41 23L42 23L42 24L41 24L41 25L42 25L42 24L43 24L43 23L44 23L44 22L45 22L45 23L50 23L50 24L51 24L51 23L50 23L50 22L49 22L49 21L48 21L48 20L47 20L47 21L46 21L46 20L45 20L45 21L44 21L44 20L43 20L43 21L42 21L42 20L41 20L41 21L38 21L38 20L39 20L39 19L40 19L40 18L41 18L41 17L42 17L42 16L43 16L43 17L44 17L44 16L43 16L43 15L44 15L44 14L43 14L43 13L42 13L42 12ZM8 13L8 14L6 14L6 15L5 15L5 16L4 16L4 17L5 17L5 18L6 18L6 19L7 19L7 18L6 18L6 17L7 17L7 16L9 16L9 15L10 15L10 14L9 14L9 13ZM41 13L41 14L42 14L42 13ZM28 14L28 15L29 15L29 14ZM6 15L6 16L5 16L5 17L6 17L6 16L7 16L7 15ZM15 15L15 16L16 16L16 15ZM19 15L19 16L20 16L20 15ZM10 16L10 17L11 17L11 16ZM19 17L19 18L18 18L18 19L15 19L15 20L14 20L14 21L15 21L15 20L16 20L16 22L18 22L18 23L16 23L16 24L18 24L18 23L19 23L19 24L20 24L20 25L21 25L21 24L22 24L22 27L21 27L21 26L20 26L20 27L21 27L21 28L22 28L22 29L21 29L21 30L20 30L20 29L19 29L19 30L20 30L20 31L17 31L17 34L18 34L18 35L19 35L19 36L18 36L18 37L17 37L17 38L18 38L18 39L17 39L17 40L18 40L18 39L19 39L19 36L20 36L20 38L21 38L21 39L20 39L20 40L21 40L21 39L22 39L22 43L21 43L21 42L20 42L20 43L21 43L21 44L22 44L22 43L23 43L23 42L24 42L24 39L25 39L25 40L26 40L26 41L27 41L27 40L29 40L29 39L30 39L30 40L31 40L31 39L32 39L32 38L29 38L29 39L27 39L27 38L28 38L28 37L27 37L27 36L26 36L26 33L27 33L27 32L29 32L29 31L30 31L30 32L31 32L31 34L30 34L30 35L29 35L29 36L30 36L30 37L31 37L31 36L30 36L30 35L31 35L31 34L32 34L32 33L34 33L34 31L33 31L33 30L34 30L34 29L33 29L33 28L34 28L34 25L35 25L35 24L34 24L34 23L33 23L33 22L32 22L32 21L31 21L31 22L32 22L32 29L31 29L31 26L30 26L30 25L31 25L31 23L30 23L30 22L29 22L29 23L28 23L28 22L26 22L26 19L25 19L25 22L24 22L24 21L23 21L23 20L24 20L24 19L23 19L23 20L22 20L22 21L21 21L21 20L20 20L20 19L19 19L19 18L20 18L20 17ZM37 17L37 18L38 18L38 17ZM39 17L39 18L40 18L40 17ZM18 19L18 20L17 20L17 21L18 21L18 20L19 20L19 19ZM20 21L20 22L21 22L21 21ZM22 21L22 22L23 22L23 23L22 23L22 24L23 24L23 23L24 23L24 26L23 26L23 27L22 27L22 28L23 28L23 27L24 27L24 29L23 29L23 30L25 30L25 31L24 31L24 32L23 32L23 31L22 31L22 30L21 30L21 31L20 31L20 32L19 32L19 33L20 33L20 34L19 34L19 35L20 35L20 36L21 36L21 37L22 37L22 38L23 38L23 39L24 39L24 38L25 38L25 35L24 35L24 34L25 34L25 33L26 33L26 32L27 32L27 31L26 31L26 30L25 30L25 29L26 29L26 28L25 28L25 27L24 27L24 26L25 26L25 25L27 25L27 23L26 23L26 22L25 22L25 23L24 23L24 22L23 22L23 21ZM41 21L41 22L42 22L42 21ZM43 21L43 22L44 22L44 21ZM45 21L45 22L46 22L46 21ZM47 21L47 22L48 22L48 21ZM20 23L20 24L21 24L21 23ZM25 23L25 24L26 24L26 23ZM29 23L29 24L30 24L30 23ZM54 24L54 25L55 25L55 24ZM28 25L28 26L29 26L29 25ZM54 26L54 27L55 27L55 26ZM2 27L2 28L4 28L4 27ZM5 27L5 30L8 30L8 27ZM27 27L27 30L30 30L30 27ZM39 27L39 28L38 28L38 29L39 29L39 30L40 30L40 31L39 31L39 32L38 32L38 33L39 33L39 34L40 34L40 33L41 33L41 34L42 34L42 33L43 33L43 32L44 32L44 31L43 31L43 32L42 32L42 31L41 31L41 30L42 30L42 29L41 29L41 28L40 28L40 27ZM49 27L49 30L52 30L52 27ZM6 28L6 29L7 29L7 28ZM28 28L28 29L29 29L29 28ZM50 28L50 29L51 29L51 28ZM3 29L3 31L4 31L4 32L8 32L8 31L4 31L4 29ZM13 29L13 30L12 30L12 31L13 31L13 30L14 30L14 29ZM32 29L32 30L31 30L31 31L32 31L32 32L33 32L33 31L32 31L32 30L33 30L33 29ZM40 29L40 30L41 30L41 29ZM43 29L43 30L44 30L44 29ZM21 31L21 32L22 32L22 33L21 33L21 34L20 34L20 35L21 35L21 36L22 36L22 37L23 37L23 38L24 38L24 37L23 37L23 36L24 36L24 35L21 35L21 34L24 34L24 33L23 33L23 32L22 32L22 31ZM25 31L25 32L26 32L26 31ZM39 32L39 33L40 33L40 32ZM41 32L41 33L42 33L42 32ZM27 34L27 35L28 35L28 34ZM48 35L48 36L49 36L49 35ZM6 36L6 37L7 37L7 38L8 38L8 37L7 37L7 36ZM42 36L42 37L43 37L43 38L44 38L44 37L43 37L43 36ZM26 37L26 38L27 38L27 37ZM36 37L36 38L37 38L37 40L38 40L38 39L39 39L39 41L38 41L38 43L40 43L40 42L39 42L39 41L40 41L40 38L39 38L39 37L38 37L38 38L37 38L37 37ZM12 38L12 39L13 39L13 38ZM52 38L52 39L53 39L53 38ZM47 39L47 40L48 40L48 41L47 41L47 42L48 42L48 45L49 45L49 44L50 44L50 43L49 43L49 42L48 42L48 41L49 41L49 40L48 40L48 39ZM41 40L41 41L42 41L42 42L41 42L41 43L42 43L42 44L41 44L41 45L40 45L40 46L42 46L42 48L41 48L41 49L42 49L42 48L43 48L43 49L44 49L44 50L45 50L45 49L44 49L44 48L45 48L45 47L44 47L44 46L45 46L45 45L46 45L46 44L45 44L45 45L44 45L44 44L43 44L43 40ZM35 41L35 42L36 42L36 41ZM13 44L13 45L14 45L14 44ZM31 44L31 45L32 45L32 44ZM42 44L42 45L43 45L43 46L44 46L44 45L43 45L43 44ZM15 45L15 46L14 46L14 47L15 47L15 46L16 46L16 45ZM1 46L1 47L2 47L2 46ZM43 47L43 48L44 48L44 47ZM31 48L31 49L32 49L32 48ZM39 48L39 49L40 49L40 48ZM27 49L27 52L30 52L30 49ZM49 49L49 52L52 52L52 49ZM28 50L28 51L29 51L29 50ZM50 50L50 51L51 51L51 50ZM13 51L13 52L14 52L14 51ZM20 51L20 52L21 52L21 53L22 53L22 52L21 52L21 51ZM43 52L43 53L44 53L44 52ZM50 53L50 54L49 54L49 55L50 55L50 54L51 54L51 55L52 55L52 53ZM8 54L8 57L11 57L11 55L9 55L9 54ZM12 54L12 56L13 56L13 54ZM55 54L55 55L56 55L56 54ZM26 55L26 56L27 56L27 55ZM0 0L0 7L7 7L7 0ZM1 1L1 6L6 6L6 1ZM2 2L2 5L5 5L5 2ZM50 0L50 7L57 7L57 0ZM51 1L51 6L56 6L56 1ZM52 2L52 5L55 5L55 2ZM0 50L0 57L7 57L7 50ZM1 51L1 56L6 56L6 51ZM2 52L2 55L5 55L5 52Z" fill="#000000"/></g></g></svg>
