<?xml version="1.0" encoding="UTF-8"?>
<svg xmlns="http://www.w3.org/2000/svg" version="1.1" width="170" height="170" viewBox="0 0 170 170"><rect x="0" y="0" width="170" height="170" fill="#ffffff"/><g transform="scale(2.787)"><g transform="translate(0,0)"><path fill-rule="evenodd" d="M8 0L8 4L9 4L9 5L8 5L8 7L9 7L9 9L8 9L8 10L6 10L6 11L8 11L8 12L9 12L9 13L8 13L8 14L6 14L6 13L7 13L7 12L5 12L5 10L4 10L4 9L7 9L7 8L4 8L4 9L3 9L3 10L1 10L1 9L2 9L2 8L0 8L0 10L1 10L1 11L0 11L0 12L1 12L1 11L2 11L2 12L3 12L3 11L4 11L4 13L2 13L2 14L1 14L1 13L0 13L0 14L1 14L1 15L2 15L2 16L0 16L0 18L1 18L1 19L2 19L2 18L3 18L3 17L4 17L4 15L9 15L9 16L8 16L8 17L7 17L7 16L5 16L5 17L7 17L7 18L6 18L6 19L5 19L5 18L4 18L4 19L3 19L3 20L4 20L4 19L5 19L5 21L3 21L3 22L5 22L5 21L7 21L7 20L8 20L8 22L9 22L9 23L10 23L10 24L11 24L11 26L10 26L10 25L9 25L9 27L8 27L8 23L7 23L7 22L6 22L6 23L4 23L4 25L1 25L1 24L3 24L3 23L2 23L2 22L0 22L0 23L1 23L1 24L0 24L0 25L1 25L1 26L2 26L2 27L4 27L4 28L3 28L3 30L4 30L4 31L2 31L2 30L1 30L1 31L0 31L0 32L1 32L1 33L0 33L0 35L3 35L3 34L4 34L4 35L7 35L7 36L6 36L6 37L7 37L7 36L9 36L9 35L8 35L8 34L9 34L9 33L10 33L10 31L11 31L11 32L12 32L12 31L11 31L11 30L12 30L12 29L10 29L10 28L11 28L11 27L13 27L13 28L14 28L14 29L13 29L13 31L16 31L16 32L15 32L15 33L16 33L16 32L17 32L17 34L16 34L16 35L15 35L15 34L14 34L14 33L13 33L13 34L12 34L12 35L14 35L14 37L15 37L15 36L16 36L16 37L17 37L17 36L18 36L18 37L19 37L19 38L18 38L18 39L17 39L17 38L12 38L12 36L11 36L11 35L10 35L10 36L11 36L11 37L8 37L8 38L6 38L6 39L4 39L4 40L3 40L3 38L5 38L5 36L3 36L3 37L2 37L2 36L1 36L1 37L0 37L0 39L1 39L1 37L2 37L2 40L1 40L1 41L0 41L0 43L1 43L1 45L0 45L0 46L1 46L1 49L0 49L0 50L2 50L2 51L0 51L0 53L4 53L4 52L5 52L5 51L8 51L8 50L6 50L6 49L8 49L8 47L7 47L7 46L6 46L6 45L7 45L7 44L6 44L6 43L8 43L8 46L9 46L9 51L10 51L10 50L11 50L11 47L12 47L12 46L13 46L13 48L15 48L15 46L16 46L16 48L17 48L17 49L14 49L14 50L13 50L13 49L12 49L12 52L13 52L13 53L11 53L11 52L10 52L10 53L9 53L9 52L8 52L8 54L11 54L11 55L8 55L8 57L10 57L10 58L11 58L11 59L12 59L12 60L9 60L9 59L8 59L8 61L12 61L12 60L14 60L14 61L21 61L21 60L22 60L22 58L23 58L23 60L25 60L25 59L26 59L26 58L27 58L27 60L26 60L26 61L28 61L28 59L29 59L29 60L30 60L30 58L33 58L33 59L32 59L32 60L31 60L31 61L33 61L33 60L36 60L36 61L38 61L38 60L39 60L39 61L40 61L40 60L39 60L39 59L41 59L41 60L42 60L42 61L46 61L46 60L47 60L47 61L49 61L49 60L51 60L51 58L52 58L52 61L54 61L54 60L53 60L53 59L54 59L54 58L56 58L56 57L57 57L57 56L58 56L58 57L59 57L59 54L60 54L60 53L61 53L61 52L60 52L60 50L57 50L57 49L56 49L56 48L55 48L55 47L54 47L54 46L57 46L57 48L58 48L58 49L59 49L59 48L60 48L60 49L61 49L61 48L60 48L60 47L59 47L59 46L57 46L57 45L56 45L56 44L55 44L55 43L53 43L53 42L52 42L52 41L51 41L51 40L50 40L50 39L53 39L53 38L51 38L51 37L50 37L50 39L49 39L49 38L47 38L47 39L46 39L46 37L47 37L47 36L48 36L48 37L49 37L49 36L51 36L51 35L52 35L52 36L54 36L54 38L57 38L57 40L58 40L58 41L61 41L61 40L59 40L59 38L57 38L57 37L56 37L56 35L57 35L57 36L58 36L58 37L59 37L59 36L60 36L60 37L61 37L61 36L60 36L60 34L58 34L58 33L61 33L61 32L60 32L60 31L59 31L59 30L57 30L57 28L58 28L58 29L61 29L61 27L60 27L60 26L61 26L61 24L59 24L59 23L60 23L60 22L61 22L61 20L60 20L60 18L58 18L58 17L59 17L59 14L60 14L60 13L59 13L59 14L57 14L57 12L61 12L61 11L60 11L60 10L59 10L59 9L61 9L61 8L57 8L57 9L56 9L56 8L55 8L55 9L54 9L54 10L51 10L51 9L53 9L53 6L52 6L52 8L48 8L48 7L49 7L49 6L50 6L50 7L51 7L51 5L52 5L52 4L53 4L53 0L51 0L51 2L50 2L50 0L48 0L48 3L47 3L47 1L46 1L46 0L42 0L42 1L43 1L43 2L44 2L44 3L45 3L45 4L43 4L43 3L42 3L42 2L41 2L41 3L39 3L39 4L38 4L38 2L35 2L35 1L34 1L34 0L33 0L33 1L32 1L32 0L30 0L30 2L28 2L28 0L27 0L27 1L25 1L25 2L24 2L24 7L23 7L23 6L22 6L22 5L23 5L23 3L22 3L22 2L23 2L23 1L24 1L24 0L23 0L23 1L21 1L21 0L20 0L20 1L21 1L21 3L20 3L20 4L19 4L19 6L18 6L18 5L17 5L17 6L16 6L16 7L15 7L15 5L13 5L13 4L14 4L14 3L15 3L15 4L16 4L16 3L17 3L17 4L18 4L18 2L19 2L19 1L18 1L18 2L16 2L16 1L15 1L15 0L14 0L14 1L13 1L13 4L11 4L11 3L12 3L12 1L11 1L11 3L10 3L10 2L9 2L9 0ZM36 0L36 1L40 1L40 0ZM33 1L33 2L30 2L30 3L31 3L31 4L33 4L33 7L34 7L34 5L35 5L35 7L36 7L36 4L37 4L37 3L36 3L36 4L33 4L33 2L34 2L34 1ZM25 2L25 5L27 5L27 7L26 7L26 6L25 6L25 7L24 7L24 8L22 8L22 6L21 6L21 7L20 7L20 6L19 6L19 8L18 8L18 9L16 9L16 8L15 8L15 7L14 7L14 6L13 6L13 7L12 7L12 6L11 6L11 4L10 4L10 3L9 3L9 4L10 4L10 6L9 6L9 7L10 7L10 8L11 8L11 7L12 7L12 8L15 8L15 9L14 9L14 10L13 10L13 11L12 11L12 10L11 10L11 12L10 12L10 10L8 10L8 11L9 11L9 12L10 12L10 14L11 14L11 15L12 15L12 16L10 16L10 19L8 19L8 20L10 20L10 23L11 23L11 24L12 24L12 26L13 26L13 27L15 27L15 26L16 26L16 28L15 28L15 29L14 29L14 30L15 30L15 29L16 29L16 31L17 31L17 32L20 32L20 33L21 33L21 34L20 34L20 37L21 37L21 38L22 38L22 39L21 39L21 40L22 40L22 39L23 39L23 38L24 38L24 37L25 37L25 39L26 39L26 40L27 40L27 41L29 41L29 40L28 40L28 39L30 39L30 40L33 40L33 42L34 42L34 43L35 43L35 42L36 42L36 43L37 43L37 44L38 44L38 41L37 41L37 42L36 42L36 40L33 40L33 39L32 39L32 38L31 38L31 37L32 37L32 36L33 36L33 38L34 38L34 39L35 39L35 38L37 38L37 40L39 40L39 39L38 39L38 38L37 38L37 37L36 37L36 36L33 36L33 35L35 35L35 32L34 32L34 31L35 31L35 30L36 30L36 31L37 31L37 32L38 32L38 33L39 33L39 34L36 34L36 35L37 35L37 36L38 36L38 37L39 37L39 38L40 38L40 39L41 39L41 40L40 40L40 41L39 41L39 42L41 42L41 40L42 40L42 41L44 41L44 42L43 42L43 43L42 43L42 44L41 44L41 43L40 43L40 45L39 45L39 46L37 46L37 45L36 45L36 44L33 44L33 43L32 43L32 42L31 42L31 41L30 41L30 44L27 44L27 42L26 42L26 41L25 41L25 42L24 42L24 44L21 44L21 42L22 42L22 43L23 43L23 42L22 42L22 41L21 41L21 42L20 42L20 43L19 43L19 42L18 42L18 41L20 41L20 40L18 40L18 41L17 41L17 40L15 40L15 43L14 43L14 45L13 45L13 46L14 46L14 45L16 45L16 46L17 46L17 45L16 45L16 42L18 42L18 44L20 44L20 45L21 45L21 46L23 46L23 47L25 47L25 46L23 46L23 45L26 45L26 44L27 44L27 46L26 46L26 48L29 48L29 49L28 49L28 52L29 52L29 50L30 50L30 52L33 52L33 54L34 54L34 55L35 55L35 54L37 54L37 55L38 55L38 56L39 56L39 58L41 58L41 59L42 59L42 60L44 60L44 59L45 59L45 58L46 58L46 59L50 59L50 58L51 58L51 57L52 57L52 56L51 56L51 57L50 57L50 56L49 56L49 58L47 58L47 57L48 57L48 55L50 55L50 54L48 54L48 51L47 51L47 49L46 49L46 51L45 51L45 50L43 50L43 51L42 51L42 52L44 52L44 51L45 51L45 53L46 53L46 55L47 55L47 56L45 56L45 58L44 58L44 56L42 56L42 53L41 53L41 50L42 50L42 48L44 48L44 47L42 47L42 48L41 48L41 46L42 46L42 44L43 44L43 43L45 43L45 42L46 42L46 43L47 43L47 42L48 42L48 43L49 43L49 44L50 44L50 45L47 45L47 44L45 44L45 47L47 47L47 48L48 48L48 46L49 46L49 49L50 49L50 48L51 48L51 50L54 50L54 51L56 51L56 52L57 52L57 54L59 54L59 53L60 53L60 52L59 52L59 53L58 53L58 51L57 51L57 50L54 50L54 48L52 48L52 47L50 47L50 45L52 45L52 46L54 46L54 44L53 44L53 43L51 43L51 44L50 44L50 40L49 40L49 42L48 42L48 39L47 39L47 40L45 40L45 41L44 41L44 40L42 40L42 36L43 36L43 35L45 35L45 36L47 36L47 34L48 34L48 35L49 35L49 33L47 33L47 32L46 32L46 31L49 31L49 32L51 32L51 34L54 34L54 35L55 35L55 34L56 34L56 33L55 33L55 34L54 34L54 33L52 33L52 32L51 32L51 30L50 30L50 29L49 29L49 30L47 30L47 29L48 29L48 27L49 27L49 28L51 28L51 29L52 29L52 28L53 28L53 27L52 27L52 26L54 26L54 24L56 24L56 23L57 23L57 22L60 22L60 20L59 20L59 21L58 21L58 19L57 19L57 18L55 18L55 20L56 20L56 19L57 19L57 22L55 22L55 23L54 23L54 22L53 22L53 21L54 21L54 20L53 20L53 21L52 21L52 22L51 22L51 23L52 23L52 22L53 22L53 23L54 23L54 24L53 24L53 25L52 25L52 26L51 26L51 27L49 27L49 26L50 26L50 25L51 25L51 24L50 24L50 25L49 25L49 26L48 26L48 24L49 24L49 23L50 23L50 18L49 18L49 17L48 17L48 16L47 16L47 17L46 17L46 16L45 16L45 17L46 17L46 20L45 20L45 21L43 21L43 25L44 25L44 27L45 27L45 28L46 28L46 29L44 29L44 30L43 30L43 31L42 31L42 32L41 32L41 30L42 30L42 29L41 29L41 28L42 28L42 27L40 27L40 26L41 26L41 23L40 23L40 25L39 25L39 27L38 27L38 26L36 26L36 24L33 24L33 22L34 22L34 23L35 23L35 22L36 22L36 23L37 23L37 22L36 22L36 20L33 20L33 19L35 19L35 16L34 16L34 18L33 18L33 17L32 17L32 15L33 15L33 14L34 14L34 15L35 15L35 14L36 14L36 15L37 15L37 14L36 14L36 12L33 12L33 10L34 10L34 11L35 11L35 10L36 10L36 11L37 11L37 12L38 12L38 13L39 13L39 15L38 15L38 16L37 16L37 17L36 17L36 19L37 19L37 20L39 20L39 21L40 21L40 22L42 22L42 20L44 20L44 19L45 19L45 18L43 18L43 19L39 19L39 18L37 18L37 17L38 17L38 16L39 16L39 17L40 17L40 18L42 18L42 16L44 16L44 15L45 15L45 14L46 14L46 15L47 15L47 14L49 14L49 16L50 16L50 17L51 17L51 18L54 18L54 16L56 16L56 15L57 15L57 14L56 14L56 12L55 12L55 11L57 11L57 10L58 10L58 11L59 11L59 10L58 10L58 9L57 9L57 10L55 10L55 11L54 11L54 12L53 12L53 11L52 11L52 12L51 12L51 10L50 10L50 9L48 9L48 8L47 8L47 7L48 7L48 5L50 5L50 4L49 4L49 3L50 3L50 2L49 2L49 3L48 3L48 4L46 4L46 5L47 5L47 7L46 7L46 6L45 6L45 7L46 7L46 8L45 8L45 10L44 10L44 8L43 8L43 7L44 7L44 6L43 6L43 5L42 5L42 4L39 4L39 5L38 5L38 6L37 6L37 7L38 7L38 8L40 8L40 10L41 10L41 9L42 9L42 8L43 8L43 11L42 11L42 12L41 12L41 11L40 11L40 13L39 13L39 12L38 12L38 9L37 9L37 10L36 10L36 8L33 8L33 9L32 9L32 10L31 10L31 9L30 9L30 10L29 10L29 9L28 9L28 5L27 5L27 4L29 4L29 3L26 3L26 2ZM21 3L21 5L22 5L22 3ZM51 3L51 4L52 4L52 3ZM29 5L29 8L32 8L32 5ZM41 5L41 6L40 6L40 7L41 7L41 6L42 6L42 7L43 7L43 6L42 6L42 5ZM10 6L10 7L11 7L11 6ZM17 6L17 7L18 7L18 6ZM30 6L30 7L31 7L31 6ZM38 6L38 7L39 7L39 6ZM25 7L25 9L22 9L22 8L20 8L20 9L18 9L18 11L20 11L20 10L21 10L21 12L22 12L22 10L23 10L23 12L24 12L24 11L26 11L26 10L27 10L27 11L29 11L29 12L28 12L28 13L27 13L27 12L25 12L25 13L20 13L20 12L18 12L18 13L19 13L19 14L18 14L18 15L17 15L17 14L16 14L16 13L17 13L17 12L16 12L16 10L15 10L15 12L13 12L13 14L12 14L12 15L14 15L14 16L16 16L16 15L17 15L17 17L13 17L13 16L12 16L12 17L11 17L11 19L12 19L12 17L13 17L13 18L14 18L14 19L16 19L16 18L17 18L17 20L16 20L16 21L17 21L17 20L18 20L18 21L19 21L19 22L21 22L21 21L22 21L22 22L23 22L23 21L24 21L24 22L25 22L25 23L26 23L26 24L27 24L27 23L28 23L28 27L27 27L27 25L24 25L24 23L22 23L22 24L18 24L18 25L17 25L17 28L16 28L16 29L17 29L17 28L18 28L18 29L19 29L19 30L26 30L26 29L28 29L28 30L27 30L27 31L25 31L25 32L24 32L24 31L23 31L23 32L22 32L22 31L21 31L21 33L23 33L23 34L21 34L21 35L22 35L22 36L21 36L21 37L22 37L22 38L23 38L23 37L24 37L24 36L25 36L25 37L27 37L27 39L28 39L28 38L29 38L29 37L27 37L27 36L25 36L25 34L26 34L26 33L27 33L27 35L28 35L28 36L30 36L30 37L31 37L31 36L30 36L30 33L31 33L31 35L33 35L33 31L34 31L34 30L33 30L33 28L36 28L36 30L37 30L37 31L38 31L38 32L39 32L39 30L41 30L41 29L40 29L40 27L39 27L39 29L37 29L37 27L36 27L36 26L35 26L35 27L34 27L34 26L33 26L33 28L30 28L30 26L32 26L32 25L33 25L33 24L31 24L31 25L30 25L30 26L29 26L29 24L30 24L30 22L32 22L32 21L33 21L33 20L31 20L31 21L30 21L30 20L29 20L29 19L30 19L30 18L32 18L32 17L30 17L30 18L29 18L29 19L28 19L28 18L27 18L27 19L28 19L28 20L29 20L29 21L27 21L27 20L25 20L25 21L24 21L24 19L22 19L22 17L20 17L20 16L18 16L18 15L19 15L19 14L21 14L21 15L22 15L22 16L23 16L23 17L24 17L24 18L25 18L25 19L26 19L26 18L25 18L25 16L26 16L26 17L27 17L27 16L30 16L30 14L32 14L32 13L33 13L33 12L31 12L31 13L30 13L30 11L29 11L29 10L28 10L28 9L27 9L27 8L26 8L26 7ZM46 8L46 9L47 9L47 8ZM21 9L21 10L22 10L22 9ZM25 9L25 10L26 10L26 9ZM45 10L45 11L43 11L43 12L42 12L42 14L41 14L41 13L40 13L40 14L41 14L41 16L42 16L42 15L43 15L43 14L45 14L45 13L47 13L47 12L48 12L48 13L49 13L49 14L50 14L50 16L52 16L52 17L53 17L53 16L54 16L54 15L56 15L56 14L55 14L55 12L54 12L54 14L51 14L51 12L49 12L49 10L47 10L47 11L46 11L46 10ZM11 12L11 13L12 13L12 12ZM52 12L52 13L53 13L53 12ZM14 13L14 14L15 14L15 15L16 15L16 14L15 14L15 13ZM25 13L25 14L23 14L23 16L24 16L24 15L29 15L29 14L30 14L30 13L29 13L29 14L27 14L27 13ZM2 14L2 15L3 15L3 14ZM57 16L57 17L58 17L58 16ZM60 16L60 17L61 17L61 16ZM17 17L17 18L18 18L18 20L20 20L20 21L21 21L21 20L22 20L22 21L23 21L23 20L22 20L22 19L21 19L21 18L20 18L20 17ZM47 17L47 18L48 18L48 22L47 22L47 23L46 23L46 21L47 21L47 20L46 20L46 21L45 21L45 23L44 23L44 25L45 25L45 24L48 24L48 22L49 22L49 18L48 18L48 17ZM6 19L6 20L7 20L7 19ZM12 20L12 21L11 21L11 23L13 23L13 22L12 22L12 21L13 21L13 20ZM14 20L14 21L15 21L15 20ZM26 21L26 22L27 22L27 21ZM29 21L29 22L28 22L28 23L29 23L29 22L30 22L30 21ZM14 22L14 24L13 24L13 25L15 25L15 24L17 24L17 23L18 23L18 22ZM6 23L6 24L5 24L5 25L6 25L6 26L7 26L7 25L6 25L6 24L7 24L7 23ZM38 23L38 24L37 24L37 25L38 25L38 24L39 24L39 23ZM22 24L22 25L19 25L19 26L18 26L18 28L19 28L19 27L20 27L20 26L22 26L22 25L23 25L23 24ZM57 24L57 26L55 26L55 27L54 27L54 28L56 28L56 27L57 27L57 26L58 26L58 27L59 27L59 26L60 26L60 25L59 25L59 26L58 26L58 24ZM24 26L24 28L23 28L23 27L21 27L21 28L20 28L20 29L25 29L25 28L26 28L26 26ZM45 26L45 27L46 27L46 26ZM47 26L47 27L48 27L48 26ZM0 27L0 29L1 29L1 27ZM6 27L6 28L7 28L7 27ZM9 27L9 28L10 28L10 27ZM51 27L51 28L52 28L52 27ZM5 29L5 32L8 32L8 29ZM9 29L9 30L10 30L10 29ZM29 29L29 32L32 32L32 29ZM53 29L53 32L56 32L56 29ZM6 30L6 31L7 31L7 30ZM17 30L17 31L18 31L18 30ZM30 30L30 31L31 31L31 30ZM49 30L49 31L50 31L50 30ZM54 30L54 31L55 31L55 30ZM1 31L1 32L2 32L2 31ZM44 31L44 32L42 32L42 34L39 34L39 35L41 35L41 36L42 36L42 35L43 35L43 34L46 34L46 32L45 32L45 31ZM23 32L23 33L24 33L24 34L25 34L25 33L26 33L26 32L25 32L25 33L24 33L24 32ZM57 32L57 33L58 33L58 32ZM1 33L1 34L3 34L3 33ZM5 33L5 34L8 34L8 33ZM18 33L18 36L19 36L19 33ZM28 33L28 34L29 34L29 33ZM57 34L57 35L58 35L58 34ZM23 35L23 36L22 36L22 37L23 37L23 36L24 36L24 35ZM40 37L40 38L41 38L41 37ZM8 38L8 40L10 40L10 41L9 41L9 42L10 42L10 41L11 41L11 42L12 42L12 43L11 43L11 44L9 44L9 46L10 46L10 47L11 47L11 46L10 46L10 45L12 45L12 43L13 43L13 42L14 42L14 39L13 39L13 41L11 41L11 40L12 40L12 39L11 39L11 38ZM43 38L43 39L45 39L45 38ZM6 39L6 40L5 40L5 43L3 43L3 42L4 42L4 41L3 41L3 40L2 40L2 41L1 41L1 42L2 42L2 43L3 43L3 45L6 45L6 44L5 44L5 43L6 43L6 42L8 42L8 41L6 41L6 40L7 40L7 39ZM54 40L54 42L57 42L57 44L58 44L58 45L59 45L59 43L60 43L60 42L57 42L57 41L56 41L56 40ZM2 41L2 42L3 42L3 41ZM28 42L28 43L29 43L29 42ZM30 44L30 45L31 45L31 46L32 46L32 47L33 47L33 48L30 48L30 49L31 49L31 51L33 51L33 52L36 52L36 53L37 53L37 54L39 54L39 56L40 56L40 55L41 55L41 53L40 53L40 54L39 54L39 52L36 52L36 51L34 51L34 50L33 50L33 48L34 48L34 49L35 49L35 50L36 50L36 49L37 49L37 50L38 50L38 51L40 51L40 50L41 50L41 49L40 49L40 50L39 50L39 49L38 49L38 48L40 48L40 46L41 46L41 45L40 45L40 46L39 46L39 47L38 47L38 48L37 48L37 46L35 46L35 48L34 48L34 46L33 46L33 44ZM60 44L60 46L61 46L61 44ZM1 45L1 46L2 46L2 47L3 47L3 49L4 49L4 50L5 50L5 49L6 49L6 48L7 48L7 47L6 47L6 48L5 48L5 46L2 46L2 45ZM28 45L28 47L30 47L30 46L29 46L29 45ZM43 45L43 46L44 46L44 45ZM18 46L18 47L17 47L17 48L18 48L18 47L19 47L19 48L20 48L20 49L18 49L18 52L17 52L17 50L16 50L16 51L14 51L14 53L13 53L13 54L18 54L18 55L17 55L17 57L16 57L16 56L14 56L14 55L13 55L13 56L12 56L12 57L11 57L11 58L12 58L12 59L14 59L14 60L15 60L15 59L17 59L17 57L18 57L18 56L20 56L20 55L21 55L21 54L22 54L22 55L23 55L23 54L24 54L24 53L25 53L25 54L28 54L28 53L25 53L25 51L26 51L26 52L27 52L27 49L25 49L25 50L24 50L24 49L23 49L23 48L22 48L22 47L21 47L21 48L20 48L20 46ZM4 48L4 49L5 49L5 48ZM20 49L20 51L21 51L21 53L20 53L20 52L18 52L18 53L20 53L20 54L19 54L19 55L20 55L20 54L21 54L21 53L22 53L22 54L23 54L23 53L24 53L24 51L23 51L23 50L22 50L22 49ZM21 50L21 51L22 51L22 50ZM3 51L3 52L4 52L4 51ZM51 51L51 52L50 52L50 53L51 53L51 54L52 54L52 51ZM6 52L6 53L7 53L7 52ZM16 52L16 53L17 53L17 52ZM22 52L22 53L23 53L23 52ZM46 52L46 53L47 53L47 52ZM29 53L29 56L32 56L32 53ZM43 53L43 54L44 54L44 55L45 55L45 54L44 54L44 53ZM53 53L53 56L56 56L56 53ZM30 54L30 55L31 55L31 54ZM47 54L47 55L48 55L48 54ZM54 54L54 55L55 55L55 54ZM24 55L24 56L22 56L22 57L23 57L23 58L24 58L24 57L27 57L27 58L30 58L30 57L28 57L28 55L27 55L27 56L26 56L26 55ZM33 56L33 58L34 58L34 59L35 59L35 58L36 58L36 60L38 60L38 58L36 58L36 56ZM60 56L60 58L57 58L57 60L55 60L55 61L57 61L57 60L58 60L58 61L61 61L61 60L60 60L60 58L61 58L61 56ZM15 57L15 58L16 58L16 57ZM19 57L19 58L18 58L18 59L20 59L20 58L21 58L21 57ZM42 57L42 59L44 59L44 58L43 58L43 57ZM53 57L53 58L54 58L54 57ZM0 0L0 7L7 7L7 0ZM1 1L1 6L6 6L6 1ZM2 2L2 5L5 5L5 2ZM54 0L54 7L61 7L61 0ZM55 1L55 6L60 6L60 1ZM56 2L56 5L59 5L59 2ZM0 54L0 61L7 61L7 54ZM1 55L1 60L6 60L6 55ZM2 56L2 59L5 59L5 56Z" fill="#000000"/></g></g></svg>
