<?xml version="1.0" encoding="UTF-8"?>
<svg xmlns="http://www.w3.org/2000/svg" version="1.1" width="180" height="180" viewBox="0 0 180 180"><rect x="0" y="0" width="180" height="180" fill="#ffffff"/><g transform="scale(3.396)"><g transform="translate(0,0)"><path fill-rule="evenodd" d="M16 0L16 1L15 1L15 2L14 2L14 3L13 3L13 2L12 2L12 3L11 3L11 4L12 4L12 3L13 3L13 4L14 4L14 3L15 3L15 2L16 2L16 4L18 4L18 3L19 3L19 6L18 6L18 5L17 5L17 6L16 6L16 7L15 7L15 5L12 5L12 8L13 8L13 6L14 6L14 7L15 7L15 8L17 8L17 10L18 10L18 11L19 11L19 12L18 12L18 13L16 13L16 11L15 11L15 10L16 10L16 9L15 9L15 10L14 10L14 9L12 9L12 10L14 10L14 13L13 13L13 11L11 11L11 10L10 10L10 11L9 11L9 10L5 10L5 9L4 9L4 8L3 8L3 9L4 9L4 10L5 10L5 11L3 11L3 10L2 10L2 11L3 11L3 12L5 12L5 13L4 13L4 15L5 15L5 13L7 13L7 14L6 14L6 15L7 15L7 14L8 14L8 12L10 12L10 13L11 13L11 12L12 12L12 13L13 13L13 14L12 14L12 15L13 15L13 16L16 16L16 17L13 17L13 18L11 18L11 19L9 19L9 18L8 18L8 17L12 17L12 16L11 16L11 14L9 14L9 16L8 16L8 17L7 17L7 16L3 16L3 15L2 15L2 12L1 12L1 11L0 11L0 18L2 18L2 17L4 17L4 18L6 18L6 19L5 19L5 20L4 20L4 22L3 22L3 19L2 19L2 20L1 20L1 19L0 19L0 20L1 20L1 21L0 21L0 22L1 22L1 21L2 21L2 22L3 22L3 23L5 23L5 24L4 24L4 27L0 27L0 29L1 29L1 30L0 30L0 31L1 31L1 33L0 33L0 34L1 34L1 33L2 33L2 35L0 35L0 36L2 36L2 35L4 35L4 36L5 36L5 37L1 37L1 39L0 39L0 41L1 41L1 42L0 42L0 43L1 43L1 44L3 44L3 45L4 45L4 44L3 44L3 43L7 43L7 44L6 44L6 45L8 45L8 47L9 47L9 45L10 45L10 44L11 44L11 46L10 46L10 47L11 47L11 48L9 48L9 49L8 49L8 50L9 50L9 51L8 51L8 53L9 53L9 52L10 52L10 53L11 53L11 51L10 51L10 50L9 50L9 49L11 49L11 48L13 48L13 49L14 49L14 47L15 47L15 48L16 48L16 47L17 47L17 46L16 46L16 47L15 47L15 46L14 46L14 45L15 45L15 44L18 44L18 45L19 45L19 46L18 46L18 47L19 47L19 48L18 48L18 49L15 49L15 50L16 50L16 51L14 51L14 50L13 50L13 51L12 51L12 52L13 52L13 53L20 53L20 51L19 51L19 49L20 49L20 48L22 48L22 49L23 49L23 51L21 51L21 52L24 52L24 53L25 53L25 50L24 50L24 49L27 49L27 50L26 50L26 53L28 53L28 52L30 52L30 53L33 53L33 52L34 52L34 51L31 51L31 52L30 52L30 49L29 49L29 47L30 47L30 48L32 48L32 49L33 49L33 50L35 50L35 51L36 51L36 53L38 53L38 52L39 52L39 50L38 50L38 51L37 51L37 50L36 50L36 49L37 49L37 48L38 48L38 49L40 49L40 50L41 50L41 51L40 51L40 52L42 52L42 53L43 53L43 52L42 52L42 50L41 50L41 48L42 48L42 49L43 49L43 48L44 48L44 50L43 50L43 51L44 51L44 53L45 53L45 52L46 52L46 53L47 53L47 52L48 52L48 53L50 53L50 51L49 51L49 48L53 48L53 47L51 47L51 46L53 46L53 44L52 44L52 43L53 43L53 41L50 41L50 39L51 39L51 40L52 40L52 39L53 39L53 38L52 38L52 37L50 37L50 39L49 39L49 38L48 38L48 37L47 37L47 35L46 35L46 33L49 33L49 34L48 34L48 35L49 35L49 36L51 36L51 35L52 35L52 34L53 34L53 29L52 29L52 27L53 27L53 26L52 26L52 27L51 27L51 30L52 30L52 31L51 31L51 32L52 32L52 33L51 33L51 34L50 34L50 33L49 33L49 32L48 32L48 31L49 31L49 30L50 30L50 27L49 27L49 24L50 24L50 25L51 25L51 24L52 24L52 25L53 25L53 24L52 24L52 23L50 23L50 22L48 22L48 21L49 21L49 18L50 18L50 19L51 19L51 20L50 20L50 21L51 21L51 22L53 22L53 21L51 21L51 20L52 20L52 19L53 19L53 17L49 17L49 16L50 16L50 15L51 15L51 16L52 16L52 15L53 15L53 14L52 14L52 13L53 13L53 12L52 12L52 11L51 11L51 10L50 10L50 9L52 9L52 10L53 10L53 9L52 9L52 8L50 8L50 9L49 9L49 8L46 8L46 9L45 9L45 8L44 8L44 7L45 7L45 6L44 6L44 7L43 7L43 3L44 3L44 4L45 4L45 3L44 3L44 1L43 1L43 0L42 0L42 1L41 1L41 0L40 0L40 2L41 2L41 6L40 6L40 7L39 7L39 6L38 6L38 8L37 8L37 6L36 6L36 9L35 9L35 11L36 11L36 13L35 13L35 12L34 12L34 11L33 11L33 10L34 10L34 9L33 9L33 10L32 10L32 9L31 9L31 8L30 8L30 7L31 7L31 5L32 5L32 8L34 8L34 7L35 7L35 5L33 5L33 4L34 4L34 3L35 3L35 4L36 4L36 5L39 5L39 4L40 4L40 3L39 3L39 4L38 4L38 3L37 3L37 4L36 4L36 2L37 2L37 1L38 1L38 2L39 2L39 0L34 0L34 1L33 1L33 0L32 0L32 1L33 1L33 2L32 2L32 3L33 3L33 4L30 4L30 7L29 7L29 4L27 4L27 3L29 3L29 2L30 2L30 3L31 3L31 0L30 0L30 1L27 1L27 3L26 3L26 1L25 1L25 0L24 0L24 1L25 1L25 2L23 2L23 1L22 1L22 2L21 2L21 3L19 3L19 2L18 2L18 0ZM20 0L20 1L21 1L21 0ZM8 1L8 3L10 3L10 1ZM33 2L33 3L34 3L34 2ZM42 2L42 3L43 3L43 2ZM22 3L22 4L21 4L21 7L20 7L20 6L19 6L19 7L18 7L18 6L17 6L17 7L18 7L18 8L21 8L21 9L20 9L20 12L19 12L19 14L18 14L18 15L20 15L20 16L19 16L19 17L21 17L21 18L19 18L19 19L18 19L18 16L17 16L17 15L16 15L16 14L15 14L15 15L16 15L16 16L17 16L17 17L16 17L16 18L15 18L15 19L14 19L14 18L13 18L13 19L11 19L11 20L8 20L8 18L7 18L7 17L6 17L6 18L7 18L7 19L6 19L6 20L5 20L5 23L6 23L6 24L9 24L9 30L10 30L10 31L8 31L8 30L7 30L7 29L5 29L5 30L4 30L4 29L3 29L3 28L1 28L1 29L3 29L3 30L4 30L4 32L3 32L3 31L2 31L2 30L1 30L1 31L2 31L2 33L3 33L3 34L4 34L4 35L6 35L6 36L8 36L8 37L5 37L5 38L9 38L9 35L6 35L6 34L10 34L10 37L11 37L11 38L10 38L10 40L8 40L8 42L7 42L7 41L6 41L6 42L7 42L7 43L8 43L8 42L10 42L10 43L11 43L11 44L13 44L13 45L12 45L12 46L13 46L13 45L14 45L14 41L13 41L13 43L12 43L12 42L10 42L10 40L15 40L15 41L16 41L16 42L15 42L15 43L16 43L16 42L17 42L17 43L18 43L18 44L19 44L19 45L20 45L20 46L21 46L21 47L22 47L22 48L23 48L23 49L24 49L24 47L23 47L23 46L24 46L24 45L22 45L22 44L23 44L23 43L24 43L24 44L26 44L26 43L27 43L27 44L28 44L28 43L29 43L29 42L30 42L30 43L31 43L31 45L29 45L29 46L30 46L30 47L31 47L31 45L32 45L32 46L33 46L33 47L32 47L32 48L33 48L33 49L34 49L34 48L37 48L37 47L41 47L41 45L42 45L42 48L43 48L43 45L44 45L44 44L45 44L45 43L46 43L46 44L47 44L47 43L48 43L48 44L49 44L49 45L50 45L50 46L51 46L51 45L52 45L52 44L51 44L51 43L50 43L50 42L49 42L49 39L48 39L48 40L46 40L46 42L45 42L45 43L44 43L44 42L43 42L43 41L42 41L42 40L44 40L44 41L45 41L45 40L44 40L44 39L46 39L46 38L45 38L45 37L46 37L46 36L45 36L45 33L46 33L46 32L47 32L47 31L48 31L48 30L49 30L49 29L46 29L46 30L45 30L45 29L44 29L44 30L43 30L43 29L41 29L41 28L40 28L40 27L42 27L42 28L43 28L43 25L42 25L42 24L43 24L43 22L45 22L45 23L44 23L44 24L45 24L45 23L46 23L46 24L48 24L48 23L46 23L46 22L47 22L47 21L48 21L48 20L47 20L47 21L46 21L46 22L45 22L45 21L44 21L44 20L46 20L46 19L48 19L48 18L49 18L49 17L48 17L48 16L47 16L47 14L51 14L51 15L52 15L52 14L51 14L51 13L52 13L52 12L49 12L49 13L47 13L47 14L46 14L46 12L47 12L47 11L48 11L48 10L49 10L49 9L48 9L48 10L47 10L47 9L46 9L46 10L45 10L45 9L44 9L44 8L42 8L42 9L39 9L39 8L38 8L38 9L37 9L37 10L36 10L36 11L37 11L37 10L38 10L38 11L39 11L39 13L38 13L38 12L37 12L37 13L36 13L36 14L39 14L39 15L40 15L40 14L41 14L41 13L42 13L42 15L41 15L41 16L40 16L40 17L39 17L39 16L38 16L38 15L37 15L37 17L39 17L39 18L37 18L37 20L38 20L38 22L35 22L35 21L34 21L34 20L32 20L32 18L31 18L31 16L29 16L29 17L30 17L30 18L29 18L29 20L32 20L32 22L31 22L31 21L30 21L30 22L28 22L28 23L27 23L27 22L26 22L26 20L27 20L27 21L28 21L28 19L27 19L27 18L28 18L28 17L27 17L27 15L25 15L25 13L24 13L24 12L25 12L25 10L24 10L24 8L23 8L23 10L22 10L22 4L23 4L23 3ZM8 4L8 8L6 8L6 9L8 9L8 8L10 8L10 9L11 9L11 8L10 8L10 7L11 7L11 6L10 6L10 5L9 5L9 4ZM23 5L23 7L24 7L24 5ZM25 5L25 8L28 8L28 5ZM9 6L9 7L10 7L10 6ZM26 6L26 7L27 7L27 6ZM33 6L33 7L34 7L34 6ZM41 6L41 7L40 7L40 8L41 8L41 7L42 7L42 6ZM0 8L0 10L1 10L1 9L2 9L2 8ZM18 9L18 10L19 10L19 9ZM26 9L26 10L27 10L27 9ZM29 9L29 10L28 10L28 12L29 12L29 13L28 13L28 14L30 14L30 15L35 15L35 14L33 14L33 13L34 13L34 12L33 12L33 11L29 11L29 10L31 10L31 9ZM23 10L23 11L24 11L24 10ZM44 10L44 11L42 11L42 12L43 12L43 16L41 16L41 20L40 20L40 21L39 21L39 22L40 22L40 21L41 21L41 23L36 23L36 24L34 24L34 23L35 23L35 22L34 22L34 21L33 21L33 22L32 22L32 23L28 23L28 24L27 24L27 23L26 23L26 22L25 22L25 20L24 20L24 18L25 18L25 19L26 19L26 18L27 18L27 17L26 17L26 16L25 16L25 17L24 17L24 16L23 16L23 15L24 15L24 13L23 13L23 12L22 12L22 11L21 11L21 12L22 12L22 13L23 13L23 14L22 14L22 15L21 15L21 16L23 16L23 17L22 17L22 19L21 19L21 20L20 20L20 19L19 19L19 20L18 20L18 19L17 19L17 18L16 18L16 19L15 19L15 20L17 20L17 22L16 22L16 21L13 21L13 22L12 22L12 23L10 23L10 21L8 21L8 20L6 20L6 21L7 21L7 22L6 22L6 23L9 23L9 24L11 24L11 25L12 25L12 26L14 26L14 25L15 25L15 26L16 26L16 27L15 27L15 28L14 28L14 27L13 27L13 28L12 28L12 27L11 27L11 26L10 26L10 27L11 27L11 28L10 28L10 30L12 30L12 31L11 31L11 32L12 32L12 33L11 33L11 34L12 34L12 33L13 33L13 35L12 35L12 37L13 37L13 36L14 36L14 37L16 37L16 38L15 38L15 40L16 40L16 41L17 41L17 40L18 40L18 43L21 43L21 44L20 44L20 45L21 45L21 46L22 46L22 45L21 45L21 44L22 44L22 43L21 43L21 42L24 42L24 43L25 43L25 42L26 42L26 41L27 41L27 43L28 43L28 42L29 42L29 41L31 41L31 42L32 42L32 44L34 44L34 45L33 45L33 46L34 46L34 47L33 47L33 48L34 48L34 47L35 47L35 46L36 46L36 47L37 47L37 46L38 46L38 45L39 45L39 44L40 44L40 45L41 45L41 44L40 44L40 43L41 43L41 42L42 42L42 45L43 45L43 44L44 44L44 43L43 43L43 42L42 42L42 41L41 41L41 42L40 42L40 43L39 43L39 44L38 44L38 43L37 43L37 42L39 42L39 41L40 41L40 40L42 40L42 37L43 37L43 36L42 36L42 35L41 35L41 34L42 34L42 32L44 32L44 33L45 33L45 32L46 32L46 31L47 31L47 30L46 30L46 31L45 31L45 30L44 30L44 31L42 31L42 30L41 30L41 29L38 29L38 28L39 28L39 27L40 27L40 25L41 25L41 26L42 26L42 25L41 25L41 24L42 24L42 21L43 21L43 20L42 20L42 17L44 17L44 18L46 18L46 17L44 17L44 12L45 12L45 10ZM46 10L46 11L47 11L47 10ZM5 11L5 12L8 12L8 11ZM10 11L10 12L11 12L11 11ZM40 11L40 13L39 13L39 14L40 14L40 13L41 13L41 11ZM26 12L26 13L27 13L27 12ZM30 12L30 13L31 13L31 14L32 14L32 13L33 13L33 12ZM1 15L1 16L2 16L2 15ZM45 15L45 16L46 16L46 15ZM33 16L33 17L34 17L34 18L33 18L33 19L35 19L35 17L34 17L34 16ZM51 18L51 19L52 19L52 18ZM22 19L22 20L21 20L21 21L20 21L20 20L19 20L19 21L20 21L20 22L21 22L21 23L22 23L22 24L20 24L20 25L19 25L19 26L20 26L20 29L22 29L22 30L21 30L21 31L20 31L20 30L19 30L19 31L18 31L18 28L19 28L19 27L18 27L18 28L17 28L17 27L16 27L16 28L17 28L17 29L16 29L16 30L14 30L14 31L13 31L13 32L14 32L14 31L16 31L16 32L15 32L15 33L14 33L14 36L15 36L15 35L16 35L16 37L18 37L18 36L19 36L19 39L18 39L18 40L19 40L19 41L24 41L24 42L25 42L25 41L24 41L24 40L25 40L25 39L26 39L26 40L28 40L28 41L29 41L29 40L31 40L31 39L34 39L34 40L33 40L33 41L34 41L34 42L33 42L33 43L35 43L35 44L36 44L36 41L35 41L35 39L36 39L36 38L40 38L40 39L41 39L41 38L40 38L40 35L39 35L39 34L41 34L41 33L39 33L39 31L40 31L40 32L41 32L41 31L40 31L40 30L38 30L38 31L37 31L37 30L36 30L36 28L37 28L37 27L38 27L38 26L39 26L39 25L38 25L38 24L37 24L37 27L36 27L36 28L35 28L35 26L33 26L33 25L34 25L34 24L33 24L33 23L34 23L34 22L33 22L33 23L32 23L32 24L30 24L30 25L29 25L29 26L30 26L30 27L29 27L29 28L30 28L30 30L28 30L28 29L26 29L26 30L25 30L25 29L24 29L24 27L22 27L22 26L24 26L24 24L25 24L25 22L24 22L24 20L23 20L23 19ZM22 20L22 21L21 21L21 22L23 22L23 20ZM15 22L15 23L16 23L16 22ZM17 22L17 24L15 24L15 25L18 25L18 24L19 24L19 23L18 23L18 22ZM1 23L1 26L2 26L2 23ZM13 23L13 25L14 25L14 23ZM23 23L23 24L22 24L22 25L23 25L23 24L24 24L24 23ZM32 24L32 25L33 25L33 24ZM5 25L5 28L8 28L8 25ZM25 25L25 28L28 28L28 25ZM45 25L45 28L48 28L48 25ZM6 26L6 27L7 27L7 26ZM26 26L26 27L27 27L27 26ZM46 26L46 27L47 27L47 26ZM21 27L21 28L22 28L22 27ZM31 27L31 28L32 28L32 29L31 29L31 30L32 30L32 32L34 32L34 33L33 33L33 34L32 34L32 33L31 33L31 36L30 36L30 35L29 35L29 34L28 34L28 33L24 33L24 32L22 32L22 31L23 31L23 30L24 30L24 31L25 31L25 30L24 30L24 29L23 29L23 30L22 30L22 31L21 31L21 32L18 32L18 31L17 31L17 30L16 30L16 31L17 31L17 34L18 34L18 35L19 35L19 36L20 36L20 33L21 33L21 32L22 32L22 35L21 35L21 36L22 36L22 37L21 37L21 40L22 40L22 39L25 39L25 38L27 38L27 39L28 39L28 37L27 37L27 34L28 34L28 35L29 35L29 37L31 37L31 36L32 36L32 37L33 37L33 38L36 38L36 37L39 37L39 35L38 35L38 33L37 33L37 31L36 31L36 33L37 33L37 34L36 34L36 35L37 35L37 36L36 36L36 37L35 37L35 36L34 36L34 35L35 35L35 34L34 34L34 33L35 33L35 31L33 31L33 30L34 30L34 29L33 29L33 28L34 28L34 27L33 27L33 28L32 28L32 27ZM11 28L11 29L12 29L12 30L13 30L13 29L12 29L12 28ZM6 30L6 31L7 31L7 32L5 32L5 33L4 33L4 34L5 34L5 33L9 33L9 32L8 32L8 31L7 31L7 30ZM26 30L26 31L27 31L27 30ZM28 31L28 32L29 32L29 33L30 33L30 32L31 32L31 31L30 31L30 32L29 32L29 31ZM15 33L15 34L16 34L16 33ZM23 33L23 38L25 38L25 37L26 37L26 36L25 36L25 35L24 35L24 33ZM33 34L33 35L32 35L32 36L33 36L33 37L34 37L34 36L33 36L33 35L34 35L34 34ZM43 34L43 35L44 35L44 34ZM44 36L44 37L45 37L45 36ZM3 38L3 39L1 39L1 41L2 41L2 40L3 40L3 41L4 41L4 42L5 42L5 40L7 40L7 39L5 39L5 40L3 40L3 39L4 39L4 38ZM12 38L12 39L13 39L13 38ZM51 38L51 39L52 39L52 38ZM19 39L19 40L20 40L20 39ZM37 39L37 41L38 41L38 39ZM2 42L2 43L3 43L3 42ZM46 42L46 43L47 43L47 42ZM48 42L48 43L49 43L49 42ZM8 44L8 45L9 45L9 44ZM37 44L37 45L36 45L36 46L37 46L37 45L38 45L38 44ZM50 44L50 45L51 45L51 44ZM25 45L25 48L28 48L28 45ZM34 45L34 46L35 46L35 45ZM45 45L45 48L48 48L48 45ZM26 46L26 47L27 47L27 46ZM46 46L46 47L47 47L47 46ZM51 49L51 53L52 53L52 49ZM27 50L27 51L28 51L28 50ZM44 50L44 51L46 51L46 52L47 52L47 51L46 51L46 50ZM13 51L13 52L14 52L14 51ZM16 51L16 52L17 52L17 51ZM18 51L18 52L19 52L19 51ZM48 51L48 52L49 52L49 51ZM0 0L0 7L7 7L7 0ZM1 1L1 6L6 6L6 1ZM2 2L2 5L5 5L5 2ZM46 0L46 7L53 7L53 0ZM47 1L47 6L52 6L52 1ZM48 2L48 5L51 5L51 2ZM0 46L0 53L7 53L7 46ZM1 47L1 52L6 52L6 47ZM2 48L2 51L5 51L5 48Z" fill="#000000"/></g></g></svg>
