<?xml version="1.0" encoding="UTF-8"?>
<svg xmlns="http://www.w3.org/2000/svg" version="1.1" width="170" height="170" viewBox="0 0 170 170"><rect x="0" y="0" width="170" height="170" fill="#ffffff"/><g transform="scale(2.787)"><g transform="translate(0,0)"><path fill-rule="evenodd" d="M8 0L8 1L10 1L10 2L8 2L8 5L9 5L9 4L10 4L10 7L9 7L9 6L8 6L8 7L9 7L9 8L8 8L8 9L7 9L7 8L6 8L6 9L5 9L5 11L4 11L4 12L5 12L5 13L4 13L4 14L3 14L3 13L2 13L2 12L1 12L1 13L2 13L2 14L1 14L1 16L0 16L0 18L1 18L1 20L0 20L0 22L3 22L3 24L4 24L4 26L3 26L3 27L2 27L2 28L4 28L4 30L3 30L3 32L4 32L4 33L10 33L10 34L9 34L9 35L8 35L8 36L6 36L6 35L7 35L7 34L6 34L6 35L5 35L5 34L3 34L3 35L5 35L5 36L4 36L4 37L3 37L3 38L4 38L4 40L2 40L2 38L0 38L0 39L1 39L1 40L2 40L2 41L1 41L1 42L0 42L0 45L1 45L1 46L0 46L0 47L1 47L1 46L2 46L2 48L0 48L0 49L1 49L1 50L2 50L2 51L0 51L0 53L4 53L4 52L5 52L5 51L7 51L7 52L6 52L6 53L7 53L7 52L10 52L10 53L11 53L11 54L9 54L9 53L8 53L8 54L9 54L9 57L8 57L8 61L10 61L10 59L11 59L11 58L13 58L13 59L14 59L14 60L11 60L11 61L14 61L14 60L15 60L15 61L17 61L17 60L15 60L15 58L16 58L16 59L18 59L18 58L21 58L21 59L20 59L20 61L21 61L21 60L22 60L22 58L23 58L23 59L24 59L24 58L25 58L25 56L24 56L24 55L27 55L27 56L26 56L26 57L27 57L27 56L28 56L28 57L30 57L30 58L31 58L31 57L32 57L32 58L33 58L33 56L35 56L35 55L33 55L33 53L34 53L34 54L35 54L35 53L36 53L36 54L37 54L37 55L36 55L36 56L37 56L37 57L36 57L36 58L37 58L37 59L38 59L38 61L40 61L40 60L39 60L39 59L38 59L38 58L37 58L37 57L38 57L38 56L39 56L39 55L40 55L40 57L41 57L41 56L42 56L42 55L40 55L40 54L41 54L41 53L42 53L42 52L43 52L43 50L42 50L42 49L43 49L43 48L42 48L42 49L41 49L41 50L40 50L40 51L39 51L39 49L40 49L40 48L39 48L39 49L38 49L38 48L37 48L37 47L39 47L39 46L40 46L40 45L41 45L41 44L42 44L42 43L41 43L41 41L42 41L42 40L43 40L43 39L44 39L44 41L43 41L43 42L44 42L44 41L45 41L45 43L47 43L47 44L46 44L46 45L45 45L45 46L44 46L44 48L45 48L45 49L44 49L44 50L45 50L45 49L46 49L46 48L48 48L48 49L47 49L47 50L48 50L48 49L49 49L49 51L50 51L50 52L51 52L51 49L52 49L52 48L53 48L53 49L54 49L54 48L55 48L55 49L56 49L56 50L57 50L57 51L55 51L55 52L52 52L52 54L50 54L50 53L49 53L49 54L48 54L48 51L47 51L47 53L46 53L46 54L45 54L45 55L47 55L47 56L45 56L45 57L47 57L47 58L44 58L44 59L43 59L43 57L44 57L44 56L43 56L43 57L42 57L42 58L41 58L41 59L43 59L43 60L42 60L42 61L43 61L43 60L45 60L45 61L46 61L46 60L48 60L48 61L49 61L49 60L50 60L50 59L47 59L47 58L49 58L49 57L51 57L51 56L49 56L49 55L52 55L52 58L53 58L53 59L52 59L52 60L51 60L51 61L52 61L52 60L53 60L53 59L54 59L54 58L55 58L55 57L56 57L56 59L55 59L55 60L56 60L56 59L58 59L58 60L57 60L57 61L61 61L61 60L59 60L59 59L60 59L60 58L61 58L61 57L60 57L60 56L59 56L59 57L60 57L60 58L59 58L59 59L58 59L58 58L57 58L57 55L58 55L58 54L60 54L60 55L61 55L61 53L60 53L60 52L61 52L61 51L60 51L60 52L58 52L58 51L59 51L59 50L60 50L60 49L61 49L61 48L60 48L60 49L59 49L59 47L60 47L60 45L59 45L59 47L58 47L58 48L56 48L56 47L57 47L57 46L58 46L58 45L57 45L57 44L58 44L58 43L59 43L59 42L60 42L60 43L61 43L61 42L60 42L60 41L61 41L61 40L58 40L58 39L59 39L59 38L61 38L61 37L59 37L59 35L60 35L60 36L61 36L61 35L60 35L60 34L61 34L61 33L60 33L60 34L59 34L59 35L58 35L58 37L59 37L59 38L58 38L58 39L57 39L57 40L58 40L58 41L57 41L57 43L56 43L56 44L55 44L55 42L56 42L56 40L55 40L55 42L54 42L54 43L53 43L53 44L52 44L52 42L53 42L53 41L52 41L52 42L50 42L50 41L51 41L51 40L50 40L50 39L51 39L51 37L52 37L52 36L53 36L53 35L54 35L54 37L53 37L53 38L54 38L54 37L55 37L55 36L56 36L56 38L55 38L55 39L56 39L56 38L57 38L57 36L56 36L56 35L54 35L54 34L55 34L55 33L57 33L57 34L58 34L58 33L57 33L57 31L58 31L58 30L60 30L60 31L59 31L59 32L61 32L61 29L60 29L60 28L58 28L58 30L57 30L57 27L58 27L58 26L60 26L60 25L61 25L61 24L60 24L60 25L59 25L59 23L58 23L58 24L57 24L57 22L58 22L58 20L57 20L57 21L56 21L56 20L54 20L54 19L53 19L53 20L54 20L54 23L55 23L55 24L54 24L54 25L53 25L53 22L52 22L52 20L51 20L51 19L52 19L52 18L53 18L53 17L54 17L54 16L55 16L55 15L56 15L56 17L55 17L55 18L56 18L56 17L57 17L57 18L58 18L58 17L60 17L60 19L59 19L59 20L60 20L60 21L59 21L59 22L60 22L60 21L61 21L61 17L60 17L60 15L59 15L59 14L61 14L61 13L59 13L59 11L60 11L60 12L61 12L61 11L60 11L60 10L59 10L59 8L56 8L56 9L57 9L57 10L56 10L56 12L57 12L57 13L56 13L56 14L54 14L54 13L55 13L55 12L54 12L54 13L53 13L53 11L55 11L55 9L54 9L54 8L53 8L53 6L52 6L52 9L54 9L54 10L53 10L53 11L52 11L52 12L51 12L51 11L50 11L50 12L48 12L48 13L47 13L47 14L48 14L48 16L47 16L47 15L44 15L44 14L45 14L45 13L46 13L46 12L47 12L47 10L48 10L48 8L49 8L49 10L50 10L50 8L51 8L51 5L52 5L52 4L53 4L53 0L51 0L51 2L49 2L49 1L50 1L50 0L49 0L49 1L47 1L47 2L48 2L48 4L47 4L47 3L45 3L45 1L46 1L46 0L45 0L45 1L44 1L44 0L42 0L42 2L43 2L43 3L42 3L42 4L41 4L41 2L40 2L40 5L39 5L39 4L38 4L38 2L36 2L36 3L34 3L34 2L35 2L35 1L38 1L38 0L35 0L35 1L34 1L34 0L32 0L32 1L31 1L31 0L30 0L30 1L29 1L29 2L28 2L28 0L27 0L27 1L26 1L26 2L25 2L25 1L24 1L24 0L23 0L23 1L22 1L22 0L21 0L21 1L20 1L20 0L19 0L19 1L18 1L18 0L17 0L17 2L16 2L16 0L15 0L15 2L14 2L14 0L13 0L13 1L12 1L12 0L11 0L11 1L10 1L10 0ZM39 0L39 1L41 1L41 0ZM11 1L11 2L12 2L12 3L11 3L11 4L12 4L12 3L13 3L13 2L12 2L12 1ZM19 1L19 2L18 2L18 3L19 3L19 5L20 5L20 6L19 6L19 10L18 10L18 9L17 9L17 7L18 7L18 6L17 6L17 7L16 7L16 5L18 5L18 4L16 4L16 2L15 2L15 3L14 3L14 4L13 4L13 5L12 5L12 6L11 6L11 7L10 7L10 8L9 8L9 9L8 9L8 10L10 10L10 11L12 11L12 10L10 10L10 9L11 9L11 8L12 8L12 9L13 9L13 8L14 8L14 9L15 9L15 8L16 8L16 10L13 10L13 11L15 11L15 12L13 12L13 13L11 13L11 14L12 14L12 16L11 16L11 18L13 18L13 16L14 16L14 18L15 18L15 17L16 17L16 18L17 18L17 19L18 19L18 17L19 17L19 20L18 20L18 21L17 21L17 20L15 20L15 19L14 19L14 21L16 21L16 22L14 22L14 23L13 23L13 19L12 19L12 21L10 21L10 20L11 20L11 19L10 19L10 17L9 17L9 16L10 16L10 15L9 15L9 14L10 14L10 12L8 12L8 11L6 11L6 12L7 12L7 13L6 13L6 14L8 14L8 16L7 16L7 15L5 15L5 14L4 14L4 15L2 15L2 16L1 16L1 18L2 18L2 21L3 21L3 22L4 22L4 24L5 24L5 25L6 25L6 26L7 26L7 27L4 27L4 28L7 28L7 27L8 27L8 28L9 28L9 30L13 30L13 29L16 29L16 28L18 28L18 29L17 29L17 32L18 32L18 36L19 36L19 38L20 38L20 39L17 39L17 38L18 38L18 37L16 37L16 39L15 39L15 40L13 40L13 39L14 39L14 38L15 38L15 36L16 36L16 35L17 35L17 33L16 33L16 35L14 35L14 34L13 34L13 33L14 33L14 32L16 32L16 31L13 31L13 32L11 32L11 31L9 31L9 32L11 32L11 33L12 33L12 34L10 34L10 35L9 35L9 37L10 37L10 38L9 38L9 39L10 39L10 40L11 40L11 41L9 41L9 40L8 40L8 37L6 37L6 36L5 36L5 37L4 37L4 38L5 38L5 37L6 37L6 38L7 38L7 39L5 39L5 40L4 40L4 41L2 41L2 42L1 42L1 43L3 43L3 44L4 44L4 45L3 45L3 46L7 46L7 45L5 45L5 43L3 43L3 42L5 42L5 40L8 40L8 41L6 41L6 42L7 42L7 43L6 43L6 44L8 44L8 46L10 46L10 48L9 48L9 47L5 47L5 48L4 48L4 49L2 49L2 50L4 50L4 49L5 49L5 50L8 50L8 51L11 51L11 50L12 50L12 52L11 52L11 53L13 53L13 54L15 54L15 57L16 57L16 58L17 58L17 57L19 57L19 56L20 56L20 57L22 57L22 56L23 56L23 58L24 58L24 56L23 56L23 55L24 55L24 54L25 54L25 53L26 53L26 52L27 52L27 53L28 53L28 52L29 52L29 51L31 51L31 52L33 52L33 51L34 51L34 53L35 53L35 52L36 52L36 53L37 53L37 51L38 51L38 52L39 52L39 53L38 53L38 54L40 54L40 53L41 53L41 52L42 52L42 51L40 51L40 52L39 52L39 51L38 51L38 50L35 50L35 49L36 49L36 48L35 48L35 47L34 47L34 45L33 45L33 44L34 44L34 43L33 43L33 44L31 44L31 43L32 43L32 42L33 42L33 40L34 40L34 41L35 41L35 45L37 45L37 46L36 46L36 47L37 47L37 46L39 46L39 44L41 44L41 43L40 43L40 42L39 42L39 41L41 41L41 40L42 40L42 38L44 38L44 39L47 39L47 40L45 40L45 41L47 41L47 43L48 43L48 42L49 42L49 41L50 41L50 40L49 40L49 39L50 39L50 37L51 37L51 35L53 35L53 34L54 34L54 33L52 33L52 30L51 30L51 28L48 28L48 27L49 27L49 25L48 25L48 23L47 23L47 25L46 25L46 22L50 22L50 23L51 23L51 24L50 24L50 25L51 25L51 27L52 27L52 28L54 28L54 26L56 26L56 27L57 27L57 26L56 26L56 25L57 25L57 24L55 24L55 25L54 25L54 26L53 26L53 25L51 25L51 24L52 24L52 22L51 22L51 20L50 20L50 18L52 18L52 16L51 16L51 15L53 15L53 16L54 16L54 14L53 14L53 13L52 13L52 14L51 14L51 15L50 15L50 16L48 16L48 17L47 17L47 18L49 18L49 19L48 19L48 20L47 20L47 19L45 19L45 18L46 18L46 16L45 16L45 17L44 17L44 16L43 16L43 17L41 17L41 16L40 16L40 15L42 15L42 14L44 14L44 13L45 13L45 12L46 12L46 10L47 10L47 9L45 9L45 8L47 8L47 7L48 7L48 5L47 5L47 4L45 4L45 3L43 3L43 4L42 4L42 5L40 5L40 6L39 6L39 7L40 7L40 6L41 6L41 7L42 7L42 8L41 8L41 9L40 9L40 8L39 8L39 9L37 9L37 8L38 8L38 5L35 5L35 7L36 7L36 6L37 6L37 8L36 8L36 9L31 9L31 10L30 10L30 9L28 9L28 4L27 4L27 2L26 2L26 3L23 3L23 2L22 2L22 1L21 1L21 2L20 2L20 1ZM30 1L30 3L29 3L29 4L31 4L31 1ZM43 1L43 2L44 2L44 1ZM19 2L19 3L20 3L20 5L21 5L21 4L22 4L22 7L23 7L23 4L22 4L22 3L20 3L20 2ZM32 2L32 4L33 4L33 2ZM49 3L49 4L50 4L50 3ZM51 3L51 4L52 4L52 3ZM44 4L44 5L42 5L42 7L43 7L43 6L44 6L44 7L45 7L45 6L44 6L44 5L45 5L45 4ZM13 5L13 6L12 6L12 7L13 7L13 6L14 6L14 8L15 8L15 6L14 6L14 5ZM25 5L25 6L24 6L24 7L25 7L25 8L24 8L24 10L23 10L23 8L22 8L22 9L21 9L21 10L19 10L19 12L18 12L18 13L17 13L17 11L18 11L18 10L17 10L17 11L16 11L16 12L15 12L15 14L14 14L14 16L15 16L15 15L16 15L16 16L17 16L17 15L16 15L16 13L17 13L17 14L19 14L19 15L20 15L20 14L21 14L21 13L22 13L22 15L23 15L23 14L24 14L24 15L26 15L26 17L25 17L25 18L23 18L23 17L21 17L21 16L19 16L19 17L21 17L21 19L20 19L20 20L19 20L19 21L21 21L21 22L20 22L20 23L19 23L19 24L18 24L18 22L16 22L16 23L14 23L14 24L16 24L16 25L17 25L17 24L18 24L18 25L19 25L19 27L18 27L18 28L19 28L19 29L18 29L18 30L19 30L19 29L20 29L20 28L21 28L21 29L22 29L22 27L23 27L23 26L24 26L24 25L22 25L22 24L23 24L23 23L22 23L22 24L21 24L21 25L22 25L22 27L21 27L21 26L20 26L20 25L19 25L19 24L20 24L20 23L21 23L21 22L25 22L25 25L26 25L26 26L27 26L27 28L25 28L25 27L24 27L24 28L23 28L23 29L24 29L24 28L25 28L25 30L26 30L26 31L28 31L28 33L33 33L33 36L32 36L32 35L31 35L31 34L30 34L30 36L29 36L29 35L28 35L28 36L27 36L27 38L29 38L29 41L27 41L27 40L26 40L26 38L25 38L25 39L23 39L23 37L22 37L22 36L26 36L26 35L27 35L27 33L26 33L26 32L25 32L25 33L26 33L26 35L25 35L25 34L24 34L24 33L23 33L23 35L22 35L22 36L20 36L20 35L21 35L21 34L22 34L22 32L24 32L24 31L23 31L23 30L22 30L22 32L19 32L19 33L21 33L21 34L20 34L20 35L19 35L19 36L20 36L20 38L21 38L21 37L22 37L22 39L21 39L21 40L18 40L18 41L19 41L19 42L18 42L18 43L17 43L17 44L15 44L15 43L16 43L16 42L17 42L17 39L16 39L16 40L15 40L15 41L16 41L16 42L14 42L14 44L13 44L13 43L12 43L12 41L11 41L11 43L10 43L10 42L9 42L9 41L8 41L8 42L9 42L9 45L10 45L10 44L11 44L11 43L12 43L12 44L13 44L13 45L11 45L11 46L13 46L13 47L12 47L12 48L13 48L13 49L12 49L12 50L13 50L13 49L15 49L15 50L14 50L14 51L13 51L13 52L14 52L14 51L15 51L15 50L17 50L17 51L16 51L16 53L15 53L15 54L17 54L17 51L18 51L18 52L19 52L19 51L20 51L20 50L22 50L22 51L21 51L21 52L22 52L22 51L24 51L24 52L23 52L23 54L24 54L24 52L25 52L25 51L26 51L26 50L25 50L25 51L24 51L24 49L25 49L25 48L26 48L26 47L27 47L27 48L28 48L28 46L29 46L29 47L30 47L30 46L29 46L29 45L30 45L30 42L32 42L32 41L30 41L30 39L31 39L31 40L32 40L32 39L33 39L33 38L34 38L34 40L35 40L35 41L36 41L36 42L37 42L37 43L38 43L38 44L39 44L39 42L38 42L38 41L39 41L39 40L38 40L38 41L36 41L36 40L35 40L35 38L36 38L36 37L37 37L37 39L40 39L40 40L41 40L41 39L40 39L40 38L42 38L42 37L43 37L43 36L45 36L45 37L44 37L44 38L45 38L45 37L46 37L46 36L47 36L47 35L50 35L50 33L47 33L47 32L46 32L46 33L44 33L44 32L43 32L43 31L42 31L42 32L41 32L41 31L40 31L40 28L41 28L41 29L42 29L42 28L43 28L43 27L44 27L44 29L43 29L43 30L44 30L44 29L45 29L45 28L46 28L46 27L44 27L44 26L46 26L46 25L44 25L44 26L42 26L42 25L43 25L43 24L45 24L45 22L46 22L46 21L47 21L47 20L46 20L46 21L45 21L45 22L44 22L44 23L43 23L43 21L44 21L44 20L43 20L43 21L42 21L42 22L41 22L41 23L43 23L43 24L42 24L42 25L40 25L40 23L39 23L39 25L38 25L38 26L37 26L37 27L36 27L36 30L35 30L35 29L34 29L34 28L35 28L35 27L34 27L34 28L32 28L32 26L34 26L34 25L31 25L31 27L30 27L30 28L28 28L28 27L29 27L29 26L30 26L30 25L27 25L27 23L26 23L26 22L28 22L28 24L30 24L30 23L34 23L34 24L35 24L35 26L36 26L36 25L37 25L37 24L35 24L35 23L36 23L36 22L37 22L37 23L38 23L38 21L39 21L39 20L40 20L40 21L41 21L41 20L42 20L42 19L41 19L41 20L40 20L40 19L39 19L39 18L38 18L38 21L36 21L36 20L37 20L37 18L36 18L36 15L33 15L33 16L32 16L32 17L30 17L30 18L29 18L29 17L28 17L28 18L27 18L27 19L26 19L26 20L24 20L24 19L25 19L25 18L26 18L26 17L27 17L27 16L28 16L28 15L27 15L27 14L29 14L29 15L30 15L30 16L31 16L31 15L32 15L32 14L31 14L31 15L30 15L30 13L29 13L29 12L28 12L28 11L27 11L27 10L28 10L28 9L27 9L27 10L26 10L26 8L27 8L27 6L26 6L26 5ZM29 5L29 8L32 8L32 5ZM33 5L33 8L34 8L34 5ZM49 5L49 8L50 8L50 5ZM20 6L20 8L21 8L21 6ZM25 6L25 7L26 7L26 6ZM30 6L30 7L31 7L31 6ZM46 6L46 7L47 7L47 6ZM0 8L0 9L1 9L1 11L3 11L3 10L4 10L4 8ZM43 8L43 9L42 9L42 10L41 10L41 11L43 11L43 12L42 12L42 13L41 13L41 14L42 14L42 13L43 13L43 12L45 12L45 10L44 10L44 11L43 11L43 9L44 9L44 8ZM60 8L60 9L61 9L61 8ZM6 9L6 10L7 10L7 9ZM36 9L36 10L37 10L37 12L36 12L36 11L35 11L35 10L34 10L34 11L32 11L32 10L31 10L31 13L33 13L33 14L34 14L34 13L33 13L33 12L36 12L36 13L38 13L38 14L39 14L39 15L40 15L40 14L39 14L39 13L38 13L38 10L37 10L37 9ZM39 9L39 10L40 10L40 9ZM22 10L22 11L23 11L23 12L22 12L22 13L24 13L24 14L26 14L26 13L27 13L27 11L26 11L26 10L24 10L24 11L23 11L23 10ZM29 10L29 11L30 11L30 10ZM57 10L57 11L58 11L58 10ZM20 11L20 12L19 12L19 13L20 13L20 12L21 12L21 11ZM25 11L25 12L24 12L24 13L26 13L26 11ZM57 13L57 14L56 14L56 15L58 15L58 16L57 16L57 17L58 17L58 16L59 16L59 15L58 15L58 14L59 14L59 13ZM4 15L4 16L3 16L3 18L4 18L4 20L3 20L3 21L4 21L4 22L5 22L5 23L7 23L7 24L6 24L6 25L7 25L7 26L8 26L8 27L9 27L9 26L8 26L8 25L10 25L10 22L9 22L9 21L8 21L8 23L7 23L7 22L6 22L6 21L7 21L7 20L6 20L6 19L7 19L7 18L8 18L8 20L10 20L10 19L9 19L9 18L8 18L8 17L7 17L7 16L5 16L5 15ZM4 16L4 18L5 18L5 16ZM33 16L33 18L31 18L31 19L28 19L28 22L29 22L29 23L30 23L30 20L31 20L31 22L32 22L32 21L33 21L33 20L36 20L36 18L35 18L35 19L34 19L34 16ZM37 16L37 17L40 17L40 18L41 18L41 17L40 17L40 16ZM50 16L50 17L51 17L51 16ZM6 17L6 18L7 18L7 17ZM43 17L43 18L44 18L44 17ZM22 18L22 19L21 19L21 21L22 21L22 20L23 20L23 18ZM31 19L31 20L33 20L33 19ZM4 20L4 21L5 21L5 20ZM26 20L26 21L25 21L25 22L26 22L26 21L27 21L27 20ZM34 21L34 23L35 23L35 22L36 22L36 21ZM55 22L55 23L56 23L56 22ZM8 23L8 24L9 24L9 23ZM12 23L12 24L11 24L11 26L12 26L12 25L13 25L13 23ZM16 23L16 24L17 24L17 23ZM1 24L1 25L0 25L0 30L1 30L1 25L2 25L2 24ZM39 25L39 27L40 27L40 25ZM47 25L47 27L48 27L48 25ZM41 26L41 28L42 28L42 26ZM52 26L52 27L53 27L53 26ZM10 27L10 28L11 28L11 29L12 29L12 27ZM15 27L15 28L16 28L16 27ZM37 28L37 30L36 30L36 31L34 31L34 32L35 32L35 33L34 33L34 34L37 34L37 35L36 35L36 36L37 36L37 35L38 35L38 36L39 36L39 38L40 38L40 35L41 35L41 37L42 37L42 36L43 36L43 35L45 35L45 36L46 36L46 34L47 34L47 33L46 33L46 34L44 34L44 33L43 33L43 32L42 32L42 33L40 33L40 34L39 34L39 33L38 33L38 34L37 34L37 32L39 32L39 30L38 30L38 29L39 29L39 28ZM47 28L47 29L46 29L46 30L45 30L45 31L47 31L47 29L48 29L48 28ZM5 29L5 32L8 32L8 29ZM27 29L27 30L28 30L28 29ZM29 29L29 32L32 32L32 29ZM53 29L53 32L56 32L56 29ZM6 30L6 31L7 31L7 30ZM30 30L30 31L31 31L31 30ZM48 30L48 32L49 32L49 30ZM50 30L50 32L51 32L51 30ZM54 30L54 31L55 31L55 30ZM0 31L0 33L1 33L1 34L0 34L0 35L1 35L1 37L2 37L2 35L1 35L1 34L2 34L2 33L1 33L1 32L2 32L2 31ZM36 31L36 32L37 32L37 31ZM42 33L42 35L43 35L43 33ZM51 33L51 34L52 34L52 33ZM10 35L10 37L12 37L12 39L11 39L11 40L12 40L12 39L13 39L13 37L14 37L14 35L13 35L13 37L12 37L12 35ZM34 35L34 36L35 36L35 35ZM30 36L30 38L33 38L33 37L32 37L32 36ZM48 36L48 37L50 37L50 36ZM48 38L48 39L49 39L49 38ZM22 39L22 40L21 40L21 41L20 41L20 43L18 43L18 44L17 44L17 45L15 45L15 48L16 48L16 49L17 49L17 50L18 50L18 51L19 51L19 50L20 50L20 48L21 48L21 47L23 47L23 48L22 48L22 50L23 50L23 48L25 48L25 47L26 47L26 45L28 45L28 44L29 44L29 42L30 42L30 41L29 41L29 42L28 42L28 43L27 43L27 41L26 41L26 40L25 40L25 41L23 41L23 39ZM58 41L58 42L59 42L59 41ZM24 42L24 43L23 43L23 44L22 44L22 45L21 45L21 43L20 43L20 45L19 45L19 46L17 46L17 47L16 47L16 48L17 48L17 47L21 47L21 46L25 46L25 44L27 44L27 43L25 43L25 42ZM24 43L24 44L25 44L25 43ZM43 44L43 45L42 45L42 46L41 46L41 47L43 47L43 45L44 45L44 44ZM47 44L47 45L46 45L46 46L45 46L45 48L46 48L46 46L47 46L47 45L49 45L49 46L48 46L48 47L49 47L49 49L51 49L51 47L53 47L53 48L54 48L54 47L56 47L56 46L57 46L57 45L55 45L55 44L53 44L53 45L52 45L52 44ZM20 45L20 46L21 46L21 45ZM32 45L32 49L31 49L31 48L30 48L30 49L29 49L29 50L28 50L28 49L27 49L27 50L28 50L28 51L27 51L27 52L28 52L28 51L29 51L29 50L31 50L31 51L32 51L32 49L33 49L33 45ZM51 45L51 46L52 46L52 45ZM54 45L54 46L53 46L53 47L54 47L54 46L55 46L55 45ZM13 47L13 48L14 48L14 47ZM5 48L5 49L7 49L7 48ZM18 48L18 50L19 50L19 48ZM8 49L8 50L10 50L10 49ZM57 49L57 50L59 50L59 49ZM34 50L34 51L35 51L35 50ZM52 50L52 51L53 51L53 50ZM3 51L3 52L4 52L4 51ZM44 51L44 53L43 53L43 54L44 54L44 53L45 53L45 52L46 52L46 51ZM57 52L57 54L58 54L58 52ZM18 53L18 55L19 55L19 54L20 54L20 53ZM29 53L29 56L32 56L32 53ZM53 53L53 56L56 56L56 53ZM21 54L21 55L20 55L20 56L21 56L21 55L22 55L22 54ZM27 54L27 55L28 55L28 54ZM30 54L30 55L31 55L31 54ZM54 54L54 55L55 55L55 54ZM10 55L10 56L11 56L11 55ZM13 55L13 56L12 56L12 57L14 57L14 55ZM16 55L16 56L17 56L17 55ZM37 55L37 56L38 56L38 55ZM47 56L47 57L49 57L49 56ZM10 57L10 58L9 58L9 59L10 59L10 58L11 58L11 57ZM53 57L53 58L54 58L54 57ZM34 58L34 59L35 59L35 58ZM26 59L26 60L25 60L25 61L26 61L26 60L27 60L27 61L28 61L28 60L27 60L27 59ZM32 59L32 60L30 60L30 61L32 61L32 60L33 60L33 61L34 61L34 60L33 60L33 59ZM45 59L45 60L46 60L46 59ZM18 60L18 61L19 61L19 60ZM35 60L35 61L36 61L36 60ZM0 0L0 7L7 7L7 0ZM1 1L1 6L6 6L6 1ZM2 2L2 5L5 5L5 2ZM54 0L54 7L61 7L61 0ZM55 1L55 6L60 6L60 1ZM56 2L56 5L59 5L59 2ZM0 54L0 61L7 61L7 54ZM1 55L1 60L6 60L6 55ZM2 56L2 59L5 59L5 56Z" fill="#000000"/></g></g></svg>
