<?xml version="1.0" encoding="UTF-8"?>
<svg xmlns="http://www.w3.org/2000/svg" version="1.1" width="180" height="180" viewBox="0 0 180 180"><rect x="0" y="0" width="180" height="180" fill="#ffffff"/><g transform="scale(3.396)"><g transform="translate(0,0)"><path fill-rule="evenodd" d="M9 0L9 1L10 1L10 0ZM11 0L11 2L10 2L10 3L11 3L11 4L9 4L9 5L12 5L12 7L11 7L11 6L10 6L10 9L9 9L9 6L8 6L8 8L4 8L4 9L3 9L3 8L0 8L0 10L1 10L1 11L0 11L0 12L1 12L1 11L2 11L2 13L0 13L0 14L2 14L2 13L3 13L3 11L7 11L7 10L5 10L5 9L9 9L9 10L8 10L8 11L10 11L10 13L8 13L8 12L6 12L6 13L5 13L5 12L4 12L4 14L3 14L3 18L0 18L0 19L3 19L3 18L4 18L4 20L6 20L6 21L5 21L5 22L6 22L6 23L5 23L5 24L4 24L4 21L3 21L3 20L2 20L2 21L0 21L0 25L2 25L2 26L0 26L0 27L1 27L1 28L0 28L0 34L2 34L2 38L3 38L3 39L4 39L4 40L5 40L5 41L4 41L4 42L3 42L3 43L2 43L2 41L0 41L0 43L1 43L1 44L3 44L3 45L4 45L4 44L3 44L3 43L7 43L7 44L6 44L6 45L7 45L7 44L8 44L8 49L9 49L9 48L10 48L10 49L11 49L11 51L10 51L10 50L8 50L8 53L11 53L11 52L15 52L15 53L16 53L16 51L17 51L17 50L20 50L20 47L21 47L21 48L22 48L22 51L19 51L19 52L17 52L17 53L19 53L19 52L22 52L22 53L23 53L23 52L24 52L24 53L25 53L25 52L26 52L26 53L29 53L29 52L30 52L30 50L29 50L29 48L30 48L30 49L31 49L31 50L32 50L32 51L31 51L31 52L32 52L32 53L33 53L33 52L34 52L34 53L35 53L35 52L36 52L36 53L39 53L39 51L37 51L37 52L36 52L36 50L37 50L37 49L41 49L41 46L42 46L42 45L43 45L43 46L44 46L44 47L43 47L43 48L42 48L42 49L43 49L43 51L42 51L42 52L41 52L41 50L40 50L40 53L43 53L43 51L44 51L44 53L45 53L45 52L46 52L46 51L47 51L47 52L48 52L48 53L49 53L49 52L48 52L48 51L49 51L49 50L50 50L50 51L51 51L51 52L50 52L50 53L53 53L53 52L52 52L52 50L53 50L53 48L52 48L52 47L53 47L53 44L52 44L52 43L53 43L53 40L52 40L52 39L53 39L53 37L49 37L49 38L48 38L48 37L47 37L47 36L48 36L48 35L49 35L49 36L50 36L50 35L53 35L53 32L52 32L52 31L53 31L53 28L52 28L52 27L53 27L53 24L52 24L52 23L53 23L53 21L51 21L51 22L52 22L52 23L51 23L51 24L50 24L50 21L49 21L49 20L50 20L50 19L51 19L51 20L53 20L53 16L52 16L52 15L53 15L53 12L52 12L52 11L53 11L53 9L52 9L52 11L51 11L51 10L50 10L50 9L51 9L51 8L50 8L50 9L49 9L49 10L48 10L48 9L47 9L47 8L45 8L45 10L43 10L43 12L42 12L42 11L41 11L41 10L40 10L40 9L41 9L41 8L44 8L44 7L45 7L45 6L44 6L44 7L43 7L43 3L44 3L44 4L45 4L45 3L44 3L44 1L43 1L43 0L42 0L42 1L41 1L41 0L38 0L38 1L35 1L35 0L34 0L34 1L33 1L33 0L32 0L32 1L31 1L31 0L29 0L29 1L31 1L31 2L28 2L28 0L27 0L27 1L26 1L26 0L24 0L24 1L23 1L23 2L22 2L22 0L20 0L20 1L19 1L19 2L18 2L18 1L16 1L16 0L14 0L14 1L12 1L12 0ZM14 1L14 2L11 2L11 3L14 3L14 4L13 4L13 5L14 5L14 6L13 6L13 7L12 7L12 8L11 8L11 9L10 9L10 11L11 11L11 13L10 13L10 14L9 14L9 15L8 15L8 14L7 14L7 13L6 13L6 14L5 14L5 15L4 15L4 16L5 16L5 17L4 17L4 18L5 18L5 19L6 19L6 20L7 20L7 21L6 21L6 22L7 22L7 21L8 21L8 20L9 20L9 23L6 23L6 24L9 24L9 26L11 26L11 24L12 24L12 26L13 26L13 27L10 27L10 28L9 28L9 30L8 30L8 29L3 29L3 28L4 28L4 25L3 25L3 23L1 23L1 24L2 24L2 25L3 25L3 26L2 26L2 27L3 27L3 28L1 28L1 30L2 30L2 31L1 31L1 32L2 32L2 33L3 33L3 36L4 36L4 37L3 37L3 38L4 38L4 39L5 39L5 38L7 38L7 39L6 39L6 40L7 40L7 39L8 39L8 40L9 40L9 41L10 41L10 42L8 42L8 41L5 41L5 42L7 42L7 43L8 43L8 44L9 44L9 45L10 45L10 48L11 48L11 49L12 49L12 51L13 51L13 50L14 50L14 51L16 51L16 50L17 50L17 49L18 49L18 48L19 48L19 47L20 47L20 46L21 46L21 47L22 47L22 46L21 46L21 45L22 45L22 44L23 44L23 45L24 45L24 44L25 44L25 43L26 43L26 42L25 42L25 43L24 43L24 41L26 41L26 40L29 40L29 41L28 41L28 42L27 42L27 44L29 44L29 43L32 43L32 44L33 44L33 45L32 45L32 46L31 46L31 45L29 45L29 46L30 46L30 48L31 48L31 49L32 49L32 50L33 50L33 51L34 51L34 52L35 52L35 49L34 49L34 48L35 48L35 47L37 47L37 48L38 48L38 47L40 47L40 46L39 46L39 45L40 45L40 43L42 43L42 44L43 44L43 45L44 45L44 44L45 44L45 43L42 43L42 42L43 42L43 41L44 41L44 42L47 42L47 44L49 44L49 45L50 45L50 46L49 46L49 47L50 47L50 48L49 48L49 49L50 49L50 50L51 50L51 49L52 49L52 48L51 48L51 47L52 47L52 46L51 46L51 45L52 45L52 44L51 44L51 43L50 43L50 42L51 42L51 41L52 41L52 40L51 40L51 39L52 39L52 38L49 38L49 39L48 39L48 38L47 38L47 37L46 37L46 36L45 36L45 37L44 37L44 35L45 35L45 34L46 34L46 33L45 33L45 32L44 32L44 31L46 31L46 30L47 30L47 31L48 31L48 33L47 33L47 34L49 34L49 35L50 35L50 34L51 34L51 33L52 33L52 32L51 32L51 31L52 31L52 30L49 30L49 29L51 29L51 27L52 27L52 24L51 24L51 25L50 25L50 24L49 24L49 25L50 25L50 26L49 26L49 27L50 27L50 28L49 28L49 29L48 29L48 30L47 30L47 29L46 29L46 30L43 30L43 29L44 29L44 28L43 28L43 29L42 29L42 31L43 31L43 32L41 32L41 33L34 33L34 32L35 32L35 31L36 31L36 30L37 30L37 29L36 29L36 28L35 28L35 25L34 25L34 24L35 24L35 23L36 23L36 22L37 22L37 21L38 21L38 23L37 23L37 25L36 25L36 26L37 26L37 27L38 27L38 31L39 31L39 32L40 32L40 30L39 30L39 29L40 29L40 26L39 26L39 25L40 25L40 24L39 24L39 21L40 21L40 22L41 22L41 25L42 25L42 27L41 27L41 28L42 28L42 27L43 27L43 26L44 26L44 25L42 25L42 24L45 24L45 23L46 23L46 24L47 24L47 21L46 21L46 20L47 20L47 19L48 19L48 18L49 18L49 19L50 19L50 18L51 18L51 19L52 19L52 18L51 18L51 17L52 17L52 16L51 16L51 15L52 15L52 14L51 14L51 13L52 13L52 12L51 12L51 11L50 11L50 10L49 10L49 11L50 11L50 12L49 12L49 13L48 13L48 12L47 12L47 11L48 11L48 10L47 10L47 9L46 9L46 10L45 10L45 11L44 11L44 12L43 12L43 13L42 13L42 15L41 15L41 16L43 16L43 17L40 17L40 16L39 16L39 15L40 15L40 14L41 14L41 13L40 13L40 10L39 10L39 9L40 9L40 8L39 8L39 7L40 7L40 6L41 6L41 7L42 7L42 5L41 5L41 3L43 3L43 2L40 2L40 1L39 1L39 2L40 2L40 4L39 4L39 5L40 5L40 6L39 6L39 7L38 7L38 4L37 4L37 3L38 3L38 2L35 2L35 1L34 1L34 2L33 2L33 1L32 1L32 2L31 2L31 3L30 3L30 4L29 4L29 3L28 3L28 2L27 2L27 3L28 3L28 4L29 4L29 5L30 5L30 4L31 4L31 5L32 5L32 6L31 6L31 7L32 7L32 6L33 6L33 7L34 7L34 6L33 6L33 5L34 5L34 4L35 4L35 5L36 5L36 6L35 6L35 7L36 7L36 8L33 8L33 9L32 9L32 8L29 8L29 12L28 12L28 11L26 11L26 12L25 12L25 9L24 9L24 6L23 6L23 5L24 5L24 4L23 4L23 3L24 3L24 2L23 2L23 3L22 3L22 2L19 2L19 3L18 3L18 2L16 2L16 3L14 3L14 2L15 2L15 1ZM8 2L8 3L9 3L9 2ZM25 2L25 3L26 3L26 2ZM34 2L34 3L33 3L33 4L32 4L32 5L33 5L33 4L34 4L34 3L35 3L35 4L36 4L36 5L37 5L37 4L36 4L36 3L35 3L35 2ZM16 3L16 5L15 5L15 6L14 6L14 7L15 7L15 8L14 8L14 9L15 9L15 10L14 10L14 11L13 11L13 10L12 10L12 9L11 9L11 10L12 10L12 11L13 11L13 12L12 12L12 14L11 14L11 15L9 15L9 16L11 16L11 15L13 15L13 16L12 16L12 17L13 17L13 18L12 18L12 20L11 20L11 17L10 17L10 18L6 18L6 17L7 17L7 16L6 16L6 15L7 15L7 14L6 14L6 15L5 15L5 16L6 16L6 17L5 17L5 18L6 18L6 19L7 19L7 20L8 20L8 19L10 19L10 20L11 20L11 21L13 21L13 22L10 22L10 23L9 23L9 24L10 24L10 23L13 23L13 22L14 22L14 23L15 23L15 24L14 24L14 25L15 25L15 26L16 26L16 27L13 27L13 28L12 28L12 29L13 29L13 31L12 31L12 32L13 32L13 33L12 33L12 34L11 34L11 32L10 32L10 31L11 31L11 28L10 28L10 30L9 30L9 32L8 32L8 31L7 31L7 30L6 30L6 31L5 31L5 30L4 30L4 34L5 34L5 35L7 35L7 36L5 36L5 37L7 37L7 38L8 38L8 39L9 39L9 40L10 40L10 41L11 41L11 38L12 38L12 36L11 36L11 35L12 35L12 34L14 34L14 35L13 35L13 36L14 36L14 37L13 37L13 38L14 38L14 39L15 39L15 40L14 40L14 41L15 41L15 42L16 42L16 43L14 43L14 42L13 42L13 43L12 43L12 42L11 42L11 43L10 43L10 44L11 44L11 47L13 47L13 48L14 48L14 49L15 49L15 50L16 50L16 49L15 49L15 48L18 48L18 47L19 47L19 46L20 46L20 45L19 45L19 44L20 44L20 43L19 43L19 42L20 42L20 39L21 39L21 40L22 40L22 43L21 43L21 44L22 44L22 43L23 43L23 44L24 44L24 43L23 43L23 41L24 41L24 40L25 40L25 39L26 39L26 38L27 38L27 39L28 39L28 38L29 38L29 37L28 37L28 36L26 36L26 35L27 35L27 32L26 32L26 31L27 31L27 29L28 29L28 30L29 30L29 31L30 31L30 30L29 30L29 28L30 28L30 29L33 29L33 30L32 30L32 31L31 31L31 32L28 32L28 33L29 33L29 36L30 36L30 37L31 37L31 39L29 39L29 40L32 40L32 41L31 41L31 42L32 42L32 43L33 43L33 44L34 44L34 45L33 45L33 46L32 46L32 47L31 47L31 48L32 48L32 49L33 49L33 50L34 50L34 49L33 49L33 48L34 48L34 47L33 47L33 46L34 46L34 45L35 45L35 46L37 46L37 47L38 47L38 45L39 45L39 44L38 44L38 43L37 43L37 44L36 44L36 43L35 43L35 44L34 44L34 43L33 43L33 42L34 42L34 41L40 41L40 42L41 42L41 40L42 40L42 41L43 41L43 40L42 40L42 37L43 37L43 38L44 38L44 41L45 41L45 40L46 40L46 41L47 41L47 40L48 40L48 39L47 39L47 38L46 38L46 37L45 37L45 38L44 38L44 37L43 37L43 36L42 36L42 35L41 35L41 34L42 34L42 33L41 33L41 34L40 34L40 37L39 37L39 38L40 38L40 39L39 39L39 40L38 40L38 37L37 37L37 36L39 36L39 35L37 35L37 34L36 34L36 35L35 35L35 36L34 36L34 35L33 35L33 34L34 34L34 33L33 33L33 32L34 32L34 31L33 31L33 30L34 30L34 29L35 29L35 30L36 30L36 29L35 29L35 28L34 28L34 27L33 27L33 26L34 26L34 25L33 25L33 24L34 24L34 23L33 23L33 22L34 22L34 21L35 21L35 22L36 22L36 21L37 21L37 20L38 20L38 19L39 19L39 20L40 20L40 21L41 21L41 22L42 22L42 21L43 21L43 22L44 22L44 23L45 23L45 22L46 22L46 21L45 21L45 22L44 22L44 19L43 19L43 20L42 20L42 21L41 21L41 19L42 19L42 18L40 18L40 17L39 17L39 16L38 16L38 13L37 13L37 12L39 12L39 11L36 11L36 10L38 10L38 9L39 9L39 8L38 8L38 7L37 7L37 6L36 6L36 7L37 7L37 8L36 8L36 10L35 10L35 12L34 12L34 11L33 11L33 10L34 10L34 9L33 9L33 10L32 10L32 9L31 9L31 10L32 10L32 11L31 11L31 12L32 12L32 13L33 13L33 14L31 14L31 15L30 15L30 16L27 16L27 18L26 18L26 15L27 15L27 14L28 14L28 15L29 15L29 13L30 13L30 12L29 12L29 13L28 13L28 12L27 12L27 14L26 14L26 13L25 13L25 12L24 12L24 10L23 10L23 8L22 8L22 7L23 7L23 6L22 6L22 3L19 3L19 4L20 4L20 5L19 5L19 6L18 6L18 5L17 5L17 4L18 4L18 3ZM16 5L16 6L15 6L15 7L16 7L16 8L15 8L15 9L16 9L16 10L15 10L15 11L14 11L14 12L13 12L13 13L14 13L14 15L15 15L15 16L14 16L14 18L13 18L13 19L16 19L16 22L17 22L17 23L16 23L16 24L15 24L15 25L16 25L16 26L17 26L17 27L16 27L16 30L14 30L14 31L16 31L16 32L14 32L14 34L15 34L15 35L14 35L14 36L15 36L15 37L16 37L16 38L15 38L15 39L18 39L18 40L15 40L15 41L16 41L16 42L17 42L17 43L16 43L16 46L15 46L15 45L14 45L14 47L16 47L16 46L17 46L17 47L18 47L18 46L17 46L17 43L18 43L18 42L17 42L17 41L18 41L18 40L19 40L19 39L20 39L20 38L21 38L21 39L22 39L22 38L21 38L21 37L22 37L22 36L21 36L21 35L23 35L23 36L24 36L24 37L23 37L23 39L25 39L25 38L26 38L26 36L25 36L25 35L26 35L26 34L25 34L25 35L24 35L24 32L25 32L25 33L26 33L26 32L25 32L25 31L26 31L26 30L25 30L25 29L22 29L22 28L19 28L19 27L23 27L23 28L24 28L24 27L23 27L23 26L24 26L24 25L23 25L23 26L21 26L21 25L22 25L22 24L25 24L25 23L26 23L26 24L27 24L27 22L25 22L25 21L29 21L29 22L30 22L30 23L29 23L29 27L31 27L31 28L32 28L32 26L33 26L33 25L32 25L32 24L30 24L30 23L31 23L31 21L29 21L29 20L31 20L31 19L32 19L32 18L33 18L33 19L34 19L34 20L33 20L33 21L32 21L32 22L33 22L33 21L34 21L34 20L35 20L35 21L36 21L36 20L35 20L35 19L38 19L38 18L39 18L39 19L40 19L40 18L39 18L39 17L38 17L38 16L37 16L37 17L34 17L34 16L35 16L35 15L36 15L36 14L37 14L37 13L36 13L36 12L35 12L35 13L34 13L34 12L33 12L33 13L34 13L34 14L33 14L33 15L34 15L34 16L33 16L33 17L32 17L32 16L30 16L30 17L29 17L29 19L26 19L26 18L24 18L24 17L25 17L25 15L26 15L26 14L24 14L24 13L23 13L23 19L22 19L22 16L21 16L21 15L22 15L22 14L21 14L21 13L22 13L22 8L21 8L21 7L22 7L22 6L21 6L21 5L20 5L20 6L19 6L19 7L18 7L18 6L17 6L17 5ZM25 5L25 8L28 8L28 5ZM16 6L16 7L17 7L17 8L16 8L16 9L17 9L17 10L16 10L16 11L15 11L15 12L14 12L14 13L15 13L15 15L17 15L17 16L18 16L18 17L17 17L17 18L16 18L16 17L15 17L15 18L16 18L16 19L17 19L17 20L18 20L18 21L17 21L17 22L18 22L18 23L17 23L17 24L18 24L18 25L17 25L17 26L18 26L18 27L17 27L17 29L19 29L19 30L18 30L18 31L17 31L17 30L16 30L16 31L17 31L17 32L18 32L18 33L17 33L17 34L16 34L16 33L15 33L15 34L16 34L16 35L15 35L15 36L16 36L16 35L17 35L17 37L18 37L18 39L19 39L19 38L20 38L20 37L19 37L19 36L20 36L20 31L21 31L21 32L22 32L22 34L23 34L23 32L24 32L24 31L25 31L25 30L24 30L24 31L23 31L23 30L22 30L22 29L21 29L21 30L20 30L20 29L19 29L19 28L18 28L18 27L19 27L19 26L20 26L20 23L21 23L21 24L22 24L22 23L23 23L23 22L24 22L24 21L25 21L25 20L26 20L26 19L25 19L25 20L24 20L24 19L23 19L23 20L22 20L22 19L21 19L21 18L20 18L20 15L21 15L21 14L20 14L20 13L19 13L19 12L21 12L21 10L20 10L20 9L21 9L21 8L20 8L20 7L21 7L21 6L20 6L20 7L19 7L19 8L18 8L18 7L17 7L17 6ZM26 6L26 7L27 7L27 6ZM29 6L29 7L30 7L30 6ZM17 8L17 9L18 9L18 8ZM19 8L19 9L20 9L20 8ZM37 8L37 9L38 9L38 8ZM1 9L1 10L2 10L2 9ZM26 9L26 10L27 10L27 9ZM17 10L17 11L16 11L16 14L17 14L17 15L18 15L18 16L19 16L19 15L20 15L20 14L19 14L19 15L18 15L18 14L17 14L17 13L18 13L18 12L19 12L19 11L18 11L18 10ZM17 11L17 12L18 12L18 11ZM45 11L45 12L46 12L46 13L47 13L47 12L46 12L46 11ZM35 13L35 14L36 14L36 13ZM39 13L39 14L40 14L40 13ZM43 13L43 14L44 14L44 13ZM49 13L49 14L47 14L47 16L46 16L46 15L43 15L43 16L46 16L46 17L45 17L45 18L46 18L46 17L47 17L47 18L48 18L48 17L49 17L49 18L50 18L50 13ZM1 16L1 17L2 17L2 16ZM47 16L47 17L48 17L48 16ZM31 17L31 18L32 18L32 17ZM33 17L33 18L34 18L34 17ZM17 18L17 19L18 19L18 20L19 20L19 21L20 21L20 22L19 22L19 23L18 23L18 24L19 24L19 23L20 23L20 22L21 22L21 21L22 21L22 22L23 22L23 21L22 21L22 20L21 20L21 19L20 19L20 18L19 18L19 19L18 19L18 18ZM19 19L19 20L20 20L20 19ZM13 20L13 21L14 21L14 22L15 22L15 21L14 21L14 20ZM2 21L2 22L3 22L3 21ZM48 21L48 22L49 22L49 21ZM38 24L38 25L39 25L39 24ZM5 25L5 28L8 28L8 25ZM25 25L25 28L28 28L28 25ZM31 25L31 26L32 26L32 25ZM45 25L45 28L48 28L48 25ZM6 26L6 27L7 27L7 26ZM26 26L26 27L27 27L27 26ZM46 26L46 27L47 27L47 26ZM50 26L50 27L51 27L51 26ZM13 28L13 29L14 29L14 28ZM33 28L33 29L34 29L34 28ZM2 29L2 30L3 30L3 29ZM19 30L19 31L18 31L18 32L19 32L19 31L20 31L20 30ZM21 30L21 31L22 31L22 32L23 32L23 31L22 31L22 30ZM48 30L48 31L49 31L49 32L50 32L50 33L49 33L49 34L50 34L50 33L51 33L51 32L50 32L50 31L49 31L49 30ZM6 31L6 32L7 32L7 31ZM9 32L9 33L5 33L5 34L8 34L8 36L9 36L9 37L8 37L8 38L9 38L9 37L10 37L10 36L9 36L9 34L10 34L10 35L11 35L11 34L10 34L10 32ZM31 32L31 33L30 33L30 36L31 36L31 35L32 35L32 34L33 34L33 33L32 33L32 32ZM31 33L31 34L32 34L32 33ZM43 33L43 34L44 34L44 33ZM17 34L17 35L18 35L18 36L19 36L19 35L18 35L18 34ZM0 36L0 38L1 38L1 36ZM33 36L33 37L32 37L32 38L33 38L33 39L34 39L34 40L33 40L33 41L32 41L32 42L33 42L33 41L34 41L34 40L35 40L35 39L37 39L37 38L35 38L35 37L36 37L36 36L35 36L35 37L34 37L34 36ZM41 36L41 37L40 37L40 38L41 38L41 37L42 37L42 36ZM27 37L27 38L28 38L28 37ZM33 37L33 38L34 38L34 37ZM45 38L45 39L46 39L46 38ZM0 39L0 40L1 40L1 39ZM12 39L12 40L13 40L13 39ZM49 39L49 40L50 40L50 39ZM29 41L29 42L30 42L30 41ZM49 41L49 42L48 42L48 43L49 43L49 44L50 44L50 43L49 43L49 42L50 42L50 41ZM13 43L13 44L14 44L14 43ZM35 44L35 45L36 45L36 44ZM37 44L37 45L38 45L38 44ZM12 45L12 46L13 46L13 45ZM25 45L25 48L28 48L28 45ZM45 45L45 48L48 48L48 45ZM26 46L26 47L27 47L27 46ZM46 46L46 47L47 47L47 46ZM50 46L50 47L51 47L51 46ZM23 48L23 51L22 51L22 52L23 52L23 51L24 51L24 50L25 50L25 49L24 49L24 48ZM43 48L43 49L44 49L44 48ZM26 49L26 52L27 52L27 51L29 51L29 50L27 50L27 49ZM46 49L46 50L45 50L45 51L46 51L46 50L47 50L47 51L48 51L48 50L47 50L47 49ZM0 0L0 7L7 7L7 0ZM1 1L1 6L6 6L6 1ZM2 2L2 5L5 5L5 2ZM46 0L46 7L53 7L53 0ZM47 1L47 6L52 6L52 1ZM48 2L48 5L51 5L51 2ZM0 46L0 53L7 53L7 46ZM1 47L1 52L6 52L6 47ZM2 48L2 51L5 51L5 48Z" fill="#000000"/></g></g></svg>
