<?xml version="1.0" encoding="UTF-8"?>
<svg xmlns="http://www.w3.org/2000/svg" version="1.1" width="180" height="180" viewBox="0 0 180 180"><rect x="0" y="0" width="180" height="180" fill="#ffffff"/><g transform="scale(3.673)"><g transform="translate(0,0)"><path fill-rule="evenodd" d="M8 0L8 1L11 1L11 2L10 2L10 3L13 3L13 4L14 4L14 5L13 5L13 6L12 6L12 4L11 4L11 5L10 5L10 4L9 4L9 2L8 2L8 5L9 5L9 6L8 6L8 7L9 7L9 8L8 8L8 9L7 9L7 8L6 8L6 9L4 9L4 8L0 8L0 10L2 10L2 11L1 11L1 12L0 12L0 14L1 14L1 12L2 12L2 14L3 14L3 12L4 12L4 13L5 13L5 14L6 14L6 15L5 15L5 16L4 16L4 17L0 17L0 19L1 19L1 18L4 18L4 19L3 19L3 20L2 20L2 21L3 21L3 22L4 22L4 24L2 24L2 23L0 23L0 24L2 24L2 25L0 25L0 28L1 28L1 27L3 27L3 28L2 28L2 29L3 29L3 30L4 30L4 31L2 31L2 30L1 30L1 29L0 29L0 30L1 30L1 31L2 31L2 32L0 32L0 33L1 33L1 34L2 34L2 36L1 36L1 35L0 35L0 36L1 36L1 37L0 37L0 38L1 38L1 40L0 40L0 41L3 41L3 40L4 40L4 39L2 39L2 37L3 37L3 36L4 36L4 35L3 35L3 34L4 34L4 31L8 31L8 34L6 34L6 33L7 33L7 32L6 32L6 33L5 33L5 34L6 34L6 35L10 35L10 36L9 36L9 37L7 37L7 36L6 36L6 37L7 37L7 38L5 38L5 37L4 37L4 38L5 38L5 39L7 39L7 40L6 40L6 41L8 41L8 42L9 42L9 43L10 43L10 44L9 44L9 45L8 45L8 49L9 49L9 45L10 45L10 49L11 49L11 48L13 48L13 49L14 49L14 48L15 48L15 49L19 49L19 48L20 48L20 49L22 49L22 48L23 48L23 47L24 47L24 48L26 48L26 49L27 49L27 48L28 48L28 47L27 47L27 48L26 48L26 47L24 47L24 46L25 46L25 45L26 45L26 46L28 46L28 45L29 45L29 44L30 44L30 41L28 41L28 40L31 40L31 38L34 38L34 37L35 37L35 38L36 38L36 37L37 37L37 36L38 36L38 34L37 34L37 33L36 33L36 34L34 34L34 33L35 33L35 32L36 32L36 31L37 31L37 30L38 30L38 32L40 32L40 33L41 33L41 34L39 34L39 37L38 37L38 38L37 38L37 39L39 39L39 37L40 37L40 35L41 35L41 34L43 34L43 33L45 33L45 34L44 34L44 35L42 35L42 37L41 37L41 38L42 38L42 37L43 37L43 36L44 36L44 38L43 38L43 39L44 39L44 38L45 38L45 37L47 37L47 38L46 38L46 39L45 39L45 40L40 40L40 42L38 42L38 41L39 41L39 40L38 40L38 41L37 41L37 42L36 42L36 43L35 43L35 41L36 41L36 40L35 40L35 41L34 41L34 42L33 42L33 43L35 43L35 44L33 44L33 45L32 45L32 46L33 46L33 45L35 45L35 44L37 44L37 45L36 45L36 46L34 46L34 48L33 48L33 47L31 47L31 45L30 45L30 46L29 46L29 47L30 47L30 49L31 49L31 48L33 48L33 49L34 49L34 48L36 48L36 49L37 49L37 48L38 48L38 47L36 47L36 46L37 46L37 45L38 45L38 44L39 44L39 43L40 43L40 45L41 45L41 47L40 47L40 46L39 46L39 47L40 47L40 48L39 48L39 49L40 49L40 48L41 48L41 47L42 47L42 46L43 46L43 45L44 45L44 47L43 47L43 48L44 48L44 47L45 47L45 46L46 46L46 45L45 45L45 43L46 43L46 42L47 42L47 41L48 41L48 43L49 43L49 41L48 41L48 40L46 40L46 39L47 39L47 38L48 38L48 37L49 37L49 36L48 36L48 37L47 37L47 35L48 35L48 33L49 33L49 30L48 30L48 31L47 31L47 32L48 32L48 33L47 33L47 35L46 35L46 36L44 36L44 35L45 35L45 34L46 34L46 33L45 33L45 31L46 31L46 30L47 30L47 29L48 29L48 28L46 28L46 27L47 27L47 26L49 26L49 25L47 25L47 23L48 23L48 24L49 24L49 23L48 23L48 22L47 22L47 23L46 23L46 24L45 24L45 22L46 22L46 21L45 21L45 22L43 22L43 21L44 21L44 20L43 20L43 21L41 21L41 22L40 22L40 20L42 20L42 19L40 19L40 20L37 20L37 19L35 19L35 17L36 17L36 18L38 18L38 19L39 19L39 18L41 18L41 17L42 17L42 16L43 16L43 15L44 15L44 17L43 17L43 18L44 18L44 17L45 17L45 16L46 16L46 18L45 18L45 19L46 19L46 18L47 18L47 17L48 17L48 16L49 16L49 15L48 15L48 16L46 16L46 15L44 15L44 14L45 14L45 13L46 13L46 14L49 14L49 13L47 13L47 11L48 11L48 12L49 12L49 11L48 11L48 10L49 10L49 8L48 8L48 10L47 10L47 11L46 11L46 12L45 12L45 10L46 10L46 9L47 9L47 8L44 8L44 9L45 9L45 10L44 10L44 11L43 11L43 9L42 9L42 8L41 8L41 9L42 9L42 10L41 10L41 11L43 11L43 12L42 12L42 13L41 13L41 12L40 12L40 13L41 13L41 14L39 14L39 11L38 11L38 10L37 10L37 9L38 9L38 8L39 8L39 5L37 5L37 6L36 6L36 7L35 7L35 6L34 6L34 7L35 7L35 8L34 8L34 9L33 9L33 10L31 10L31 9L29 9L29 5L28 5L28 4L27 4L27 3L28 3L28 2L29 2L29 3L30 3L30 4L32 4L32 5L30 5L30 7L31 7L31 6L32 6L32 7L33 7L33 6L32 6L32 5L33 5L33 4L34 4L34 3L35 3L35 2L36 2L36 4L35 4L35 5L36 5L36 4L37 4L37 3L38 3L38 2L39 2L39 4L40 4L40 3L41 3L41 0L40 0L40 1L38 1L38 0L36 0L36 1L34 1L34 0L33 0L33 1L32 1L32 0L29 0L29 1L28 1L28 2L27 2L27 3L26 3L26 2L24 2L24 1L26 1L26 0L24 0L24 1L22 1L22 0L21 0L21 1L22 1L22 2L20 2L20 0L19 0L19 2L20 2L20 5L19 5L19 3L18 3L18 4L17 4L17 5L15 5L15 2L14 2L14 1L16 1L16 0L14 0L14 1L12 1L12 0ZM17 1L17 2L16 2L16 3L17 3L17 2L18 2L18 1ZM29 1L29 2L30 2L30 3L31 3L31 2L32 2L32 4L33 4L33 3L34 3L34 1L33 1L33 2L32 2L32 1L31 1L31 2L30 2L30 1ZM36 1L36 2L37 2L37 1ZM22 3L22 4L21 4L21 5L20 5L20 6L19 6L19 8L18 8L18 9L17 9L17 7L18 7L18 6L17 6L17 7L16 7L16 6L15 6L15 5L14 5L14 6L13 6L13 8L12 8L12 6L11 6L11 7L10 7L10 6L9 6L9 7L10 7L10 8L9 8L9 9L8 9L8 10L9 10L9 11L10 11L10 12L8 12L8 15L6 15L6 16L5 16L5 17L4 17L4 18L9 18L9 19L10 19L10 20L8 20L8 19L4 19L4 21L5 21L5 20L8 20L8 21L6 21L6 22L8 22L8 21L9 21L9 22L10 22L10 24L9 24L9 32L12 32L12 33L10 33L10 35L12 35L12 33L15 33L15 34L14 34L14 35L16 35L16 36L15 36L15 38L17 38L17 39L16 39L16 40L15 40L15 41L16 41L16 40L17 40L17 41L20 41L20 42L19 42L19 43L18 43L18 42L17 42L17 43L18 43L18 44L17 44L17 46L18 46L18 45L19 45L19 47L20 47L20 48L22 48L22 47L23 47L23 46L24 46L24 45L23 45L23 46L22 46L22 41L21 41L21 40L24 40L24 39L25 39L25 40L27 40L27 38L26 38L26 39L25 39L25 37L26 37L26 34L27 34L27 36L28 36L28 39L30 39L30 38L31 38L31 36L32 36L32 37L33 37L33 36L34 36L34 34L33 34L33 33L34 33L34 32L35 32L35 31L36 31L36 30L37 30L37 29L38 29L38 30L39 30L39 29L41 29L41 30L40 30L40 32L41 32L41 33L42 33L42 32L41 32L41 31L42 31L42 30L43 30L43 32L44 32L44 31L45 31L45 30L46 30L46 28L45 28L45 27L46 27L46 26L47 26L47 25L45 25L45 27L41 27L41 28L40 28L40 25L39 25L39 24L40 24L40 22L39 22L39 21L37 21L37 20L35 20L35 19L33 19L33 18L34 18L34 17L35 17L35 16L36 16L36 17L38 17L38 18L39 18L39 16L38 16L38 15L39 15L39 14L38 14L38 12L37 12L37 13L36 13L36 11L37 11L37 10L36 10L36 9L37 9L37 8L38 8L38 6L37 6L37 8L35 8L35 9L34 9L34 10L33 10L33 12L31 12L31 11L29 11L29 9L28 9L28 11L27 11L27 9L26 9L26 10L25 10L25 9L22 9L22 8L21 8L21 9L20 9L20 10L19 10L19 8L20 8L20 6L21 6L21 7L22 7L22 4L24 4L24 3ZM25 3L25 4L26 4L26 3ZM23 5L23 8L26 8L26 5ZM27 5L27 8L28 8L28 5ZM14 6L14 8L13 8L13 9L14 9L14 11L16 11L16 12L15 12L15 13L12 13L12 12L13 12L13 11L11 11L11 13L9 13L9 15L8 15L8 16L6 16L6 17L9 17L9 16L11 16L11 17L10 17L10 19L11 19L11 21L10 21L10 22L11 22L11 21L12 21L12 24L14 24L14 23L16 23L16 24L15 24L15 25L17 25L17 23L18 23L18 22L17 22L17 23L16 23L16 21L17 21L17 20L18 20L18 19L19 19L19 17L22 17L22 18L21 18L21 19L20 19L20 20L19 20L19 21L21 21L21 22L22 22L22 24L21 24L21 23L19 23L19 24L18 24L18 26L19 26L19 27L18 27L18 28L17 28L17 29L18 29L18 30L20 30L20 31L21 31L21 30L20 30L20 29L21 29L21 28L23 28L23 27L24 27L24 29L25 29L25 32L24 32L24 31L23 31L23 32L22 32L22 33L21 33L21 32L19 32L19 31L17 31L17 30L16 30L16 29L15 29L15 28L14 28L14 26L13 26L13 25L11 25L11 26L10 26L10 27L11 27L11 29L10 29L10 30L11 30L11 31L12 31L12 32L13 32L13 31L12 31L12 30L11 30L11 29L13 29L13 28L14 28L14 29L15 29L15 31L14 31L14 32L19 32L19 33L21 33L21 34L20 34L20 35L19 35L19 36L18 36L18 37L17 37L17 38L19 38L19 36L20 36L20 35L22 35L22 36L21 36L21 37L20 37L20 38L21 38L21 39L23 39L23 38L24 38L24 36L25 36L25 33L26 33L26 30L27 30L27 33L29 33L29 34L28 34L28 35L31 35L31 33L32 33L32 32L31 32L31 33L29 33L29 32L30 32L30 29L28 29L28 30L27 30L27 29L26 29L26 28L29 28L29 26L30 26L30 28L31 28L31 27L32 27L32 29L31 29L31 31L32 31L32 29L33 29L33 30L34 30L34 31L35 31L35 29L36 29L36 28L35 28L35 29L33 29L33 27L32 27L32 26L33 26L33 25L34 25L34 24L35 24L35 23L36 23L36 22L37 22L37 21L36 21L36 22L32 22L32 23L31 23L31 21L32 21L32 19L29 19L29 20L26 20L26 19L28 19L28 18L30 18L30 17L28 17L28 16L31 16L31 18L32 18L32 17L33 17L33 16L34 16L34 15L33 15L33 14L30 14L30 15L29 15L29 13L31 13L31 12L29 12L29 13L28 13L28 16L27 16L27 18L26 18L26 19L25 19L25 18L24 18L24 19L23 19L23 20L25 20L25 21L24 21L24 22L22 22L22 21L21 21L21 19L22 19L22 18L23 18L23 17L24 17L24 15L23 15L23 14L24 14L24 13L25 13L25 17L26 17L26 15L27 15L27 11L26 11L26 12L25 12L25 11L24 11L24 10L23 10L23 11L22 11L22 12L21 12L21 11L19 11L19 12L18 12L18 13L16 13L16 12L17 12L17 11L18 11L18 10L17 10L17 11L16 11L16 9L14 9L14 8L15 8L15 6ZM24 6L24 7L25 7L25 6ZM40 6L40 7L41 7L41 6ZM6 9L6 10L5 10L5 11L4 11L4 12L5 12L5 13L6 13L6 14L7 14L7 13L6 13L6 12L7 12L7 11L6 11L6 10L7 10L7 9ZM21 9L21 10L22 10L22 9ZM39 9L39 10L40 10L40 9ZM34 10L34 12L33 12L33 13L34 13L34 12L35 12L35 11L36 11L36 10ZM23 11L23 13L24 13L24 11ZM19 12L19 14L18 14L18 15L19 15L19 16L18 16L18 17L17 17L17 18L16 18L16 17L15 17L15 18L16 18L16 19L12 19L12 20L13 20L13 23L14 23L14 22L15 22L15 21L14 21L14 20L17 20L17 19L18 19L18 17L19 17L19 16L21 16L21 14L20 14L20 12ZM43 12L43 13L42 13L42 14L41 14L41 15L40 15L40 16L42 16L42 14L44 14L44 13L45 13L45 12ZM35 13L35 14L36 14L36 13ZM10 14L10 15L11 15L11 16L12 16L12 17L14 17L14 16L16 16L16 15L17 15L17 14L15 14L15 15L14 15L14 14ZM19 14L19 15L20 15L20 14ZM37 14L37 15L38 15L38 14ZM0 15L0 16L1 16L1 15ZM12 15L12 16L14 16L14 15ZM22 15L22 16L23 16L23 15ZM31 15L31 16L33 16L33 15ZM48 18L48 19L47 19L47 20L48 20L48 19L49 19L49 18ZM34 20L34 21L35 21L35 20ZM0 21L0 22L1 22L1 21ZM25 21L25 22L27 22L27 27L28 27L28 25L29 25L29 21L28 21L28 22L27 22L27 21ZM5 23L5 26L8 26L8 23ZM23 23L23 26L26 26L26 23ZM30 23L30 24L31 24L31 25L30 25L30 26L32 26L32 25L33 25L33 24L34 24L34 23L33 23L33 24L31 24L31 23ZM37 23L37 24L36 24L36 25L35 25L35 26L36 26L36 27L37 27L37 24L38 24L38 23ZM41 23L41 26L44 26L44 23ZM6 24L6 25L7 25L7 24ZM19 24L19 26L20 26L20 27L19 27L19 28L18 28L18 29L20 29L20 28L21 28L21 26L22 26L22 25L21 25L21 26L20 26L20 24ZM24 24L24 25L25 25L25 24ZM42 24L42 25L43 25L43 24ZM38 25L38 27L39 27L39 25ZM3 26L3 27L4 27L4 28L3 28L3 29L4 29L4 28L5 28L5 27L4 27L4 26ZM15 26L15 27L17 27L17 26ZM6 27L6 28L7 28L7 29L5 29L5 30L7 30L7 29L8 29L8 28L7 28L7 27ZM12 27L12 28L13 28L13 27ZM25 27L25 28L26 28L26 27ZM38 28L38 29L39 29L39 28ZM41 28L41 29L42 29L42 28ZM22 29L22 30L23 30L23 29ZM43 29L43 30L44 30L44 29ZM28 30L28 31L29 31L29 30ZM2 32L2 33L3 33L3 32ZM23 32L23 34L22 34L22 35L23 35L23 36L22 36L22 37L21 37L21 38L23 38L23 36L24 36L24 35L23 35L23 34L24 34L24 32ZM16 34L16 35L18 35L18 34ZM32 34L32 36L33 36L33 34ZM36 34L36 35L35 35L35 37L36 37L36 35L37 35L37 34ZM9 37L9 38L7 38L7 39L8 39L8 41L9 41L9 40L10 40L10 41L11 41L11 40L12 40L12 39L13 39L13 40L14 40L14 39L13 39L13 38L14 38L14 37L12 37L12 39L11 39L11 40L10 40L10 38L11 38L11 37ZM29 37L29 38L30 38L30 37ZM18 39L18 40L19 40L19 39ZM32 39L32 41L31 41L31 42L32 42L32 41L33 41L33 40L34 40L34 39ZM45 40L45 42L46 42L46 40ZM12 41L12 42L10 42L10 43L11 43L11 45L12 45L12 46L13 46L13 44L12 44L12 43L16 43L16 42L13 42L13 41ZM23 41L23 44L26 44L26 41ZM27 41L27 42L28 42L28 43L27 43L27 45L28 45L28 43L29 43L29 42L28 42L28 41ZM41 41L41 44L44 44L44 41ZM24 42L24 43L25 43L25 42ZM42 42L42 43L43 43L43 42ZM20 43L20 45L21 45L21 43ZM37 43L37 44L38 44L38 43ZM14 44L14 47L13 47L13 48L14 48L14 47L16 47L16 48L18 48L18 47L16 47L16 44ZM47 44L47 47L46 47L46 48L45 48L45 49L49 49L49 48L47 48L47 47L49 47L49 46L48 46L48 44ZM0 0L0 7L7 7L7 0ZM1 1L1 6L6 6L6 1ZM2 2L2 5L5 5L5 2ZM42 0L42 7L49 7L49 0ZM43 1L43 6L48 6L48 1ZM44 2L44 5L47 5L47 2ZM0 42L0 49L7 49L7 42ZM1 43L1 48L6 48L6 43ZM2 44L2 47L5 47L5 44Z" fill="#000000"/></g></g></svg>
