<?xml version="1.0" encoding="UTF-8"?>
<svg xmlns="http://www.w3.org/2000/svg" version="1.1" width="180" height="180" viewBox="0 0 180 180"><rect x="0" y="0" width="180" height="180" fill="#ffffff"/><g transform="scale(3.158)"><g transform="translate(0,0)"><path fill-rule="evenodd" d="M12 0L12 1L13 1L13 2L14 2L14 3L13 3L13 4L12 4L12 2L11 2L11 3L9 3L9 2L10 2L10 1L9 1L9 2L8 2L8 3L9 3L9 4L10 4L10 7L9 7L9 6L8 6L8 8L4 8L4 10L3 10L3 8L0 8L0 9L2 9L2 11L3 11L3 12L2 12L2 13L1 13L1 10L0 10L0 14L2 14L2 16L4 16L4 15L5 15L5 14L6 14L6 15L7 15L7 14L6 14L6 13L7 13L7 12L8 12L8 15L9 15L9 13L10 13L10 15L11 15L11 18L10 18L10 19L9 19L9 16L6 16L6 17L5 17L5 18L3 18L3 17L2 17L2 18L1 18L1 15L0 15L0 19L4 19L4 20L5 20L5 18L6 18L6 19L7 19L7 18L6 18L6 17L8 17L8 19L9 19L9 20L6 20L6 21L8 21L8 23L7 23L7 22L6 22L6 23L5 23L5 21L3 21L3 20L2 20L2 21L1 21L1 20L0 20L0 25L1 25L1 26L0 26L0 27L1 27L1 26L2 26L2 25L4 25L4 26L3 26L3 27L2 27L2 29L3 29L3 30L2 30L2 31L1 31L1 29L0 29L0 32L1 32L1 33L2 33L2 34L3 34L3 36L2 36L2 35L0 35L0 36L1 36L1 38L0 38L0 44L1 44L1 41L2 41L2 43L3 43L3 44L2 44L2 45L1 45L1 46L0 46L0 48L5 48L5 47L7 47L7 46L8 46L8 53L9 53L9 51L10 51L10 52L11 52L11 53L12 53L12 51L13 51L13 52L14 52L14 51L15 51L15 52L16 52L16 54L18 54L18 57L20 57L20 55L21 55L21 56L22 56L22 57L24 57L24 56L26 56L26 57L30 57L30 55L29 55L29 54L31 54L31 55L32 55L32 57L33 57L33 56L34 56L34 57L35 57L35 56L34 56L34 55L33 55L33 54L34 54L34 53L36 53L36 57L37 57L37 56L38 56L38 55L37 55L37 54L38 54L38 53L39 53L39 54L40 54L40 55L39 55L39 57L41 57L41 54L42 54L42 53L43 53L43 54L44 54L44 55L43 55L43 56L42 56L42 57L46 57L46 56L45 56L45 54L46 54L46 53L47 53L47 57L50 57L50 55L51 55L51 56L52 56L52 57L53 57L53 56L54 56L54 55L55 55L55 57L57 57L57 56L56 56L56 55L57 55L57 54L56 54L56 53L55 53L55 54L54 54L54 53L53 53L53 52L54 52L54 51L55 51L55 52L57 52L57 48L56 48L56 47L57 47L57 44L56 44L56 43L57 43L57 40L56 40L56 41L53 41L53 40L54 40L54 39L55 39L55 38L56 38L56 39L57 39L57 38L56 38L56 36L57 36L57 32L56 32L56 31L57 31L57 28L56 28L56 27L57 27L57 25L55 25L55 26L54 26L54 27L53 27L53 24L54 24L54 23L57 23L57 21L56 21L56 20L57 20L57 16L56 16L56 15L57 15L57 12L56 12L56 11L57 11L57 9L55 9L55 8L54 8L54 9L51 9L51 8L49 8L49 9L51 9L51 12L52 12L52 13L51 13L51 14L52 14L52 15L51 15L51 16L50 16L50 15L49 15L49 14L48 14L48 13L47 13L47 12L48 12L48 11L49 11L49 12L50 12L50 11L49 11L49 10L48 10L48 9L47 9L47 8L48 8L48 7L49 7L49 6L48 6L48 7L47 7L47 5L48 5L48 0L42 0L42 1L41 1L41 0L40 0L40 1L39 1L39 0L38 0L38 1L37 1L37 0L36 0L36 1L35 1L35 0L34 0L34 1L33 1L33 4L32 4L32 3L31 3L31 4L30 4L30 3L29 3L29 4L27 4L27 3L28 3L28 1L30 1L30 2L32 2L32 0L26 0L26 2L27 2L27 3L24 3L24 2L25 2L25 0L24 0L24 2L20 2L20 1L21 1L21 0L20 0L20 1L19 1L19 2L16 2L16 1L17 1L17 0ZM22 0L22 1L23 1L23 0ZM14 1L14 2L15 2L15 3L14 3L14 4L13 4L13 5L14 5L14 6L13 6L13 7L12 7L12 6L11 6L11 7L10 7L10 8L12 8L12 9L11 9L11 10L9 10L9 9L6 9L6 10L4 10L4 11L6 11L6 12L5 12L5 13L6 13L6 12L7 12L7 11L8 11L8 10L9 10L9 12L11 12L11 13L12 13L12 12L13 12L13 10L12 10L12 9L14 9L14 8L15 8L15 9L16 9L16 10L14 10L14 11L18 11L18 12L14 12L14 14L13 14L13 15L12 15L12 14L11 14L11 15L12 15L12 16L13 16L13 17L12 17L12 18L11 18L11 19L10 19L10 20L9 20L9 21L11 21L11 22L9 22L9 24L8 24L8 25L9 25L9 28L11 28L11 27L10 27L10 26L12 26L12 25L13 25L13 23L14 23L14 22L15 22L15 24L14 24L14 25L16 25L16 26L14 26L14 28L15 28L15 29L12 29L12 30L9 30L9 32L8 32L8 33L6 33L6 32L7 32L7 31L6 31L6 32L5 32L5 31L4 31L4 30L3 30L3 31L4 31L4 32L2 32L2 33L6 33L6 34L4 34L4 36L3 36L3 37L2 37L2 38L3 38L3 39L1 39L1 40L3 40L3 39L4 39L4 38L5 38L5 37L4 37L4 36L7 36L7 37L6 37L6 38L7 38L7 39L6 39L6 40L7 40L7 41L6 41L6 42L7 42L7 43L5 43L5 41L3 41L3 43L5 43L5 44L4 44L4 45L5 45L5 44L7 44L7 45L6 45L6 46L7 46L7 45L9 45L9 46L10 46L10 47L9 47L9 48L10 48L10 51L11 51L11 50L12 50L12 48L13 48L13 51L14 51L14 50L15 50L15 51L16 51L16 52L17 52L17 53L18 53L18 52L19 52L19 53L20 53L20 54L19 54L19 55L20 55L20 54L21 54L21 55L22 55L22 56L23 56L23 55L26 55L26 56L27 56L27 55L26 55L26 54L25 54L25 53L24 53L24 52L25 52L25 51L24 51L24 52L23 52L23 50L25 50L25 48L27 48L27 47L29 47L29 48L30 48L30 46L32 46L32 45L30 45L30 46L29 46L29 44L30 44L30 42L31 42L31 43L32 43L32 42L31 42L31 41L32 41L32 38L33 38L33 39L34 39L34 40L33 40L33 41L34 41L34 43L33 43L33 47L34 47L34 48L33 48L33 53L32 53L32 52L31 52L31 54L33 54L33 53L34 53L34 52L35 52L35 51L36 51L36 50L37 50L37 51L38 51L38 52L37 52L37 53L38 53L38 52L39 52L39 51L42 51L42 52L41 52L41 53L42 53L42 52L43 52L43 53L44 53L44 54L45 54L45 53L46 53L46 52L47 52L47 53L48 53L48 52L47 52L47 51L48 51L48 50L47 50L47 49L48 49L48 48L50 48L50 46L51 46L51 47L53 47L53 48L54 48L54 50L53 50L53 51L54 51L54 50L55 50L55 49L56 49L56 48L55 48L55 47L56 47L56 46L55 46L55 45L56 45L56 44L55 44L55 43L56 43L56 42L53 42L53 41L51 41L51 39L52 39L52 40L53 40L53 39L54 39L54 38L55 38L55 36L56 36L56 35L54 35L54 34L55 34L55 33L56 33L56 32L55 32L55 31L56 31L56 30L53 30L53 31L54 31L54 32L52 32L52 31L51 31L51 32L49 32L49 31L48 31L48 30L47 30L47 29L48 29L48 28L47 28L47 27L48 27L48 26L49 26L49 24L51 24L51 23L52 23L52 22L53 22L53 23L54 23L54 22L55 22L55 19L54 19L54 18L55 18L55 17L56 17L56 16L55 16L55 15L56 15L56 14L55 14L55 13L56 13L56 12L55 12L55 11L56 11L56 10L55 10L55 11L53 11L53 10L52 10L52 12L53 12L53 13L52 13L52 14L55 14L55 15L54 15L54 18L53 18L53 17L52 17L52 16L51 16L51 17L50 17L50 16L49 16L49 15L48 15L48 14L47 14L47 13L46 13L46 12L47 12L47 11L48 11L48 10L47 10L47 9L46 9L46 10L45 10L45 9L44 9L44 10L43 10L43 9L41 9L41 10L40 10L40 11L41 11L41 10L42 10L42 12L41 12L41 13L40 13L40 12L39 12L39 9L40 9L40 8L39 8L39 7L40 7L40 6L41 6L41 7L42 7L42 6L41 6L41 5L42 5L42 4L43 4L43 5L44 5L44 6L43 6L43 7L44 7L44 6L45 6L45 8L47 8L47 7L46 7L46 5L47 5L47 3L46 3L46 2L47 2L47 1L46 1L46 2L45 2L45 1L43 1L43 3L42 3L42 2L41 2L41 1L40 1L40 3L38 3L38 2L37 2L37 1L36 1L36 2L35 2L35 3L34 3L34 4L36 4L36 5L35 5L35 7L34 7L34 6L33 6L33 7L34 7L34 8L35 8L35 9L34 9L34 10L33 10L33 9L32 9L32 5L31 5L31 9L28 9L28 10L27 10L27 11L25 11L25 10L26 10L26 9L25 9L25 8L26 8L26 6L25 6L25 5L26 5L26 4L25 4L25 5L24 5L24 4L23 4L23 3L22 3L22 4L21 4L21 5L20 5L20 4L19 4L19 3L20 3L20 2L19 2L19 3L18 3L18 4L17 4L17 3L16 3L16 2L15 2L15 1ZM37 3L37 4L38 4L38 5L36 5L36 9L35 9L35 10L36 10L36 12L35 12L35 13L37 13L37 14L36 14L36 15L35 15L35 16L34 16L34 15L33 15L33 12L34 12L34 11L33 11L33 10L32 10L32 9L31 9L31 10L32 10L32 11L31 11L31 12L30 12L30 11L29 11L29 10L28 10L28 11L27 11L27 13L29 13L29 14L28 14L28 21L27 21L27 22L26 22L26 21L25 21L25 22L24 22L24 21L23 21L23 20L26 20L26 19L27 19L27 18L22 18L22 17L23 17L23 16L24 16L24 15L21 15L21 16L22 16L22 17L21 17L21 18L20 18L20 17L19 17L19 16L20 16L20 14L19 14L19 12L22 12L22 13L21 13L21 14L23 14L23 12L24 12L24 11L23 11L23 10L24 10L24 7L25 7L25 6L24 6L24 5L23 5L23 6L22 6L22 5L21 5L21 6L20 6L20 5L19 5L19 4L18 4L18 5L19 5L19 6L18 6L18 7L17 7L17 6L16 6L16 7L15 7L15 6L14 6L14 7L13 7L13 8L14 8L14 7L15 7L15 8L16 8L16 7L17 7L17 8L18 8L18 11L19 11L19 12L18 12L18 13L17 13L17 14L16 14L16 13L15 13L15 14L14 14L14 15L13 15L13 16L14 16L14 17L13 17L13 18L14 18L14 19L15 19L15 20L14 20L14 21L15 21L15 20L16 20L16 22L17 22L17 23L16 23L16 25L17 25L17 24L18 24L18 27L15 27L15 28L18 28L18 29L17 29L17 30L16 30L16 29L15 29L15 30L14 30L14 33L15 33L15 34L16 34L16 35L14 35L14 34L13 34L13 33L12 33L12 31L13 31L13 30L12 30L12 31L10 31L10 32L9 32L9 37L7 37L7 38L9 38L9 39L10 39L10 35L11 35L11 37L12 37L12 35L11 35L11 34L13 34L13 35L14 35L14 37L13 37L13 38L14 38L14 41L15 41L15 42L14 42L14 43L15 43L15 44L13 44L13 43L11 43L11 45L10 45L10 46L11 46L11 47L10 47L10 48L11 48L11 47L12 47L12 46L13 46L13 47L14 47L14 46L13 46L13 45L15 45L15 46L16 46L16 47L15 47L15 48L16 48L16 47L17 47L17 48L18 48L18 49L17 49L17 50L16 50L16 49L15 49L15 50L16 50L16 51L17 51L17 52L18 52L18 51L19 51L19 52L20 52L20 51L21 51L21 54L22 54L22 55L23 55L23 54L24 54L24 53L23 53L23 52L22 52L22 50L23 50L23 48L25 48L25 47L26 47L26 46L28 46L28 45L27 45L27 44L29 44L29 43L27 43L27 42L28 42L28 41L27 41L27 40L28 40L28 39L27 39L27 38L28 38L28 36L29 36L29 34L30 34L30 37L29 37L29 41L31 41L31 40L30 40L30 39L31 39L31 38L32 38L32 37L33 37L33 36L34 36L34 37L36 37L36 38L35 38L35 40L36 40L36 41L35 41L35 42L36 42L36 43L34 43L34 44L35 44L35 46L36 46L36 47L35 47L35 48L34 48L34 49L35 49L35 50L34 50L34 51L35 51L35 50L36 50L36 49L37 49L37 50L38 50L38 49L39 49L39 50L42 50L42 51L43 51L43 52L44 52L44 53L45 53L45 52L46 52L46 50L45 50L45 48L46 48L46 49L47 49L47 48L46 48L46 47L45 47L45 46L46 46L46 45L47 45L47 46L48 46L48 47L49 47L49 46L50 46L50 45L51 45L51 44L52 44L52 43L53 43L53 44L54 44L54 43L53 43L53 42L52 42L52 43L51 43L51 41L49 41L49 40L50 40L50 39L51 39L51 38L52 38L52 39L53 39L53 38L54 38L54 37L53 37L53 38L52 38L52 37L51 37L51 34L52 34L52 35L53 35L53 36L54 36L54 35L53 35L53 34L54 34L54 33L53 33L53 34L52 34L52 32L51 32L51 34L49 34L49 35L48 35L48 36L49 36L49 35L50 35L50 37L49 37L49 38L48 38L48 37L47 37L47 36L46 36L46 35L44 35L44 34L46 34L46 33L47 33L47 34L48 34L48 33L49 33L49 32L48 32L48 33L47 33L47 32L46 32L46 31L43 31L43 33L44 33L44 34L43 34L43 36L42 36L42 35L39 35L39 36L38 36L38 35L37 35L37 34L38 34L38 33L39 33L39 34L42 34L42 30L40 30L40 29L41 29L41 28L42 28L42 29L43 29L43 30L46 30L46 29L47 29L47 28L46 28L46 27L45 27L45 28L44 28L44 27L43 27L43 28L42 28L42 27L40 27L40 26L41 26L41 24L42 24L42 23L36 23L36 21L37 21L37 22L38 22L38 21L39 21L39 22L42 22L42 21L43 21L43 22L44 22L44 24L43 24L43 26L44 26L44 25L45 25L45 24L46 24L46 25L47 25L47 26L48 26L48 25L47 25L47 24L48 24L48 23L49 23L49 22L50 22L50 23L51 23L51 22L52 22L52 21L53 21L53 22L54 22L54 21L53 21L53 20L54 20L54 19L53 19L53 18L52 18L52 17L51 17L51 18L52 18L52 20L51 20L51 19L49 19L49 18L50 18L50 17L49 17L49 18L48 18L48 19L49 19L49 20L51 20L51 22L50 22L50 21L49 21L49 22L48 22L48 20L46 20L46 19L44 19L44 18L46 18L46 17L47 17L47 16L48 16L48 15L46 15L46 16L45 16L45 15L43 15L43 16L42 16L42 15L41 15L41 14L42 14L42 13L43 13L43 14L46 14L46 13L45 13L45 12L46 12L46 11L45 11L45 10L44 10L44 11L43 11L43 12L42 12L42 13L41 13L41 14L40 14L40 13L39 13L39 12L38 12L38 13L37 13L37 11L38 11L38 9L39 9L39 8L38 8L38 7L39 7L39 5L41 5L41 4L42 4L42 3L41 3L41 4L38 4L38 3ZM43 3L43 4L44 4L44 5L46 5L46 3L45 3L45 4L44 4L44 3ZM16 4L16 5L17 5L17 4ZM27 5L27 8L30 8L30 5ZM19 6L19 7L18 7L18 8L19 8L19 7L20 7L20 10L19 10L19 11L22 11L22 12L23 12L23 11L22 11L22 8L23 8L23 7L24 7L24 6L23 6L23 7L22 7L22 6L21 6L21 7L20 7L20 6ZM28 6L28 7L29 7L29 6ZM37 6L37 7L38 7L38 6ZM21 7L21 8L22 8L22 7ZM37 8L37 9L36 9L36 10L37 10L37 9L38 9L38 8ZM6 10L6 11L7 11L7 10ZM11 11L11 12L12 12L12 11ZM3 12L3 13L2 13L2 14L3 14L3 13L4 13L4 12ZM29 12L29 13L30 13L30 16L29 16L29 17L30 17L30 18L29 18L29 19L30 19L30 21L28 21L28 22L27 22L27 23L26 23L26 25L25 25L25 23L24 23L24 22L23 22L23 23L24 23L24 26L26 26L26 25L27 25L27 24L29 24L29 23L30 23L30 24L31 24L31 25L28 25L28 26L31 26L31 25L32 25L32 26L33 26L33 25L32 25L32 24L31 24L31 23L32 23L32 22L33 22L33 24L34 24L34 23L35 23L35 25L34 25L34 28L35 28L35 26L36 26L36 27L39 27L39 26L40 26L40 25L39 25L39 24L37 24L37 25L36 25L36 23L35 23L35 21L34 21L34 22L33 22L33 21L32 21L32 20L31 20L31 19L32 19L32 18L33 18L33 20L35 20L35 19L36 19L36 18L37 18L37 19L38 19L38 20L37 20L37 21L38 21L38 20L39 20L39 19L40 19L40 18L41 18L41 17L42 17L42 20L41 20L41 21L42 21L42 20L43 20L43 21L44 21L44 22L45 22L45 21L46 21L46 24L47 24L47 23L48 23L48 22L47 22L47 21L46 21L46 20L45 20L45 21L44 21L44 20L43 20L43 17L42 17L42 16L41 16L41 17L40 17L40 16L39 16L39 15L40 15L40 14L39 14L39 13L38 13L38 16L37 16L37 17L36 17L36 16L35 16L35 17L34 17L34 16L33 16L33 17L30 17L30 16L32 16L32 13L30 13L30 12ZM43 12L43 13L44 13L44 12ZM25 13L25 14L26 14L26 13ZM15 14L15 15L14 15L14 16L15 16L15 17L16 17L16 18L15 18L15 19L16 19L16 20L17 20L17 21L18 21L18 22L19 22L19 23L18 23L18 24L19 24L19 23L20 23L20 26L21 26L21 27L20 27L20 29L19 29L19 30L20 30L20 32L19 32L19 31L18 31L18 30L17 30L17 31L16 31L16 30L15 30L15 31L16 31L16 32L15 32L15 33L16 33L16 34L17 34L17 35L16 35L16 36L17 36L17 37L16 37L16 38L17 38L17 39L16 39L16 40L15 40L15 41L16 41L16 42L15 42L15 43L16 43L16 42L17 42L17 43L18 43L18 44L15 44L15 45L16 45L16 46L17 46L17 47L18 47L18 48L19 48L19 49L20 49L20 50L19 50L19 51L20 51L20 50L21 50L21 49L22 49L22 48L23 48L23 47L22 47L22 46L21 46L21 45L22 45L22 44L23 44L23 46L24 46L24 45L26 45L26 44L27 44L27 43L26 43L26 42L27 42L27 41L26 41L26 42L25 42L25 40L23 40L23 39L25 39L25 37L27 37L27 34L29 34L29 33L30 33L30 31L28 31L28 32L27 32L27 31L26 31L26 32L23 32L23 37L24 37L24 38L23 38L23 39L22 39L22 40L21 40L21 39L20 39L20 38L21 38L21 36L22 36L22 34L21 34L21 33L22 33L22 32L21 32L21 31L24 31L24 30L26 30L26 28L24 28L24 27L22 27L22 24L21 24L21 23L22 23L22 22L21 22L21 19L22 19L22 20L23 20L23 19L22 19L22 18L21 18L21 19L20 19L20 18L17 18L17 17L18 17L18 16L19 16L19 15L18 15L18 14L17 14L17 15L16 15L16 14ZM15 15L15 16L16 16L16 15ZM17 15L17 16L18 16L18 15ZM38 16L38 17L37 17L37 18L38 18L38 17L39 17L39 18L40 18L40 17L39 17L39 16ZM33 17L33 18L34 18L34 17ZM35 17L35 18L36 18L36 17ZM16 18L16 19L17 19L17 20L18 20L18 21L19 21L19 22L20 22L20 23L21 23L21 22L20 22L20 21L19 21L19 20L20 20L20 19L17 19L17 18ZM11 19L11 21L12 21L12 22L11 22L11 23L13 23L13 20L12 20L12 19ZM2 21L2 22L1 22L1 24L2 24L2 23L3 23L3 24L5 24L5 25L6 25L6 26L7 26L7 25L6 25L6 24L7 24L7 23L6 23L6 24L5 24L5 23L3 23L3 21ZM31 21L31 22L32 22L32 21ZM28 22L28 23L29 23L29 22ZM9 24L9 25L12 25L12 24ZM37 25L37 26L38 26L38 25ZM50 25L50 26L52 26L52 25ZM55 26L55 27L54 27L54 29L56 29L56 28L55 28L55 27L56 27L56 26ZM5 27L5 30L8 30L8 27ZM18 27L18 28L19 28L19 27ZM21 27L21 28L22 28L22 29L21 29L21 30L23 30L23 29L24 29L24 28L22 28L22 27ZM27 27L27 30L30 30L30 27ZM49 27L49 30L52 30L52 27ZM3 28L3 29L4 29L4 28ZM6 28L6 29L7 29L7 28ZM28 28L28 29L29 29L29 28ZM37 28L37 29L36 29L36 30L37 30L37 31L38 31L38 32L37 32L37 33L36 33L36 32L35 32L35 29L31 29L31 31L32 31L32 30L33 30L33 31L34 31L34 32L33 32L33 33L32 33L32 35L34 35L34 36L35 36L35 35L36 35L36 34L37 34L37 33L38 33L38 32L39 32L39 33L40 33L40 32L39 32L39 31L40 31L40 30L39 30L39 29L40 29L40 28ZM43 28L43 29L44 29L44 28ZM45 28L45 29L46 29L46 28ZM50 28L50 29L51 29L51 28ZM37 29L37 30L38 30L38 29ZM17 31L17 32L18 32L18 33L17 33L17 34L20 34L20 35L17 35L17 36L18 36L18 37L17 37L17 38L20 38L20 37L19 37L19 36L20 36L20 35L21 35L21 34L20 34L20 33L19 33L19 32L18 32L18 31ZM10 32L10 34L11 34L11 32ZM34 32L34 33L33 33L33 34L34 34L34 33L35 33L35 34L36 34L36 33L35 33L35 32ZM45 32L45 33L46 33L46 32ZM25 33L25 34L24 34L24 35L26 35L26 34L27 34L27 33ZM6 34L6 35L8 35L8 34ZM31 36L31 37L30 37L30 38L31 38L31 37L32 37L32 36ZM37 36L37 37L38 37L38 38L36 38L36 39L38 39L38 40L37 40L37 41L38 41L38 44L37 44L37 43L36 43L36 44L37 44L37 45L36 45L36 46L37 46L37 47L38 47L38 48L37 48L37 49L38 49L38 48L39 48L39 49L40 49L40 48L41 48L41 49L42 49L42 50L43 50L43 51L45 51L45 50L43 50L43 49L42 49L42 48L43 48L43 47L44 47L44 46L45 46L45 45L46 45L46 44L47 44L47 45L48 45L48 46L49 46L49 45L50 45L50 44L49 44L49 43L50 43L50 42L49 42L49 41L48 41L48 40L49 40L49 39L48 39L48 38L47 38L47 37L46 37L46 36L45 36L45 37L44 37L44 36L43 36L43 37L42 37L42 36L41 36L41 37L38 37L38 36ZM3 37L3 38L4 38L4 37ZM41 37L41 38L40 38L40 39L39 39L39 40L38 40L38 41L45 41L45 42L43 42L43 44L42 44L42 45L43 45L43 46L44 46L44 45L45 45L45 44L46 44L46 43L45 43L45 42L46 42L46 41L47 41L47 40L46 40L46 41L45 41L45 39L46 39L46 37L45 37L45 38L44 38L44 37L43 37L43 38L44 38L44 40L42 40L42 39L41 39L41 38L42 38L42 37ZM50 37L50 38L51 38L51 37ZM11 38L11 39L12 39L12 38ZM7 39L7 40L8 40L8 41L7 41L7 42L9 42L9 41L10 41L10 42L11 42L11 40L8 40L8 39ZM17 39L17 40L16 40L16 41L17 41L17 40L18 40L18 43L19 43L19 44L18 44L18 45L17 45L17 46L18 46L18 47L19 47L19 48L20 48L20 47L21 47L21 48L22 48L22 47L21 47L21 46L18 46L18 45L20 45L20 43L21 43L21 44L22 44L22 43L23 43L23 44L24 44L24 43L25 43L25 42L24 42L24 41L23 41L23 40L22 40L22 41L21 41L21 42L20 42L20 39ZM12 40L12 42L13 42L13 40ZM19 42L19 43L20 43L20 42ZM21 42L21 43L22 43L22 42ZM41 42L41 43L39 43L39 44L38 44L38 45L39 45L39 46L38 46L38 47L39 47L39 48L40 48L40 47L41 47L41 48L42 48L42 46L40 46L40 45L41 45L41 43L42 43L42 42ZM47 42L47 43L49 43L49 42ZM7 43L7 44L9 44L9 43ZM44 43L44 44L43 44L43 45L44 45L44 44L45 44L45 43ZM12 44L12 45L13 45L13 44ZM39 44L39 45L40 45L40 44ZM53 45L53 46L54 46L54 47L55 47L55 46L54 46L54 45ZM1 46L1 47L2 47L2 46ZM3 46L3 47L5 47L5 46ZM39 46L39 47L40 47L40 46ZM6 48L6 49L7 49L7 48ZM35 48L35 49L36 49L36 48ZM27 49L27 52L30 52L30 49ZM31 49L31 51L32 51L32 49ZM49 49L49 52L52 52L52 49ZM17 50L17 51L18 51L18 50ZM28 50L28 51L29 51L29 50ZM50 50L50 51L51 51L51 50ZM13 53L13 54L14 54L14 55L13 55L13 56L15 56L15 57L16 57L16 56L17 56L17 55L16 55L16 56L15 56L15 54L14 54L14 53ZM51 53L51 55L52 55L52 56L53 56L53 55L54 55L54 54L53 54L53 55L52 55L52 53ZM8 54L8 57L9 57L9 56L12 56L12 55L11 55L11 54L10 54L10 55L9 55L9 54ZM49 54L49 55L48 55L48 56L49 56L49 55L50 55L50 54ZM55 54L55 55L56 55L56 54ZM28 55L28 56L29 56L29 55ZM0 0L0 7L7 7L7 0ZM1 1L1 6L6 6L6 1ZM2 2L2 5L5 5L5 2ZM50 0L50 7L57 7L57 0ZM51 1L51 6L56 6L56 1ZM52 2L52 5L55 5L55 2ZM0 50L0 57L7 57L7 50ZM1 51L1 56L6 56L6 51ZM2 52L2 55L5 55L5 52Z" fill="#000000"/></g></g></svg>
