<?xml version="1.0" encoding="UTF-8"?>
<svg xmlns="http://www.w3.org/2000/svg" version="1.1" width="180" height="180" viewBox="0 0 180 180"><rect x="0" y="0" width="180" height="180" fill="#ffffff"/><g transform="scale(3.158)"><g transform="translate(0,0)"><path fill-rule="evenodd" d="M9 0L9 2L8 2L8 3L9 3L9 2L10 2L10 0ZM11 0L11 1L13 1L13 2L14 2L14 3L13 3L13 4L14 4L14 3L15 3L15 6L14 6L14 5L12 5L12 2L11 2L11 3L10 3L10 4L9 4L9 6L8 6L8 8L4 8L4 11L5 11L5 12L3 12L3 11L2 11L2 10L3 10L3 8L0 8L0 9L2 9L2 10L0 10L0 12L1 12L1 11L2 11L2 12L3 12L3 14L2 14L2 13L1 13L1 15L0 15L0 16L2 16L2 18L1 18L1 17L0 17L0 19L1 19L1 21L0 21L0 24L1 24L1 25L0 25L0 26L1 26L1 28L0 28L0 29L1 29L1 30L0 30L0 33L1 33L1 35L0 35L0 36L1 36L1 35L2 35L2 33L3 33L3 35L4 35L4 36L3 36L3 38L2 38L2 37L1 37L1 38L0 38L0 40L3 40L3 41L1 41L1 42L0 42L0 43L1 43L1 45L0 45L0 48L5 48L5 47L7 47L7 46L5 46L5 47L3 47L3 46L2 46L2 45L8 45L8 43L7 43L7 42L5 42L5 43L4 43L4 44L3 44L3 42L4 42L4 40L6 40L6 41L7 41L7 40L8 40L8 39L9 39L9 40L10 40L10 41L9 41L9 42L10 42L10 44L9 44L9 46L8 46L8 48L6 48L6 49L8 49L8 53L9 53L9 54L8 54L8 57L9 57L9 54L10 54L10 56L11 56L11 57L13 57L13 55L14 55L14 56L15 56L15 57L16 57L16 55L17 55L17 56L18 56L18 57L20 57L20 55L21 55L21 56L22 56L22 57L24 57L24 56L25 56L25 55L23 55L23 54L24 54L24 51L25 51L25 53L26 53L26 55L29 55L29 56L26 56L26 57L30 57L30 55L31 55L31 56L32 56L32 57L35 57L35 56L34 56L34 55L33 55L33 54L32 54L32 53L33 53L33 50L34 50L34 49L35 49L35 50L36 50L36 51L35 51L35 52L34 52L34 53L35 53L35 54L36 54L36 57L37 57L37 56L38 56L38 57L43 57L43 56L44 56L44 57L47 57L47 56L48 56L48 57L50 57L50 56L48 56L48 55L49 55L49 54L50 54L50 55L51 55L51 56L52 56L52 57L53 57L53 56L54 56L54 55L55 55L55 57L57 57L57 56L56 56L56 55L57 55L57 54L56 54L56 53L57 53L57 52L56 52L56 51L57 51L57 48L56 48L56 47L57 47L57 45L54 45L54 46L56 46L56 47L55 47L55 48L56 48L56 49L55 49L55 50L54 50L54 49L53 49L53 48L51 48L51 47L53 47L53 46L52 46L52 43L53 43L53 44L54 44L54 43L53 43L53 42L56 42L56 43L55 43L55 44L57 44L57 40L56 40L56 41L53 41L53 42L52 42L52 41L49 41L49 40L52 40L52 39L53 39L53 40L54 40L54 39L55 39L55 38L56 38L56 39L57 39L57 38L56 38L56 37L57 37L57 36L56 36L56 35L57 35L57 32L56 32L56 31L57 31L57 28L56 28L56 27L57 27L57 25L56 25L56 23L57 23L57 20L56 20L56 19L57 19L57 18L54 18L54 17L53 17L53 14L56 14L56 15L55 15L55 16L56 16L56 17L57 17L57 16L56 16L56 15L57 15L57 12L56 12L56 11L57 11L57 9L55 9L55 8L54 8L54 9L53 9L53 10L52 10L52 9L51 9L51 8L49 8L49 6L48 6L48 7L47 7L47 5L48 5L48 0L46 0L46 1L43 1L43 0L41 0L41 1L39 1L39 0L38 0L38 1L37 1L37 0L36 0L36 1L35 1L35 0L34 0L34 1L33 1L33 2L32 2L32 0L28 0L28 1L29 1L29 3L30 3L30 4L28 4L28 2L27 2L27 0L26 0L26 2L27 2L27 3L25 3L25 4L24 4L24 3L23 3L23 2L24 2L24 1L25 1L25 0L23 0L23 1L21 1L21 0L20 0L20 1L19 1L19 2L18 2L18 1L17 1L17 0L16 0L16 1L15 1L15 2L14 2L14 1L13 1L13 0ZM16 1L16 2L15 2L15 3L16 3L16 5L17 5L17 4L18 4L18 6L17 6L17 7L18 7L18 8L16 8L16 6L15 6L15 8L16 8L16 10L17 10L17 11L16 11L16 12L15 12L15 11L14 11L14 10L15 10L15 9L14 9L14 8L13 8L13 9L12 9L12 8L9 8L9 12L10 12L10 9L12 9L12 10L11 10L11 11L12 11L12 12L13 12L13 13L10 13L10 15L11 15L11 16L10 16L10 17L11 17L11 18L12 18L12 17L14 17L14 19L16 19L16 20L14 20L14 22L15 22L15 23L16 23L16 26L15 26L15 24L14 24L14 23L13 23L13 22L12 22L12 19L10 19L10 18L9 18L9 20L8 20L8 19L6 19L6 20L8 20L8 22L9 22L9 25L10 25L10 27L9 27L9 28L10 28L10 29L12 29L12 30L13 30L13 31L12 31L12 32L11 32L11 31L10 31L10 30L9 30L9 31L8 31L8 32L9 32L9 33L8 33L8 34L7 34L7 33L6 33L6 32L7 32L7 31L5 31L5 32L4 32L4 34L5 34L5 35L6 35L6 36L5 36L5 38L8 38L8 36L9 36L9 37L11 37L11 39L13 39L13 40L12 40L12 41L13 41L13 42L11 42L11 43L13 43L13 42L14 42L14 44L13 44L13 45L14 45L14 44L15 44L15 45L16 45L16 46L15 46L15 47L18 47L18 48L11 48L11 49L12 49L12 51L11 51L11 50L10 50L10 52L9 52L9 53L10 53L10 52L12 52L12 53L11 53L11 56L12 56L12 53L13 53L13 54L14 54L14 53L16 53L16 54L15 54L15 55L16 55L16 54L17 54L17 55L18 55L18 54L19 54L19 55L20 55L20 54L21 54L21 55L22 55L22 56L23 56L23 55L22 55L22 54L21 54L21 53L22 53L22 52L23 52L23 51L21 51L21 49L22 49L22 50L25 50L25 51L26 51L26 50L25 50L25 49L26 49L26 48L27 48L27 46L28 46L28 48L29 48L29 46L30 46L30 43L29 43L29 44L28 44L28 45L26 45L26 48L25 48L25 43L22 43L22 40L21 40L21 39L22 39L22 38L21 38L21 36L19 36L19 37L20 37L20 38L17 38L17 36L18 36L18 34L17 34L17 33L18 33L18 32L19 32L19 33L20 33L20 34L19 34L19 35L22 35L22 33L21 33L21 31L22 31L22 30L21 30L21 29L22 29L22 28L23 28L23 30L26 30L26 26L28 26L28 25L27 25L27 23L28 23L28 22L29 22L29 23L30 23L30 24L31 24L31 25L29 25L29 26L31 26L31 27L32 27L32 26L31 26L31 25L32 25L32 22L33 22L33 24L34 24L34 23L35 23L35 25L34 25L34 27L36 27L36 26L37 26L37 27L40 27L40 26L42 26L42 28L41 28L41 29L40 29L40 28L37 28L37 29L36 29L36 28L35 28L35 29L34 29L34 30L33 30L33 29L32 29L32 30L31 30L31 31L32 31L32 30L33 30L33 31L34 31L34 32L33 32L33 33L32 33L32 32L31 32L31 33L30 33L30 34L29 34L29 31L28 31L28 32L27 32L27 33L26 33L26 32L25 32L25 31L23 31L23 34L25 34L25 35L28 35L28 34L29 34L29 35L30 35L30 34L31 34L31 35L32 35L32 34L33 34L33 35L34 35L34 36L36 36L36 34L37 34L37 35L38 35L38 36L37 36L37 37L32 37L32 36L31 36L31 37L30 37L30 36L28 36L28 38L27 38L27 37L26 37L26 36L24 36L24 38L25 38L25 37L26 37L26 38L27 38L27 39L28 39L28 40L26 40L26 42L27 42L27 43L28 43L28 42L32 42L32 43L33 43L33 41L34 41L34 44L33 44L33 45L32 45L32 44L31 44L31 46L33 46L33 47L34 47L34 48L33 48L33 49L32 49L32 48L31 48L31 49L32 49L32 50L31 50L31 51L32 51L32 50L33 50L33 49L34 49L34 48L35 48L35 49L36 49L36 50L37 50L37 51L38 51L38 52L37 52L37 53L38 53L38 54L37 54L37 55L38 55L38 56L40 56L40 54L39 54L39 53L38 53L38 52L39 52L39 51L40 51L40 50L41 50L41 51L42 51L42 52L41 52L41 53L42 53L42 54L41 54L41 55L44 55L44 54L45 54L45 53L44 53L44 52L43 52L43 50L44 50L44 51L46 51L46 52L47 52L47 53L46 53L46 55L45 55L45 56L47 56L47 55L48 55L48 54L47 54L47 53L48 53L48 52L47 52L47 51L48 51L48 50L47 50L47 49L48 49L48 48L49 48L49 47L47 47L47 46L48 46L48 42L49 42L49 43L50 43L50 42L49 42L49 41L48 41L48 38L49 38L49 39L50 39L50 38L51 38L51 39L52 39L52 38L53 38L53 39L54 39L54 38L55 38L55 37L56 37L56 36L55 36L55 35L56 35L56 34L55 34L55 33L56 33L56 32L55 32L55 31L56 31L56 30L54 30L54 29L56 29L56 28L55 28L55 27L56 27L56 26L55 26L55 23L54 23L54 22L55 22L55 21L56 21L56 20L55 20L55 19L54 19L54 18L53 18L53 17L52 17L52 16L51 16L51 15L52 15L52 14L53 14L53 13L56 13L56 12L55 12L55 11L56 11L56 10L55 10L55 11L52 11L52 10L51 10L51 9L49 9L49 8L48 8L48 10L47 10L47 9L46 9L46 8L47 8L47 7L46 7L46 5L47 5L47 3L46 3L46 2L47 2L47 1L46 1L46 2L43 2L43 3L42 3L42 2L40 2L40 3L38 3L38 2L39 2L39 1L38 1L38 2L37 2L37 1L36 1L36 2L35 2L35 3L34 3L34 2L33 2L33 3L32 3L32 2L31 2L31 5L32 5L32 6L31 6L31 9L27 9L27 10L29 10L29 11L28 11L28 12L29 12L29 13L28 13L28 14L25 14L25 13L27 13L27 11L24 11L24 10L26 10L26 9L25 9L25 8L26 8L26 6L25 6L25 8L24 8L24 10L21 10L21 9L22 9L22 8L23 8L23 7L24 7L24 6L23 6L23 5L24 5L24 4L22 4L22 3L21 3L21 5L20 5L20 4L19 4L19 3L20 3L20 2L21 2L21 1L20 1L20 2L19 2L19 3L16 3L16 2L17 2L17 1ZM33 3L33 4L32 4L32 5L33 5L33 6L32 6L32 9L31 9L31 10L32 10L32 11L31 11L31 12L32 12L32 13L31 13L31 18L32 18L32 19L30 19L30 21L31 21L31 22L32 22L32 21L33 21L33 18L34 18L34 17L35 17L35 18L36 18L36 19L35 19L35 20L34 20L34 21L35 21L35 22L36 22L36 25L35 25L35 26L36 26L36 25L38 25L38 24L39 24L39 25L41 25L41 24L42 24L42 25L43 25L43 27L44 27L44 29L43 29L43 28L42 28L42 29L43 29L43 30L44 30L44 31L42 31L42 30L40 30L40 29L39 29L39 30L40 30L40 31L39 31L39 32L38 32L38 31L37 31L37 30L38 30L38 29L37 29L37 30L36 30L36 29L35 29L35 30L36 30L36 31L35 31L35 32L34 32L34 33L33 33L33 34L34 34L34 33L35 33L35 34L36 34L36 33L37 33L37 34L38 34L38 33L39 33L39 32L40 32L40 33L41 33L41 31L42 31L42 32L44 32L44 33L43 33L43 34L44 34L44 35L41 35L41 34L40 34L40 35L39 35L39 36L38 36L38 37L37 37L37 38L36 38L36 39L35 39L35 40L34 40L34 38L33 38L33 39L32 39L32 38L28 38L28 39L30 39L30 41L31 41L31 39L32 39L32 41L33 41L33 40L34 40L34 41L35 41L35 42L38 42L38 41L37 41L37 38L38 38L38 37L41 37L41 38L40 38L40 39L38 39L38 40L39 40L39 42L40 42L40 43L39 43L39 44L38 44L38 43L35 43L35 44L34 44L34 45L33 45L33 46L34 46L34 45L35 45L35 46L36 46L36 47L35 47L35 48L36 48L36 49L37 49L37 50L38 50L38 49L39 49L39 50L40 50L40 49L41 49L41 50L42 50L42 49L43 49L43 48L44 48L44 49L45 49L45 50L46 50L46 49L47 49L47 48L46 48L46 47L45 47L45 46L46 46L46 45L47 45L47 44L46 44L46 43L45 43L45 42L44 42L44 41L45 41L45 39L46 39L46 37L47 37L47 38L48 38L48 37L49 37L49 38L50 38L50 37L51 37L51 38L52 38L52 37L51 37L51 36L50 36L50 37L49 37L49 36L48 36L48 37L47 37L47 36L46 36L46 35L45 35L45 34L46 34L46 33L47 33L47 34L48 34L48 35L51 35L51 34L52 34L52 35L53 35L53 36L54 36L54 35L55 35L55 34L54 34L54 33L53 33L53 34L52 34L52 32L53 32L53 31L54 31L54 30L53 30L53 29L54 29L54 27L55 27L55 26L54 26L54 27L53 27L53 24L54 24L54 23L53 23L53 22L54 22L54 21L53 21L53 20L54 20L54 19L53 19L53 18L52 18L52 17L51 17L51 16L50 16L50 15L49 15L49 14L50 14L50 13L51 13L51 12L52 12L52 13L53 13L53 12L52 12L52 11L51 11L51 12L50 12L50 10L48 10L48 11L47 11L47 12L46 12L46 11L45 11L45 6L44 6L44 5L46 5L46 3L45 3L45 4L44 4L44 3L43 3L43 4L42 4L42 3L41 3L41 4L38 4L38 3L37 3L37 4L38 4L38 5L37 5L37 6L36 6L36 9L35 9L35 10L36 10L36 11L34 11L34 12L36 12L36 13L35 13L35 14L36 14L36 15L35 15L35 16L34 16L34 14L32 14L32 13L33 13L33 10L34 10L34 9L33 9L33 8L34 8L34 7L35 7L35 6L34 6L34 5L36 5L36 4L34 4L34 3ZM10 4L10 5L11 5L11 7L12 7L12 5L11 5L11 4ZM25 4L25 5L26 5L26 4ZM41 4L41 5L39 5L39 7L40 7L40 6L41 6L41 8L43 8L43 7L44 7L44 6L43 6L43 5L44 5L44 4L43 4L43 5L42 5L42 4ZM19 5L19 6L18 6L18 7L19 7L19 8L18 8L18 11L17 11L17 12L18 12L18 13L17 13L17 14L16 14L16 13L15 13L15 12L14 12L14 13L15 13L15 14L16 14L16 15L13 15L13 14L11 14L11 15L13 15L13 16L14 16L14 17L15 17L15 18L16 18L16 19L17 19L17 18L18 18L18 20L16 20L16 21L15 21L15 22L16 22L16 23L17 23L17 24L18 24L18 27L15 27L15 26L13 26L13 25L14 25L14 24L13 24L13 23L12 23L12 24L13 24L13 25L12 25L12 26L13 26L13 27L11 27L11 28L13 28L13 29L15 29L15 30L16 30L16 29L15 29L15 28L18 28L18 29L17 29L17 30L18 30L18 31L13 31L13 33L11 33L11 32L10 32L10 31L9 31L9 32L10 32L10 35L9 35L9 34L8 34L8 35L9 35L9 36L12 36L12 37L13 37L13 36L12 36L12 35L13 35L13 34L14 34L14 33L15 33L15 34L16 34L16 35L14 35L14 36L16 36L16 35L17 35L17 34L16 34L16 33L15 33L15 32L18 32L18 31L19 31L19 32L20 32L20 30L19 30L19 28L18 28L18 27L19 27L19 26L20 26L20 27L21 27L21 28L22 28L22 27L24 27L24 28L25 28L25 26L26 26L26 21L25 21L25 20L26 20L26 19L25 19L25 20L24 20L24 18L23 18L23 16L21 16L21 15L24 15L24 16L26 16L26 15L25 15L25 14L23 14L23 12L24 12L24 11L21 11L21 10L20 10L20 7L21 7L21 6L22 6L22 7L23 7L23 6L22 6L22 5L21 5L21 6L20 6L20 5ZM27 5L27 8L30 8L30 5ZM41 5L41 6L42 6L42 7L43 7L43 6L42 6L42 5ZM9 6L9 7L10 7L10 6ZM13 6L13 7L14 7L14 6ZM19 6L19 7L20 7L20 6ZM28 6L28 7L29 7L29 6ZM33 6L33 7L34 7L34 6ZM37 6L37 7L38 7L38 6ZM5 9L5 11L6 11L6 12L7 12L7 13L5 13L5 15L4 15L4 16L3 16L3 17L4 17L4 16L5 16L5 15L6 15L6 16L7 16L7 15L6 15L6 14L9 14L9 13L8 13L8 9ZM13 9L13 10L14 10L14 9ZM32 9L32 10L33 10L33 9ZM37 9L37 13L36 13L36 14L37 14L37 13L38 13L38 15L40 15L40 16L37 16L37 17L36 17L36 16L35 16L35 17L36 17L36 18L37 18L37 19L38 19L38 20L37 20L37 21L38 21L38 22L37 22L37 24L38 24L38 23L39 23L39 24L40 24L40 23L42 23L42 22L43 22L43 23L44 23L44 22L45 22L45 23L46 23L46 24L47 24L47 25L44 25L44 24L43 24L43 25L44 25L44 26L46 26L46 28L45 28L45 29L44 29L44 30L45 30L45 31L46 31L46 32L45 32L45 33L44 33L44 34L45 34L45 33L46 33L46 32L47 32L47 33L48 33L48 34L49 34L49 33L50 33L50 34L51 34L51 33L50 33L50 32L49 32L49 31L48 31L48 30L47 30L47 29L46 29L46 28L47 28L47 25L48 25L48 26L51 26L51 25L52 25L52 24L47 24L47 22L49 22L49 23L50 23L50 22L51 22L51 23L52 23L52 22L53 22L53 21L52 21L52 20L49 20L49 19L52 19L52 18L51 18L51 17L50 17L50 16L49 16L49 15L48 15L48 14L49 14L49 13L50 13L50 12L49 12L49 11L48 11L48 12L47 12L47 13L46 13L46 12L45 12L45 13L44 13L44 12L43 12L43 10L44 10L44 9L40 9L40 10L42 10L42 12L41 12L41 13L40 13L40 12L39 12L39 9ZM6 10L6 11L7 11L7 10ZM19 10L19 11L18 11L18 12L19 12L19 15L18 15L18 14L17 14L17 15L16 15L16 16L15 16L15 17L16 17L16 18L17 18L17 17L18 17L18 16L19 16L19 17L20 17L20 18L19 18L19 19L20 19L20 20L19 20L19 21L20 21L20 22L19 22L19 23L20 23L20 24L19 24L19 25L20 25L20 26L21 26L21 27L22 27L22 24L23 24L23 23L24 23L24 26L25 26L25 21L24 21L24 20L23 20L23 18L22 18L22 17L21 17L21 16L20 16L20 14L21 14L21 13L22 13L22 12L21 12L21 11L20 11L20 10ZM19 11L19 12L20 12L20 11ZM29 11L29 12L30 12L30 11ZM38 12L38 13L39 13L39 14L40 14L40 15L41 15L41 14L42 14L42 13L43 13L43 14L44 14L44 16L43 16L43 15L42 15L42 16L40 16L40 17L39 17L39 18L40 18L40 19L39 19L39 20L38 20L38 21L39 21L39 22L42 22L42 21L41 21L41 20L44 20L44 21L43 21L43 22L44 22L44 21L45 21L45 22L46 22L46 21L45 21L45 20L47 20L47 21L48 21L48 19L49 19L49 18L50 18L50 17L49 17L49 16L48 16L48 15L47 15L47 16L48 16L48 17L49 17L49 18L48 18L48 19L45 19L45 18L46 18L46 17L45 17L45 16L46 16L46 15L45 15L45 14L46 14L46 13L45 13L45 14L44 14L44 13L43 13L43 12L42 12L42 13L41 13L41 14L40 14L40 13L39 13L39 12ZM29 13L29 14L28 14L28 17L25 17L25 18L28 18L28 20L27 20L27 21L29 21L29 16L30 16L30 13ZM47 13L47 14L48 14L48 13ZM8 15L8 16L9 16L9 15ZM17 15L17 16L18 16L18 15ZM32 15L32 16L33 16L33 17L32 17L32 18L33 18L33 17L34 17L34 16L33 16L33 15ZM42 16L42 17L40 17L40 18L41 18L41 19L44 19L44 18L45 18L45 17L44 17L44 18L43 18L43 16ZM5 17L5 18L7 18L7 17ZM37 17L37 18L38 18L38 17ZM3 18L3 19L2 19L2 21L1 21L1 22L2 22L2 23L3 23L3 24L4 24L4 26L5 26L5 25L6 25L6 26L8 26L8 23L6 23L6 22L7 22L7 21L5 21L5 20L4 20L4 22L3 22L3 19L4 19L4 18ZM20 18L20 19L21 19L21 21L22 21L22 22L20 22L20 23L22 23L22 22L24 22L24 21L23 21L23 20L22 20L22 19L21 19L21 18ZM10 20L10 21L11 21L11 20ZM31 20L31 21L32 21L32 20ZM16 21L16 22L17 22L17 23L18 23L18 21ZM49 21L49 22L50 22L50 21ZM51 21L51 22L52 22L52 21ZM4 22L4 24L5 24L5 22ZM10 23L10 25L11 25L11 23ZM6 24L6 25L7 25L7 24ZM2 25L2 26L3 26L3 25ZM2 27L2 32L3 32L3 29L4 29L4 27ZM5 27L5 30L8 30L8 27ZM13 27L13 28L14 28L14 27ZM27 27L27 30L30 30L30 27ZM49 27L49 30L52 30L52 27ZM6 28L6 29L7 29L7 28ZM28 28L28 29L29 29L29 28ZM50 28L50 29L51 29L51 28ZM45 29L45 30L46 30L46 29ZM35 32L35 33L36 33L36 32ZM37 32L37 33L38 33L38 32ZM48 32L48 33L49 33L49 32ZM5 33L5 34L6 34L6 35L7 35L7 34L6 34L6 33ZM25 33L25 34L26 34L26 33ZM27 33L27 34L28 34L28 33ZM31 33L31 34L32 34L32 33ZM11 34L11 35L12 35L12 34ZM53 34L53 35L54 35L54 34ZM6 36L6 37L7 37L7 36ZM41 36L41 37L42 37L42 38L41 38L41 39L42 39L42 40L41 40L41 45L40 45L40 44L39 44L39 45L38 45L38 44L37 44L37 45L36 45L36 44L35 44L35 45L36 45L36 46L37 46L37 47L38 47L38 48L37 48L37 49L38 49L38 48L39 48L39 49L40 49L40 46L42 46L42 47L41 47L41 48L43 48L43 46L45 46L45 45L46 45L46 44L45 44L45 45L44 45L44 42L43 42L43 41L42 41L42 40L43 40L43 39L44 39L44 38L45 38L45 37L46 37L46 36L45 36L45 37L44 37L44 36ZM15 37L15 38L16 38L16 39L14 39L14 38L13 38L13 39L14 39L14 40L13 40L13 41L14 41L14 42L16 42L16 39L17 39L17 40L18 40L18 43L17 43L17 44L16 44L16 45L17 45L17 46L18 46L18 47L19 47L19 48L18 48L18 49L17 49L17 50L16 50L16 49L14 49L14 50L13 50L13 53L14 53L14 52L16 52L16 51L19 51L19 52L18 52L18 53L17 53L17 54L18 54L18 53L19 53L19 54L20 54L20 53L19 53L19 52L21 52L21 51L19 51L19 50L20 50L20 49L21 49L21 48L20 48L20 47L21 47L21 46L22 46L22 49L23 49L23 48L24 48L24 47L23 47L23 44L22 44L22 43L21 43L21 44L22 44L22 45L21 45L21 46L20 46L20 47L19 47L19 44L20 44L20 43L19 43L19 42L20 42L20 39L21 39L21 38L20 38L20 39L17 39L17 38L16 38L16 37ZM43 37L43 38L44 38L44 37ZM53 37L53 38L54 38L54 37ZM3 38L3 40L4 40L4 38ZM6 39L6 40L7 40L7 39ZM24 39L24 40L23 40L23 41L24 41L24 42L25 42L25 39ZM14 40L14 41L15 41L15 40ZM35 40L35 41L36 41L36 40ZM46 40L46 41L47 41L47 40ZM1 42L1 43L2 43L2 42ZM51 42L51 43L52 43L52 42ZM6 43L6 44L7 44L7 43ZM18 43L18 44L17 44L17 45L18 45L18 44L19 44L19 43ZM11 44L11 45L10 45L10 47L9 47L9 48L8 48L8 49L9 49L9 48L10 48L10 47L12 47L12 44ZM42 44L42 45L43 45L43 44ZM50 44L50 45L49 45L49 46L50 46L50 45L51 45L51 44ZM39 45L39 46L38 46L38 47L39 47L39 46L40 46L40 45ZM1 46L1 47L2 47L2 46ZM19 48L19 49L20 49L20 48ZM45 48L45 49L46 49L46 48ZM27 49L27 52L30 52L30 49ZM49 49L49 52L52 52L52 49ZM15 50L15 51L16 51L16 50ZM28 50L28 51L29 51L29 50ZM50 50L50 51L51 51L51 50ZM53 50L53 51L54 51L54 52L53 52L53 53L54 53L54 54L53 54L53 55L52 55L52 53L50 53L50 54L51 54L51 55L52 55L52 56L53 56L53 55L54 55L54 54L55 54L55 55L56 55L56 54L55 54L55 53L56 53L56 52L55 52L55 51L56 51L56 50L55 50L55 51L54 51L54 50ZM31 52L31 53L30 53L30 54L29 54L29 55L30 55L30 54L31 54L31 55L32 55L32 54L31 54L31 53L32 53L32 52ZM42 52L42 53L43 53L43 54L44 54L44 53L43 53L43 52ZM27 53L27 54L28 54L28 53ZM0 0L0 7L7 7L7 0ZM1 1L1 6L6 6L6 1ZM2 2L2 5L5 5L5 2ZM50 0L50 7L57 7L57 0ZM51 1L51 6L56 6L56 1ZM52 2L52 5L55 5L55 2ZM0 50L0 57L7 57L7 50ZM1 51L1 56L6 56L6 51ZM2 52L2 55L5 55L5 52Z" fill="#000000"/></g></g></svg>
