<?xml version="1.0" encoding="UTF-8"?>
<svg xmlns="http://www.w3.org/2000/svg" version="1.1" width="170" height="170" viewBox="0 0 170 170"><rect x="0" y="0" width="170" height="170" fill="#ffffff"/><g transform="scale(2.787)"><g transform="translate(0,0)"><path fill-rule="evenodd" d="M9 0L9 2L8 2L8 3L9 3L9 2L10 2L10 3L14 3L14 2L15 2L15 4L16 4L16 5L15 5L15 6L14 6L14 7L15 7L15 6L16 6L16 8L14 8L14 11L13 11L13 5L12 5L12 8L11 8L11 9L10 9L10 7L11 7L11 6L10 6L10 7L9 7L9 6L8 6L8 8L4 8L4 9L3 9L3 8L0 8L0 10L3 10L3 11L2 11L2 12L0 12L0 13L1 13L1 14L0 14L0 16L1 16L1 17L0 17L0 18L2 18L2 22L1 22L1 23L0 23L0 25L1 25L1 24L2 24L2 22L3 22L3 23L4 23L4 24L3 24L3 25L4 25L4 24L6 24L6 25L8 25L8 23L7 23L7 22L9 22L9 20L8 20L8 21L7 21L7 20L6 20L6 21L7 21L7 22L6 22L6 23L5 23L5 19L4 19L4 18L5 18L5 17L4 17L4 16L5 16L5 14L6 14L6 15L8 15L8 14L6 14L6 13L7 13L7 12L5 12L5 9L8 9L8 11L9 11L9 12L8 12L8 13L9 13L9 17L8 17L8 16L6 16L6 17L7 17L7 18L6 18L6 19L9 19L9 18L10 18L10 14L11 14L11 16L13 16L13 15L12 15L12 14L13 14L13 12L14 12L14 15L15 15L15 16L14 16L14 17L15 17L15 18L14 18L14 19L13 19L13 21L14 21L14 22L15 22L15 23L12 23L12 24L10 24L10 25L9 25L9 26L8 26L8 28L5 28L5 27L7 27L7 26L5 26L5 27L4 27L4 26L3 26L3 27L4 27L4 28L2 28L2 29L1 29L1 28L0 28L0 29L1 29L1 30L2 30L2 29L3 29L3 30L4 30L4 31L1 31L1 32L4 32L4 33L5 33L5 34L4 34L4 35L3 35L3 34L2 34L2 33L0 33L0 35L1 35L1 36L0 36L0 38L1 38L1 39L0 39L0 40L1 40L1 42L4 42L4 41L3 41L3 39L5 39L5 42L6 42L6 43L5 43L5 44L6 44L6 45L8 45L8 47L7 47L7 46L6 46L6 47L4 47L4 46L5 46L5 45L4 45L4 43L3 43L3 44L2 44L2 43L0 43L0 49L2 49L2 48L1 48L1 46L2 46L2 47L3 47L3 48L4 48L4 50L2 50L2 51L0 51L0 53L4 53L4 52L5 52L5 51L8 51L8 50L5 50L5 49L8 49L8 48L9 48L9 49L11 49L11 52L12 52L12 51L14 51L14 54L15 54L15 52L16 52L16 51L17 51L17 50L16 50L16 49L18 49L18 51L19 51L19 52L17 52L17 53L18 53L18 54L16 54L16 55L17 55L17 58L16 58L16 56L14 56L14 55L13 55L13 53L10 53L10 55L13 55L13 57L11 57L11 56L9 56L9 53L8 53L8 57L10 57L10 59L11 59L11 60L9 60L9 58L8 58L8 61L12 61L12 60L13 60L13 61L14 61L14 60L18 60L18 61L19 61L19 60L20 60L20 59L21 59L21 60L22 60L22 61L23 61L23 60L24 60L24 59L25 59L25 58L24 58L24 57L23 57L23 56L24 56L24 55L25 55L25 54L26 54L26 55L28 55L28 57L27 57L27 56L26 56L26 57L27 57L27 58L26 58L26 59L27 59L27 60L25 60L25 61L29 61L29 60L30 60L30 61L32 61L32 60L33 60L33 61L35 61L35 59L37 59L37 60L36 60L36 61L39 61L39 60L40 60L40 61L41 61L41 60L42 60L42 61L43 61L43 60L44 60L44 61L45 61L45 60L46 60L46 61L47 61L47 60L48 60L48 61L53 61L53 60L54 60L54 59L55 59L55 60L56 60L56 61L57 61L57 60L56 60L56 59L57 59L57 56L58 56L58 55L59 55L59 57L58 57L58 58L60 58L60 59L59 59L59 61L61 61L61 60L60 60L60 59L61 59L61 58L60 58L60 56L61 56L61 52L60 52L60 51L61 51L61 49L60 49L60 51L59 51L59 50L58 50L58 49L57 49L57 50L56 50L56 49L55 49L55 48L56 48L56 47L57 47L57 48L58 48L58 47L59 47L59 48L61 48L61 44L60 44L60 45L59 45L59 46L58 46L58 45L57 45L57 46L56 46L56 45L55 45L55 43L58 43L58 42L59 42L59 41L61 41L61 40L59 40L59 41L58 41L58 42L56 42L56 41L55 41L55 40L56 40L56 39L57 39L57 40L58 40L58 39L59 39L59 38L58 38L58 35L59 35L59 36L60 36L60 39L61 39L61 36L60 36L60 35L61 35L61 34L60 34L60 33L61 33L61 32L60 32L60 31L61 31L61 26L60 26L60 25L57 25L57 24L58 24L58 23L59 23L59 24L61 24L61 21L59 21L59 22L58 22L58 21L57 21L57 20L58 20L58 17L57 17L57 16L58 16L58 15L57 15L57 14L59 14L59 13L58 13L58 12L57 12L57 10L58 10L58 11L59 11L59 12L61 12L61 9L59 9L59 8L58 8L58 9L57 9L57 10L56 10L56 9L55 9L55 8L53 8L53 10L52 10L52 9L51 9L51 8L52 8L52 7L53 7L53 6L52 6L52 7L51 7L51 5L52 5L52 4L53 4L53 0L51 0L51 2L50 2L50 1L47 1L47 0L46 0L46 1L45 1L45 0L44 0L44 1L43 1L43 0L42 0L42 3L41 3L41 2L40 2L40 1L39 1L39 0L36 0L36 1L35 1L35 0L34 0L34 3L36 3L36 1L37 1L37 4L36 4L36 5L35 5L35 4L34 4L34 5L35 5L35 6L34 6L34 7L33 7L33 4L32 4L32 3L33 3L33 2L32 2L32 1L31 1L31 0L27 0L27 1L28 1L28 3L27 3L27 2L26 2L26 1L25 1L25 0L24 0L24 1L25 1L25 2L24 2L24 4L22 4L22 3L21 3L21 2L23 2L23 0L17 0L17 1L16 1L16 0L14 0L14 2L13 2L13 0L12 0L12 2L11 2L11 0ZM18 1L18 2L16 2L16 3L17 3L17 5L18 5L18 6L17 6L17 8L16 8L16 10L17 10L17 11L16 11L16 12L15 12L15 11L14 11L14 12L15 12L15 15L18 15L18 16L19 16L19 17L20 17L20 18L18 18L18 17L16 17L16 18L17 18L17 19L16 19L16 20L15 20L15 22L16 22L16 23L15 23L15 24L16 24L16 26L14 26L14 25L13 25L13 26L14 26L14 27L11 27L11 28L10 28L10 27L9 27L9 30L10 30L10 29L11 29L11 28L15 28L15 27L16 27L16 28L17 28L17 29L12 29L12 30L11 30L11 32L10 32L10 33L11 33L11 34L12 34L12 35L13 35L13 34L15 34L15 38L14 38L14 37L13 37L13 36L12 36L12 39L11 39L11 36L10 36L10 38L9 38L9 39L8 39L8 41L6 41L6 42L8 42L8 43L10 43L10 46L9 46L9 48L12 48L12 50L13 50L13 49L14 49L14 51L15 51L15 48L14 48L14 46L15 46L15 47L16 47L16 48L19 48L19 49L20 49L20 50L19 50L19 51L20 51L20 52L19 52L19 53L20 53L20 54L18 54L18 55L20 55L20 56L21 56L21 57L20 57L20 58L21 58L21 57L22 57L22 56L23 56L23 55L24 55L24 54L25 54L25 53L26 53L26 52L27 52L27 53L28 53L28 52L29 52L29 51L28 51L28 50L29 50L29 49L30 49L30 48L31 48L31 47L30 47L30 46L29 46L29 44L30 44L30 42L29 42L29 44L27 44L27 43L28 43L28 40L29 40L29 41L30 41L30 40L31 40L31 41L32 41L32 40L34 40L34 41L33 41L33 42L31 42L31 43L32 43L32 44L34 44L34 43L36 43L36 45L37 45L37 46L36 46L36 47L35 47L35 45L33 45L33 47L32 47L32 48L33 48L33 49L32 49L32 50L30 50L30 51L32 51L32 52L33 52L33 57L31 57L31 59L30 59L30 57L28 57L28 60L29 60L29 59L30 59L30 60L31 60L31 59L33 59L33 58L34 58L34 59L35 59L35 57L36 57L36 58L37 58L37 57L38 57L38 60L39 60L39 59L40 59L40 58L41 58L41 59L42 59L42 60L43 60L43 59L44 59L44 58L45 58L45 59L46 59L46 60L47 60L47 57L46 57L46 56L45 56L45 57L44 57L44 56L43 56L43 55L44 55L44 54L45 54L45 55L49 55L49 54L47 54L47 53L48 53L48 50L50 50L50 51L51 51L51 53L50 53L50 55L52 55L52 54L51 54L51 53L52 53L52 52L53 52L53 51L54 51L54 50L55 50L55 49L54 49L54 48L53 48L53 47L54 47L54 46L55 46L55 47L56 47L56 46L55 46L55 45L54 45L54 42L53 42L53 41L54 41L54 40L53 40L53 39L54 39L54 38L55 38L55 39L56 39L56 38L57 38L57 39L58 39L58 38L57 38L57 36L56 36L56 35L55 35L55 37L54 37L54 36L53 36L53 35L54 35L54 34L55 34L55 33L54 33L54 34L53 34L53 33L52 33L52 32L51 32L51 31L52 31L52 28L53 28L53 27L54 27L54 28L56 28L56 26L57 26L57 29L58 29L58 30L57 30L57 31L58 31L58 32L57 32L57 33L56 33L56 34L58 34L58 33L60 33L60 32L59 32L59 31L60 31L60 26L57 26L57 25L56 25L56 24L55 24L55 23L56 23L56 22L57 22L57 23L58 23L58 22L57 22L57 21L56 21L56 18L57 18L57 17L56 17L56 16L55 16L55 15L56 15L56 14L55 14L55 13L56 13L56 10L55 10L55 9L54 9L54 10L53 10L53 11L52 11L52 10L51 10L51 9L50 9L50 8L51 8L51 7L50 7L50 5L49 5L49 3L50 3L50 2L49 2L49 3L48 3L48 2L47 2L47 1L46 1L46 2L45 2L45 1L44 1L44 2L43 2L43 3L42 3L42 4L41 4L41 3L40 3L40 4L41 4L41 5L40 5L40 6L39 6L39 7L38 7L38 6L37 6L37 5L36 5L36 6L35 6L35 7L34 7L34 8L35 8L35 7L36 7L36 6L37 6L37 7L38 7L38 8L37 8L37 9L38 9L38 11L36 11L36 10L35 10L35 9L30 9L30 10L29 10L29 9L28 9L28 6L27 6L27 8L26 8L26 11L24 11L24 10L25 10L25 7L26 7L26 5L27 5L27 3L26 3L26 2L25 2L25 3L26 3L26 4L25 4L25 5L22 5L22 4L21 4L21 5L20 5L20 4L19 4L19 3L20 3L20 2L21 2L21 1L20 1L20 2L19 2L19 1ZM29 1L29 3L30 3L30 2L31 2L31 3L32 3L32 2L31 2L31 1ZM18 2L18 3L19 3L19 2ZM38 2L38 4L39 4L39 2ZM43 3L43 4L42 4L42 5L41 5L41 6L40 6L40 9L39 9L39 8L38 8L38 9L39 9L39 10L40 10L40 11L38 11L38 12L39 12L39 13L38 13L38 15L36 15L36 14L37 14L37 13L36 13L36 11L35 11L35 15L33 15L33 12L34 12L34 10L32 10L32 11L33 11L33 12L32 12L32 13L30 13L30 14L32 14L32 15L30 15L30 18L29 18L29 20L30 20L30 19L31 19L31 20L32 20L32 21L31 21L31 22L30 22L30 21L29 21L29 22L30 22L30 23L31 23L31 24L32 24L32 25L31 25L31 26L30 26L30 25L29 25L29 24L26 24L26 25L27 25L27 26L28 26L28 30L27 30L27 27L26 27L26 26L24 26L24 25L23 25L23 24L22 24L22 23L23 23L23 19L21 19L21 18L22 18L22 16L23 16L23 15L24 15L24 18L26 18L26 19L24 19L24 20L26 20L26 21L25 21L25 22L24 22L24 23L25 23L25 22L26 22L26 23L27 23L27 22L28 22L28 20L26 20L26 19L28 19L28 17L29 17L29 16L28 16L28 15L27 15L27 14L28 14L28 13L29 13L29 12L30 12L30 11L31 11L31 10L30 10L30 11L29 11L29 10L28 10L28 9L27 9L27 12L24 12L24 11L23 11L23 10L24 10L24 9L23 9L23 8L24 8L24 7L25 7L25 6L24 6L24 7L23 7L23 6L22 6L22 5L21 5L21 6L20 6L20 5L19 5L19 6L18 6L18 7L19 7L19 8L18 8L18 9L19 9L19 8L20 8L20 10L21 10L21 11L20 11L20 12L18 12L18 11L19 11L19 10L18 10L18 11L17 11L17 12L18 12L18 13L17 13L17 14L18 14L18 15L19 15L19 16L21 16L21 18L20 18L20 19L19 19L19 20L17 20L17 21L18 21L18 22L17 22L17 23L16 23L16 24L17 24L17 26L16 26L16 27L17 27L17 28L18 28L18 29L17 29L17 30L16 30L16 31L15 31L15 30L14 30L14 32L13 32L13 30L12 30L12 32L11 32L11 33L12 33L12 32L13 32L13 33L15 33L15 32L16 32L16 34L18 34L18 35L16 35L16 36L17 36L17 38L15 38L15 40L14 40L14 41L15 41L15 42L16 42L16 41L15 41L15 40L17 40L17 38L18 38L18 39L19 39L19 40L18 40L18 41L19 41L19 40L20 40L20 42L22 42L22 43L20 43L20 44L21 44L21 50L20 50L20 51L21 51L21 52L22 52L22 53L21 53L21 54L20 54L20 55L21 55L21 56L22 56L22 55L23 55L23 54L24 54L24 53L23 53L23 52L22 52L22 51L23 51L23 50L22 50L22 48L23 48L23 47L22 47L22 46L23 46L23 44L24 44L24 43L25 43L25 42L26 42L26 40L28 40L28 39L26 39L26 38L27 38L27 36L28 36L28 35L29 35L29 34L30 34L30 35L31 35L31 36L30 36L30 37L31 37L31 38L30 38L30 39L29 39L29 40L30 40L30 39L32 39L32 38L33 38L33 39L35 39L35 40L36 40L36 41L35 41L35 42L38 42L38 41L39 41L39 40L40 40L40 41L41 41L41 42L40 42L40 43L38 43L38 44L40 44L40 45L38 45L38 47L39 47L39 48L37 48L37 47L36 47L36 49L35 49L35 48L34 48L34 49L33 49L33 50L32 50L32 51L34 51L34 52L35 52L35 51L34 51L34 49L35 49L35 50L36 50L36 53L38 53L38 50L36 50L36 49L39 49L39 50L40 50L40 51L39 51L39 52L40 52L40 53L39 53L39 54L40 54L40 57L39 57L39 56L38 56L38 55L37 55L37 54L35 54L35 53L34 53L34 56L35 56L35 55L36 55L36 57L37 57L37 56L38 56L38 57L39 57L39 58L40 58L40 57L41 57L41 58L42 58L42 57L43 57L43 58L44 58L44 57L43 57L43 56L42 56L42 55L41 55L41 54L42 54L42 53L43 53L43 54L44 54L44 53L45 53L45 54L46 54L46 53L47 53L47 52L46 52L46 51L45 51L45 50L46 50L46 49L47 49L47 50L48 50L48 49L51 49L51 51L53 51L53 50L54 50L54 49L51 49L51 48L50 48L50 47L49 47L49 46L48 46L48 45L49 45L49 43L50 43L50 44L51 44L51 43L50 43L50 41L51 41L51 42L52 42L52 43L53 43L53 42L52 42L52 41L53 41L53 40L52 40L52 41L51 41L51 40L50 40L50 41L49 41L49 39L50 39L50 37L51 37L51 38L52 38L52 37L53 37L53 38L54 38L54 37L53 37L53 36L52 36L52 37L51 37L51 36L50 36L50 35L48 35L48 37L47 37L47 36L46 36L46 35L45 35L45 34L46 34L46 33L47 33L47 34L48 34L48 33L49 33L49 29L50 29L50 28L52 28L52 27L53 27L53 26L54 26L54 25L55 25L55 26L56 26L56 25L55 25L55 24L54 24L54 21L55 21L55 22L56 22L56 21L55 21L55 20L54 20L54 19L53 19L53 18L54 18L54 17L55 17L55 18L56 18L56 17L55 17L55 16L54 16L54 15L53 15L53 14L54 14L54 13L53 13L53 14L52 14L52 15L51 15L51 16L50 16L50 15L49 15L49 14L48 14L48 13L49 13L49 12L51 12L51 13L52 13L52 11L49 11L49 10L48 10L48 9L49 9L49 8L50 8L50 7L49 7L49 5L47 5L47 4L48 4L48 3L45 3L45 4L44 4L44 3ZM51 3L51 4L52 4L52 3ZM43 4L43 5L44 5L44 6L43 6L43 7L42 7L42 6L41 6L41 7L42 7L42 8L41 8L41 9L42 9L42 10L41 10L41 11L42 11L42 12L41 12L41 13L42 13L42 14L41 14L41 15L42 15L42 16L43 16L43 17L42 17L42 20L41 20L41 19L40 19L40 21L42 21L42 22L40 22L40 23L39 23L39 21L36 21L36 22L35 22L35 23L34 23L34 21L35 21L35 20L37 20L37 19L38 19L38 20L39 20L39 17L37 17L37 18L35 18L35 17L36 17L36 15L35 15L35 17L34 17L34 19L33 19L33 23L32 23L32 22L31 22L31 23L32 23L32 24L33 24L33 25L32 25L32 27L33 27L33 28L35 28L35 29L33 29L33 31L35 31L35 32L33 32L33 33L34 33L34 36L35 36L35 37L34 37L34 38L35 38L35 39L37 39L37 41L38 41L38 40L39 40L39 39L40 39L40 38L41 38L41 39L42 39L42 40L41 40L41 41L42 41L42 42L41 42L41 43L42 43L42 44L41 44L41 45L40 45L40 46L39 46L39 47L40 47L40 46L41 46L41 48L42 48L42 47L43 47L43 48L44 48L44 46L45 46L45 47L46 47L46 48L45 48L45 49L42 49L42 52L41 52L41 53L40 53L40 54L41 54L41 53L42 53L42 52L43 52L43 53L44 53L44 52L43 52L43 51L44 51L44 50L45 50L45 49L46 49L46 48L47 48L47 49L48 49L48 46L47 46L47 45L48 45L48 43L47 43L47 42L49 42L49 41L48 41L48 40L47 40L47 37L46 37L46 36L45 36L45 37L44 37L44 36L43 36L43 33L44 33L44 34L45 34L45 33L46 33L46 32L47 32L47 33L48 33L48 28L47 28L47 27L48 27L48 26L49 26L49 28L50 28L50 27L52 27L52 26L53 26L53 25L54 25L54 24L53 24L53 23L52 23L52 22L53 22L53 21L54 21L54 20L53 20L53 19L52 19L52 18L53 18L53 17L54 17L54 16L53 16L53 15L52 15L52 16L51 16L51 17L50 17L50 16L49 16L49 15L48 15L48 14L47 14L47 13L48 13L48 12L49 12L49 11L48 11L48 12L45 12L45 13L44 13L44 12L43 12L43 11L44 11L44 10L45 10L45 11L47 11L47 9L48 9L48 8L47 8L47 7L48 7L48 6L47 6L47 5L46 5L46 4L45 4L45 5L44 5L44 4ZM29 5L29 8L32 8L32 5ZM45 5L45 6L44 6L44 7L43 7L43 8L42 8L42 9L43 9L43 10L44 10L44 9L46 9L46 8L45 8L45 6L46 6L46 7L47 7L47 6L46 6L46 5ZM19 6L19 7L20 7L20 8L21 8L21 9L22 9L22 8L23 8L23 7L22 7L22 6L21 6L21 7L20 7L20 6ZM30 6L30 7L31 7L31 6ZM21 7L21 8L22 8L22 7ZM43 8L43 9L44 9L44 8ZM9 9L9 10L10 10L10 9ZM58 9L58 10L59 10L59 11L60 11L60 10L59 10L59 9ZM6 10L6 11L7 11L7 10ZM3 11L3 12L2 12L2 13L3 13L3 12L4 12L4 14L5 14L5 12L4 12L4 11ZM22 11L22 12L23 12L23 13L24 13L24 15L25 15L25 17L26 17L26 18L27 18L27 17L28 17L28 16L27 16L27 15L25 15L25 13L24 13L24 12L23 12L23 11ZM28 11L28 12L29 12L29 11ZM53 11L53 12L54 12L54 11ZM20 12L20 13L19 13L19 15L20 15L20 14L21 14L21 12ZM42 12L42 13L43 13L43 14L44 14L44 15L43 15L43 16L44 16L44 17L43 17L43 18L46 18L46 17L45 17L45 16L48 16L48 17L47 17L47 18L48 18L48 17L49 17L49 16L48 16L48 15L45 15L45 14L46 14L46 13L45 13L45 14L44 14L44 13L43 13L43 12ZM11 13L11 14L12 14L12 13ZM39 13L39 15L38 15L38 16L40 16L40 13ZM60 13L60 15L59 15L59 16L60 16L60 17L59 17L59 18L60 18L60 19L59 19L59 20L61 20L61 18L60 18L60 17L61 17L61 13ZM1 14L1 16L2 16L2 18L4 18L4 17L3 17L3 16L2 16L2 15L3 15L3 14ZM22 14L22 15L23 15L23 14ZM26 16L26 17L27 17L27 16ZM31 16L31 17L33 17L33 16ZM40 17L40 18L41 18L41 17ZM51 17L51 18L50 18L50 19L49 19L49 20L48 20L48 19L43 19L43 20L42 20L42 21L43 21L43 22L44 22L44 23L43 23L43 24L42 24L42 23L40 23L40 25L41 25L41 26L42 26L42 25L43 25L43 26L44 26L44 27L43 27L43 28L42 28L42 27L41 27L41 28L40 28L40 26L39 26L39 28L38 28L38 25L37 25L37 24L38 24L38 22L36 22L36 23L35 23L35 26L36 26L36 27L37 27L37 28L36 28L36 29L37 29L37 30L36 30L36 33L35 33L35 34L36 34L36 35L35 35L35 36L36 36L36 37L35 37L35 38L37 38L37 39L38 39L38 38L37 38L37 37L38 37L38 35L37 35L37 34L36 34L36 33L37 33L37 32L39 32L39 34L40 34L40 35L39 35L39 36L40 36L40 37L39 37L39 38L40 38L40 37L41 37L41 38L42 38L42 37L43 37L43 38L44 38L44 39L43 39L43 40L42 40L42 41L43 41L43 42L44 42L44 43L43 43L43 44L42 44L42 45L41 45L41 46L42 46L42 45L43 45L43 46L44 46L44 45L45 45L45 46L46 46L46 45L47 45L47 44L46 44L46 43L45 43L45 42L44 42L44 41L46 41L46 39L45 39L45 38L46 38L46 37L45 37L45 38L44 38L44 37L43 37L43 36L42 36L42 35L41 35L41 34L42 34L42 33L41 33L41 30L42 30L42 29L43 29L43 30L44 30L44 33L45 33L45 32L46 32L46 31L45 31L45 30L46 30L46 29L47 29L47 28L46 28L46 27L45 27L45 26L44 26L44 25L47 25L47 26L48 26L48 25L51 25L51 26L52 26L52 25L51 25L51 24L52 24L52 23L50 23L50 21L49 21L49 20L51 20L51 22L52 22L52 19L51 19L51 18L52 18L52 17ZM11 18L11 19L12 19L12 18ZM3 19L3 21L4 21L4 19ZM20 19L20 20L19 20L19 21L20 21L20 22L18 22L18 23L20 23L20 24L21 24L21 25L20 25L20 26L21 26L21 25L22 25L22 24L21 24L21 23L22 23L22 22L21 22L21 21L22 21L22 20L21 20L21 19ZM34 19L34 20L35 20L35 19ZM0 20L0 21L1 21L1 20ZM10 20L10 21L11 21L11 22L10 22L10 23L11 23L11 22L12 22L12 21L11 21L11 20ZM43 20L43 21L44 21L44 22L45 22L45 23L46 23L46 24L47 24L47 23L49 23L49 21L48 21L48 20L45 20L45 21L44 21L44 20ZM45 21L45 22L46 22L46 21ZM20 22L20 23L21 23L21 22ZM59 22L59 23L60 23L60 22ZM6 23L6 24L7 24L7 23ZM33 23L33 24L34 24L34 23ZM36 23L36 24L37 24L37 23ZM18 24L18 26L17 26L17 27L18 27L18 28L19 28L19 27L18 27L18 26L19 26L19 24ZM41 24L41 25L42 25L42 24ZM43 24L43 25L44 25L44 24ZM11 25L11 26L12 26L12 25ZM36 25L36 26L37 26L37 25ZM23 26L23 27L20 27L20 29L19 29L19 30L21 30L21 31L19 31L19 33L20 33L20 34L19 34L19 35L20 35L20 36L19 36L19 37L20 37L20 38L19 38L19 39L20 39L20 40L21 40L21 41L22 41L22 40L23 40L23 41L24 41L24 42L23 42L23 43L22 43L22 44L23 44L23 43L24 43L24 42L25 42L25 39L24 39L24 38L25 38L25 37L26 37L26 36L27 36L27 35L28 35L28 34L29 34L29 33L28 33L28 31L27 31L27 30L25 30L25 27L24 27L24 26ZM29 26L29 27L30 27L30 28L31 28L31 27L30 27L30 26ZM23 27L23 28L22 28L22 29L21 29L21 30L22 30L22 31L23 31L23 32L22 32L22 33L23 33L23 34L22 34L22 35L21 35L21 34L20 34L20 35L21 35L21 36L22 36L22 37L21 37L21 38L20 38L20 39L21 39L21 40L22 40L22 39L23 39L23 40L24 40L24 39L23 39L23 36L24 36L24 37L25 37L25 36L26 36L26 35L27 35L27 34L26 34L26 33L27 33L27 31L25 31L25 30L23 30L23 28L24 28L24 27ZM41 28L41 29L40 29L40 30L39 30L39 29L38 29L38 30L39 30L39 32L40 32L40 30L41 30L41 29L42 29L42 28ZM43 28L43 29L44 29L44 30L45 30L45 29L46 29L46 28L45 28L45 29L44 29L44 28ZM5 29L5 32L8 32L8 29ZM29 29L29 32L32 32L32 29ZM53 29L53 32L56 32L56 29ZM6 30L6 31L7 31L7 30ZM17 30L17 31L16 31L16 32L17 32L17 31L18 31L18 30ZM30 30L30 31L31 31L31 30ZM54 30L54 31L55 31L55 30ZM58 30L58 31L59 31L59 30ZM25 32L25 33L24 33L24 34L25 34L25 35L24 35L24 36L25 36L25 35L26 35L26 34L25 34L25 33L26 33L26 32ZM50 32L50 33L51 33L51 34L52 34L52 35L53 35L53 34L52 34L52 33L51 33L51 32ZM6 33L6 34L7 34L7 33ZM8 33L8 35L9 35L9 33ZM31 33L31 35L32 35L32 36L31 36L31 37L33 37L33 35L32 35L32 33ZM40 33L40 34L41 34L41 33ZM1 34L1 35L2 35L2 34ZM59 34L59 35L60 35L60 34ZM6 35L6 36L7 36L7 35ZM22 35L22 36L23 36L23 35ZM40 35L40 36L41 36L41 37L42 37L42 36L41 36L41 35ZM4 36L4 37L5 37L5 36ZM49 36L49 37L48 37L48 38L49 38L49 37L50 37L50 36ZM6 37L6 38L5 38L5 39L6 39L6 40L7 40L7 39L6 39L6 38L8 38L8 37ZM28 37L28 38L29 38L29 37ZM55 37L55 38L56 38L56 37ZM21 38L21 39L22 39L22 38ZM12 39L12 40L10 40L10 41L11 41L11 42L10 42L10 43L11 43L11 47L13 47L13 46L12 46L12 45L13 45L13 44L14 44L14 45L15 45L15 46L16 46L16 47L17 47L17 46L19 46L19 47L20 47L20 46L19 46L19 44L18 44L18 43L19 43L19 42L18 42L18 43L13 43L13 42L12 42L12 40L13 40L13 39ZM43 40L43 41L44 41L44 40ZM60 42L60 43L61 43L61 42ZM6 43L6 44L7 44L7 43ZM15 44L15 45L16 45L16 46L17 46L17 45L18 45L18 44ZM25 44L25 46L24 46L24 47L25 47L25 48L24 48L24 50L26 50L26 51L24 51L24 52L26 52L26 51L27 51L27 52L28 52L28 51L27 51L27 48L28 48L28 49L29 49L29 48L30 48L30 47L29 47L29 48L28 48L28 47L25 47L25 46L28 46L28 45L27 45L27 44ZM43 44L43 45L44 45L44 44ZM45 44L45 45L46 45L46 44ZM52 44L52 45L51 45L51 46L52 46L52 47L53 47L53 46L54 46L54 45L53 45L53 44ZM2 45L2 46L3 46L3 45ZM52 45L52 46L53 46L53 45ZM57 46L57 47L58 47L58 46ZM59 46L59 47L60 47L60 46ZM6 47L6 48L7 48L7 47ZM25 48L25 49L26 49L26 48ZM39 48L39 49L40 49L40 50L41 50L41 49L40 49L40 48ZM9 50L9 52L10 52L10 50ZM21 50L21 51L22 51L22 50ZM57 50L57 51L56 51L56 52L57 52L57 51L58 51L58 54L57 54L57 55L58 55L58 54L59 54L59 53L60 53L60 52L59 52L59 51L58 51L58 50ZM3 51L3 52L4 52L4 51ZM6 52L6 53L7 53L7 52ZM45 52L45 53L46 53L46 52ZM29 53L29 56L32 56L32 53ZM53 53L53 56L56 56L56 53ZM21 54L21 55L22 55L22 54ZM30 54L30 55L31 55L31 54ZM54 54L54 55L55 55L55 54ZM18 56L18 58L17 58L17 59L18 59L18 60L19 60L19 59L18 59L18 58L19 58L19 56ZM41 56L41 57L42 57L42 56ZM49 56L49 57L48 57L48 58L49 58L49 60L51 60L51 59L52 59L52 60L53 60L53 59L54 59L54 58L55 58L55 59L56 59L56 58L55 58L55 57L54 57L54 58L53 58L53 59L52 59L52 58L51 58L51 57L52 57L52 56ZM13 57L13 58L11 58L11 59L13 59L13 58L14 58L14 59L16 59L16 58L14 58L14 57ZM49 57L49 58L50 58L50 57ZM23 58L23 59L22 59L22 60L23 60L23 59L24 59L24 58ZM0 0L0 7L7 7L7 0ZM1 1L1 6L6 6L6 1ZM2 2L2 5L5 5L5 2ZM54 0L54 7L61 7L61 0ZM55 1L55 6L60 6L60 1ZM56 2L56 5L59 5L59 2ZM0 54L0 61L7 61L7 54ZM1 55L1 60L6 60L6 55ZM2 56L2 59L5 59L5 56Z" fill="#000000"/></g></g></svg>
