<?xml version="1.0" encoding="UTF-8"?>
<svg xmlns="http://www.w3.org/2000/svg" version="1.1" width="180" height="180" viewBox="0 0 180 180"><rect x="0" y="0" width="180" height="180" fill="#ffffff"/><g transform="scale(3.158)"><g transform="translate(0,0)"><path fill-rule="evenodd" d="M8 0L8 1L9 1L9 2L8 2L8 5L10 5L10 10L11 10L11 11L10 11L10 12L12 12L12 13L10 13L10 15L11 15L11 17L12 17L12 18L11 18L11 19L12 19L12 20L11 20L11 21L10 21L10 22L9 22L9 24L6 24L6 23L7 23L7 22L6 22L6 21L7 21L7 20L5 20L5 19L4 19L4 18L3 18L3 15L4 15L4 14L5 14L5 15L8 15L8 16L9 16L9 18L8 18L8 21L9 21L9 20L10 20L10 19L9 19L9 18L10 18L10 16L9 16L9 15L8 15L8 14L5 14L5 12L6 12L6 13L8 13L8 12L9 12L9 10L8 10L8 12L6 12L6 11L7 11L7 10L6 10L6 9L7 9L7 8L6 8L6 9L4 9L4 8L0 8L0 10L1 10L1 12L3 12L3 13L4 13L4 14L2 14L2 13L0 13L0 14L2 14L2 15L0 15L0 16L1 16L1 17L0 17L0 18L2 18L2 19L4 19L4 20L3 20L3 21L2 21L2 20L1 20L1 19L0 19L0 21L1 21L1 22L0 22L0 24L1 24L1 23L4 23L4 31L3 31L3 30L2 30L2 28L0 28L0 30L2 30L2 31L0 31L0 32L1 32L1 33L2 33L2 32L3 32L3 36L4 36L4 37L7 37L7 38L2 38L2 35L1 35L1 34L0 34L0 36L1 36L1 37L0 37L0 40L2 40L2 41L1 41L1 42L0 42L0 43L2 43L2 44L1 44L1 45L2 45L2 47L1 47L1 46L0 46L0 48L5 48L5 47L7 47L7 48L6 48L6 49L8 49L8 50L10 50L10 51L9 51L9 52L10 52L10 53L8 53L8 57L9 57L9 55L11 55L11 52L12 52L12 51L13 51L13 53L12 53L12 54L13 54L13 53L14 53L14 57L16 57L16 56L18 56L18 55L19 55L19 54L20 54L20 53L18 53L18 52L19 52L19 51L20 51L20 50L21 50L21 53L22 53L22 50L23 50L23 51L24 51L24 52L23 52L23 53L24 53L24 52L25 52L25 54L27 54L27 53L30 53L30 54L31 54L31 56L30 56L30 55L29 55L29 56L27 56L27 55L26 55L26 56L25 56L25 55L23 55L23 56L22 56L22 57L26 57L26 56L27 56L27 57L32 57L32 54L31 54L31 51L32 51L32 53L33 53L33 51L32 51L32 48L33 48L33 50L34 50L34 51L35 51L35 52L36 52L36 51L35 51L35 50L36 50L36 49L37 49L37 48L38 48L38 47L39 47L39 46L40 46L40 45L41 45L41 46L42 46L42 47L43 47L43 48L42 48L42 49L40 49L40 48L41 48L41 47L40 47L40 48L39 48L39 49L38 49L38 50L37 50L37 51L39 51L39 52L38 52L38 53L36 53L36 56L37 56L37 57L41 57L41 55L40 55L40 54L38 54L38 53L40 53L40 52L41 52L41 53L42 53L42 52L43 52L43 51L44 51L44 53L43 53L43 54L44 54L44 53L45 53L45 52L46 52L46 48L48 48L48 49L47 49L47 50L48 50L48 52L47 52L47 53L46 53L46 54L45 54L45 57L46 57L46 55L47 55L47 57L48 57L48 55L49 55L49 54L51 54L51 55L50 55L50 57L51 57L51 55L52 55L52 53L55 53L55 54L54 54L54 55L53 55L53 56L52 56L52 57L53 57L53 56L54 56L54 57L55 57L55 56L54 56L54 55L55 55L55 54L56 54L56 53L55 53L55 51L54 51L54 52L53 52L53 50L54 50L54 46L55 46L55 45L56 45L56 47L55 47L55 48L56 48L56 47L57 47L57 45L56 45L56 44L57 44L57 43L56 43L56 44L54 44L54 43L53 43L53 44L54 44L54 46L52 46L52 47L53 47L53 48L51 48L51 46L50 46L50 48L48 48L48 46L49 46L49 45L50 45L50 44L49 44L49 45L47 45L47 44L46 44L46 45L45 45L45 46L44 46L44 47L43 47L43 45L44 45L44 44L45 44L45 43L49 43L49 42L51 42L51 43L52 43L52 42L53 42L53 41L54 41L54 42L57 42L57 40L56 40L56 38L57 38L57 33L56 33L56 32L57 32L57 31L56 31L56 32L54 32L54 31L53 31L53 25L50 25L50 24L49 24L49 25L50 25L50 26L48 26L48 25L47 25L47 26L48 26L48 28L47 28L47 29L46 29L46 30L45 30L45 28L46 28L46 27L45 27L45 26L46 26L46 24L47 24L47 23L48 23L48 22L49 22L49 21L51 21L51 22L50 22L50 23L51 23L51 22L52 22L52 21L53 21L53 20L54 20L54 22L53 22L53 23L54 23L54 22L55 22L55 23L57 23L57 20L56 20L56 22L55 22L55 20L54 20L54 19L56 19L56 18L57 18L57 16L56 16L56 17L55 17L55 15L56 15L56 14L55 14L55 15L54 15L54 14L53 14L53 13L52 13L52 12L54 12L54 11L53 11L53 9L55 9L55 8L52 8L52 9L51 9L51 11L52 11L52 12L50 12L50 11L49 11L49 12L50 12L50 13L49 13L49 15L48 15L48 16L47 16L47 15L46 15L46 16L45 16L45 14L42 14L42 13L43 13L43 12L45 12L45 13L46 13L46 12L47 12L47 11L48 11L48 10L50 10L50 8L48 8L48 7L49 7L49 6L48 6L48 7L47 7L47 5L48 5L48 0L45 0L45 1L44 1L44 0L42 0L42 1L41 1L41 2L43 2L43 3L42 3L42 4L41 4L41 5L40 5L40 4L38 4L38 5L36 5L36 8L37 8L37 9L36 9L36 10L34 10L34 9L35 9L35 8L33 8L33 10L32 10L32 11L31 11L31 9L32 9L32 7L33 7L33 5L34 5L34 3L35 3L35 4L37 4L37 3L38 3L38 2L36 2L36 1L37 1L37 0L36 0L36 1L34 1L34 0L29 0L29 1L30 1L30 4L27 4L27 3L28 3L28 2L26 2L26 1L25 1L25 0L24 0L24 2L22 2L22 0L21 0L21 1L20 1L20 2L19 2L19 3L18 3L18 2L16 2L16 3L18 3L18 4L17 4L17 5L15 5L15 6L14 6L14 5L13 5L13 6L12 6L12 9L11 9L11 5L12 5L12 4L13 4L13 3L14 3L14 2L15 2L15 1L14 1L14 0L12 0L12 1L14 1L14 2L12 2L12 3L11 3L11 1L9 1L9 0ZM39 0L39 1L40 1L40 0ZM31 1L31 2L32 2L32 1ZM33 1L33 2L34 2L34 1ZM46 1L46 2L45 2L45 3L43 3L43 4L42 4L42 5L41 5L41 7L42 7L42 5L44 5L44 6L43 6L43 8L42 8L42 9L43 9L43 11L42 11L42 10L41 10L41 11L39 11L39 9L40 9L40 6L39 6L39 8L38 8L38 6L37 6L37 8L38 8L38 9L37 9L37 10L36 10L36 11L37 11L37 13L34 13L34 10L33 10L33 12L32 12L32 15L33 15L33 13L34 13L34 16L33 16L33 17L31 17L31 16L30 16L30 15L29 15L29 16L28 16L28 14L29 14L29 13L30 13L30 14L31 14L31 13L30 13L30 12L31 12L31 11L29 11L29 9L28 9L28 10L27 10L27 11L23 11L23 10L24 10L24 9L23 9L23 10L22 10L22 8L23 8L23 7L24 7L24 8L25 8L25 9L26 9L26 8L25 8L25 7L26 7L26 6L25 6L25 5L26 5L26 3L22 3L22 4L21 4L21 5L20 5L20 3L21 3L21 2L20 2L20 3L19 3L19 4L18 4L18 6L17 6L17 7L16 7L16 6L15 6L15 8L14 8L14 6L13 6L13 8L14 8L14 9L13 9L13 10L12 10L12 11L13 11L13 10L14 10L14 11L15 11L15 12L17 12L17 13L15 13L15 14L14 14L14 13L13 13L13 14L11 14L11 15L13 15L13 17L14 17L14 16L15 16L15 18L12 18L12 19L15 19L15 20L14 20L14 22L13 22L13 21L11 21L11 22L10 22L10 23L11 23L11 24L10 24L10 26L9 26L9 27L10 27L10 28L9 28L9 30L11 30L11 31L9 31L9 32L11 32L11 33L12 33L12 32L11 32L11 31L14 31L14 30L16 30L16 31L15 31L15 33L14 33L14 32L13 32L13 34L12 34L12 35L13 35L13 36L12 36L12 38L11 38L11 37L9 37L9 35L10 35L10 36L11 36L11 34L9 34L9 33L8 33L8 31L4 31L4 32L5 32L5 34L4 34L4 36L7 36L7 37L8 37L8 38L7 38L7 39L6 39L6 40L5 40L5 42L4 42L4 43L5 43L5 42L8 42L8 44L9 44L9 42L8 42L8 41L9 41L9 40L11 40L11 41L12 41L12 40L11 40L11 39L12 39L12 38L13 38L13 40L15 40L15 42L14 42L14 41L13 41L13 42L11 42L11 43L10 43L10 44L12 44L12 45L13 45L13 44L15 44L15 45L16 45L16 46L11 46L11 47L10 47L10 45L8 45L8 49L10 49L10 50L11 50L11 51L10 51L10 52L11 52L11 51L12 51L12 50L13 50L13 49L12 49L12 48L11 48L11 47L15 47L15 48L14 48L14 49L15 49L15 51L16 51L16 52L14 52L14 53L16 53L16 54L17 54L17 55L18 55L18 53L17 53L17 52L18 52L18 51L19 51L19 50L20 50L20 48L22 48L22 49L21 49L21 50L22 50L22 49L23 49L23 50L24 50L24 51L25 51L25 52L26 52L26 49L25 49L25 48L29 48L29 47L28 47L28 46L30 46L30 47L31 47L31 46L30 46L30 45L33 45L33 48L34 48L34 50L35 50L35 49L36 49L36 47L37 47L37 46L36 46L36 45L37 45L37 44L38 44L38 46L39 46L39 45L40 45L40 43L39 43L39 44L38 44L38 43L36 43L36 41L38 41L38 42L39 42L39 41L38 41L38 40L39 40L39 39L40 39L40 38L41 38L41 40L40 40L40 41L42 41L42 43L41 43L41 45L43 45L43 44L44 44L44 43L45 43L45 42L46 42L46 41L47 41L47 39L49 39L49 40L48 40L48 42L49 42L49 41L51 41L51 39L52 39L52 41L53 41L53 40L54 40L54 39L55 39L55 38L56 38L56 37L55 37L55 36L56 36L56 35L55 35L55 34L56 34L56 33L55 33L55 34L54 34L54 32L52 32L52 34L51 34L51 33L50 33L50 34L51 34L51 35L53 35L53 37L51 37L51 36L50 36L50 35L49 35L49 36L46 36L46 34L48 34L48 33L49 33L49 32L51 32L51 31L48 31L48 29L47 29L47 31L44 31L44 30L43 30L43 29L44 29L44 28L45 28L45 27L43 27L43 28L42 28L42 26L44 26L44 25L45 25L45 24L46 24L46 23L45 23L45 24L44 24L44 22L45 22L45 19L43 19L43 16L44 16L44 15L43 15L43 16L42 16L42 14L41 14L41 13L42 13L42 12L43 12L43 11L44 11L44 10L45 10L45 12L46 12L46 10L48 10L48 8L47 8L47 7L46 7L46 6L45 6L45 5L44 5L44 4L45 4L45 3L46 3L46 5L47 5L47 3L46 3L46 2L47 2L47 1ZM39 2L39 3L40 3L40 2ZM9 3L9 4L11 4L11 3ZM31 3L31 4L33 4L33 3ZM22 4L22 7L23 7L23 5L24 5L24 4ZM19 5L19 6L18 6L18 7L17 7L17 8L18 8L18 7L19 7L19 6L20 6L20 9L21 9L21 6L20 6L20 5ZM27 5L27 8L30 8L30 5ZM31 5L31 7L32 7L32 5ZM8 6L8 7L9 7L9 6ZM24 6L24 7L25 7L25 6ZM28 6L28 7L29 7L29 6ZM34 6L34 7L35 7L35 6ZM44 6L44 7L45 7L45 10L46 10L46 9L47 9L47 8L46 8L46 7L45 7L45 6ZM8 8L8 9L9 9L9 8ZM56 8L56 11L55 11L55 12L56 12L56 11L57 11L57 8ZM1 9L1 10L2 10L2 9ZM3 9L3 11L4 11L4 12L5 12L5 11L6 11L6 10L4 10L4 9ZM14 9L14 10L16 10L16 11L18 11L18 9L17 9L17 10L16 10L16 9ZM37 10L37 11L38 11L38 10ZM19 11L19 12L18 12L18 13L17 13L17 14L16 14L16 15L15 15L15 16L16 16L16 18L15 18L15 19L16 19L16 18L17 18L17 17L18 17L18 18L20 18L20 17L18 17L18 16L19 16L19 15L18 15L18 16L16 16L16 15L17 15L17 14L20 14L20 15L21 15L21 16L23 16L23 17L22 17L22 18L21 18L21 19L20 19L20 20L19 20L19 19L17 19L17 20L16 20L16 23L15 23L15 25L16 25L16 23L18 23L18 22L19 22L19 21L21 21L21 22L20 22L20 23L19 23L19 24L18 24L18 26L19 26L19 27L18 27L18 28L17 28L17 27L15 27L15 26L14 26L14 28L12 28L12 26L11 26L11 28L10 28L10 29L11 29L11 28L12 28L12 30L14 30L14 28L16 28L16 30L17 30L17 29L18 29L18 31L17 31L17 32L18 32L18 31L20 31L20 32L19 32L19 33L21 33L21 34L20 34L20 35L19 35L19 34L17 34L17 35L16 35L16 36L17 36L17 35L18 35L18 37L17 37L17 38L15 38L15 35L14 35L14 36L13 36L13 38L15 38L15 40L16 40L16 39L17 39L17 38L18 38L18 39L20 39L20 38L21 38L21 40L22 40L22 39L23 39L23 38L24 38L24 39L25 39L25 40L23 40L23 41L25 41L25 42L23 42L23 44L22 44L22 45L21 45L21 43L22 43L22 42L21 42L21 43L20 43L20 45L18 45L18 46L17 46L17 47L16 47L16 48L15 48L15 49L17 49L17 50L16 50L16 51L17 51L17 50L19 50L19 48L20 48L20 47L21 47L21 46L24 46L24 45L26 45L26 46L25 46L25 47L24 47L24 48L25 48L25 47L26 47L26 46L28 46L28 45L26 45L26 44L27 44L27 43L28 43L28 44L29 44L29 45L30 45L30 44L31 44L31 42L33 42L33 40L34 40L34 43L33 43L33 45L36 45L36 43L35 43L35 41L36 41L36 40L34 40L34 39L32 39L32 38L34 38L34 36L35 36L35 37L37 37L37 36L38 36L38 35L36 35L36 34L37 34L37 33L38 33L38 32L39 32L39 31L40 31L40 33L39 33L39 34L40 34L40 35L43 35L43 36L42 36L42 37L41 37L41 38L42 38L42 40L43 40L43 41L45 41L45 39L46 39L46 38L45 38L45 37L46 37L46 36L45 36L45 35L44 35L44 34L46 34L46 33L47 33L47 32L46 32L46 33L43 33L43 32L42 32L42 28L41 28L41 27L40 27L40 26L41 26L41 25L39 25L39 23L35 23L35 22L34 22L34 21L36 21L36 20L37 20L37 21L38 21L38 20L39 20L39 22L40 22L40 23L43 23L43 21L44 21L44 20L43 20L43 21L42 21L42 22L41 22L41 20L42 20L42 18L41 18L41 17L42 17L42 16L41 16L41 14L40 14L40 15L39 15L39 13L40 13L40 12L39 12L39 13L38 13L38 15L39 15L39 16L38 16L38 17L37 17L37 18L36 18L36 19L35 19L35 17L36 17L36 16L35 16L35 17L34 17L34 18L33 18L33 22L32 22L32 23L31 23L31 21L32 21L32 20L30 20L30 19L28 19L28 18L29 18L29 17L30 17L30 16L29 16L29 17L28 17L28 18L27 18L27 19L26 19L26 18L24 18L24 17L25 17L25 16L26 16L26 15L27 15L27 14L28 14L28 13L27 13L27 12L26 12L26 14L24 14L24 16L23 16L23 15L21 15L21 13L22 13L22 14L23 14L23 13L22 13L22 12L23 12L23 11L22 11L22 12L21 12L21 11ZM19 12L19 13L20 13L20 12ZM47 13L47 14L48 14L48 13ZM13 14L13 15L14 15L14 14ZM51 14L51 15L49 15L49 17L48 17L48 18L47 18L47 19L46 19L46 20L51 20L51 19L50 19L50 18L52 18L52 19L54 19L54 18L55 18L55 17L54 17L54 15L53 15L53 16L51 16L51 15L52 15L52 14ZM6 16L6 17L7 17L7 16ZM39 16L39 17L38 17L38 18L37 18L37 20L38 20L38 18L40 18L40 19L39 19L39 20L40 20L40 19L41 19L41 18L40 18L40 17L41 17L41 16ZM46 16L46 17L45 17L45 18L46 18L46 17L47 17L47 16ZM50 16L50 17L49 17L49 18L48 18L48 19L49 19L49 18L50 18L50 17L51 17L51 16ZM52 17L52 18L53 18L53 17ZM6 18L6 19L7 19L7 18ZM22 18L22 19L21 19L21 20L23 20L23 22L21 22L21 23L20 23L20 24L22 24L22 25L23 25L23 24L24 24L24 28L23 28L23 27L22 27L22 26L21 26L21 27L19 27L19 28L18 28L18 29L19 29L19 30L23 30L23 31L24 31L24 30L26 30L26 26L31 26L31 28L32 28L32 27L33 27L33 26L34 26L34 29L35 29L35 30L37 30L37 32L35 32L35 31L34 31L34 30L33 30L33 29L31 29L31 32L30 32L30 31L27 31L27 34L26 34L26 33L25 33L25 34L24 34L24 36L23 36L23 34L21 34L21 35L20 35L20 36L19 36L19 38L20 38L20 36L21 36L21 38L22 38L22 37L24 37L24 38L25 38L25 39L27 39L27 41L26 41L26 40L25 40L25 41L26 41L26 42L25 42L25 43L24 43L24 44L23 44L23 45L24 45L24 44L25 44L25 43L27 43L27 42L28 42L28 40L29 40L29 41L30 41L30 42L29 42L29 44L30 44L30 42L31 42L31 41L32 41L32 40L30 40L30 39L31 39L31 38L32 38L32 37L33 37L33 36L34 36L34 34L36 34L36 33L37 33L37 32L38 32L38 30L40 30L40 31L41 31L41 30L40 30L40 29L41 29L41 28L38 28L38 27L35 27L35 26L38 26L38 24L37 24L37 25L36 25L36 24L35 24L35 23L34 23L34 22L33 22L33 23L34 23L34 24L31 24L31 23L29 23L29 21L28 21L28 20L27 20L27 21L25 21L25 22L24 22L24 20L23 20L23 18ZM25 19L25 20L26 20L26 19ZM34 19L34 20L35 20L35 19ZM4 20L4 23L6 23L6 22L5 22L5 20ZM17 20L17 22L18 22L18 21L19 21L19 20ZM27 21L27 22L26 22L26 23L25 23L25 26L26 26L26 25L27 25L27 24L29 24L29 25L31 25L31 24L29 24L29 23L27 23L27 22L28 22L28 21ZM46 21L46 22L48 22L48 21ZM12 22L12 23L13 23L13 24L12 24L12 25L13 25L13 24L14 24L14 23L13 23L13 22ZM23 22L23 23L24 23L24 22ZM26 23L26 24L27 24L27 23ZM2 24L2 25L0 25L0 26L1 26L1 27L3 27L3 24ZM43 24L43 25L44 25L44 24ZM56 24L56 25L57 25L57 24ZM6 25L6 26L7 26L7 25ZM19 25L19 26L20 26L20 25ZM32 25L32 26L33 26L33 25ZM55 26L55 27L54 27L54 30L57 30L57 28L56 28L56 29L55 29L55 27L56 27L56 26ZM5 27L5 30L8 30L8 27ZM21 27L21 28L22 28L22 27ZM27 27L27 30L30 30L30 27ZM49 27L49 30L52 30L52 27ZM6 28L6 29L7 29L7 28ZM19 28L19 29L20 29L20 28ZM24 28L24 29L23 29L23 30L24 30L24 29L25 29L25 28ZM28 28L28 29L29 29L29 28ZM50 28L50 29L51 29L51 28ZM37 29L37 30L38 30L38 29ZM21 31L21 33L22 33L22 31ZM25 31L25 32L26 32L26 31ZM6 32L6 33L7 33L7 34L5 34L5 35L7 35L7 36L8 36L8 33L7 33L7 32ZM23 32L23 33L24 33L24 32ZM34 32L34 33L33 33L33 34L34 34L34 33L35 33L35 32ZM15 33L15 34L16 34L16 33ZM41 33L41 34L42 34L42 33ZM25 34L25 35L26 35L26 34ZM27 34L27 35L28 35L28 34ZM29 34L29 36L28 36L28 37L29 37L29 38L28 38L28 39L30 39L30 37L31 37L31 36L33 36L33 35L32 35L32 34L31 34L31 35L30 35L30 34ZM53 34L53 35L54 35L54 34ZM21 35L21 36L22 36L22 35ZM35 35L35 36L36 36L36 35ZM26 36L26 37L27 37L27 36ZM29 36L29 37L30 37L30 36ZM43 36L43 37L42 37L42 38L44 38L44 39L45 39L45 38L44 38L44 37L45 37L45 36ZM38 37L38 38L37 38L37 39L39 39L39 38L40 38L40 37ZM47 37L47 38L48 38L48 37ZM50 37L50 38L51 38L51 37ZM53 37L53 38L52 38L52 39L53 39L53 38L54 38L54 37ZM1 38L1 39L2 39L2 40L4 40L4 39L2 39L2 38ZM8 38L8 39L7 39L7 40L6 40L6 41L8 41L8 39L10 39L10 38ZM35 38L35 39L36 39L36 38ZM17 40L17 41L16 41L16 42L15 42L15 43L16 43L16 44L18 44L18 43L19 43L19 42L20 42L20 40L19 40L19 41L18 41L18 40ZM55 40L55 41L56 41L56 40ZM2 42L2 43L3 43L3 42ZM13 42L13 43L12 43L12 44L13 44L13 43L14 43L14 42ZM16 42L16 43L18 43L18 42ZM43 42L43 43L44 43L44 42ZM6 43L6 44L4 44L4 45L3 45L3 47L5 47L5 46L7 46L7 45L6 45L6 44L7 44L7 43ZM34 43L34 44L35 44L35 43ZM4 45L4 46L5 46L5 45ZM20 45L20 46L21 46L21 45ZM46 45L46 46L45 46L45 48L44 48L44 49L42 49L42 50L40 50L40 49L39 49L39 51L41 51L41 52L42 52L42 51L43 51L43 50L45 50L45 48L46 48L46 46L47 46L47 45ZM18 46L18 47L17 47L17 49L18 49L18 48L19 48L19 46ZM34 46L34 48L35 48L35 47L36 47L36 46ZM9 47L9 48L10 48L10 49L11 49L11 50L12 50L12 49L11 49L11 48L10 48L10 47ZM22 47L22 48L23 48L23 47ZM27 49L27 52L30 52L30 49ZM49 49L49 52L52 52L52 49ZM28 50L28 51L29 51L29 50ZM50 50L50 51L51 51L51 50ZM56 51L56 52L57 52L57 51ZM34 53L34 54L33 54L33 55L35 55L35 53ZM47 53L47 54L48 54L48 53ZM21 54L21 55L20 55L20 57L21 57L21 55L22 55L22 54ZM37 54L37 56L38 56L38 54ZM39 55L39 56L40 56L40 55ZM56 55L56 56L57 56L57 55ZM10 56L10 57L11 57L11 56ZM34 56L34 57L35 57L35 56ZM0 0L0 7L7 7L7 0ZM1 1L1 6L6 6L6 1ZM2 2L2 5L5 5L5 2ZM50 0L50 7L57 7L57 0ZM51 1L51 6L56 6L56 1ZM52 2L52 5L55 5L55 2ZM0 50L0 57L7 57L7 50ZM1 51L1 56L6 56L6 51ZM2 52L2 55L5 55L5 52Z" fill="#000000"/></g></g></svg>
