<?xml version="1.0" encoding="UTF-8"?>
<svg xmlns="http://www.w3.org/2000/svg" version="1.1" width="170" height="170" viewBox="0 0 170 170"><rect x="0" y="0" width="170" height="170" fill="#ffffff"/><g transform="scale(2.982)"><g transform="translate(0,0)"><path fill-rule="evenodd" d="M9 0L9 1L10 1L10 2L11 2L11 3L12 3L12 4L10 4L10 3L9 3L9 2L8 2L8 3L9 3L9 6L8 6L8 8L4 8L4 9L3 9L3 8L0 8L0 10L1 10L1 9L2 9L2 10L3 10L3 12L5 12L5 14L4 14L4 13L3 13L3 15L7 15L7 16L6 16L6 17L7 17L7 18L6 18L6 19L7 19L7 20L5 20L5 21L4 21L4 22L2 22L2 23L1 23L1 22L0 22L0 24L1 24L1 25L0 25L0 27L1 27L1 25L2 25L2 27L3 27L3 28L2 28L2 29L1 29L1 28L0 28L0 30L1 30L1 31L0 31L0 33L1 33L1 35L2 35L2 36L0 36L0 38L1 38L1 37L2 37L2 38L3 38L3 37L4 37L4 38L6 38L6 39L7 39L7 40L5 40L5 39L3 39L3 42L5 42L5 43L1 43L1 42L2 42L2 41L1 41L1 40L0 40L0 44L1 44L1 46L0 46L0 48L5 48L5 47L7 47L7 48L6 48L6 49L7 49L7 48L8 48L8 53L9 53L9 54L8 54L8 57L10 57L10 56L11 56L11 57L15 57L15 56L16 56L16 55L17 55L17 56L18 56L18 57L20 57L20 56L21 56L21 55L23 55L23 56L22 56L22 57L24 57L24 55L25 55L25 56L26 56L26 57L27 57L27 56L26 56L26 55L29 55L29 56L28 56L28 57L29 57L29 56L30 56L30 55L29 55L29 54L32 54L32 57L33 57L33 56L34 56L34 57L35 57L35 56L34 56L34 55L33 55L33 54L34 54L34 53L33 53L33 52L35 52L35 54L36 54L36 57L37 57L37 56L38 56L38 57L39 57L39 56L38 56L38 55L37 55L37 54L38 54L38 53L39 53L39 54L40 54L40 57L41 57L41 56L42 56L42 55L41 55L41 54L42 54L42 53L43 53L43 54L44 54L44 55L43 55L43 57L45 57L45 54L46 54L46 53L47 53L47 52L48 52L48 54L47 54L47 55L49 55L49 56L46 56L46 57L49 57L49 56L50 56L50 57L51 57L51 56L52 56L52 57L53 57L53 56L52 56L52 55L53 55L53 53L54 53L54 51L56 51L56 52L55 52L55 54L54 54L54 55L55 55L55 57L57 57L57 56L56 56L56 55L57 55L57 54L56 54L56 52L57 52L57 48L56 48L56 47L57 47L57 44L56 44L56 43L57 43L57 40L56 40L56 41L54 41L54 40L53 40L53 42L52 42L52 40L51 40L51 39L55 39L55 38L56 38L56 39L57 39L57 38L56 38L56 36L57 36L57 28L56 28L56 27L57 27L57 20L55 20L55 22L54 22L54 23L55 23L55 24L56 24L56 25L55 25L55 26L54 26L54 27L53 27L53 26L48 26L48 28L46 28L46 27L44 27L44 26L45 26L45 24L46 24L46 23L45 23L45 22L46 22L46 21L47 21L47 22L48 22L48 21L47 21L47 20L48 20L48 19L49 19L49 20L51 20L51 19L49 19L49 18L50 18L50 17L51 17L51 18L52 18L52 21L51 21L51 22L50 22L50 21L49 21L49 22L50 22L50 23L47 23L47 24L50 24L50 25L51 25L51 24L52 24L52 25L53 25L53 22L52 22L52 21L54 21L54 19L55 19L55 18L56 18L56 19L57 19L57 17L54 17L54 15L57 15L57 12L56 12L56 11L57 11L57 10L56 10L56 9L55 9L55 8L54 8L54 9L53 9L53 10L52 10L52 9L51 9L51 8L49 8L49 10L48 10L48 9L47 9L47 8L48 8L48 7L49 7L49 6L48 6L48 7L47 7L47 5L48 5L48 0L46 0L46 1L45 1L45 0L44 0L44 1L43 1L43 0L42 0L42 1L41 1L41 0L40 0L40 1L39 1L39 0L38 0L38 1L37 1L37 4L36 4L36 3L35 3L35 4L34 4L34 3L33 3L33 6L32 6L32 9L33 9L33 10L31 10L31 12L30 12L30 9L31 9L31 4L28 4L28 3L27 3L27 2L28 2L28 1L29 1L29 3L30 3L30 2L31 2L31 1L34 1L34 2L36 2L36 0L28 0L28 1L27 1L27 0L26 0L26 3L25 3L25 2L24 2L24 1L25 1L25 0L24 0L24 1L23 1L23 2L20 2L20 1L21 1L21 0L15 0L15 2L14 2L14 1L13 1L13 0L12 0L12 1L13 1L13 2L11 2L11 0ZM18 1L18 2L15 2L15 3L14 3L14 2L13 2L13 4L15 4L15 3L16 3L16 5L18 5L18 6L17 6L17 7L18 7L18 8L16 8L16 6L15 6L15 5L14 5L14 6L13 6L13 5L12 5L12 6L11 6L11 5L10 5L10 6L9 6L9 7L10 7L10 8L9 8L9 10L7 10L7 9L5 9L5 10L7 10L7 11L6 11L6 12L7 12L7 13L6 13L6 14L7 14L7 15L9 15L9 16L8 16L8 17L9 17L9 18L10 18L10 19L8 19L8 18L7 18L7 19L8 19L8 20L9 20L9 21L5 21L5 22L4 22L4 23L2 23L2 25L3 25L3 24L4 24L4 26L3 26L3 27L4 27L4 26L5 26L5 24L8 24L8 23L9 23L9 26L10 26L10 27L9 27L9 29L10 29L10 30L12 30L12 29L11 29L11 28L10 28L10 27L12 27L12 28L15 28L15 29L13 29L13 30L14 30L14 31L10 31L10 32L9 32L9 31L8 31L8 33L5 33L5 34L4 34L4 35L5 35L5 34L10 34L10 33L12 33L12 34L11 34L11 35L10 35L10 36L12 36L12 34L15 34L15 35L14 35L14 36L15 36L15 37L14 37L14 40L13 40L13 39L11 39L11 38L13 38L13 37L9 37L9 35L8 35L8 38L7 38L7 37L6 37L6 38L7 38L7 39L8 39L8 38L10 38L10 41L9 41L9 40L8 40L8 41L5 41L5 40L4 40L4 41L5 41L5 42L11 42L11 43L9 43L9 44L8 44L8 45L6 45L6 44L7 44L7 43L5 43L5 46L4 46L4 45L3 45L3 44L2 44L2 46L1 46L1 47L2 47L2 46L3 46L3 47L5 47L5 46L7 46L7 47L8 47L8 48L9 48L9 50L10 50L10 51L9 51L9 52L12 52L12 53L13 53L13 56L15 56L15 55L14 55L14 51L11 51L11 50L12 50L12 49L13 49L13 50L15 50L15 49L14 49L14 48L15 48L15 47L16 47L16 50L17 50L17 51L15 51L15 52L17 52L17 53L16 53L16 54L17 54L17 55L18 55L18 56L20 56L20 55L21 55L21 54L20 54L20 52L21 52L21 53L22 53L22 52L23 52L23 53L24 53L24 54L23 54L23 55L24 55L24 54L25 54L25 55L26 55L26 54L25 54L25 51L26 51L26 50L25 50L25 48L27 48L27 47L28 47L28 46L29 46L29 47L30 47L30 46L31 46L31 48L33 48L33 49L32 49L32 50L31 50L31 52L33 52L33 51L36 51L36 52L37 52L37 53L36 53L36 54L37 54L37 53L38 53L38 52L39 52L39 51L40 51L40 50L41 50L41 51L42 51L42 52L41 52L41 53L42 53L42 52L43 52L43 53L44 53L44 54L45 54L45 53L46 53L46 52L47 52L47 51L48 51L48 50L47 50L47 49L48 49L48 48L49 48L49 47L47 47L47 46L48 46L48 45L52 45L52 46L51 46L51 47L52 47L52 48L53 48L53 49L54 49L54 50L53 50L53 51L54 51L54 50L55 50L55 49L56 49L56 48L55 48L55 47L54 47L54 46L56 46L56 44L55 44L55 43L56 43L56 42L53 42L53 43L52 43L52 44L48 44L48 43L47 43L47 42L49 42L49 43L50 43L50 42L49 42L49 41L51 41L51 40L49 40L49 39L48 39L48 40L47 40L47 37L48 37L48 38L50 38L50 37L48 37L48 35L50 35L50 34L51 34L51 33L50 33L50 31L48 31L48 29L46 29L46 28L45 28L45 29L44 29L44 28L43 28L43 26L44 26L44 25L43 25L43 24L41 24L41 25L40 25L40 23L44 23L44 22L45 22L45 21L46 21L46 20L47 20L47 19L48 19L48 18L49 18L49 17L50 17L50 16L51 16L51 15L52 15L52 14L53 14L53 15L54 15L54 14L56 14L56 12L55 12L55 11L52 11L52 10L51 10L51 9L50 9L50 10L49 10L49 11L47 11L47 9L45 9L45 10L44 10L44 11L45 11L45 10L46 10L46 12L45 12L45 13L44 13L44 12L43 12L43 9L44 9L44 8L43 8L43 7L44 7L44 6L45 6L45 7L46 7L46 6L45 6L45 5L44 5L44 4L45 4L45 3L46 3L46 5L47 5L47 3L46 3L46 2L47 2L47 1L46 1L46 2L45 2L45 1L44 1L44 2L43 2L43 3L42 3L42 2L41 2L41 1L40 1L40 3L38 3L38 4L41 4L41 5L39 5L39 7L38 7L38 6L37 6L37 5L36 5L36 4L35 4L35 5L36 5L36 6L35 6L35 7L34 7L34 6L33 6L33 7L34 7L34 8L35 8L35 9L34 9L34 12L33 12L33 13L32 13L32 12L31 12L31 13L30 13L30 14L29 14L29 13L28 13L28 12L29 12L29 11L28 11L28 12L27 12L27 10L29 10L29 9L27 9L27 10L25 10L25 9L26 9L26 6L25 6L25 5L26 5L26 4L27 4L27 3L26 3L26 4L25 4L25 5L24 5L24 4L23 4L23 3L24 3L24 2L23 2L23 3L22 3L22 4L21 4L21 3L20 3L20 2L19 2L19 1ZM18 2L18 3L17 3L17 4L18 4L18 3L19 3L19 2ZM41 3L41 4L42 4L42 5L41 5L41 6L40 6L40 9L39 9L39 8L38 8L38 7L37 7L37 6L36 6L36 9L35 9L35 10L36 10L36 11L35 11L35 12L34 12L34 13L33 13L33 14L30 14L30 15L29 15L29 14L26 14L26 13L27 13L27 12L26 12L26 11L23 11L23 10L24 10L24 7L25 7L25 6L24 6L24 5L23 5L23 4L22 4L22 5L21 5L21 4L20 4L20 5L21 5L21 6L20 6L20 7L19 7L19 6L18 6L18 7L19 7L19 8L18 8L18 9L17 9L17 10L16 10L16 9L15 9L15 8L14 8L14 7L15 7L15 6L14 6L14 7L13 7L13 6L12 6L12 7L11 7L11 6L10 6L10 7L11 7L11 11L7 11L7 12L8 12L8 13L7 13L7 14L8 14L8 13L11 13L11 11L12 11L12 10L14 10L14 11L15 11L15 12L14 12L14 13L15 13L15 14L14 14L14 15L13 15L13 13L12 13L12 14L11 14L11 16L9 16L9 17L10 17L10 18L12 18L12 20L10 20L10 22L9 22L9 23L10 23L10 22L12 22L12 25L11 25L11 24L10 24L10 26L12 26L12 27L15 27L15 28L16 28L16 27L17 27L17 26L18 26L18 27L19 27L19 28L18 28L18 29L19 29L19 30L20 30L20 31L18 31L18 30L16 30L16 29L15 29L15 30L16 30L16 31L15 31L15 32L13 32L13 33L15 33L15 34L16 34L16 33L15 33L15 32L16 32L16 31L18 31L18 32L17 32L17 34L18 34L18 35L15 35L15 36L16 36L16 38L18 38L18 39L16 39L16 40L18 40L18 41L17 41L17 42L16 42L16 41L15 41L15 40L14 40L14 41L12 41L12 40L11 40L11 41L12 41L12 42L13 42L13 47L11 47L11 46L12 46L12 43L11 43L11 44L10 44L10 45L11 45L11 46L9 46L9 45L8 45L8 46L9 46L9 48L10 48L10 50L11 50L11 49L12 49L12 48L14 48L14 46L16 46L16 47L17 47L17 50L18 50L18 51L17 51L17 52L18 52L18 53L17 53L17 54L18 54L18 55L19 55L19 52L20 52L20 51L21 51L21 52L22 52L22 51L23 51L23 52L24 52L24 51L25 51L25 50L24 50L24 49L23 49L23 48L24 48L24 47L27 47L27 46L26 46L26 45L28 45L28 44L30 44L30 45L31 45L31 46L32 46L32 47L33 47L33 48L35 48L35 49L36 49L36 51L37 51L37 48L38 48L38 49L39 49L39 50L38 50L38 51L39 51L39 50L40 50L40 49L41 49L41 50L42 50L42 49L43 49L43 50L46 50L46 51L43 51L43 52L44 52L44 53L45 53L45 52L46 52L46 51L47 51L47 50L46 50L46 49L47 49L47 48L46 48L46 47L45 47L45 46L46 46L46 45L47 45L47 44L46 44L46 42L45 42L45 43L43 43L43 44L42 44L42 45L43 45L43 46L44 46L44 47L43 47L43 48L42 48L42 46L40 46L40 45L41 45L41 44L40 44L40 43L42 43L42 41L47 41L47 40L46 40L46 39L45 39L45 38L46 38L46 37L47 37L47 36L46 36L46 35L43 35L43 36L42 36L42 35L41 35L41 34L42 34L42 33L43 33L43 34L46 34L46 33L45 33L45 32L46 32L46 31L45 31L45 30L46 30L46 29L45 29L45 30L44 30L44 29L43 29L43 28L42 28L42 27L40 27L40 26L39 26L39 27L38 27L38 25L39 25L39 23L38 23L38 24L37 24L37 22L38 22L38 21L39 21L39 22L42 22L42 21L43 21L43 22L44 22L44 21L45 21L45 20L46 20L46 17L47 17L47 16L48 16L48 15L50 15L50 13L51 13L51 12L52 12L52 13L53 13L53 14L54 14L54 13L53 13L53 12L52 12L52 11L51 11L51 12L50 12L50 11L49 11L49 12L50 12L50 13L49 13L49 14L48 14L48 13L47 13L47 12L46 12L46 13L45 13L45 14L44 14L44 13L43 13L43 12L42 12L42 9L43 9L43 8L42 8L42 7L43 7L43 6L44 6L44 5L43 5L43 4L44 4L44 3L43 3L43 4L42 4L42 3ZM22 5L22 6L21 6L21 7L20 7L20 8L19 8L19 9L20 9L20 10L18 10L18 11L22 11L22 12L18 12L18 14L17 14L17 11L16 11L16 10L15 10L15 11L16 11L16 12L15 12L15 13L16 13L16 14L15 14L15 15L14 15L14 16L13 16L13 15L12 15L12 16L11 16L11 17L12 17L12 18L13 18L13 17L14 17L14 16L15 16L15 15L16 15L16 17L15 17L15 18L14 18L14 19L16 19L16 20L17 20L17 21L16 21L16 22L17 22L17 23L16 23L16 24L14 24L14 23L13 23L13 24L14 24L14 25L13 25L13 26L15 26L15 27L16 27L16 26L17 26L17 25L18 25L18 24L19 24L19 25L20 25L20 26L19 26L19 27L22 27L22 28L19 28L19 29L20 29L20 30L21 30L21 31L20 31L20 32L19 32L19 33L20 33L20 34L19 34L19 35L18 35L18 36L17 36L17 37L18 37L18 36L19 36L19 35L20 35L20 36L21 36L21 37L20 37L20 38L21 38L21 39L20 39L20 40L19 40L19 39L18 39L18 40L19 40L19 41L20 41L20 42L21 42L21 43L20 43L20 44L18 44L18 47L20 47L20 48L19 48L19 49L20 49L20 50L19 50L19 51L18 51L18 52L19 52L19 51L20 51L20 50L21 50L21 51L22 51L22 50L21 50L21 49L22 49L22 48L23 48L23 47L22 47L22 46L25 46L25 45L26 45L26 44L28 44L28 43L26 43L26 44L25 44L25 43L24 43L24 45L22 45L22 44L23 44L23 43L22 43L22 40L21 40L21 39L24 39L24 42L25 42L25 41L26 41L26 42L27 42L27 41L26 41L26 40L27 40L27 39L28 39L28 42L30 42L30 43L31 43L31 45L32 45L32 46L33 46L33 47L35 47L35 46L36 46L36 45L34 45L34 44L35 44L35 43L36 43L36 42L35 42L35 41L36 41L36 39L38 39L38 40L37 40L37 41L38 41L38 44L37 44L37 46L39 46L39 47L38 47L38 48L39 48L39 49L40 49L40 48L39 48L39 47L40 47L40 46L39 46L39 45L38 45L38 44L39 44L39 43L40 43L40 42L39 42L39 41L40 41L40 40L39 40L39 39L40 39L40 38L41 38L41 39L42 39L42 40L41 40L41 41L42 41L42 40L43 40L43 39L44 39L44 38L45 38L45 37L46 37L46 36L45 36L45 37L44 37L44 36L43 36L43 37L42 37L42 36L41 36L41 37L38 37L38 36L39 36L39 35L40 35L40 34L41 34L41 33L42 33L42 32L43 32L43 33L44 33L44 32L43 32L43 31L44 31L44 30L43 30L43 29L42 29L42 28L41 28L41 29L40 29L40 30L42 30L42 32L41 32L41 33L40 33L40 32L39 32L39 28L37 28L37 29L34 29L34 30L33 30L33 29L32 29L32 27L33 27L33 28L34 28L34 27L35 27L35 25L36 25L36 26L37 26L37 25L36 25L36 24L35 24L35 23L36 23L36 22L35 22L35 21L36 21L36 20L35 20L35 19L36 19L36 18L37 18L37 20L39 20L39 19L40 19L40 18L41 18L41 19L42 19L42 20L41 20L41 21L42 21L42 20L43 20L43 21L44 21L44 20L43 20L43 19L44 19L44 18L45 18L45 17L46 17L46 16L47 16L47 15L48 15L48 14L47 14L47 13L46 13L46 14L45 14L45 15L46 15L46 16L45 16L45 17L44 17L44 16L43 16L43 15L44 15L44 14L43 14L43 13L42 13L42 12L41 12L41 13L38 13L38 12L40 12L40 10L41 10L41 9L42 9L42 8L41 8L41 9L40 9L40 10L39 10L39 9L38 9L38 10L37 10L37 9L36 9L36 10L37 10L37 13L38 13L38 16L37 16L37 17L35 17L35 16L36 16L36 13L34 13L34 14L33 14L33 15L34 15L34 17L33 17L33 19L34 19L34 20L35 20L35 21L29 21L29 23L30 23L30 24L29 24L29 25L30 25L30 26L31 26L31 32L30 32L30 31L28 31L28 32L27 32L27 31L26 31L26 32L27 32L27 34L26 34L26 36L25 36L25 35L24 35L24 34L25 34L25 29L26 29L26 28L25 28L25 25L27 25L27 23L28 23L28 22L27 22L27 21L28 21L28 18L30 18L30 19L29 19L29 20L30 20L30 19L32 19L32 18L31 18L31 17L28 17L28 16L27 16L27 15L26 15L26 14L25 14L25 13L26 13L26 12L23 12L23 11L22 11L22 8L23 8L23 7L24 7L24 6L23 6L23 5ZM27 5L27 8L30 8L30 5ZM22 6L22 7L21 7L21 8L22 8L22 7L23 7L23 6ZM28 6L28 7L29 7L29 6ZM41 6L41 7L42 7L42 6ZM13 8L13 9L14 9L14 8ZM0 11L0 12L1 12L1 11ZM22 12L22 13L21 13L21 14L20 14L20 13L19 13L19 14L20 14L20 15L17 15L17 14L16 14L16 15L17 15L17 18L16 18L16 19L17 19L17 20L18 20L18 21L17 21L17 22L18 22L18 23L17 23L17 24L18 24L18 23L19 23L19 20L20 20L20 22L22 22L22 21L23 21L23 22L24 22L24 23L23 23L23 24L22 24L22 23L20 23L20 25L21 25L21 24L22 24L22 27L23 27L23 28L22 28L22 29L21 29L21 30L22 30L22 31L21 31L21 32L22 32L22 33L21 33L21 34L20 34L20 35L21 35L21 36L22 36L22 37L21 37L21 38L24 38L24 39L25 39L25 40L26 40L26 39L27 39L27 38L28 38L28 39L30 39L30 40L31 40L31 38L32 38L32 41L31 41L31 42L32 42L32 41L33 41L33 43L32 43L32 45L33 45L33 46L34 46L34 45L33 45L33 44L34 44L34 41L33 41L33 40L35 40L35 39L36 39L36 38L37 38L37 36L38 36L38 35L37 35L37 36L34 36L34 37L33 37L33 35L34 35L34 33L35 33L35 35L36 35L36 33L37 33L37 34L38 34L38 33L39 33L39 34L40 34L40 33L39 33L39 32L38 32L38 31L37 31L37 30L38 30L38 29L37 29L37 30L36 30L36 31L35 31L35 32L33 32L33 30L32 30L32 32L31 32L31 33L29 33L29 34L27 34L27 35L29 35L29 36L30 36L30 38L28 38L28 37L27 37L27 38L26 38L26 37L25 37L25 38L24 38L24 37L23 37L23 36L24 36L24 35L21 35L21 34L24 34L24 33L23 33L23 32L24 32L24 30L23 30L23 29L24 29L24 23L25 23L25 24L26 24L26 23L27 23L27 22L26 22L26 19L25 19L25 18L26 18L26 17L25 17L25 18L24 18L24 17L23 17L23 16L24 16L24 14L23 14L23 12ZM0 13L0 17L1 17L1 18L0 18L0 20L1 20L1 21L2 21L2 20L3 20L3 19L1 19L1 18L3 18L3 17L5 17L5 16L3 16L3 17L1 17L1 15L2 15L2 14L1 14L1 13ZM41 13L41 14L40 14L40 15L39 15L39 16L38 16L38 17L37 17L37 18L38 18L38 17L39 17L39 18L40 18L40 17L41 17L41 18L42 18L42 17L43 17L43 18L44 18L44 17L43 17L43 16L42 16L42 15L41 15L41 14L42 14L42 13ZM9 14L9 15L10 15L10 14ZM21 14L21 15L20 15L20 16L19 16L19 17L20 17L20 18L19 18L19 19L18 19L18 18L17 18L17 19L18 19L18 20L19 20L19 19L20 19L20 20L21 20L21 21L22 21L22 20L21 20L21 19L24 19L24 20L23 20L23 21L24 21L24 22L25 22L25 23L26 23L26 22L25 22L25 19L24 19L24 18L21 18L21 17L22 17L22 16L23 16L23 15L22 15L22 14ZM21 15L21 16L22 16L22 15ZM39 16L39 17L40 17L40 16ZM41 16L41 17L42 17L42 16ZM27 17L27 18L28 18L28 17ZM52 17L52 18L53 18L53 19L54 19L54 18L53 18L53 17ZM4 18L4 19L5 19L5 18ZM20 18L20 19L21 19L21 18ZM14 20L14 22L15 22L15 20ZM5 22L5 23L8 23L8 22ZM31 22L31 23L32 23L32 25L31 25L31 24L30 24L30 25L31 25L31 26L33 26L33 27L34 27L34 22ZM51 22L51 23L50 23L50 24L51 24L51 23L52 23L52 22ZM6 25L6 26L7 26L7 25ZM15 25L15 26L16 26L16 25ZM41 25L41 26L42 26L42 25ZM55 26L55 27L54 27L54 30L53 30L53 31L54 31L54 32L52 32L52 31L51 31L51 32L52 32L52 34L53 34L53 35L51 35L51 37L52 37L52 38L53 38L53 37L54 37L54 38L55 38L55 34L53 34L53 33L56 33L56 32L55 32L55 29L56 29L56 28L55 28L55 27L56 27L56 26ZM5 27L5 30L8 30L8 27ZM27 27L27 30L30 30L30 27ZM49 27L49 30L52 30L52 27ZM3 28L3 29L2 29L2 31L1 31L1 33L2 33L2 35L3 35L3 33L4 33L4 32L5 32L5 31L4 31L4 30L3 30L3 29L4 29L4 28ZM6 28L6 29L7 29L7 28ZM28 28L28 29L29 29L29 28ZM50 28L50 29L51 29L51 28ZM6 31L6 32L7 32L7 31ZM22 31L22 32L23 32L23 31ZM2 32L2 33L3 33L3 32ZM37 32L37 33L38 33L38 32ZM48 32L48 33L47 33L47 34L48 34L48 33L49 33L49 34L50 34L50 33L49 33L49 32ZM32 33L32 34L31 34L31 35L30 35L30 34L29 34L29 35L30 35L30 36L32 36L32 34L33 34L33 33ZM6 35L6 36L7 36L7 35ZM53 35L53 36L54 36L54 35ZM2 36L2 37L3 37L3 36ZM34 37L34 39L35 39L35 37ZM41 37L41 38L42 38L42 37ZM43 37L43 38L44 38L44 37ZM20 40L20 41L21 41L21 40ZM48 40L48 41L49 41L49 40ZM14 41L14 42L15 42L15 43L16 43L16 44L14 44L14 45L16 45L16 46L17 46L17 43L16 43L16 42L15 42L15 41ZM18 42L18 43L19 43L19 42ZM21 43L21 44L22 44L22 43ZM53 43L53 44L54 44L54 43ZM43 44L43 45L44 45L44 46L45 46L45 45L46 45L46 44L45 44L45 45L44 45L44 44ZM19 45L19 46L20 46L20 47L21 47L21 48L22 48L22 47L21 47L21 46L22 46L22 45L21 45L21 46L20 46L20 45ZM53 45L53 46L52 46L52 47L53 47L53 48L54 48L54 47L53 47L53 46L54 46L54 45ZM10 47L10 48L11 48L11 47ZM44 47L44 48L43 48L43 49L44 49L44 48L45 48L45 49L46 49L46 48L45 48L45 47ZM41 48L41 49L42 49L42 48ZM27 49L27 52L30 52L30 49ZM33 49L33 50L32 50L32 51L33 51L33 50L34 50L34 49ZM49 49L49 52L52 52L52 49ZM23 50L23 51L24 51L24 50ZM28 50L28 51L29 51L29 50ZM50 50L50 51L51 51L51 50ZM27 53L27 54L28 54L28 53ZM32 53L32 54L33 54L33 53ZM50 53L50 54L49 54L49 55L50 55L50 56L51 56L51 55L52 55L52 53ZM9 54L9 55L11 55L11 56L12 56L12 54ZM50 54L50 55L51 55L51 54ZM55 54L55 55L56 55L56 54ZM0 0L0 7L7 7L7 0ZM1 1L1 6L6 6L6 1ZM2 2L2 5L5 5L5 2ZM50 0L50 7L57 7L57 0ZM51 1L51 6L56 6L56 1ZM52 2L52 5L55 5L55 2ZM0 50L0 57L7 57L7 50ZM1 51L1 56L6 56L6 51ZM2 52L2 55L5 55L5 52Z" fill="#000000"/></g></g></svg>
