<?xml version="1.0" encoding="UTF-8"?>
<svg xmlns="http://www.w3.org/2000/svg" version="1.1" width="180" height="180" viewBox="0 0 180 180"><rect x="0" y="0" width="180" height="180" fill="#ffffff"/><g transform="scale(3.396)"><g transform="translate(0,0)"><path fill-rule="evenodd" d="M9 0L9 2L8 2L8 3L9 3L9 2L10 2L10 3L11 3L11 2L14 2L14 3L12 3L12 4L10 4L10 7L9 7L9 6L8 6L8 8L4 8L4 9L3 9L3 8L0 8L0 9L1 9L1 10L2 10L2 9L3 9L3 12L2 12L2 11L1 11L1 12L0 12L0 14L1 14L1 12L2 12L2 14L3 14L3 15L5 15L5 16L3 16L3 17L2 17L2 16L1 16L1 20L2 20L2 22L0 22L0 25L1 25L1 24L2 24L2 27L4 27L4 28L3 28L3 29L7 29L7 30L6 30L6 31L7 31L7 32L6 32L6 33L7 33L7 34L6 34L6 35L5 35L5 36L4 36L4 35L3 35L3 33L0 33L0 34L1 34L1 35L3 35L3 36L1 36L1 39L2 39L2 37L3 37L3 36L4 36L4 38L5 38L5 40L4 40L4 41L3 41L3 40L2 40L2 41L0 41L0 43L1 43L1 44L3 44L3 45L4 45L4 44L3 44L3 43L7 43L7 42L8 42L8 43L10 43L10 42L8 42L8 41L10 41L10 40L9 40L9 39L8 39L8 41L7 41L7 40L6 40L6 39L7 39L7 38L5 38L5 37L7 37L7 36L9 36L9 35L8 35L8 29L9 29L9 30L10 30L10 31L11 31L11 34L12 34L12 37L11 37L11 38L10 38L10 39L11 39L11 40L12 40L12 39L13 39L13 42L14 42L14 40L16 40L16 39L17 39L17 38L18 38L18 39L19 39L19 40L18 40L18 41L17 41L17 42L16 42L16 41L15 41L15 42L16 42L16 43L15 43L15 44L14 44L14 46L16 46L16 47L15 47L15 48L13 48L13 47L12 47L12 44L13 44L13 43L11 43L11 47L10 47L10 45L9 45L9 44L6 44L6 45L8 45L8 49L9 49L9 50L8 50L8 53L10 53L10 52L9 52L9 50L10 50L10 49L11 49L11 50L13 50L13 49L15 49L15 50L16 50L16 49L15 49L15 48L16 48L16 47L17 47L17 48L18 48L18 49L17 49L17 50L18 50L18 51L14 51L14 52L13 52L13 51L11 51L11 53L14 53L14 52L18 52L18 53L19 53L19 52L22 52L22 53L25 53L25 50L26 50L26 49L27 49L27 50L28 50L28 51L26 51L26 52L28 52L28 53L29 53L29 52L30 52L30 53L31 53L31 52L30 52L30 51L29 51L29 50L30 50L30 49L31 49L31 51L32 51L32 53L33 53L33 52L36 52L36 53L37 53L37 51L38 51L38 49L39 49L39 50L40 50L40 51L39 51L39 52L38 52L38 53L39 53L39 52L40 52L40 53L41 53L41 50L42 50L42 49L43 49L43 50L44 50L44 51L43 51L43 52L42 52L42 53L43 53L43 52L44 52L44 53L45 53L45 52L46 52L46 51L45 51L45 50L48 50L48 51L47 51L47 52L48 52L48 53L49 53L49 52L50 52L50 53L53 53L53 52L52 52L52 50L53 50L53 48L52 48L52 47L53 47L53 42L52 42L52 41L53 41L53 37L51 37L51 38L50 38L50 35L51 35L51 36L53 36L53 34L52 34L52 33L51 33L51 34L50 34L50 33L49 33L49 34L50 34L50 35L47 35L47 34L48 34L48 33L47 33L47 32L48 32L48 31L49 31L49 32L50 32L50 31L53 31L53 29L52 29L52 30L50 30L50 27L51 27L51 28L53 28L53 25L51 25L51 26L49 26L49 24L50 24L50 23L51 23L51 24L52 24L52 23L53 23L53 20L52 20L52 19L53 19L53 16L52 16L52 15L53 15L53 12L52 12L52 11L53 11L53 9L51 9L51 8L50 8L50 9L49 9L49 10L48 10L48 9L47 9L47 8L45 8L45 9L47 9L47 10L48 10L48 11L47 11L47 12L46 12L46 11L43 11L43 12L42 12L42 13L43 13L43 14L44 14L44 15L43 15L43 16L42 16L42 15L41 15L41 14L40 14L40 15L39 15L39 16L38 16L38 15L37 15L37 14L38 14L38 13L37 13L37 12L39 12L39 13L41 13L41 10L42 10L42 9L43 9L43 10L44 10L44 9L43 9L43 8L44 8L44 7L45 7L45 6L44 6L44 7L43 7L43 3L44 3L44 4L45 4L45 3L44 3L44 1L43 1L43 0L42 0L42 1L41 1L41 0L40 0L40 1L41 1L41 2L43 2L43 3L42 3L42 5L41 5L41 4L40 4L40 3L39 3L39 0L36 0L36 1L35 1L35 0L34 0L34 1L31 1L31 0L30 0L30 1L29 1L29 2L28 2L28 1L27 1L27 0L23 0L23 1L22 1L22 2L21 2L21 3L20 3L20 2L16 2L16 1L18 1L18 0L16 0L16 1L15 1L15 2L14 2L14 1L11 1L11 2L10 2L10 0ZM20 0L20 1L21 1L21 0ZM26 1L26 2L27 2L27 3L28 3L28 4L29 4L29 5L30 5L30 4L31 4L31 5L32 5L32 6L31 6L31 7L32 7L32 8L29 8L29 9L28 9L28 10L29 10L29 11L28 11L28 12L27 12L27 11L26 11L26 10L27 10L27 9L26 9L26 10L24 10L24 11L23 11L23 10L22 10L22 9L21 9L21 8L23 8L23 7L24 7L24 6L23 6L23 3L24 3L24 2L22 2L22 3L21 3L21 5L22 5L22 6L21 6L21 8L20 8L20 6L19 6L19 3L18 3L18 4L17 4L17 5L16 5L16 4L15 4L15 3L16 3L16 2L15 2L15 3L14 3L14 4L13 4L13 5L11 5L11 7L12 7L12 6L13 6L13 7L14 7L14 8L13 8L13 9L12 9L12 8L11 8L11 9L10 9L10 11L14 11L14 12L11 12L11 13L10 13L10 12L8 12L8 11L9 11L9 9L8 9L8 10L7 10L7 9L6 9L6 10L5 10L5 9L4 9L4 12L3 12L3 13L4 13L4 14L5 14L5 15L6 15L6 16L5 16L5 17L3 17L3 19L2 19L2 20L3 20L3 21L4 21L4 20L3 20L3 19L4 19L4 18L5 18L5 19L6 19L6 20L7 20L7 21L5 21L5 22L4 22L4 23L3 23L3 22L2 22L2 23L3 23L3 24L4 24L4 23L5 23L5 22L7 22L7 23L6 23L6 24L8 24L8 23L9 23L9 25L10 25L10 26L9 26L9 27L10 27L10 28L12 28L12 27L14 27L14 28L13 28L13 29L14 29L14 28L15 28L15 29L16 29L16 30L15 30L15 31L14 31L14 30L13 30L13 31L12 31L12 33L13 33L13 35L14 35L14 36L15 36L15 37L12 37L12 38L11 38L11 39L12 39L12 38L14 38L14 39L16 39L16 38L17 38L17 37L18 37L18 38L19 38L19 39L20 39L20 42L19 42L19 41L18 41L18 42L17 42L17 43L16 43L16 44L15 44L15 45L16 45L16 46L17 46L17 47L19 47L19 49L18 49L18 50L19 50L19 51L18 51L18 52L19 52L19 51L22 51L22 52L23 52L23 51L24 51L24 50L25 50L25 49L24 49L24 47L22 47L22 46L21 46L21 45L22 45L22 44L23 44L23 45L24 45L24 44L23 44L23 43L25 43L25 44L27 44L27 43L28 43L28 44L29 44L29 45L30 45L30 46L29 46L29 47L30 47L30 48L29 48L29 49L28 49L28 50L29 50L29 49L30 49L30 48L31 48L31 45L32 45L32 46L33 46L33 45L32 45L32 43L33 43L33 44L35 44L35 45L34 45L34 47L33 47L33 48L34 48L34 49L32 49L32 51L37 51L37 50L35 50L35 48L34 48L34 47L35 47L35 46L36 46L36 48L37 48L37 49L38 49L38 48L39 48L39 49L40 49L40 50L41 50L41 49L42 49L42 48L43 48L43 49L44 49L44 48L43 48L43 47L44 47L44 46L43 46L43 45L44 45L44 44L45 44L45 43L46 43L46 42L47 42L47 43L50 43L50 44L49 44L49 45L50 45L50 46L49 46L49 47L50 47L50 48L49 48L49 49L50 49L50 50L49 50L49 51L48 51L48 52L49 52L49 51L50 51L50 52L51 52L51 51L50 51L50 50L51 50L51 49L52 49L52 48L51 48L51 47L50 47L50 46L52 46L52 42L51 42L51 41L52 41L52 40L51 40L51 39L50 39L50 38L49 38L49 36L47 36L47 37L46 37L46 36L45 36L45 35L46 35L46 34L47 34L47 33L46 33L46 32L45 32L45 31L46 31L46 30L47 30L47 31L48 31L48 30L49 30L49 31L50 31L50 30L49 30L49 29L48 29L48 30L47 30L47 29L46 29L46 30L45 30L45 31L44 31L44 28L43 28L43 27L44 27L44 26L43 26L43 25L44 25L44 24L47 24L47 23L48 23L48 22L49 22L49 23L50 23L50 22L51 22L51 23L52 23L52 22L51 22L51 21L52 21L52 20L51 20L51 19L52 19L52 18L51 18L51 17L52 17L52 16L51 16L51 15L52 15L52 12L51 12L51 11L52 11L52 10L49 10L49 11L50 11L50 12L49 12L49 13L48 13L48 12L47 12L47 13L46 13L46 12L43 12L43 13L44 13L44 14L45 14L45 15L44 15L44 16L43 16L43 17L42 17L42 16L41 16L41 17L40 17L40 16L39 16L39 17L34 17L34 18L32 18L32 20L31 20L31 17L30 17L30 16L31 16L31 15L33 15L33 16L34 16L34 15L35 15L35 16L36 16L36 14L37 14L37 13L36 13L36 10L35 10L35 9L36 9L36 8L35 8L35 7L36 7L36 6L37 6L37 7L38 7L38 8L37 8L37 11L39 11L39 12L40 12L40 10L41 10L41 9L42 9L42 8L43 8L43 7L42 7L42 6L41 6L41 5L40 5L40 4L39 4L39 3L38 3L38 1L36 1L36 2L35 2L35 3L34 3L34 2L31 2L31 1L30 1L30 2L29 2L29 3L28 3L28 2L27 2L27 1ZM30 2L30 3L29 3L29 4L30 4L30 3L31 3L31 4L32 4L32 5L33 5L33 4L34 4L34 7L33 7L33 6L32 6L32 7L33 7L33 8L32 8L32 9L33 9L33 10L31 10L31 12L30 12L30 11L29 11L29 12L28 12L28 13L27 13L27 14L26 14L26 13L25 13L25 12L26 12L26 11L25 11L25 12L23 12L23 11L22 11L22 10L20 10L20 9L19 9L19 8L18 8L18 7L19 7L19 6L18 6L18 5L17 5L17 6L16 6L16 5L15 5L15 6L14 6L14 5L13 5L13 6L14 6L14 7L15 7L15 8L14 8L14 9L13 9L13 10L14 10L14 11L15 11L15 12L14 12L14 13L13 13L13 14L10 14L10 13L7 13L7 12L4 12L4 13L5 13L5 14L6 14L6 15L7 15L7 16L6 16L6 17L7 17L7 16L8 16L8 14L10 14L10 15L9 15L9 17L8 17L8 18L9 18L9 19L8 19L8 20L9 20L9 21L8 21L8 22L9 22L9 23L10 23L10 24L11 24L11 26L10 26L10 27L11 27L11 26L12 26L12 24L11 24L11 22L9 22L9 21L10 21L10 20L11 20L11 18L12 18L12 20L14 20L14 21L13 21L13 26L14 26L14 27L15 27L15 28L16 28L16 27L17 27L17 28L18 28L18 29L17 29L17 30L16 30L16 31L15 31L15 32L14 32L14 33L15 33L15 34L14 34L14 35L15 35L15 36L16 36L16 35L17 35L17 36L18 36L18 37L19 37L19 38L20 38L20 39L21 39L21 40L22 40L22 41L21 41L21 42L20 42L20 43L17 43L17 44L18 44L18 45L17 45L17 46L19 46L19 47L20 47L20 48L22 48L22 51L23 51L23 50L24 50L24 49L23 49L23 48L22 48L22 47L21 47L21 46L20 46L20 45L19 45L19 44L20 44L20 43L21 43L21 44L22 44L22 43L23 43L23 40L24 40L24 41L25 41L25 43L27 43L27 42L28 42L28 41L29 41L29 42L30 42L30 41L32 41L32 42L31 42L31 43L32 43L32 42L33 42L33 41L34 41L34 37L35 37L35 38L36 38L36 39L35 39L35 43L36 43L36 45L37 45L37 48L38 48L38 45L37 45L37 44L38 44L38 43L37 43L37 42L38 42L38 41L39 41L39 42L40 42L40 43L39 43L39 45L40 45L40 46L39 46L39 48L40 48L40 49L41 49L41 48L42 48L42 47L41 47L41 44L42 44L42 45L43 45L43 44L42 44L42 43L41 43L41 42L42 42L42 41L43 41L43 42L44 42L44 41L45 41L45 42L46 42L46 41L47 41L47 42L48 42L48 41L49 41L49 42L50 42L50 43L51 43L51 42L50 42L50 41L49 41L49 40L50 40L50 39L49 39L49 38L48 38L48 37L47 37L47 38L46 38L46 37L45 37L45 36L44 36L44 37L45 37L45 38L44 38L44 39L45 39L45 38L46 38L46 41L45 41L45 40L44 40L44 41L43 41L43 40L42 40L42 39L41 39L41 38L42 38L42 37L43 37L43 36L41 36L41 34L42 34L42 33L43 33L43 34L44 34L44 33L45 33L45 34L46 34L46 33L45 33L45 32L44 32L44 33L43 33L43 32L42 32L42 31L41 31L41 26L42 26L42 25L43 25L43 24L44 24L44 23L45 23L45 22L46 22L46 21L47 21L47 22L48 22L48 21L49 21L49 22L50 22L50 19L51 19L51 18L50 18L50 17L49 17L49 16L50 16L50 15L51 15L51 14L50 14L50 13L49 13L49 14L48 14L48 13L47 13L47 14L48 14L48 15L45 15L45 16L44 16L44 17L43 17L43 18L44 18L44 17L47 17L47 18L48 18L48 19L47 19L47 20L46 20L46 19L43 19L43 20L42 20L42 19L41 19L41 18L42 18L42 17L41 17L41 18L40 18L40 17L39 17L39 18L40 18L40 19L39 19L39 20L38 20L38 19L37 19L37 18L36 18L36 21L37 21L37 23L36 23L36 22L35 22L35 24L34 24L34 20L32 20L32 21L31 21L31 20L30 20L30 19L29 19L29 18L30 18L30 17L29 17L29 16L30 16L30 15L29 15L29 14L30 14L30 13L31 13L31 14L33 14L33 15L34 15L34 13L35 13L35 12L34 12L34 11L33 11L33 10L34 10L34 9L35 9L35 8L34 8L34 7L35 7L35 4L36 4L36 5L37 5L37 4L38 4L38 7L39 7L39 4L38 4L38 3L37 3L37 4L36 4L36 3L35 3L35 4L34 4L34 3L33 3L33 4L32 4L32 3L31 3L31 2ZM25 5L25 8L28 8L28 5ZM15 6L15 7L16 7L16 8L15 8L15 9L16 9L16 10L15 10L15 11L16 11L16 12L15 12L15 13L16 13L16 14L15 14L15 15L14 15L14 14L13 14L13 15L14 15L14 16L12 16L12 15L11 15L11 16L10 16L10 17L11 17L11 16L12 16L12 18L13 18L13 19L14 19L14 20L15 20L15 21L16 21L16 22L14 22L14 23L16 23L16 24L14 24L14 26L15 26L15 27L16 27L16 26L17 26L17 27L18 27L18 28L19 28L19 27L20 27L20 29L18 29L18 30L17 30L17 31L16 31L16 32L15 32L15 33L16 33L16 34L15 34L15 35L16 35L16 34L17 34L17 35L20 35L20 36L19 36L19 37L20 37L20 38L21 38L21 37L22 37L22 36L23 36L23 38L22 38L22 39L25 39L25 40L26 40L26 39L28 39L28 40L27 40L27 41L28 41L28 40L29 40L29 41L30 41L30 40L31 40L31 39L33 39L33 37L32 37L32 36L31 36L31 35L32 35L32 34L31 34L31 33L30 33L30 32L31 32L31 31L32 31L32 30L33 30L33 29L34 29L34 32L33 32L33 36L35 36L35 37L36 37L36 38L37 38L37 37L38 37L38 39L37 39L37 41L36 41L36 42L37 42L37 41L38 41L38 40L39 40L39 41L40 41L40 42L41 42L41 41L42 41L42 40L41 40L41 41L40 41L40 40L39 40L39 39L40 39L40 38L41 38L41 37L38 37L38 36L39 36L39 35L40 35L40 34L41 34L41 33L42 33L42 32L41 32L41 33L40 33L40 32L39 32L39 31L40 31L40 29L39 29L39 27L40 27L40 26L41 26L41 25L42 25L42 24L43 24L43 23L44 23L44 22L45 22L45 21L46 21L46 20L43 20L43 21L40 21L40 22L39 22L39 21L38 21L38 20L37 20L37 21L38 21L38 23L41 23L41 22L42 22L42 24L41 24L41 25L40 25L40 24L37 24L37 26L36 26L36 25L34 25L34 24L33 24L33 25L30 25L30 24L31 24L31 23L33 23L33 22L31 22L31 21L30 21L30 20L29 20L29 19L28 19L28 18L27 18L27 17L28 17L28 16L29 16L29 15L28 15L28 14L27 14L27 15L25 15L25 14L24 14L24 15L22 15L22 16L23 16L23 17L24 17L24 18L23 18L23 19L21 19L21 16L20 16L20 15L21 15L21 11L20 11L20 10L19 10L19 11L18 11L18 8L17 8L17 7L18 7L18 6L17 6L17 7L16 7L16 6ZM22 6L22 7L23 7L23 6ZM26 6L26 7L27 7L27 6ZM29 6L29 7L30 7L30 6ZM40 6L40 8L39 8L39 10L40 10L40 9L41 9L41 8L42 8L42 7L41 7L41 6ZM33 8L33 9L34 9L34 8ZM11 9L11 10L12 10L12 9ZM29 9L29 10L30 10L30 9ZM6 10L6 11L7 11L7 10ZM16 10L16 11L17 11L17 12L18 12L18 15L20 15L20 14L19 14L19 12L18 12L18 11L17 11L17 10ZM29 12L29 13L30 13L30 12ZM31 12L31 13L32 13L32 12ZM6 13L6 14L7 14L7 13ZM45 13L45 14L46 14L46 13ZM16 14L16 15L15 15L15 16L14 16L14 17L13 17L13 18L14 18L14 19L15 19L15 20L16 20L16 19L17 19L17 18L18 18L18 19L19 19L19 20L18 20L18 21L17 21L17 22L16 22L16 23L18 23L18 22L19 22L19 20L20 20L20 19L19 19L19 18L20 18L20 16L18 16L18 17L17 17L17 18L16 18L16 17L15 17L15 16L16 16L16 15L17 15L17 14ZM49 14L49 15L50 15L50 14ZM27 15L27 16L28 16L28 15ZM24 16L24 17L25 17L25 18L26 18L26 19L27 19L27 20L24 20L24 21L23 21L23 20L22 20L22 21L21 21L21 22L24 22L24 21L27 21L27 22L26 22L26 23L27 23L27 24L24 24L24 23L23 23L23 24L21 24L21 23L19 23L19 24L18 24L18 27L19 27L19 26L20 26L20 27L21 27L21 28L22 28L22 30L20 30L20 31L19 31L19 30L18 30L18 31L17 31L17 32L18 32L18 34L20 34L20 31L22 31L22 32L21 32L21 34L22 34L22 35L23 35L23 36L24 36L24 35L27 35L27 36L25 36L25 37L24 37L24 38L25 38L25 39L26 39L26 38L28 38L28 37L29 37L29 38L30 38L30 37L31 37L31 36L30 36L30 35L29 35L29 36L28 36L28 35L27 35L27 34L28 34L28 33L29 33L29 34L30 34L30 33L29 33L29 32L30 32L30 31L29 31L29 32L28 32L28 31L25 31L25 30L28 30L28 29L29 29L29 30L30 30L30 29L31 29L31 30L32 30L32 29L33 29L33 28L36 28L36 29L37 29L37 30L36 30L36 31L35 31L35 32L34 32L34 33L39 33L39 34L40 34L40 33L39 33L39 32L37 32L37 31L38 31L38 29L37 29L37 28L38 28L38 27L33 27L33 26L34 26L34 25L33 25L33 26L32 26L32 27L31 27L31 28L30 28L30 27L29 27L29 26L30 26L30 25L29 25L29 24L30 24L30 23L29 23L29 22L30 22L30 21L29 21L29 20L28 20L28 19L27 19L27 18L26 18L26 16ZM47 16L47 17L48 17L48 18L49 18L49 19L50 19L50 18L49 18L49 17L48 17L48 16ZM14 17L14 18L15 18L15 19L16 19L16 18L15 18L15 17ZM6 18L6 19L7 19L7 18ZM9 19L9 20L10 20L10 19ZM27 20L27 21L28 21L28 20ZM47 20L47 21L48 21L48 20ZM43 21L43 22L44 22L44 21ZM27 22L27 23L28 23L28 24L29 24L29 23L28 23L28 22ZM20 24L20 26L21 26L21 27L22 27L22 28L24 28L24 24L23 24L23 27L22 27L22 26L21 26L21 24ZM3 25L3 26L4 26L4 25ZM5 25L5 28L8 28L8 25ZM15 25L15 26L16 26L16 25ZM25 25L25 28L28 28L28 25ZM39 25L39 26L40 26L40 25ZM45 25L45 28L48 28L48 25ZM0 26L0 27L1 27L1 26ZM6 26L6 27L7 27L7 26ZM26 26L26 27L27 27L27 26ZM46 26L46 27L47 27L47 26ZM51 26L51 27L52 27L52 26ZM32 27L32 28L31 28L31 29L32 29L32 28L33 28L33 27ZM0 28L0 32L2 32L2 31L5 31L5 30L2 30L2 29L1 29L1 28ZM29 28L29 29L30 29L30 28ZM42 28L42 29L43 29L43 28ZM11 29L11 30L12 30L12 29ZM23 29L23 30L22 30L22 31L24 31L24 33L23 33L23 35L24 35L24 34L25 34L25 31L24 31L24 29ZM27 32L27 33L28 33L28 32ZM4 33L4 34L5 34L5 33ZM9 33L9 34L10 34L10 33ZM34 34L34 35L35 35L35 34ZM36 34L36 37L37 37L37 36L38 36L38 34ZM51 34L51 35L52 35L52 34ZM6 35L6 36L7 36L7 35ZM10 35L10 36L11 36L11 35ZM27 36L27 37L28 37L28 36ZM29 36L29 37L30 37L30 36ZM8 37L8 38L9 38L9 37ZM15 37L15 38L16 38L16 37ZM47 38L47 39L48 39L48 40L47 40L47 41L48 41L48 40L49 40L49 39L48 39L48 38ZM29 39L29 40L30 40L30 39ZM5 40L5 41L6 41L6 42L7 42L7 41L6 41L6 40ZM2 41L2 43L3 43L3 41ZM11 41L11 42L12 42L12 41ZM21 42L21 43L22 43L22 42ZM29 43L29 44L30 44L30 45L31 45L31 44L30 44L30 43ZM25 45L25 48L28 48L28 45ZM45 45L45 48L48 48L48 45ZM26 46L26 47L27 47L27 46ZM46 46L46 47L47 47L47 46ZM9 47L9 49L10 49L10 47ZM11 48L11 49L13 49L13 48ZM19 49L19 50L20 50L20 49ZM44 51L44 52L45 52L45 51ZM0 0L0 7L7 7L7 0ZM1 1L1 6L6 6L6 1ZM2 2L2 5L5 5L5 2ZM46 0L46 7L53 7L53 0ZM47 1L47 6L52 6L52 1ZM48 2L48 5L51 5L51 2ZM0 46L0 53L7 53L7 46ZM1 47L1 52L6 52L6 47ZM2 48L2 51L5 51L5 48Z" fill="#000000"/></g></g></svg>
