<?xml version="1.0" encoding="UTF-8"?>
<svg xmlns="http://www.w3.org/2000/svg" version="1.1" width="180" height="180" viewBox="0 0 180 180"><rect x="0" y="0" width="180" height="180" fill="#ffffff"/><g transform="scale(3.158)"><g transform="translate(0,0)"><path fill-rule="evenodd" d="M8 0L8 1L9 1L9 2L8 2L8 5L10 5L10 7L11 7L11 4L13 4L13 3L14 3L14 2L15 2L15 3L17 3L17 2L18 2L18 1L17 1L17 2L16 2L16 0L13 0L13 1L12 1L12 0L11 0L11 2L10 2L10 1L9 1L9 0ZM21 0L21 1L20 1L20 2L19 2L19 3L18 3L18 4L17 4L17 5L15 5L15 6L14 6L14 5L13 5L13 6L12 6L12 8L11 8L11 9L9 9L9 8L8 8L8 10L6 10L6 11L4 11L4 10L5 10L5 9L4 9L4 8L0 8L0 9L1 9L1 10L3 10L3 12L2 12L2 11L0 11L0 12L2 12L2 13L1 13L1 14L0 14L0 18L1 18L1 15L2 15L2 16L3 16L3 15L2 15L2 13L4 13L4 17L2 17L2 19L3 19L3 20L4 20L4 21L8 21L8 22L9 22L9 23L7 23L7 22L5 22L5 26L4 26L4 24L3 24L3 26L1 26L1 27L0 27L0 29L1 29L1 34L0 34L0 36L1 36L1 40L0 40L0 43L1 43L1 44L0 44L0 48L5 48L5 47L7 47L7 48L6 48L6 49L8 49L8 50L9 50L9 52L11 52L11 51L10 51L10 48L11 48L11 49L12 49L12 48L13 48L13 49L14 49L14 50L16 50L16 49L19 49L19 48L20 48L20 50L19 50L19 51L18 51L18 52L17 52L17 51L15 51L15 52L17 52L17 53L18 53L18 55L17 55L17 54L16 54L16 53L14 53L14 52L13 52L13 50L12 50L12 52L13 52L13 53L14 53L14 54L12 54L12 53L11 53L11 55L10 55L10 56L9 56L9 54L10 54L10 53L8 53L8 57L11 57L11 55L12 55L12 56L13 56L13 57L15 57L15 56L18 56L18 55L19 55L19 54L20 54L20 53L18 53L18 52L19 52L19 51L20 51L20 50L21 50L21 51L23 51L23 50L24 50L24 51L25 51L25 50L24 50L24 49L26 49L26 53L25 53L25 52L23 52L23 53L22 53L22 54L23 54L23 53L25 53L25 54L24 54L24 55L23 55L23 56L22 56L22 57L26 57L26 56L27 56L27 55L26 55L26 56L24 56L24 55L25 55L25 54L27 54L27 53L29 53L29 55L28 55L28 57L32 57L32 53L33 53L33 55L35 55L35 56L34 56L34 57L35 57L35 56L37 56L37 54L35 54L35 53L33 53L33 52L35 52L35 51L34 51L34 49L35 49L35 50L36 50L36 49L37 49L37 48L38 48L38 47L39 47L39 46L40 46L40 45L41 45L41 46L42 46L42 47L43 47L43 45L44 45L44 44L43 44L43 45L41 45L41 42L38 42L38 41L39 41L39 40L41 40L41 41L43 41L43 42L45 42L45 43L47 43L47 41L48 41L48 43L49 43L49 42L51 42L51 43L52 43L52 44L50 44L50 45L48 45L48 46L46 46L46 45L47 45L47 44L46 44L46 45L45 45L45 46L44 46L44 48L48 48L48 49L47 49L47 50L48 50L48 52L47 52L47 53L46 53L46 54L45 54L45 55L46 55L46 56L45 56L45 57L47 57L47 56L48 56L48 55L49 55L49 54L50 54L50 57L51 57L51 55L52 55L52 53L53 53L53 52L54 52L54 53L55 53L55 54L54 54L54 55L55 55L55 54L56 54L56 53L55 53L55 51L56 51L56 52L57 52L57 51L56 51L56 50L55 50L55 49L53 49L53 47L52 47L52 48L51 48L51 46L52 46L52 44L54 44L54 45L53 45L53 46L55 46L55 45L56 45L56 47L55 47L55 48L56 48L56 47L57 47L57 45L56 45L56 44L57 44L57 43L56 43L56 44L54 44L54 43L52 43L52 42L53 42L53 41L54 41L54 42L57 42L57 40L56 40L56 38L57 38L57 37L56 37L56 38L55 38L55 39L54 39L54 40L51 40L51 39L50 39L50 38L52 38L52 39L53 39L53 38L54 38L54 37L53 37L53 36L54 36L54 35L55 35L55 36L56 36L56 35L57 35L57 33L56 33L56 32L57 32L57 31L56 31L56 32L54 32L54 34L53 34L53 35L51 35L51 34L52 34L52 32L51 32L51 34L50 34L50 32L49 32L49 33L48 33L48 34L46 34L46 35L47 35L47 36L45 36L45 33L44 33L44 32L43 32L43 33L42 33L42 34L41 34L41 35L43 35L43 36L42 36L42 37L41 37L41 38L40 38L40 37L38 37L38 35L36 35L36 34L37 34L37 33L38 33L38 32L39 32L39 31L40 31L40 33L39 33L39 34L40 34L40 33L41 33L41 32L42 32L42 28L43 28L43 27L44 27L44 29L43 29L43 30L44 30L44 29L45 29L45 28L46 28L46 24L45 24L45 22L46 22L46 21L45 21L45 22L44 22L44 24L43 24L43 21L44 21L44 20L43 20L43 21L42 21L42 22L41 22L41 20L42 20L42 19L40 19L40 18L41 18L41 17L43 17L43 18L44 18L44 17L45 17L45 19L46 19L46 20L47 20L47 19L48 19L48 17L49 17L49 16L50 16L50 17L51 17L51 18L50 18L50 19L52 19L52 21L51 21L51 20L48 20L48 22L47 22L47 23L48 23L48 22L49 22L49 21L51 21L51 22L50 22L50 23L49 23L49 24L50 24L50 23L51 23L51 22L52 22L52 23L54 23L54 22L55 22L55 23L57 23L57 20L53 20L53 19L52 19L52 18L53 18L53 17L55 17L55 18L54 18L54 19L56 19L56 18L57 18L57 16L56 16L56 17L55 17L55 14L57 14L57 13L54 13L54 14L52 14L52 12L54 12L54 11L52 11L52 12L51 12L51 13L50 13L50 15L48 15L48 16L47 16L47 15L46 15L46 16L44 16L44 17L43 17L43 16L41 16L41 14L42 14L42 15L44 15L44 14L45 14L45 13L46 13L46 12L47 12L47 11L48 11L48 12L50 12L50 11L49 11L49 9L50 9L50 8L48 8L48 7L49 7L49 6L48 6L48 7L47 7L47 5L48 5L48 0L44 0L44 1L47 1L47 2L46 2L46 3L45 3L45 2L43 2L43 3L42 3L42 4L41 4L41 5L40 5L40 4L37 4L37 3L38 3L38 2L36 2L36 0L35 0L35 1L34 1L34 2L33 2L33 1L32 1L32 2L31 2L31 3L30 3L30 4L29 4L29 3L28 3L28 4L27 4L27 2L25 2L25 3L26 3L26 5L25 5L25 6L24 6L24 7L23 7L23 5L24 5L24 4L21 4L21 5L20 5L20 4L19 4L19 3L20 3L20 2L21 2L21 3L23 3L23 2L24 2L24 1L25 1L25 0L24 0L24 1L23 1L23 0ZM29 0L29 2L30 2L30 1L31 1L31 0ZM39 0L39 1L40 1L40 0ZM42 0L42 1L41 1L41 2L42 2L42 1L43 1L43 0ZM13 1L13 2L14 2L14 1ZM21 1L21 2L23 2L23 1ZM9 2L9 4L10 4L10 2ZM11 2L11 3L12 3L12 2ZM35 2L35 3L36 3L36 2ZM39 2L39 3L40 3L40 2ZM31 3L31 4L34 4L34 5L33 5L33 7L32 7L32 5L31 5L31 7L32 7L32 9L31 9L31 10L33 10L33 9L34 9L34 10L36 10L36 11L35 11L35 13L34 13L34 14L33 14L33 12L31 12L31 11L30 11L30 9L26 9L26 11L25 11L25 10L24 10L24 9L23 9L23 10L22 10L22 8L23 8L23 7L22 7L22 5L21 5L21 7L20 7L20 6L19 6L19 5L17 5L17 7L16 7L16 6L15 6L15 8L14 8L14 6L13 6L13 8L12 8L12 9L11 9L11 10L12 10L12 11L13 11L13 10L14 10L14 11L15 11L15 12L16 12L16 11L17 11L17 10L18 10L18 12L17 12L17 13L15 13L15 14L14 14L14 13L13 13L13 12L12 12L12 14L14 14L14 15L11 15L11 16L10 16L10 14L9 14L9 13L10 13L10 12L11 12L11 11L9 11L9 10L8 10L8 11L6 11L6 12L8 12L8 14L7 14L7 13L5 13L5 14L7 14L7 15L6 15L6 16L5 16L5 17L4 17L4 18L3 18L3 19L4 19L4 20L5 20L5 19L6 19L6 20L7 20L7 19L8 19L8 21L10 21L10 24L8 24L8 25L6 25L6 26L9 26L9 31L10 31L10 33L11 33L11 31L10 31L10 30L14 30L14 29L15 29L15 30L16 30L16 31L14 31L14 32L15 32L15 33L14 33L14 34L13 34L13 35L12 35L12 34L9 34L9 33L8 33L8 31L6 31L6 32L7 32L7 33L5 33L5 32L4 32L4 30L3 30L3 28L4 28L4 26L3 26L3 28L1 28L1 29L2 29L2 30L3 30L3 31L2 31L2 35L3 35L3 36L2 36L2 37L3 37L3 38L2 38L2 39L3 39L3 40L2 40L2 41L1 41L1 42L3 42L3 43L2 43L2 44L3 44L3 43L4 43L4 45L3 45L3 47L5 47L5 45L6 45L6 46L7 46L7 47L11 47L11 46L9 46L9 45L12 45L12 42L13 42L13 44L14 44L14 42L16 42L16 43L15 43L15 45L16 45L16 46L14 46L14 47L13 47L13 48L16 48L16 47L17 47L17 48L19 48L19 47L21 47L21 48L22 48L22 49L21 49L21 50L22 50L22 49L24 49L24 48L25 48L25 47L26 47L26 48L27 48L27 47L26 47L26 45L27 45L27 46L28 46L28 47L29 47L29 48L30 48L30 47L32 47L32 46L35 46L35 49L36 49L36 47L38 47L38 46L39 46L39 45L40 45L40 43L39 43L39 44L38 44L38 43L37 43L37 41L38 41L38 40L39 40L39 39L40 39L40 38L39 38L39 39L38 39L38 38L37 38L37 37L34 37L34 35L33 35L33 36L31 36L31 37L30 37L30 36L28 36L28 35L29 35L29 34L30 34L30 35L31 35L31 33L30 33L30 31L29 31L29 32L28 32L28 31L26 31L26 32L28 32L28 33L27 33L27 34L26 34L26 33L25 33L25 34L26 34L26 37L25 37L25 36L24 36L24 35L23 35L23 34L24 34L24 32L25 32L25 30L26 30L26 26L29 26L29 24L31 24L31 25L30 25L30 26L33 26L33 28L34 28L34 27L35 27L35 31L34 31L34 30L33 30L33 29L32 29L32 28L31 28L31 29L32 29L32 34L36 34L36 33L37 33L37 32L38 32L38 30L40 30L40 31L41 31L41 30L40 30L40 29L41 29L41 28L42 28L42 26L43 26L43 24L42 24L42 25L41 25L41 23L40 23L40 22L39 22L39 20L40 20L40 19L39 19L39 20L38 20L38 22L37 22L37 24L38 24L38 25L37 25L37 26L35 26L35 25L36 25L36 24L34 24L34 25L33 25L33 24L32 24L32 22L33 22L33 23L34 23L34 22L35 22L35 23L36 23L36 21L37 21L37 20L36 20L36 21L33 21L33 20L35 20L35 19L36 19L36 18L37 18L37 19L38 19L38 18L40 18L40 17L41 17L41 16L39 16L39 15L40 15L40 14L41 14L41 13L42 13L42 14L44 14L44 13L45 13L45 12L46 12L46 11L45 11L45 12L43 12L43 11L41 11L41 10L39 10L39 9L40 9L40 8L39 8L39 9L37 9L37 8L38 8L38 6L39 6L39 7L40 7L40 6L39 6L39 5L38 5L38 6L37 6L37 8L36 8L36 5L37 5L37 4L34 4L34 3ZM43 3L43 4L42 4L42 5L41 5L41 7L42 7L42 5L44 5L44 6L43 6L43 8L42 8L42 9L43 9L43 10L47 10L47 9L48 9L48 8L47 8L47 7L46 7L46 5L47 5L47 3L46 3L46 4L45 4L45 3ZM44 4L44 5L45 5L45 4ZM27 5L27 8L30 8L30 5ZM8 6L8 7L9 7L9 6ZM18 6L18 7L19 7L19 8L20 8L20 9L21 9L21 8L20 8L20 7L19 7L19 6ZM25 6L25 7L24 7L24 8L25 8L25 7L26 7L26 6ZM28 6L28 7L29 7L29 6ZM34 6L34 7L35 7L35 6ZM44 6L44 7L45 7L45 9L47 9L47 8L46 8L46 7L45 7L45 6ZM6 8L6 9L7 9L7 8ZM13 8L13 9L12 9L12 10L13 10L13 9L14 9L14 10L16 10L16 9L14 9L14 8ZM52 8L52 9L51 9L51 10L52 10L52 9L55 9L55 8ZM56 8L56 11L55 11L55 12L56 12L56 11L57 11L57 8ZM18 9L18 10L19 10L19 9ZM36 9L36 10L37 10L37 9ZM20 10L20 11L21 11L21 10ZM23 10L23 11L22 11L22 12L20 12L20 14L19 14L19 15L18 15L18 16L16 16L16 15L17 15L17 14L16 14L16 15L15 15L15 16L14 16L14 17L12 17L12 16L11 16L11 17L12 17L12 18L11 18L11 19L12 19L12 20L10 20L10 21L12 21L12 22L11 22L11 23L12 23L12 24L10 24L10 27L11 27L11 25L12 25L12 27L13 27L13 28L11 28L11 29L13 29L13 28L16 28L16 30L17 30L17 28L16 28L16 27L20 27L20 28L22 28L22 27L23 27L23 32L22 32L22 33L21 33L21 32L19 32L19 33L21 33L21 34L20 34L20 35L19 35L19 36L18 36L18 37L17 37L17 38L14 38L14 39L13 39L13 37L12 37L12 35L11 35L11 38L10 38L10 35L9 35L9 38L8 38L8 39L7 39L7 38L6 38L6 39L5 39L5 38L4 38L4 40L5 40L5 41L7 41L7 42L4 42L4 43L11 43L11 41L12 41L12 39L13 39L13 42L14 42L14 39L15 39L15 40L16 40L16 42L17 42L17 41L18 41L18 43L19 43L19 45L17 45L17 47L18 47L18 46L19 46L19 45L20 45L20 44L21 44L21 43L22 43L22 41L21 41L21 42L20 42L20 40L19 40L19 41L18 41L18 40L16 40L16 39L17 39L17 38L18 38L18 39L20 39L20 38L21 38L21 36L22 36L22 35L21 35L21 34L23 34L23 32L24 32L24 29L25 29L25 27L23 27L23 26L24 26L24 25L22 25L22 24L20 24L20 23L21 23L21 22L20 22L20 23L19 23L19 22L17 22L17 20L18 20L18 19L19 19L19 18L20 18L20 17L18 17L18 16L19 16L19 15L20 15L20 14L21 14L21 13L22 13L22 15L21 15L21 16L22 16L22 15L23 15L23 17L25 17L25 16L26 16L26 14L25 14L25 16L24 16L24 15L23 15L23 13L22 13L22 12L23 12L23 11L24 11L24 10ZM28 10L28 11L29 11L29 12L30 12L30 11L29 11L29 10ZM8 11L8 12L9 12L9 11ZM36 11L36 13L35 13L35 15L34 15L34 16L35 16L35 15L36 15L36 16L37 16L37 15L36 15L36 13L37 13L37 11ZM18 12L18 13L19 13L19 12ZM26 12L26 13L27 13L27 12ZM39 12L39 13L38 13L38 15L39 15L39 13L40 13L40 12ZM42 12L42 13L43 13L43 12ZM28 13L28 15L27 15L27 16L28 16L28 15L30 15L30 16L29 16L29 17L30 17L30 16L31 16L31 15L32 15L32 17L31 17L31 18L32 18L32 19L35 19L35 17L33 17L33 14L30 14L30 13ZM47 13L47 14L48 14L48 13ZM8 14L8 15L9 15L9 14ZM50 15L50 16L52 16L52 17L53 17L53 16L52 16L52 15ZM6 16L6 17L5 17L5 18L6 18L6 19L7 19L7 18L6 18L6 17L7 17L7 16ZM9 16L9 18L8 18L8 19L9 19L9 18L10 18L10 16ZM15 16L15 17L16 17L16 16ZM38 16L38 17L37 17L37 18L38 18L38 17L39 17L39 16ZM17 17L17 19L18 19L18 17ZM26 17L26 18L24 18L24 19L22 19L22 18L21 18L21 19L20 19L20 20L19 20L19 21L20 21L20 20L21 20L21 21L22 21L22 22L23 22L23 23L24 23L24 22L25 22L25 20L24 20L24 19L26 19L26 21L27 21L27 22L26 22L26 23L25 23L25 24L26 24L26 25L25 25L25 26L26 26L26 25L27 25L27 24L26 24L26 23L27 23L27 22L28 22L28 21L29 21L29 23L31 23L31 21L32 21L32 20L31 20L31 21L29 21L29 18L27 18L27 17ZM13 18L13 19L15 19L15 18ZM26 18L26 19L27 19L27 18ZM0 19L0 20L1 20L1 19ZM12 20L12 21L13 21L13 20ZM14 20L14 22L12 22L12 23L13 23L13 24L14 24L14 25L13 25L13 27L14 27L14 25L15 25L15 27L16 27L16 26L17 26L17 25L18 25L18 26L20 26L20 25L18 25L18 23L16 23L16 20ZM23 20L23 22L24 22L24 20ZM27 20L27 21L28 21L28 20ZM0 21L0 22L1 22L1 23L2 23L2 22L3 22L3 23L4 23L4 22L3 22L3 21L2 21L2 22L1 22L1 21ZM53 21L53 22L54 22L54 21ZM55 21L55 22L56 22L56 21ZM6 23L6 24L7 24L7 23ZM14 23L14 24L15 24L15 25L17 25L17 24L16 24L16 23ZM38 23L38 24L39 24L39 25L38 25L38 28L41 28L41 26L40 26L40 27L39 27L39 25L40 25L40 23ZM0 24L0 25L1 25L1 24ZM44 24L44 25L45 25L45 24ZM47 24L47 25L48 25L48 24ZM51 24L51 25L50 25L50 26L48 26L48 28L47 28L47 29L46 29L46 30L45 30L45 32L47 32L47 29L48 29L48 31L53 31L53 30L57 30L57 28L56 28L56 29L55 29L55 27L56 27L56 26L55 26L55 27L54 27L54 29L53 29L53 26L52 26L52 24ZM55 24L55 25L56 25L56 24ZM21 26L21 27L22 27L22 26ZM44 26L44 27L45 27L45 26ZM5 27L5 30L8 30L8 27ZM27 27L27 30L30 30L30 27ZM49 27L49 30L52 30L52 27ZM6 28L6 29L7 29L7 28ZM18 28L18 29L19 29L19 30L18 30L18 31L17 31L17 32L18 32L18 31L19 31L19 30L20 30L20 31L22 31L22 30L20 30L20 29L19 29L19 28ZM28 28L28 29L29 29L29 28ZM50 28L50 29L51 29L51 28ZM37 29L37 30L36 30L36 31L35 31L35 32L33 32L33 33L35 33L35 32L37 32L37 30L38 30L38 29ZM12 31L12 33L13 33L13 31ZM3 33L3 35L4 35L4 33ZM7 33L7 34L6 34L6 35L5 35L5 36L4 36L4 37L8 37L8 36L6 36L6 35L8 35L8 33ZM43 33L43 35L44 35L44 33ZM14 34L14 35L13 35L13 36L14 36L14 37L15 37L15 36L16 36L16 35L18 35L18 34ZM27 34L27 35L28 35L28 34ZM48 34L48 36L47 36L47 37L45 37L45 36L43 36L43 37L42 37L42 38L41 38L41 39L42 39L42 40L44 40L44 39L46 39L46 40L45 40L45 41L47 41L47 39L48 39L48 38L47 38L47 37L48 37L48 36L50 36L50 37L51 37L51 36L50 36L50 34ZM20 35L20 36L19 36L19 38L20 38L20 36L21 36L21 35ZM35 35L35 36L36 36L36 35ZM27 36L27 37L26 37L26 38L27 38L27 39L26 39L26 41L25 41L25 39L24 39L24 41L25 41L25 44L24 44L24 43L23 43L23 44L22 44L22 45L21 45L21 46L23 46L23 47L22 47L22 48L23 48L23 47L24 47L24 46L25 46L25 45L26 45L26 44L27 44L27 45L28 45L28 44L29 44L29 47L30 47L30 46L32 46L32 45L30 45L30 44L32 44L32 43L31 43L31 42L33 42L33 40L34 40L34 39L32 39L32 38L34 38L34 37L32 37L32 38L31 38L31 39L30 39L30 37L29 37L29 39L30 39L30 40L32 40L32 41L31 41L31 42L30 42L30 41L29 41L29 40L27 40L27 39L28 39L28 38L27 38L27 37L28 37L28 36ZM22 37L22 38L24 38L24 37ZM44 37L44 38L42 38L42 39L44 39L44 38L45 38L45 37ZM52 37L52 38L53 38L53 37ZM6 39L6 40L7 40L7 41L10 41L10 40L11 40L11 39L10 39L10 40L7 40L7 39ZM21 39L21 40L23 40L23 39ZM35 39L35 41L34 41L34 43L35 43L35 44L37 44L37 45L35 45L35 46L38 46L38 44L37 44L37 43L36 43L36 39ZM49 39L49 41L51 41L51 42L52 42L52 41L51 41L51 40L50 40L50 39ZM55 40L55 41L56 41L56 40ZM26 41L26 43L29 43L29 44L30 44L30 43L29 43L29 42L28 42L28 41ZM19 42L19 43L20 43L20 42ZM6 44L6 45L9 45L9 44ZM23 44L23 45L24 45L24 44ZM50 45L50 46L48 46L48 48L49 48L49 47L50 47L50 46L51 46L51 45ZM1 46L1 47L2 47L2 46ZM45 46L45 47L46 47L46 46ZM33 47L33 48L32 48L32 51L31 51L31 53L30 53L30 54L31 54L31 53L32 53L32 51L33 51L33 49L34 49L34 47ZM8 48L8 49L9 49L9 48ZM39 48L39 49L38 49L38 50L37 50L37 52L38 52L38 53L40 53L40 52L41 52L41 53L42 53L42 52L43 52L43 51L44 51L44 53L43 53L43 54L44 54L44 53L45 53L45 52L46 52L46 51L44 51L44 50L45 50L45 49L44 49L44 50L42 50L42 49L43 49L43 48L42 48L42 49L41 49L41 50L40 50L40 51L39 51L39 49L40 49L40 48ZM27 49L27 52L30 52L30 49ZM49 49L49 52L52 52L52 49ZM28 50L28 51L29 51L29 50ZM41 50L41 52L42 52L42 50ZM50 50L50 51L51 51L51 50ZM54 50L54 51L55 51L55 50ZM38 51L38 52L39 52L39 51ZM47 53L47 54L48 54L48 53ZM50 53L50 54L51 54L51 53ZM38 54L38 56L40 56L40 57L41 57L41 56L42 56L42 55L40 55L40 54ZM20 55L20 57L21 57L21 55ZM30 55L30 56L31 56L31 55ZM43 55L43 56L44 56L44 55ZM56 55L56 56L57 56L57 55ZM52 56L52 57L53 57L53 56ZM0 0L0 7L7 7L7 0ZM1 1L1 6L6 6L6 1ZM2 2L2 5L5 5L5 2ZM50 0L50 7L57 7L57 0ZM51 1L51 6L56 6L56 1ZM52 2L52 5L55 5L55 2ZM0 50L0 57L7 57L7 50ZM1 51L1 56L6 56L6 51ZM2 52L2 55L5 55L5 52Z" fill="#000000"/></g></g></svg>
