<?xml version="1.0" encoding="UTF-8"?>
<svg xmlns="http://www.w3.org/2000/svg" version="1.1" width="180" height="180" viewBox="0 0 180 180"><rect x="0" y="0" width="180" height="180" fill="#ffffff"/><g transform="scale(3.673)"><g transform="translate(0,0)"><path fill-rule="evenodd" d="M9 0L9 2L8 2L8 3L9 3L9 4L10 4L10 5L9 5L9 6L8 6L8 8L4 8L4 9L3 9L3 8L0 8L0 9L3 9L3 11L1 11L1 10L0 10L0 11L1 11L1 12L0 12L0 13L1 13L1 12L2 12L2 15L0 15L0 21L3 21L3 22L0 22L0 23L1 23L1 24L0 24L0 25L1 25L1 26L0 26L0 31L1 31L1 29L2 29L2 28L3 28L3 27L1 27L1 26L3 26L3 25L4 25L4 27L5 27L5 28L4 28L4 29L5 29L5 30L4 30L4 31L2 31L2 33L1 33L1 32L0 32L0 34L1 34L1 35L2 35L2 33L3 33L3 32L4 32L4 34L3 34L3 36L1 36L1 37L0 37L0 38L1 38L1 40L0 40L0 41L3 41L3 40L4 40L4 39L2 39L2 38L3 38L3 36L5 36L5 37L4 37L4 38L5 38L5 39L8 39L8 45L9 45L9 43L10 43L10 44L11 44L11 47L10 47L10 49L11 49L11 48L12 48L12 47L13 47L13 48L14 48L14 49L16 49L16 47L17 47L17 48L18 48L18 49L19 49L19 48L20 48L20 47L21 47L21 48L22 48L22 49L25 49L25 48L24 48L24 47L26 47L26 46L27 46L27 48L28 48L28 49L31 49L31 48L32 48L32 49L33 49L33 48L34 48L34 49L35 49L35 48L34 48L34 47L33 47L33 46L31 46L31 48L29 48L29 47L28 47L28 46L27 46L27 44L28 44L28 45L29 45L29 46L30 46L30 45L33 45L33 44L36 44L36 45L35 45L35 46L36 46L36 49L37 49L37 48L38 48L38 49L39 49L39 48L40 48L40 49L41 49L41 48L42 48L42 47L43 47L43 48L44 48L44 49L45 49L45 48L46 48L46 47L47 47L47 49L49 49L49 48L48 48L48 47L47 47L47 46L46 46L46 45L45 45L45 44L46 44L46 43L47 43L47 44L49 44L49 40L47 40L47 42L46 42L46 41L45 41L45 40L46 40L46 39L45 39L45 38L48 38L48 39L49 39L49 38L48 38L48 36L49 36L49 33L47 33L47 32L49 32L49 30L48 30L48 28L49 28L49 25L47 25L47 24L49 24L49 20L47 20L47 22L46 22L46 21L45 21L45 20L46 20L46 19L47 19L47 18L48 18L48 19L49 19L49 16L48 16L48 15L49 15L49 12L48 12L48 11L49 11L49 9L48 9L48 11L47 11L47 10L46 10L46 9L47 9L47 8L46 8L46 9L45 9L45 10L44 10L44 9L43 9L43 8L41 8L41 6L40 6L40 7L39 7L39 5L37 5L37 4L38 4L38 3L37 3L37 4L36 4L36 3L35 3L35 2L39 2L39 4L40 4L40 3L41 3L41 0L40 0L40 1L38 1L38 0L37 0L37 1L35 1L35 0L34 0L34 1L33 1L33 0L32 0L32 1L31 1L31 0L30 0L30 1L29 1L29 2L30 2L30 3L31 3L31 2L32 2L32 1L33 1L33 2L34 2L34 3L33 3L33 4L32 4L32 5L31 5L31 4L24 4L24 2L25 2L25 3L26 3L26 2L28 2L28 1L27 1L27 0L25 0L25 1L23 1L23 0L22 0L22 1L21 1L21 0L20 0L20 1L17 1L17 0L16 0L16 1L17 1L17 2L14 2L14 1L13 1L13 2L10 2L10 0ZM11 0L11 1L12 1L12 0ZM20 1L20 2L17 2L17 3L16 3L16 5L18 5L18 6L17 6L17 7L18 7L18 8L19 8L19 9L17 9L17 8L16 8L16 6L15 6L15 5L14 5L14 6L13 6L13 7L12 7L12 5L13 5L13 3L12 3L12 4L11 4L11 3L10 3L10 2L9 2L9 3L10 3L10 4L11 4L11 8L13 8L13 10L14 10L14 11L15 11L15 12L14 12L14 14L13 14L13 15L12 15L12 12L11 12L11 15L10 15L10 16L9 16L9 15L8 15L8 14L9 14L9 13L8 13L8 12L10 12L10 11L11 11L11 10L10 10L10 11L8 11L8 12L7 12L7 11L6 11L6 12L5 12L5 11L4 11L4 13L3 13L3 15L2 15L2 18L1 18L1 19L2 19L2 20L4 20L4 19L3 19L3 16L5 16L5 17L4 17L4 18L5 18L5 19L6 19L6 20L8 20L8 18L9 18L9 19L10 19L10 16L11 16L11 15L12 15L12 17L11 17L11 21L10 21L10 20L9 20L9 21L10 21L10 22L11 22L11 21L12 21L12 17L14 17L14 16L15 16L15 18L16 18L16 19L14 19L14 18L13 18L13 23L14 23L14 24L13 24L13 25L12 25L12 23L9 23L9 24L11 24L11 25L12 25L12 27L13 27L13 25L14 25L14 24L15 24L15 26L14 26L14 27L18 27L18 28L17 28L17 29L16 29L16 28L14 28L14 30L13 30L13 28L11 28L11 29L10 29L10 30L9 30L9 31L8 31L8 29L9 29L9 27L6 27L6 28L5 28L5 29L6 29L6 30L7 30L7 31L4 31L4 32L5 32L5 34L4 34L4 35L5 35L5 36L7 36L7 37L6 37L6 38L9 38L9 39L10 39L10 40L9 40L9 41L10 41L10 43L12 43L12 44L13 44L13 43L12 43L12 42L13 42L13 41L14 41L14 40L15 40L15 41L16 41L16 42L14 42L14 43L18 43L18 44L14 44L14 46L13 46L13 45L12 45L12 46L13 46L13 47L14 47L14 48L15 48L15 47L16 47L16 46L17 46L17 47L18 47L18 48L19 48L19 47L20 47L20 46L21 46L21 47L22 47L22 48L23 48L23 47L22 47L22 44L21 44L21 43L20 43L20 42L21 42L21 40L24 40L24 39L25 39L25 38L27 38L27 39L28 39L28 38L29 38L29 40L31 40L31 41L28 41L28 42L27 42L27 43L28 43L28 42L29 42L29 43L30 43L30 44L29 44L29 45L30 45L30 44L32 44L32 42L33 42L33 43L36 43L36 42L37 42L37 43L38 43L38 44L37 44L37 45L36 45L36 46L37 46L37 47L38 47L38 48L39 48L39 47L40 47L40 48L41 48L41 47L42 47L42 46L43 46L43 47L44 47L44 48L45 48L45 47L46 47L46 46L45 46L45 47L44 47L44 46L43 46L43 45L41 45L41 47L40 47L40 46L39 46L39 45L40 45L40 44L39 44L39 43L40 43L40 42L39 42L39 41L40 41L40 40L41 40L41 39L42 39L42 38L43 38L43 39L44 39L44 40L45 40L45 39L44 39L44 38L45 38L45 37L47 37L47 36L48 36L48 35L46 35L46 34L47 34L47 33L46 33L46 32L47 32L47 31L48 31L48 30L45 30L45 29L47 29L47 27L46 27L46 26L47 26L47 25L46 25L46 24L47 24L47 23L48 23L48 22L47 22L47 23L46 23L46 22L45 22L45 21L44 21L44 20L43 20L43 19L44 19L44 18L45 18L45 19L46 19L46 18L47 18L47 17L48 17L48 16L47 16L47 15L48 15L48 14L47 14L47 13L48 13L48 12L47 12L47 11L46 11L46 10L45 10L45 11L46 11L46 12L45 12L45 13L44 13L44 12L43 12L43 11L44 11L44 10L43 10L43 9L42 9L42 10L41 10L41 8L40 8L40 9L39 9L39 7L38 7L38 6L37 6L37 5L36 5L36 4L35 4L35 3L34 3L34 4L33 4L33 5L34 5L34 4L35 4L35 5L36 5L36 6L35 6L35 7L36 7L36 8L33 8L33 9L32 9L32 8L31 8L31 7L32 7L32 6L31 6L31 7L30 7L30 6L29 6L29 5L28 5L28 6L27 6L27 8L28 8L28 6L29 6L29 7L30 7L30 8L29 8L29 9L24 9L24 10L23 10L23 9L22 9L22 10L21 10L21 8L22 8L22 6L21 6L21 8L19 8L19 7L20 7L20 6L19 6L19 5L20 5L20 4L21 4L21 5L22 5L22 4L21 4L21 3L22 3L22 2L21 2L21 1ZM34 1L34 2L35 2L35 1ZM20 2L20 3L19 3L19 4L20 4L20 3L21 3L21 2ZM14 3L14 4L15 4L15 3ZM17 3L17 4L18 4L18 3ZM23 5L23 8L26 8L26 5ZM9 6L9 8L10 8L10 6ZM14 6L14 7L13 7L13 8L14 8L14 10L15 10L15 8L14 8L14 7L15 7L15 6ZM18 6L18 7L19 7L19 6ZM24 6L24 7L25 7L25 6ZM33 6L33 7L34 7L34 6ZM36 6L36 7L37 7L37 8L36 8L36 9L35 9L35 10L36 10L36 11L35 11L35 12L34 12L34 11L33 11L33 10L34 10L34 9L33 9L33 10L32 10L32 9L31 9L31 8L30 8L30 9L31 9L31 10L30 10L30 12L31 12L31 14L32 14L32 15L31 15L31 16L30 16L30 17L31 17L31 18L32 18L32 19L30 19L30 20L32 20L32 21L31 21L31 22L33 22L33 23L31 23L31 24L30 24L30 23L29 23L29 22L28 22L28 21L29 21L29 18L28 18L28 17L29 17L29 15L26 15L26 14L25 14L25 13L29 13L29 11L27 11L27 12L26 12L26 11L25 11L25 10L24 10L24 11L23 11L23 10L22 10L22 11L21 11L21 10L20 10L20 9L19 9L19 10L18 10L18 11L16 11L16 12L15 12L15 14L14 14L14 15L15 15L15 16L16 16L16 15L17 15L17 18L18 18L18 19L16 19L16 22L17 22L17 23L16 23L16 24L17 24L17 26L18 26L18 27L19 27L19 28L18 28L18 29L17 29L17 30L16 30L16 29L15 29L15 30L14 30L14 31L13 31L13 30L12 30L12 31L11 31L11 30L10 30L10 31L9 31L9 33L10 33L10 35L8 35L8 34L5 34L5 35L8 35L8 36L10 36L10 39L11 39L11 36L12 36L12 38L13 38L13 39L12 39L12 40L11 40L11 41L12 41L12 40L13 40L13 39L14 39L14 38L13 38L13 34L14 34L14 35L15 35L15 36L14 36L14 37L15 37L15 38L16 38L16 39L15 39L15 40L16 40L16 39L19 39L19 40L18 40L18 41L17 41L17 42L18 42L18 43L19 43L19 44L18 44L18 45L17 45L17 46L18 46L18 47L19 47L19 46L20 46L20 43L19 43L19 42L20 42L20 41L19 41L19 40L20 40L20 39L23 39L23 38L24 38L24 37L23 37L23 36L26 36L26 37L27 37L27 38L28 38L28 37L29 37L29 38L30 38L30 37L31 37L31 40L32 40L32 41L31 41L31 42L32 42L32 41L33 41L33 42L34 42L34 41L35 41L35 40L34 40L34 39L33 39L33 38L32 38L32 37L35 37L35 38L36 38L36 41L37 41L37 42L38 42L38 41L37 41L37 40L39 40L39 39L37 39L37 38L38 38L38 37L39 37L39 38L40 38L40 37L41 37L41 38L42 38L42 37L43 37L43 38L44 38L44 37L43 37L43 36L44 36L44 35L45 35L45 36L46 36L46 35L45 35L45 34L46 34L46 33L45 33L45 34L44 34L44 33L43 33L43 34L39 34L39 35L41 35L41 36L40 36L40 37L39 37L39 36L38 36L38 33L39 33L39 32L38 32L38 31L37 31L37 30L38 30L38 29L39 29L39 30L40 30L40 31L41 31L41 32L40 32L40 33L41 33L41 32L44 32L44 31L45 31L45 32L46 32L46 31L45 31L45 30L44 30L44 29L43 29L43 28L44 28L44 27L45 27L45 28L46 28L46 27L45 27L45 26L46 26L46 25L45 25L45 24L46 24L46 23L45 23L45 22L44 22L44 21L43 21L43 20L42 20L42 19L41 19L41 18L42 18L42 17L43 17L43 18L44 18L44 17L45 17L45 18L46 18L46 17L45 17L45 16L46 16L46 13L45 13L45 14L44 14L44 13L43 13L43 12L42 12L42 11L41 11L41 10L40 10L40 11L37 11L37 10L36 10L36 9L37 9L37 8L38 8L38 7L37 7L37 6ZM5 9L5 10L9 10L9 9ZM19 10L19 11L18 11L18 12L17 12L17 13L16 13L16 14L17 14L17 15L20 15L20 16L19 16L19 17L20 17L20 18L19 18L19 19L18 19L18 20L17 20L17 21L18 21L18 20L19 20L19 19L20 19L20 22L18 22L18 23L17 23L17 24L18 24L18 23L20 23L20 24L19 24L19 25L20 25L20 26L19 26L19 27L20 27L20 30L21 30L21 29L22 29L22 30L23 30L23 31L22 31L22 32L20 32L20 31L19 31L19 30L18 30L18 31L19 31L19 33L20 33L20 34L19 34L19 35L18 35L18 34L17 34L17 31L16 31L16 30L15 30L15 31L14 31L14 32L12 32L12 33L11 33L11 34L13 34L13 33L14 33L14 32L15 32L15 31L16 31L16 33L15 33L15 35L16 35L16 36L15 36L15 37L16 37L16 38L17 38L17 37L18 37L18 36L19 36L19 37L20 37L20 38L21 38L21 37L22 37L22 38L23 38L23 37L22 37L22 36L23 36L23 35L22 35L22 36L21 36L21 35L20 35L20 34L21 34L21 33L22 33L22 34L29 34L29 35L30 35L30 36L29 36L29 37L30 37L30 36L31 36L31 37L32 37L32 36L31 36L31 35L32 35L32 34L33 34L33 35L34 35L34 36L35 36L35 37L36 37L36 38L37 38L37 37L38 37L38 36L37 36L37 37L36 37L36 36L35 36L35 34L37 34L37 33L38 33L38 32L37 32L37 33L36 33L36 30L37 30L37 29L38 29L38 28L39 28L39 29L40 29L40 30L41 30L41 31L42 31L42 30L43 30L43 31L44 31L44 30L43 30L43 29L42 29L42 28L41 28L41 27L40 27L40 26L39 26L39 25L40 25L40 24L39 24L39 25L38 25L38 24L37 24L37 25L36 25L36 22L37 22L37 23L40 23L40 22L43 22L43 21L42 21L42 20L41 20L41 19L40 19L40 18L41 18L41 17L42 17L42 16L43 16L43 17L44 17L44 16L43 16L43 15L44 15L44 14L43 14L43 13L42 13L42 12L41 12L41 11L40 11L40 12L37 12L37 13L36 13L36 12L35 12L35 13L34 13L34 12L33 12L33 11L32 11L32 10L31 10L31 11L32 11L32 12L33 12L33 13L32 13L32 14L34 14L34 16L33 16L33 17L32 17L32 16L31 16L31 17L32 17L32 18L33 18L33 22L34 22L34 24L33 24L33 25L32 25L32 24L31 24L31 25L28 25L28 26L27 26L27 27L28 27L28 28L31 28L31 29L30 29L30 30L29 30L29 29L28 29L28 30L27 30L27 28L24 28L24 27L23 27L23 28L24 28L24 30L23 30L23 29L22 29L22 28L21 28L21 27L20 27L20 26L21 26L21 25L22 25L22 24L21 24L21 21L22 21L22 22L24 22L24 20L25 20L25 22L27 22L27 21L26 21L26 20L27 20L27 19L28 19L28 18L27 18L27 16L26 16L26 15L25 15L25 14L23 14L23 13L24 13L24 12L25 12L25 11L24 11L24 12L23 12L23 11L22 11L22 12L21 12L21 11L20 11L20 10ZM19 11L19 12L18 12L18 13L17 13L17 14L20 14L20 15L21 15L21 18L20 18L20 19L21 19L21 20L22 20L22 19L23 19L23 20L24 20L24 19L23 19L23 18L25 18L25 15L23 15L23 14L22 14L22 13L21 13L21 12L20 12L20 11ZM6 12L6 13L5 13L5 14L4 14L4 15L5 15L5 16L6 16L6 17L5 17L5 18L6 18L6 19L7 19L7 18L8 18L8 17L7 17L7 16L8 16L8 15L7 15L7 14L8 14L8 13L7 13L7 12ZM19 12L19 13L20 13L20 14L21 14L21 15L22 15L22 18L21 18L21 19L22 19L22 18L23 18L23 17L24 17L24 16L23 16L23 15L22 15L22 14L21 14L21 13L20 13L20 12ZM40 12L40 13L39 13L39 15L37 15L37 14L38 14L38 13L37 13L37 14L36 14L36 13L35 13L35 14L36 14L36 15L35 15L35 16L34 16L34 17L33 17L33 18L34 18L34 17L35 17L35 18L36 18L36 19L35 19L35 20L34 20L34 21L35 21L35 22L36 22L36 21L37 21L37 22L38 22L38 21L39 21L39 22L40 22L40 19L39 19L39 20L38 20L38 18L36 18L36 17L41 17L41 16L42 16L42 15L41 15L41 16L40 16L40 13L41 13L41 14L42 14L42 13L41 13L41 12ZM6 13L6 14L7 14L7 13ZM6 15L6 16L7 16L7 15ZM35 16L35 17L36 17L36 16ZM6 17L6 18L7 18L7 17ZM14 20L14 21L15 21L15 20ZM35 20L35 21L36 21L36 20ZM37 20L37 21L38 21L38 20ZM4 21L4 22L3 22L3 23L2 23L2 24L3 24L3 23L4 23L4 22L5 22L5 21ZM6 21L6 22L7 22L7 21ZM14 22L14 23L15 23L15 22ZM5 23L5 26L8 26L8 23ZM23 23L23 26L26 26L26 23ZM27 23L27 24L28 24L28 23ZM41 23L41 26L44 26L44 23ZM6 24L6 25L7 25L7 24ZM24 24L24 25L25 25L25 24ZM34 24L34 25L33 25L33 26L32 26L32 25L31 25L31 26L32 26L32 29L31 29L31 30L32 30L32 31L31 31L31 32L30 32L30 33L31 33L31 34L32 34L32 33L33 33L33 34L34 34L34 33L35 33L35 32L34 32L34 31L33 31L33 30L32 30L32 29L33 29L33 28L34 28L34 27L33 27L33 26L34 26L34 25L35 25L35 26L36 26L36 27L35 27L35 28L36 28L36 29L35 29L35 30L36 30L36 29L37 29L37 28L38 28L38 27L37 27L37 26L38 26L38 25L37 25L37 26L36 26L36 25L35 25L35 24ZM42 24L42 25L43 25L43 24ZM29 26L29 27L30 27L30 26ZM6 28L6 29L8 29L8 28ZM40 28L40 29L41 29L41 30L42 30L42 29L41 29L41 28ZM24 30L24 31L23 31L23 32L24 32L24 31L25 31L25 32L27 32L27 33L29 33L29 30L28 30L28 32L27 32L27 30ZM6 32L6 33L8 33L8 32ZM31 32L31 33L32 33L32 32ZM33 32L33 33L34 33L34 32ZM16 34L16 35L17 35L17 36L18 36L18 35L17 35L17 34ZM43 34L43 35L44 35L44 34ZM19 35L19 36L20 36L20 35ZM27 36L27 37L28 37L28 36ZM41 36L41 37L42 37L42 36ZM1 37L1 38L2 38L2 37ZM6 40L6 41L7 41L7 40ZM33 40L33 41L34 41L34 40ZM23 41L23 44L26 44L26 41ZM41 41L41 44L44 44L44 41ZM24 42L24 43L25 43L25 42ZM42 42L42 43L43 43L43 42ZM45 42L45 43L46 43L46 42ZM38 44L38 45L37 45L37 46L38 46L38 45L39 45L39 44ZM15 45L15 46L14 46L14 47L15 47L15 46L16 46L16 45ZM25 45L25 46L26 46L26 45ZM48 45L48 46L49 46L49 45ZM8 46L8 49L9 49L9 46ZM0 0L0 7L7 7L7 0ZM1 1L1 6L6 6L6 1ZM2 2L2 5L5 5L5 2ZM42 0L42 7L49 7L49 0ZM43 1L43 6L48 6L48 1ZM44 2L44 5L47 5L47 2ZM0 42L0 49L7 49L7 42ZM1 43L1 48L6 48L6 43ZM2 44L2 47L5 47L5 44Z" fill="#000000"/></g></g></svg>
