<?xml version="1.0" encoding="UTF-8"?>
<svg xmlns="http://www.w3.org/2000/svg" version="1.1" width="180" height="180" viewBox="0 0 180 180"><rect x="0" y="0" width="180" height="180" fill="#ffffff"/><g transform="scale(3.158)"><g transform="translate(0,0)"><path fill-rule="evenodd" d="M11 0L11 1L12 1L12 0ZM15 0L15 2L14 2L14 1L13 1L13 2L12 2L12 4L11 4L11 5L12 5L12 8L11 8L11 6L10 6L10 5L9 5L9 6L8 6L8 8L4 8L4 9L9 9L9 6L10 6L10 8L11 8L11 9L10 9L10 10L11 10L11 11L12 11L12 12L11 12L11 13L12 13L12 14L9 14L9 13L10 13L10 12L8 12L8 14L9 14L9 15L10 15L10 17L9 17L9 16L8 16L8 17L9 17L9 20L11 20L11 19L13 19L13 23L14 23L14 25L12 25L12 23L11 23L11 24L9 24L9 23L10 23L10 22L11 22L11 21L8 21L8 22L5 22L5 24L4 24L4 25L3 25L3 23L2 23L2 22L1 22L1 21L2 21L2 20L3 20L3 22L4 22L4 20L3 20L3 19L5 19L5 20L6 20L6 21L7 21L7 20L8 20L8 18L6 18L6 17L7 17L7 16L6 16L6 15L7 15L7 14L6 14L6 15L5 15L5 13L7 13L7 12L6 12L6 11L7 11L7 10L6 10L6 11L4 11L4 12L1 12L1 11L3 11L3 10L1 10L1 9L3 9L3 8L0 8L0 18L1 18L1 19L0 19L0 23L2 23L2 24L0 24L0 25L3 25L3 26L4 26L4 27L2 27L2 28L0 28L0 30L1 30L1 32L0 32L0 35L1 35L1 34L2 34L2 37L1 37L1 36L0 36L0 38L2 38L2 37L4 37L4 38L5 38L5 37L8 37L8 36L6 36L6 35L7 35L7 34L8 34L8 35L9 35L9 38L6 38L6 39L5 39L5 40L6 40L6 41L4 41L4 42L6 42L6 43L5 43L5 44L6 44L6 45L8 45L8 47L7 47L7 46L5 46L5 45L4 45L4 46L5 46L5 47L3 47L3 45L1 45L1 44L2 44L2 43L1 43L1 42L0 42L0 43L1 43L1 44L0 44L0 48L5 48L5 47L7 47L7 48L6 48L6 49L8 49L8 53L9 53L9 54L8 54L8 57L10 57L10 56L11 56L11 55L10 55L10 54L11 54L11 53L10 53L10 52L11 52L11 51L13 51L13 50L14 50L14 49L17 49L17 50L16 50L16 51L15 51L15 53L14 53L14 54L13 54L13 55L12 55L12 56L13 56L13 55L14 55L14 54L15 54L15 56L16 56L16 55L17 55L17 56L18 56L18 57L20 57L20 55L21 55L21 56L22 56L22 57L24 57L24 55L25 55L25 56L26 56L26 57L27 57L27 56L28 56L28 57L30 57L30 55L29 55L29 54L31 54L31 55L32 55L32 57L33 57L33 56L34 56L34 57L35 57L35 56L34 56L34 55L33 55L33 54L32 54L32 53L34 53L34 50L33 50L33 49L35 49L35 50L36 50L36 51L35 51L35 55L36 55L36 57L37 57L37 56L38 56L38 57L39 57L39 56L40 56L40 57L41 57L41 54L42 54L42 53L43 53L43 54L44 54L44 55L42 55L42 56L43 56L43 57L45 57L45 56L46 56L46 57L50 57L50 55L51 55L51 56L52 56L52 57L53 57L53 56L54 56L54 55L55 55L55 57L57 57L57 56L56 56L56 55L57 55L57 54L56 54L56 53L57 53L57 52L55 52L55 54L54 54L54 53L53 53L53 50L54 50L54 49L53 49L53 48L51 48L51 47L53 47L53 46L52 46L52 45L51 45L51 44L54 44L54 43L53 43L53 42L56 42L56 43L55 43L55 44L56 44L56 45L54 45L54 46L56 46L56 47L55 47L55 48L56 48L56 51L57 51L57 48L56 48L56 47L57 47L57 44L56 44L56 43L57 43L57 40L56 40L56 41L53 41L53 42L51 42L51 41L52 41L52 39L53 39L53 40L54 40L54 39L55 39L55 38L56 38L56 39L57 39L57 38L56 38L56 37L55 37L55 38L54 38L54 36L52 36L52 37L53 37L53 38L52 38L52 39L51 39L51 38L50 38L50 37L51 37L51 34L52 34L52 35L53 35L53 34L54 34L54 35L55 35L55 36L57 36L57 32L56 32L56 31L57 31L57 28L56 28L56 27L57 27L57 20L56 20L56 19L57 19L57 16L56 16L56 15L57 15L57 12L56 12L56 11L57 11L57 9L55 9L55 8L54 8L54 9L52 9L52 11L49 11L49 10L50 10L50 9L51 9L51 8L49 8L49 10L48 10L48 11L47 11L47 12L46 12L46 11L45 11L45 10L44 10L44 11L43 11L43 12L42 12L42 11L41 11L41 10L40 10L40 9L41 9L41 6L42 6L42 7L43 7L43 6L44 6L44 8L42 8L42 9L46 9L46 8L45 8L45 6L46 6L46 7L47 7L47 9L48 9L48 7L49 7L49 6L48 6L48 7L47 7L47 5L48 5L48 0L46 0L46 1L45 1L45 0L44 0L44 1L43 1L43 0L42 0L42 1L41 1L41 0L40 0L40 1L39 1L39 0L38 0L38 1L37 1L37 0L36 0L36 1L35 1L35 0L33 0L33 1L31 1L31 0L30 0L30 1L29 1L29 0L28 0L28 1L27 1L27 0L26 0L26 2L28 2L28 1L29 1L29 2L33 2L33 4L32 4L32 3L29 3L29 4L27 4L27 3L25 3L25 2L24 2L24 1L25 1L25 0L24 0L24 1L22 1L22 3L23 3L23 4L24 4L24 5L23 5L23 6L22 6L22 5L21 5L21 4L20 4L20 3L21 3L21 2L20 2L20 1L21 1L21 0L20 0L20 1L19 1L19 2L18 2L18 1L17 1L17 0ZM9 1L9 2L8 2L8 3L9 3L9 4L10 4L10 3L11 3L11 2L10 2L10 1ZM34 1L34 2L35 2L35 3L34 3L34 4L33 4L33 5L32 5L32 4L31 4L31 5L32 5L32 6L31 6L31 9L30 9L30 10L29 10L29 9L28 9L28 10L27 10L27 9L26 9L26 8L25 8L25 7L26 7L26 6L25 6L25 5L26 5L26 4L25 4L25 5L24 5L24 6L23 6L23 7L22 7L22 6L21 6L21 5L20 5L20 4L19 4L19 3L20 3L20 2L19 2L19 3L18 3L18 2L16 2L16 5L18 5L18 6L17 6L17 7L18 7L18 8L16 8L16 6L15 6L15 3L14 3L14 2L13 2L13 3L14 3L14 4L12 4L12 5L14 5L14 6L13 6L13 7L14 7L14 8L12 8L12 10L13 10L13 12L12 12L12 13L13 13L13 15L14 15L14 16L13 16L13 17L14 17L14 16L15 16L15 18L14 18L14 19L15 19L15 20L14 20L14 23L15 23L15 20L16 20L16 19L18 19L18 20L17 20L17 21L16 21L16 22L17 22L17 21L18 21L18 20L19 20L19 21L20 21L20 22L19 22L19 23L20 23L20 26L19 26L19 25L18 25L18 23L16 23L16 24L15 24L15 25L16 25L16 26L14 26L14 27L16 27L16 28L15 28L15 29L16 29L16 30L15 30L15 31L14 31L14 29L11 29L11 28L13 28L13 27L11 27L11 28L9 28L9 29L11 29L11 31L12 31L12 32L10 32L10 33L8 33L8 34L10 34L10 35L11 35L11 38L12 38L12 39L10 39L10 38L9 38L9 39L8 39L8 40L9 40L9 41L6 41L6 42L9 42L9 43L8 43L8 45L9 45L9 47L8 47L8 49L9 49L9 52L10 52L10 51L11 51L11 50L12 50L12 49L14 49L14 48L15 48L15 47L16 47L16 48L17 48L17 49L18 49L18 48L19 48L19 49L20 49L20 50L19 50L19 51L18 51L18 50L17 50L17 51L16 51L16 52L17 52L17 53L16 53L16 54L17 54L17 55L20 55L20 54L21 54L21 55L24 55L24 54L25 54L25 55L26 55L26 54L25 54L25 49L24 49L24 48L26 48L26 47L27 47L27 48L30 48L30 46L31 46L31 48L32 48L32 47L34 47L34 48L35 48L35 49L36 49L36 50L37 50L37 51L38 51L38 52L39 52L39 51L40 51L40 50L41 50L41 51L42 51L42 52L41 52L41 53L42 53L42 52L43 52L43 53L44 53L44 54L45 54L45 55L46 55L46 56L49 56L49 55L48 55L48 54L47 54L47 53L48 53L48 52L45 52L45 53L44 53L44 52L43 52L43 50L45 50L45 51L48 51L48 50L47 50L47 49L48 49L48 48L49 48L49 47L50 47L50 46L51 46L51 45L50 45L50 44L49 44L49 43L50 43L50 42L49 42L49 43L48 43L48 41L51 41L51 40L49 40L49 37L48 37L48 34L49 34L49 36L50 36L50 34L51 34L51 33L50 33L50 32L49 32L49 31L48 31L48 30L47 30L47 29L48 29L48 28L47 28L47 27L48 27L48 26L49 26L49 25L50 25L50 26L51 26L51 25L52 25L52 26L53 26L53 27L54 27L54 29L53 29L53 30L54 30L54 31L52 31L52 34L53 34L53 33L54 33L54 34L55 34L55 35L56 35L56 34L55 34L55 33L56 33L56 32L55 32L55 31L56 31L56 30L54 30L54 29L56 29L56 28L55 28L55 27L56 27L56 26L55 26L55 23L54 23L54 22L55 22L55 21L56 21L56 20L55 20L55 19L54 19L54 18L56 18L56 16L55 16L55 15L56 15L56 14L53 14L53 13L56 13L56 12L55 12L55 11L56 11L56 10L55 10L55 11L52 11L52 12L49 12L49 11L48 11L48 12L47 12L47 13L46 13L46 12L45 12L45 13L44 13L44 12L43 12L43 13L42 13L42 12L41 12L41 13L40 13L40 12L39 12L39 11L40 11L40 10L39 10L39 9L40 9L40 6L41 6L41 5L42 5L42 4L43 4L43 5L44 5L44 6L45 6L45 5L44 5L44 4L45 4L45 3L46 3L46 5L47 5L47 3L46 3L46 2L47 2L47 1L46 1L46 2L45 2L45 1L44 1L44 2L43 2L43 1L42 1L42 2L41 2L41 1L40 1L40 3L38 3L38 2L37 2L37 1L36 1L36 2L35 2L35 1ZM23 2L23 3L24 3L24 2ZM42 2L42 3L41 3L41 4L38 4L38 3L37 3L37 4L34 4L34 5L33 5L33 6L32 6L32 9L31 9L31 10L33 10L33 11L32 11L32 13L31 13L31 12L30 12L30 11L27 11L27 10L26 10L26 9L25 9L25 10L24 10L24 9L23 9L23 8L24 8L24 7L25 7L25 6L24 6L24 7L23 7L23 8L22 8L22 7L21 7L21 6L20 6L20 5L19 5L19 6L18 6L18 7L19 7L19 8L18 8L18 10L16 10L16 9L15 9L15 8L14 8L14 9L13 9L13 10L14 10L14 11L15 11L15 12L14 12L14 13L15 13L15 14L14 14L14 15L15 15L15 16L16 16L16 15L17 15L17 16L18 16L18 17L17 17L17 18L18 18L18 19L19 19L19 20L20 20L20 19L21 19L21 18L22 18L22 19L23 19L23 20L21 20L21 21L22 21L22 23L21 23L21 22L20 22L20 23L21 23L21 24L22 24L22 27L21 27L21 26L20 26L20 27L21 27L21 28L20 28L20 29L19 29L19 28L18 28L18 29L19 29L19 30L18 30L18 31L17 31L17 30L16 30L16 31L15 31L15 32L16 32L16 31L17 31L17 32L18 32L18 33L17 33L17 34L18 34L18 35L15 35L15 33L14 33L14 31L13 31L13 32L12 32L12 33L11 33L11 35L13 35L13 36L12 36L12 38L13 38L13 39L14 39L14 40L12 40L12 41L11 41L11 42L10 42L10 41L9 41L9 42L10 42L10 44L9 44L9 45L10 45L10 48L9 48L9 49L12 49L12 48L13 48L13 47L12 47L12 45L13 45L13 46L16 46L16 47L17 47L17 48L18 48L18 47L21 47L21 48L22 48L22 49L21 49L21 50L20 50L20 51L19 51L19 52L18 52L18 51L17 51L17 52L18 52L18 53L17 53L17 54L20 54L20 53L19 53L19 52L20 52L20 51L21 51L21 50L22 50L22 52L21 52L21 54L24 54L24 53L23 53L23 52L24 52L24 51L23 51L23 50L24 50L24 49L23 49L23 48L22 48L22 47L26 47L26 46L27 46L27 47L29 47L29 46L27 46L27 45L28 45L28 44L26 44L26 43L29 43L29 44L30 44L30 45L31 45L31 46L32 46L32 45L35 45L35 48L36 48L36 49L37 49L37 50L38 50L38 49L39 49L39 50L40 50L40 49L41 49L41 50L42 50L42 49L43 49L43 48L44 48L44 49L45 49L45 46L46 46L46 45L47 45L47 47L46 47L46 48L47 48L47 47L49 47L49 46L50 46L50 45L47 45L47 44L46 44L46 42L45 42L45 43L43 43L43 44L42 44L42 45L43 45L43 46L44 46L44 47L43 47L43 48L42 48L42 46L40 46L40 45L41 45L41 42L40 42L40 41L42 41L42 40L43 40L43 41L45 41L45 40L46 40L46 41L47 41L47 38L48 38L48 37L47 37L47 38L46 38L46 37L45 37L45 36L47 36L47 35L45 35L45 34L44 34L44 33L46 33L46 32L47 32L47 31L46 31L46 32L45 32L45 30L46 30L46 29L47 29L47 28L46 28L46 26L45 26L45 25L47 25L47 26L48 26L48 25L47 25L47 24L45 24L45 22L46 22L46 23L49 23L49 24L50 24L50 25L51 25L51 24L50 24L50 23L51 23L51 22L52 22L52 21L53 21L53 22L54 22L54 21L55 21L55 20L53 20L53 18L54 18L54 17L53 17L53 15L51 15L51 16L50 16L50 15L49 15L49 14L50 14L50 13L49 13L49 14L48 14L48 13L47 13L47 14L48 14L48 15L45 15L45 14L46 14L46 13L45 13L45 14L44 14L44 13L43 13L43 14L44 14L44 15L41 15L41 14L42 14L42 13L41 13L41 14L40 14L40 13L39 13L39 12L38 12L38 13L37 13L37 11L38 11L38 9L37 9L37 8L38 8L38 7L39 7L39 5L41 5L41 4L42 4L42 3L43 3L43 4L44 4L44 3L43 3L43 2ZM17 3L17 4L18 4L18 3ZM37 4L37 5L38 5L38 4ZM27 5L27 8L30 8L30 5ZM35 5L35 7L34 7L34 6L33 6L33 7L34 7L34 8L33 8L33 9L34 9L34 11L33 11L33 13L32 13L32 14L33 14L33 15L34 15L34 17L32 17L32 15L31 15L31 13L30 13L30 16L29 16L29 15L28 15L28 16L26 16L26 15L25 15L25 13L27 13L27 11L24 11L24 10L23 10L23 11L22 11L22 8L21 8L21 7L20 7L20 6L19 6L19 7L20 7L20 10L18 10L18 11L22 11L22 12L18 12L18 14L17 14L17 11L16 11L16 10L15 10L15 11L16 11L16 12L15 12L15 13L16 13L16 14L15 14L15 15L16 15L16 14L17 14L17 15L18 15L18 16L19 16L19 17L20 17L20 18L19 18L19 19L20 19L20 18L21 18L21 17L22 17L22 16L23 16L23 17L24 17L24 18L23 18L23 19L25 19L25 17L26 17L26 18L28 18L28 16L29 16L29 17L30 17L30 18L29 18L29 19L30 19L30 20L29 20L29 21L28 21L28 19L26 19L26 20L23 20L23 21L24 21L24 22L23 22L23 23L22 23L22 24L23 24L23 23L24 23L24 26L23 26L23 27L22 27L22 28L21 28L21 29L20 29L20 30L19 30L19 31L18 31L18 32L19 32L19 33L20 33L20 34L19 34L19 35L18 35L18 36L17 36L17 37L18 37L18 36L19 36L19 37L20 37L20 38L16 38L16 36L15 36L15 35L14 35L14 36L13 36L13 38L14 38L14 36L15 36L15 40L14 40L14 41L12 41L12 43L13 43L13 45L14 45L14 43L13 43L13 42L15 42L15 43L16 43L16 44L15 44L15 45L16 45L16 46L17 46L17 47L18 47L18 46L19 46L19 45L20 45L20 46L21 46L21 47L22 47L22 46L21 46L21 45L22 45L22 44L23 44L23 45L24 45L24 46L25 46L25 45L26 45L26 44L25 44L25 43L24 43L24 42L25 42L25 41L26 41L26 42L27 42L27 41L28 41L28 42L29 42L29 39L30 39L30 38L31 38L31 41L30 41L30 42L31 42L31 43L32 43L32 42L33 42L33 43L34 43L34 44L35 44L35 43L36 43L36 42L37 42L37 41L36 41L36 40L35 40L35 39L37 39L37 40L38 40L38 39L39 39L39 41L38 41L38 44L37 44L37 45L36 45L36 46L37 46L37 47L38 47L38 48L37 48L37 49L38 49L38 48L39 48L39 49L40 49L40 48L39 48L39 47L40 47L40 46L39 46L39 45L40 45L40 44L39 44L39 43L40 43L40 42L39 42L39 41L40 41L40 38L41 38L41 40L42 40L42 39L43 39L43 40L44 40L44 38L45 38L45 39L46 39L46 38L45 38L45 37L44 37L44 36L43 36L43 35L44 35L44 34L43 34L43 33L44 33L44 30L45 30L45 29L46 29L46 28L45 28L45 29L44 29L44 28L43 28L43 27L44 27L44 26L43 26L43 25L41 25L41 26L39 26L39 25L40 25L40 24L39 24L39 23L44 23L44 22L45 22L45 21L46 21L46 22L47 22L47 21L46 21L46 20L48 20L48 22L49 22L49 23L50 23L50 22L51 22L51 21L52 21L52 19L51 19L51 17L49 17L49 15L48 15L48 16L45 16L45 17L44 17L44 16L41 16L41 17L40 17L40 16L39 16L39 15L40 15L40 14L39 14L39 13L38 13L38 16L37 16L37 17L36 17L36 16L35 16L35 15L36 15L36 14L37 14L37 13L36 13L36 14L35 14L35 12L34 12L34 11L36 11L36 10L35 10L35 9L36 9L36 5ZM14 6L14 7L15 7L15 6ZM28 6L28 7L29 7L29 6ZM37 6L37 7L38 7L38 6ZM34 8L34 9L35 9L35 8ZM4 12L4 13L5 13L5 12ZM22 12L22 13L21 13L21 14L22 14L22 15L19 15L19 14L20 14L20 13L19 13L19 14L18 14L18 15L19 15L19 16L22 16L22 15L23 15L23 16L24 16L24 14L23 14L23 12ZM52 12L52 13L53 13L53 12ZM2 13L2 14L3 14L3 13ZM28 13L28 14L29 14L29 13ZM1 15L1 16L2 16L2 17L1 17L1 18L2 18L2 17L3 17L3 16L5 16L5 15ZM11 16L11 18L10 18L10 19L11 19L11 18L12 18L12 16ZM30 16L30 17L31 17L31 16ZM38 16L38 17L37 17L37 18L36 18L36 17L35 17L35 18L36 18L36 19L35 19L35 21L37 21L37 20L38 20L38 21L39 21L39 22L38 22L38 23L37 23L37 22L36 22L36 25L37 25L37 26L38 26L38 25L37 25L37 24L38 24L38 23L39 23L39 22L42 22L42 21L43 21L43 22L44 22L44 21L45 21L45 20L46 20L46 19L45 19L45 18L44 18L44 19L43 19L43 18L42 18L42 17L41 17L41 18L40 18L40 17L39 17L39 16ZM4 17L4 18L5 18L5 17ZM38 17L38 18L37 18L37 19L38 19L38 20L39 20L39 19L40 19L40 18L39 18L39 17ZM47 17L47 18L48 18L48 19L49 19L49 20L51 20L51 19L50 19L50 18L48 18L48 17ZM52 17L52 18L53 18L53 17ZM15 18L15 19L16 19L16 18ZM31 18L31 20L30 20L30 21L31 21L31 20L32 20L32 22L30 22L30 23L28 23L28 22L27 22L27 21L25 21L25 22L24 22L24 23L25 23L25 24L26 24L26 23L25 23L25 22L27 22L27 23L28 23L28 24L27 24L27 25L25 25L25 27L26 27L26 30L24 30L24 31L23 31L23 28L24 28L24 27L23 27L23 28L22 28L22 29L21 29L21 30L22 30L22 31L19 31L19 32L22 32L22 33L21 33L21 34L20 34L20 35L19 35L19 36L20 36L20 35L21 35L21 34L22 34L22 36L21 36L21 37L22 37L22 38L20 38L20 39L16 39L16 40L18 40L18 41L17 41L17 42L16 42L16 41L15 41L15 42L16 42L16 43L17 43L17 46L18 46L18 44L20 44L20 45L21 45L21 44L22 44L22 43L23 43L23 44L24 44L24 43L23 43L23 42L24 42L24 39L25 39L25 40L26 40L26 41L27 41L27 40L28 40L28 39L29 39L29 38L28 38L28 35L29 35L29 34L30 34L30 36L29 36L29 37L30 37L30 36L31 36L31 37L37 37L37 34L38 34L38 33L39 33L39 34L40 34L40 35L39 35L39 36L38 36L38 37L41 37L41 38L42 38L42 37L43 37L43 38L44 38L44 37L43 37L43 36L42 36L42 35L41 35L41 34L42 34L42 33L41 33L41 32L43 32L43 31L42 31L42 30L40 30L40 29L41 29L41 28L42 28L42 29L43 29L43 30L44 30L44 29L43 29L43 28L42 28L42 27L36 27L36 26L35 26L35 27L34 27L34 25L33 25L33 24L34 24L34 23L32 23L32 22L33 22L33 21L34 21L34 20L33 20L33 18ZM41 18L41 19L42 19L42 20L41 20L41 21L42 21L42 20L43 20L43 21L44 21L44 20L43 20L43 19L42 19L42 18ZM1 19L1 20L2 20L2 19ZM6 19L6 20L7 20L7 19ZM49 21L49 22L50 22L50 21ZM8 22L8 23L6 23L6 24L7 24L7 25L4 25L4 26L7 26L7 25L8 25L8 26L9 26L9 27L10 27L10 26L11 26L11 25L10 25L10 26L9 26L9 24L8 24L8 23L9 23L9 22ZM30 23L30 24L29 24L29 25L27 25L27 26L29 26L29 25L30 25L30 26L31 26L31 25L32 25L32 26L33 26L33 25L32 25L32 23ZM52 23L52 25L53 25L53 24L54 24L54 23ZM30 24L30 25L31 25L31 24ZM17 25L17 26L16 26L16 27L17 27L17 26L18 26L18 27L19 27L19 26L18 26L18 25ZM0 26L0 27L1 27L1 26ZM54 26L54 27L55 27L55 26ZM5 27L5 30L8 30L8 27ZM27 27L27 30L30 30L30 27ZM31 27L31 28L32 28L32 27ZM49 27L49 30L52 30L52 27ZM3 28L3 30L2 30L2 29L1 29L1 30L2 30L2 32L1 32L1 33L2 33L2 34L3 34L3 35L4 35L4 34L3 34L3 33L6 33L6 34L7 34L7 33L6 33L6 32L7 32L7 31L4 31L4 28ZM6 28L6 29L7 29L7 28ZM28 28L28 29L29 29L29 28ZM35 28L35 29L31 29L31 31L32 31L32 30L33 30L33 35L34 35L34 36L35 36L35 35L36 35L36 34L37 34L37 33L38 33L38 32L39 32L39 33L40 33L40 34L41 34L41 33L40 33L40 32L39 32L39 31L40 31L40 30L39 30L39 29L40 29L40 28L37 28L37 29L36 29L36 28ZM50 28L50 29L51 29L51 28ZM37 29L37 30L35 30L35 31L34 31L34 33L35 33L35 34L36 34L36 33L37 33L37 32L38 32L38 31L37 31L37 30L38 30L38 29ZM9 30L9 31L8 31L8 32L9 32L9 31L10 31L10 30ZM3 31L3 32L2 32L2 33L3 33L3 32L4 32L4 31ZM22 31L22 32L23 32L23 33L24 33L24 34L23 34L23 35L25 35L25 36L23 36L23 37L24 37L24 38L23 38L23 39L22 39L22 40L21 40L21 39L20 39L20 42L21 42L21 43L20 43L20 44L21 44L21 43L22 43L22 40L23 40L23 39L24 39L24 38L25 38L25 37L27 37L27 35L28 35L28 34L29 34L29 33L28 33L28 32L30 32L30 31L24 31L24 32L23 32L23 31ZM24 32L24 33L25 33L25 35L26 35L26 33L27 33L27 32L26 32L26 33L25 33L25 32ZM35 32L35 33L36 33L36 32ZM48 32L48 33L47 33L47 34L48 34L48 33L49 33L49 34L50 34L50 33L49 33L49 32ZM30 33L30 34L31 34L31 35L32 35L32 33ZM41 36L41 37L42 37L42 36ZM27 38L27 39L28 39L28 38ZM53 38L53 39L54 39L54 38ZM2 39L2 40L3 40L3 39ZM6 39L6 40L7 40L7 39ZM9 39L9 40L10 40L10 39ZM32 39L32 41L31 41L31 42L32 42L32 41L33 41L33 42L34 42L34 41L35 41L35 40L34 40L34 41L33 41L33 39ZM2 41L2 42L3 42L3 41ZM18 41L18 43L19 43L19 41ZM6 43L6 44L7 44L7 43ZM11 44L11 45L12 45L12 44ZM38 44L38 45L39 45L39 44ZM43 44L43 45L44 45L44 46L45 46L45 45L46 45L46 44L45 44L45 45L44 45L44 44ZM1 46L1 47L2 47L2 46ZM38 46L38 47L39 47L39 46ZM41 48L41 49L42 49L42 48ZM27 49L27 52L30 52L30 49ZM31 49L31 51L32 51L32 49ZM49 49L49 52L52 52L52 49ZM28 50L28 51L29 51L29 50ZM50 50L50 51L51 51L51 50ZM36 53L36 54L38 54L38 56L39 56L39 55L40 55L40 54L39 54L39 53ZM45 53L45 54L46 54L46 53ZM50 53L50 54L51 54L51 55L52 55L52 56L53 56L53 55L54 55L54 54L53 54L53 55L52 55L52 53ZM27 54L27 55L28 55L28 56L29 56L29 55L28 55L28 54ZM55 54L55 55L56 55L56 54ZM9 55L9 56L10 56L10 55ZM0 0L0 7L7 7L7 0ZM1 1L1 6L6 6L6 1ZM2 2L2 5L5 5L5 2ZM50 0L50 7L57 7L57 0ZM51 1L51 6L56 6L56 1ZM52 2L52 5L55 5L55 2ZM0 50L0 57L7 57L7 50ZM1 51L1 56L6 56L6 51ZM2 52L2 55L5 55L5 52Z" fill="#000000"/></g></g></svg>
