<?xml version="1.0" encoding="UTF-8"?>
<svg xmlns="http://www.w3.org/2000/svg" version="1.1" width="170" height="170" viewBox="0 0 170 170"><rect x="0" y="0" width="170" height="170" fill="#ffffff"/><g transform="scale(2.787)"><g transform="translate(0,0)"><path fill-rule="evenodd" d="M8 0L8 1L9 1L9 2L8 2L8 5L9 5L9 6L8 6L8 7L9 7L9 6L10 6L10 7L11 7L11 8L8 8L8 9L11 9L11 10L8 10L8 11L7 11L7 10L6 10L6 9L7 9L7 8L6 8L6 9L5 9L5 10L4 10L4 8L0 8L0 11L4 11L4 15L5 15L5 17L4 17L4 16L3 16L3 17L2 17L2 16L1 16L1 18L2 18L2 19L1 19L1 20L3 20L3 21L5 21L5 22L3 22L3 23L4 23L4 24L3 24L3 25L4 25L4 26L3 26L3 27L4 27L4 26L6 26L6 27L7 27L7 26L8 26L8 28L3 28L3 29L2 29L2 31L3 31L3 29L4 29L4 33L1 33L1 31L0 31L0 33L1 33L1 34L2 34L2 35L1 35L1 36L0 36L0 37L1 37L1 36L2 36L2 35L4 35L4 33L8 33L8 34L10 34L10 35L11 35L11 36L10 36L10 39L9 39L9 36L8 36L8 35L7 35L7 34L5 34L5 35L7 35L7 36L6 36L6 37L4 37L4 36L3 36L3 37L4 37L4 38L2 38L2 40L3 40L3 42L1 42L1 41L0 41L0 43L3 43L3 42L4 42L4 41L5 41L5 42L6 42L6 43L7 43L7 42L6 42L6 41L8 41L8 40L13 40L13 39L12 39L12 37L13 37L13 36L14 36L14 41L13 41L13 42L11 42L11 43L10 43L10 44L9 44L9 45L8 45L8 44L5 44L5 45L4 45L4 44L3 44L3 45L4 45L4 47L3 47L3 46L2 46L2 48L5 48L5 45L7 45L7 46L6 46L6 47L7 47L7 48L6 48L6 49L4 49L4 50L2 50L2 51L0 51L0 53L4 53L4 52L5 52L5 51L7 51L7 50L6 50L6 49L10 49L10 48L11 48L11 51L12 51L12 52L13 52L13 53L11 53L11 55L9 55L9 56L10 56L10 58L9 58L9 57L8 57L8 61L9 61L9 59L10 59L10 61L12 61L12 60L11 60L11 55L12 55L12 56L14 56L14 54L13 54L13 53L15 53L15 52L16 52L16 54L15 54L15 55L16 55L16 54L17 54L17 57L18 57L18 59L17 59L17 60L16 60L16 59L15 59L15 60L14 60L14 58L15 58L15 57L14 57L14 58L13 58L13 57L12 57L12 58L13 58L13 61L22 61L22 60L20 60L20 59L21 59L21 58L19 58L19 55L18 55L18 54L20 54L20 53L18 53L18 52L19 52L19 51L18 51L18 52L16 52L16 51L17 51L17 50L20 50L20 51L22 51L22 50L21 50L21 48L20 48L20 47L23 47L23 46L25 46L25 44L24 44L24 45L23 45L23 43L25 43L25 42L26 42L26 40L28 40L28 39L30 39L30 40L31 40L31 39L33 39L33 40L32 40L32 41L29 41L29 42L28 42L28 41L27 41L27 43L26 43L26 44L27 44L27 43L29 43L29 44L28 44L28 45L29 45L29 44L30 44L30 43L31 43L31 42L32 42L32 44L31 44L31 45L32 45L32 44L33 44L33 43L35 43L35 41L36 41L36 40L35 40L35 41L34 41L34 42L32 42L32 41L33 41L33 40L34 40L34 39L33 39L33 37L34 37L34 36L35 36L35 35L36 35L36 34L37 34L37 33L39 33L39 34L38 34L38 35L39 35L39 37L38 37L38 36L36 36L36 37L35 37L35 38L36 38L36 37L38 37L38 38L37 38L37 39L39 39L39 40L37 40L37 41L39 41L39 40L42 40L42 41L40 41L40 42L36 42L36 44L38 44L38 45L39 45L39 46L40 46L40 45L41 45L41 44L42 44L42 43L40 43L40 42L42 42L42 41L43 41L43 42L45 42L45 43L46 43L46 42L47 42L47 41L48 41L48 39L49 39L49 41L51 41L51 40L50 40L50 39L51 39L51 37L52 37L52 36L53 36L53 35L54 35L54 37L53 37L53 38L54 38L54 37L55 37L55 35L57 35L57 36L56 36L56 38L55 38L55 39L56 39L56 38L57 38L57 37L59 37L59 38L58 38L58 39L57 39L57 40L58 40L58 41L59 41L59 40L58 40L58 39L60 39L60 38L61 38L61 37L59 37L59 35L60 35L60 36L61 36L61 35L60 35L60 34L59 34L59 35L57 35L57 34L55 34L55 33L57 33L57 31L58 31L58 30L59 30L59 29L60 29L60 31L59 31L59 32L60 32L60 31L61 31L61 27L59 27L59 26L60 26L60 25L61 25L61 24L60 24L60 23L58 23L58 24L57 24L57 22L58 22L58 21L59 21L59 20L60 20L60 19L61 19L61 17L60 17L60 16L61 16L61 15L60 15L60 16L58 16L58 15L59 15L59 14L61 14L61 13L59 13L59 11L60 11L60 12L61 12L61 11L60 11L60 10L59 10L59 8L56 8L56 9L58 9L58 10L59 10L59 11L57 11L57 10L56 10L56 11L55 11L55 9L54 9L54 8L53 8L53 6L52 6L52 8L51 8L51 5L52 5L52 4L53 4L53 0L51 0L51 2L50 2L50 1L49 1L49 0L48 0L48 1L44 1L44 3L48 3L48 4L47 4L47 5L48 5L48 4L49 4L49 5L50 5L50 8L49 8L49 6L48 6L48 8L49 8L49 9L48 9L48 10L46 10L46 9L47 9L47 8L46 8L46 9L45 9L45 10L44 10L44 9L41 9L41 6L42 6L42 7L43 7L43 8L44 8L44 7L45 7L45 6L46 6L46 7L47 7L47 6L46 6L46 5L45 5L45 4L44 4L44 5L42 5L42 4L43 4L43 0L42 0L42 1L41 1L41 0L40 0L40 1L41 1L41 4L40 4L40 2L38 2L38 1L37 1L37 2L36 2L36 4L35 4L35 3L33 3L33 4L29 4L29 2L30 2L30 1L31 1L31 0L30 0L30 1L27 1L27 0L26 0L26 1L25 1L25 0L24 0L24 1L25 1L25 2L26 2L26 1L27 1L27 2L28 2L28 4L27 4L27 5L26 5L26 4L25 4L25 5L24 5L24 3L23 3L23 4L22 4L22 3L21 3L21 1L20 1L20 0L19 0L19 1L17 1L17 0L16 0L16 2L15 2L15 1L13 1L13 2L12 2L12 0L11 0L11 1L10 1L10 0ZM32 0L32 2L31 2L31 3L32 3L32 2L33 2L33 0ZM35 0L35 1L34 1L34 2L35 2L35 1L36 1L36 0ZM48 1L48 2L49 2L49 1ZM13 2L13 3L12 3L12 4L13 4L13 7L14 7L14 6L15 6L15 8L14 8L14 9L13 9L13 10L12 10L12 11L14 11L14 12L13 12L13 14L14 14L14 16L12 16L12 14L11 14L11 13L12 13L12 12L10 12L10 11L9 11L9 12L10 12L10 13L9 13L9 14L7 14L7 13L6 13L6 14L5 14L5 15L6 15L6 16L7 16L7 17L5 17L5 18L4 18L4 20L5 20L5 18L8 18L8 19L6 19L6 20L7 20L7 21L6 21L6 22L5 22L5 23L6 23L6 24L5 24L5 25L6 25L6 26L7 26L7 25L6 25L6 24L7 24L7 23L8 23L8 21L9 21L9 20L10 20L10 19L11 19L11 20L14 20L14 21L12 21L12 22L14 22L14 24L13 24L13 23L11 23L11 22L9 22L9 24L8 24L8 25L9 25L9 30L12 30L12 31L10 31L10 32L12 32L12 33L14 33L14 32L15 32L15 35L14 35L14 36L15 36L15 35L16 35L16 36L17 36L17 37L15 37L15 39L16 39L16 40L17 40L17 39L19 39L19 40L18 40L18 42L15 42L15 41L14 41L14 42L13 42L13 43L12 43L12 44L11 44L11 45L12 45L12 46L11 46L11 48L12 48L12 50L13 50L13 48L14 48L14 47L12 47L12 46L13 46L13 45L12 45L12 44L13 44L13 43L14 43L14 45L15 45L15 49L14 49L14 50L17 50L17 48L16 48L16 46L18 46L18 47L20 47L20 46L22 46L22 44L21 44L21 43L23 43L23 42L25 42L25 41L24 41L24 39L25 39L25 40L26 40L26 38L27 38L27 39L28 39L28 38L29 38L29 37L30 37L30 36L31 36L31 37L33 37L33 36L34 36L34 34L36 34L36 33L37 33L37 32L39 32L39 33L40 33L40 34L39 34L39 35L40 35L40 37L39 37L39 39L40 39L40 38L41 38L41 37L42 37L42 38L43 38L43 39L42 39L42 40L43 40L43 39L44 39L44 38L45 38L45 36L46 36L46 39L47 39L47 38L48 38L48 37L47 37L47 36L48 36L48 35L49 35L49 33L50 33L50 37L51 37L51 35L53 35L53 34L54 34L54 35L55 35L55 34L54 34L54 33L52 33L52 31L50 31L50 30L51 30L51 29L52 29L52 28L54 28L54 26L56 26L56 27L55 27L55 28L56 28L56 27L58 27L58 28L57 28L57 30L58 30L58 29L59 29L59 27L58 27L58 26L56 26L56 25L57 25L57 24L55 24L55 23L56 23L56 22L57 22L57 21L58 21L58 20L59 20L59 19L60 19L60 17L59 17L59 18L58 18L58 16L57 16L57 17L56 17L56 15L58 15L58 14L59 14L59 13L57 13L57 12L56 12L56 13L54 13L54 12L55 12L55 11L53 11L53 10L54 10L54 9L53 9L53 8L52 8L52 9L51 9L51 8L50 8L50 10L48 10L48 11L45 11L45 12L43 12L43 11L44 11L44 10L43 10L43 11L41 11L41 9L40 9L40 4L39 4L39 8L38 8L38 6L37 6L37 8L35 8L35 7L36 7L36 5L35 5L35 4L33 4L33 9L34 9L34 10L33 10L33 11L32 11L32 9L31 9L31 10L30 10L30 9L28 9L28 8L27 8L27 7L28 7L28 5L27 5L27 7L26 7L26 5L25 5L25 7L24 7L24 5L23 5L23 7L22 7L22 6L21 6L21 5L22 5L22 4L21 4L21 5L17 5L17 4L18 4L18 2L16 2L16 3L17 3L17 4L15 4L15 2ZM19 2L19 3L20 3L20 2ZM37 2L37 3L38 3L38 2ZM9 3L9 4L10 4L10 6L11 6L11 7L12 7L12 5L11 5L11 4L10 4L10 3ZM51 3L51 4L52 4L52 3ZM16 5L16 7L17 7L17 5ZM29 5L29 8L32 8L32 5ZM44 5L44 6L43 6L43 7L44 7L44 6L45 6L45 5ZM18 6L18 7L19 7L19 9L17 9L17 10L14 10L14 11L16 11L16 12L15 12L15 16L14 16L14 17L16 17L16 18L17 18L17 17L18 17L18 19L17 19L17 20L18 20L18 19L19 19L19 17L18 17L18 16L19 16L19 15L20 15L20 16L21 16L21 17L22 17L22 18L21 18L21 19L22 19L22 18L27 18L27 20L28 20L28 21L26 21L26 20L25 20L25 19L24 19L24 20L22 20L22 21L21 21L21 20L19 20L19 22L18 22L18 24L17 24L17 23L16 23L16 25L14 25L14 26L13 26L13 25L12 25L12 24L11 24L11 25L12 25L12 26L11 26L11 27L10 27L10 29L12 29L12 27L13 27L13 28L14 28L14 27L15 27L15 29L14 29L14 30L13 30L13 31L12 31L12 32L13 32L13 31L15 31L15 30L17 30L17 29L18 29L18 31L17 31L17 32L16 32L16 35L18 35L18 34L17 34L17 33L18 33L18 31L20 31L20 29L21 29L21 32L19 32L19 36L18 36L18 37L17 37L17 38L16 38L16 39L17 39L17 38L19 38L19 39L20 39L20 38L21 38L21 39L22 39L22 40L20 40L20 43L19 43L19 42L18 42L18 43L17 43L17 45L18 45L18 46L19 46L19 45L18 45L18 43L19 43L19 44L20 44L20 45L21 45L21 44L20 44L20 43L21 43L21 41L22 41L22 40L23 40L23 39L22 39L22 38L24 38L24 36L23 36L23 35L22 35L22 36L21 36L21 32L22 32L22 33L24 33L24 34L26 34L26 35L25 35L25 36L26 36L26 35L27 35L27 33L29 33L29 35L28 35L28 36L27 36L27 38L28 38L28 36L29 36L29 35L30 35L30 33L34 33L34 32L33 32L33 31L35 31L35 33L36 33L36 32L37 32L37 31L39 31L39 32L40 32L40 33L41 33L41 32L42 32L42 31L40 31L40 30L41 30L41 29L42 29L42 28L44 28L44 29L43 29L43 30L44 30L44 29L45 29L45 28L46 28L46 27L47 27L47 26L46 26L46 27L43 27L43 26L42 26L42 28L41 28L41 26L40 26L40 28L37 28L37 27L39 27L39 25L40 25L40 24L39 24L39 25L37 25L37 22L38 22L38 21L39 21L39 22L41 22L41 20L42 20L42 24L41 24L41 25L44 25L44 24L45 24L45 25L46 25L46 24L48 24L48 25L49 25L49 26L50 26L50 27L51 27L51 28L50 28L50 29L46 29L46 31L45 31L45 33L48 33L48 32L49 32L49 31L48 31L48 30L50 30L50 29L51 29L51 28L52 28L52 27L53 27L53 26L54 26L54 25L55 25L55 24L54 24L54 25L53 25L53 26L52 26L52 25L51 25L51 23L50 23L50 25L49 25L49 22L50 22L50 21L51 21L51 19L52 19L52 18L53 18L53 17L54 17L54 16L55 16L55 15L56 15L56 14L57 14L57 13L56 13L56 14L54 14L54 13L53 13L53 11L52 11L52 12L51 12L51 13L50 13L50 14L49 14L49 12L50 12L50 11L51 11L51 10L50 10L50 11L48 11L48 12L45 12L45 13L47 13L47 15L51 15L51 16L52 16L52 18L50 18L50 20L49 20L49 19L48 19L48 18L49 18L49 17L48 17L48 16L46 16L46 15L44 15L44 14L42 14L42 13L43 13L43 12L41 12L41 13L40 13L40 14L42 14L42 16L41 16L41 15L40 15L40 16L41 16L41 17L39 17L39 10L40 10L40 9L39 9L39 10L38 10L38 8L37 8L37 9L36 9L36 10L34 10L34 12L33 12L33 13L34 13L34 12L35 12L35 11L36 11L36 10L38 10L38 11L37 11L37 12L36 12L36 13L35 13L35 14L36 14L36 15L37 15L37 12L38 12L38 16L37 16L37 18L35 18L35 17L36 17L36 16L35 16L35 17L34 17L34 15L32 15L32 14L31 14L31 15L30 15L30 16L29 16L29 17L28 17L28 15L27 15L27 14L26 14L26 13L25 13L25 14L26 14L26 15L27 15L27 16L25 16L25 15L24 15L24 14L23 14L23 13L24 13L24 12L23 12L23 13L22 13L22 12L21 12L21 11L20 11L20 12L21 12L21 13L20 13L20 14L19 14L19 12L18 12L18 11L17 11L17 10L21 10L21 9L22 9L22 11L24 11L24 10L25 10L25 12L26 12L26 11L27 11L27 10L25 10L25 9L24 9L24 7L23 7L23 8L21 8L21 6L20 6L20 7L19 7L19 6ZM30 6L30 7L31 7L31 6ZM34 6L34 7L35 7L35 6ZM11 8L11 9L12 9L12 8ZM20 8L20 9L21 9L21 8ZM26 8L26 9L27 9L27 8ZM34 8L34 9L35 9L35 8ZM60 8L60 9L61 9L61 8ZM1 9L1 10L3 10L3 9ZM5 10L5 11L6 11L6 12L7 12L7 11L6 11L6 10ZM29 10L29 11L28 11L28 12L27 12L27 13L28 13L28 12L29 12L29 14L30 14L30 12L29 12L29 11L30 11L30 10ZM31 11L31 12L32 12L32 11ZM0 12L0 14L1 14L1 15L2 15L2 14L3 14L3 13L2 13L2 12ZM16 13L16 14L18 14L18 15L19 15L19 14L18 14L18 13ZM51 13L51 15L52 15L52 16L54 16L54 14L53 14L53 13ZM6 14L6 15L7 15L7 16L8 16L8 17L9 17L9 18L11 18L11 17L12 17L12 18L13 18L13 17L12 17L12 16L11 16L11 17L9 17L9 16L10 16L10 15L11 15L11 14L9 14L9 16L8 16L8 15L7 15L7 14ZM22 14L22 15L23 15L23 16L24 16L24 17L25 17L25 16L24 16L24 15L23 15L23 14ZM52 14L52 15L53 15L53 14ZM31 15L31 17L29 17L29 18L28 18L28 17L27 17L27 18L28 18L28 20L32 20L32 21L31 21L31 22L30 22L30 21L28 21L28 22L27 22L27 23L26 23L26 22L25 22L25 23L23 23L23 22L24 22L24 21L23 21L23 22L21 22L21 21L20 21L20 23L21 23L21 24L20 24L20 25L19 25L19 24L18 24L18 26L17 26L17 25L16 25L16 28L18 28L18 29L20 29L20 28L21 28L21 29L22 29L22 32L23 32L23 28L25 28L25 29L24 29L24 31L27 31L27 32L24 32L24 33L27 33L27 32L28 32L28 31L27 31L27 30L28 30L28 28L30 28L30 26L32 26L32 27L31 27L31 28L33 28L33 30L34 30L34 29L35 29L35 28L36 28L36 30L35 30L35 31L37 31L37 28L36 28L36 27L37 27L37 25L36 25L36 23L35 23L35 24L34 24L34 22L37 22L37 19L38 19L38 20L39 20L39 21L40 21L40 20L39 20L39 17L38 17L38 18L37 18L37 19L36 19L36 20L35 20L35 19L33 19L33 18L31 18L31 17L33 17L33 16L32 16L32 15ZM43 15L43 16L42 16L42 17L41 17L41 18L40 18L40 19L42 19L42 20L44 20L44 22L45 22L45 24L46 24L46 22L47 22L47 23L48 23L48 22L49 22L49 20L46 20L46 19L45 19L45 17L46 17L46 16L45 16L45 17L44 17L44 15ZM16 16L16 17L17 17L17 16ZM43 17L43 18L44 18L44 17ZM55 17L55 18L56 18L56 17ZM30 18L30 19L31 19L31 18ZM57 18L57 20L58 20L58 18ZM32 19L32 20L33 20L33 19ZM34 20L34 21L32 21L32 23L31 23L31 24L32 24L32 23L33 23L33 22L34 22L34 21L35 21L35 20ZM55 20L55 21L54 21L54 22L53 22L53 23L52 23L52 24L53 24L53 23L55 23L55 21L56 21L56 20ZM1 21L1 22L2 22L2 21ZM15 21L15 22L16 22L16 21ZM45 21L45 22L46 22L46 21ZM6 22L6 23L7 23L7 22ZM28 22L28 23L27 23L27 25L25 25L25 26L24 26L24 25L22 25L22 27L23 27L23 26L24 26L24 27L26 27L26 29L25 29L25 30L27 30L27 28L28 28L28 27L27 27L27 25L28 25L28 26L30 26L30 25L29 25L29 23L30 23L30 22ZM0 23L0 24L1 24L1 23ZM9 24L9 25L10 25L10 24ZM33 24L33 25L34 25L34 24ZM59 24L59 25L60 25L60 24ZM0 25L0 27L1 27L1 28L2 28L2 26L1 26L1 25ZM20 25L20 26L21 26L21 25ZM35 25L35 26L36 26L36 25ZM51 26L51 27L52 27L52 26ZM33 27L33 28L34 28L34 27ZM40 28L40 29L38 29L38 30L40 30L40 29L41 29L41 28ZM0 29L0 30L1 30L1 29ZM5 29L5 32L8 32L8 29ZM29 29L29 32L32 32L32 29ZM53 29L53 32L56 32L56 29ZM6 30L6 31L7 31L7 30ZM30 30L30 31L31 31L31 30ZM54 30L54 31L55 31L55 30ZM46 31L46 32L47 32L47 31ZM43 32L43 33L42 33L42 34L41 34L41 35L43 35L43 36L42 36L42 37L44 37L44 36L45 36L45 35L46 35L46 36L47 36L47 35L48 35L48 34L44 34L44 35L43 35L43 33L44 33L44 32ZM51 33L51 34L52 34L52 33ZM12 34L12 35L13 35L13 34ZM31 34L31 36L32 36L32 34ZM19 36L19 37L21 37L21 38L22 38L22 37L23 37L23 36L22 36L22 37L21 37L21 36ZM6 37L6 38L7 38L7 39L5 39L5 40L8 40L8 38L7 38L7 37ZM25 37L25 38L26 38L26 37ZM0 38L0 39L1 39L1 38ZM30 38L30 39L31 39L31 38ZM49 38L49 39L50 39L50 38ZM3 39L3 40L4 40L4 39ZM52 39L52 40L53 40L53 39ZM45 40L45 42L46 42L46 40ZM52 41L52 42L53 42L53 44L52 44L52 43L51 43L51 42L50 42L50 44L49 44L49 42L48 42L48 43L47 43L47 44L46 44L46 45L45 45L45 47L44 47L44 43L43 43L43 45L42 45L42 46L41 46L41 47L43 47L43 48L42 48L42 49L40 49L40 48L39 48L39 47L38 47L38 46L37 46L37 45L36 45L36 46L34 46L34 45L35 45L35 44L34 44L34 45L33 45L33 46L34 46L34 47L36 47L36 49L37 49L37 48L38 48L38 50L37 50L37 51L39 51L39 52L38 52L38 53L36 53L36 52L35 52L35 53L34 53L34 54L33 54L33 52L34 52L34 51L33 51L33 50L34 50L34 48L33 48L33 49L32 49L32 51L30 51L30 52L29 52L29 51L26 51L26 48L27 48L27 50L28 50L28 49L29 49L29 50L31 50L31 48L32 48L32 47L30 47L30 49L29 49L29 47L28 47L28 48L27 48L27 46L26 46L26 48L24 48L24 51L23 51L23 53L25 53L25 52L24 52L24 51L26 51L26 54L27 54L27 53L28 53L28 57L27 57L27 58L26 58L26 56L27 56L27 55L25 55L25 54L24 54L24 55L25 55L25 56L24 56L24 57L23 57L23 56L22 56L22 55L23 55L23 54L21 54L21 55L20 55L20 56L21 56L21 57L22 57L22 59L23 59L23 58L24 58L24 59L25 59L25 61L26 61L26 59L27 59L27 58L28 58L28 57L30 57L30 58L29 58L29 59L31 59L31 60L33 60L33 61L34 61L34 60L36 60L36 61L37 61L37 60L38 60L38 61L40 61L40 60L39 60L39 59L36 59L36 58L38 58L38 56L39 56L39 54L38 54L38 53L39 53L39 52L41 52L41 53L40 53L40 54L41 54L41 55L40 55L40 57L39 57L39 58L40 58L40 57L41 57L41 55L42 55L42 59L41 59L41 61L43 61L43 60L45 60L45 61L49 61L49 60L50 60L50 59L49 59L49 58L51 58L51 60L53 60L53 59L54 59L54 58L55 58L55 57L56 57L56 59L55 59L55 60L56 60L56 59L57 59L57 58L58 58L58 60L57 60L57 61L61 61L61 60L59 60L59 59L60 59L60 58L61 58L61 57L60 57L60 58L59 58L59 57L57 57L57 55L58 55L58 54L59 54L59 56L60 56L60 55L61 55L61 54L59 54L59 53L61 53L61 52L56 52L56 50L57 50L57 51L59 51L59 50L60 50L60 49L61 49L61 48L60 48L60 49L59 49L59 47L60 47L60 46L59 46L59 47L58 47L58 48L56 48L56 47L57 47L57 46L58 46L58 45L59 45L59 44L58 44L58 45L57 45L57 43L59 43L59 42L57 42L57 43L56 43L56 44L55 44L55 42L56 42L56 41ZM60 41L60 43L61 43L61 41ZM14 42L14 43L15 43L15 42ZM29 42L29 43L30 43L30 42ZM39 43L39 45L40 45L40 43ZM0 44L0 46L1 46L1 44ZM48 44L48 45L46 45L46 46L49 46L49 47L53 47L53 48L52 48L52 49L51 49L51 48L49 48L49 49L46 49L46 47L45 47L45 48L43 48L43 49L42 49L42 50L40 50L40 49L39 49L39 51L41 51L41 52L42 52L42 50L44 50L44 51L43 51L43 52L44 52L44 51L47 51L47 53L48 53L48 54L47 54L47 55L50 55L50 56L46 56L46 55L44 55L44 56L43 56L43 57L44 57L44 58L45 58L45 60L46 60L46 58L49 58L49 57L51 57L51 58L52 58L52 59L53 59L53 58L54 58L54 57L53 57L53 58L52 58L52 55L50 55L50 54L52 54L52 52L55 52L55 49L56 49L56 48L55 48L55 49L54 49L54 47L56 47L56 46L57 46L57 45L55 45L55 44L53 44L53 45L52 45L52 44L50 44L50 45L49 45L49 44ZM51 45L51 46L52 46L52 45ZM54 45L54 46L53 46L53 47L54 47L54 46L55 46L55 45ZM7 46L7 47L8 47L8 46ZM9 46L9 48L10 48L10 46ZM36 46L36 47L37 47L37 46ZM0 47L0 48L1 48L1 47ZM19 48L19 49L20 49L20 48ZM22 48L22 49L23 49L23 48ZM44 49L44 50L46 50L46 49ZM50 49L50 51L49 51L49 50L48 50L48 51L49 51L49 52L50 52L50 53L51 53L51 52L50 52L50 51L51 51L51 49ZM53 49L53 50L52 50L52 51L53 51L53 50L54 50L54 49ZM57 49L57 50L59 50L59 49ZM8 50L8 52L6 52L6 53L8 53L8 54L10 54L10 52L9 52L9 50ZM35 50L35 51L36 51L36 50ZM3 51L3 52L4 52L4 51ZM14 51L14 52L15 52L15 51ZM32 51L32 52L33 52L33 51ZM8 52L8 53L9 53L9 52ZM45 52L45 53L46 53L46 52ZM17 53L17 54L18 54L18 53ZM29 53L29 56L32 56L32 53ZM35 53L35 55L33 55L33 57L32 57L32 58L31 58L31 59L32 59L32 58L33 58L33 60L34 60L34 58L36 58L36 57L37 57L37 56L35 56L35 55L36 55L36 53ZM41 53L41 54L42 54L42 55L43 55L43 54L44 54L44 53ZM53 53L53 56L56 56L56 53ZM57 53L57 54L58 54L58 53ZM30 54L30 55L31 55L31 54ZM54 54L54 55L55 55L55 54ZM34 56L34 57L33 57L33 58L34 58L34 57L35 57L35 56ZM45 57L45 58L46 58L46 57ZM18 59L18 60L19 60L19 59ZM48 59L48 60L49 60L49 59ZM0 0L0 7L7 7L7 0ZM1 1L1 6L6 6L6 1ZM2 2L2 5L5 5L5 2ZM54 0L54 7L61 7L61 0ZM55 1L55 6L60 6L60 1ZM56 2L56 5L59 5L59 2ZM0 54L0 61L7 61L7 54ZM1 55L1 60L6 60L6 55ZM2 56L2 59L5 59L5 56Z" fill="#000000"/></g></g></svg>
