<?xml version="1.0" encoding="UTF-8"?>
<svg xmlns="http://www.w3.org/2000/svg" version="1.1" width="180" height="180" viewBox="0 0 180 180"><rect x="0" y="0" width="180" height="180" fill="#ffffff"/><g transform="scale(3.158)"><g transform="translate(0,0)"><path fill-rule="evenodd" d="M8 0L8 1L11 1L11 2L8 2L8 5L9 5L9 4L10 4L10 3L11 3L11 5L10 5L10 7L9 7L9 6L8 6L8 7L9 7L9 8L8 8L8 9L7 9L7 8L6 8L6 9L7 9L7 10L6 10L6 11L5 11L5 10L4 10L4 8L0 8L0 9L3 9L3 10L4 10L4 12L6 12L6 13L7 13L7 12L9 12L9 14L8 14L8 16L6 16L6 15L7 15L7 14L5 14L5 13L4 13L4 15L5 15L5 17L8 17L8 16L9 16L9 15L12 15L12 16L13 16L13 15L14 15L14 14L15 14L15 13L17 13L17 12L18 12L18 13L19 13L19 12L20 12L20 14L19 14L19 15L18 15L18 16L16 16L16 15L17 15L17 14L16 14L16 15L15 15L15 16L14 16L14 17L13 17L13 18L12 18L12 20L11 20L11 18L10 18L10 19L9 19L9 18L5 18L5 21L4 21L4 22L2 22L2 21L1 21L1 22L0 22L0 23L1 23L1 22L2 22L2 24L0 24L0 27L1 27L1 28L0 28L0 31L2 31L2 32L1 32L1 33L0 33L0 35L1 35L1 38L0 38L0 41L3 41L3 43L4 43L4 44L3 44L3 45L4 45L4 44L5 44L5 41L10 41L10 42L11 42L11 40L13 40L13 39L14 39L14 40L16 40L16 42L14 42L14 41L13 41L13 43L14 43L14 44L15 44L15 43L16 43L16 42L17 42L17 41L18 41L18 43L20 43L20 44L19 44L19 45L17 45L17 47L16 47L16 48L15 48L15 46L16 46L16 45L15 45L15 46L12 46L12 47L11 47L11 46L10 46L10 47L7 47L7 46L8 46L8 45L9 45L9 44L10 44L10 43L9 43L9 42L8 42L8 43L7 43L7 42L6 42L6 43L7 43L7 44L6 44L6 45L7 45L7 46L5 46L5 47L3 47L3 46L2 46L2 43L1 43L1 42L0 42L0 43L1 43L1 46L0 46L0 48L5 48L5 47L7 47L7 48L6 48L6 49L7 49L7 48L8 48L8 50L9 50L9 52L10 52L10 53L11 53L11 52L10 52L10 51L11 51L11 50L12 50L12 54L9 54L9 53L8 53L8 57L11 57L11 56L9 56L9 55L12 55L12 57L14 57L14 56L18 56L18 55L19 55L19 54L20 54L20 53L18 53L18 52L19 52L19 51L20 51L20 50L21 50L21 51L23 51L23 50L24 50L24 51L25 51L25 50L24 50L24 49L26 49L26 53L25 53L25 52L23 52L23 53L22 53L22 54L21 54L21 55L20 55L20 57L21 57L21 56L22 56L22 57L26 57L26 56L27 56L27 57L32 57L32 55L31 55L31 54L32 54L32 53L33 53L33 55L35 55L35 56L34 56L34 57L35 57L35 56L37 56L37 53L36 53L36 55L35 55L35 53L33 53L33 52L35 52L35 51L34 51L34 49L35 49L35 50L36 50L36 49L37 49L37 48L38 48L38 47L39 47L39 46L40 46L40 45L41 45L41 46L42 46L42 47L43 47L43 45L44 45L44 44L43 44L43 45L41 45L41 42L38 42L38 41L39 41L39 40L41 40L41 41L43 41L43 42L45 42L45 43L47 43L47 41L48 41L48 40L49 40L49 39L50 39L50 40L51 40L51 41L49 41L49 42L48 42L48 43L49 43L49 42L51 42L51 43L52 43L52 44L50 44L50 45L48 45L48 46L46 46L46 45L47 45L47 44L46 44L46 45L45 45L45 46L44 46L44 48L48 48L48 49L47 49L47 50L48 50L48 52L47 52L47 53L46 53L46 54L45 54L45 55L46 55L46 56L45 56L45 57L47 57L47 56L48 56L48 55L49 55L49 54L50 54L50 53L51 53L51 55L50 55L50 57L51 57L51 55L52 55L52 53L53 53L53 52L54 52L54 53L55 53L55 54L54 54L54 55L55 55L55 54L56 54L56 53L55 53L55 51L56 51L56 52L57 52L57 51L56 51L56 50L55 50L55 49L53 49L53 47L52 47L52 48L51 48L51 46L52 46L52 44L54 44L54 45L53 45L53 46L55 46L55 45L56 45L56 47L55 47L55 48L56 48L56 47L57 47L57 45L56 45L56 44L57 44L57 43L56 43L56 44L54 44L54 43L52 43L52 42L53 42L53 41L54 41L54 42L57 42L57 40L56 40L56 38L57 38L57 37L56 37L56 38L55 38L55 39L54 39L54 40L51 40L51 39L50 39L50 38L52 38L52 39L53 39L53 38L54 38L54 37L53 37L53 36L54 36L54 35L55 35L55 36L56 36L56 35L57 35L57 33L56 33L56 32L57 32L57 31L56 31L56 32L54 32L54 34L53 34L53 35L51 35L51 34L52 34L52 32L51 32L51 34L50 34L50 32L49 32L49 33L48 33L48 34L46 34L46 35L47 35L47 36L45 36L45 33L44 33L44 32L43 32L43 33L42 33L42 34L41 34L41 35L43 35L43 36L42 36L42 37L41 37L41 38L40 38L40 37L38 37L38 35L36 35L36 34L37 34L37 33L38 33L38 32L39 32L39 31L40 31L40 33L39 33L39 34L40 34L40 33L41 33L41 32L42 32L42 28L43 28L43 27L44 27L44 29L43 29L43 30L44 30L44 29L45 29L45 28L46 28L46 24L45 24L45 22L46 22L46 21L45 21L45 22L44 22L44 24L43 24L43 21L44 21L44 20L43 20L43 21L42 21L42 22L41 22L41 20L42 20L42 19L40 19L40 18L41 18L41 17L43 17L43 18L44 18L44 17L45 17L45 19L46 19L46 20L47 20L47 19L48 19L48 17L49 17L49 16L50 16L50 17L51 17L51 18L50 18L50 19L52 19L52 21L51 21L51 20L48 20L48 22L47 22L47 23L48 23L48 22L49 22L49 21L51 21L51 22L50 22L50 23L49 23L49 24L50 24L50 23L51 23L51 22L52 22L52 23L54 23L54 22L55 22L55 23L57 23L57 20L53 20L53 19L52 19L52 18L53 18L53 17L55 17L55 18L54 18L54 19L56 19L56 18L57 18L57 16L56 16L56 17L55 17L55 14L57 14L57 13L54 13L54 14L53 14L53 15L52 15L52 16L50 16L50 15L51 15L51 13L52 13L52 12L54 12L54 11L52 11L52 12L51 12L51 13L50 13L50 15L48 15L48 16L47 16L47 15L46 15L46 16L44 16L44 17L43 17L43 16L41 16L41 14L42 14L42 15L44 15L44 14L45 14L45 13L46 13L46 12L47 12L47 11L48 11L48 12L50 12L50 11L49 11L49 9L50 9L50 8L48 8L48 7L49 7L49 6L48 6L48 7L47 7L47 5L48 5L48 0L44 0L44 1L47 1L47 2L46 2L46 3L45 3L45 2L43 2L43 3L42 3L42 4L41 4L41 5L40 5L40 4L37 4L37 3L38 3L38 2L36 2L36 0L35 0L35 1L34 1L34 2L33 2L33 1L32 1L32 2L33 2L33 3L34 3L34 4L32 4L32 3L30 3L30 4L29 4L29 3L28 3L28 4L27 4L27 2L25 2L25 3L26 3L26 5L25 5L25 6L24 6L24 7L23 7L23 5L24 5L24 4L21 4L21 5L20 5L20 4L19 4L19 3L20 3L20 2L21 2L21 3L23 3L23 2L24 2L24 1L25 1L25 0L24 0L24 1L23 1L23 0L21 0L21 1L20 1L20 2L19 2L19 3L18 3L18 4L17 4L17 5L15 5L15 6L14 6L14 5L13 5L13 6L12 6L12 4L13 4L13 3L14 3L14 2L15 2L15 3L17 3L17 2L18 2L18 1L17 1L17 2L16 2L16 0ZM29 0L29 1L31 1L31 0ZM39 0L39 1L40 1L40 0ZM42 0L42 1L41 1L41 2L42 2L42 1L43 1L43 0ZM13 1L13 2L14 2L14 1ZM21 1L21 2L23 2L23 1ZM35 2L35 3L36 3L36 2ZM39 2L39 3L40 3L40 2ZM43 3L43 4L42 4L42 5L41 5L41 7L42 7L42 5L44 5L44 6L43 6L43 8L42 8L42 9L43 9L43 10L47 10L47 9L48 9L48 8L47 8L47 7L46 7L46 5L47 5L47 3L46 3L46 4L45 4L45 3ZM31 4L31 5L32 5L32 6L31 6L31 7L32 7L32 10L31 10L31 11L30 11L30 9L25 9L25 10L24 10L24 9L23 9L23 10L22 10L22 8L23 8L23 7L22 7L22 5L21 5L21 7L20 7L20 6L19 6L19 5L18 5L18 6L17 6L17 7L16 7L16 6L15 6L15 8L14 8L14 6L13 6L13 7L12 7L12 6L11 6L11 7L10 7L10 9L9 9L9 12L10 12L10 13L11 13L11 12L12 12L12 10L11 10L11 11L10 11L10 9L11 9L11 8L14 8L14 9L13 9L13 10L14 10L14 11L15 11L15 12L16 12L16 11L17 11L17 10L18 10L18 12L19 12L19 10L21 10L21 11L20 11L20 12L22 12L22 13L21 13L21 14L20 14L20 15L19 15L19 16L18 16L18 17L17 17L17 19L18 19L18 20L17 20L17 22L19 22L19 23L20 23L20 24L21 24L21 23L22 23L22 25L24 25L24 26L23 26L23 27L22 27L22 26L21 26L21 27L22 27L22 28L20 28L20 27L16 27L16 26L17 26L17 25L18 25L18 26L20 26L20 25L18 25L18 23L16 23L16 20L14 20L14 24L12 24L12 22L13 22L13 21L10 21L10 20L9 20L9 19L6 19L6 20L7 20L7 21L6 21L6 22L7 22L7 21L8 21L8 20L9 20L9 21L10 21L10 22L8 22L8 23L5 23L5 22L4 22L4 24L2 24L2 26L1 26L1 27L2 27L2 28L1 28L1 29L3 29L3 27L4 27L4 26L7 26L7 25L6 25L6 24L8 24L8 25L9 25L9 26L11 26L11 25L12 25L12 26L13 26L13 28L15 28L15 29L12 29L12 27L11 27L11 28L10 28L10 27L9 27L9 29L10 29L10 31L11 31L11 29L12 29L12 33L11 33L11 34L13 34L13 35L14 35L14 37L13 37L13 38L14 38L14 39L15 39L15 38L17 38L17 39L16 39L16 40L18 40L18 41L19 41L19 40L20 40L20 42L21 42L21 41L22 41L22 43L21 43L21 44L20 44L20 45L19 45L19 46L18 46L18 47L17 47L17 48L19 48L19 49L16 49L16 50L14 50L14 49L13 49L13 48L14 48L14 47L13 47L13 48L9 48L9 50L11 50L11 49L13 49L13 50L14 50L14 51L17 51L17 52L14 52L14 54L15 54L15 53L16 53L16 54L17 54L17 55L18 55L18 53L17 53L17 52L18 52L18 51L19 51L19 50L20 50L20 48L19 48L19 47L21 47L21 48L22 48L22 49L21 49L21 50L22 50L22 49L24 49L24 48L25 48L25 47L26 47L26 48L27 48L27 47L26 47L26 45L25 45L25 46L24 46L24 47L23 47L23 46L21 46L21 45L22 45L22 44L23 44L23 45L24 45L24 44L26 44L26 43L29 43L29 42L30 42L30 41L31 41L31 43L32 43L32 44L30 44L30 45L32 45L32 46L30 46L30 47L29 47L29 44L27 44L27 46L28 46L28 47L29 47L29 48L30 48L30 47L32 47L32 46L33 46L33 48L32 48L32 51L31 51L31 53L27 53L27 54L25 54L25 53L23 53L23 54L22 54L22 56L23 56L23 55L24 55L24 56L26 56L26 55L27 55L27 56L28 56L28 55L29 55L29 54L31 54L31 53L32 53L32 51L33 51L33 49L34 49L34 46L35 46L35 49L36 49L36 47L38 47L38 46L39 46L39 45L40 45L40 43L39 43L39 44L38 44L38 43L37 43L37 41L38 41L38 40L39 40L39 39L40 39L40 38L39 38L39 39L38 39L38 38L37 38L37 37L34 37L34 35L33 35L33 36L31 36L31 37L29 37L29 34L30 34L30 35L31 35L31 33L30 33L30 31L29 31L29 32L28 32L28 33L27 33L27 32L26 32L26 31L25 31L25 30L26 30L26 28L25 28L25 29L24 29L24 32L23 32L23 27L25 27L25 25L26 25L26 24L27 24L27 25L28 25L28 26L29 26L29 24L31 24L31 25L30 25L30 26L33 26L33 27L35 27L35 28L34 28L34 29L32 29L32 28L31 28L31 29L32 29L32 34L36 34L36 33L37 33L37 32L38 32L38 30L40 30L40 31L41 31L41 30L40 30L40 29L41 29L41 28L42 28L42 26L43 26L43 24L42 24L42 25L41 25L41 23L40 23L40 22L39 22L39 20L40 20L40 19L39 19L39 20L38 20L38 22L37 22L37 20L36 20L36 21L33 21L33 20L35 20L35 19L36 19L36 18L37 18L37 19L38 19L38 18L40 18L40 17L41 17L41 16L39 16L39 15L40 15L40 14L41 14L41 13L42 13L42 14L44 14L44 13L45 13L45 12L46 12L46 11L45 11L45 12L43 12L43 11L41 11L41 10L39 10L39 9L40 9L40 8L39 8L39 9L37 9L37 8L38 8L38 6L39 6L39 7L40 7L40 6L39 6L39 5L38 5L38 6L37 6L37 5L36 5L36 4L34 4L34 5L32 5L32 4ZM44 4L44 5L45 5L45 4ZM27 5L27 8L30 8L30 5ZM35 5L35 6L34 6L34 7L35 7L35 6L36 6L36 8L37 8L37 6L36 6L36 5ZM18 6L18 7L17 7L17 8L20 8L20 9L21 9L21 8L20 8L20 7L19 7L19 6ZM25 6L25 7L24 7L24 8L25 8L25 7L26 7L26 6ZM28 6L28 7L29 7L29 6ZM32 6L32 7L33 7L33 6ZM44 6L44 7L45 7L45 9L47 9L47 8L46 8L46 7L45 7L45 6ZM52 8L52 9L51 9L51 10L52 10L52 9L55 9L55 8ZM56 8L56 11L55 11L55 12L56 12L56 11L57 11L57 8ZM14 9L14 10L16 10L16 9ZM18 9L18 10L19 10L19 9ZM33 9L33 10L32 10L32 11L31 11L31 12L33 12L33 14L30 14L30 12L29 12L29 13L27 13L27 12L28 12L28 11L29 11L29 10L28 10L28 11L27 11L27 10L25 10L25 11L27 11L27 12L25 12L25 13L27 13L27 14L28 14L28 15L27 15L27 16L28 16L28 15L30 15L30 16L29 16L29 18L27 18L27 17L26 17L26 14L25 14L25 16L24 16L24 15L23 15L23 13L22 13L22 15L21 15L21 16L22 16L22 15L23 15L23 17L26 17L26 18L24 18L24 19L22 19L22 18L21 18L21 19L20 19L20 20L19 20L19 21L20 21L20 20L21 20L21 21L22 21L22 22L23 22L23 23L24 23L24 22L25 22L25 20L24 20L24 19L26 19L26 21L27 21L27 22L26 22L26 23L25 23L25 24L26 24L26 23L27 23L27 22L28 22L28 21L29 21L29 22L30 22L30 23L31 23L31 21L32 21L32 20L31 20L31 21L29 21L29 20L30 20L30 17L31 17L31 18L32 18L32 19L35 19L35 17L33 17L33 15L34 15L34 16L35 16L35 15L36 15L36 16L37 16L37 15L36 15L36 13L37 13L37 11L36 11L36 10L37 10L37 9L36 9L36 10L34 10L34 9ZM0 10L0 13L1 13L1 14L0 14L0 16L1 16L1 17L2 17L2 15L3 15L3 12L1 12L1 11L2 11L2 10ZM23 10L23 11L22 11L22 12L23 12L23 11L24 11L24 10ZM6 11L6 12L7 12L7 11ZM34 11L34 12L35 12L35 13L34 13L34 15L35 15L35 13L36 13L36 11ZM39 12L39 13L38 13L38 15L39 15L39 13L40 13L40 12ZM42 12L42 13L43 13L43 12ZM12 13L12 14L14 14L14 13ZM47 13L47 14L48 14L48 13ZM1 14L1 15L2 15L2 14ZM31 15L31 17L32 17L32 15ZM15 16L15 17L16 17L16 16ZM38 16L38 17L37 17L37 18L38 18L38 17L39 17L39 16ZM52 16L52 17L53 17L53 16ZM3 17L3 18L2 18L2 19L1 19L1 20L4 20L4 19L3 19L3 18L4 18L4 17ZM18 17L18 19L19 19L19 18L20 18L20 17ZM13 18L13 19L15 19L15 18ZM26 18L26 19L27 19L27 18ZM23 20L23 22L24 22L24 20ZM27 20L27 21L28 21L28 20ZM53 21L53 22L54 22L54 21ZM55 21L55 22L56 22L56 21ZM20 22L20 23L21 23L21 22ZM32 22L32 24L33 24L33 25L34 25L34 24L36 24L36 25L35 25L35 26L37 26L37 25L38 25L38 28L41 28L41 26L40 26L40 27L39 27L39 25L40 25L40 23L38 23L38 24L37 24L37 23L36 23L36 22L34 22L34 23L33 23L33 22ZM8 23L8 24L9 24L9 23ZM15 23L15 24L14 24L14 25L13 25L13 26L14 26L14 25L17 25L17 24L16 24L16 23ZM38 24L38 25L39 25L39 24ZM44 24L44 25L45 25L45 24ZM47 24L47 25L48 25L48 24ZM51 24L51 25L50 25L50 26L48 26L48 28L47 28L47 29L46 29L46 30L45 30L45 32L47 32L47 29L48 29L48 31L53 31L53 30L57 30L57 28L56 28L56 29L55 29L55 27L56 27L56 26L55 26L55 27L54 27L54 29L53 29L53 25L52 25L52 24ZM55 24L55 25L56 25L56 24ZM51 25L51 26L52 26L52 25ZM2 26L2 27L3 27L3 26ZM44 26L44 27L45 27L45 26ZM5 27L5 30L8 30L8 27ZM15 27L15 28L16 28L16 30L15 30L15 31L13 31L13 32L15 32L15 31L16 31L16 30L17 30L17 28L16 28L16 27ZM27 27L27 30L30 30L30 27ZM49 27L49 30L52 30L52 27ZM6 28L6 29L7 29L7 28ZM18 28L18 29L19 29L19 30L18 30L18 31L17 31L17 32L18 32L18 31L19 31L19 30L20 30L20 31L22 31L22 30L20 30L20 29L19 29L19 28ZM28 28L28 29L29 29L29 28ZM50 28L50 29L51 29L51 28ZM34 29L34 30L33 30L33 31L35 31L35 32L33 32L33 33L35 33L35 32L37 32L37 30L38 30L38 29L37 29L37 30L36 30L36 31L35 31L35 29ZM3 30L3 32L2 32L2 33L1 33L1 34L3 34L3 35L4 35L4 36L3 36L3 37L4 37L4 38L3 38L3 39L4 39L4 40L3 40L3 41L4 41L4 40L5 40L5 37L6 37L6 38L7 38L7 37L6 37L6 36L7 36L7 35L8 35L8 34L9 34L9 36L8 36L8 39L10 39L10 38L11 38L11 39L12 39L12 38L11 38L11 37L12 37L12 35L11 35L11 36L10 36L10 34L9 34L9 33L8 33L8 34L7 34L7 33L6 33L6 32L9 32L9 31L6 31L6 32L5 32L5 31L4 31L4 30ZM3 32L3 33L4 33L4 34L5 34L5 36L4 36L4 37L5 37L5 36L6 36L6 35L7 35L7 34L5 34L5 32ZM19 32L19 33L21 33L21 34L20 34L20 35L19 35L19 36L18 36L18 37L17 37L17 38L18 38L18 39L20 39L20 38L21 38L21 36L22 36L22 35L21 35L21 34L23 34L23 35L24 35L24 36L25 36L25 37L26 37L26 38L27 38L27 37L28 37L28 36L27 36L27 37L26 37L26 34L25 34L25 32L24 32L24 34L23 34L23 32L22 32L22 33L21 33L21 32ZM13 33L13 34L14 34L14 35L15 35L15 36L16 36L16 35L18 35L18 34L15 34L15 33ZM43 33L43 35L44 35L44 33ZM27 34L27 35L28 35L28 34ZM48 34L48 36L47 36L47 37L45 37L45 36L43 36L43 37L42 37L42 38L41 38L41 39L42 39L42 40L44 40L44 39L46 39L46 40L45 40L45 41L47 41L47 39L48 39L48 38L47 38L47 37L48 37L48 36L50 36L50 37L51 37L51 36L50 36L50 34ZM20 35L20 36L19 36L19 38L20 38L20 36L21 36L21 35ZM9 36L9 38L10 38L10 36ZM14 37L14 38L15 38L15 37ZM22 37L22 38L24 38L24 37ZM31 37L31 38L32 38L32 39L31 39L31 40L32 40L32 42L33 42L33 40L34 40L34 39L33 39L33 38L34 38L34 37ZM44 37L44 38L42 38L42 39L44 39L44 38L45 38L45 37ZM52 37L52 38L53 38L53 37ZM1 38L1 40L2 40L2 38ZM29 38L29 39L30 39L30 38ZM6 39L6 40L7 40L7 39ZM21 39L21 40L23 40L23 39ZM24 39L24 41L25 41L25 43L26 43L26 41L28 41L28 42L29 42L29 41L30 41L30 40L27 40L27 39L26 39L26 41L25 41L25 39ZM35 39L35 41L34 41L34 43L35 43L35 44L34 44L34 45L33 45L33 46L34 46L34 45L35 45L35 46L38 46L38 44L37 44L37 43L36 43L36 39ZM55 40L55 41L56 41L56 40ZM51 41L51 42L52 42L52 41ZM23 43L23 44L24 44L24 43ZM12 44L12 45L13 45L13 44ZM35 44L35 45L37 45L37 44ZM50 45L50 46L48 46L48 48L49 48L49 47L50 47L50 46L51 46L51 45ZM1 46L1 47L2 47L2 46ZM45 46L45 47L46 47L46 46ZM22 47L22 48L23 48L23 47ZM39 48L39 49L38 49L38 50L37 50L37 52L38 52L38 53L40 53L40 52L41 52L41 53L42 53L42 52L43 52L43 51L44 51L44 53L43 53L43 54L44 54L44 53L45 53L45 52L46 52L46 51L44 51L44 50L45 50L45 49L44 49L44 50L42 50L42 49L43 49L43 48L42 48L42 49L41 49L41 50L40 50L40 51L39 51L39 49L40 49L40 48ZM27 49L27 52L30 52L30 49ZM49 49L49 52L52 52L52 49ZM28 50L28 51L29 51L29 50ZM41 50L41 52L42 52L42 50ZM50 50L50 51L51 51L51 50ZM54 50L54 51L55 51L55 50ZM38 51L38 52L39 52L39 51ZM47 53L47 54L48 54L48 53ZM24 54L24 55L25 55L25 54ZM38 54L38 56L40 56L40 57L41 57L41 56L42 56L42 55L40 55L40 54ZM13 55L13 56L14 56L14 55ZM30 55L30 56L31 56L31 55ZM43 55L43 56L44 56L44 55ZM56 55L56 56L57 56L57 55ZM52 56L52 57L53 57L53 56ZM0 0L0 7L7 7L7 0ZM1 1L1 6L6 6L6 1ZM2 2L2 5L5 5L5 2ZM50 0L50 7L57 7L57 0ZM51 1L51 6L56 6L56 1ZM52 2L52 5L55 5L55 2ZM0 50L0 57L7 57L7 50ZM1 51L1 56L6 56L6 51ZM2 52L2 55L5 55L5 52Z" fill="#000000"/></g></g></svg>
