<?xml version="1.0" encoding="UTF-8"?>
<svg xmlns="http://www.w3.org/2000/svg" version="1.1" width="180" height="180" viewBox="0 0 180 180"><rect x="0" y="0" width="180" height="180" fill="#ffffff"/><g transform="scale(3.673)"><g transform="translate(0,0)"><path fill-rule="evenodd" d="M9 0L9 2L8 2L8 3L9 3L9 4L10 4L10 7L9 7L9 6L8 6L8 8L4 8L4 9L5 9L5 11L7 11L7 10L6 10L6 9L8 9L8 10L10 10L10 9L9 9L9 8L10 8L10 7L11 7L11 4L13 4L13 3L12 3L12 2L13 2L13 1L14 1L14 2L16 2L16 3L17 3L17 4L16 4L16 5L17 5L17 6L16 6L16 7L15 7L15 6L14 6L14 5L15 5L15 3L14 3L14 5L13 5L13 6L12 6L12 7L13 7L13 6L14 6L14 7L15 7L15 8L14 8L14 9L13 9L13 10L11 10L11 11L12 11L12 12L11 12L11 14L9 14L9 13L7 13L7 12L3 12L3 11L4 11L4 10L2 10L2 13L0 13L0 15L1 15L1 17L0 17L0 18L2 18L2 19L5 19L5 17L8 17L8 18L6 18L6 19L9 19L9 20L5 20L5 21L3 21L3 20L2 20L2 21L3 21L3 23L2 23L2 22L0 22L0 24L1 24L1 26L4 26L4 28L5 28L5 27L9 27L9 26L10 26L10 28L11 28L11 29L10 29L10 30L9 30L9 29L8 29L8 28L6 28L6 29L7 29L7 30L6 30L6 31L5 31L5 29L3 29L3 30L2 30L2 29L1 29L1 27L0 27L0 29L1 29L1 30L0 30L0 34L1 34L1 37L2 37L2 36L3 36L3 37L4 37L4 36L5 36L5 39L7 39L7 40L6 40L6 41L8 41L8 45L9 45L9 46L8 46L8 49L9 49L9 48L10 48L10 49L12 49L12 48L13 48L13 49L15 49L15 48L16 48L16 47L17 47L17 48L18 48L18 49L19 49L19 48L20 48L20 47L21 47L21 48L22 48L22 49L25 49L25 48L26 48L26 47L25 47L25 45L26 45L26 46L28 46L28 47L27 47L27 49L29 49L29 48L30 48L30 49L31 49L31 48L32 48L32 49L33 49L33 48L34 48L34 49L35 49L35 48L34 48L34 47L31 47L31 48L30 48L30 47L29 47L29 46L30 46L30 45L31 45L31 46L33 46L33 45L35 45L35 46L36 46L36 49L39 49L39 48L40 48L40 49L41 49L41 48L42 48L42 47L43 47L43 48L44 48L44 49L45 49L45 48L46 48L46 47L47 47L47 49L49 49L49 48L48 48L48 47L47 47L47 46L46 46L46 45L45 45L45 44L46 44L46 43L48 43L48 44L47 44L47 45L48 45L48 46L49 46L49 45L48 45L48 44L49 44L49 40L48 40L48 39L49 39L49 38L48 38L48 36L49 36L49 33L47 33L47 34L46 34L46 33L45 33L45 34L44 34L44 33L43 33L43 34L39 34L39 35L41 35L41 36L40 36L40 37L39 37L39 36L38 36L38 35L37 35L37 34L38 34L38 33L37 33L37 32L39 32L39 31L37 31L37 30L38 30L38 29L39 29L39 30L40 30L40 31L41 31L41 32L40 32L40 33L41 33L41 32L44 32L44 31L45 31L45 32L46 32L46 31L45 31L45 30L48 30L48 31L47 31L47 32L49 32L49 30L48 30L48 29L49 29L49 28L47 28L47 29L45 29L45 30L44 30L44 29L43 29L43 28L44 28L44 27L45 27L45 28L46 28L46 27L47 27L47 26L48 26L48 27L49 27L49 25L47 25L47 24L49 24L49 20L48 20L48 19L49 19L49 16L48 16L48 15L49 15L49 9L47 9L47 8L46 8L46 9L45 9L45 10L44 10L44 9L43 9L43 8L41 8L41 10L42 10L42 9L43 9L43 10L44 10L44 11L43 11L43 12L42 12L42 11L41 11L41 12L42 12L42 13L41 13L41 14L42 14L42 13L43 13L43 14L44 14L44 15L43 15L43 16L42 16L42 15L41 15L41 16L42 16L42 17L41 17L41 18L40 18L40 19L37 19L37 18L38 18L38 17L40 17L40 15L39 15L39 14L40 14L40 11L38 11L38 10L37 10L37 9L39 9L39 5L37 5L37 4L38 4L38 3L37 3L37 4L36 4L36 3L35 3L35 2L39 2L39 4L40 4L40 3L41 3L41 0L40 0L40 1L35 1L35 0L34 0L34 1L33 1L33 0L32 0L32 1L31 1L31 0L24 0L24 1L23 1L23 0L22 0L22 1L21 1L21 0L16 0L16 1L14 1L14 0L13 0L13 1L12 1L12 0ZM10 1L10 2L9 2L9 3L10 3L10 4L11 4L11 2L12 2L12 1ZM16 1L16 2L17 2L17 3L18 3L18 4L17 4L17 5L20 5L20 4L19 4L19 3L20 3L20 2L21 2L21 3L22 3L22 4L21 4L21 5L22 5L22 4L23 4L23 3L22 3L22 2L21 2L21 1L20 1L20 2L19 2L19 1L18 1L18 2L17 2L17 1ZM24 1L24 4L25 4L25 2L26 2L26 1ZM28 1L28 2L27 2L27 4L29 4L29 1ZM30 1L30 2L31 2L31 3L30 3L30 4L31 4L31 5L32 5L32 6L31 6L31 7L30 7L30 6L29 6L29 5L27 5L27 7L28 7L28 6L29 6L29 11L30 11L30 12L31 12L31 13L29 13L29 15L30 15L30 16L31 16L31 17L24 17L24 15L27 15L27 16L28 16L28 14L27 14L27 13L26 13L26 12L28 12L28 10L27 10L27 9L25 9L25 14L23 14L23 13L24 13L24 12L23 12L23 11L24 11L24 10L23 10L23 9L22 9L22 10L21 10L21 8L22 8L22 6L21 6L21 8L19 8L19 9L20 9L20 10L19 10L19 11L18 11L18 10L17 10L17 7L18 7L18 6L17 6L17 7L16 7L16 8L15 8L15 9L16 9L16 10L17 10L17 11L14 11L14 10L13 10L13 13L12 13L12 14L13 14L13 15L11 15L11 16L9 16L9 15L8 15L8 16L9 16L9 18L11 18L11 16L13 16L13 17L12 17L12 19L10 19L10 20L9 20L9 22L10 22L10 20L11 20L11 22L12 22L12 21L13 21L13 17L14 17L14 16L15 16L15 18L14 18L14 19L15 19L15 20L14 20L14 22L13 22L13 23L12 23L12 24L11 24L11 25L12 25L12 28L13 28L13 29L11 29L11 30L14 30L14 31L12 31L12 33L14 33L14 32L15 32L15 34L14 34L14 35L18 35L18 36L17 36L17 37L16 37L16 36L14 36L14 38L13 38L13 37L12 37L12 38L13 38L13 39L12 39L12 40L11 40L11 39L10 39L10 40L9 40L9 38L10 38L10 37L6 37L6 38L8 38L8 40L9 40L9 41L10 41L10 42L9 42L9 44L10 44L10 43L13 43L13 46L12 46L12 44L11 44L11 46L9 46L9 47L10 47L10 48L12 48L12 47L14 47L14 48L15 48L15 47L16 47L16 46L17 46L17 47L19 47L19 46L17 46L17 45L18 45L18 44L19 44L19 45L20 45L20 46L21 46L21 47L22 47L22 48L25 48L25 47L22 47L22 44L21 44L21 43L22 43L22 42L21 42L21 41L22 41L22 40L23 40L23 39L24 39L24 40L26 40L26 39L24 39L24 38L28 38L28 39L27 39L27 40L28 40L28 39L29 39L29 40L31 40L31 41L30 41L30 42L29 42L29 41L27 41L27 42L29 42L29 43L30 43L30 44L29 44L29 45L28 45L28 44L27 44L27 45L28 45L28 46L29 46L29 45L30 45L30 44L31 44L31 43L32 43L32 42L33 42L33 43L34 43L34 44L35 44L35 45L36 45L36 46L37 46L37 47L38 47L38 48L39 48L39 47L40 47L40 48L41 48L41 47L42 47L42 46L43 46L43 47L44 47L44 48L45 48L45 47L46 47L46 46L45 46L45 47L44 47L44 46L43 46L43 45L41 45L41 47L40 47L40 46L39 46L39 45L40 45L40 44L39 44L39 43L40 43L40 42L39 42L39 41L40 41L40 40L41 40L41 39L42 39L42 38L43 38L43 39L44 39L44 40L45 40L45 41L46 41L46 42L45 42L45 43L46 43L46 42L47 42L47 39L48 39L48 38L47 38L47 35L46 35L46 34L45 34L45 35L44 35L44 34L43 34L43 35L44 35L44 36L43 36L43 37L42 37L42 36L41 36L41 37L40 37L40 38L39 38L39 37L38 37L38 36L37 36L37 37L36 37L36 36L35 36L35 35L36 35L36 34L37 34L37 33L36 33L36 30L37 30L37 29L38 29L38 28L39 28L39 29L40 29L40 30L41 30L41 31L42 31L42 30L43 30L43 31L44 31L44 30L43 30L43 29L42 29L42 28L41 28L41 29L40 29L40 28L39 28L39 25L40 25L40 24L39 24L39 23L40 23L40 22L43 22L43 21L44 21L44 22L45 22L45 23L46 23L46 24L45 24L45 25L46 25L46 26L45 26L45 27L46 27L46 26L47 26L47 25L46 25L46 24L47 24L47 23L48 23L48 22L45 22L45 21L48 21L48 20L47 20L47 19L48 19L48 16L47 16L47 15L48 15L48 14L47 14L47 13L48 13L48 12L47 12L47 11L48 11L48 10L47 10L47 9L46 9L46 10L45 10L45 11L46 11L46 12L45 12L45 13L44 13L44 12L43 12L43 13L44 13L44 14L45 14L45 15L46 15L46 16L45 16L45 17L44 17L44 16L43 16L43 17L42 17L42 18L41 18L41 19L40 19L40 22L39 22L39 20L37 20L37 21L36 21L36 20L35 20L35 19L36 19L36 18L37 18L37 17L38 17L38 16L37 16L37 15L38 15L38 14L39 14L39 12L37 12L37 13L36 13L36 12L35 12L35 11L37 11L37 10L35 10L35 9L36 9L36 8L37 8L37 7L38 7L38 6L37 6L37 5L36 5L36 4L35 4L35 3L34 3L34 2L33 2L33 1L32 1L32 2L31 2L31 1ZM18 2L18 3L19 3L19 2ZM32 2L32 3L33 3L33 4L32 4L32 5L33 5L33 6L32 6L32 7L31 7L31 8L30 8L30 9L31 9L31 10L32 10L32 11L31 11L31 12L32 12L32 13L31 13L31 14L34 14L34 13L35 13L35 14L36 14L36 15L35 15L35 16L34 16L34 15L31 15L31 16L32 16L32 17L31 17L31 18L32 18L32 21L31 21L31 22L32 22L32 23L31 23L31 24L30 24L30 25L31 25L31 26L32 26L32 27L31 27L31 28L30 28L30 27L29 27L29 26L28 26L28 25L29 25L29 22L28 22L28 21L30 21L30 20L31 20L31 19L30 19L30 18L29 18L29 20L27 20L27 19L26 19L26 18L24 18L24 17L23 17L23 18L22 18L22 15L18 15L18 14L20 14L20 13L21 13L21 14L22 14L22 13L21 13L21 12L22 12L22 11L23 11L23 10L22 10L22 11L21 11L21 10L20 10L20 11L19 11L19 12L18 12L18 11L17 11L17 12L16 12L16 14L17 14L17 15L16 15L16 16L17 16L17 18L18 18L18 19L16 19L16 20L15 20L15 22L14 22L14 23L13 23L13 24L12 24L12 25L13 25L13 26L14 26L14 27L16 27L16 30L17 30L17 31L16 31L16 32L17 32L17 31L19 31L19 32L18 32L18 33L17 33L17 34L18 34L18 35L19 35L19 36L18 36L18 37L17 37L17 38L16 38L16 37L15 37L15 38L14 38L14 39L13 39L13 40L14 40L14 41L13 41L13 42L14 42L14 43L15 43L15 44L14 44L14 45L15 45L15 46L14 46L14 47L15 47L15 46L16 46L16 45L15 45L15 44L16 44L16 43L17 43L17 44L18 44L18 43L19 43L19 44L20 44L20 43L21 43L21 42L20 42L20 41L19 41L19 40L18 40L18 39L20 39L20 40L22 40L22 39L23 39L23 38L24 38L24 36L23 36L23 35L25 35L25 36L26 36L26 37L27 37L27 36L28 36L28 37L29 37L29 38L30 38L30 37L29 37L29 36L30 36L30 35L27 35L27 34L28 34L28 33L31 33L31 34L32 34L32 36L31 36L31 37L33 37L33 36L34 36L34 35L33 35L33 34L34 34L34 33L35 33L35 34L36 34L36 33L35 33L35 32L34 32L34 30L32 30L32 29L33 29L33 26L34 26L34 25L35 25L35 26L36 26L36 27L35 27L35 28L34 28L34 29L35 29L35 30L36 30L36 29L37 29L37 28L38 28L38 25L39 25L39 24L38 24L38 23L37 23L37 22L38 22L38 21L37 21L37 22L36 22L36 21L35 21L35 20L34 20L34 19L33 19L33 18L34 18L34 17L35 17L35 18L36 18L36 17L37 17L37 16L36 16L36 15L37 15L37 14L38 14L38 13L37 13L37 14L36 14L36 13L35 13L35 12L34 12L34 11L33 11L33 10L34 10L34 9L35 9L35 8L36 8L36 7L37 7L37 6L36 6L36 5L35 5L35 4L34 4L34 3L33 3L33 2ZM33 4L33 5L34 5L34 4ZM23 5L23 8L26 8L26 5ZM19 6L19 7L20 7L20 6ZM24 6L24 7L25 7L25 6ZM33 6L33 7L34 7L34 8L33 8L33 9L32 9L32 8L31 8L31 9L32 9L32 10L33 10L33 9L34 9L34 8L35 8L35 7L36 7L36 6L35 6L35 7L34 7L34 6ZM40 6L40 7L41 7L41 6ZM0 8L0 9L3 9L3 8ZM11 8L11 9L12 9L12 8ZM0 10L0 12L1 12L1 10ZM46 10L46 11L47 11L47 10ZM9 11L9 12L10 12L10 11ZM20 11L20 12L19 12L19 13L20 13L20 12L21 12L21 11ZM14 12L14 13L15 13L15 12ZM17 12L17 13L18 13L18 12ZM33 12L33 13L34 13L34 12ZM2 13L2 17L3 17L3 18L4 18L4 16L7 16L7 15L6 15L6 14L7 14L7 13L6 13L6 14L5 14L5 13L4 13L4 14L5 14L5 15L3 15L3 13ZM45 13L45 14L46 14L46 15L47 15L47 14L46 14L46 13ZM14 14L14 15L13 15L13 16L14 16L14 15L15 15L15 14ZM17 15L17 16L18 16L18 15ZM19 16L19 17L20 17L20 18L19 18L19 19L18 19L18 20L17 20L17 21L16 21L16 22L17 22L17 21L18 21L18 20L19 20L19 21L20 21L20 22L21 22L21 23L20 23L20 24L19 24L19 25L20 25L20 26L19 26L19 27L18 27L18 26L17 26L17 23L16 23L16 24L15 24L15 23L14 23L14 24L13 24L13 25L14 25L14 24L15 24L15 26L16 26L16 27L18 27L18 28L17 28L17 29L18 29L18 28L19 28L19 27L20 27L20 30L19 30L19 31L20 31L20 32L19 32L19 33L20 33L20 34L19 34L19 35L20 35L20 38L21 38L21 37L22 37L22 38L23 38L23 37L22 37L22 36L21 36L21 35L20 35L20 34L21 34L21 33L24 33L24 34L26 34L26 33L27 33L27 32L28 32L28 30L30 30L30 31L29 31L29 32L31 32L31 33L32 33L32 34L33 34L33 33L34 33L34 32L33 32L33 33L32 33L32 32L31 32L31 29L32 29L32 28L31 28L31 29L28 29L28 28L27 28L27 29L28 29L28 30L27 30L27 32L26 32L26 31L25 31L25 30L26 30L26 28L23 28L23 27L22 27L22 28L21 28L21 27L20 27L20 26L21 26L21 25L22 25L22 24L21 24L21 23L22 23L22 22L23 22L23 21L24 21L24 20L25 20L25 19L24 19L24 18L23 18L23 19L22 19L22 18L21 18L21 16ZM33 16L33 17L32 17L32 18L33 18L33 17L34 17L34 16ZM35 16L35 17L36 17L36 16ZM46 16L46 17L45 17L45 18L44 18L44 17L43 17L43 18L44 18L44 19L43 19L43 20L42 20L42 19L41 19L41 20L42 20L42 21L43 21L43 20L44 20L44 21L45 21L45 20L46 20L46 19L47 19L47 18L46 18L46 17L47 17L47 16ZM20 18L20 19L19 19L19 20L20 20L20 21L21 21L21 20L22 20L22 19L21 19L21 18ZM45 18L45 19L46 19L46 18ZM0 19L0 21L1 21L1 19ZM20 19L20 20L21 20L21 19ZM23 19L23 20L24 20L24 19ZM33 20L33 21L32 21L32 22L34 22L34 24L33 24L33 25L32 25L32 24L31 24L31 25L32 25L32 26L33 26L33 25L34 25L34 24L35 24L35 25L36 25L36 26L37 26L37 25L38 25L38 24L37 24L37 25L36 25L36 24L35 24L35 23L36 23L36 22L35 22L35 21L34 21L34 20ZM5 21L5 22L7 22L7 21ZM25 21L25 22L27 22L27 23L28 23L28 22L27 22L27 21ZM18 22L18 23L19 23L19 22ZM1 23L1 24L2 24L2 25L4 25L4 23L3 23L3 24L2 24L2 23ZM5 23L5 26L8 26L8 23ZM9 23L9 25L10 25L10 23ZM23 23L23 26L26 26L26 23ZM41 23L41 26L44 26L44 23ZM6 24L6 25L7 25L7 24ZM24 24L24 25L25 25L25 24ZM42 24L42 25L43 25L43 24ZM27 26L27 27L28 27L28 26ZM14 28L14 29L15 29L15 28ZM22 28L22 29L21 29L21 31L23 31L23 32L24 32L24 33L26 33L26 32L25 32L25 31L23 31L23 30L24 30L24 29L23 29L23 28ZM35 28L35 29L36 29L36 28ZM22 29L22 30L23 30L23 29ZM41 29L41 30L42 30L42 29ZM1 30L1 31L2 31L2 32L1 32L1 34L2 34L2 35L3 35L3 36L4 36L4 35L5 35L5 36L7 36L7 35L5 35L5 34L8 34L8 35L9 35L9 36L11 36L11 33L9 33L9 32L11 32L11 31L9 31L9 30L7 30L7 31L6 31L6 32L5 32L5 33L4 33L4 30L3 30L3 31L2 31L2 30ZM8 31L8 32L6 32L6 33L8 33L8 34L9 34L9 35L10 35L10 34L9 34L9 33L8 33L8 32L9 32L9 31ZM3 33L3 34L4 34L4 33ZM45 35L45 36L46 36L46 35ZM35 37L35 38L36 38L36 41L35 41L35 40L34 40L34 39L33 39L33 38L31 38L31 40L32 40L32 41L31 41L31 42L32 42L32 41L33 41L33 42L34 42L34 41L35 41L35 42L36 42L36 43L35 43L35 44L36 44L36 45L37 45L37 46L38 46L38 45L39 45L39 44L38 44L38 41L39 41L39 40L38 40L38 39L37 39L37 38L38 38L38 37L37 37L37 38L36 38L36 37ZM41 37L41 38L42 38L42 37ZM43 37L43 38L44 38L44 39L45 39L45 40L46 40L46 39L47 39L47 38L46 38L46 37L45 37L45 38L44 38L44 37ZM1 38L1 40L0 40L0 41L3 41L3 40L4 40L4 39L2 39L2 38ZM15 38L15 39L14 39L14 40L15 40L15 39L16 39L16 41L15 41L15 43L16 43L16 42L17 42L17 43L18 43L18 40L17 40L17 39L18 39L18 38L17 38L17 39L16 39L16 38ZM45 38L45 39L46 39L46 38ZM33 40L33 41L34 41L34 40ZM37 40L37 41L36 41L36 42L37 42L37 41L38 41L38 40ZM23 41L23 44L26 44L26 41ZM41 41L41 44L44 44L44 41ZM19 42L19 43L20 43L20 42ZM24 42L24 43L25 43L25 42ZM42 42L42 43L43 43L43 42ZM37 44L37 45L38 45L38 44ZM0 0L0 7L7 7L7 0ZM1 1L1 6L6 6L6 1ZM2 2L2 5L5 5L5 2ZM42 0L42 7L49 7L49 0ZM43 1L43 6L48 6L48 1ZM44 2L44 5L47 5L47 2ZM0 42L0 49L7 49L7 42ZM1 43L1 48L6 48L6 43ZM2 44L2 47L5 47L5 44Z" fill="#000000"/></g></g></svg>
