<?xml version="1.0" encoding="UTF-8"?>
<svg xmlns="http://www.w3.org/2000/svg" version="1.1" width="170" height="170" viewBox="0 0 170 170"><rect x="0" y="0" width="170" height="170" fill="#ffffff"/><g transform="scale(2.787)"><g transform="translate(0,0)"><path fill-rule="evenodd" d="M8 0L8 1L9 1L9 0ZM12 0L12 2L11 2L11 1L10 1L10 3L11 3L11 4L10 4L10 5L9 5L9 2L8 2L8 5L9 5L9 6L8 6L8 7L9 7L9 6L10 6L10 7L11 7L11 6L12 6L12 8L11 8L11 9L10 9L10 8L8 8L8 9L7 9L7 8L6 8L6 9L4 9L4 8L0 8L0 9L2 9L2 10L3 10L3 11L2 11L2 12L0 12L0 13L2 13L2 14L1 14L1 16L0 16L0 18L1 18L1 19L0 19L0 20L1 20L1 21L0 21L0 25L1 25L1 26L0 26L0 28L2 28L2 27L4 27L4 28L3 28L3 29L4 29L4 31L3 31L3 32L0 32L0 33L3 33L3 32L4 32L4 33L9 33L9 35L8 35L8 34L6 34L6 35L7 35L7 36L4 36L4 38L3 38L3 39L2 39L2 40L0 40L0 41L1 41L1 42L2 42L2 44L3 44L3 46L4 46L4 47L7 47L7 48L5 48L5 49L4 49L4 48L1 48L1 47L0 47L0 49L1 49L1 50L2 50L2 51L0 51L0 53L4 53L4 52L5 52L5 51L7 51L7 52L6 52L6 53L8 53L8 54L9 54L9 57L8 57L8 61L9 61L9 60L10 60L10 58L11 58L11 59L12 59L12 60L11 60L11 61L12 61L12 60L13 60L13 61L17 61L17 60L15 60L15 59L14 59L14 58L16 58L16 54L17 54L17 57L18 57L18 58L17 58L17 59L18 59L18 58L19 58L19 60L18 60L18 61L19 61L19 60L20 60L20 61L22 61L22 60L23 60L23 59L24 59L24 58L26 58L26 59L28 59L28 60L29 60L29 59L30 59L30 57L31 57L31 58L32 58L32 57L33 57L33 56L35 56L35 55L36 55L36 56L37 56L37 57L36 57L36 58L37 58L37 60L36 60L36 59L35 59L35 58L33 58L33 59L31 59L31 60L30 60L30 61L33 61L33 59L35 59L35 60L36 60L36 61L38 61L38 58L37 58L37 57L38 57L38 56L40 56L40 57L39 57L39 58L40 58L40 57L41 57L41 56L42 56L42 55L40 55L40 54L41 54L41 53L42 53L42 52L43 52L43 51L44 51L44 53L43 53L43 54L44 54L44 53L45 53L45 52L46 52L46 51L44 51L44 50L45 50L45 49L46 49L46 48L48 48L48 49L47 49L47 50L48 50L48 49L49 49L49 50L50 50L50 52L49 52L49 53L48 53L48 51L47 51L47 53L46 53L46 54L45 54L45 55L46 55L46 57L48 57L48 58L49 58L49 57L51 57L51 58L53 58L53 59L52 59L52 60L53 60L53 59L54 59L54 58L55 58L55 57L56 57L56 59L55 59L55 60L56 60L56 59L57 59L57 61L61 61L61 60L59 60L59 59L60 59L60 58L61 58L61 53L60 53L60 52L61 52L61 51L60 51L60 52L58 52L58 51L59 51L59 50L58 50L58 51L57 51L57 52L52 52L52 54L50 54L50 53L51 53L51 51L53 51L53 50L54 50L54 49L55 49L55 48L56 48L56 50L57 50L57 49L59 49L59 47L60 47L60 48L61 48L61 47L60 47L60 46L59 46L59 47L58 47L58 48L56 48L56 47L57 47L57 46L58 46L58 45L57 45L57 44L58 44L58 43L59 43L59 42L60 42L60 43L61 43L61 42L60 42L60 41L59 41L59 40L61 40L61 39L59 39L59 38L58 38L58 39L57 39L57 40L58 40L58 41L57 41L57 42L58 42L58 43L56 43L56 41L54 41L54 40L53 40L53 41L52 41L52 42L50 42L50 41L51 41L51 40L50 40L50 39L51 39L51 37L52 37L52 36L53 36L53 35L54 35L54 37L53 37L53 38L54 38L54 37L55 37L55 35L56 35L56 38L55 38L55 39L56 39L56 38L57 38L57 35L58 35L58 37L59 37L59 35L60 35L60 34L61 34L61 33L60 33L60 34L59 34L59 33L58 33L58 34L55 34L55 33L57 33L57 31L58 31L58 30L60 30L60 31L59 31L59 32L60 32L60 31L61 31L61 29L60 29L60 27L59 27L59 28L58 28L58 30L57 30L57 27L56 27L56 26L57 26L57 25L58 25L58 26L60 26L60 25L59 25L59 23L60 23L60 24L61 24L61 23L60 23L60 22L59 22L59 23L58 23L58 24L57 24L57 22L58 22L58 21L57 21L57 22L56 22L56 23L55 23L55 21L56 21L56 19L55 19L55 21L54 21L54 23L55 23L55 24L54 24L54 25L53 25L53 23L52 23L52 24L51 24L51 23L50 23L50 22L49 22L49 21L51 21L51 22L52 22L52 20L49 20L49 21L47 21L47 22L46 22L46 21L45 21L45 22L44 22L44 23L43 23L43 21L44 21L44 20L43 20L43 21L42 21L42 22L41 22L41 21L40 21L40 20L39 20L39 18L38 18L38 20L39 20L39 24L38 24L38 21L36 21L36 20L35 20L35 17L36 17L36 18L37 18L37 17L40 17L40 18L41 18L41 20L42 20L42 18L41 18L41 17L40 17L40 16L41 16L41 14L42 14L42 16L43 16L43 15L44 15L44 17L43 17L43 18L44 18L44 19L46 19L46 20L48 20L48 19L49 19L49 17L48 17L48 16L49 16L49 15L51 15L51 16L50 16L50 17L51 17L51 16L52 16L52 18L51 18L51 19L52 19L52 18L53 18L53 17L54 17L54 16L55 16L55 15L56 15L56 17L55 17L55 18L56 18L56 17L57 17L57 16L58 16L58 19L59 19L59 20L60 20L60 21L61 21L61 18L60 18L60 19L59 19L59 17L60 17L60 16L58 16L58 15L56 15L56 14L54 14L54 13L53 13L53 11L55 11L55 9L54 9L54 8L53 8L53 9L54 9L54 10L53 10L53 11L52 11L52 13L51 13L51 11L49 11L49 12L48 12L48 13L47 13L47 12L45 12L45 10L44 10L44 11L43 11L43 9L44 9L44 8L43 8L43 9L42 9L42 10L41 10L41 8L42 8L42 7L43 7L43 6L44 6L44 7L45 7L45 9L46 9L46 7L47 7L47 8L49 8L49 9L48 9L48 10L50 10L50 8L51 8L51 5L52 5L52 4L53 4L53 0L51 0L51 2L49 2L49 1L47 1L47 2L49 2L49 3L48 3L48 4L47 4L47 3L45 3L45 1L46 1L46 0L45 0L45 1L44 1L44 2L43 2L43 0L42 0L42 2L43 2L43 3L42 3L42 4L41 4L41 5L40 5L40 3L41 3L41 2L38 2L38 3L39 3L39 4L37 4L37 2L36 2L36 1L38 1L38 0L36 0L36 1L34 1L34 0L32 0L32 2L31 2L31 3L32 3L32 2L34 2L34 3L35 3L35 5L33 5L33 4L29 4L29 1L31 1L31 0L29 0L29 1L27 1L27 0L26 0L26 2L25 2L25 3L26 3L26 2L28 2L28 3L27 3L27 5L26 5L26 7L27 7L27 8L26 8L26 9L27 9L27 11L28 11L28 12L29 12L29 11L30 11L30 10L32 10L32 11L34 11L34 12L33 12L33 14L34 14L34 13L35 13L35 15L32 15L32 14L31 14L31 13L30 13L30 15L29 15L29 17L28 17L28 19L26 19L26 20L25 20L25 19L24 19L24 21L23 21L23 18L26 18L26 17L27 17L27 16L28 16L28 15L27 15L27 16L26 16L26 15L25 15L25 14L24 14L24 13L26 13L26 12L24 12L24 13L22 13L22 14L21 14L21 11L22 11L22 12L23 12L23 11L24 11L24 10L25 10L25 11L26 11L26 10L25 10L25 8L24 8L24 7L25 7L25 6L24 6L24 5L22 5L22 7L23 7L23 8L22 8L22 9L20 9L20 8L21 8L21 6L20 6L20 5L21 5L21 4L22 4L22 3L20 3L20 2L21 2L21 1L20 1L20 0L16 0L16 2L14 2L14 1L13 1L13 0ZM24 0L24 1L25 1L25 0ZM39 0L39 1L41 1L41 0ZM18 1L18 2L16 2L16 3L19 3L19 5L17 5L17 4L15 4L15 3L14 3L14 2L12 2L12 3L14 3L14 4L11 4L11 5L13 5L13 7L14 7L14 6L15 6L15 7L16 7L16 6L17 6L17 8L16 8L16 11L14 11L14 10L13 10L13 8L12 8L12 9L11 9L11 11L10 11L10 9L9 9L9 11L8 11L8 10L7 10L7 9L6 9L6 10L7 10L7 11L6 11L6 12L7 12L7 13L6 13L6 14L5 14L5 13L4 13L4 12L5 12L5 10L4 10L4 12L3 12L3 14L2 14L2 19L1 19L1 20L2 20L2 21L4 21L4 20L3 20L3 19L4 19L4 18L7 18L7 19L5 19L5 21L6 21L6 22L7 22L7 23L5 23L5 22L4 22L4 24L3 24L3 22L2 22L2 24L1 24L1 25L2 25L2 24L3 24L3 25L4 25L4 27L5 27L5 26L7 26L7 25L6 25L6 24L7 24L7 23L8 23L8 24L9 24L9 23L11 23L11 24L10 24L10 25L9 25L9 26L8 26L8 27L9 27L9 26L10 26L10 25L11 25L11 26L12 26L12 27L14 27L14 28L15 28L15 27L16 27L16 29L17 29L17 30L16 30L16 31L15 31L15 29L13 29L13 28L11 28L11 30L9 30L9 32L10 32L10 33L11 33L11 32L12 32L12 30L13 30L13 31L14 31L14 32L13 32L13 33L14 33L14 34L13 34L13 35L14 35L14 34L15 34L15 35L16 35L16 36L18 36L18 35L20 35L20 36L19 36L19 38L17 38L17 37L16 37L16 38L17 38L17 39L19 39L19 40L18 40L18 42L17 42L17 43L18 43L18 44L16 44L16 43L14 43L14 42L16 42L16 40L15 40L15 39L14 39L14 40L13 40L13 39L11 39L11 38L14 38L14 37L15 37L15 36L14 36L14 37L10 37L10 36L12 36L12 34L10 34L10 35L9 35L9 40L8 40L8 39L6 39L6 38L8 38L8 36L7 36L7 37L5 37L5 39L3 39L3 42L4 42L4 40L5 40L5 43L3 43L3 44L4 44L4 45L6 45L6 46L7 46L7 47L8 47L8 46L7 46L7 45L9 45L9 47L10 47L10 46L11 46L11 47L12 47L12 51L11 51L11 48L9 48L9 49L10 49L10 52L9 52L9 51L8 51L8 50L7 50L7 49L5 49L5 50L7 50L7 51L8 51L8 53L10 53L10 56L11 56L11 58L13 58L13 57L15 57L15 56L14 56L14 53L16 53L16 52L17 52L17 53L20 53L20 54L18 54L18 55L19 55L19 58L21 58L21 57L22 57L22 56L23 56L23 58L22 58L22 59L20 59L20 60L22 60L22 59L23 59L23 58L24 58L24 56L25 56L25 55L28 55L28 52L33 52L33 53L34 53L34 55L35 55L35 53L34 53L34 51L36 51L36 54L37 54L37 56L38 56L38 54L40 54L40 53L41 53L41 52L42 52L42 51L41 51L41 52L39 52L39 51L40 51L40 50L41 50L41 46L42 46L42 45L43 45L43 48L44 48L44 49L45 49L45 48L46 48L46 46L48 46L48 47L50 47L50 49L51 49L51 50L52 50L52 49L51 49L51 47L53 47L53 49L54 49L54 47L56 47L56 46L57 46L57 45L55 45L55 44L54 44L54 41L53 41L53 42L52 42L52 44L51 44L51 43L50 43L50 44L51 44L51 45L50 45L50 46L48 46L48 45L49 45L49 44L48 44L48 43L45 43L45 41L44 41L44 39L46 39L46 40L48 40L48 42L49 42L49 41L50 41L50 40L49 40L49 39L50 39L50 37L51 37L51 35L53 35L53 34L54 34L54 35L55 35L55 34L54 34L54 33L52 33L52 31L51 31L51 32L50 32L50 34L49 34L49 35L50 35L50 36L49 36L49 37L48 37L48 36L46 36L46 34L48 34L48 33L49 33L49 32L48 32L48 30L47 30L47 31L45 31L45 30L46 30L46 29L47 29L47 28L48 28L48 29L49 29L49 31L50 31L50 30L51 30L51 29L52 29L52 28L54 28L54 26L56 26L56 25L57 25L57 24L55 24L55 25L54 25L54 26L53 26L53 25L51 25L51 24L50 24L50 25L51 25L51 27L52 27L52 28L50 28L50 29L49 29L49 25L48 25L48 26L47 26L47 24L48 24L48 23L47 23L47 24L46 24L46 22L45 22L45 24L43 24L43 23L40 23L40 29L38 29L38 31L37 31L37 32L36 32L36 30L37 30L37 28L39 28L39 27L38 27L38 24L37 24L37 22L36 22L36 21L35 21L35 20L33 20L33 19L34 19L34 17L35 17L35 16L34 16L34 17L33 17L33 16L32 16L32 15L30 15L30 17L33 17L33 18L32 18L32 19L30 19L30 20L29 20L29 19L28 19L28 22L27 22L27 23L26 23L26 21L27 21L27 20L26 20L26 21L25 21L25 22L24 22L24 24L22 24L22 23L23 23L23 22L21 22L21 21L22 21L22 19L21 19L21 18L22 18L22 17L21 17L21 16L20 16L20 15L21 15L21 14L20 14L20 15L19 15L19 14L17 14L17 13L18 13L18 12L20 12L20 11L21 11L21 10L18 10L18 11L17 11L17 9L19 9L19 8L20 8L20 6L19 6L19 5L20 5L20 3L19 3L19 2L20 2L20 1ZM22 1L22 2L23 2L23 1ZM23 3L23 4L24 4L24 3ZM43 3L43 4L42 4L42 5L41 5L41 7L42 7L42 5L44 5L44 6L45 6L45 7L46 7L46 5L47 5L47 7L48 7L48 5L47 5L47 4L45 4L45 3ZM49 3L49 4L50 4L50 3ZM51 3L51 4L52 4L52 3ZM36 4L36 5L35 5L35 7L34 7L34 6L33 6L33 8L35 8L35 7L36 7L36 6L37 6L37 8L36 8L36 9L32 9L32 10L36 10L36 11L35 11L35 12L36 12L36 13L38 13L38 15L36 15L36 17L37 17L37 16L40 16L40 14L39 14L39 13L42 13L42 14L44 14L44 15L47 15L47 16L48 16L48 15L49 15L49 13L50 13L50 12L49 12L49 13L48 13L48 14L47 14L47 13L45 13L45 12L43 12L43 11L41 11L41 10L39 10L39 9L40 9L40 8L38 8L38 6L37 6L37 4ZM44 4L44 5L45 5L45 4ZM27 5L27 7L28 7L28 5ZM29 5L29 8L32 8L32 5ZM39 5L39 7L40 7L40 5ZM49 5L49 8L50 8L50 5ZM18 6L18 7L19 7L19 6ZM23 6L23 7L24 7L24 6ZM30 6L30 7L31 7L31 6ZM52 6L52 7L53 7L53 6ZM14 8L14 9L15 9L15 8ZM23 8L23 10L22 10L22 11L23 11L23 10L24 10L24 8ZM27 8L27 9L28 9L28 11L29 11L29 10L30 10L30 9L28 9L28 8ZM37 8L37 9L38 9L38 8ZM56 8L56 9L57 9L57 10L56 10L56 12L58 12L58 14L59 14L59 11L60 11L60 12L61 12L61 11L60 11L60 10L59 10L59 11L57 11L57 10L58 10L58 9L59 9L59 8ZM60 8L60 9L61 9L61 8ZM51 9L51 10L52 10L52 9ZM0 10L0 11L1 11L1 10ZM37 10L37 11L38 11L38 13L39 13L39 11L38 11L38 10ZM46 10L46 11L47 11L47 10ZM9 11L9 13L7 13L7 14L6 14L6 15L7 15L7 14L8 14L8 15L9 15L9 17L8 17L8 16L5 16L5 14L3 14L3 18L4 18L4 16L5 16L5 17L8 17L8 19L7 19L7 20L6 20L6 21L8 21L8 22L9 22L9 21L8 21L8 20L10 20L10 21L11 21L11 23L13 23L13 24L11 24L11 25L12 25L12 26L14 26L14 27L15 27L15 26L14 26L14 24L16 24L16 25L17 25L17 26L16 26L16 27L17 27L17 26L18 26L18 24L19 24L19 25L20 25L20 26L21 26L21 27L23 27L23 26L24 26L24 25L22 25L22 24L21 24L21 25L20 25L20 23L21 23L21 22L20 22L20 23L19 23L19 22L18 22L18 20L17 20L17 22L15 22L15 23L13 23L13 22L12 22L12 21L11 21L11 20L10 20L10 19L12 19L12 17L13 17L13 16L14 16L14 17L16 17L16 18L20 18L20 17L16 17L16 16L17 16L17 15L15 15L15 16L14 16L14 13L13 13L13 12L14 12L14 11L12 11L12 12L10 12L10 11ZM16 11L16 12L15 12L15 14L16 14L16 13L17 13L17 11ZM42 12L42 13L43 13L43 12ZM10 13L10 16L13 16L13 15L11 15L11 14L12 14L12 13ZM44 13L44 14L45 14L45 13ZM52 13L52 14L51 14L51 15L52 15L52 16L54 16L54 14L53 14L53 13ZM60 13L60 14L61 14L61 13ZM22 14L22 15L23 15L23 14ZM52 14L52 15L53 15L53 14ZM18 15L18 16L19 16L19 15ZM24 15L24 17L26 17L26 16L25 16L25 15ZM45 16L45 18L46 18L46 16ZM9 17L9 18L10 18L10 17ZM47 17L47 18L48 18L48 17ZM13 18L13 19L14 19L14 21L15 21L15 19L14 19L14 18ZM20 19L20 20L19 20L19 21L21 21L21 19ZM53 19L53 20L54 20L54 19ZM30 20L30 22L28 22L28 23L27 23L27 24L30 24L30 22L31 22L31 21L32 21L32 23L31 23L31 24L32 24L32 23L33 23L33 21L32 21L32 20ZM34 21L34 22L35 22L35 23L34 23L34 24L33 24L33 25L32 25L32 28L31 28L31 27L30 27L30 28L29 28L29 26L30 26L30 25L28 25L28 29L27 29L27 25L25 25L25 26L26 26L26 28L25 28L25 27L24 27L24 28L23 28L23 32L22 32L22 30L21 30L21 31L20 31L20 30L19 30L19 29L20 29L20 28L19 28L19 27L18 27L18 28L17 28L17 29L18 29L18 31L17 31L17 32L16 32L16 35L18 35L18 34L17 34L17 33L18 33L18 32L19 32L19 33L21 33L21 32L22 32L22 33L24 33L24 34L25 34L25 33L26 33L26 32L25 32L25 30L26 30L26 31L27 31L27 32L28 32L28 33L31 33L31 34L32 34L32 35L31 35L31 36L30 36L30 34L29 34L29 35L28 35L28 36L27 36L27 38L26 38L26 40L25 40L25 39L24 39L24 40L23 40L23 41L25 41L25 42L24 42L24 43L23 43L23 44L20 44L20 43L22 43L22 42L21 42L21 40L22 40L22 39L23 39L23 37L22 37L22 36L23 36L23 35L22 35L22 36L20 36L20 38L19 38L19 39L20 39L20 38L21 38L21 37L22 37L22 39L21 39L21 40L20 40L20 43L19 43L19 42L18 42L18 43L19 43L19 46L17 46L17 47L16 47L16 48L17 48L17 49L18 49L18 50L19 50L19 51L17 51L17 50L15 50L15 46L16 46L16 45L15 45L15 46L14 46L14 44L13 44L13 42L11 42L11 41L9 41L9 42L6 42L6 43L5 43L5 44L6 44L6 45L7 45L7 44L6 44L6 43L9 43L9 42L10 42L10 44L9 44L9 45L12 45L12 46L14 46L14 50L13 50L13 51L12 51L12 52L13 52L13 53L12 53L12 55L13 55L13 53L14 53L14 52L16 52L16 51L17 51L17 52L19 52L19 51L20 51L20 50L21 50L21 48L20 48L20 50L19 50L19 48L18 48L18 47L20 47L20 45L21 45L21 47L23 47L23 48L22 48L22 49L23 49L23 48L24 48L24 51L23 51L23 50L22 50L22 51L21 51L21 52L22 52L22 51L23 51L23 53L25 53L25 54L24 54L24 55L23 55L23 56L24 56L24 55L25 55L25 54L27 54L27 52L28 52L28 51L32 51L32 50L33 50L33 51L34 51L34 50L33 50L33 49L34 49L34 48L36 48L36 49L35 49L35 50L36 50L36 49L37 49L37 50L38 50L38 51L39 51L39 49L40 49L40 48L39 48L39 49L38 49L38 48L37 48L37 46L38 46L38 47L39 47L39 46L40 46L40 45L41 45L41 44L42 44L42 43L40 43L40 42L41 42L41 41L42 41L42 40L43 40L43 39L44 39L44 38L45 38L45 37L46 37L46 36L45 36L45 34L46 34L46 33L47 33L47 32L46 32L46 33L45 33L45 34L43 34L43 33L44 33L44 31L43 31L43 32L42 32L42 34L41 34L41 35L40 35L40 36L38 36L38 35L36 35L36 34L38 34L38 33L39 33L39 34L40 34L40 33L41 33L41 31L40 31L40 30L41 30L41 29L42 29L42 28L43 28L43 27L44 27L44 29L43 29L43 30L44 30L44 29L45 29L45 28L46 28L46 27L44 27L44 26L46 26L46 25L44 25L44 26L42 26L42 25L43 25L43 24L42 24L42 25L41 25L41 26L42 26L42 28L41 28L41 29L40 29L40 30L39 30L39 32L37 32L37 33L36 33L36 34L34 34L34 33L33 33L33 31L34 31L34 32L35 32L35 30L36 30L36 28L37 28L37 27L35 27L35 29L34 29L34 28L33 28L33 26L34 26L34 25L35 25L35 26L36 26L36 25L37 25L37 24L35 24L35 23L36 23L36 22L35 22L35 21ZM17 22L17 23L16 23L16 24L18 24L18 22ZM4 24L4 25L5 25L5 24ZM21 25L21 26L22 26L22 25ZM52 26L52 27L53 27L53 26ZM6 27L6 28L7 28L7 27ZM9 28L9 29L10 29L10 28ZM18 28L18 29L19 29L19 28ZM1 29L1 30L2 30L2 29ZM5 29L5 32L8 32L8 29ZM24 29L24 30L25 30L25 29ZM29 29L29 32L32 32L32 29ZM53 29L53 32L56 32L56 29ZM6 30L6 31L7 31L7 30ZM27 30L27 31L28 31L28 30ZM30 30L30 31L31 31L31 30ZM54 30L54 31L55 31L55 30ZM10 31L10 32L11 32L11 31ZM24 32L24 33L25 33L25 32ZM51 33L51 34L52 34L52 33ZM0 34L0 36L1 36L1 38L0 38L0 39L1 39L1 38L2 38L2 36L3 36L3 34ZM20 34L20 35L21 35L21 34ZM26 34L26 35L25 35L25 36L24 36L24 37L25 37L25 36L26 36L26 35L27 35L27 34ZM58 34L58 35L59 35L59 34ZM1 35L1 36L2 36L2 35ZM32 35L32 36L31 36L31 37L30 37L30 36L29 36L29 38L27 38L27 39L28 39L28 40L26 40L26 42L25 42L25 43L24 43L24 44L23 44L23 45L24 45L24 44L25 44L25 46L24 46L24 48L25 48L25 50L26 50L26 51L24 51L24 52L25 52L25 53L26 53L26 52L27 52L27 51L28 51L28 50L29 50L29 49L30 49L30 48L31 48L31 46L32 46L32 45L33 45L33 47L32 47L32 49L31 49L31 50L32 50L32 49L33 49L33 47L34 47L34 46L35 46L35 47L36 47L36 46L37 46L37 45L33 45L33 44L32 44L32 42L31 42L31 44L30 44L30 41L32 41L32 40L36 40L36 41L35 41L35 43L36 43L36 44L37 44L37 43L38 43L38 44L39 44L39 45L40 45L40 43L38 43L38 42L39 42L39 41L41 41L41 40L42 40L42 38L44 38L44 37L45 37L45 36L43 36L43 35L41 35L41 36L40 36L40 37L39 37L39 39L38 39L38 38L37 38L37 39L36 39L36 38L35 38L35 37L36 37L36 35L35 35L35 36L34 36L34 35ZM32 36L32 37L33 37L33 36ZM42 36L42 37L41 37L41 38L40 38L40 39L39 39L39 40L38 40L38 39L37 39L37 40L38 40L38 41L36 41L36 42L38 42L38 41L39 41L39 40L41 40L41 38L42 38L42 37L43 37L43 36ZM60 36L60 38L61 38L61 36ZM47 37L47 39L48 39L48 37ZM32 38L32 39L30 39L30 40L29 40L29 41L30 41L30 40L32 40L32 39L35 39L35 38ZM58 39L58 40L59 40L59 39ZM6 40L6 41L8 41L8 40ZM12 40L12 41L13 41L13 40ZM14 40L14 41L15 41L15 40ZM27 41L27 42L26 42L26 43L25 43L25 44L27 44L27 43L28 43L28 44L29 44L29 45L30 45L30 44L29 44L29 43L28 43L28 41ZM43 41L43 42L44 42L44 41ZM58 41L58 42L59 42L59 41ZM0 43L0 44L1 44L1 43ZM12 44L12 45L13 45L13 44ZM43 44L43 45L44 45L44 44ZM46 44L46 45L45 45L45 46L44 46L44 48L45 48L45 46L46 46L46 45L47 45L47 44ZM52 44L52 45L51 45L51 46L52 46L52 45L53 45L53 44ZM26 45L26 46L28 46L28 48L27 48L27 47L25 47L25 48L27 48L27 50L28 50L28 48L29 48L29 47L30 47L30 46L28 46L28 45ZM54 45L54 46L53 46L53 47L54 47L54 46L55 46L55 45ZM42 49L42 50L43 50L43 49ZM60 49L60 50L61 50L61 49ZM3 51L3 52L4 52L4 51ZM13 51L13 52L14 52L14 51ZM10 52L10 53L11 53L11 52ZM37 52L37 53L38 53L38 52ZM29 53L29 56L32 56L32 53ZM47 53L47 55L49 55L49 56L48 56L48 57L49 57L49 56L51 56L51 57L52 57L52 55L49 55L49 54L48 54L48 53ZM53 53L53 56L56 56L56 53ZM57 53L57 54L58 54L58 55L57 55L57 59L58 59L58 57L59 57L59 58L60 58L60 57L59 57L59 54L60 54L60 53L59 53L59 54L58 54L58 53ZM21 54L21 55L20 55L20 56L21 56L21 55L22 55L22 54ZM30 54L30 55L31 55L31 54ZM54 54L54 55L55 55L55 54ZM12 56L12 57L13 57L13 56ZM26 56L26 58L27 58L27 57L28 57L28 58L29 58L29 57L28 57L28 56ZM43 56L43 57L42 57L42 58L41 58L41 59L43 59L43 60L42 60L42 61L43 61L43 60L45 60L45 61L46 61L46 60L47 60L47 58L46 58L46 60L45 60L45 58L44 58L44 59L43 59L43 57L44 57L44 56ZM9 57L9 58L10 58L10 57ZM53 57L53 58L54 58L54 57ZM48 59L48 61L50 61L50 60L49 60L49 59ZM25 60L25 61L26 61L26 60ZM39 60L39 61L40 61L40 60ZM0 0L0 7L7 7L7 0ZM1 1L1 6L6 6L6 1ZM2 2L2 5L5 5L5 2ZM54 0L54 7L61 7L61 0ZM55 1L55 6L60 6L60 1ZM56 2L56 5L59 5L59 2ZM0 54L0 61L7 61L7 54ZM1 55L1 60L6 60L6 55ZM2 56L2 59L5 59L5 56Z" fill="#000000"/></g></g></svg>
