<?xml version="1.0" encoding="UTF-8"?>
<svg xmlns="http://www.w3.org/2000/svg" version="1.1" width="180" height="180" viewBox="0 0 180 180"><rect x="0" y="0" width="180" height="180" fill="#ffffff"/><g transform="scale(3.158)"><g transform="translate(0,0)"><path fill-rule="evenodd" d="M8 0L8 1L9 1L9 0ZM10 0L10 2L11 2L11 3L12 3L12 4L11 4L11 5L10 5L10 4L9 4L9 2L8 2L8 5L10 5L10 7L9 7L9 6L8 6L8 7L9 7L9 8L8 8L8 10L6 10L6 11L5 11L5 10L4 10L4 8L0 8L0 12L1 12L1 13L2 13L2 15L3 15L3 16L6 16L6 17L8 17L8 15L11 15L11 14L12 14L12 13L13 13L13 15L14 15L14 17L13 17L13 18L11 18L11 19L10 19L10 20L8 20L8 19L9 19L9 18L6 18L6 19L5 19L5 18L4 18L4 17L2 17L2 16L0 16L0 21L1 21L1 22L0 22L0 23L2 23L2 24L3 24L3 25L4 25L4 27L3 27L3 26L0 26L0 27L1 27L1 28L2 28L2 30L3 30L3 29L4 29L4 32L3 32L3 31L1 31L1 30L0 30L0 32L2 32L2 33L4 33L4 34L5 34L5 35L2 35L2 36L1 36L1 33L0 33L0 36L1 36L1 37L0 37L0 38L4 38L4 37L5 37L5 36L6 36L6 37L7 37L7 38L6 38L6 39L4 39L4 40L6 40L6 41L8 41L8 40L6 40L6 39L7 39L7 38L9 38L9 40L10 40L10 41L11 41L11 42L9 42L9 44L10 44L10 46L9 46L9 45L8 45L8 42L5 42L5 41L3 41L3 40L2 40L2 39L0 39L0 43L1 43L1 42L2 42L2 43L3 43L3 46L2 46L2 45L1 45L1 44L0 44L0 48L5 48L5 47L7 47L7 48L6 48L6 49L7 49L7 48L8 48L8 50L9 50L9 47L11 47L11 48L12 48L12 47L14 47L14 48L13 48L13 49L12 49L12 50L11 50L11 49L10 49L10 50L11 50L11 51L10 51L10 53L11 53L11 54L10 54L10 55L9 55L9 53L8 53L8 57L13 57L13 56L11 56L11 55L13 55L13 54L12 54L12 53L13 53L13 52L16 52L16 54L15 54L15 53L14 53L14 54L15 54L15 55L16 55L16 54L17 54L17 53L18 53L18 52L19 52L19 51L20 51L20 52L21 52L21 51L23 51L23 50L21 50L21 49L22 49L22 48L23 48L23 47L25 47L25 48L24 48L24 49L25 49L25 48L26 48L26 50L25 50L25 51L24 51L24 53L26 53L26 54L28 54L28 53L31 53L31 54L30 54L30 55L28 55L28 57L32 57L32 56L30 56L30 55L31 55L31 54L33 54L33 55L35 55L35 53L33 53L33 51L32 51L32 50L33 50L33 49L34 49L34 48L35 48L35 47L36 47L36 49L35 49L35 50L36 50L36 49L37 49L37 48L38 48L38 47L39 47L39 49L38 49L38 50L37 50L37 51L39 51L39 52L38 52L38 53L36 53L36 56L37 56L37 57L38 57L38 56L39 56L39 57L42 57L42 56L43 56L43 57L44 57L44 56L43 56L43 55L40 55L40 54L38 54L38 53L40 53L40 52L41 52L41 53L42 53L42 52L43 52L43 50L44 50L44 53L43 53L43 54L44 54L44 53L46 53L46 55L45 55L45 57L47 57L47 56L48 56L48 55L49 55L49 56L50 56L50 57L51 57L51 55L52 55L52 53L55 53L55 54L54 54L54 55L53 55L53 56L52 56L52 57L53 57L53 56L54 56L54 57L55 57L55 56L54 56L54 55L55 55L55 54L56 54L56 53L57 53L57 52L56 52L56 53L55 53L55 51L56 51L56 50L55 50L55 51L54 51L54 52L53 52L53 50L54 50L54 49L53 49L53 48L54 48L54 47L55 47L55 48L56 48L56 47L57 47L57 44L54 44L54 43L53 43L53 44L54 44L54 45L53 45L53 47L52 47L52 44L50 44L50 45L49 45L49 48L48 48L48 47L47 47L47 46L48 46L48 45L47 45L47 44L46 44L46 45L45 45L45 46L44 46L44 43L43 43L43 45L41 45L41 43L40 43L40 42L38 42L38 41L36 41L36 40L35 40L35 41L34 41L34 43L35 43L35 44L33 44L33 45L35 45L35 44L37 44L37 45L36 45L36 46L32 46L32 44L31 44L31 43L33 43L33 42L30 42L30 38L28 38L28 39L26 39L26 40L28 40L28 41L27 41L27 43L28 43L28 44L27 44L27 45L28 45L28 44L29 44L29 43L30 43L30 44L31 44L31 47L30 47L30 48L29 48L29 46L30 46L30 45L29 45L29 46L25 46L25 45L26 45L26 44L24 44L24 45L23 45L23 44L22 44L22 45L21 45L21 43L22 43L22 41L21 41L21 42L20 42L20 40L19 40L19 41L18 41L18 40L16 40L16 39L17 39L17 38L18 38L18 39L20 39L20 38L21 38L21 35L18 35L18 34L17 34L17 35L16 35L16 36L15 36L15 35L12 35L12 34L11 34L11 33L12 33L12 32L13 32L13 33L14 33L14 34L16 34L16 33L14 33L14 32L15 32L15 31L16 31L16 32L18 32L18 31L20 31L20 32L19 32L19 33L22 33L22 34L23 34L23 35L25 35L25 36L27 36L27 35L28 35L28 37L31 37L31 40L32 40L32 41L33 41L33 40L34 40L34 37L32 37L32 36L33 36L33 34L34 34L34 36L35 36L35 37L37 37L37 36L38 36L38 35L36 35L36 34L37 34L37 33L38 33L38 32L39 32L39 31L40 31L40 33L39 33L39 34L41 34L41 35L42 35L42 36L45 36L45 37L44 37L44 38L42 38L42 37L41 37L41 38L40 38L40 37L38 37L38 38L37 38L37 40L39 40L39 41L40 41L40 40L41 40L41 42L42 42L42 40L43 40L43 42L44 42L44 41L45 41L45 43L47 43L47 42L48 42L48 44L49 44L49 42L51 42L51 43L52 43L52 42L53 42L53 41L54 41L54 42L57 42L57 40L56 40L56 38L57 38L57 37L56 37L56 38L55 38L55 39L54 39L54 40L52 40L52 39L53 39L53 38L54 38L54 37L53 37L53 35L54 35L54 34L55 34L55 33L56 33L56 35L55 35L55 36L56 36L56 35L57 35L57 33L56 33L56 32L57 32L57 31L56 31L56 32L54 32L54 34L53 34L53 35L52 35L52 32L53 32L53 31L54 31L54 30L57 30L57 28L56 28L56 29L55 29L55 27L56 27L56 26L55 26L55 27L54 27L54 29L53 29L53 25L52 25L52 24L51 24L51 22L52 22L52 21L53 21L53 20L54 20L54 22L53 22L53 23L54 23L54 22L55 22L55 25L57 25L57 24L56 24L56 23L57 23L57 21L56 21L56 20L57 20L57 19L56 19L56 18L54 18L54 19L52 19L52 18L53 18L53 17L55 17L55 15L56 15L56 14L55 14L55 13L53 13L53 14L52 14L52 15L51 15L51 13L52 13L52 12L54 12L54 11L52 11L52 12L51 12L51 13L50 13L50 14L49 14L49 15L48 15L48 16L47 16L47 17L46 17L46 15L44 15L44 14L45 14L45 13L46 13L46 12L47 12L47 11L48 11L48 10L49 10L49 12L50 12L50 8L49 8L49 6L48 6L48 7L47 7L47 5L48 5L48 0L44 0L44 1L47 1L47 2L46 2L46 3L45 3L45 2L43 2L43 0L39 0L39 1L38 1L38 2L36 2L36 1L37 1L37 0L36 0L36 1L34 1L34 0L29 0L29 4L28 4L28 0L27 0L27 2L26 2L26 1L25 1L25 0L21 0L21 1L20 1L20 2L19 2L19 3L18 3L18 1L17 1L17 2L16 2L16 3L15 3L15 5L17 5L17 4L18 4L18 5L19 5L19 6L18 6L18 7L17 7L17 6L16 6L16 7L15 7L15 6L14 6L14 5L13 5L13 3L14 3L14 2L15 2L15 1L16 1L16 0L14 0L14 2L13 2L13 1L12 1L12 0ZM11 1L11 2L12 2L12 1ZM21 1L21 2L20 2L20 3L19 3L19 5L20 5L20 6L19 6L19 7L18 7L18 8L16 8L16 10L15 10L15 8L14 8L14 6L13 6L13 8L12 8L12 9L11 9L11 7L12 7L12 6L11 6L11 7L10 7L10 8L9 8L9 10L8 10L8 11L6 11L6 12L8 12L8 11L9 11L9 10L10 10L10 11L11 11L11 13L10 13L10 14L11 14L11 13L12 13L12 11L13 11L13 13L15 13L15 15L16 15L16 16L15 16L15 17L14 17L14 18L16 18L16 19L12 19L12 20L13 20L13 21L12 21L12 22L13 22L13 23L15 23L15 27L14 27L14 26L13 26L13 24L11 24L11 23L10 23L10 26L9 26L9 28L10 28L10 27L12 27L12 28L11 28L11 29L12 29L12 30L10 30L10 29L9 29L9 30L10 30L10 31L12 31L12 30L14 30L14 31L13 31L13 32L14 32L14 31L15 31L15 30L16 30L16 28L15 28L15 27L17 27L17 28L18 28L18 29L17 29L17 31L18 31L18 29L19 29L19 30L21 30L21 32L22 32L22 30L23 30L23 27L22 27L22 26L20 26L20 24L21 24L21 23L20 23L20 22L22 22L22 21L19 21L19 20L20 20L20 19L21 19L21 20L23 20L23 22L24 22L24 23L23 23L23 24L22 24L22 25L23 25L23 24L24 24L24 28L25 28L25 29L24 29L24 30L25 30L25 29L26 29L26 28L25 28L25 22L27 22L27 23L26 23L26 24L27 24L27 25L26 25L26 26L27 26L27 25L29 25L29 26L32 26L32 27L31 27L31 28L32 28L32 27L33 27L33 28L34 28L34 29L35 29L35 31L33 31L33 29L32 29L32 30L31 30L31 32L30 32L30 33L29 33L29 31L27 31L27 32L26 32L26 31L23 31L23 33L24 33L24 32L26 32L26 33L25 33L25 35L27 35L27 33L28 33L28 34L30 34L30 35L29 35L29 36L30 36L30 35L32 35L32 34L33 34L33 33L34 33L34 34L36 34L36 33L37 33L37 32L38 32L38 30L40 30L40 31L41 31L41 33L42 33L42 31L43 31L43 32L44 32L44 33L43 33L43 35L44 35L44 34L45 34L45 36L46 36L46 37L45 37L45 38L44 38L44 39L43 39L43 40L44 40L44 39L45 39L45 41L47 41L47 39L48 39L48 42L49 42L49 41L51 41L51 42L52 42L52 40L50 40L50 39L52 39L52 38L53 38L53 37L51 37L51 35L49 35L49 34L51 34L51 32L52 32L52 31L48 31L48 27L47 27L47 25L48 25L48 26L49 26L49 25L50 25L50 24L48 24L48 23L50 23L50 22L51 22L51 21L52 21L52 19L50 19L50 18L52 18L52 17L53 17L53 16L51 16L51 15L49 15L49 16L48 16L48 18L47 18L47 19L48 19L48 20L51 20L51 21L49 21L49 22L47 22L47 20L46 20L46 19L45 19L45 18L46 18L46 17L44 17L44 18L43 18L43 17L42 17L42 16L43 16L43 15L42 15L42 14L44 14L44 13L45 13L45 12L46 12L46 10L48 10L48 9L46 9L46 8L47 8L47 7L46 7L46 6L45 6L45 5L44 5L44 4L45 4L45 3L43 3L43 2L40 2L40 1L39 1L39 2L38 2L38 3L37 3L37 4L36 4L36 2L35 2L35 3L34 3L34 1L33 1L33 3L32 3L32 6L31 6L31 7L32 7L32 9L31 9L31 11L29 11L29 9L26 9L26 8L25 8L25 10L24 10L24 9L23 9L23 10L24 10L24 11L22 11L22 10L21 10L21 9L22 9L22 8L23 8L23 7L24 7L24 5L26 5L26 3L25 3L25 2L23 2L23 4L24 4L24 5L23 5L23 7L22 7L22 3L21 3L21 2L22 2L22 1ZM31 1L31 2L30 2L30 4L31 4L31 2L32 2L32 1ZM39 2L39 3L40 3L40 2ZM16 3L16 4L17 4L17 3ZM20 3L20 5L21 5L21 3ZM24 3L24 4L25 4L25 3ZM33 3L33 5L34 5L34 7L35 7L35 5L36 5L36 8L37 8L37 6L38 6L38 7L39 7L39 6L40 6L40 8L39 8L39 11L40 11L40 9L41 9L41 10L42 10L42 11L43 11L43 12L42 12L42 13L41 13L41 14L40 14L40 15L39 15L39 13L40 13L40 12L39 12L39 13L38 13L38 16L40 16L40 15L41 15L41 16L42 16L42 15L41 15L41 14L42 14L42 13L43 13L43 12L45 12L45 9L42 9L42 8L41 8L41 5L42 5L42 4L43 4L43 3L42 3L42 4L41 4L41 5L40 5L40 4L38 4L38 5L36 5L36 4L35 4L35 5L34 5L34 3ZM46 3L46 5L47 5L47 3ZM27 5L27 8L30 8L30 5ZM43 5L43 6L42 6L42 7L43 7L43 6L44 6L44 7L45 7L45 8L46 8L46 7L45 7L45 6L44 6L44 5ZM20 6L20 9L21 9L21 8L22 8L22 7L21 7L21 6ZM25 6L25 7L26 7L26 6ZM28 6L28 7L29 7L29 6ZM32 6L32 7L33 7L33 6ZM6 8L6 9L7 9L7 8ZM13 8L13 9L12 9L12 10L11 10L11 11L12 11L12 10L13 10L13 9L14 9L14 8ZM52 8L52 9L51 9L51 10L52 10L52 9L55 9L55 8ZM56 8L56 11L55 11L55 12L56 12L56 11L57 11L57 8ZM1 9L1 10L2 10L2 9ZM17 9L17 10L16 10L16 12L15 12L15 13L17 13L17 14L16 14L16 15L17 15L17 14L19 14L19 15L18 15L18 16L16 16L16 18L17 18L17 17L18 17L18 20L16 20L16 21L15 21L15 20L14 20L14 21L15 21L15 22L16 22L16 21L17 21L17 22L18 22L18 20L19 20L19 18L20 18L20 17L18 17L18 16L21 16L21 17L22 17L22 16L24 16L24 17L23 17L23 18L21 18L21 19L23 19L23 20L24 20L24 19L25 19L25 18L26 18L26 20L25 20L25 21L24 21L24 22L25 22L25 21L29 21L29 23L31 23L31 22L32 22L32 21L29 21L29 19L27 19L27 17L25 17L25 16L24 16L24 14L23 14L23 13L22 13L22 12L20 12L20 11L21 11L21 10L20 10L20 11L19 11L19 12L18 12L18 13L17 13L17 11L18 11L18 9ZM33 9L33 10L32 10L32 11L31 11L31 12L33 12L33 13L32 13L32 14L34 14L34 15L33 15L33 16L31 16L31 18L32 18L32 17L33 17L33 16L34 16L34 15L35 15L35 14L36 14L36 13L37 13L37 11L36 11L36 10L34 10L34 9ZM37 9L37 10L38 10L38 9ZM14 10L14 11L15 11L15 10ZM26 10L26 11L25 11L25 12L26 12L26 13L28 13L28 12L26 12L26 11L28 11L28 10ZM33 10L33 12L34 12L34 14L35 14L35 13L36 13L36 11L35 11L35 12L34 12L34 10ZM1 11L1 12L2 12L2 13L3 13L3 14L4 14L4 13L5 13L5 11ZM19 12L19 13L20 13L20 12ZM6 13L6 14L5 14L5 15L6 15L6 16L7 16L7 15L8 15L8 14L7 14L7 13ZM21 13L21 14L20 14L20 15L21 15L21 16L22 16L22 15L21 15L21 14L22 14L22 13ZM29 13L29 14L28 14L28 16L29 16L29 17L28 17L28 18L30 18L30 16L29 16L29 15L31 15L31 14L30 14L30 13ZM47 13L47 14L48 14L48 13ZM6 14L6 15L7 15L7 14ZM25 14L25 15L27 15L27 14ZM53 14L53 15L54 15L54 14ZM10 16L10 17L11 17L11 16ZM35 16L35 17L34 17L34 18L33 18L33 20L34 20L34 21L35 21L35 22L34 22L34 23L32 23L32 24L34 24L34 23L35 23L35 24L36 24L36 25L35 25L35 26L36 26L36 25L37 25L37 27L38 27L38 28L41 28L41 29L40 29L40 30L41 30L41 31L42 31L42 28L44 28L44 29L43 29L43 30L44 30L44 29L45 29L45 28L46 28L46 25L44 25L44 26L45 26L45 27L43 27L43 26L40 26L40 25L39 25L39 24L40 24L40 23L42 23L42 25L43 25L43 24L45 24L45 22L46 22L46 24L47 24L47 22L46 22L46 21L45 21L45 22L44 22L44 23L42 23L42 22L43 22L43 21L44 21L44 20L43 20L43 19L40 19L40 18L42 18L42 17L40 17L40 18L38 18L38 17L37 17L37 18L36 18L36 20L34 20L34 19L35 19L35 17L36 17L36 16ZM50 16L50 17L49 17L49 18L48 18L48 19L49 19L49 18L50 18L50 17L51 17L51 16ZM56 16L56 17L57 17L57 16ZM24 17L24 18L25 18L25 17ZM1 18L1 19L2 19L2 20L1 20L1 21L5 21L5 23L4 23L4 22L3 22L3 23L4 23L4 25L6 25L6 26L7 26L7 25L9 25L9 21L8 21L8 22L7 22L7 21L6 21L6 20L7 20L7 19L6 19L6 20L3 20L3 18ZM37 18L37 20L36 20L36 21L37 21L37 22L35 22L35 23L37 23L37 24L38 24L38 23L40 23L40 22L39 22L39 20L40 20L40 19L39 19L39 20L38 20L38 18ZM30 19L30 20L31 20L31 19ZM54 19L54 20L56 20L56 19ZM37 20L37 21L38 21L38 20ZM41 20L41 22L42 22L42 20ZM10 21L10 22L11 22L11 21ZM55 21L55 22L56 22L56 21ZM6 22L6 23L7 23L7 24L6 24L6 25L7 25L7 24L8 24L8 23L7 23L7 22ZM16 23L16 25L17 25L17 23ZM19 23L19 24L18 24L18 26L19 26L19 27L18 27L18 28L20 28L20 26L19 26L19 24L20 24L20 23ZM29 24L29 25L31 25L31 24ZM11 25L11 26L12 26L12 25ZM51 25L51 26L52 26L52 25ZM33 26L33 27L34 27L34 28L35 28L35 29L36 29L36 28L35 28L35 27L34 27L34 26ZM39 26L39 27L40 27L40 26ZM2 27L2 28L3 28L3 27ZM5 27L5 30L8 30L8 27ZM13 27L13 28L14 28L14 27ZM21 27L21 28L22 28L22 27ZM27 27L27 30L30 30L30 27ZM41 27L41 28L42 28L42 27ZM49 27L49 30L52 30L52 27ZM6 28L6 29L7 29L7 28ZM28 28L28 29L29 29L29 28ZM50 28L50 29L51 29L51 28ZM14 29L14 30L15 30L15 29ZM37 29L37 30L36 30L36 31L35 31L35 32L34 32L34 33L35 33L35 32L37 32L37 30L38 30L38 29ZM46 29L46 30L45 30L45 31L47 31L47 29ZM5 31L5 32L8 32L8 31ZM9 32L9 33L8 33L8 34L7 34L7 33L6 33L6 34L7 34L7 35L6 35L6 36L7 36L7 37L10 37L10 38L11 38L11 40L13 40L13 42L12 42L12 43L13 43L13 42L14 42L14 43L15 43L15 42L16 42L16 44L13 44L13 46L15 46L15 48L14 48L14 49L15 49L15 50L14 50L14 51L16 51L16 52L17 52L17 51L16 51L16 50L17 50L17 49L18 49L18 48L19 48L19 50L18 50L18 51L19 51L19 50L20 50L20 49L21 49L21 47L22 47L22 46L21 46L21 45L20 45L20 46L19 46L19 44L20 44L20 42L19 42L19 43L18 43L18 42L16 42L16 41L14 41L14 40L13 40L13 39L14 39L14 36L13 36L13 38L11 38L11 37L12 37L12 36L11 36L11 35L10 35L10 34L9 34L9 33L11 33L11 32ZM31 32L31 33L30 33L30 34L31 34L31 33L32 33L32 32ZM46 32L46 33L45 33L45 34L46 34L46 36L48 36L48 37L47 37L47 38L48 38L48 37L49 37L49 36L48 36L48 34L49 34L49 33L50 33L50 32L49 32L49 33L48 33L48 34L46 34L46 33L47 33L47 32ZM7 35L7 36L8 36L8 35ZM9 35L9 36L10 36L10 37L11 37L11 36L10 36L10 35ZM19 36L19 38L20 38L20 36ZM23 36L23 37L22 37L22 39L21 39L21 40L23 40L23 41L25 41L25 42L23 42L23 43L26 43L26 41L25 41L25 38L24 38L24 36ZM15 37L15 39L16 39L16 38L17 38L17 37ZM26 37L26 38L27 38L27 37ZM50 37L50 38L49 38L49 39L50 39L50 38L51 38L51 37ZM23 38L23 40L24 40L24 38ZM32 38L32 39L33 39L33 38ZM39 38L39 39L40 39L40 38ZM41 38L41 40L42 40L42 38ZM45 38L45 39L46 39L46 38ZM28 39L28 40L29 40L29 39ZM55 40L55 41L56 41L56 40ZM2 41L2 42L3 42L3 43L4 43L4 42L3 42L3 41ZM35 41L35 43L37 43L37 44L38 44L38 46L36 46L36 47L38 47L38 46L39 46L39 47L40 47L40 49L39 49L39 51L40 51L40 50L41 50L41 52L42 52L42 50L43 50L43 49L45 49L45 51L46 51L46 53L47 53L47 55L46 55L46 56L47 56L47 55L48 55L48 53L47 53L47 52L48 52L48 50L47 50L47 49L48 49L48 48L46 48L46 46L47 46L47 45L46 45L46 46L45 46L45 48L43 48L43 47L42 47L42 46L41 46L41 45L40 45L40 43L39 43L39 44L38 44L38 42L36 42L36 41ZM28 42L28 43L29 43L29 42ZM6 43L6 44L7 44L7 43ZM10 43L10 44L11 44L11 43ZM17 43L17 44L16 44L16 45L15 45L15 46L16 46L16 47L18 47L18 46L16 46L16 45L17 45L17 44L18 44L18 43ZM4 44L4 46L3 46L3 47L5 47L5 44ZM6 45L6 46L8 46L8 47L9 47L9 46L8 46L8 45ZM11 45L11 46L12 46L12 45ZM39 45L39 46L40 46L40 45ZM54 45L54 46L55 46L55 47L56 47L56 45ZM1 46L1 47L2 47L2 46ZM20 46L20 47L19 47L19 48L20 48L20 47L21 47L21 46ZM26 47L26 48L28 48L28 47ZM33 47L33 48L31 48L31 50L32 50L32 49L33 49L33 48L34 48L34 47ZM41 47L41 50L42 50L42 49L43 49L43 48L42 48L42 47ZM15 48L15 49L17 49L17 48ZM45 48L45 49L46 49L46 48ZM27 49L27 52L30 52L30 49ZM49 49L49 52L52 52L52 49ZM28 50L28 51L29 51L29 50ZM50 50L50 51L51 51L51 50ZM25 51L25 52L26 52L26 51ZM31 51L31 52L32 52L32 51ZM19 53L19 54L18 54L18 55L19 55L19 54L20 54L20 53ZM50 53L50 54L49 54L49 55L51 55L51 53ZM21 54L21 55L20 55L20 57L21 57L21 55L22 55L22 54ZM37 54L37 56L38 56L38 54ZM23 55L23 56L22 56L22 57L26 57L26 56L27 56L27 55ZM56 55L56 56L57 56L57 55ZM15 56L15 57L16 57L16 56ZM33 56L33 57L35 57L35 56ZM0 0L0 7L7 7L7 0ZM1 1L1 6L6 6L6 1ZM2 2L2 5L5 5L5 2ZM50 0L50 7L57 7L57 0ZM51 1L51 6L56 6L56 1ZM52 2L52 5L55 5L55 2ZM0 50L0 57L7 57L7 50ZM1 51L1 56L6 56L6 51ZM2 52L2 55L5 55L5 52Z" fill="#000000"/></g></g></svg>
