<?xml version="1.0" encoding="UTF-8"?>
<svg xmlns="http://www.w3.org/2000/svg" version="1.1" width="170" height="170" viewBox="0 0 170 170"><rect x="0" y="0" width="170" height="170" fill="#ffffff"/><g transform="scale(2.787)"><g transform="translate(0,0)"><path fill-rule="evenodd" d="M10 0L10 2L8 2L8 3L10 3L10 4L9 4L9 5L10 5L10 7L9 7L9 6L8 6L8 8L4 8L4 9L3 9L3 8L0 8L0 9L1 9L1 11L3 11L3 12L0 12L0 17L1 17L1 21L0 21L0 24L1 24L1 22L2 22L2 21L7 21L7 22L5 22L5 23L7 23L7 24L6 24L6 25L3 25L3 24L4 24L4 22L3 22L3 24L2 24L2 25L0 25L0 26L2 26L2 27L4 27L4 26L6 26L6 27L5 27L5 28L3 28L3 29L4 29L4 30L3 30L3 31L0 31L0 32L1 32L1 33L0 33L0 34L1 34L1 33L2 33L2 35L3 35L3 36L2 36L2 38L1 38L1 39L0 39L0 43L1 43L1 46L0 46L0 48L1 48L1 46L2 46L2 49L1 49L1 50L2 50L2 51L0 51L0 53L4 53L4 52L5 52L5 51L7 51L7 52L6 52L6 53L7 53L7 52L9 52L9 53L8 53L8 57L9 57L9 55L10 55L10 58L8 58L8 61L12 61L12 59L13 59L13 61L14 61L14 58L15 58L15 56L16 56L16 55L17 55L17 58L16 58L16 60L17 60L17 61L20 61L20 59L21 59L21 60L22 60L22 61L23 61L23 60L24 60L24 58L23 58L23 56L20 56L20 55L21 55L21 54L24 54L24 55L25 55L25 54L24 54L24 53L23 53L23 52L22 52L22 53L21 53L21 54L20 54L20 53L19 53L19 52L20 52L20 50L19 50L19 48L20 48L20 47L21 47L21 51L22 51L22 48L24 48L24 50L25 50L25 49L26 49L26 51L24 51L24 52L26 52L26 55L27 55L27 56L26 56L26 57L27 57L27 58L25 58L25 61L29 61L29 60L30 60L30 59L29 59L29 58L30 58L30 57L33 57L33 58L32 58L32 59L31 59L31 60L32 60L32 61L33 61L33 60L34 60L34 61L35 61L35 60L34 60L34 59L33 59L33 58L34 58L34 57L35 57L35 58L36 58L36 61L37 61L37 60L40 60L40 61L43 61L43 60L44 60L44 61L45 61L45 60L46 60L46 59L45 59L45 58L46 58L46 57L45 57L45 56L48 56L48 57L47 57L47 58L49 58L49 57L50 57L50 58L51 58L51 59L53 59L53 60L50 60L50 59L49 59L49 60L47 60L47 61L49 61L49 60L50 60L50 61L53 61L53 60L54 60L54 59L55 59L55 60L56 60L56 61L57 61L57 60L58 60L58 59L57 59L57 58L60 58L60 59L59 59L59 61L61 61L61 60L60 60L60 59L61 59L61 58L60 58L60 57L61 57L61 56L60 56L60 55L61 55L61 54L60 54L60 53L59 53L59 54L58 54L58 52L55 52L55 50L54 50L54 49L55 49L55 48L56 48L56 47L57 47L57 48L58 48L58 47L59 47L59 48L60 48L60 49L59 49L59 50L58 50L58 49L57 49L57 50L56 50L56 51L59 51L59 52L61 52L61 50L60 50L60 49L61 49L61 48L60 48L60 47L61 47L61 44L60 44L60 45L59 45L59 44L58 44L58 43L57 43L57 42L60 42L60 43L61 43L61 37L59 37L59 38L58 38L58 37L57 37L57 38L56 38L56 37L55 37L55 35L57 35L57 34L56 34L56 33L57 33L57 32L58 32L58 31L59 31L59 32L60 32L60 33L59 33L59 34L58 34L58 35L59 35L59 36L61 36L61 32L60 32L60 31L61 31L61 29L59 29L59 28L58 28L58 27L59 27L59 26L60 26L60 27L61 27L61 26L60 26L60 25L61 25L61 24L60 24L60 25L58 25L58 27L57 27L57 26L56 26L56 25L57 25L57 24L58 24L58 23L61 23L61 20L60 20L60 19L61 19L61 16L60 16L60 15L61 15L61 13L59 13L59 14L58 14L58 13L57 13L57 10L56 10L56 9L55 9L55 8L53 8L53 6L52 6L52 7L51 7L51 5L52 5L52 4L53 4L53 0L51 0L51 2L50 2L50 4L48 4L48 1L49 1L49 0L48 0L48 1L47 1L47 0L44 0L44 1L43 1L43 0L42 0L42 1L41 1L41 0L40 0L40 1L41 1L41 3L42 3L42 2L43 2L43 4L42 4L42 7L43 7L43 6L44 6L44 8L42 8L42 9L45 9L45 10L44 10L44 11L43 11L43 12L42 12L42 11L41 11L41 10L40 10L40 9L41 9L41 6L40 6L40 5L39 5L39 4L40 4L40 2L39 2L39 0L38 0L38 2L37 2L37 3L38 3L38 4L37 4L37 5L35 5L35 4L36 4L36 3L33 3L33 2L35 2L35 1L36 1L36 0L33 0L33 2L32 2L32 1L31 1L31 0L30 0L30 1L29 1L29 0L27 0L27 1L26 1L26 2L24 2L24 5L23 5L23 6L22 6L22 7L21 7L21 6L20 6L20 7L21 7L21 8L20 8L20 10L21 10L21 9L22 9L22 10L23 10L23 9L25 9L25 10L24 10L24 11L20 11L20 13L19 13L19 12L17 12L17 13L18 13L18 14L15 14L15 12L16 12L16 10L14 10L14 9L15 9L15 8L16 8L16 7L17 7L17 6L18 6L18 7L19 7L19 6L18 6L18 5L17 5L17 4L18 4L18 3L16 3L16 2L19 2L19 3L20 3L20 4L19 4L19 5L21 5L21 4L22 4L22 3L20 3L20 2L19 2L19 1L21 1L21 2L22 2L22 1L23 1L23 0L19 0L19 1L16 1L16 0L14 0L14 1L15 1L15 2L13 2L13 4L14 4L14 3L15 3L15 4L16 4L16 5L15 5L15 6L14 6L14 7L15 7L15 8L14 8L14 9L13 9L13 10L12 10L12 13L10 13L10 14L6 14L6 13L8 13L8 12L10 12L10 11L11 11L11 10L8 10L8 9L11 9L11 8L10 8L10 7L11 7L11 3L12 3L12 0ZM24 0L24 1L25 1L25 0ZM27 1L27 3L26 3L26 5L25 5L25 7L24 7L24 6L23 6L23 7L22 7L22 8L23 8L23 7L24 7L24 8L25 8L25 7L26 7L26 5L27 5L27 4L28 4L28 1ZM30 1L30 2L29 2L29 3L30 3L30 2L31 2L31 3L32 3L32 4L33 4L33 5L34 5L34 4L33 4L33 3L32 3L32 2L31 2L31 1ZM44 1L44 4L43 4L43 5L44 5L44 6L45 6L45 7L46 7L46 8L45 8L45 9L46 9L46 11L48 11L48 10L49 10L49 11L50 11L50 12L49 12L49 13L50 13L50 14L48 14L48 15L50 15L50 16L49 16L49 18L48 18L48 16L47 16L47 12L45 12L45 13L46 13L46 14L45 14L45 15L46 15L46 16L45 16L45 17L44 17L44 16L43 16L43 15L44 15L44 14L43 14L43 13L44 13L44 12L43 12L43 13L42 13L42 14L39 14L39 12L37 12L37 11L38 11L38 10L39 10L39 11L40 11L40 10L39 10L39 9L40 9L40 8L39 8L39 7L40 7L40 6L39 6L39 7L38 7L38 6L37 6L37 7L38 7L38 8L37 8L37 9L36 9L36 8L35 8L35 7L36 7L36 6L35 6L35 7L34 7L34 6L33 6L33 7L34 7L34 8L33 8L33 9L34 9L34 10L33 10L33 11L32 11L32 10L31 10L31 9L30 9L30 10L29 10L29 9L28 9L28 6L27 6L27 8L26 8L26 10L27 10L27 11L26 11L26 12L25 12L25 11L24 11L24 13L23 13L23 14L22 14L22 12L21 12L21 13L20 13L20 14L19 14L19 15L17 15L17 17L16 17L16 18L17 18L17 19L16 19L16 20L15 20L15 17L14 17L14 16L15 16L15 15L14 15L14 14L11 14L11 15L10 15L10 16L7 16L7 15L6 15L6 14L5 14L5 16L4 16L4 13L5 13L5 12L7 12L7 11L8 11L8 10L7 10L7 9L4 9L4 13L3 13L3 15L2 15L2 13L1 13L1 15L2 15L2 17L3 17L3 18L2 18L2 20L5 20L5 19L6 19L6 20L7 20L7 19L8 19L8 18L11 18L11 22L12 22L12 20L13 20L13 21L16 21L16 22L14 22L14 24L12 24L12 25L10 25L10 24L9 24L9 25L6 25L6 26L8 26L8 27L9 27L9 28L10 28L10 26L12 26L12 27L11 27L11 29L9 29L9 32L12 32L12 31L13 31L13 30L14 30L14 31L15 31L15 30L17 30L17 31L16 31L16 32L14 32L14 33L11 33L11 34L7 34L7 33L6 33L6 34L5 34L5 33L4 33L4 31L3 31L3 33L4 33L4 34L5 34L5 35L6 35L6 36L3 36L3 37L4 37L4 39L3 39L3 38L2 38L2 39L3 39L3 40L1 40L1 42L2 42L2 43L3 43L3 42L4 42L4 41L5 41L5 43L4 43L4 45L3 45L3 44L2 44L2 46L3 46L3 48L5 48L5 49L6 49L6 50L7 50L7 49L6 49L6 48L7 48L7 47L8 47L8 44L7 44L7 43L8 43L8 42L9 42L9 43L10 43L10 42L9 42L9 41L10 41L10 40L9 40L9 39L10 39L10 38L9 38L9 37L8 37L8 36L9 36L9 35L11 35L11 36L10 36L10 37L11 37L11 39L13 39L13 36L12 36L12 34L14 34L14 37L16 37L16 38L14 38L14 39L16 39L16 41L14 41L14 40L13 40L13 41L12 41L12 42L13 42L13 43L12 43L12 44L10 44L10 46L9 46L9 47L10 47L10 48L8 48L8 49L10 49L10 50L8 50L8 51L9 51L9 52L11 52L11 57L12 57L12 58L13 58L13 57L12 57L12 56L14 56L14 55L12 55L12 52L13 52L13 53L14 53L14 52L13 52L13 51L14 51L14 49L15 49L15 48L14 48L14 47L13 47L13 46L14 46L14 43L15 43L15 42L17 42L17 43L16 43L16 44L15 44L15 47L16 47L16 48L18 48L18 46L19 46L19 47L20 47L20 46L22 46L22 47L23 47L23 46L25 46L25 47L24 47L24 48L26 48L26 46L27 46L27 47L28 47L28 48L27 48L27 51L30 51L30 52L33 52L33 53L34 53L34 54L33 54L33 55L34 55L34 56L33 56L33 57L34 57L34 56L35 56L35 57L36 57L36 58L37 58L37 59L40 59L40 58L41 58L41 57L42 57L42 59L41 59L41 60L42 60L42 59L43 59L43 58L45 58L45 57L43 57L43 56L44 56L44 55L49 55L49 56L50 56L50 55L52 55L52 54L51 54L51 53L52 53L52 52L53 52L53 51L54 51L54 50L53 50L53 49L54 49L54 48L53 48L53 47L54 47L54 46L55 46L55 47L56 47L56 46L57 46L57 47L58 47L58 46L59 46L59 47L60 47L60 46L59 46L59 45L58 45L58 44L57 44L57 43L56 43L56 42L57 42L57 41L59 41L59 39L58 39L58 38L57 38L57 39L56 39L56 38L55 38L55 37L54 37L54 36L53 36L53 35L54 35L54 34L55 34L55 33L54 33L54 34L53 34L53 33L52 33L52 32L51 32L51 33L49 33L49 34L50 34L50 36L51 36L51 37L49 37L49 38L48 38L48 37L46 37L46 36L47 36L47 35L48 35L48 34L47 34L47 33L44 33L44 32L43 32L43 31L44 31L44 30L45 30L45 29L46 29L46 31L45 31L45 32L47 32L47 30L48 30L48 31L52 31L52 28L53 28L53 27L54 27L54 28L55 28L55 27L56 27L56 26L55 26L55 25L56 25L56 24L55 24L55 23L56 23L56 22L57 22L57 23L58 23L58 22L59 22L59 21L60 21L60 20L59 20L59 19L60 19L60 18L59 18L59 17L60 17L60 16L59 16L59 15L60 15L60 14L59 14L59 15L58 15L58 14L57 14L57 13L56 13L56 14L55 14L55 13L54 13L54 12L55 12L55 11L56 11L56 10L55 10L55 9L54 9L54 10L53 10L53 8L52 8L52 9L50 9L50 8L51 8L51 7L50 7L50 5L48 5L48 4L47 4L47 3L45 3L45 2L46 2L46 1ZM38 2L38 3L39 3L39 2ZM51 3L51 4L52 4L52 3ZM44 4L44 5L45 5L45 4ZM46 4L46 7L47 7L47 6L48 6L48 9L47 9L47 8L46 8L46 9L47 9L47 10L48 10L48 9L49 9L49 8L50 8L50 7L49 7L49 6L48 6L48 5L47 5L47 4ZM16 5L16 6L15 6L15 7L16 7L16 6L17 6L17 5ZM29 5L29 8L32 8L32 5ZM12 6L12 8L13 8L13 6ZM30 6L30 7L31 7L31 6ZM18 8L18 9L19 9L19 8ZM34 8L34 9L35 9L35 10L36 10L36 11L35 11L35 12L34 12L34 11L33 11L33 12L32 12L32 11L31 11L31 10L30 10L30 11L29 11L29 10L28 10L28 11L27 11L27 12L26 12L26 14L23 14L23 15L22 15L22 14L21 14L21 15L19 15L19 16L18 16L18 17L17 17L17 18L18 18L18 19L17 19L17 20L18 20L18 21L17 21L17 22L16 22L16 23L15 23L15 24L14 24L14 25L12 25L12 26L14 26L14 25L16 25L16 23L17 23L17 26L18 26L18 27L17 27L17 28L18 28L18 29L17 29L17 30L18 30L18 31L17 31L17 32L16 32L16 34L18 34L18 35L16 35L16 36L18 36L18 37L17 37L17 38L16 38L16 39L17 39L17 38L18 38L18 39L19 39L19 40L18 40L18 41L19 41L19 40L20 40L20 42L21 42L21 43L20 43L20 44L18 44L18 43L19 43L19 42L18 42L18 43L17 43L17 46L18 46L18 45L19 45L19 46L20 46L20 44L21 44L21 43L22 43L22 46L23 46L23 43L25 43L25 46L26 46L26 45L27 45L27 44L28 44L28 45L29 45L29 46L28 46L28 47L29 47L29 48L30 48L30 49L29 49L29 50L30 50L30 51L32 51L32 49L33 49L33 48L34 48L34 49L35 49L35 48L36 48L36 49L37 49L37 50L35 50L35 52L34 52L34 51L33 51L33 52L34 52L34 53L35 53L35 54L36 54L36 55L35 55L35 56L36 56L36 57L37 57L37 55L38 55L38 53L39 53L39 56L38 56L38 57L39 57L39 58L40 58L40 57L41 57L41 55L42 55L42 56L43 56L43 55L44 55L44 54L45 54L45 52L47 52L47 53L49 53L49 51L50 51L50 49L51 49L51 50L52 50L52 51L53 51L53 50L52 50L52 49L53 49L53 48L52 48L52 49L51 49L51 47L48 47L48 48L47 48L47 49L49 49L49 51L45 51L45 50L44 50L44 49L46 49L46 45L47 45L47 46L50 46L50 45L51 45L51 46L52 46L52 47L53 47L53 46L54 46L54 45L55 45L55 46L56 46L56 45L55 45L55 44L56 44L56 43L55 43L55 42L56 42L56 41L55 41L55 40L56 40L56 39L55 39L55 38L54 38L54 37L53 37L53 36L52 36L52 37L51 37L51 38L52 38L52 37L53 37L53 38L54 38L54 39L52 39L52 41L51 41L51 40L49 40L49 39L50 39L50 38L49 38L49 39L48 39L48 38L47 38L47 39L46 39L46 38L45 38L45 36L46 36L46 34L44 34L44 33L43 33L43 32L42 32L42 31L41 31L41 30L42 30L42 29L43 29L43 30L44 30L44 29L45 29L45 28L46 28L46 29L48 29L48 30L50 30L50 29L51 29L51 28L52 28L52 27L53 27L53 26L54 26L54 25L55 25L55 24L54 24L54 23L53 23L53 22L54 22L54 21L55 21L55 22L56 22L56 21L57 21L57 22L58 22L58 21L59 21L59 20L58 20L58 21L57 21L57 18L58 18L58 19L59 19L59 18L58 18L58 17L57 17L57 16L58 16L58 15L57 15L57 14L56 14L56 15L55 15L55 16L54 16L54 15L53 15L53 14L54 14L54 13L53 13L53 14L52 14L52 13L51 13L51 12L52 12L52 11L53 11L53 12L54 12L54 11L53 11L53 10L52 10L52 11L51 11L51 10L50 10L50 11L51 11L51 12L50 12L50 13L51 13L51 14L52 14L52 15L51 15L51 16L52 16L52 15L53 15L53 16L54 16L54 17L53 17L53 18L52 18L52 17L51 17L51 18L52 18L52 19L51 19L51 20L52 20L52 19L53 19L53 18L54 18L54 17L55 17L55 18L56 18L56 19L55 19L55 20L54 20L54 21L53 21L53 22L52 22L52 23L50 23L50 24L51 24L51 25L53 25L53 26L52 26L52 27L51 27L51 28L50 28L50 26L48 26L48 27L47 27L47 26L46 26L46 25L47 25L47 24L46 24L46 23L45 23L45 22L46 22L46 21L45 21L45 20L48 20L48 21L47 21L47 23L48 23L48 25L49 25L49 23L48 23L48 22L49 22L49 20L50 20L50 19L48 19L48 18L47 18L47 19L45 19L45 18L44 18L44 17L43 17L43 16L42 16L42 15L40 15L40 17L41 17L41 18L40 18L40 21L39 21L39 22L40 22L40 23L39 23L39 24L38 24L38 25L39 25L39 26L40 26L40 28L38 28L38 27L37 27L37 26L36 26L36 25L37 25L37 23L35 23L35 24L34 24L34 23L33 23L33 22L34 22L34 21L35 21L35 22L37 22L37 20L36 20L36 19L37 19L37 18L38 18L38 20L39 20L39 18L38 18L38 17L37 17L37 15L38 15L38 13L37 13L37 12L36 12L36 11L37 11L37 10L36 10L36 9L35 9L35 8ZM38 8L38 9L39 9L39 8ZM58 8L58 11L59 11L59 12L61 12L61 9L59 9L59 8ZM2 9L2 10L3 10L3 9ZM5 10L5 11L7 11L7 10ZM13 10L13 11L14 11L14 12L13 12L13 13L14 13L14 12L15 12L15 11L14 11L14 10ZM17 10L17 11L19 11L19 10ZM59 10L59 11L60 11L60 10ZM28 11L28 12L27 12L27 13L28 13L28 14L26 14L26 16L27 16L27 15L28 15L28 16L29 16L29 17L28 17L28 18L27 18L27 21L28 21L28 22L27 22L27 23L26 23L26 20L24 20L24 19L26 19L26 18L24 18L24 16L25 16L25 15L24 15L24 16L22 16L22 18L21 18L21 16L19 16L19 19L18 19L18 20L19 20L19 22L18 22L18 23L19 23L19 22L20 22L20 23L22 23L22 22L21 22L21 21L22 21L22 20L24 20L24 22L23 22L23 23L24 23L24 24L23 24L23 25L24 25L24 26L23 26L23 27L22 27L22 26L21 26L21 25L20 25L20 26L21 26L21 27L20 27L20 28L19 28L19 29L20 29L20 30L21 30L21 32L19 32L19 31L18 31L18 32L19 32L19 34L20 34L20 33L21 33L21 35L22 35L22 36L21 36L21 37L20 37L20 36L19 36L19 35L18 35L18 36L19 36L19 39L20 39L20 40L22 40L22 39L24 39L24 42L25 42L25 43L26 43L26 44L27 44L27 43L28 43L28 44L29 44L29 45L30 45L30 44L31 44L31 45L32 45L32 46L31 46L31 47L32 47L32 48L31 48L31 49L32 49L32 48L33 48L33 47L36 47L36 46L37 46L37 45L36 45L36 42L38 42L38 43L37 43L37 44L38 44L38 47L40 47L40 46L41 46L41 47L42 47L42 48L41 48L41 49L42 49L42 50L39 50L39 49L40 49L40 48L37 48L37 49L38 49L38 50L37 50L37 51L38 51L38 52L37 52L37 53L38 53L38 52L39 52L39 53L40 53L40 54L41 54L41 53L42 53L42 55L43 55L43 54L44 54L44 53L43 53L43 51L44 51L44 50L43 50L43 49L44 49L44 48L43 48L43 46L44 46L44 47L45 47L45 45L46 45L46 44L47 44L47 43L48 43L48 42L49 42L49 43L50 43L50 44L49 44L49 45L50 45L50 44L51 44L51 45L52 45L52 46L53 46L53 45L54 45L54 44L53 44L53 43L51 43L51 41L48 41L48 39L47 39L47 40L45 40L45 41L46 41L46 42L45 42L45 43L46 43L46 44L45 44L45 45L44 45L44 42L43 42L43 40L44 40L44 39L45 39L45 38L44 38L44 39L43 39L43 37L42 37L42 36L43 36L43 35L44 35L44 34L43 34L43 33L42 33L42 32L41 32L41 33L40 33L40 30L41 30L41 29L42 29L42 28L43 28L43 29L44 29L44 27L43 27L43 25L40 25L40 24L39 24L39 25L40 25L40 26L41 26L41 27L42 27L42 28L41 28L41 29L40 29L40 30L39 30L39 29L38 29L38 31L39 31L39 32L37 32L37 33L36 33L36 34L35 34L35 31L37 31L37 29L36 29L36 28L37 28L37 27L36 27L36 26L35 26L35 25L36 25L36 24L35 24L35 25L34 25L34 24L33 24L33 23L32 23L32 22L31 22L31 21L32 21L32 20L33 20L33 21L34 21L34 20L35 20L35 21L36 21L36 20L35 20L35 17L36 17L36 18L37 18L37 17L36 17L36 16L35 16L35 15L37 15L37 14L35 14L35 13L36 13L36 12L35 12L35 13L34 13L34 12L33 12L33 13L34 13L34 14L33 14L33 15L34 15L34 16L35 16L35 17L33 17L33 16L31 16L31 15L32 15L32 14L31 14L31 13L32 13L32 12L31 12L31 11L30 11L30 14L29 14L29 13L28 13L28 12L29 12L29 11ZM30 14L30 15L29 15L29 16L30 16L30 15L31 15L31 14ZM11 15L11 16L10 16L10 17L11 17L11 18L13 18L13 16L12 16L12 15ZM3 16L3 17L4 17L4 18L5 18L5 17L4 17L4 16ZM6 16L6 17L7 17L7 18L6 18L6 19L7 19L7 18L8 18L8 17L7 17L7 16ZM11 16L11 17L12 17L12 16ZM41 16L41 17L42 17L42 18L41 18L41 19L42 19L42 20L41 20L41 21L42 21L42 23L43 23L43 22L45 22L45 21L44 21L44 20L43 20L43 19L44 19L44 18L43 18L43 17L42 17L42 16ZM55 16L55 17L56 17L56 18L57 18L57 17L56 17L56 16ZM29 17L29 18L28 18L28 19L29 19L29 18L30 18L30 19L31 19L31 20L32 20L32 19L33 19L33 20L34 20L34 19L33 19L33 17L31 17L31 18L30 18L30 17ZM20 18L20 19L19 19L19 20L22 20L22 19L23 19L23 18L22 18L22 19L21 19L21 18ZM31 18L31 19L32 19L32 18ZM28 20L28 21L29 21L29 22L30 22L30 23L29 23L29 24L30 24L30 23L31 23L31 24L32 24L32 25L31 25L31 26L32 26L32 27L31 27L31 28L30 28L30 27L29 27L29 28L28 28L28 27L23 27L23 28L22 28L22 31L23 31L23 32L22 32L22 33L23 33L23 34L22 34L22 35L23 35L23 36L22 36L22 37L21 37L21 38L20 38L20 39L22 39L22 38L24 38L24 39L25 39L25 42L26 42L26 43L27 43L27 42L26 42L26 40L28 40L28 42L29 42L29 41L30 41L30 43L29 43L29 44L30 44L30 43L31 43L31 44L32 44L32 45L33 45L33 46L34 46L34 45L35 45L35 46L36 46L36 45L35 45L35 44L34 44L34 43L33 43L33 44L32 44L32 43L31 43L31 42L32 42L32 41L33 41L33 42L34 42L34 41L35 41L35 42L36 42L36 41L39 41L39 42L40 42L40 43L39 43L39 44L40 44L40 45L39 45L39 46L40 46L40 45L41 45L41 46L42 46L42 45L43 45L43 44L42 44L42 43L41 43L41 42L40 42L40 41L42 41L42 40L43 40L43 39L42 39L42 37L41 37L41 36L42 36L42 35L41 35L41 34L42 34L42 33L41 33L41 34L40 34L40 33L39 33L39 34L38 34L38 33L37 33L37 34L36 34L36 35L35 35L35 36L34 36L34 35L33 35L33 36L32 36L32 33L34 33L34 31L33 31L33 30L34 30L34 29L35 29L35 28L36 28L36 27L35 27L35 28L34 28L34 27L33 27L33 26L34 26L34 25L33 25L33 24L32 24L32 23L31 23L31 22L30 22L30 20ZM55 20L55 21L56 21L56 20ZM7 22L7 23L8 23L8 22ZM9 22L9 23L10 23L10 22ZM52 23L52 24L53 24L53 25L54 25L54 24L53 24L53 23ZM18 24L18 26L19 26L19 24ZM26 24L26 25L27 25L27 26L30 26L30 25L27 25L27 24ZM45 24L45 25L46 25L46 24ZM9 25L9 26L10 26L10 25ZM15 26L15 29L14 29L14 30L15 30L15 29L16 29L16 26ZM45 26L45 27L46 27L46 28L47 28L47 27L46 27L46 26ZM0 27L0 30L1 30L1 27ZM6 27L6 28L7 28L7 27ZM12 27L12 29L11 29L11 31L12 31L12 29L13 29L13 27ZM32 27L32 28L33 28L33 29L34 29L34 28L33 28L33 27ZM20 28L20 29L21 29L21 28ZM23 28L23 30L24 30L24 31L25 31L25 32L27 32L27 31L28 31L28 30L27 30L27 31L26 31L26 30L25 30L25 29L26 29L26 28ZM27 28L27 29L28 29L28 28ZM49 28L49 29L50 29L50 28ZM57 28L57 29L58 29L58 30L57 30L57 31L58 31L58 30L59 30L59 31L60 31L60 30L59 30L59 29L58 29L58 28ZM5 29L5 32L8 32L8 29ZM29 29L29 32L32 32L32 29ZM53 29L53 32L56 32L56 29ZM6 30L6 31L7 31L7 30ZM30 30L30 31L31 31L31 30ZM54 30L54 31L55 31L55 30ZM14 33L14 34L15 34L15 33ZM24 33L24 34L25 34L25 35L24 35L24 38L26 38L26 39L28 39L28 40L29 40L29 39L28 39L28 38L29 38L29 37L30 37L30 36L31 36L31 39L30 39L30 40L31 40L31 41L32 41L32 40L33 40L33 41L34 41L34 40L35 40L35 41L36 41L36 40L35 40L35 39L36 39L36 38L37 38L37 39L38 39L38 40L39 40L39 41L40 41L40 40L39 40L39 39L40 39L40 38L41 38L41 37L40 37L40 34L39 34L39 35L38 35L38 34L37 34L37 35L36 35L36 36L35 36L35 37L34 37L34 36L33 36L33 37L32 37L32 36L31 36L31 35L30 35L30 33L27 33L27 35L26 35L26 33ZM51 33L51 34L52 34L52 35L53 35L53 34L52 34L52 33ZM6 34L6 35L7 35L7 36L6 36L6 37L7 37L7 38L6 38L6 39L4 39L4 40L3 40L3 41L4 41L4 40L6 40L6 41L8 41L8 40L6 40L6 39L7 39L7 38L8 38L8 39L9 39L9 38L8 38L8 37L7 37L7 36L8 36L8 35L7 35L7 34ZM28 34L28 35L27 35L27 36L26 36L26 35L25 35L25 36L26 36L26 38L27 38L27 36L28 36L28 37L29 37L29 36L30 36L30 35L29 35L29 34ZM59 34L59 35L60 35L60 34ZM0 35L0 37L1 37L1 35ZM28 35L28 36L29 36L29 35ZM11 36L11 37L12 37L12 36ZM36 36L36 37L35 37L35 38L36 38L36 37L37 37L37 38L38 38L38 37L39 37L39 38L40 38L40 37L39 37L39 36ZM33 37L33 38L34 38L34 37ZM31 39L31 40L32 40L32 39ZM33 39L33 40L34 40L34 39ZM41 39L41 40L42 40L42 39ZM57 39L57 40L58 40L58 39ZM13 41L13 42L14 42L14 41ZM47 41L47 42L46 42L46 43L47 43L47 42L48 42L48 41ZM52 41L52 42L54 42L54 41ZM6 42L6 43L7 43L7 42ZM5 44L5 45L4 45L4 46L5 46L5 48L6 48L6 47L7 47L7 46L6 46L6 45L7 45L7 44ZM33 44L33 45L34 45L34 44ZM41 44L41 45L42 45L42 44ZM52 44L52 45L53 45L53 44ZM12 45L12 46L11 46L11 48L10 48L10 49L11 49L11 52L12 52L12 46L13 46L13 45ZM57 45L57 46L58 46L58 45ZM13 48L13 49L14 49L14 48ZM42 48L42 49L43 49L43 48ZM49 48L49 49L50 49L50 48ZM16 49L16 50L17 50L17 51L16 51L16 52L15 52L15 53L16 53L16 54L15 54L15 55L16 55L16 54L17 54L17 53L18 53L18 52L19 52L19 51L18 51L18 50L17 50L17 49ZM59 50L59 51L60 51L60 50ZM3 51L3 52L4 52L4 51ZM17 51L17 52L18 52L18 51ZM39 51L39 52L40 52L40 53L41 53L41 52L42 52L42 51ZM35 52L35 53L36 53L36 52ZM50 52L50 53L51 53L51 52ZM9 53L9 54L10 54L10 53ZM29 53L29 56L32 56L32 53ZM53 53L53 56L56 56L56 53ZM18 54L18 55L20 55L20 54ZM30 54L30 55L31 55L31 54ZM54 54L54 55L55 55L55 54ZM57 54L57 55L58 55L58 56L57 56L57 57L60 57L60 56L59 56L59 55L58 55L58 54ZM18 56L18 59L17 59L17 60L19 60L19 56ZM27 56L27 57L28 57L28 58L27 58L27 59L26 59L26 60L27 60L27 59L28 59L28 58L29 58L29 57L28 57L28 56ZM39 56L39 57L40 57L40 56ZM51 56L51 58L52 58L52 56ZM20 57L20 58L21 58L21 59L23 59L23 58L22 58L22 57ZM54 57L54 58L53 58L53 59L54 59L54 58L55 58L55 59L56 59L56 60L57 60L57 59L56 59L56 58L55 58L55 57ZM10 58L10 59L9 59L9 60L10 60L10 59L11 59L11 58ZM0 0L0 7L7 7L7 0ZM1 1L1 6L6 6L6 1ZM2 2L2 5L5 5L5 2ZM54 0L54 7L61 7L61 0ZM55 1L55 6L60 6L60 1ZM56 2L56 5L59 5L59 2ZM0 54L0 61L7 61L7 54ZM1 55L1 60L6 60L6 55ZM2 56L2 59L5 59L5 56Z" fill="#000000"/></g></g></svg>
