<?xml version="1.0" encoding="UTF-8"?>
<svg xmlns="http://www.w3.org/2000/svg" version="1.1" width="180" height="180" viewBox="0 0 180 180"><rect x="0" y="0" width="180" height="180" fill="#ffffff"/><g transform="scale(3.673)"><g transform="translate(0,0)"><path fill-rule="evenodd" d="M9 0L9 1L11 1L11 2L8 2L8 3L9 3L9 4L10 4L10 5L9 5L9 6L8 6L8 8L4 8L4 9L3 9L3 8L0 8L0 10L2 10L2 11L0 11L0 15L1 15L1 16L0 16L0 19L1 19L1 21L0 21L0 23L1 23L1 21L2 21L2 20L3 20L3 19L4 19L4 20L6 20L6 21L7 21L7 22L5 22L5 21L3 21L3 22L4 22L4 25L3 25L3 23L2 23L2 25L1 25L1 26L2 26L2 27L0 27L0 28L1 28L1 29L0 29L0 30L1 30L1 31L0 31L0 32L2 32L2 35L1 35L1 33L0 33L0 35L1 35L1 36L0 36L0 37L1 37L1 36L2 36L2 38L1 38L1 40L0 40L0 41L3 41L3 40L4 40L4 39L2 39L2 38L5 38L5 39L8 39L8 40L6 40L6 41L8 41L8 45L9 45L9 46L8 46L8 49L9 49L9 47L10 47L10 49L12 49L12 47L13 47L13 48L14 48L14 49L19 49L19 48L20 48L20 47L21 47L21 48L22 48L22 49L23 49L23 48L24 48L24 49L25 49L25 46L26 46L26 45L27 45L27 44L28 44L28 45L29 45L29 46L30 46L30 45L33 45L33 44L36 44L36 45L35 45L35 46L36 46L36 47L35 47L35 48L34 48L34 47L33 47L33 46L31 46L31 48L30 48L30 49L31 49L31 48L32 48L32 49L33 49L33 48L34 48L34 49L37 49L37 48L38 48L38 47L37 47L37 46L38 46L38 45L39 45L39 46L40 46L40 47L39 47L39 48L40 48L40 49L41 49L41 48L42 48L42 47L43 47L43 48L44 48L44 49L46 49L46 47L47 47L47 49L49 49L49 48L48 48L48 47L47 47L47 46L46 46L46 45L45 45L45 44L46 44L46 43L47 43L47 44L48 44L48 46L49 46L49 44L48 44L48 43L49 43L49 41L47 41L47 42L46 42L46 41L45 41L45 40L46 40L46 39L47 39L47 38L48 38L48 39L49 39L49 38L48 38L48 37L49 37L49 36L48 36L48 35L49 35L49 33L47 33L47 34L46 34L46 33L45 33L45 34L44 34L44 33L43 33L43 34L37 34L37 35L35 35L35 34L36 34L36 33L37 33L37 32L38 32L38 33L39 33L39 32L38 32L38 31L37 31L37 30L38 30L38 29L39 29L39 30L40 30L40 31L41 31L41 32L40 32L40 33L41 33L41 32L44 32L44 31L45 31L45 30L44 30L44 29L45 29L45 28L46 28L46 27L47 27L47 26L48 26L48 27L49 27L49 25L47 25L47 26L46 26L46 25L45 25L45 23L46 23L46 22L48 22L48 23L47 23L47 24L49 24L49 20L48 20L48 19L49 19L49 16L48 16L48 15L49 15L49 12L48 12L48 11L49 11L49 9L48 9L48 10L46 10L46 9L47 9L47 8L46 8L46 9L43 9L43 8L41 8L41 6L40 6L40 7L39 7L39 5L37 5L37 4L38 4L38 3L37 3L37 4L36 4L36 3L35 3L35 1L37 1L37 2L39 2L39 4L40 4L40 3L41 3L41 0L40 0L40 1L38 1L38 0L34 0L34 3L33 3L33 4L32 4L32 5L31 5L31 4L26 4L26 3L25 3L25 4L23 4L23 3L22 3L22 2L25 2L25 1L26 1L26 2L27 2L27 3L28 3L28 2L27 2L27 1L29 1L29 2L30 2L30 3L31 3L31 2L32 2L32 1L33 1L33 0L32 0L32 1L31 1L31 0L30 0L30 1L29 1L29 0L24 0L24 1L23 1L23 0L20 0L20 1L18 1L18 2L17 2L17 0L16 0L16 1L15 1L15 2L14 2L14 1L13 1L13 2L14 2L14 3L12 3L12 5L13 5L13 6L12 6L12 9L14 9L14 10L12 10L12 11L11 11L11 9L10 9L10 7L11 7L11 2L12 2L12 0ZM20 1L20 2L19 2L19 3L18 3L18 6L17 6L17 5L16 5L16 4L15 4L15 3L17 3L17 2L15 2L15 3L14 3L14 4L13 4L13 5L14 5L14 6L13 6L13 7L14 7L14 8L15 8L15 7L16 7L16 10L14 10L14 11L16 11L16 12L14 12L14 14L13 14L13 12L12 12L12 15L10 15L10 16L9 16L9 15L8 15L8 14L7 14L7 13L9 13L9 14L11 14L11 12L10 12L10 11L9 11L9 10L8 10L8 9L6 9L6 10L5 10L5 9L4 9L4 10L3 10L3 11L2 11L2 12L1 12L1 13L2 13L2 14L1 14L1 15L2 15L2 16L1 16L1 17L2 17L2 19L3 19L3 18L4 18L4 19L6 19L6 20L8 20L8 22L9 22L9 27L8 27L8 28L7 28L7 27L6 27L6 28L7 28L7 29L5 29L5 27L4 27L4 26L3 26L3 25L2 25L2 26L3 26L3 28L2 28L2 29L1 29L1 30L2 30L2 29L3 29L3 31L2 31L2 32L3 32L3 33L4 33L4 32L8 32L8 30L7 30L7 29L8 29L8 28L10 28L10 29L13 29L13 24L14 24L14 23L16 23L16 24L15 24L15 26L14 26L14 27L15 27L15 28L14 28L14 31L16 31L16 32L15 32L15 34L16 34L16 35L14 35L14 34L13 34L13 38L12 38L12 33L13 33L13 32L10 32L10 34L11 34L11 39L10 39L10 40L8 40L8 41L9 41L9 45L10 45L10 46L11 46L11 44L10 44L10 42L11 42L11 41L12 41L12 42L13 42L13 41L14 41L14 40L15 40L15 42L14 42L14 43L18 43L18 44L14 44L14 46L13 46L13 45L12 45L12 46L13 46L13 47L14 47L14 48L15 48L15 47L16 47L16 48L17 48L17 47L18 47L18 48L19 48L19 47L20 47L20 46L21 46L21 47L23 47L23 46L22 46L22 44L21 44L21 43L22 43L22 40L23 40L23 39L22 39L22 38L27 38L27 40L28 40L28 38L29 38L29 39L30 39L30 40L29 40L29 41L27 41L27 43L28 43L28 42L29 42L29 43L30 43L30 44L29 44L29 45L30 45L30 44L32 44L32 42L33 42L33 43L37 43L37 42L38 42L38 44L37 44L37 45L36 45L36 46L37 46L37 45L38 45L38 44L39 44L39 45L40 45L40 44L39 44L39 43L40 43L40 42L39 42L39 41L40 41L40 40L41 40L41 39L42 39L42 38L43 38L43 37L44 37L44 38L47 38L47 37L48 37L48 36L47 36L47 35L48 35L48 34L47 34L47 35L46 35L46 34L45 34L45 35L44 35L44 34L43 34L43 35L44 35L44 36L43 36L43 37L42 37L42 36L41 36L41 35L38 35L38 36L37 36L37 37L36 37L36 36L35 36L35 35L34 35L34 34L35 34L35 33L36 33L36 32L33 32L33 33L32 33L32 32L31 32L31 31L32 31L32 30L33 30L33 31L36 31L36 30L37 30L37 29L38 29L38 28L39 28L39 29L40 29L40 30L41 30L41 31L42 31L42 30L43 30L43 31L44 31L44 30L43 30L43 29L44 29L44 28L45 28L45 27L46 27L46 26L45 26L45 27L44 27L44 28L43 28L43 29L42 29L42 28L41 28L41 27L40 27L40 26L39 26L39 25L40 25L40 24L39 24L39 23L40 23L40 22L43 22L43 21L44 21L44 22L46 22L46 21L48 21L48 20L47 20L47 19L48 19L48 18L47 18L47 17L48 17L48 16L47 16L47 15L48 15L48 14L45 14L45 13L48 13L48 12L47 12L47 11L46 11L46 10L43 10L43 9L42 9L42 10L41 10L41 8L39 8L39 7L38 7L38 6L37 6L37 5L36 5L36 4L35 4L35 3L34 3L34 4L33 4L33 5L34 5L34 4L35 4L35 5L36 5L36 6L35 6L35 7L34 7L34 6L33 6L33 7L34 7L34 8L33 8L33 9L32 9L32 8L31 8L31 7L32 7L32 6L31 6L31 7L30 7L30 6L29 6L29 5L27 5L27 7L28 7L28 6L29 6L29 7L30 7L30 8L29 8L29 9L28 9L28 10L27 10L27 9L26 9L26 10L24 10L24 9L22 9L22 6L21 6L21 5L22 5L22 4L21 4L21 5L20 5L20 4L19 4L19 3L20 3L20 2L21 2L21 1ZM14 4L14 5L15 5L15 6L14 6L14 7L15 7L15 6L16 6L16 7L17 7L17 8L18 8L18 9L17 9L17 10L16 10L16 11L17 11L17 12L18 12L18 15L17 15L17 14L16 14L16 13L15 13L15 14L16 14L16 15L13 15L13 16L12 16L12 17L11 17L11 18L10 18L10 17L9 17L9 16L8 16L8 15L7 15L7 14L6 14L6 13L7 13L7 12L6 12L6 11L8 11L8 12L9 12L9 13L10 13L10 12L9 12L9 11L8 11L8 10L6 10L6 11L5 11L5 10L4 10L4 11L3 11L3 12L2 12L2 13L3 13L3 15L4 15L4 18L6 18L6 19L7 19L7 18L6 18L6 17L9 17L9 18L8 18L8 19L9 19L9 22L10 22L10 19L12 19L12 17L13 17L13 18L14 18L14 19L17 19L17 20L18 20L18 21L17 21L17 22L16 22L16 21L15 21L15 20L14 20L14 21L15 21L15 22L16 22L16 23L17 23L17 24L18 24L18 25L17 25L17 26L20 26L20 27L16 27L16 28L18 28L18 29L17 29L17 30L16 30L16 29L15 29L15 30L16 30L16 31L17 31L17 32L18 32L18 33L17 33L17 34L20 34L20 35L16 35L16 36L18 36L18 37L17 37L17 38L16 38L16 37L15 37L15 36L14 36L14 37L15 37L15 38L13 38L13 39L12 39L12 40L13 40L13 39L15 39L15 40L16 40L16 39L17 39L17 40L18 40L18 41L17 41L17 42L18 42L18 43L19 43L19 44L18 44L18 45L17 45L17 46L16 46L16 45L15 45L15 46L14 46L14 47L15 47L15 46L16 46L16 47L17 47L17 46L18 46L18 47L19 47L19 46L20 46L20 43L21 43L21 42L20 42L20 41L19 41L19 40L20 40L20 39L19 39L19 38L20 38L20 35L22 35L22 36L21 36L21 38L22 38L22 37L24 37L24 35L26 35L26 37L27 37L27 38L28 38L28 37L29 37L29 38L30 38L30 37L31 37L31 40L30 40L30 41L31 41L31 42L30 42L30 43L31 43L31 42L32 42L32 41L33 41L33 42L34 42L34 41L33 41L33 40L35 40L35 41L37 41L37 40L38 40L38 41L39 41L39 40L38 40L38 39L37 39L37 38L38 38L38 37L39 37L39 38L40 38L40 37L41 37L41 38L42 38L42 37L41 37L41 36L40 36L40 37L39 37L39 36L38 36L38 37L37 37L37 38L36 38L36 37L35 37L35 36L34 36L34 35L33 35L33 34L34 34L34 33L33 33L33 34L32 34L32 33L31 33L31 32L30 32L30 31L29 31L29 30L30 30L30 29L31 29L31 30L32 30L32 29L33 29L33 28L34 28L34 27L35 27L35 28L36 28L36 29L35 29L35 30L36 30L36 29L37 29L37 28L38 28L38 27L37 27L37 26L38 26L38 25L39 25L39 24L38 24L38 23L37 23L37 22L38 22L38 21L39 21L39 22L40 22L40 19L41 19L41 20L42 20L42 21L43 21L43 20L44 20L44 21L45 21L45 20L46 20L46 19L47 19L47 18L46 18L46 17L45 17L45 16L44 16L44 15L45 15L45 14L44 14L44 13L45 13L45 12L46 12L46 11L43 11L43 12L42 12L42 11L41 11L41 10L40 10L40 9L39 9L39 8L38 8L38 7L37 7L37 6L36 6L36 9L35 9L35 8L34 8L34 9L33 9L33 10L32 10L32 9L31 9L31 8L30 8L30 9L29 9L29 10L28 10L28 12L27 12L27 11L24 11L24 10L20 10L20 9L19 9L19 8L20 8L20 7L21 7L21 6L20 6L20 7L19 7L19 6L18 6L18 7L17 7L17 6L16 6L16 5L15 5L15 4ZM23 5L23 8L26 8L26 5ZM9 6L9 7L10 7L10 6ZM24 6L24 7L25 7L25 6ZM18 7L18 8L19 8L19 7ZM37 8L37 9L36 9L36 10L35 10L35 9L34 9L34 12L33 12L33 11L32 11L32 10L31 10L31 9L30 9L30 10L29 10L29 13L26 13L26 12L25 12L25 14L26 14L26 16L25 16L25 17L23 17L23 15L24 15L24 13L23 13L23 11L20 11L20 10L19 10L19 11L20 11L20 14L19 14L19 15L18 15L18 16L17 16L17 15L16 15L16 16L15 16L15 17L16 17L16 18L17 18L17 19L18 19L18 20L19 20L19 19L20 19L20 22L21 22L21 20L22 20L22 21L23 21L23 22L27 22L27 23L28 23L28 22L27 22L27 21L26 21L26 20L27 20L27 19L26 19L26 18L29 18L29 23L30 23L30 24L29 24L29 25L27 25L27 26L29 26L29 27L28 27L28 28L31 28L31 29L32 29L32 26L33 26L33 27L34 27L34 26L35 26L35 27L36 27L36 26L37 26L37 25L38 25L38 24L37 24L37 25L36 25L36 22L37 22L37 21L38 21L38 20L39 20L39 19L40 19L40 18L41 18L41 19L42 19L42 20L43 20L43 19L46 19L46 18L43 18L43 17L44 17L44 16L43 16L43 15L44 15L44 14L43 14L43 13L44 13L44 12L43 12L43 13L42 13L42 12L41 12L41 11L40 11L40 10L39 10L39 9L38 9L38 8ZM37 9L37 10L36 10L36 11L35 11L35 12L34 12L34 13L35 13L35 14L36 14L36 15L35 15L35 16L34 16L34 14L32 14L32 13L33 13L33 12L32 12L32 11L30 11L30 12L31 12L31 14L32 14L32 15L31 15L31 16L30 16L30 15L29 15L29 14L28 14L28 15L27 15L27 16L26 16L26 17L27 17L27 16L28 16L28 17L29 17L29 18L30 18L30 17L31 17L31 18L32 18L32 19L30 19L30 20L32 20L32 21L31 21L31 22L33 22L33 23L31 23L31 24L30 24L30 25L29 25L29 26L30 26L30 25L31 25L31 26L32 26L32 25L33 25L33 26L34 26L34 25L35 25L35 26L36 26L36 25L35 25L35 24L34 24L34 22L33 22L33 18L34 18L34 17L35 17L35 18L38 18L38 17L39 17L39 18L40 18L40 17L39 17L39 16L38 16L38 15L37 15L37 14L38 14L38 13L37 13L37 12L40 12L40 13L39 13L39 14L40 14L40 13L41 13L41 14L42 14L42 13L41 13L41 12L40 12L40 11L37 11L37 10L38 10L38 9ZM17 10L17 11L18 11L18 10ZM4 12L4 13L5 13L5 12ZM21 12L21 14L20 14L20 15L19 15L19 16L18 16L18 17L17 17L17 18L18 18L18 19L19 19L19 18L20 18L20 19L21 19L21 18L22 18L22 15L23 15L23 14L22 14L22 12ZM35 12L35 13L36 13L36 14L37 14L37 13L36 13L36 12ZM5 14L5 17L6 17L6 16L7 16L7 15L6 15L6 14ZM21 14L21 15L20 15L20 16L19 16L19 17L20 17L20 18L21 18L21 15L22 15L22 14ZM41 15L41 16L42 16L42 17L41 17L41 18L42 18L42 17L43 17L43 16L42 16L42 15ZM29 16L29 17L30 17L30 16ZM31 16L31 17L32 17L32 18L33 18L33 17L34 17L34 16L33 16L33 17L32 17L32 16ZM35 16L35 17L36 17L36 16ZM37 16L37 17L38 17L38 16ZM9 18L9 19L10 19L10 18ZM23 19L23 21L25 21L25 20L26 20L26 19ZM35 19L35 20L34 20L34 21L35 21L35 22L36 22L36 21L37 21L37 20L38 20L38 19ZM11 20L11 22L13 22L13 23L14 23L14 22L13 22L13 21L12 21L12 20ZM35 20L35 21L36 21L36 20ZM18 21L18 22L17 22L17 23L18 23L18 24L19 24L19 25L20 25L20 26L21 26L21 25L22 25L22 24L20 24L20 23L18 23L18 22L19 22L19 21ZM5 23L5 26L8 26L8 23ZM23 23L23 26L26 26L26 23ZM41 23L41 26L44 26L44 23ZM6 24L6 25L7 25L7 24ZM10 24L10 26L11 26L11 25L12 25L12 24ZM24 24L24 25L25 25L25 24ZM31 24L31 25L32 25L32 24ZM33 24L33 25L34 25L34 24ZM42 24L42 25L43 25L43 24ZM10 27L10 28L12 28L12 27ZM20 27L20 28L19 28L19 29L18 29L18 30L17 30L17 31L18 31L18 32L19 32L19 33L20 33L20 34L21 34L21 33L22 33L22 34L27 34L27 32L25 32L25 31L24 31L24 30L27 30L27 31L28 31L28 30L29 30L29 29L28 29L28 30L27 30L27 28L26 28L26 29L25 29L25 28L23 28L23 27L22 27L22 28L23 28L23 31L22 31L22 30L21 30L21 27ZM3 28L3 29L4 29L4 28ZM40 28L40 29L41 29L41 30L42 30L42 29L41 29L41 28ZM47 28L47 29L46 29L46 30L48 30L48 31L47 31L47 32L49 32L49 30L48 30L48 28ZM19 29L19 30L18 30L18 31L19 31L19 30L20 30L20 31L21 31L21 32L22 32L22 33L23 33L23 32L22 32L22 31L21 31L21 30L20 30L20 29ZM4 30L4 31L3 31L3 32L4 32L4 31L5 31L5 30ZM6 30L6 31L7 31L7 30ZM9 30L9 31L10 31L10 30ZM11 30L11 31L12 31L12 30ZM29 32L29 33L28 33L28 34L29 34L29 35L30 35L30 36L29 36L29 37L30 37L30 36L31 36L31 37L32 37L32 38L33 38L33 39L35 39L35 40L36 40L36 38L35 38L35 37L32 37L32 36L31 36L31 35L32 35L32 34L31 34L31 33L30 33L30 32ZM6 33L6 34L3 34L3 36L5 36L5 38L8 38L8 36L9 36L9 33ZM29 33L29 34L30 34L30 33ZM6 34L6 35L5 35L5 36L6 36L6 37L7 37L7 36L8 36L8 34ZM6 35L6 36L7 36L7 35ZM45 35L45 36L46 36L46 35ZM27 36L27 37L28 37L28 36ZM15 38L15 39L16 39L16 38ZM17 38L17 39L18 39L18 40L19 40L19 39L18 39L18 38ZM21 39L21 40L22 40L22 39ZM24 39L24 40L26 40L26 39ZM44 39L44 40L45 40L45 39ZM10 40L10 41L11 41L11 40ZM31 40L31 41L32 41L32 40ZM23 41L23 44L26 44L26 41ZM41 41L41 44L44 44L44 41ZM19 42L19 43L20 43L20 42ZM24 42L24 43L25 43L25 42ZM42 42L42 43L43 43L43 42ZM45 42L45 43L46 43L46 42ZM47 42L47 43L48 43L48 42ZM12 43L12 44L13 44L13 43ZM41 45L41 47L40 47L40 48L41 48L41 47L42 47L42 46L43 46L43 47L44 47L44 48L45 48L45 47L46 47L46 46L45 46L45 47L44 47L44 46L43 46L43 45ZM27 46L27 49L29 49L29 47L28 47L28 46ZM0 0L0 7L7 7L7 0ZM1 1L1 6L6 6L6 1ZM2 2L2 5L5 5L5 2ZM42 0L42 7L49 7L49 0ZM43 1L43 6L48 6L48 1ZM44 2L44 5L47 5L47 2ZM0 42L0 49L7 49L7 42ZM1 43L1 48L6 48L6 43ZM2 44L2 47L5 47L5 44Z" fill="#000000"/></g></g></svg>
