<?xml version="1.0" encoding="UTF-8"?>
<svg xmlns="http://www.w3.org/2000/svg" version="1.1" width="170" height="170" viewBox="0 0 170 170"><rect x="0" y="0" width="170" height="170" fill="#ffffff"/><g transform="scale(2.787)"><g transform="translate(0,0)"><path fill-rule="evenodd" d="M8 0L8 1L12 1L12 3L11 3L11 2L8 2L8 5L9 5L9 6L8 6L8 7L9 7L9 6L10 6L10 9L9 9L9 8L8 8L8 9L7 9L7 8L6 8L6 9L4 9L4 8L0 8L0 9L1 9L1 11L0 11L0 12L2 12L2 13L1 13L1 14L0 14L0 20L1 20L1 17L2 17L2 18L3 18L3 19L4 19L4 18L5 18L5 17L7 17L7 16L6 16L6 15L7 15L7 14L8 14L8 15L9 15L9 16L8 16L8 18L6 18L6 19L9 19L9 20L10 20L10 19L9 19L9 16L10 16L10 17L11 17L11 19L12 19L12 18L13 18L13 19L15 19L15 20L14 20L14 21L15 21L15 22L13 22L13 23L12 23L12 21L13 21L13 20L11 20L11 22L10 22L10 23L7 23L7 22L6 22L6 21L8 21L8 20L6 20L6 21L5 21L5 20L4 20L4 22L3 22L3 21L2 21L2 22L1 22L1 23L2 23L2 24L1 24L1 25L2 25L2 24L3 24L3 25L4 25L4 26L2 26L2 27L1 27L1 26L0 26L0 28L1 28L1 29L0 29L0 30L1 30L1 31L0 31L0 33L1 33L1 34L2 34L2 35L1 35L1 37L0 37L0 40L1 40L1 39L3 39L3 40L2 40L2 41L3 41L3 43L2 43L2 42L1 42L1 41L0 41L0 42L1 42L1 43L0 43L0 45L2 45L2 44L3 44L3 45L5 45L5 46L4 46L4 48L3 48L3 49L2 49L2 47L3 47L3 46L2 46L2 47L1 47L1 46L0 46L0 48L1 48L1 50L2 50L2 51L0 51L0 53L4 53L4 52L5 52L5 51L7 51L7 50L8 50L8 49L9 49L9 50L10 50L10 49L11 49L11 52L14 52L14 51L12 51L12 48L13 48L13 46L15 46L15 44L16 44L16 43L17 43L17 44L18 44L18 43L20 43L20 44L19 44L19 46L16 46L16 47L18 47L18 49L16 49L16 48L15 48L15 47L14 47L14 49L13 49L13 50L14 50L14 49L15 49L15 50L17 50L17 51L16 51L16 54L15 54L15 53L13 53L13 55L14 55L14 56L13 56L13 57L10 57L10 58L9 58L9 57L8 57L8 61L9 61L9 60L10 60L10 61L13 61L13 60L14 60L14 61L15 61L15 59L14 59L14 56L15 56L15 58L16 58L16 56L17 56L17 52L18 52L18 51L20 51L20 50L22 50L22 51L21 51L21 52L22 52L22 51L24 51L24 53L23 53L23 56L22 56L22 57L20 57L20 56L21 56L21 55L22 55L22 54L21 54L21 55L20 55L20 56L19 56L19 57L17 57L17 59L16 59L16 60L17 60L17 61L21 61L21 59L20 59L20 60L17 60L17 59L18 59L18 58L22 58L22 60L23 60L23 59L24 59L24 58L25 58L25 61L26 61L26 60L27 60L27 59L26 59L26 58L25 58L25 56L24 56L24 55L27 55L27 56L26 56L26 57L27 57L27 56L28 56L28 58L29 58L29 57L30 57L30 58L31 58L31 57L35 57L35 58L32 58L32 59L31 59L31 60L30 60L30 61L32 61L32 60L34 60L34 59L35 59L35 58L37 58L37 59L38 59L38 61L39 61L39 59L38 59L38 58L37 58L37 57L39 57L39 58L41 58L41 59L40 59L40 60L41 60L41 59L43 59L43 60L42 60L42 61L43 61L43 60L45 60L45 61L46 61L46 60L47 60L47 58L46 58L46 57L45 57L45 58L44 58L44 59L43 59L43 57L44 57L44 56L43 56L43 57L42 57L42 58L41 58L41 56L42 56L42 55L43 55L43 54L44 54L44 53L45 53L45 52L46 52L46 51L44 51L44 50L45 50L45 49L46 49L46 48L48 48L48 49L47 49L47 50L48 50L48 49L49 49L49 51L48 51L48 52L47 52L47 53L46 53L46 54L45 54L45 55L46 55L46 56L49 56L49 57L48 57L48 58L49 58L49 57L51 57L51 56L49 56L49 55L47 55L47 53L48 53L48 54L50 54L50 53L51 53L51 52L50 52L50 51L51 51L51 49L52 49L52 47L54 47L54 49L53 49L53 50L52 50L52 51L53 51L53 50L54 50L54 49L56 49L56 50L55 50L55 51L56 51L56 50L57 50L57 49L59 49L59 50L61 50L61 47L60 47L60 46L59 46L59 47L58 47L58 48L56 48L56 47L57 47L57 46L58 46L58 45L57 45L57 43L56 43L56 41L55 41L55 42L54 42L54 44L55 44L55 45L54 45L54 46L52 46L52 45L53 45L53 43L52 43L52 45L51 45L51 46L52 46L52 47L51 47L51 49L49 49L49 48L50 48L50 46L49 46L49 45L50 45L50 44L51 44L51 42L53 42L53 41L54 41L54 40L53 40L53 41L51 41L51 40L50 40L50 39L51 39L51 37L52 37L52 36L53 36L53 35L54 35L54 37L53 37L53 38L54 38L54 37L55 37L55 36L56 36L56 38L55 38L55 39L56 39L56 38L57 38L57 36L56 36L56 35L54 35L54 34L55 34L55 33L57 33L57 31L58 31L58 30L60 30L60 31L61 31L61 29L60 29L60 28L61 28L61 27L60 27L60 28L58 28L58 30L57 30L57 27L56 27L56 26L60 26L60 25L59 25L59 23L58 23L58 24L57 24L57 22L58 22L58 21L57 21L57 22L56 22L56 23L55 23L55 21L56 21L56 20L55 20L55 21L54 21L54 23L55 23L55 24L54 24L54 25L53 25L53 23L50 23L50 22L49 22L49 21L51 21L51 22L52 22L52 20L49 20L49 18L48 18L48 19L47 19L47 20L46 20L46 21L45 21L45 22L44 22L44 23L43 23L43 21L44 21L44 20L43 20L43 21L42 21L42 22L41 22L41 23L43 23L43 24L42 24L42 25L40 25L40 23L39 23L39 25L38 25L38 27L37 27L37 24L38 24L38 23L36 23L36 25L35 25L35 26L36 26L36 30L34 30L34 28L35 28L35 27L33 27L33 28L32 28L32 26L34 26L34 25L31 25L31 27L30 27L30 28L28 28L28 27L29 27L29 26L30 26L30 25L29 25L29 24L30 24L30 21L32 21L32 23L31 23L31 24L32 24L32 23L34 23L34 24L35 24L35 23L34 23L34 21L35 21L35 22L38 22L38 21L39 21L39 20L40 20L40 21L41 21L41 20L42 20L42 18L41 18L41 17L42 17L42 16L43 16L43 15L44 15L44 17L43 17L43 19L44 19L44 18L45 18L45 19L46 19L46 18L47 18L47 17L48 17L48 15L49 15L49 16L50 16L50 17L51 17L51 16L50 16L50 15L52 15L52 18L50 18L50 19L52 19L52 18L53 18L53 17L54 17L54 16L55 16L55 14L54 14L54 13L55 13L55 12L57 12L57 13L56 13L56 14L57 14L57 13L59 13L59 11L60 11L60 12L61 12L61 11L60 11L60 10L59 10L59 8L56 8L56 9L58 9L58 10L56 10L56 11L55 11L55 9L54 9L54 8L53 8L53 9L54 9L54 10L53 10L53 11L52 11L52 10L51 10L51 11L50 11L50 13L49 13L49 11L48 11L48 8L49 8L49 10L50 10L50 8L51 8L51 9L52 9L52 7L53 7L53 6L52 6L52 7L51 7L51 5L52 5L52 4L53 4L53 0L51 0L51 2L50 2L50 0L47 0L47 2L46 2L46 3L45 3L45 2L44 2L44 0L42 0L42 2L43 2L43 3L42 3L42 4L41 4L41 2L40 2L40 0L39 0L39 2L40 2L40 5L39 5L39 3L38 3L38 0L36 0L36 1L34 1L34 0L32 0L32 2L31 2L31 0L30 0L30 2L29 2L29 1L28 1L28 0L27 0L27 1L26 1L26 2L25 2L25 1L24 1L24 0L23 0L23 2L22 2L22 3L20 3L20 2L19 2L19 3L18 3L18 1L17 1L17 2L16 2L16 0L15 0L15 1L14 1L14 0L13 0L13 1L12 1L12 0ZM19 0L19 1L20 1L20 0ZM21 0L21 1L22 1L22 0ZM45 0L45 1L46 1L46 0ZM27 1L27 2L26 2L26 3L22 3L22 4L21 4L21 5L20 5L20 3L19 3L19 5L20 5L20 6L19 6L19 10L18 10L18 9L16 9L16 8L17 8L17 7L18 7L18 6L17 6L17 7L16 7L16 5L18 5L18 4L16 4L16 2L13 2L13 4L14 4L14 5L15 5L15 7L14 7L14 6L13 6L13 8L12 8L12 4L11 4L11 3L9 3L9 4L10 4L10 5L11 5L11 8L12 8L12 9L10 9L10 10L9 10L9 9L8 9L8 12L7 12L7 11L6 11L6 12L4 12L4 13L5 13L5 14L4 14L4 17L3 17L3 16L2 16L2 17L3 17L3 18L4 18L4 17L5 17L5 14L7 14L7 13L9 13L9 15L10 15L10 16L11 16L11 17L12 17L12 16L14 16L14 18L15 18L15 17L16 17L16 18L17 18L17 17L19 17L19 19L18 19L18 21L17 21L17 20L15 20L15 21L16 21L16 22L15 22L15 23L14 23L14 24L12 24L12 23L10 23L10 24L12 24L12 25L11 25L11 26L12 26L12 25L13 25L13 27L12 27L12 29L16 29L16 28L18 28L18 29L17 29L17 31L18 31L18 32L17 32L17 33L16 33L16 35L15 35L15 32L14 32L14 30L12 30L12 31L11 31L11 32L10 32L10 33L8 33L8 35L9 35L9 36L10 36L10 35L9 35L9 34L10 34L10 33L12 33L12 34L13 34L13 35L14 35L14 36L12 36L12 35L11 35L11 36L12 36L12 37L10 37L10 38L8 38L8 39L6 39L6 38L7 38L7 37L8 37L8 36L7 36L7 35L5 35L5 41L4 41L4 40L3 40L3 41L4 41L4 42L7 42L7 43L5 43L5 44L8 44L8 45L6 45L6 46L5 46L5 49L3 49L3 50L5 50L5 49L6 49L6 50L7 50L7 49L6 49L6 48L7 48L7 47L6 47L6 46L8 46L8 45L10 45L10 47L9 47L9 49L10 49L10 48L12 48L12 46L13 46L13 45L14 45L14 44L15 44L15 43L16 43L16 41L15 41L15 40L14 40L14 41L15 41L15 43L14 43L14 44L13 44L13 43L12 43L12 46L11 46L11 43L10 43L10 42L11 42L11 40L13 40L13 39L11 39L11 40L10 40L10 41L9 41L9 40L8 40L8 39L10 39L10 38L12 38L12 37L13 37L13 38L14 38L14 39L16 39L16 40L17 40L17 43L18 43L18 42L19 42L19 41L18 41L18 40L21 40L21 41L20 41L20 43L22 43L22 44L23 44L23 46L22 46L22 45L20 45L20 46L19 46L19 47L20 47L20 48L19 48L19 50L20 50L20 48L21 48L21 47L24 47L24 48L25 48L25 49L24 49L24 51L25 51L25 52L27 52L27 53L28 53L28 52L29 52L29 51L31 51L31 52L33 52L33 51L34 51L34 53L33 53L33 56L36 56L36 57L37 57L37 56L39 56L39 57L40 57L40 56L39 56L39 55L38 55L38 54L39 54L39 53L41 53L41 51L40 51L40 50L41 50L41 46L42 46L42 45L43 45L43 49L42 49L42 50L44 50L44 49L45 49L45 48L46 48L46 46L48 46L48 47L49 47L49 46L48 46L48 45L49 45L49 44L50 44L50 43L48 43L48 44L47 44L47 43L46 43L46 41L50 41L50 42L51 42L51 41L50 41L50 40L49 40L49 39L50 39L50 37L51 37L51 34L52 34L52 35L53 35L53 33L52 33L52 30L51 30L51 29L52 29L52 28L53 28L53 27L54 27L54 28L55 28L55 27L54 27L54 26L56 26L56 25L57 25L57 24L55 24L55 25L54 25L54 26L53 26L53 25L52 25L52 26L51 26L51 27L50 27L50 28L51 28L51 29L50 29L50 30L48 30L48 29L49 29L49 28L48 28L48 27L49 27L49 25L47 25L47 24L48 24L48 23L49 23L49 22L48 22L48 21L49 21L49 20L47 20L47 21L46 21L46 22L45 22L45 24L43 24L43 25L42 25L42 26L41 26L41 28L40 28L40 29L39 29L39 28L37 28L37 30L36 30L36 31L35 31L35 32L34 32L34 31L33 31L33 33L28 33L28 31L27 31L27 30L28 30L28 29L27 29L27 30L25 30L25 28L26 28L26 27L27 27L27 26L26 26L26 25L25 25L25 22L26 22L26 23L28 23L28 22L29 22L29 21L30 21L30 20L32 20L32 21L33 21L33 20L36 20L36 21L38 21L38 18L40 18L40 20L41 20L41 18L40 18L40 17L41 17L41 16L42 16L42 14L44 14L44 15L48 15L48 14L47 14L47 13L48 13L48 11L47 11L47 12L46 12L46 10L47 10L47 9L46 9L46 6L47 6L47 7L48 7L48 6L49 6L49 8L50 8L50 5L49 5L49 4L50 4L50 3L49 3L49 4L48 4L48 2L47 2L47 3L46 3L46 4L45 4L45 3L43 3L43 4L42 4L42 5L40 5L40 6L39 6L39 8L38 8L38 5L37 5L37 4L35 4L35 5L36 5L36 6L35 6L35 7L34 7L34 5L33 5L33 7L34 7L34 8L33 8L33 9L31 9L31 10L30 10L30 9L29 9L29 10L28 10L28 5L27 5L27 3L29 3L29 4L33 4L33 2L32 2L32 3L31 3L31 2L30 2L30 3L29 3L29 2L28 2L28 1ZM36 1L36 2L37 2L37 1ZM34 2L34 3L35 3L35 2ZM51 3L51 4L52 4L52 3ZM22 4L22 7L23 7L23 8L22 8L22 9L21 9L21 10L19 10L19 12L18 12L18 13L17 13L17 11L18 11L18 10L17 10L17 11L16 11L16 12L15 12L15 10L16 10L16 9L15 9L15 10L14 10L14 11L13 11L13 9L14 9L14 8L13 8L13 9L12 9L12 11L10 11L10 12L9 12L9 13L11 13L11 14L12 14L12 15L11 15L11 16L12 16L12 15L13 15L13 14L14 14L14 16L15 16L15 14L16 14L16 13L17 13L17 14L18 14L18 15L16 15L16 16L19 16L19 17L20 17L20 16L19 16L19 15L21 15L21 13L22 13L22 15L23 15L23 14L24 14L24 15L26 15L26 17L25 17L25 18L23 18L23 17L21 17L21 19L20 19L20 20L19 20L19 21L21 21L21 22L20 22L20 23L19 23L19 24L18 24L18 22L16 22L16 23L17 23L17 24L16 24L16 25L17 25L17 24L18 24L18 25L19 25L19 27L18 27L18 28L19 28L19 29L18 29L18 30L19 30L19 31L20 31L20 30L19 30L19 29L20 29L20 28L21 28L21 29L22 29L22 28L23 28L23 29L24 29L24 28L25 28L25 27L26 27L26 26L25 26L25 27L24 27L24 28L23 28L23 26L24 26L24 25L22 25L22 24L24 24L24 23L22 23L22 24L21 24L21 25L22 25L22 26L20 26L20 25L19 25L19 24L20 24L20 23L21 23L21 22L23 22L23 20L24 20L24 22L25 22L25 21L26 21L26 22L27 22L27 21L29 21L29 20L30 20L30 19L32 19L32 20L33 20L33 19L34 19L34 18L35 18L35 17L36 17L36 18L37 18L37 17L36 17L36 15L35 15L35 17L34 17L34 18L33 18L33 16L32 16L32 17L28 17L28 18L27 18L27 16L28 16L28 15L27 15L27 14L29 14L29 15L30 15L30 16L31 16L31 15L32 15L32 14L31 14L31 15L30 15L30 13L29 13L29 12L28 12L28 11L26 11L26 8L27 8L27 6L26 6L26 5L25 5L25 6L24 6L24 7L23 7L23 4ZM44 4L44 5L42 5L42 7L41 7L41 6L40 6L40 9L39 9L39 12L40 12L40 9L41 9L41 8L42 8L42 7L43 7L43 6L44 6L44 7L45 7L45 6L44 6L44 5L45 5L45 4ZM47 4L47 5L48 5L48 4ZM29 5L29 8L32 8L32 5ZM20 6L20 8L21 8L21 6ZM25 6L25 7L24 7L24 8L23 8L23 10L22 10L22 11L20 11L20 12L19 12L19 13L20 13L20 12L22 12L22 13L24 13L24 14L27 14L27 12L26 12L26 11L25 11L25 10L24 10L24 8L25 8L25 7L26 7L26 6ZM30 6L30 7L31 7L31 6ZM36 6L36 7L35 7L35 8L34 8L34 9L36 9L36 10L34 10L34 11L35 11L35 12L36 12L36 13L38 13L38 14L40 14L40 16L39 16L39 17L40 17L40 16L41 16L41 14L42 14L42 13L43 13L43 12L45 12L45 13L44 13L44 14L45 14L45 13L46 13L46 12L45 12L45 10L44 10L44 11L43 11L43 9L44 9L44 8L43 8L43 9L42 9L42 10L41 10L41 11L43 11L43 12L42 12L42 13L41 13L41 14L40 14L40 13L38 13L38 10L37 10L37 9L38 9L38 8L37 8L37 9L36 9L36 7L37 7L37 6ZM60 8L60 9L61 9L61 8ZM2 9L2 11L3 11L3 10L4 10L4 9ZM6 9L6 10L7 10L7 9ZM23 10L23 11L22 11L22 12L23 12L23 11L24 11L24 10ZM29 10L29 11L30 11L30 10ZM31 10L31 13L33 13L33 14L34 14L34 12L33 12L33 11L32 11L32 10ZM36 10L36 12L37 12L37 10ZM51 11L51 12L52 12L52 11ZM53 11L53 13L52 13L52 15L53 15L53 16L54 16L54 14L53 14L53 13L54 13L54 12L55 12L55 11ZM6 12L6 13L7 13L7 12ZM12 12L12 13L14 13L14 14L15 14L15 12ZM25 12L25 13L26 13L26 12ZM60 13L60 14L61 14L61 13ZM2 14L2 15L3 15L3 14ZM58 14L58 15L56 15L56 17L55 17L55 18L56 18L56 17L57 17L57 16L58 16L58 18L59 18L59 17L60 17L60 19L59 19L59 20L60 20L60 19L61 19L61 17L60 17L60 16L61 16L61 15L60 15L60 16L58 16L58 15L59 15L59 14ZM45 16L45 18L46 18L46 16ZM22 18L22 19L21 19L21 21L22 21L22 20L23 20L23 18ZM25 18L25 19L24 19L24 20L26 20L26 21L27 21L27 20L29 20L29 18L28 18L28 19L27 19L27 18ZM32 18L32 19L33 19L33 18ZM26 19L26 20L27 20L27 19ZM36 19L36 20L37 20L37 19ZM53 19L53 20L54 20L54 19ZM2 22L2 23L3 23L3 22ZM4 22L4 25L6 25L6 26L4 26L4 27L5 27L5 28L7 28L7 27L6 27L6 26L8 26L8 25L6 25L6 24L7 24L7 23L5 23L5 22ZM46 22L46 24L47 24L47 23L48 23L48 22ZM60 23L60 24L61 24L61 23ZM27 24L27 25L28 25L28 24ZM50 24L50 25L51 25L51 24ZM9 25L9 27L10 27L10 25ZM14 25L14 27L13 27L13 28L14 28L14 27L17 27L17 26L15 26L15 25ZM39 25L39 27L40 27L40 25ZM44 25L44 26L42 26L42 28L41 28L41 29L40 29L40 33L39 33L39 34L40 34L40 33L42 33L42 34L41 34L41 35L40 35L40 38L39 38L39 37L38 37L38 36L37 36L37 35L36 35L36 36L34 36L34 35L33 35L33 37L32 37L32 38L31 38L31 39L30 39L30 40L29 40L29 41L30 41L30 43L31 43L31 41L33 41L33 42L32 42L32 44L31 44L31 45L33 45L33 43L34 43L34 45L35 45L35 46L34 46L34 47L35 47L35 48L33 48L33 46L32 46L32 49L31 49L31 48L30 48L30 49L29 49L29 50L28 50L28 49L27 49L27 50L28 50L28 51L27 51L27 52L28 52L28 51L29 51L29 50L31 50L31 51L33 51L33 50L32 50L32 49L35 49L35 51L36 51L36 52L37 52L37 51L38 51L38 52L39 52L39 49L40 49L40 48L39 48L39 46L37 46L37 45L35 45L35 43L38 43L38 44L39 44L39 45L40 45L40 46L41 46L41 44L42 44L42 43L40 43L40 42L41 42L41 41L42 41L42 40L43 40L43 39L44 39L44 41L43 41L43 42L44 42L44 41L45 41L45 39L44 39L44 38L45 38L45 37L46 37L46 36L47 36L47 35L48 35L48 37L47 37L47 38L48 38L48 39L49 39L49 36L50 36L50 35L48 35L48 34L49 34L49 33L47 33L47 34L46 34L46 33L45 33L45 34L44 34L44 31L43 31L43 33L42 33L42 31L41 31L41 29L42 29L42 28L43 28L43 27L44 27L44 29L43 29L43 30L44 30L44 29L45 29L45 28L46 28L46 25ZM44 26L44 27L45 27L45 26ZM52 26L52 27L53 27L53 26ZM2 27L2 29L1 29L1 30L2 30L2 31L1 31L1 33L2 33L2 34L5 34L5 33L4 33L4 30L3 30L3 27ZM21 27L21 28L22 28L22 27ZM9 28L9 29L10 29L10 30L9 30L9 31L10 31L10 30L11 30L11 29L10 29L10 28ZM47 28L47 29L46 29L46 30L45 30L45 31L46 31L46 32L47 32L47 29L48 29L48 28ZM5 29L5 32L8 32L8 29ZM29 29L29 32L32 32L32 29ZM38 29L38 30L39 30L39 29ZM53 29L53 32L56 32L56 29ZM6 30L6 31L7 31L7 30ZM15 30L15 31L16 31L16 30ZM22 30L22 32L21 32L21 34L20 34L20 33L19 33L19 34L18 34L18 33L17 33L17 35L16 35L16 37L17 37L17 38L16 38L16 39L20 39L20 38L21 38L21 37L22 37L22 39L21 39L21 40L22 40L22 39L23 39L23 41L25 41L25 40L26 40L26 41L27 41L27 43L25 43L25 42L24 42L24 43L23 43L23 44L24 44L24 43L25 43L25 44L28 44L28 45L26 45L26 47L25 47L25 48L26 48L26 47L27 47L27 48L28 48L28 46L29 46L29 47L30 47L30 44L28 44L28 43L29 43L29 42L28 42L28 41L27 41L27 40L26 40L26 38L30 38L30 36L32 36L32 35L31 35L31 34L30 34L30 36L29 36L29 35L28 35L28 36L27 36L27 37L26 37L26 35L27 35L27 33L26 33L26 32L27 32L27 31L26 31L26 32L25 32L25 31L23 31L23 30ZM30 30L30 31L31 31L31 30ZM50 30L50 31L48 31L48 32L51 32L51 30ZM54 30L54 31L55 31L55 30ZM2 31L2 33L3 33L3 31ZM36 31L36 32L37 32L37 31ZM38 31L38 32L39 32L39 31ZM12 32L12 33L13 33L13 32ZM22 32L22 34L21 34L21 35L20 35L20 34L19 34L19 35L18 35L18 36L19 36L19 38L20 38L20 36L22 36L22 37L23 37L23 39L25 39L25 38L26 38L26 37L25 37L25 36L22 36L22 35L23 35L23 33L24 33L24 34L25 34L25 35L26 35L26 33L25 33L25 32ZM59 32L59 33L58 33L58 34L57 34L57 35L58 35L58 37L59 37L59 35L60 35L60 34L59 34L59 33L61 33L61 32ZM6 33L6 34L7 34L7 33ZM33 33L33 34L34 34L34 33ZM35 33L35 34L36 34L36 33ZM37 33L37 34L38 34L38 33ZM43 34L43 35L41 35L41 37L42 37L42 38L40 38L40 39L38 39L38 37L36 37L36 41L35 41L35 42L37 42L37 40L38 40L38 42L40 42L40 41L41 41L41 40L42 40L42 39L43 39L43 38L44 38L44 37L45 37L45 36L46 36L46 34L45 34L45 36L43 36L43 35L44 35L44 34ZM58 34L58 35L59 35L59 34ZM3 35L3 36L2 36L2 37L3 37L3 39L4 39L4 35ZM19 35L19 36L20 36L20 35ZM6 36L6 37L7 37L7 36ZM28 36L28 37L29 37L29 36ZM42 36L42 37L43 37L43 36ZM60 36L60 38L58 38L58 39L57 39L57 40L58 40L58 41L57 41L57 42L60 42L60 43L61 43L61 42L60 42L60 40L61 40L61 39L60 39L60 38L61 38L61 36ZM14 37L14 38L15 38L15 37ZM33 38L33 39L31 39L31 40L30 40L30 41L31 41L31 40L33 40L33 39L34 39L34 38ZM40 39L40 40L41 40L41 39ZM58 39L58 40L60 40L60 39ZM6 40L6 41L7 41L7 42L8 42L8 40ZM12 41L12 42L13 42L13 41ZM3 43L3 44L4 44L4 43ZM9 43L9 44L10 44L10 43ZM39 43L39 44L40 44L40 43ZM55 43L55 44L56 44L56 43ZM43 44L43 45L44 45L44 44ZM46 44L46 45L45 45L45 46L44 46L44 48L45 48L45 46L46 46L46 45L47 45L47 44ZM24 45L24 46L25 46L25 45ZM55 45L55 46L54 46L54 47L56 47L56 46L57 46L57 45ZM20 46L20 47L21 47L21 46ZM36 46L36 47L37 47L37 46ZM22 48L22 50L23 50L23 48ZM35 48L35 49L36 49L36 51L37 51L37 49L38 49L38 48L37 48L37 49L36 49L36 48ZM59 48L59 49L60 49L60 48ZM3 51L3 52L4 52L4 51ZM9 51L9 52L10 52L10 51ZM42 51L42 52L43 52L43 53L44 53L44 51ZM57 51L57 52L52 52L52 54L51 54L51 55L52 55L52 58L53 58L53 59L54 59L54 58L55 58L55 57L56 57L56 59L55 59L55 60L56 60L56 59L57 59L57 58L58 58L58 57L57 57L57 55L58 55L58 54L59 54L59 53L60 53L60 55L59 55L59 56L60 56L60 58L59 58L59 59L58 59L58 61L61 61L61 60L59 60L59 59L60 59L60 58L61 58L61 52L58 52L58 51ZM6 52L6 53L7 53L7 52ZM48 52L48 53L50 53L50 52ZM8 53L8 54L9 54L9 56L10 56L10 55L11 55L11 53L10 53L10 54L9 54L9 53ZM18 53L18 55L19 55L19 54L20 54L20 53ZM24 53L24 54L25 54L25 53ZM29 53L29 56L32 56L32 53ZM34 53L34 54L35 54L35 53ZM37 53L37 54L36 54L36 56L37 56L37 54L38 54L38 53ZM53 53L53 56L56 56L56 53ZM57 53L57 54L58 54L58 53ZM27 54L27 55L28 55L28 54ZM30 54L30 55L31 55L31 54ZM40 54L40 55L42 55L42 54ZM54 54L54 55L55 55L55 54ZM23 56L23 58L24 58L24 56ZM53 57L53 58L54 58L54 57ZM10 58L10 59L11 59L11 58ZM45 58L45 60L46 60L46 58ZM28 59L28 60L29 60L29 59ZM48 59L48 61L50 61L50 59ZM51 59L51 61L52 61L52 59ZM35 60L35 61L36 61L36 60ZM0 0L0 7L7 7L7 0ZM1 1L1 6L6 6L6 1ZM2 2L2 5L5 5L5 2ZM54 0L54 7L61 7L61 0ZM55 1L55 6L60 6L60 1ZM56 2L56 5L59 5L59 2ZM0 54L0 61L7 61L7 54ZM1 55L1 60L6 60L6 55ZM2 56L2 59L5 59L5 56Z" fill="#000000"/></g></g></svg>
