<?xml version="1.0" encoding="UTF-8"?>
<svg xmlns="http://www.w3.org/2000/svg" version="1.1" width="180" height="180" viewBox="0 0 180 180"><rect x="0" y="0" width="180" height="180" fill="#ffffff"/><g transform="scale(3.158)"><g transform="translate(0,0)"><path fill-rule="evenodd" d="M8 0L8 1L11 1L11 2L9 2L9 4L11 4L11 2L13 2L13 3L14 3L14 4L15 4L15 3L16 3L16 5L17 5L17 6L16 6L16 7L15 7L15 6L14 6L14 7L13 7L13 6L12 6L12 7L11 7L11 6L10 6L10 5L9 5L9 6L8 6L8 8L9 8L9 10L10 10L10 11L12 11L12 13L11 13L11 12L10 12L10 15L11 15L11 16L10 16L10 17L12 17L12 15L11 15L11 14L12 14L12 13L14 13L14 14L13 14L13 15L14 15L14 18L15 18L15 15L16 15L16 19L15 19L15 20L14 20L14 19L13 19L13 18L12 18L12 19L13 19L13 20L14 20L14 22L13 22L13 21L12 21L12 20L11 20L11 18L10 18L10 19L9 19L9 20L11 20L11 21L12 21L12 22L10 22L10 23L12 23L12 24L10 24L10 26L8 26L8 25L9 25L9 24L8 24L8 25L7 25L7 24L5 24L5 23L9 23L9 22L8 22L8 20L6 20L6 21L7 21L7 22L5 22L5 23L3 23L3 21L4 21L4 20L5 20L5 19L8 19L8 18L6 18L6 17L9 17L9 16L6 16L6 17L5 17L5 19L4 19L4 18L3 18L3 19L2 19L2 18L1 18L1 19L0 19L0 24L1 24L1 19L2 19L2 23L3 23L3 25L1 25L1 26L3 26L3 27L4 27L4 28L1 28L1 29L2 29L2 30L0 30L0 32L1 32L1 34L0 34L0 35L2 35L2 34L3 34L3 36L5 36L5 37L2 37L2 36L1 36L1 37L0 37L0 38L3 38L3 39L4 39L4 40L3 40L3 41L2 41L2 39L1 39L1 42L0 42L0 43L1 43L1 44L2 44L2 45L1 45L1 46L0 46L0 48L5 48L5 47L7 47L7 48L6 48L6 49L8 49L8 50L9 50L9 52L8 52L8 54L9 54L9 55L8 55L8 57L10 57L10 56L11 56L11 57L12 57L12 56L13 56L13 52L12 52L12 55L10 55L10 52L11 52L11 51L10 51L10 50L11 50L11 49L12 49L12 51L13 51L13 49L12 49L12 48L14 48L14 46L15 46L15 47L16 47L16 48L15 48L15 49L14 49L14 54L15 54L15 52L16 52L16 51L15 51L15 50L16 50L16 48L18 48L18 49L19 49L19 50L18 50L18 52L17 52L17 53L16 53L16 55L18 55L18 57L19 57L19 56L20 56L20 57L24 57L24 56L25 56L25 57L26 57L26 55L27 55L27 57L28 57L28 55L30 55L30 57L32 57L32 56L31 56L31 55L33 55L33 54L35 54L35 56L36 56L36 57L37 57L37 56L36 56L36 55L38 55L38 54L37 54L37 53L39 53L39 51L41 51L41 50L39 50L39 49L42 49L42 50L43 50L43 51L42 51L42 52L41 52L41 54L39 54L39 55L40 55L40 56L39 56L39 57L41 57L41 55L42 55L42 54L43 54L43 56L44 56L44 55L46 55L46 54L47 54L47 55L48 55L48 56L47 56L47 57L49 57L49 56L50 56L50 57L53 57L53 56L57 56L57 54L55 54L55 53L54 53L54 54L52 54L52 53L53 53L53 48L55 48L55 49L57 49L57 48L55 48L55 45L56 45L56 44L57 44L57 39L56 39L56 38L57 38L57 37L56 37L56 36L57 36L57 34L54 34L54 36L55 36L55 37L54 37L54 39L53 39L53 38L52 38L52 37L51 37L51 36L53 36L53 35L52 35L52 34L53 34L53 33L52 33L52 34L50 34L50 35L49 35L49 33L50 33L50 31L53 31L53 26L54 26L54 28L55 28L55 27L56 27L56 29L54 29L54 32L55 32L55 33L56 33L56 32L57 32L57 30L56 30L56 29L57 29L57 27L56 27L56 25L57 25L57 24L56 24L56 25L54 25L54 24L55 24L55 23L57 23L57 22L55 22L55 21L54 21L54 22L53 22L53 20L55 20L55 19L54 19L54 18L55 18L55 17L54 17L54 16L55 16L55 15L53 15L53 14L54 14L54 12L55 12L55 13L57 13L57 12L55 12L55 10L54 10L54 12L53 12L53 11L52 11L52 10L53 10L53 9L52 9L52 10L51 10L51 8L50 8L50 10L51 10L51 11L52 11L52 12L50 12L50 13L48 13L48 12L47 12L47 10L49 10L49 9L47 9L47 5L48 5L48 0L46 0L46 1L47 1L47 2L44 2L44 0L34 0L34 2L33 2L33 0L30 0L30 1L32 1L32 2L30 2L30 3L28 3L28 2L29 2L29 0L28 0L28 1L27 1L27 0L23 0L23 1L24 1L24 3L26 3L26 8L25 8L25 4L23 4L23 3L20 3L20 2L21 2L21 1L22 1L22 0L19 0L19 1L18 1L18 0L15 0L15 1L14 1L14 0L12 0L12 1L11 1L11 0ZM15 1L15 2L14 2L14 3L15 3L15 2L16 2L16 3L17 3L17 4L18 4L18 6L17 6L17 8L16 8L16 9L15 9L15 8L14 8L14 9L13 9L13 10L12 10L12 11L14 11L14 12L16 12L16 13L15 13L15 14L14 14L14 15L15 15L15 14L17 14L17 16L18 16L18 13L19 13L19 11L20 11L20 13L21 13L21 14L20 14L20 15L19 15L19 17L18 17L18 18L23 18L23 16L24 16L24 17L25 17L25 18L26 18L26 19L27 19L27 20L28 20L28 19L29 19L29 18L30 18L30 19L31 19L31 18L33 18L33 19L32 19L32 20L31 20L31 21L35 21L35 22L37 22L37 21L39 21L39 22L38 22L38 23L35 23L35 24L39 24L39 22L42 22L42 23L40 23L40 24L42 24L42 25L41 25L41 27L38 27L38 26L37 26L37 27L36 27L36 25L33 25L33 26L32 26L32 25L31 25L31 30L32 30L32 33L30 33L30 32L31 32L31 31L29 31L29 32L28 32L28 31L27 31L27 32L28 32L28 33L30 33L30 34L31 34L31 35L29 35L29 34L27 34L27 33L25 33L25 31L24 31L24 32L23 32L23 31L21 31L21 32L23 32L23 33L21 33L21 35L20 35L20 33L19 33L19 36L21 36L21 35L23 35L23 34L24 34L24 33L25 33L25 34L27 34L27 35L25 35L25 36L24 36L24 37L21 37L21 38L20 38L20 39L19 39L19 40L20 40L20 41L18 41L18 42L17 42L17 43L15 43L15 42L16 42L16 41L15 41L15 42L14 42L14 43L13 43L13 44L12 44L12 41L14 41L14 40L11 40L11 41L9 41L9 42L7 42L7 41L8 41L8 39L6 39L6 38L8 38L8 37L9 37L9 40L10 40L10 39L12 39L12 38L13 38L13 39L14 39L14 38L15 38L15 35L13 35L13 33L14 33L14 34L15 34L15 33L14 33L14 31L15 31L15 32L16 32L16 33L17 33L17 32L18 32L18 31L15 31L15 30L16 30L16 29L15 29L15 28L16 28L16 27L15 27L15 26L17 26L17 27L18 27L18 26L19 26L19 30L24 30L24 29L25 29L25 30L26 30L26 28L24 28L24 25L25 25L25 27L26 27L26 26L27 26L27 25L28 25L28 26L30 26L30 23L33 23L33 24L34 24L34 23L33 23L33 22L28 22L28 23L26 23L26 20L24 20L24 19L23 19L23 21L22 21L22 20L20 20L20 22L19 22L19 21L18 21L18 19L16 19L16 20L15 20L15 22L14 22L14 23L13 23L13 24L14 24L14 25L15 25L15 26L14 26L14 29L13 29L13 28L12 28L12 27L13 27L13 25L11 25L11 26L12 26L12 27L11 27L11 28L10 28L10 29L11 29L11 30L9 30L9 31L10 31L10 33L11 33L11 34L9 34L9 33L6 33L6 32L8 32L8 31L4 31L4 29L3 29L3 31L1 31L1 32L3 32L3 34L4 34L4 35L5 35L5 36L7 36L7 35L8 35L8 34L9 34L9 36L8 36L8 37L5 37L5 38L4 38L4 39L5 39L5 40L7 40L7 41L6 41L6 42L5 42L5 41L3 41L3 42L1 42L1 43L3 43L3 44L5 44L5 43L6 43L6 44L7 44L7 43L9 43L9 42L10 42L10 45L9 45L9 44L8 44L8 45L5 45L5 46L4 46L4 45L2 45L2 46L1 46L1 47L2 47L2 46L3 46L3 47L5 47L5 46L7 46L7 47L8 47L8 46L11 46L11 47L9 47L9 48L8 48L8 49L9 49L9 48L10 48L10 49L11 49L11 47L12 47L12 46L14 46L14 45L13 45L13 44L14 44L14 43L15 43L15 44L16 44L16 45L15 45L15 46L16 46L16 47L17 47L17 46L18 46L18 48L20 48L20 49L21 49L21 50L20 50L20 51L19 51L19 53L18 53L18 54L22 54L22 53L23 53L23 52L24 52L24 53L25 53L25 54L26 54L26 53L25 53L25 52L26 52L26 51L25 51L25 50L24 50L24 49L25 49L25 48L31 48L31 47L29 47L29 46L28 46L28 47L26 47L26 45L27 45L27 44L28 44L28 45L29 45L29 43L30 43L30 45L31 45L31 46L32 46L32 45L33 45L33 46L34 46L34 45L33 45L33 44L37 44L37 43L35 43L35 42L34 42L34 41L35 41L35 40L34 40L34 39L35 39L35 38L36 38L36 40L38 40L38 39L37 39L37 38L38 38L38 37L36 37L36 35L34 35L34 34L33 34L33 33L35 33L35 34L36 34L36 33L35 33L35 32L36 32L36 30L34 30L34 29L35 29L35 28L37 28L37 30L38 30L38 31L39 31L39 32L38 32L38 33L37 33L37 35L38 35L38 36L39 36L39 37L40 37L40 38L41 38L41 39L40 39L40 41L36 41L36 42L38 42L38 43L39 43L39 44L38 44L38 45L39 45L39 46L40 46L40 47L36 47L36 48L41 48L41 47L43 47L43 48L44 48L44 45L45 45L45 46L46 46L46 45L45 45L45 44L47 44L47 46L48 46L48 44L49 44L49 42L50 42L50 41L51 41L51 42L52 42L52 43L50 43L50 45L49 45L49 48L50 48L50 45L51 45L51 46L52 46L52 45L53 45L53 46L54 46L54 45L55 45L55 44L54 44L54 43L55 43L55 42L56 42L56 40L55 40L55 41L54 41L54 43L53 43L53 42L52 42L52 41L51 41L51 40L52 40L52 38L49 38L49 35L47 35L47 36L48 36L48 38L47 38L47 37L45 37L45 38L44 38L44 40L45 40L45 41L44 41L44 42L45 42L45 43L44 43L44 45L43 45L43 46L40 46L40 45L39 45L39 44L40 44L40 43L39 43L39 42L40 42L40 41L41 41L41 40L42 40L42 39L43 39L43 38L42 38L42 37L40 37L40 36L41 36L41 34L42 34L42 35L43 35L43 36L44 36L44 33L45 33L45 34L46 34L46 32L47 32L47 34L48 34L48 32L47 32L47 30L48 30L48 29L47 29L47 28L46 28L46 27L48 27L48 26L47 26L47 25L46 25L46 27L45 27L45 26L42 26L42 25L44 25L44 21L45 21L45 22L46 22L46 21L47 21L47 22L48 22L48 20L46 20L46 19L48 19L48 17L49 17L49 18L50 18L50 20L51 20L51 19L52 19L52 17L53 17L53 15L52 15L52 14L51 14L51 17L49 17L49 16L48 16L48 13L45 13L45 14L44 14L44 15L43 15L43 14L42 14L42 13L40 13L40 11L41 11L41 9L39 9L39 8L40 8L40 6L39 6L39 7L38 7L38 5L37 5L37 7L36 7L36 6L35 6L35 4L36 4L36 3L37 3L37 4L38 4L38 3L41 3L41 4L39 4L39 5L41 5L41 4L42 4L42 2L43 2L43 1L38 1L38 2L37 2L37 1L36 1L36 2L35 2L35 4L33 4L33 5L31 5L31 8L32 8L32 9L33 9L33 10L34 10L34 9L33 9L33 7L34 7L34 8L35 8L35 10L38 10L38 12L39 12L39 14L41 14L41 15L39 15L39 16L40 16L40 17L38 17L38 14L37 14L37 13L36 13L36 12L37 12L37 11L36 11L36 12L35 12L35 13L33 13L33 14L32 14L32 15L31 15L31 14L30 14L30 13L31 13L31 11L32 11L32 10L30 10L30 9L29 9L29 11L26 11L26 13L25 13L25 12L23 12L23 13L25 13L25 15L27 15L27 16L24 16L24 15L23 15L23 16L22 16L22 15L21 15L21 14L22 14L22 13L21 13L21 12L22 12L22 11L23 11L23 10L24 10L24 9L25 9L25 10L28 10L28 9L25 9L25 8L24 8L24 6L23 6L23 8L24 8L24 9L22 9L22 11L20 11L20 9L21 9L21 8L22 8L22 4L21 4L21 5L20 5L20 4L18 4L18 1L17 1L17 2L16 2L16 1ZM25 1L25 2L26 2L26 3L27 3L27 1ZM43 3L43 5L42 5L42 6L41 6L41 7L42 7L42 9L45 9L45 8L46 8L46 5L47 5L47 3L45 3L45 4L46 4L46 5L44 5L44 3ZM12 4L12 5L13 5L13 4ZM19 5L19 6L18 6L18 7L19 7L19 8L18 8L18 10L19 10L19 9L20 9L20 8L21 8L21 6L20 6L20 5ZM27 5L27 8L30 8L30 5ZM9 6L9 7L10 7L10 6ZM19 6L19 7L20 7L20 6ZM28 6L28 7L29 7L29 6ZM32 6L32 7L33 7L33 6ZM34 6L34 7L35 7L35 8L36 8L36 9L37 9L37 8L36 8L36 7L35 7L35 6ZM42 6L42 7L43 7L43 8L44 8L44 7L45 7L45 6L44 6L44 7L43 7L43 6ZM48 6L48 7L49 7L49 6ZM0 8L0 9L2 9L2 10L1 10L1 12L0 12L0 17L3 17L3 16L2 16L2 15L5 15L5 13L7 13L7 14L6 14L6 15L9 15L9 14L8 14L8 13L7 13L7 12L6 12L6 11L7 11L7 10L8 10L8 9L7 9L7 8L6 8L6 9L5 9L5 8L3 8L3 9L2 9L2 8ZM10 8L10 10L11 10L11 9L12 9L12 8ZM56 8L56 9L57 9L57 8ZM6 9L6 10L5 10L5 11L6 11L6 10L7 10L7 9ZM16 9L16 10L14 10L14 11L16 11L16 12L18 12L18 11L16 11L16 10L17 10L17 9ZM38 9L38 10L39 10L39 11L40 11L40 10L39 10L39 9ZM42 10L42 11L43 11L43 12L44 12L44 11L45 11L45 12L46 12L46 10ZM56 10L56 11L57 11L57 10ZM3 11L3 12L4 12L4 13L5 13L5 12L4 12L4 11ZM8 11L8 12L9 12L9 11ZM29 11L29 12L28 12L28 13L30 13L30 11ZM33 11L33 12L34 12L34 11ZM1 13L1 15L2 15L2 14L3 14L3 13ZM35 13L35 15L34 15L34 14L33 14L33 15L32 15L32 16L30 16L30 14L28 14L28 15L29 15L29 16L30 16L30 18L31 18L31 17L33 17L33 18L35 18L35 19L37 19L37 20L36 20L36 21L37 21L37 20L39 20L39 19L40 19L40 21L41 21L41 19L42 19L42 22L43 22L43 21L44 21L44 18L45 18L45 19L46 19L46 18L47 18L47 16L46 16L46 14L45 14L45 15L44 15L44 18L43 18L43 15L42 15L42 16L41 16L41 17L40 17L40 18L39 18L39 19L38 19L38 18L35 18L35 17L33 17L33 15L34 15L34 16L35 16L35 15L37 15L37 14L36 14L36 13ZM49 14L49 15L50 15L50 14ZM20 15L20 16L21 16L21 17L22 17L22 16L21 16L21 15ZM56 15L56 19L57 19L57 15ZM27 16L27 17L28 17L28 16ZM36 16L36 17L37 17L37 16ZM27 18L27 19L28 19L28 18ZM42 18L42 19L43 19L43 18ZM16 20L16 22L17 22L17 23L16 23L16 24L15 24L15 25L16 25L16 24L17 24L17 25L19 25L19 26L21 26L21 27L20 27L20 28L21 28L21 29L22 29L22 28L23 28L23 29L24 29L24 28L23 28L23 24L25 24L25 25L26 25L26 24L25 24L25 21L24 21L24 22L21 22L21 23L19 23L19 24L18 24L18 22L17 22L17 20ZM45 20L45 21L46 21L46 20ZM56 20L56 21L57 21L57 20ZM49 21L49 23L50 23L50 21ZM51 21L51 22L52 22L52 23L51 23L51 24L53 24L53 22L52 22L52 21ZM21 23L21 24L19 24L19 25L21 25L21 24L23 24L23 23ZM45 23L45 24L46 24L46 23ZM48 24L48 25L50 25L50 24ZM3 25L3 26L5 26L5 25ZM6 25L6 26L7 26L7 25ZM39 25L39 26L40 26L40 25ZM51 25L51 26L53 26L53 25ZM5 27L5 30L8 30L8 27ZM21 27L21 28L22 28L22 27ZM27 27L27 30L30 30L30 27ZM33 27L33 28L32 28L32 30L33 30L33 31L34 31L34 30L33 30L33 28L34 28L34 27ZM42 27L42 28L41 28L41 29L40 29L40 28L39 28L39 29L40 29L40 30L39 30L39 31L40 31L40 32L39 32L39 33L38 33L38 34L39 34L39 35L40 35L40 34L41 34L41 29L42 29L42 30L43 30L43 31L42 31L42 34L43 34L43 33L44 33L44 32L46 32L46 30L47 30L47 29L46 29L46 28L44 28L44 29L46 29L46 30L43 30L43 27ZM49 27L49 30L52 30L52 27ZM6 28L6 29L7 29L7 28ZM28 28L28 29L29 29L29 28ZM50 28L50 29L51 29L51 28ZM14 29L14 30L11 30L11 31L12 31L12 32L11 32L11 33L12 33L12 32L13 32L13 31L14 31L14 30L15 30L15 29ZM17 29L17 30L18 30L18 29ZM55 30L55 31L56 31L56 30ZM4 32L4 34L5 34L5 32ZM39 33L39 34L40 34L40 33ZM6 34L6 35L7 35L7 34ZM10 35L10 36L9 36L9 37L10 37L10 38L12 38L12 37L13 37L13 38L14 38L14 36L12 36L12 35ZM16 35L16 36L17 36L17 35ZM28 35L28 36L25 36L25 37L24 37L24 40L23 40L23 38L22 38L22 39L20 39L20 40L21 40L21 43L23 43L23 44L20 44L20 42L19 42L19 45L18 45L18 44L17 44L17 45L16 45L16 46L17 46L17 45L18 45L18 46L19 46L19 45L20 45L20 46L21 46L21 47L20 47L20 48L21 48L21 49L22 49L22 50L21 50L21 51L20 51L20 52L21 52L21 53L22 53L22 52L21 52L21 51L22 51L22 50L23 50L23 49L24 49L24 48L25 48L25 47L22 47L22 46L21 46L21 45L23 45L23 46L25 46L25 45L23 45L23 44L25 44L25 41L24 41L24 40L25 40L25 38L27 38L27 39L28 39L28 38L27 38L27 37L29 37L29 35ZM32 35L32 37L31 37L31 38L29 38L29 39L31 39L31 40L30 40L30 43L32 43L32 42L33 42L33 41L34 41L34 40L32 40L32 39L31 39L31 38L33 38L33 39L34 39L34 37L35 37L35 36L33 36L33 35ZM45 35L45 36L46 36L46 35ZM55 35L55 36L56 36L56 35ZM17 37L17 38L16 38L16 40L18 40L18 38L19 38L19 37ZM45 38L45 39L46 39L46 38ZM48 38L48 39L47 39L47 41L45 41L45 42L47 42L47 44L48 44L48 42L49 42L49 38ZM22 40L22 42L23 42L23 40ZM26 40L26 41L27 41L27 40ZM28 40L28 42L26 42L26 44L27 44L27 43L29 43L29 40ZM31 40L31 42L32 42L32 40ZM4 42L4 43L5 43L5 42ZM6 42L6 43L7 43L7 42ZM41 42L41 43L43 43L43 42ZM52 43L52 44L51 44L51 45L52 45L52 44L53 44L53 43ZM31 44L31 45L32 45L32 44ZM41 44L41 45L42 45L42 44ZM11 45L11 46L12 46L12 45ZM35 45L35 46L36 46L36 45ZM56 46L56 47L57 47L57 46ZM21 47L21 48L22 48L22 47ZM33 47L33 49L34 49L34 51L33 51L33 50L32 50L32 49L31 49L31 52L32 52L32 51L33 51L33 53L31 53L31 54L30 54L30 53L27 53L27 55L28 55L28 54L30 54L30 55L31 55L31 54L33 54L33 53L36 53L36 49L35 49L35 48L34 48L34 47ZM45 47L45 48L46 48L46 47ZM47 47L47 48L48 48L48 47ZM51 47L51 48L52 48L52 47ZM27 49L27 52L30 52L30 49ZM43 49L43 50L44 50L44 51L43 51L43 54L46 54L46 53L47 53L47 52L48 52L48 49ZM49 49L49 52L52 52L52 49ZM28 50L28 51L29 51L29 50ZM50 50L50 51L51 51L51 50ZM54 50L54 52L55 52L55 50ZM34 51L34 52L35 52L35 51ZM46 51L46 52L44 52L44 53L46 53L46 52L47 52L47 51ZM56 51L56 53L57 53L57 51ZM48 53L48 54L49 54L49 55L50 55L50 54L51 54L51 53L50 53L50 54L49 54L49 53ZM9 55L9 56L10 56L10 55ZM22 55L22 56L24 56L24 55ZM51 55L51 56L53 56L53 55ZM14 56L14 57L16 57L16 56ZM33 56L33 57L34 57L34 56ZM45 56L45 57L46 57L46 56ZM0 0L0 7L7 7L7 0ZM1 1L1 6L6 6L6 1ZM2 2L2 5L5 5L5 2ZM50 0L50 7L57 7L57 0ZM51 1L51 6L56 6L56 1ZM52 2L52 5L55 5L55 2ZM0 50L0 57L7 57L7 50ZM1 51L1 56L6 56L6 51ZM2 52L2 55L5 55L5 52Z" fill="#000000"/></g></g></svg>
