<?xml version="1.0" encoding="UTF-8"?>
<svg xmlns="http://www.w3.org/2000/svg" version="1.1" width="170" height="170" viewBox="0 0 170 170"><rect x="0" y="0" width="170" height="170" fill="#ffffff"/><g transform="scale(2.982)"><g transform="translate(0,0)"><path fill-rule="evenodd" d="M9 0L9 1L10 1L10 2L11 2L11 3L10 3L10 4L11 4L11 5L9 5L9 6L8 6L8 8L4 8L4 9L9 9L9 11L8 11L8 10L6 10L6 11L5 11L5 13L4 13L4 15L3 15L3 13L2 13L2 14L1 14L1 12L2 12L2 11L3 11L3 10L2 10L2 9L3 9L3 8L0 8L0 9L1 9L1 10L2 10L2 11L0 11L0 17L4 17L4 18L2 18L2 19L4 19L4 24L5 24L5 25L4 25L4 26L3 26L3 25L1 25L1 26L3 26L3 27L2 27L2 28L0 28L0 30L1 30L1 29L2 29L2 30L3 30L3 31L2 31L2 33L1 33L1 32L0 32L0 33L1 33L1 35L0 35L0 36L1 36L1 37L2 37L2 39L3 39L3 37L2 37L2 36L3 36L3 34L4 34L4 35L5 35L5 36L4 36L4 37L5 37L5 38L4 38L4 41L3 41L3 40L2 40L2 41L0 41L0 42L1 42L1 43L0 43L0 45L1 45L1 46L0 46L0 48L5 48L5 47L7 47L7 46L8 46L8 47L9 47L9 46L8 46L8 45L7 45L7 44L8 44L8 43L7 43L7 42L8 42L8 40L10 40L10 36L11 36L11 39L15 39L15 40L16 40L16 39L17 39L17 40L18 40L18 41L17 41L17 42L16 42L16 41L14 41L14 42L12 42L12 41L13 41L13 40L11 40L11 42L10 42L10 43L12 43L12 45L11 45L11 44L10 44L10 46L11 46L11 47L10 47L10 49L8 49L8 48L6 48L6 49L8 49L8 53L9 53L9 54L8 54L8 57L9 57L9 56L10 56L10 54L12 54L12 53L13 53L13 54L14 54L14 53L15 53L15 52L14 52L14 51L17 51L17 52L16 52L16 54L18 54L18 55L16 55L16 56L18 56L18 57L19 57L19 56L20 56L20 57L21 57L21 56L22 56L22 57L24 57L24 55L25 55L25 56L26 56L26 57L27 57L27 56L28 56L28 57L29 57L29 56L30 56L30 55L32 55L32 57L34 57L34 56L33 56L33 55L34 55L34 53L36 53L36 57L37 57L37 56L38 56L38 55L37 55L37 53L38 53L38 52L37 52L37 48L38 48L38 49L39 49L39 50L38 50L38 51L39 51L39 54L40 54L40 55L39 55L39 56L40 56L40 57L41 57L41 56L42 56L42 55L43 55L43 57L47 57L47 56L48 56L48 55L49 55L49 56L50 56L50 57L51 57L51 56L52 56L52 57L53 57L53 56L54 56L54 55L55 55L55 57L57 57L57 56L56 56L56 55L57 55L57 54L56 54L56 52L57 52L57 48L56 48L56 47L57 47L57 44L56 44L56 43L57 43L57 40L56 40L56 41L53 41L53 42L52 42L52 39L53 39L53 38L52 38L52 39L51 39L51 38L48 38L48 37L51 37L51 36L50 36L50 35L52 35L52 32L54 32L54 31L55 31L55 32L56 32L56 33L53 33L53 34L55 34L55 38L54 38L54 39L55 39L55 38L56 38L56 39L57 39L57 38L56 38L56 36L57 36L57 28L56 28L56 27L57 27L57 26L56 26L56 25L57 25L57 24L56 24L56 25L55 25L55 26L54 26L54 27L53 27L53 26L48 26L48 28L46 28L46 26L45 26L45 25L47 25L47 24L48 24L48 23L49 23L49 24L50 24L50 25L51 25L51 24L52 24L52 25L54 25L54 24L53 24L53 23L57 23L57 20L55 20L55 22L54 22L54 19L55 19L55 18L56 18L56 19L57 19L57 17L54 17L54 15L57 15L57 12L56 12L56 11L57 11L57 9L55 9L55 8L54 8L54 9L53 9L53 10L52 10L52 9L51 9L51 8L49 8L49 10L48 10L48 9L47 9L47 11L49 11L49 10L50 10L50 9L51 9L51 10L52 10L52 11L51 11L51 12L49 12L49 14L48 14L48 13L47 13L47 12L46 12L46 11L45 11L45 10L44 10L44 9L45 9L45 8L46 8L46 7L47 7L47 8L48 8L48 7L49 7L49 6L48 6L48 7L47 7L47 5L48 5L48 0L46 0L46 1L45 1L45 0L44 0L44 1L43 1L43 0L42 0L42 1L41 1L41 0L40 0L40 1L39 1L39 0L38 0L38 1L37 1L37 3L40 3L40 1L41 1L41 2L42 2L42 3L41 3L41 4L38 4L38 5L36 5L36 4L32 4L32 3L31 3L31 1L34 1L34 3L35 3L35 2L36 2L36 0L29 0L29 1L30 1L30 3L29 3L29 4L28 4L28 3L27 3L27 2L28 2L28 1L27 1L27 0L26 0L26 3L25 3L25 2L24 2L24 1L25 1L25 0L24 0L24 1L23 1L23 2L20 2L20 1L21 1L21 0L15 0L15 2L14 2L14 1L13 1L13 0L11 0L11 1L10 1L10 0ZM11 1L11 2L12 2L12 3L13 3L13 4L12 4L12 5L13 5L13 4L15 4L15 5L14 5L14 6L13 6L13 7L12 7L12 6L11 6L11 7L10 7L10 6L9 6L9 7L10 7L10 9L11 9L11 10L13 10L13 9L14 9L14 8L15 8L15 9L16 9L16 10L14 10L14 11L16 11L16 12L14 12L14 14L13 14L13 12L12 12L12 11L11 11L11 12L12 12L12 14L11 14L11 15L12 15L12 16L10 16L10 13L9 13L9 12L10 12L10 11L9 11L9 12L7 12L7 11L6 11L6 12L7 12L7 13L6 13L6 14L5 14L5 15L4 15L4 17L5 17L5 16L7 16L7 17L6 17L6 18L7 18L7 19L5 19L5 18L4 18L4 19L5 19L5 24L7 24L7 23L6 23L6 22L7 22L7 21L8 21L8 20L9 20L9 19L11 19L11 20L12 20L12 18L11 18L11 17L14 17L14 16L15 16L15 15L16 15L16 17L15 17L15 19L14 19L14 18L13 18L13 22L12 22L12 21L11 21L11 22L8 22L8 23L10 23L10 26L11 26L11 23L12 23L12 28L11 28L11 27L9 27L9 30L10 30L10 29L13 29L13 30L12 30L12 31L10 31L10 32L12 32L12 33L13 33L13 32L14 32L14 30L15 30L15 31L16 31L16 32L15 32L15 33L16 33L16 34L15 34L15 35L18 35L18 36L17 36L17 37L16 37L16 38L17 38L17 39L18 39L18 40L19 40L19 41L20 41L20 42L19 42L19 43L18 43L18 42L17 42L17 43L16 43L16 42L14 42L14 43L16 43L16 44L14 44L14 45L12 45L12 47L11 47L11 48L12 48L12 49L10 49L10 50L11 50L11 51L9 51L9 53L10 53L10 52L11 52L11 53L12 53L12 49L13 49L13 50L15 50L15 48L13 48L13 46L14 46L14 47L16 47L16 50L17 50L17 51L18 51L18 52L17 52L17 53L18 53L18 52L19 52L19 51L20 51L20 52L21 52L21 53L20 53L20 54L21 54L21 55L20 55L20 56L21 56L21 55L22 55L22 54L21 54L21 53L22 53L22 52L23 52L23 53L24 53L24 54L23 54L23 55L24 55L24 54L25 54L25 55L26 55L26 54L25 54L25 51L26 51L26 50L25 50L25 48L27 48L27 47L28 47L28 46L29 46L29 48L30 48L30 46L31 46L31 47L32 47L32 48L33 48L33 49L32 49L32 50L31 50L31 51L32 51L32 50L33 50L33 51L34 51L34 52L33 52L33 53L32 53L32 52L31 52L31 53L30 53L30 54L29 54L29 53L28 53L28 54L29 54L29 55L28 55L28 56L29 56L29 55L30 55L30 54L33 54L33 53L34 53L34 52L35 52L35 51L36 51L36 49L35 49L35 48L33 48L33 47L36 47L36 46L37 46L37 47L38 47L38 48L39 48L39 49L40 49L40 50L39 50L39 51L40 51L40 50L41 50L41 51L42 51L42 52L41 52L41 55L42 55L42 54L43 54L43 55L44 55L44 54L45 54L45 55L47 55L47 54L48 54L48 52L47 52L47 51L48 51L48 50L47 50L47 49L48 49L48 48L49 48L49 47L47 47L47 46L48 46L48 45L52 45L52 46L51 46L51 47L52 47L52 48L53 48L53 49L54 49L54 50L53 50L53 51L54 51L54 53L53 53L53 54L55 54L55 55L56 55L56 54L55 54L55 52L56 52L56 51L54 51L54 50L55 50L55 49L56 49L56 48L55 48L55 47L54 47L54 46L56 46L56 44L55 44L55 43L56 43L56 42L53 42L53 43L52 43L52 44L48 44L48 43L47 43L47 42L49 42L49 43L50 43L50 42L49 42L49 41L51 41L51 40L50 40L50 39L48 39L48 38L47 38L47 37L48 37L48 34L49 34L49 35L50 35L50 34L51 34L51 33L50 33L50 31L48 31L48 29L46 29L46 28L45 28L45 29L44 29L44 28L43 28L43 25L44 25L44 24L43 24L43 23L44 23L44 22L45 22L45 23L46 23L46 24L47 24L47 23L48 23L48 22L49 22L49 23L50 23L50 24L51 24L51 23L52 23L52 22L51 22L51 21L52 21L52 19L51 19L51 17L52 17L52 18L53 18L53 19L54 19L54 18L53 18L53 17L52 17L52 16L51 16L51 14L52 14L52 12L53 12L53 13L54 13L54 14L53 14L53 15L54 15L54 14L56 14L56 13L55 13L55 11L52 11L52 12L51 12L51 13L50 13L50 15L48 15L48 14L47 14L47 13L46 13L46 12L45 12L45 13L44 13L44 12L43 12L43 11L44 11L44 10L43 10L43 9L44 9L44 6L45 6L45 7L46 7L46 6L45 6L45 5L44 5L44 4L45 4L45 3L46 3L46 5L47 5L47 3L46 3L46 2L47 2L47 1L46 1L46 2L45 2L45 1L44 1L44 2L43 2L43 3L42 3L42 4L41 4L41 5L39 5L39 7L40 7L40 6L41 6L41 7L42 7L42 6L41 6L41 5L42 5L42 4L43 4L43 5L44 5L44 6L43 6L43 8L41 8L41 9L40 9L40 8L39 8L39 9L38 9L38 11L37 11L37 13L36 13L36 14L35 14L35 11L36 11L36 10L35 10L35 9L36 9L36 5L35 5L35 7L34 7L34 5L33 5L33 7L32 7L32 5L31 5L31 7L32 7L32 8L31 8L31 9L30 9L30 11L31 11L31 12L29 12L29 11L28 11L28 12L27 12L27 10L29 10L29 9L27 9L27 10L25 10L25 9L26 9L26 6L25 6L25 5L26 5L26 4L27 4L27 3L26 3L26 4L25 4L25 5L24 5L24 4L23 4L23 3L24 3L24 2L23 2L23 3L22 3L22 4L21 4L21 3L20 3L20 2L19 2L19 1L18 1L18 2L15 2L15 3L14 3L14 2L13 2L13 1ZM8 2L8 3L9 3L9 2ZM18 2L18 3L17 3L17 4L16 4L16 5L17 5L17 6L16 6L16 7L15 7L15 6L14 6L14 7L13 7L13 8L12 8L12 9L13 9L13 8L14 8L14 7L15 7L15 8L16 8L16 7L17 7L17 8L18 8L18 9L17 9L17 10L16 10L16 11L17 11L17 10L18 10L18 11L19 11L19 12L18 12L18 13L19 13L19 14L20 14L20 15L17 15L17 14L16 14L16 13L15 13L15 14L14 14L14 15L13 15L13 14L12 14L12 15L13 15L13 16L14 16L14 15L15 15L15 14L16 14L16 15L17 15L17 18L16 18L16 19L15 19L15 20L14 20L14 21L15 21L15 20L16 20L16 22L18 22L18 23L16 23L16 24L18 24L18 25L17 25L17 26L16 26L16 25L14 25L14 24L15 24L15 22L14 22L14 23L13 23L13 25L14 25L14 26L16 26L16 27L15 27L15 28L14 28L14 27L13 27L13 28L14 28L14 29L15 29L15 30L16 30L16 31L18 31L18 32L17 32L17 34L18 34L18 35L19 35L19 36L18 36L18 37L17 37L17 38L18 38L18 39L19 39L19 36L20 36L20 38L21 38L21 39L20 39L20 41L21 41L21 40L22 40L22 42L21 42L21 43L19 43L19 44L18 44L18 45L19 45L19 46L20 46L20 47L18 47L18 46L16 46L16 45L15 45L15 46L16 46L16 47L17 47L17 50L18 50L18 51L19 51L19 50L20 50L20 51L21 51L21 52L22 52L22 51L23 51L23 52L24 52L24 51L25 51L25 50L24 50L24 49L23 49L23 48L24 48L24 47L27 47L27 46L26 46L26 45L27 45L27 44L28 44L28 43L27 43L27 42L28 42L28 39L31 39L31 38L32 38L32 41L31 41L31 42L33 42L33 43L32 43L32 45L33 45L33 43L34 43L34 44L35 44L35 45L37 45L37 44L38 44L38 45L39 45L39 46L38 46L38 47L39 47L39 48L40 48L40 49L41 49L41 50L42 50L42 49L43 49L43 50L46 50L46 51L43 51L43 52L42 52L42 53L43 53L43 54L44 54L44 53L45 53L45 54L46 54L46 53L47 53L47 52L46 52L46 51L47 51L47 50L46 50L46 49L47 49L47 48L46 48L46 47L45 47L45 46L46 46L46 45L47 45L47 44L46 44L46 43L44 43L44 42L45 42L45 38L46 38L46 37L47 37L47 36L46 36L46 35L43 35L43 36L42 36L42 35L41 35L41 34L42 34L42 33L43 33L43 34L46 34L46 33L45 33L45 32L46 32L46 31L45 31L45 30L46 30L46 29L45 29L45 30L44 30L44 29L43 29L43 28L42 28L42 25L43 25L43 24L42 24L42 23L40 23L40 25L39 25L39 26L40 26L40 28L39 28L39 27L38 27L38 25L37 25L37 24L38 24L38 23L36 23L36 21L37 21L37 20L38 20L38 21L39 21L39 22L42 22L42 21L43 21L43 22L44 22L44 21L45 21L45 22L46 22L46 21L47 21L47 22L48 22L48 21L47 21L47 20L51 20L51 19L49 19L49 18L47 18L47 20L46 20L46 17L48 17L48 15L47 15L47 16L46 16L46 15L45 15L45 14L46 14L46 13L45 13L45 14L44 14L44 13L43 13L43 12L42 12L42 11L41 11L41 10L42 10L42 9L41 9L41 10L40 10L40 11L39 11L39 12L38 12L38 13L37 13L37 15L36 15L36 16L35 16L35 17L37 17L37 18L36 18L36 19L35 19L35 20L34 20L34 21L33 21L33 18L31 18L31 19L29 19L29 18L30 18L30 17L34 17L34 15L32 15L32 14L30 14L30 13L29 13L29 12L28 12L28 13L27 13L27 12L26 12L26 11L25 11L25 10L24 10L24 7L25 7L25 6L24 6L24 5L23 5L23 4L22 4L22 5L23 5L23 6L22 6L22 11L21 11L21 10L20 10L20 9L19 9L19 8L18 8L18 7L19 7L19 6L20 6L20 8L21 8L21 5L20 5L20 3L19 3L19 2ZM18 3L18 4L17 4L17 5L18 5L18 6L17 6L17 7L18 7L18 6L19 6L19 3ZM30 3L30 4L31 4L31 3ZM43 3L43 4L44 4L44 3ZM27 5L27 8L30 8L30 5ZM23 6L23 7L24 7L24 6ZM28 6L28 7L29 7L29 6ZM37 6L37 8L38 8L38 6ZM33 7L33 8L32 8L32 9L31 9L31 10L32 10L32 13L33 13L33 12L34 12L34 7ZM19 10L19 11L20 11L20 12L19 12L19 13L20 13L20 14L21 14L21 15L20 15L20 16L19 16L19 17L20 17L20 18L19 18L19 19L18 19L18 18L17 18L17 19L16 19L16 20L17 20L17 21L18 21L18 20L19 20L19 19L20 19L20 20L21 20L21 21L20 21L20 22L21 22L21 23L20 23L20 24L19 24L19 23L18 23L18 24L19 24L19 25L20 25L20 26L18 26L18 27L22 27L22 28L18 28L18 31L20 31L20 32L19 32L19 33L20 33L20 34L19 34L19 35L20 35L20 36L21 36L21 37L22 37L22 36L21 36L21 35L24 35L24 36L23 36L23 37L24 37L24 38L23 38L23 39L22 39L22 40L23 40L23 39L24 39L24 45L23 45L23 44L22 44L22 46L21 46L21 44L19 44L19 45L20 45L20 46L21 46L21 47L20 47L20 48L19 48L19 49L20 49L20 50L21 50L21 51L22 51L22 50L21 50L21 49L22 49L22 48L23 48L23 47L22 47L22 46L25 46L25 45L26 45L26 44L27 44L27 43L26 43L26 44L25 44L25 41L26 41L26 42L27 42L27 41L26 41L26 40L25 40L25 39L24 39L24 38L25 38L25 37L26 37L26 38L27 38L27 39L28 39L28 38L29 38L29 37L30 37L30 38L31 38L31 37L32 37L32 38L33 38L33 40L35 40L35 41L34 41L34 43L35 43L35 41L36 41L36 42L37 42L37 41L38 41L38 44L39 44L39 42L40 42L40 43L41 43L41 45L40 45L40 46L42 46L42 48L41 48L41 49L42 49L42 48L43 48L43 49L44 49L44 48L45 48L45 49L46 49L46 48L45 48L45 47L44 47L44 46L45 46L45 45L46 45L46 44L45 44L45 45L44 45L44 44L43 44L43 42L44 42L44 41L43 41L43 39L44 39L44 38L45 38L45 37L46 37L46 36L45 36L45 37L44 37L44 36L43 36L43 37L42 37L42 36L41 36L41 37L38 37L38 36L39 36L39 35L40 35L40 34L41 34L41 33L42 33L42 32L43 32L43 33L44 33L44 32L43 32L43 31L44 31L44 30L43 30L43 29L42 29L42 28L41 28L41 29L39 29L39 28L37 28L37 29L38 29L38 30L37 30L37 31L38 31L38 32L37 32L37 33L36 33L36 35L37 35L37 37L38 37L38 38L36 38L36 37L35 37L35 36L33 36L33 37L32 37L32 36L31 36L31 37L30 37L30 36L28 36L28 35L30 35L30 34L29 34L29 33L31 33L31 32L29 32L29 33L27 33L27 34L26 34L26 36L25 36L25 35L24 35L24 34L25 34L25 29L26 29L26 28L24 28L24 29L22 29L22 28L23 28L23 27L25 27L25 25L27 25L27 26L29 26L29 25L27 25L27 23L28 23L28 22L29 22L29 23L30 23L30 24L31 24L31 25L30 25L30 26L31 26L31 25L32 25L32 26L33 26L33 25L34 25L34 28L35 28L35 27L36 27L36 26L37 26L37 25L36 25L36 23L35 23L35 21L34 21L34 23L35 23L35 24L33 24L33 25L32 25L32 22L33 22L33 21L32 21L32 20L31 20L31 21L30 21L30 20L29 20L29 21L28 21L28 18L29 18L29 17L30 17L30 16L32 16L32 15L30 15L30 14L29 14L29 15L30 15L30 16L29 16L29 17L28 17L28 16L27 16L27 15L28 15L28 14L27 14L27 13L26 13L26 12L25 12L25 11L22 11L22 12L21 12L21 11L20 11L20 10ZM22 12L22 13L21 13L21 14L22 14L22 15L21 15L21 16L22 16L22 17L21 17L21 18L20 18L20 19L21 19L21 20L22 20L22 21L21 21L21 22L22 22L22 21L23 21L23 22L24 22L24 23L21 23L21 24L22 24L22 27L23 27L23 26L24 26L24 23L25 23L25 24L26 24L26 23L27 23L27 22L28 22L28 21L27 21L27 22L26 22L26 21L25 21L25 22L24 22L24 21L23 21L23 20L24 20L24 19L25 19L25 20L26 20L26 19L27 19L27 18L28 18L28 17L27 17L27 18L26 18L26 19L25 19L25 18L24 18L24 17L23 17L23 16L24 16L24 14L23 14L23 12ZM41 12L41 13L40 13L40 14L41 14L41 15L42 15L42 16L41 16L41 17L40 17L40 16L39 16L39 13L38 13L38 16L37 16L37 17L38 17L38 18L37 18L37 19L38 19L38 20L39 20L39 19L40 19L40 18L41 18L41 19L42 19L42 20L41 20L41 21L42 21L42 20L43 20L43 21L44 21L44 20L43 20L43 19L44 19L44 18L45 18L45 17L46 17L46 16L45 16L45 17L44 17L44 16L43 16L43 15L44 15L44 14L43 14L43 13L42 13L42 12ZM7 13L7 14L6 14L6 15L8 15L8 19L7 19L7 20L6 20L6 21L7 21L7 20L8 20L8 19L9 19L9 18L10 18L10 16L9 16L9 15L8 15L8 13ZM25 13L25 14L26 14L26 15L27 15L27 14L26 14L26 13ZM41 13L41 14L42 14L42 13ZM2 15L2 16L3 16L3 15ZM22 15L22 16L23 16L23 15ZM38 16L38 17L39 17L39 18L40 18L40 17L39 17L39 16ZM42 16L42 17L41 17L41 18L42 18L42 17L43 17L43 18L44 18L44 17L43 17L43 16ZM49 16L49 17L50 17L50 16ZM21 18L21 19L24 19L24 18ZM0 19L0 21L1 21L1 22L2 22L2 21L3 21L3 20L2 20L2 21L1 21L1 19ZM17 19L17 20L18 20L18 19ZM45 20L45 21L46 21L46 20ZM31 21L31 22L32 22L32 21ZM49 21L49 22L50 22L50 23L51 23L51 22L50 22L50 21ZM25 22L25 23L26 23L26 22ZM8 24L8 26L9 26L9 24ZM41 24L41 25L40 25L40 26L41 26L41 25L42 25L42 24ZM5 25L5 26L7 26L7 25ZM35 25L35 26L36 26L36 25ZM44 26L44 27L45 27L45 26ZM5 27L5 30L8 30L8 27ZM16 27L16 28L15 28L15 29L16 29L16 30L17 30L17 27ZM27 27L27 30L30 30L30 27ZM49 27L49 30L52 30L52 27ZM54 27L54 30L55 30L55 29L56 29L56 28L55 28L55 27ZM2 28L2 29L4 29L4 28ZM6 28L6 29L7 29L7 28ZM28 28L28 29L29 29L29 28ZM31 28L31 30L33 30L33 32L35 32L35 31L36 31L36 29L32 29L32 28ZM50 28L50 29L51 29L51 28ZM19 29L19 30L20 30L20 31L21 31L21 32L22 32L22 33L21 33L21 34L20 34L20 35L21 35L21 34L24 34L24 33L23 33L23 32L24 32L24 30L22 30L22 29L21 29L21 30L20 30L20 29ZM21 30L21 31L22 31L22 32L23 32L23 31L22 31L22 30ZM40 30L40 31L39 31L39 32L38 32L38 33L37 33L37 34L38 34L38 33L39 33L39 34L40 34L40 33L41 33L41 32L42 32L42 30ZM3 31L3 33L4 33L4 31ZM6 31L6 32L7 32L7 31ZM12 31L12 32L13 32L13 31ZM26 31L26 32L28 32L28 31ZM51 31L51 32L52 32L52 31ZM39 32L39 33L40 33L40 32ZM48 32L48 33L47 33L47 34L48 34L48 33L49 33L49 34L50 34L50 33L49 33L49 32ZM5 33L5 34L7 34L7 35L6 35L6 36L7 36L7 37L6 37L6 38L7 38L7 39L6 39L6 40L5 40L5 41L4 41L4 42L3 42L3 41L2 41L2 44L3 44L3 45L2 45L2 46L1 46L1 47L2 47L2 46L3 46L3 47L5 47L5 46L7 46L7 45L4 45L4 43L5 43L5 44L7 44L7 43L6 43L6 42L7 42L7 41L6 41L6 40L7 40L7 39L9 39L9 38L8 38L8 36L7 36L7 35L9 35L9 34L11 34L11 36L13 36L13 37L12 37L12 38L13 38L13 37L14 37L14 38L15 38L15 37L14 37L14 35L13 35L13 34L11 34L11 33ZM32 33L32 34L33 34L33 33ZM34 33L34 35L35 35L35 33ZM53 35L53 36L54 36L54 35ZM26 36L26 37L27 37L27 38L28 38L28 37L27 37L27 36ZM33 37L33 38L34 38L34 37ZM41 37L41 38L40 38L40 41L41 41L41 43L42 43L42 41L41 41L41 40L42 40L42 39L41 39L41 38L42 38L42 37ZM43 37L43 38L44 38L44 37ZM35 38L35 40L36 40L36 41L37 41L37 40L38 40L38 41L39 41L39 40L38 40L38 39L36 39L36 38ZM0 39L0 40L1 40L1 39ZM46 40L46 41L47 41L47 40ZM48 40L48 41L49 41L49 40ZM22 42L22 43L23 43L23 42ZM29 42L29 45L30 45L30 44L31 44L31 43L30 43L30 42ZM53 43L53 44L54 44L54 43ZM42 44L42 45L43 45L43 46L44 46L44 45L43 45L43 44ZM3 45L3 46L4 46L4 45ZM53 45L53 46L52 46L52 47L53 47L53 48L54 48L54 47L53 47L53 46L54 46L54 45ZM32 46L32 47L33 47L33 46ZM21 47L21 48L22 48L22 47ZM43 47L43 48L44 48L44 47ZM27 49L27 52L30 52L30 49ZM33 49L33 50L34 50L34 49ZM49 49L49 52L52 52L52 49ZM23 50L23 51L24 51L24 50ZM28 50L28 51L29 51L29 50ZM50 50L50 51L51 51L51 50ZM13 52L13 53L14 53L14 52ZM43 52L43 53L44 53L44 52ZM45 52L45 53L46 53L46 52ZM51 53L51 54L49 54L49 55L50 55L50 56L51 56L51 55L52 55L52 56L53 56L53 55L52 55L52 53ZM12 55L12 57L15 57L15 56L14 56L14 55ZM18 55L18 56L19 56L19 55ZM0 0L0 7L7 7L7 0ZM1 1L1 6L6 6L6 1ZM2 2L2 5L5 5L5 2ZM50 0L50 7L57 7L57 0ZM51 1L51 6L56 6L56 1ZM52 2L52 5L55 5L55 2ZM0 50L0 57L7 57L7 50ZM1 51L1 56L6 56L6 51ZM2 52L2 55L5 55L5 52Z" fill="#000000"/></g></g></svg>
