<?xml version="1.0" encoding="UTF-8"?>
<svg xmlns="http://www.w3.org/2000/svg" version="1.1" width="180" height="180" viewBox="0 0 180 180"><rect x="0" y="0" width="180" height="180" fill="#ffffff"/><g transform="scale(3.396)"><g transform="translate(0,0)"><path fill-rule="evenodd" d="M9 0L9 1L10 1L10 0ZM14 0L14 1L13 1L13 2L12 2L12 3L11 3L11 2L8 2L8 3L11 3L11 4L12 4L12 5L11 5L11 6L10 6L10 5L9 5L9 6L8 6L8 8L4 8L4 10L3 10L3 8L0 8L0 10L1 10L1 9L2 9L2 11L3 11L3 12L2 12L2 13L0 13L0 14L1 14L1 15L3 15L3 12L4 12L4 13L8 13L8 11L7 11L7 10L8 10L8 9L9 9L9 12L10 12L10 11L11 11L11 10L10 10L10 9L12 9L12 8L13 8L13 6L14 6L14 7L15 7L15 8L14 8L14 9L15 9L15 11L12 11L12 12L14 12L14 13L13 13L13 14L12 14L12 13L9 13L9 15L13 15L13 16L9 16L9 17L8 17L8 18L9 18L9 19L11 19L11 20L8 20L8 19L7 19L7 18L6 18L6 17L7 17L7 16L6 16L6 15L7 15L7 14L6 14L6 15L5 15L5 14L4 14L4 16L1 16L1 18L2 18L2 19L0 19L0 21L1 21L1 22L0 22L0 26L1 26L1 29L0 29L0 30L1 30L1 29L2 29L2 30L3 30L3 29L4 29L4 30L5 30L5 31L0 31L0 33L2 33L2 34L1 34L1 36L0 36L0 37L1 37L1 38L0 38L0 39L1 39L1 40L0 40L0 43L1 43L1 44L3 44L3 45L4 45L4 44L3 44L3 43L7 43L7 44L6 44L6 45L7 45L7 44L8 44L8 49L9 49L9 48L10 48L10 49L11 49L11 52L9 52L9 51L10 51L10 50L8 50L8 53L11 53L11 52L12 52L12 50L16 50L16 51L13 51L13 52L16 52L16 51L17 51L17 52L18 52L18 53L19 53L19 52L20 52L20 51L17 51L17 50L20 50L20 47L21 47L21 48L22 48L22 51L21 51L21 52L22 52L22 53L25 53L25 52L27 52L27 53L29 53L29 51L28 51L28 50L29 50L29 49L30 49L30 48L32 48L32 49L31 49L31 50L32 50L32 51L31 51L31 52L30 52L30 53L33 53L33 50L34 50L34 49L35 49L35 50L36 50L36 51L35 51L35 52L34 52L34 53L35 53L35 52L36 52L36 53L37 53L37 52L39 52L39 51L37 51L37 49L38 49L38 48L39 48L39 49L41 49L41 47L42 47L42 45L41 45L41 44L42 44L42 43L43 43L43 42L44 42L44 43L45 43L45 44L44 44L44 45L43 45L43 46L44 46L44 47L43 47L43 48L42 48L42 49L43 49L43 48L44 48L44 50L43 50L43 51L45 51L45 52L44 52L44 53L45 53L45 52L46 52L46 51L47 51L47 52L48 52L48 53L50 53L50 52L48 52L48 51L51 51L51 53L53 53L53 52L52 52L52 50L50 50L50 49L49 49L49 48L50 48L50 47L51 47L51 48L52 48L52 49L53 49L53 48L52 48L52 47L53 47L53 45L52 45L52 44L53 44L53 40L52 40L52 39L53 39L53 37L51 37L51 36L50 36L50 37L49 37L49 38L48 38L48 37L47 37L47 35L49 35L49 34L50 34L50 35L53 35L53 32L52 32L52 31L53 31L53 28L52 28L52 27L53 27L53 24L52 24L52 23L53 23L53 21L51 21L51 22L50 22L50 23L49 23L49 22L48 22L48 21L49 21L49 20L50 20L50 19L51 19L51 20L53 20L53 16L52 16L52 15L53 15L53 12L52 12L52 11L53 11L53 9L52 9L52 11L51 11L51 10L50 10L50 9L51 9L51 8L50 8L50 9L49 9L49 10L48 10L48 9L47 9L47 8L45 8L45 10L43 10L43 11L42 11L42 12L41 12L41 10L40 10L40 9L41 9L41 8L43 8L43 3L44 3L44 4L45 4L45 3L44 3L44 1L43 1L43 0L42 0L42 2L43 2L43 3L41 3L41 5L39 5L39 4L40 4L40 2L41 2L41 0L38 0L38 1L37 1L37 0L36 0L36 1L35 1L35 0L34 0L34 1L32 1L32 0L29 0L29 2L28 2L28 1L25 1L25 0L24 0L24 1L23 1L23 2L22 2L22 0L20 0L20 1L19 1L19 2L18 2L18 1L16 1L16 0ZM20 1L20 2L19 2L19 3L18 3L18 2L16 2L16 4L15 4L15 2L13 2L13 3L12 3L12 4L13 4L13 5L14 5L14 6L15 6L15 7L16 7L16 8L17 8L17 9L16 9L16 10L17 10L17 11L16 11L16 12L15 12L15 13L16 13L16 14L14 14L14 15L16 15L16 16L14 16L14 18L13 18L13 17L12 17L12 19L14 19L14 20L13 20L13 21L14 21L14 20L16 20L16 22L15 22L15 23L14 23L14 22L12 22L12 20L11 20L11 21L9 21L9 22L7 22L7 21L8 21L8 20L7 20L7 19L6 19L6 18L4 18L4 17L6 17L6 16L4 16L4 17L3 17L3 19L2 19L2 21L3 21L3 20L5 20L5 21L6 21L6 22L5 22L5 24L7 24L7 23L11 23L11 22L12 22L12 23L13 23L13 25L12 25L12 24L9 24L9 28L10 28L10 29L9 29L9 30L10 30L10 31L9 31L9 32L8 32L8 33L10 33L10 34L9 34L9 35L8 35L8 34L7 34L7 33L6 33L6 34L5 34L5 33L4 33L4 32L2 32L2 33L4 33L4 34L2 34L2 36L1 36L1 37L3 37L3 36L5 36L5 35L6 35L6 36L7 36L7 35L8 35L8 36L10 36L10 37L4 37L4 38L5 38L5 40L4 40L4 39L3 39L3 41L4 41L4 42L7 42L7 41L6 41L6 40L7 40L7 39L8 39L8 38L9 38L9 40L8 40L8 44L10 44L10 45L9 45L9 47L10 47L10 48L13 48L13 47L14 47L14 46L15 46L15 47L16 47L16 48L14 48L14 49L16 49L16 50L17 50L17 49L18 49L18 48L19 48L19 47L20 47L20 46L21 46L21 47L22 47L22 48L23 48L23 49L24 49L24 50L23 50L23 51L22 51L22 52L23 52L23 51L24 51L24 50L25 50L25 49L24 49L24 48L23 48L23 47L22 47L22 46L21 46L21 45L22 45L22 44L24 44L24 43L25 43L25 44L29 44L29 43L30 43L30 44L32 44L32 42L33 42L33 43L34 43L34 44L33 44L33 45L29 45L29 46L30 46L30 47L29 47L29 48L30 48L30 47L32 47L32 46L33 46L33 47L34 47L34 48L33 48L33 49L32 49L32 50L33 50L33 49L34 49L34 48L35 48L35 47L36 47L36 46L37 46L37 48L38 48L38 46L39 46L39 47L40 47L40 46L39 46L39 45L40 45L40 43L42 43L42 42L43 42L43 41L44 41L44 40L45 40L45 41L46 41L46 42L47 42L47 44L49 44L49 45L50 45L50 46L49 46L49 47L50 47L50 46L51 46L51 47L52 47L52 46L51 46L51 43L50 43L50 42L51 42L51 41L52 41L52 40L51 40L51 39L52 39L52 38L49 38L49 39L48 39L48 38L47 38L47 37L46 37L46 36L45 36L45 37L44 37L44 35L45 35L45 34L46 34L46 32L45 32L45 31L46 31L46 30L47 30L47 31L48 31L48 32L47 32L47 33L48 33L48 34L49 34L49 33L50 33L50 34L51 34L51 33L52 33L52 32L51 32L51 31L52 31L52 30L49 30L49 29L51 29L51 27L52 27L52 24L51 24L51 23L52 23L52 22L51 22L51 23L50 23L50 24L49 24L49 25L50 25L50 26L49 26L49 27L50 27L50 28L49 28L49 29L48 29L48 30L47 30L47 29L46 29L46 30L45 30L45 31L44 31L44 30L43 30L43 29L44 29L44 28L43 28L43 26L44 26L44 25L42 25L42 24L43 24L43 23L44 23L44 24L45 24L45 23L46 23L46 24L47 24L47 23L48 23L48 22L47 22L47 21L45 21L45 19L46 19L46 20L47 20L47 19L48 19L48 18L49 18L49 19L50 19L50 18L51 18L51 19L52 19L52 18L51 18L51 17L52 17L52 16L51 16L51 15L52 15L52 14L51 14L51 13L52 13L52 12L51 12L51 11L50 11L50 10L49 10L49 11L50 11L50 12L49 12L49 13L48 13L48 12L47 12L47 11L48 11L48 10L47 10L47 9L46 9L46 10L45 10L45 11L44 11L44 14L45 14L45 15L44 15L44 16L43 16L43 13L42 13L42 15L41 15L41 16L43 16L43 17L40 17L40 16L39 16L39 15L40 15L40 14L41 14L41 13L40 13L40 10L39 10L39 9L40 9L40 8L39 8L39 7L40 7L40 6L39 6L39 7L38 7L38 4L39 4L39 3L38 3L38 2L37 2L37 1L36 1L36 2L35 2L35 3L34 3L34 2L32 2L32 1L31 1L31 3L28 3L28 2L27 2L27 3L28 3L28 4L32 4L32 5L31 5L31 7L32 7L32 6L33 6L33 7L34 7L34 8L33 8L33 9L34 9L34 10L31 10L31 8L30 8L30 5L29 5L29 11L28 11L28 9L26 9L26 10L25 10L25 9L24 9L24 6L23 6L23 5L24 5L24 4L23 4L23 3L24 3L24 2L23 2L23 3L22 3L22 2L21 2L21 1ZM39 1L39 2L40 2L40 1ZM20 2L20 3L19 3L19 4L20 4L20 5L19 5L19 6L18 6L18 5L17 5L17 4L18 4L18 3L17 3L17 4L16 4L16 5L15 5L15 4L14 4L14 3L13 3L13 4L14 4L14 5L15 5L15 6L16 6L16 7L17 7L17 8L18 8L18 9L17 9L17 10L18 10L18 11L17 11L17 13L19 13L19 14L18 14L18 15L17 15L17 14L16 14L16 15L17 15L17 16L16 16L16 18L18 18L18 19L16 19L16 20L17 20L17 21L18 21L18 23L17 23L17 22L16 22L16 23L15 23L15 24L14 24L14 25L15 25L15 26L14 26L14 27L13 27L13 26L12 26L12 25L11 25L11 26L10 26L10 27L13 27L13 28L12 28L12 29L13 29L13 30L11 30L11 32L10 32L10 33L11 33L11 32L12 32L12 34L11 34L11 35L10 35L10 36L11 36L11 37L10 37L10 39L11 39L11 40L10 40L10 41L9 41L9 42L10 42L10 41L11 41L11 40L12 40L12 43L13 43L13 44L14 44L14 43L13 43L13 40L12 40L12 39L13 39L13 38L14 38L14 39L15 39L15 40L14 40L14 41L15 41L15 42L16 42L16 43L15 43L15 46L16 46L16 47L17 47L17 48L18 48L18 47L19 47L19 46L20 46L20 45L19 45L19 44L22 44L22 43L23 43L23 40L24 40L24 42L25 42L25 43L26 43L26 42L29 42L29 40L32 40L32 41L31 41L31 42L32 42L32 41L33 41L33 42L34 42L34 41L37 41L37 38L38 38L38 41L40 41L40 42L41 42L41 40L42 40L42 41L43 41L43 40L42 40L42 37L43 37L43 38L44 38L44 37L43 37L43 35L44 35L44 34L43 34L43 35L42 35L42 36L41 36L41 34L42 34L42 33L41 33L41 32L43 32L43 31L41 31L41 30L42 30L42 29L43 29L43 28L42 28L42 25L41 25L41 23L42 23L42 21L43 21L43 22L44 22L44 23L45 23L45 22L44 22L44 19L43 19L43 20L42 20L42 18L40 18L40 17L39 17L39 16L38 16L38 13L37 13L37 12L38 12L38 11L35 11L35 12L34 12L34 11L29 11L29 12L28 12L28 11L27 11L27 10L26 10L26 11L25 11L25 12L24 12L24 9L23 9L23 8L22 8L22 7L23 7L23 6L22 6L22 7L21 7L21 6L20 6L20 5L21 5L21 4L22 4L22 5L23 5L23 4L22 4L22 3L21 3L21 2ZM25 2L25 3L26 3L26 2ZM33 3L33 4L34 4L34 5L33 5L33 6L34 6L34 7L35 7L35 8L34 8L34 9L35 9L35 10L38 10L38 9L39 9L39 8L38 8L38 7L37 7L37 6L36 6L36 5L37 5L37 4L38 4L38 3L37 3L37 4L36 4L36 3L35 3L35 4L34 4L34 3ZM35 4L35 5L36 5L36 4ZM16 5L16 6L17 6L17 7L18 7L18 8L19 8L19 9L20 9L20 10L19 10L19 11L18 11L18 12L19 12L19 13L20 13L20 14L19 14L19 15L18 15L18 16L17 16L17 17L18 17L18 16L19 16L19 17L20 17L20 18L19 18L19 19L18 19L18 20L19 20L19 21L20 21L20 22L19 22L19 23L18 23L18 24L17 24L17 23L16 23L16 24L15 24L15 25L16 25L16 26L15 26L15 27L14 27L14 28L13 28L13 29L14 29L14 28L15 28L15 27L16 27L16 30L14 30L14 31L16 31L16 32L14 32L14 34L12 34L12 35L14 35L14 36L12 36L12 37L14 37L14 36L15 36L15 35L16 35L16 38L17 38L17 39L16 39L16 40L15 40L15 41L16 41L16 42L17 42L17 43L16 43L16 46L17 46L17 47L18 47L18 44L19 44L19 43L22 43L22 40L21 40L21 39L24 39L24 40L25 40L25 39L26 39L26 40L29 40L29 39L31 39L31 35L32 35L32 34L33 34L33 35L34 35L34 36L33 36L33 37L32 37L32 38L33 38L33 39L34 39L34 40L33 40L33 41L34 41L34 40L35 40L35 39L36 39L36 38L37 38L37 37L38 37L38 38L39 38L39 37L40 37L40 38L41 38L41 37L40 37L40 36L39 36L39 35L40 35L40 34L41 34L41 33L39 33L39 32L40 32L40 30L41 30L41 29L40 29L40 26L39 26L39 25L40 25L40 24L39 24L39 23L40 23L40 22L41 22L41 21L42 21L42 20L41 20L41 21L40 21L40 18L39 18L39 17L38 17L38 16L37 16L37 15L36 15L36 14L37 14L37 13L36 13L36 12L35 12L35 13L34 13L34 12L33 12L33 13L32 13L32 12L31 12L31 13L30 13L30 12L29 12L29 14L30 14L30 15L28 15L28 14L27 14L27 13L28 13L28 12L27 12L27 11L26 11L26 12L25 12L25 13L24 13L24 12L23 12L23 13L22 13L22 12L21 12L21 11L23 11L23 10L21 10L21 9L22 9L22 8L21 8L21 7L20 7L20 6L19 6L19 7L18 7L18 6L17 6L17 5ZM25 5L25 8L28 8L28 5ZM9 6L9 8L10 8L10 6ZM11 6L11 7L12 7L12 6ZM26 6L26 7L27 7L27 6ZM35 6L35 7L36 7L36 6ZM41 6L41 7L42 7L42 6ZM44 6L44 7L45 7L45 6ZM19 7L19 8L20 8L20 7ZM35 8L35 9L36 9L36 8ZM37 8L37 9L38 9L38 8ZM5 9L5 10L7 10L7 9ZM20 10L20 11L19 11L19 12L20 12L20 11L21 11L21 10ZM4 11L4 12L5 12L5 11ZM6 11L6 12L7 12L7 11ZM45 12L45 13L46 13L46 12ZM21 13L21 14L20 14L20 15L19 15L19 16L20 16L20 15L21 15L21 16L22 16L22 18L23 18L23 19L19 19L19 20L22 20L22 21L21 21L21 22L20 22L20 23L19 23L19 24L18 24L18 25L17 25L17 24L16 24L16 25L17 25L17 26L16 26L16 27L17 27L17 30L16 30L16 31L17 31L17 32L18 32L18 33L17 33L17 34L16 34L16 33L15 33L15 34L14 34L14 35L15 35L15 34L16 34L16 35L17 35L17 34L20 34L20 35L21 35L21 36L22 36L22 37L21 37L21 38L20 38L20 37L19 37L19 36L17 36L17 37L18 37L18 39L17 39L17 40L18 40L18 41L17 41L17 42L20 42L20 39L21 39L21 38L23 38L23 37L25 37L25 38L26 38L26 39L27 39L27 37L29 37L29 36L30 36L30 34L29 34L29 33L28 33L28 32L26 32L26 31L27 31L27 30L28 30L28 29L31 29L31 28L32 28L32 29L33 29L33 30L31 30L31 32L30 32L30 30L29 30L29 32L30 32L30 33L31 33L31 34L32 34L32 33L33 33L33 34L34 34L34 33L35 33L35 36L34 36L34 37L33 37L33 38L34 38L34 37L35 37L35 38L36 38L36 37L37 37L37 36L38 36L38 35L36 35L36 34L37 34L37 33L38 33L38 32L39 32L39 31L38 31L38 29L39 29L39 30L40 30L40 29L39 29L39 28L38 28L38 29L37 29L37 26L35 26L35 28L34 28L34 27L33 27L33 26L34 26L34 25L35 25L35 24L36 24L36 25L38 25L38 21L37 21L37 20L39 20L39 18L38 18L38 19L35 19L35 20L34 20L34 19L33 19L33 18L34 18L34 17L35 17L35 18L37 18L37 16L36 16L36 15L35 15L35 16L34 16L34 15L33 15L33 14L34 14L34 13L33 13L33 14L32 14L32 13L31 13L31 15L33 15L33 16L28 16L28 17L26 17L26 15L27 15L27 14L26 14L26 13L25 13L25 14L26 14L26 15L25 15L25 16L24 16L24 13L23 13L23 14L22 14L22 13ZM35 13L35 14L36 14L36 13ZM47 13L47 16L46 16L46 15L45 15L45 16L46 16L46 17L45 17L45 18L46 18L46 17L47 17L47 18L48 18L48 17L49 17L49 18L50 18L50 13L49 13L49 14L48 14L48 13ZM21 14L21 15L22 15L22 16L23 16L23 17L24 17L24 20L23 20L23 21L24 21L24 22L23 22L23 23L22 23L22 22L21 22L21 23L20 23L20 24L19 24L19 25L20 25L20 26L19 26L19 27L20 27L20 28L19 28L19 29L20 29L20 30L19 30L19 31L18 31L18 30L17 30L17 31L18 31L18 32L19 32L19 31L20 31L20 34L21 34L21 35L22 35L22 36L24 36L24 33L23 33L23 35L22 35L22 32L23 32L23 31L26 31L26 29L23 29L23 31L22 31L22 30L21 30L21 29L22 29L22 28L23 28L23 27L22 27L22 24L23 24L23 23L24 23L24 24L25 24L25 23L26 23L26 24L27 24L27 23L28 23L28 24L29 24L29 25L30 25L30 26L29 26L29 27L32 27L32 26L33 26L33 25L34 25L34 24L35 24L35 23L36 23L36 24L37 24L37 23L36 23L36 22L37 22L37 21L36 21L36 20L35 20L35 21L34 21L34 20L33 20L33 21L32 21L32 22L31 22L31 21L30 21L30 20L31 20L31 19L32 19L32 18L33 18L33 17L34 17L34 16L33 16L33 17L32 17L32 18L31 18L31 17L30 17L30 20L28 20L28 21L27 21L27 19L28 19L28 18L27 18L27 19L26 19L26 20L25 20L25 18L26 18L26 17L24 17L24 16L23 16L23 15L22 15L22 14ZM35 16L35 17L36 17L36 16ZM47 16L47 17L48 17L48 16ZM10 17L10 18L11 18L11 17ZM14 18L14 19L15 19L15 18ZM6 20L6 21L7 21L7 20ZM25 21L25 22L26 22L26 21ZM28 21L28 23L29 23L29 24L32 24L32 25L31 25L31 26L32 26L32 25L33 25L33 24L34 24L34 23L33 23L33 22L34 22L34 21L33 21L33 22L32 22L32 23L29 23L29 21ZM35 21L35 22L36 22L36 21ZM39 21L39 22L40 22L40 21ZM3 22L3 23L2 23L2 24L1 24L1 26L2 26L2 25L3 25L3 24L4 24L4 22ZM6 22L6 23L7 23L7 22ZM21 23L21 24L20 24L20 25L21 25L21 24L22 24L22 23ZM50 24L50 25L51 25L51 24ZM5 25L5 28L8 28L8 25ZM25 25L25 28L28 28L28 25ZM45 25L45 28L48 28L48 25ZM3 26L3 27L2 27L2 28L4 28L4 26ZM6 26L6 27L7 27L7 26ZM17 26L17 27L18 27L18 26ZM26 26L26 27L27 27L27 26ZM46 26L46 27L47 27L47 26ZM50 26L50 27L51 27L51 26ZM21 27L21 28L22 28L22 27ZM33 28L33 29L34 29L34 30L33 30L33 31L34 31L34 32L33 32L33 33L34 33L34 32L35 32L35 31L36 31L36 30L37 30L37 29L36 29L36 28L35 28L35 29L34 29L34 28ZM5 29L5 30L7 30L7 31L5 31L5 32L7 32L7 31L8 31L8 30L7 30L7 29ZM35 29L35 30L36 30L36 29ZM20 30L20 31L21 31L21 30ZM48 30L48 31L49 31L49 32L50 32L50 33L51 33L51 32L50 32L50 31L49 31L49 30ZM37 31L37 32L38 32L38 31ZM25 32L25 33L26 33L26 32ZM31 32L31 33L32 33L32 32ZM44 32L44 33L45 33L45 32ZM27 33L27 35L28 35L28 36L29 36L29 34L28 34L28 33ZM6 34L6 35L7 35L7 34ZM25 34L25 35L26 35L26 34ZM25 36L25 37L26 37L26 36ZM35 36L35 37L36 37L36 36ZM45 37L45 38L46 38L46 39L45 39L45 40L48 40L48 39L47 39L47 38L46 38L46 37ZM1 38L1 39L2 39L2 38ZM6 38L6 39L7 39L7 38ZM11 38L11 39L12 39L12 38ZM19 38L19 39L18 39L18 40L19 40L19 39L20 39L20 38ZM49 39L49 40L50 40L50 39ZM25 41L25 42L26 42L26 41ZM2 42L2 43L3 43L3 42ZM36 42L36 43L35 43L35 44L34 44L34 45L35 45L35 46L34 46L34 47L35 47L35 46L36 46L36 45L37 45L37 46L38 46L38 45L37 45L37 44L39 44L39 43L37 43L37 42ZM48 42L48 43L49 43L49 42ZM10 43L10 44L11 44L11 43ZM17 43L17 44L18 44L18 43ZM35 44L35 45L36 45L36 44ZM11 45L11 46L13 46L13 45ZM23 45L23 46L24 46L24 45ZM25 45L25 48L28 48L28 45ZM45 45L45 48L48 48L48 45ZM26 46L26 47L27 47L27 46ZM46 46L46 47L47 47L47 46ZM26 49L26 51L27 51L27 49ZM46 49L46 50L45 50L45 51L46 51L46 50L47 50L47 51L48 51L48 50L47 50L47 49ZM40 50L40 53L41 53L41 52L42 52L42 53L43 53L43 52L42 52L42 51L41 51L41 50ZM0 0L0 7L7 7L7 0ZM1 1L1 6L6 6L6 1ZM2 2L2 5L5 5L5 2ZM46 0L46 7L53 7L53 0ZM47 1L47 6L52 6L52 1ZM48 2L48 5L51 5L51 2ZM0 46L0 53L7 53L7 46ZM1 47L1 52L6 52L6 47ZM2 48L2 51L5 51L5 48Z" fill="#000000"/></g></g></svg>
