<?xml version="1.0" encoding="UTF-8"?>
<svg xmlns="http://www.w3.org/2000/svg" version="1.1" width="180" height="180" viewBox="0 0 180 180"><rect x="0" y="0" width="180" height="180" fill="#ffffff"/><g transform="scale(3.673)"><g transform="translate(0,0)"><path fill-rule="evenodd" d="M8 0L8 2L9 2L9 0ZM11 0L11 2L10 2L10 4L8 4L8 9L7 9L7 8L5 8L5 10L4 10L4 9L3 9L3 8L0 8L0 9L1 9L1 10L0 10L0 13L1 13L1 14L2 14L2 15L1 15L1 16L0 16L0 17L2 17L2 16L3 16L3 18L2 18L2 19L0 19L0 23L1 23L1 24L0 24L0 25L3 25L3 23L4 23L4 26L0 26L0 33L2 33L2 34L4 34L4 31L3 31L3 33L2 33L2 32L1 32L1 31L2 31L2 29L4 29L4 28L2 28L2 27L8 27L8 29L9 29L9 30L10 30L10 31L8 31L8 30L6 30L6 29L7 29L7 28L6 28L6 29L5 29L5 30L6 30L6 31L8 31L8 33L7 33L7 32L6 32L6 33L5 33L5 35L3 35L3 37L0 37L0 38L1 38L1 40L0 40L0 41L3 41L3 40L4 40L4 39L2 39L2 38L3 38L3 37L4 37L4 38L5 38L5 39L7 39L7 40L6 40L6 41L8 41L8 42L9 42L9 43L8 43L8 44L9 44L9 45L10 45L10 44L12 44L12 45L13 45L13 42L12 42L12 43L11 43L11 42L9 42L9 41L8 41L8 39L9 39L9 40L11 40L11 41L12 41L12 40L13 40L13 41L14 41L14 42L15 42L15 41L16 41L16 40L13 40L13 39L17 39L17 40L18 40L18 42L16 42L16 43L14 43L14 44L15 44L15 45L16 45L16 43L22 43L22 44L21 44L21 46L19 46L19 45L20 45L20 44L17 44L17 45L18 45L18 46L19 46L19 47L18 47L18 49L20 49L20 47L23 47L23 48L21 48L21 49L26 49L26 47L27 47L27 46L28 46L28 49L42 49L42 48L37 48L37 47L38 47L38 46L35 46L35 48L33 48L33 47L34 47L34 45L40 45L40 46L39 46L39 47L46 47L46 46L47 46L47 47L48 47L48 46L49 46L49 44L47 44L47 45L46 45L46 44L45 44L45 43L49 43L49 38L45 38L45 39L44 39L44 38L41 38L41 39L42 39L42 40L40 40L40 38L39 38L39 39L38 39L38 38L35 38L35 39L36 39L36 40L33 40L33 39L34 39L34 36L33 36L33 35L34 35L34 34L31 34L31 36L32 36L32 37L31 37L31 38L32 38L32 40L30 40L30 41L29 41L29 38L30 38L30 37L29 37L29 35L30 35L30 33L37 33L37 34L35 34L35 35L36 35L36 36L35 36L35 37L44 37L44 36L43 36L43 35L47 35L47 34L48 34L48 35L49 35L49 33L48 33L48 32L49 32L49 30L46 30L46 31L48 31L48 32L47 32L47 34L42 34L42 32L43 32L43 33L44 33L44 32L43 32L43 31L45 31L45 30L39 30L39 31L38 31L38 30L35 30L35 32L33 32L33 30L34 30L34 29L44 29L44 28L43 28L43 27L47 27L47 26L45 26L45 23L48 23L48 24L47 24L47 25L48 25L48 28L47 28L47 29L48 29L48 28L49 28L49 25L48 25L48 24L49 24L49 21L48 21L48 22L42 22L42 21L46 21L46 20L45 20L45 19L47 19L47 20L49 20L49 16L47 16L47 17L48 17L48 19L47 19L47 18L43 18L43 19L44 19L44 20L41 20L41 22L39 22L39 23L40 23L40 24L39 24L39 25L40 25L40 26L39 26L39 28L37 28L37 27L38 27L38 24L37 24L37 23L38 23L38 22L35 22L35 23L34 23L34 24L33 24L33 22L34 22L34 21L38 21L38 20L39 20L39 19L42 19L42 18L39 18L39 19L38 19L38 20L37 20L37 18L38 18L38 17L40 17L40 16L37 16L37 15L39 15L39 14L35 14L35 15L34 15L34 14L33 14L33 13L38 13L38 12L39 12L39 11L42 11L42 10L38 10L38 9L40 9L40 8L37 8L37 6L36 6L36 7L35 7L35 5L38 5L38 7L39 7L39 5L38 5L38 4L32 4L32 3L36 3L36 2L35 2L35 1L37 1L37 3L38 3L38 2L39 2L39 4L40 4L40 3L41 3L41 0L40 0L40 1L38 1L38 0L26 0L26 2L25 2L25 3L28 3L28 2L27 2L27 1L30 1L30 2L29 2L29 3L30 3L30 5L29 5L29 4L23 4L23 3L22 3L22 2L18 2L18 3L19 3L19 4L17 4L17 5L16 5L16 7L15 7L15 4L14 4L14 5L13 5L13 2L12 2L12 1L14 1L14 0ZM16 0L16 1L15 1L15 2L14 2L14 3L15 3L15 2L17 2L17 1L18 1L18 0ZM19 0L19 1L23 1L23 2L24 2L24 1L25 1L25 0L24 0L24 1L23 1L23 0ZM31 1L31 3L32 3L32 2L34 2L34 1ZM21 3L21 4L22 4L22 3ZM10 4L10 6L9 6L9 7L10 7L10 6L11 6L11 8L13 8L13 10L12 10L12 9L11 9L11 11L12 11L12 12L10 12L10 15L11 15L11 13L12 13L12 16L13 16L13 15L14 15L14 16L15 16L15 17L16 17L16 18L18 18L18 19L14 19L14 20L16 20L16 21L14 21L14 22L18 22L18 21L17 21L17 20L18 20L18 19L19 19L19 20L20 20L20 21L19 21L19 23L13 23L13 24L12 24L12 25L13 25L13 24L16 24L16 25L15 25L15 26L13 26L13 27L12 27L12 28L11 28L11 29L10 29L10 28L9 28L9 29L10 29L10 30L11 30L11 31L13 31L13 32L9 32L9 35L8 35L8 34L7 34L7 33L6 33L6 34L7 34L7 35L5 35L5 37L6 37L6 38L7 38L7 39L8 39L8 38L9 38L9 39L11 39L11 37L10 37L10 38L9 38L9 37L8 37L8 36L9 36L9 35L10 35L10 34L11 34L11 36L13 36L13 34L14 34L14 33L13 33L13 32L14 32L14 31L13 31L13 30L18 30L18 31L15 31L15 34L18 34L18 31L19 31L19 32L20 32L20 33L19 33L19 34L21 34L21 35L14 35L14 36L16 36L16 37L14 37L14 38L17 38L17 39L20 39L20 38L21 38L21 40L20 40L20 41L19 41L19 42L21 42L21 40L24 40L24 38L25 38L25 40L26 40L26 38L27 38L27 41L28 41L28 42L27 42L27 45L26 45L26 46L27 46L27 45L28 45L28 46L29 46L29 47L30 47L30 48L32 48L32 47L33 47L33 46L32 46L32 43L31 43L31 42L34 42L34 43L33 43L33 45L34 45L34 44L36 44L36 43L37 43L37 44L40 44L40 43L39 43L39 42L40 42L40 41L37 41L37 42L36 42L36 41L30 41L30 42L29 42L29 41L28 41L28 38L29 38L29 37L28 37L28 38L27 38L27 36L28 36L28 34L29 34L29 33L28 33L28 34L27 34L27 33L26 33L26 34L25 34L25 32L26 32L26 30L29 30L29 31L30 31L30 32L32 32L32 30L33 30L33 29L30 29L30 27L29 27L29 29L27 29L27 28L28 28L28 27L27 27L27 28L26 28L26 27L25 27L25 28L24 28L24 30L23 30L23 29L21 29L21 28L22 28L22 25L21 25L21 24L22 24L22 22L23 22L23 21L24 21L24 20L23 20L23 19L25 19L25 20L26 20L26 22L29 22L29 21L27 21L27 20L28 20L28 18L30 18L30 23L29 23L29 24L32 24L32 23L31 23L31 22L33 22L33 21L31 21L31 18L37 18L37 17L35 17L35 16L34 16L34 15L33 15L33 14L32 14L32 13L30 13L30 12L32 12L32 11L31 11L31 10L37 10L37 12L38 12L38 10L37 10L37 9L28 9L28 8L27 8L27 9L26 9L26 10L25 10L25 9L23 9L23 10L22 10L22 9L21 9L21 7L22 7L22 5L21 5L21 7L20 7L20 5L17 5L17 8L16 8L16 11L15 11L15 10L14 10L14 6L13 6L13 7L12 7L12 5L11 5L11 4ZM23 5L23 8L26 8L26 5ZM27 5L27 7L28 7L28 6L29 6L29 8L32 8L32 6L33 6L33 8L35 8L35 7L34 7L34 5L31 5L31 7L30 7L30 6L29 6L29 5ZM18 6L18 7L19 7L19 6ZM24 6L24 7L25 7L25 6ZM40 6L40 7L41 7L41 6ZM17 8L17 9L18 9L18 10L17 10L17 11L16 11L16 12L15 12L15 11L14 11L14 12L15 12L15 13L19 13L19 11L22 11L22 10L19 10L19 9L20 9L20 8ZM41 8L41 9L45 9L45 8ZM47 8L47 9L48 9L48 12L49 12L49 8ZM2 9L2 10L1 10L1 11L2 11L2 12L3 12L3 15L4 15L4 17L5 17L5 18L3 18L3 19L4 19L4 20L5 20L5 21L6 21L6 22L9 22L9 23L10 23L10 22L12 22L12 21L11 21L11 19L12 19L12 18L14 18L14 17L11 17L11 16L9 16L9 18L8 18L8 17L5 17L5 15L6 15L6 16L8 16L8 15L9 15L9 13L6 13L6 12L8 12L8 11L6 11L6 10L7 10L7 9L6 9L6 10L5 10L5 11L6 11L6 12L4 12L4 11L3 11L3 9ZM9 9L9 10L10 10L10 9ZM18 10L18 11L17 11L17 12L18 12L18 11L19 11L19 10ZM23 10L23 11L24 11L24 13L23 13L23 12L21 12L21 13L23 13L23 14L20 14L20 15L19 15L19 14L14 14L14 15L19 15L19 16L17 16L17 17L18 17L18 18L19 18L19 19L22 19L22 18L23 18L23 17L24 17L24 18L25 18L25 19L26 19L26 17L27 17L27 18L28 18L28 17L34 17L34 16L33 16L33 15L32 15L32 14L31 14L31 15L32 15L32 16L29 16L29 15L30 15L30 13L29 13L29 12L30 12L30 10L29 10L29 11L28 11L28 10L26 10L26 13L25 13L25 10ZM43 10L43 11L44 11L44 12L41 12L41 13L45 13L45 14L43 14L43 15L44 15L44 16L41 16L41 17L46 17L46 16L45 16L45 14L46 14L46 15L49 15L49 13L48 13L48 14L46 14L46 12L45 12L45 11L47 11L47 10ZM27 11L27 12L28 12L28 11ZM33 11L33 12L36 12L36 11ZM4 13L4 14L6 14L6 15L8 15L8 14L6 14L6 13ZM24 13L24 15L21 15L21 16L20 16L20 17L19 17L19 18L22 18L22 17L23 17L23 16L24 16L24 15L26 15L26 16L27 16L27 17L28 17L28 16L27 16L27 15L29 15L29 13L28 13L28 14L27 14L27 13L26 13L26 14L25 14L25 13ZM40 14L40 15L42 15L42 14ZM10 17L10 18L9 18L9 19L11 19L11 17ZM5 18L5 20L6 20L6 21L7 21L7 20L6 20L6 19L8 19L8 18ZM33 19L33 20L36 20L36 19ZM8 20L8 21L9 21L9 22L10 22L10 20ZM21 20L21 21L22 21L22 20ZM1 21L1 23L2 23L2 22L3 22L3 21ZM20 22L20 23L21 23L21 22ZM5 23L5 26L8 26L8 23ZM23 23L23 26L26 26L26 23ZM27 23L27 26L29 26L29 25L28 25L28 23ZM41 23L41 26L44 26L44 23ZM6 24L6 25L7 25L7 24ZM18 24L18 25L17 25L17 27L16 27L16 26L15 26L15 27L14 27L14 28L15 28L15 29L16 29L16 28L17 28L17 29L18 29L18 30L19 30L19 31L21 31L21 30L19 30L19 28L17 28L17 27L21 27L21 26L18 26L18 25L20 25L20 24ZM24 24L24 25L25 25L25 24ZM34 24L34 25L30 25L30 26L34 26L34 28L36 28L36 27L35 27L35 24ZM42 24L42 25L43 25L43 24ZM10 25L10 26L9 26L9 27L11 27L11 25ZM36 25L36 26L37 26L37 25ZM15 27L15 28L16 28L16 27ZM31 27L31 28L32 28L32 27ZM40 27L40 28L42 28L42 27ZM12 28L12 29L13 29L13 28ZM25 28L25 29L26 29L26 28ZM45 28L45 29L46 29L46 28ZM29 29L29 30L30 30L30 29ZM22 30L22 31L23 31L23 32L21 32L21 33L23 33L23 34L22 34L22 36L21 36L21 37L23 37L23 38L22 38L22 39L23 39L23 38L24 38L24 36L23 36L23 35L24 35L24 32L25 32L25 31L23 31L23 30ZM27 31L27 32L28 32L28 31ZM37 31L37 33L38 33L38 34L37 34L37 36L39 36L39 35L40 35L40 36L42 36L42 34L41 34L41 33L40 33L40 34L39 34L39 33L38 33L38 31ZM40 31L40 32L42 32L42 31ZM45 32L45 33L46 33L46 32ZM26 34L26 35L25 35L25 38L26 38L26 36L27 36L27 34ZM40 34L40 35L41 35L41 34ZM7 35L7 36L6 36L6 37L7 37L7 38L8 38L8 37L7 37L7 36L8 36L8 35ZM17 36L17 37L18 37L18 38L19 38L19 36ZM45 36L45 37L46 37L46 36ZM47 36L47 37L49 37L49 36ZM32 37L32 38L33 38L33 37ZM12 38L12 39L13 39L13 38ZM37 39L37 40L38 40L38 39ZM43 39L43 40L44 40L44 39ZM45 39L45 40L47 40L47 41L45 41L45 42L48 42L48 40L47 40L47 39ZM23 41L23 44L26 44L26 41ZM41 41L41 44L44 44L44 41ZM24 42L24 43L25 43L25 42ZM28 42L28 45L29 45L29 46L30 46L30 45L31 45L31 44L30 44L30 45L29 45L29 42ZM35 42L35 43L36 43L36 42ZM37 42L37 43L38 43L38 42ZM42 42L42 43L43 43L43 42ZM9 43L9 44L10 44L10 43ZM42 45L42 46L44 46L44 45ZM45 45L45 46L46 46L46 45ZM8 46L8 49L12 49L12 48L10 48L10 47L11 47L11 46L10 46L10 47L9 47L9 46ZM12 46L12 47L17 47L17 46ZM23 46L23 47L24 47L24 48L25 48L25 47L24 47L24 46ZM31 46L31 47L32 47L32 46ZM13 48L13 49L16 49L16 48ZM43 48L43 49L47 49L47 48ZM48 48L48 49L49 49L49 48ZM0 0L0 7L7 7L7 0ZM1 1L1 6L6 6L6 1ZM2 2L2 5L5 5L5 2ZM42 0L42 7L49 7L49 0ZM43 1L43 6L48 6L48 1ZM44 2L44 5L47 5L47 2ZM0 42L0 49L7 49L7 42ZM1 43L1 48L6 48L6 43ZM2 44L2 47L5 47L5 44Z" fill="#000000"/></g></g></svg>
