<?xml version="1.0" encoding="UTF-8"?>
<svg xmlns="http://www.w3.org/2000/svg" version="1.1" width="170" height="170" viewBox="0 0 170 170"><rect x="0" y="0" width="170" height="170" fill="#ffffff"/><g transform="scale(2.787)"><g transform="translate(0,0)"><path fill-rule="evenodd" d="M12 0L12 1L13 1L13 0ZM14 0L14 2L13 2L13 3L12 3L12 2L11 2L11 1L10 1L10 2L11 2L11 3L10 3L10 4L9 4L9 6L8 6L8 8L4 8L4 9L3 9L3 8L0 8L0 9L3 9L3 11L4 11L4 12L3 12L3 13L5 13L5 14L4 14L4 15L3 15L3 16L2 16L2 15L1 15L1 16L2 16L2 17L3 17L3 18L1 18L1 17L0 17L0 20L1 20L1 21L3 21L3 22L4 22L4 24L5 24L5 22L6 22L6 23L8 23L8 24L9 24L9 26L8 26L8 27L7 27L7 26L6 26L6 25L7 25L7 24L6 24L6 25L4 25L4 26L2 26L2 27L1 27L1 26L0 26L0 27L1 27L1 28L0 28L0 32L3 32L3 33L2 33L2 34L1 34L1 33L0 33L0 34L1 34L1 36L0 36L0 38L1 38L1 40L0 40L0 43L1 43L1 45L0 45L0 46L2 46L2 47L4 47L4 48L1 48L1 49L3 49L3 50L2 50L2 51L0 51L0 53L4 53L4 52L5 52L5 51L7 51L7 52L6 52L6 53L7 53L7 52L8 52L8 51L7 51L7 50L6 50L6 49L8 49L8 48L6 48L6 49L5 49L5 47L7 47L7 46L9 46L9 44L10 44L10 45L11 45L11 48L9 48L9 49L10 49L10 50L11 50L11 49L12 49L12 50L13 50L13 51L9 51L9 53L8 53L8 57L10 57L10 58L12 58L12 57L10 57L10 56L11 56L11 55L12 55L12 54L13 54L13 57L15 57L15 58L16 58L16 59L14 59L14 58L13 58L13 59L11 59L11 60L12 60L12 61L13 61L13 60L18 60L18 61L19 61L19 60L20 60L20 59L21 59L21 60L22 60L22 61L23 61L23 60L24 60L24 59L25 59L25 58L24 58L24 57L23 57L23 56L24 56L24 55L25 55L25 54L26 54L26 55L28 55L28 57L27 57L27 56L26 56L26 57L27 57L27 58L26 58L26 59L27 59L27 60L25 60L25 61L27 61L27 60L28 60L28 61L30 61L30 60L31 60L31 61L32 61L32 60L33 60L33 61L35 61L35 59L37 59L37 60L36 60L36 61L39 61L39 60L40 60L40 61L41 61L41 60L42 60L42 61L43 61L43 60L44 60L44 61L45 61L45 60L46 60L46 61L47 61L47 60L48 60L48 61L53 61L53 60L54 60L54 59L55 59L55 60L56 60L56 61L57 61L57 60L56 60L56 59L57 59L57 56L58 56L58 55L59 55L59 57L58 57L58 58L60 58L60 59L59 59L59 61L61 61L61 60L60 60L60 59L61 59L61 58L60 58L60 56L61 56L61 52L60 52L60 51L61 51L61 49L60 49L60 51L59 51L59 50L58 50L58 49L57 49L57 50L56 50L56 49L55 49L55 48L56 48L56 47L57 47L57 48L58 48L58 47L59 47L59 48L61 48L61 44L60 44L60 45L59 45L59 46L58 46L58 45L57 45L57 46L56 46L56 45L55 45L55 43L58 43L58 42L59 42L59 41L61 41L61 40L59 40L59 41L58 41L58 42L56 42L56 41L55 41L55 40L56 40L56 39L57 39L57 40L58 40L58 39L59 39L59 38L58 38L58 35L59 35L59 36L60 36L60 39L61 39L61 36L60 36L60 35L61 35L61 34L60 34L60 33L61 33L61 32L60 32L60 31L61 31L61 26L60 26L60 25L57 25L57 24L58 24L58 23L59 23L59 24L61 24L61 21L59 21L59 22L58 22L58 21L57 21L57 20L58 20L58 17L57 17L57 16L58 16L58 15L57 15L57 14L59 14L59 13L58 13L58 12L57 12L57 10L58 10L58 11L59 11L59 12L61 12L61 9L59 9L59 8L58 8L58 9L57 9L57 10L56 10L56 9L55 9L55 8L53 8L53 10L52 10L52 9L51 9L51 8L52 8L52 7L53 7L53 6L52 6L52 7L51 7L51 5L52 5L52 4L53 4L53 0L51 0L51 2L50 2L50 0L48 0L48 1L47 1L47 0L46 0L46 1L45 1L45 0L44 0L44 1L43 1L43 0L42 0L42 3L41 3L41 2L39 2L39 0L34 0L34 3L36 3L36 1L38 1L38 2L37 2L37 4L36 4L36 5L35 5L35 4L34 4L34 5L35 5L35 6L34 6L34 7L35 7L35 8L34 8L34 9L35 9L35 10L36 10L36 11L35 11L35 15L36 15L36 17L35 17L35 16L33 16L33 12L34 12L34 11L33 11L33 10L32 10L32 11L33 11L33 12L32 12L32 13L30 13L30 14L32 14L32 15L30 15L30 17L31 17L31 18L30 18L30 19L31 19L31 20L32 20L32 21L31 21L31 22L30 22L30 21L29 21L29 22L30 22L30 23L33 23L33 25L35 25L35 26L37 26L37 28L36 28L36 29L37 29L37 30L36 30L36 33L35 33L35 34L36 34L36 35L35 35L35 36L34 36L34 33L33 33L33 32L35 32L35 31L33 31L33 29L35 29L35 28L33 28L33 27L32 27L32 25L31 25L31 26L30 26L30 25L29 25L29 24L28 24L28 23L27 23L27 22L28 22L28 20L26 20L26 19L28 19L28 17L29 17L29 16L28 16L28 15L27 15L27 14L28 14L28 13L29 13L29 12L30 12L30 11L31 11L31 10L30 10L30 9L33 9L33 4L32 4L32 3L33 3L33 2L30 2L30 3L29 3L29 1L31 1L31 0L27 0L27 1L28 1L28 3L27 3L27 2L26 2L26 1L25 1L25 0L24 0L24 1L25 1L25 2L24 2L24 4L22 4L22 3L21 3L21 2L23 2L23 0L17 0L17 1L16 1L16 0ZM40 0L40 1L41 1L41 0ZM18 1L18 2L16 2L16 3L17 3L17 5L18 5L18 6L17 6L17 8L16 8L16 6L15 6L15 5L16 5L16 4L15 4L15 2L14 2L14 3L13 3L13 5L14 5L14 6L13 6L13 7L14 7L14 8L12 8L12 3L11 3L11 4L10 4L10 6L9 6L9 8L12 8L12 12L11 12L11 9L10 9L10 10L9 10L9 11L8 11L8 9L5 9L5 11L6 11L6 12L7 12L7 11L8 11L8 12L9 12L9 13L8 13L8 14L9 14L9 13L11 13L11 14L12 14L12 15L10 15L10 16L9 16L9 18L8 18L8 20L7 20L7 19L6 19L6 20L5 20L5 21L4 21L4 22L5 22L5 21L6 21L6 22L7 22L7 21L8 21L8 23L9 23L9 22L10 22L10 24L11 24L11 25L12 25L12 26L13 26L13 27L12 27L12 28L11 28L11 26L9 26L9 29L10 29L10 30L13 30L13 31L9 31L9 32L14 32L14 34L11 34L11 35L13 35L13 37L15 37L15 38L17 38L17 40L15 40L15 39L14 39L14 38L11 38L11 36L10 36L10 38L11 38L11 41L10 41L10 40L9 40L9 39L8 39L8 40L9 40L9 41L8 41L8 42L7 42L7 41L6 41L6 40L7 40L7 39L6 39L6 38L7 38L7 37L8 37L8 38L9 38L9 36L7 36L7 35L9 35L9 33L6 33L6 34L5 34L5 36L7 36L7 37L6 37L6 38L5 38L5 37L3 37L3 38L2 38L2 37L1 37L1 38L2 38L2 39L4 39L4 40L5 40L5 42L3 42L3 43L2 43L2 42L1 42L1 43L2 43L2 44L3 44L3 43L5 43L5 44L7 44L7 45L5 45L5 46L7 46L7 45L8 45L8 44L9 44L9 41L10 41L10 43L11 43L11 44L12 44L12 45L13 45L13 46L15 46L15 47L12 47L12 49L14 49L14 50L15 50L15 49L14 49L14 48L15 48L15 47L16 47L16 48L19 48L19 49L20 49L20 50L19 50L19 51L18 51L18 49L16 49L16 50L17 50L17 51L16 51L16 52L15 52L15 51L13 51L13 52L11 52L11 54L10 54L10 53L9 53L9 55L11 55L11 54L12 54L12 53L13 53L13 52L15 52L15 55L14 55L14 56L16 56L16 58L17 58L17 59L18 59L18 60L19 60L19 59L18 59L18 58L19 58L19 56L18 56L18 58L17 58L17 55L16 55L16 54L18 54L18 55L20 55L20 56L21 56L21 57L20 57L20 58L21 58L21 57L22 57L22 56L23 56L23 55L24 55L24 54L25 54L25 53L26 53L26 52L27 52L27 53L28 53L28 52L29 52L29 51L28 51L28 50L29 50L29 49L30 49L30 48L31 48L31 47L30 47L30 46L29 46L29 44L30 44L30 42L29 42L29 41L28 41L28 40L31 40L31 41L32 41L32 40L33 40L33 38L32 38L32 39L31 39L31 37L33 37L33 35L32 35L32 33L31 33L31 35L30 35L30 34L29 34L29 33L28 33L28 31L27 31L27 30L28 30L28 26L29 26L29 27L30 27L30 28L31 28L31 27L30 27L30 26L29 26L29 25L28 25L28 24L27 24L27 23L26 23L26 22L25 22L25 21L26 21L26 20L24 20L24 19L26 19L26 18L27 18L27 17L28 17L28 16L27 16L27 15L25 15L25 13L26 13L26 12L27 12L27 11L26 11L26 10L28 10L28 6L27 6L27 8L26 8L26 10L25 10L25 7L26 7L26 5L28 5L28 4L27 4L27 3L26 3L26 2L25 2L25 3L26 3L26 4L25 4L25 5L22 5L22 4L21 4L21 5L20 5L20 4L19 4L19 3L20 3L20 2L21 2L21 1L20 1L20 2L19 2L19 1ZM44 1L44 2L43 2L43 3L42 3L42 4L41 4L41 3L40 3L40 4L41 4L41 5L40 5L40 6L39 6L39 7L38 7L38 6L37 6L37 5L36 5L36 6L35 6L35 7L36 7L36 8L37 8L37 9L36 9L36 10L37 10L37 9L38 9L38 11L36 11L36 13L37 13L37 14L36 14L36 15L38 15L38 16L37 16L37 18L35 18L35 17L34 17L34 19L33 19L33 23L34 23L34 21L35 21L35 20L37 20L37 19L38 19L38 20L39 20L39 19L40 19L40 21L42 21L42 22L40 22L40 23L39 23L39 21L36 21L36 22L35 22L35 23L36 23L36 22L38 22L38 24L37 24L37 25L38 25L38 28L39 28L39 26L40 26L40 28L41 28L41 29L40 29L40 30L39 30L39 29L38 29L38 30L39 30L39 31L38 31L38 32L39 32L39 33L37 33L37 35L38 35L38 37L37 37L37 38L35 38L35 37L36 37L36 36L35 36L35 37L34 37L34 38L35 38L35 39L34 39L34 40L35 40L35 41L33 41L33 42L31 42L31 46L32 46L32 45L33 45L33 47L32 47L32 48L35 48L35 49L34 49L34 51L32 51L32 50L33 50L33 49L32 49L32 50L30 50L30 51L32 51L32 52L33 52L33 56L34 56L34 53L35 53L35 54L37 54L37 55L38 55L38 56L37 56L37 57L31 57L31 59L35 59L35 58L37 58L37 57L38 57L38 60L39 60L39 59L40 59L40 58L41 58L41 59L42 59L42 60L43 60L43 59L44 59L44 58L45 58L45 59L46 59L46 60L47 60L47 57L46 57L46 56L45 56L45 57L44 57L44 56L43 56L43 55L44 55L44 54L45 54L45 55L49 55L49 54L47 54L47 53L48 53L48 50L50 50L50 51L49 51L49 52L51 52L51 53L50 53L50 55L52 55L52 54L51 54L51 53L52 53L52 52L53 52L53 51L54 51L54 50L55 50L55 49L54 49L54 48L53 48L53 47L54 47L54 46L55 46L55 47L56 47L56 46L55 46L55 45L54 45L54 42L53 42L53 41L54 41L54 40L53 40L53 39L54 39L54 38L55 38L55 39L56 39L56 38L57 38L57 39L58 39L58 38L57 38L57 36L56 36L56 35L55 35L55 37L54 37L54 36L53 36L53 35L54 35L54 34L55 34L55 33L54 33L54 34L53 34L53 33L52 33L52 32L51 32L51 31L52 31L52 28L53 28L53 27L54 27L54 28L56 28L56 26L57 26L57 29L58 29L58 30L57 30L57 31L58 31L58 32L57 32L57 33L56 33L56 34L58 34L58 33L60 33L60 32L59 32L59 31L60 31L60 26L57 26L57 25L56 25L56 24L55 24L55 23L56 23L56 22L57 22L57 23L58 23L58 22L57 22L57 21L56 21L56 18L57 18L57 17L56 17L56 16L55 16L55 15L56 15L56 14L55 14L55 13L56 13L56 10L55 10L55 9L54 9L54 10L53 10L53 11L52 11L52 10L51 10L51 9L50 9L50 8L51 8L51 7L50 7L50 5L49 5L49 3L50 3L50 2L49 2L49 1L48 1L48 2L47 2L47 1L46 1L46 2L45 2L45 1ZM8 2L8 3L9 3L9 2ZM18 2L18 3L19 3L19 2ZM38 2L38 4L39 4L39 2ZM48 2L48 3L45 3L45 4L44 4L44 3L43 3L43 4L42 4L42 5L41 5L41 6L40 6L40 9L39 9L39 8L38 8L38 7L37 7L37 6L36 6L36 7L37 7L37 8L38 8L38 9L39 9L39 10L40 10L40 11L38 11L38 12L39 12L39 13L38 13L38 15L39 15L39 13L40 13L40 16L39 16L39 18L40 18L40 19L41 19L41 20L42 20L42 21L43 21L43 22L44 22L44 23L43 23L43 24L42 24L42 23L40 23L40 25L41 25L41 26L42 26L42 25L43 25L43 26L44 26L44 27L43 27L43 28L42 28L42 27L41 27L41 28L42 28L42 29L41 29L41 30L40 30L40 31L39 31L39 32L40 32L40 33L39 33L39 34L40 34L40 35L39 35L39 36L40 36L40 37L39 37L39 38L40 38L40 39L39 39L39 40L38 40L38 41L37 41L37 39L38 39L38 38L37 38L37 39L36 39L36 41L35 41L35 43L34 43L34 44L33 44L33 45L35 45L35 47L36 47L36 49L35 49L35 50L36 50L36 53L38 53L38 51L37 51L37 50L36 50L36 49L37 49L37 48L40 48L40 49L39 49L39 50L40 50L40 51L39 51L39 52L40 52L40 53L39 53L39 54L40 54L40 57L39 57L39 56L38 56L38 57L39 57L39 58L40 58L40 57L41 57L41 58L42 58L42 57L43 57L43 58L44 58L44 57L43 57L43 56L42 56L42 55L41 55L41 54L42 54L42 53L43 53L43 54L44 54L44 53L45 53L45 54L46 54L46 53L47 53L47 52L46 52L46 51L45 51L45 50L46 50L46 49L47 49L47 50L48 50L48 49L51 49L51 51L53 51L53 50L54 50L54 49L51 49L51 48L50 48L50 47L49 47L49 46L48 46L48 45L49 45L49 43L50 43L50 44L51 44L51 43L50 43L50 41L51 41L51 42L52 42L52 43L53 43L53 42L52 42L52 41L53 41L53 40L52 40L52 41L51 41L51 40L50 40L50 41L49 41L49 39L50 39L50 37L51 37L51 38L52 38L52 37L53 37L53 38L54 38L54 37L53 37L53 36L52 36L52 37L51 37L51 36L50 36L50 35L49 35L49 34L48 34L48 37L49 37L49 38L47 38L47 40L48 40L48 41L49 41L49 42L47 42L47 43L48 43L48 45L47 45L47 44L46 44L46 43L45 43L45 42L44 42L44 41L46 41L46 39L45 39L45 38L46 38L46 37L47 37L47 36L46 36L46 35L45 35L45 34L46 34L46 33L45 33L45 32L47 32L47 31L45 31L45 30L46 30L46 29L47 29L47 28L48 28L48 29L50 29L50 28L52 28L52 27L53 27L53 26L54 26L54 25L55 25L55 26L56 26L56 25L55 25L55 24L54 24L54 21L55 21L55 22L56 22L56 21L55 21L55 20L54 20L54 19L53 19L53 18L54 18L54 17L55 17L55 18L56 18L56 17L55 17L55 16L54 16L54 15L53 15L53 14L54 14L54 11L53 11L53 14L52 14L52 15L51 15L51 16L50 16L50 15L49 15L49 14L48 14L48 13L49 13L49 12L51 12L51 13L52 13L52 11L49 11L49 10L48 10L48 9L49 9L49 8L50 8L50 7L49 7L49 5L47 5L47 4L48 4L48 3L49 3L49 2ZM51 3L51 4L52 4L52 3ZM43 4L43 5L44 5L44 6L43 6L43 7L42 7L42 6L41 6L41 7L42 7L42 8L41 8L41 9L42 9L42 10L41 10L41 11L42 11L42 12L41 12L41 13L42 13L42 14L41 14L41 15L42 15L42 16L43 16L43 17L42 17L42 20L43 20L43 21L44 21L44 22L45 22L45 23L46 23L46 24L47 24L47 23L49 23L49 21L50 21L50 23L52 23L52 24L51 24L51 25L48 25L48 26L47 26L47 25L44 25L44 24L43 24L43 25L44 25L44 26L45 26L45 27L46 27L46 28L45 28L45 29L44 29L44 28L43 28L43 29L42 29L42 30L41 30L41 33L40 33L40 34L41 34L41 35L40 35L40 36L41 36L41 37L40 37L40 38L41 38L41 39L42 39L42 40L41 40L41 41L40 41L40 40L39 40L39 41L38 41L38 42L37 42L37 41L36 41L36 42L37 42L37 43L36 43L36 45L37 45L37 46L36 46L36 47L38 47L38 45L40 45L40 46L39 46L39 47L40 47L40 46L41 46L41 48L42 48L42 47L43 47L43 48L44 48L44 46L45 46L45 47L46 47L46 48L45 48L45 49L42 49L42 52L41 52L41 53L40 53L40 54L41 54L41 53L42 53L42 52L43 52L43 53L44 53L44 52L43 52L43 51L44 51L44 50L45 50L45 49L46 49L46 48L47 48L47 49L48 49L48 46L47 46L47 45L46 45L46 44L45 44L45 45L44 45L44 44L43 44L43 43L44 43L44 42L43 42L43 41L44 41L44 40L43 40L43 39L44 39L44 38L45 38L45 37L46 37L46 36L45 36L45 37L44 37L44 36L43 36L43 33L44 33L44 34L45 34L45 33L44 33L44 30L45 30L45 29L46 29L46 28L47 28L47 27L48 27L48 26L49 26L49 28L50 28L50 27L52 27L52 26L53 26L53 25L54 25L54 24L53 24L53 23L52 23L52 22L53 22L53 21L54 21L54 20L53 20L53 19L52 19L52 18L53 18L53 17L54 17L54 16L53 16L53 15L52 15L52 16L51 16L51 17L50 17L50 16L49 16L49 17L48 17L48 14L47 14L47 13L48 13L48 12L49 12L49 11L48 11L48 12L45 12L45 13L44 13L44 12L43 12L43 11L44 11L44 10L45 10L45 11L47 11L47 9L48 9L48 8L47 8L47 7L48 7L48 6L47 6L47 5L46 5L46 4L45 4L45 5L44 5L44 4ZM19 5L19 6L18 6L18 7L19 7L19 8L18 8L18 9L19 9L19 8L20 8L20 10L21 10L21 11L20 11L20 12L18 12L18 11L19 11L19 10L18 10L18 11L17 11L17 12L18 12L18 13L17 13L17 14L18 14L18 15L15 15L15 12L16 12L16 11L15 11L15 10L16 10L16 8L14 8L14 11L13 11L13 12L14 12L14 15L15 15L15 16L14 16L14 17L15 17L15 19L14 19L14 20L13 20L13 19L12 19L12 18L13 18L13 16L11 16L11 17L12 17L12 18L10 18L10 19L9 19L9 20L8 20L8 21L9 21L9 20L11 20L11 21L10 21L10 22L14 22L14 21L15 21L15 20L16 20L16 19L17 19L17 18L16 18L16 17L18 17L18 18L20 18L20 19L19 19L19 20L17 20L17 21L18 21L18 22L17 22L17 23L16 23L16 22L15 22L15 23L14 23L14 27L15 27L15 29L14 29L14 28L12 28L12 29L13 29L13 30L15 30L15 29L17 29L17 30L16 30L16 31L14 31L14 32L16 32L16 34L18 34L18 35L16 35L16 36L17 36L17 38L18 38L18 39L19 39L19 40L18 40L18 41L19 41L19 40L20 40L20 42L22 42L22 43L20 43L20 44L21 44L21 50L20 50L20 51L19 51L19 52L17 52L17 53L18 53L18 54L20 54L20 55L21 55L21 56L22 56L22 55L23 55L23 54L24 54L24 53L23 53L23 52L22 52L22 51L23 51L23 50L22 50L22 48L24 48L24 50L26 50L26 51L24 51L24 52L26 52L26 51L27 51L27 52L28 52L28 51L27 51L27 48L28 48L28 49L29 49L29 48L30 48L30 47L29 47L29 48L28 48L28 47L24 47L24 46L23 46L23 44L24 44L24 43L25 43L25 46L28 46L28 45L27 45L27 44L28 44L28 43L29 43L29 42L28 42L28 43L27 43L27 42L26 42L26 40L28 40L28 39L26 39L26 38L27 38L27 36L28 36L28 35L29 35L29 34L28 34L28 35L27 35L27 34L26 34L26 33L27 33L27 31L25 31L25 30L26 30L26 29L27 29L27 28L26 28L26 27L27 27L27 26L28 26L28 25L27 25L27 24L26 24L26 25L27 25L27 26L26 26L26 27L25 27L25 26L24 26L24 25L23 25L23 24L22 24L22 23L23 23L23 19L21 19L21 18L22 18L22 16L24 16L24 18L26 18L26 17L27 17L27 16L26 16L26 17L25 17L25 16L24 16L24 15L22 15L22 14L24 14L24 13L25 13L25 12L26 12L26 11L25 11L25 10L24 10L24 9L23 9L23 8L24 8L24 7L25 7L25 6L24 6L24 7L23 7L23 6L22 6L22 5L21 5L21 6L20 6L20 5ZM29 5L29 8L32 8L32 5ZM45 5L45 6L44 6L44 7L43 7L43 8L42 8L42 9L43 9L43 10L44 10L44 9L46 9L46 8L45 8L45 6L46 6L46 7L47 7L47 6L46 6L46 5ZM10 6L10 7L11 7L11 6ZM14 6L14 7L15 7L15 6ZM19 6L19 7L20 7L20 8L21 8L21 9L22 9L22 8L23 8L23 7L22 7L22 6L21 6L21 7L20 7L20 6ZM30 6L30 7L31 7L31 6ZM21 7L21 8L22 8L22 7ZM43 8L43 9L44 9L44 8ZM58 9L58 10L59 10L59 11L60 11L60 10L59 10L59 9ZM0 10L0 11L1 11L1 10ZM6 10L6 11L7 11L7 10ZM23 10L23 11L22 11L22 12L23 12L23 13L24 13L24 12L25 12L25 11L24 11L24 10ZM29 10L29 11L28 11L28 12L29 12L29 11L30 11L30 10ZM9 11L9 12L10 12L10 11ZM14 11L14 12L15 12L15 11ZM23 11L23 12L24 12L24 11ZM0 12L0 13L1 13L1 14L2 14L2 12ZM20 12L20 13L19 13L19 15L18 15L18 16L19 16L19 17L20 17L20 18L21 18L21 16L19 16L19 15L20 15L20 14L21 14L21 12ZM42 12L42 13L43 13L43 14L44 14L44 15L43 15L43 16L44 16L44 17L43 17L43 18L46 18L46 19L43 19L43 20L44 20L44 21L45 21L45 22L46 22L46 21L45 21L45 20L48 20L48 21L49 21L49 20L51 20L51 22L52 22L52 19L51 19L51 18L52 18L52 17L51 17L51 18L50 18L50 19L49 19L49 18L48 18L48 17L47 17L47 18L46 18L46 17L45 17L45 16L47 16L47 15L45 15L45 14L46 14L46 13L45 13L45 14L44 14L44 13L43 13L43 12ZM6 13L6 14L5 14L5 15L4 15L4 18L3 18L3 20L4 20L4 19L5 19L5 15L6 15L6 16L7 16L7 15L6 15L6 14L7 14L7 13ZM60 13L60 15L59 15L59 16L60 16L60 17L59 17L59 18L60 18L60 19L59 19L59 20L61 20L61 18L60 18L60 17L61 17L61 13ZM31 16L31 17L33 17L33 16ZM6 17L6 18L7 18L7 17ZM40 17L40 18L41 18L41 17ZM47 18L47 19L48 19L48 20L49 20L49 19L48 19L48 18ZM1 19L1 20L2 20L2 19ZM20 19L20 20L19 20L19 21L20 21L20 22L18 22L18 23L20 23L20 24L21 24L21 25L20 25L20 26L21 26L21 25L22 25L22 24L21 24L21 23L22 23L22 22L21 22L21 21L22 21L22 20L21 20L21 19ZM34 19L34 20L35 20L35 19ZM6 20L6 21L7 21L7 20ZM12 20L12 21L13 21L13 20ZM1 22L1 23L0 23L0 25L1 25L1 24L2 24L2 22ZM20 22L20 23L21 23L21 22ZM24 22L24 23L25 23L25 22ZM59 22L59 23L60 23L60 22ZM15 23L15 24L16 24L16 26L15 26L15 27L16 27L16 28L17 28L17 29L18 29L18 28L19 28L19 27L18 27L18 26L19 26L19 24L18 24L18 26L17 26L17 24L16 24L16 23ZM35 24L35 25L36 25L36 24ZM41 24L41 25L42 25L42 24ZM51 25L51 26L52 26L52 25ZM4 26L4 27L5 27L5 28L7 28L7 27L5 27L5 26ZM16 26L16 27L17 27L17 28L18 28L18 27L17 27L17 26ZM23 26L23 27L20 27L20 29L19 29L19 30L21 30L21 31L19 31L19 33L20 33L20 34L19 34L19 35L20 35L20 36L19 36L19 37L20 37L20 38L19 38L19 39L20 39L20 40L21 40L21 41L22 41L22 40L23 40L23 41L24 41L24 42L23 42L23 43L22 43L22 44L23 44L23 43L24 43L24 42L25 42L25 39L24 39L24 38L25 38L25 37L26 37L26 36L27 36L27 35L26 35L26 34L25 34L25 33L26 33L26 32L25 32L25 31L24 31L24 32L25 32L25 33L24 33L24 34L25 34L25 35L24 35L24 36L23 36L23 35L22 35L22 34L23 34L23 33L22 33L22 32L23 32L23 31L22 31L22 30L21 30L21 29L22 29L22 28L23 28L23 27L24 27L24 29L23 29L23 30L25 30L25 27L24 27L24 26ZM2 27L2 28L1 28L1 29L2 29L2 30L4 30L4 29L2 29L2 28L3 28L3 27ZM5 29L5 32L8 32L8 29ZM29 29L29 32L32 32L32 29ZM43 29L43 30L44 30L44 29ZM53 29L53 32L56 32L56 29ZM6 30L6 31L7 31L7 30ZM17 30L17 31L16 31L16 32L17 32L17 31L18 31L18 30ZM30 30L30 31L31 31L31 30ZM48 30L48 33L49 33L49 30ZM54 30L54 31L55 31L55 30ZM58 30L58 31L59 31L59 30ZM3 31L3 32L4 32L4 31ZM50 32L50 33L51 33L51 34L52 34L52 35L53 35L53 34L52 34L52 33L51 33L51 32ZM41 33L41 34L42 34L42 33ZM3 34L3 35L2 35L2 36L3 36L3 35L4 35L4 34ZM6 34L6 35L7 35L7 34ZM14 34L14 36L15 36L15 34ZM20 34L20 35L21 35L21 36L22 36L22 37L21 37L21 38L20 38L20 39L21 39L21 40L22 40L22 39L23 39L23 40L24 40L24 39L23 39L23 36L22 36L22 35L21 35L21 34ZM59 34L59 35L60 35L60 34ZM25 35L25 36L24 36L24 37L25 37L25 36L26 36L26 35ZM31 35L31 36L30 36L30 37L31 37L31 36L32 36L32 35ZM41 35L41 36L42 36L42 37L41 37L41 38L42 38L42 37L43 37L43 38L44 38L44 37L43 37L43 36L42 36L42 35ZM28 37L28 38L29 38L29 37ZM55 37L55 38L56 38L56 37ZM4 38L4 39L5 39L5 40L6 40L6 39L5 39L5 38ZM21 38L21 39L22 39L22 38ZM12 39L12 41L14 41L14 42L13 42L13 43L12 43L12 42L11 42L11 43L12 43L12 44L13 44L13 45L14 45L14 44L18 44L18 45L17 45L17 46L16 46L16 45L15 45L15 46L16 46L16 47L17 47L17 46L19 46L19 47L20 47L20 46L19 46L19 44L18 44L18 43L19 43L19 42L18 42L18 43L15 43L15 42L16 42L16 41L15 41L15 40L13 40L13 39ZM1 40L1 41L2 41L2 40ZM42 40L42 41L41 41L41 42L40 42L40 43L38 43L38 44L40 44L40 45L41 45L41 46L42 46L42 45L43 45L43 46L44 46L44 45L43 45L43 44L42 44L42 43L41 43L41 42L42 42L42 41L43 41L43 40ZM6 42L6 43L7 43L7 44L8 44L8 43L7 43L7 42ZM60 42L60 43L61 43L61 42ZM26 43L26 44L27 44L27 43ZM41 44L41 45L42 45L42 44ZM52 44L52 45L51 45L51 46L52 46L52 47L53 47L53 46L54 46L54 45L53 45L53 44ZM3 45L3 46L4 46L4 45ZM45 45L45 46L46 46L46 45ZM52 45L52 46L53 46L53 45ZM22 46L22 47L23 47L23 46ZM57 46L57 47L58 47L58 46ZM59 46L59 47L60 47L60 46ZM25 48L25 49L26 49L26 48ZM40 49L40 50L41 50L41 49ZM21 50L21 51L20 51L20 52L19 52L19 53L20 53L20 54L21 54L21 55L22 55L22 54L21 54L21 53L22 53L22 52L21 52L21 51L22 51L22 50ZM57 50L57 51L56 51L56 52L57 52L57 51L58 51L58 54L57 54L57 55L58 55L58 54L59 54L59 53L60 53L60 52L59 52L59 51L58 51L58 50ZM3 51L3 52L4 52L4 51ZM34 51L34 52L35 52L35 51ZM45 52L45 53L46 53L46 52ZM29 53L29 56L32 56L32 53ZM53 53L53 56L56 56L56 53ZM30 54L30 55L31 55L31 54ZM54 54L54 55L55 55L55 54ZM35 55L35 56L36 56L36 55ZM41 56L41 57L42 57L42 56ZM49 56L49 57L48 57L48 58L49 58L49 60L51 60L51 59L52 59L52 60L53 60L53 59L54 59L54 58L55 58L55 59L56 59L56 58L55 58L55 57L54 57L54 58L53 58L53 59L52 59L52 58L51 58L51 57L52 57L52 56ZM28 57L28 59L29 59L29 60L30 60L30 57ZM49 57L49 58L50 58L50 57ZM8 58L8 61L9 61L9 60L10 60L10 59L9 59L9 58ZM23 58L23 59L22 59L22 60L23 60L23 59L24 59L24 58ZM0 0L0 7L7 7L7 0ZM1 1L1 6L6 6L6 1ZM2 2L2 5L5 5L5 2ZM54 0L54 7L61 7L61 0ZM55 1L55 6L60 6L60 1ZM56 2L56 5L59 5L59 2ZM0 54L0 61L7 61L7 54ZM1 55L1 60L6 60L6 55ZM2 56L2 59L5 59L5 56Z" fill="#000000"/></g></g></svg>
