<?xml version="1.0" encoding="UTF-8"?>
<svg xmlns="http://www.w3.org/2000/svg" version="1.1" width="170" height="170" viewBox="0 0 170 170"><rect x="0" y="0" width="170" height="170" fill="#ffffff"/><g transform="scale(2.787)"><g transform="translate(0,0)"><path fill-rule="evenodd" d="M10 0L10 1L11 1L11 2L10 2L10 3L13 3L13 4L14 4L14 3L15 3L15 5L16 5L16 7L17 7L17 6L18 6L18 7L19 7L19 8L18 8L18 9L19 9L19 8L20 8L20 10L21 10L21 9L22 9L22 11L20 11L20 12L22 12L22 13L21 13L21 14L20 14L20 13L19 13L19 11L18 11L18 10L16 10L16 9L15 9L15 8L14 8L14 7L15 7L15 6L14 6L14 5L12 5L12 4L11 4L11 5L10 5L10 4L9 4L9 6L8 6L8 8L4 8L4 9L3 9L3 8L0 8L0 10L3 10L3 11L2 11L2 13L1 13L1 14L2 14L2 16L3 16L3 17L1 17L1 16L0 16L0 18L1 18L1 19L0 19L0 22L1 22L1 24L0 24L0 26L1 26L1 25L2 25L2 26L4 26L4 25L5 25L5 26L6 26L6 27L3 27L3 28L2 28L2 29L3 29L3 30L2 30L2 31L1 31L1 30L0 30L0 32L2 32L2 35L1 35L1 36L0 36L0 38L1 38L1 40L0 40L0 41L1 41L1 42L0 42L0 44L1 44L1 45L3 45L3 46L4 46L4 47L1 47L1 46L0 46L0 47L1 47L1 48L6 48L6 49L5 49L5 50L4 50L4 49L3 49L3 50L2 50L2 49L1 49L1 50L2 50L2 51L0 51L0 53L4 53L4 52L5 52L5 51L7 51L7 50L8 50L8 51L9 51L9 52L6 52L6 53L8 53L8 57L10 57L10 56L11 56L11 55L12 55L12 57L11 57L11 58L16 58L16 59L15 59L15 60L14 60L14 59L12 59L12 61L15 61L15 60L16 60L16 59L17 59L17 60L18 60L18 61L19 61L19 60L20 60L20 59L21 59L21 60L22 60L22 61L23 61L23 60L22 60L22 59L25 59L25 61L29 61L29 60L30 60L30 59L31 59L31 58L32 58L32 60L31 60L31 61L35 61L35 60L36 60L36 61L37 61L37 60L38 60L38 61L39 61L39 60L40 60L40 61L41 61L41 60L43 60L43 59L44 59L44 61L45 61L45 60L47 60L47 58L48 58L48 61L49 61L49 60L50 60L50 61L51 61L51 60L52 60L52 61L53 61L53 60L54 60L54 61L55 61L55 60L58 60L58 59L59 59L59 61L61 61L61 60L60 60L60 59L61 59L61 58L60 58L60 57L61 57L61 56L60 56L60 55L61 55L61 52L60 52L60 51L61 51L61 49L59 49L59 50L58 50L58 51L59 51L59 52L60 52L60 53L59 53L59 54L58 54L58 53L57 53L57 50L54 50L54 52L52 52L52 53L51 53L51 51L53 51L53 50L51 50L51 51L50 51L50 52L49 52L49 51L48 51L48 53L47 53L47 54L48 54L48 55L47 55L47 56L46 56L46 55L44 55L44 54L45 54L45 52L47 52L47 51L45 51L45 50L44 50L44 49L46 49L46 45L45 45L45 42L46 42L46 41L47 41L47 42L48 42L48 43L47 43L47 44L48 44L48 45L47 45L47 46L48 46L48 48L47 48L47 49L49 49L49 50L50 50L50 49L51 49L51 48L50 48L50 47L49 47L49 46L50 46L50 45L51 45L51 44L52 44L52 45L53 45L53 46L51 46L51 47L53 47L53 48L52 48L52 49L55 49L55 48L56 48L56 47L57 47L57 49L58 49L58 47L59 47L59 48L60 48L60 47L61 47L61 44L60 44L60 46L59 46L59 45L57 45L57 46L56 46L56 45L55 45L55 44L56 44L56 43L57 43L57 44L58 44L58 43L59 43L59 42L58 42L58 41L57 41L57 40L58 40L58 39L59 39L59 40L60 40L60 41L61 41L61 40L60 40L60 39L61 39L61 36L60 36L60 35L61 35L61 34L58 34L58 32L57 32L57 31L59 31L59 32L60 32L60 33L61 33L61 32L60 32L60 31L61 31L61 29L60 29L60 28L59 28L59 29L57 29L57 28L58 28L58 27L59 27L59 26L60 26L60 27L61 27L61 26L60 26L60 25L61 25L61 24L60 24L60 23L61 23L61 20L60 20L60 19L61 19L61 17L60 17L60 18L59 18L59 20L60 20L60 21L59 21L59 22L58 22L58 21L57 21L57 18L58 18L58 17L57 17L57 15L56 15L56 14L58 14L58 13L57 13L57 12L58 12L58 11L59 11L59 12L61 12L61 9L59 9L59 8L58 8L58 9L57 9L57 10L56 10L56 9L55 9L55 8L53 8L53 6L52 6L52 8L53 8L53 10L52 10L52 9L51 9L51 8L50 8L50 7L51 7L51 5L52 5L52 4L53 4L53 0L51 0L51 2L50 2L50 3L49 3L49 4L48 4L48 3L47 3L47 4L46 4L46 5L45 5L45 4L44 4L44 2L43 2L43 1L46 1L46 2L45 2L45 3L46 3L46 2L48 2L48 1L49 1L49 0L48 0L48 1L47 1L47 0L42 0L42 1L41 1L41 2L42 2L42 3L41 3L41 4L40 4L40 3L39 3L39 2L40 2L40 0L38 0L38 3L37 3L37 4L36 4L36 3L35 3L35 2L36 2L36 1L37 1L37 0L34 0L34 1L33 1L33 2L32 2L32 1L31 1L31 0L27 0L27 1L31 1L31 2L30 2L30 4L29 4L29 3L28 3L28 2L27 2L27 3L28 3L28 4L27 4L27 5L26 5L26 3L25 3L25 2L26 2L26 1L25 1L25 0L24 0L24 1L25 1L25 2L24 2L24 3L23 3L23 4L24 4L24 5L23 5L23 6L22 6L22 4L20 4L20 3L21 3L21 2L20 2L20 1L22 1L22 2L23 2L23 0L20 0L20 1L19 1L19 2L18 2L18 1L16 1L16 0L14 0L14 1L13 1L13 0L12 0L12 1L11 1L11 0ZM14 1L14 2L13 2L13 3L14 3L14 2L15 2L15 1ZM8 2L8 3L9 3L9 2ZM16 2L16 3L17 3L17 5L18 5L18 6L19 6L19 7L20 7L20 8L23 8L23 11L22 11L22 12L23 12L23 14L22 14L22 15L23 15L23 16L22 16L22 18L21 18L21 15L20 15L20 14L19 14L19 13L17 13L17 11L16 11L16 10L15 10L15 11L13 11L13 9L14 9L14 8L13 8L13 7L14 7L14 6L13 6L13 7L12 7L12 6L11 6L11 7L10 7L10 6L9 6L9 7L10 7L10 8L11 8L11 7L12 7L12 8L13 8L13 9L4 9L4 11L5 11L5 10L8 10L8 11L6 11L6 12L5 12L5 15L6 15L6 16L8 16L8 15L6 15L6 14L7 14L7 13L6 13L6 12L9 12L9 13L11 13L11 14L9 14L9 15L10 15L10 16L9 16L9 17L10 17L10 19L6 19L6 18L7 18L7 17L5 17L5 16L4 16L4 17L5 17L5 18L2 18L2 21L1 21L1 22L2 22L2 21L3 21L3 24L2 24L2 25L3 25L3 24L4 24L4 23L5 23L5 24L7 24L7 25L6 25L6 26L9 26L9 27L6 27L6 28L9 28L9 30L10 30L10 32L9 32L9 33L8 33L8 35L9 35L9 36L10 36L10 37L11 37L11 38L10 38L10 39L8 39L8 40L9 40L9 41L5 41L5 43L6 43L6 44L8 44L8 45L4 45L4 44L3 44L3 45L4 45L4 46L5 46L5 47L6 47L6 48L7 48L7 47L9 47L9 48L10 48L10 49L8 49L8 50L10 50L10 51L11 51L11 49L12 49L12 48L10 48L10 46L11 46L11 45L13 45L13 46L14 46L14 44L15 44L15 45L16 45L16 46L15 46L15 47L13 47L13 49L14 49L14 50L15 50L15 49L14 49L14 48L15 48L15 47L16 47L16 48L17 48L17 49L16 49L16 50L17 50L17 49L18 49L18 48L19 48L19 49L20 49L20 50L19 50L19 51L18 51L18 52L19 52L19 53L20 53L20 54L21 54L21 53L22 53L22 52L23 52L23 53L24 53L24 54L23 54L23 55L21 55L21 57L20 57L20 58L21 58L21 59L22 59L22 58L23 58L23 57L24 57L24 58L25 58L25 59L26 59L26 58L27 58L27 59L28 59L28 58L29 58L29 59L30 59L30 57L28 57L28 55L26 55L26 54L25 54L25 53L26 53L26 52L24 52L24 51L28 51L28 50L30 50L30 51L31 51L31 50L30 50L30 48L29 48L29 47L31 47L31 45L32 45L32 46L33 46L33 47L32 47L32 48L33 48L33 49L32 49L32 52L33 52L33 55L34 55L34 56L33 56L33 57L34 57L34 58L33 58L33 59L34 59L34 60L35 60L35 59L36 59L36 58L37 58L37 57L38 57L38 60L39 60L39 59L40 59L40 58L41 58L41 57L42 57L42 59L43 59L43 58L45 58L45 59L46 59L46 58L47 58L47 57L48 57L48 58L49 58L49 59L50 59L50 60L51 60L51 59L52 59L52 60L53 60L53 59L54 59L54 60L55 60L55 59L56 59L56 58L55 58L55 57L54 57L54 58L53 58L53 59L52 59L52 56L51 56L51 58L50 58L50 57L48 57L48 56L47 56L47 57L46 57L46 56L45 56L45 57L43 57L43 56L44 56L44 55L43 55L43 54L44 54L44 53L43 53L43 52L41 52L41 53L40 53L40 52L39 52L39 51L43 51L43 47L42 47L42 46L43 46L43 45L44 45L44 46L45 46L45 45L44 45L44 42L43 42L43 40L44 40L44 39L45 39L45 38L46 38L46 40L45 40L45 41L46 41L46 40L47 40L47 41L48 41L48 42L49 42L49 44L51 44L51 43L52 43L52 44L53 44L53 45L54 45L54 46L53 46L53 47L54 47L54 46L55 46L55 47L56 47L56 46L55 46L55 45L54 45L54 44L53 44L53 43L54 43L54 42L53 42L53 41L55 41L55 43L56 43L56 42L57 42L57 43L58 43L58 42L57 42L57 41L55 41L55 40L54 40L54 38L55 38L55 39L56 39L56 40L57 40L57 39L58 39L58 38L59 38L59 39L60 39L60 38L59 38L59 37L60 37L60 36L59 36L59 35L57 35L57 33L55 33L55 34L56 34L56 35L55 35L55 36L56 36L56 38L55 38L55 37L54 37L54 36L53 36L53 35L52 35L52 34L53 34L53 33L52 33L52 32L51 32L51 30L52 30L52 29L51 29L51 28L50 28L50 27L53 27L53 28L54 28L54 27L56 27L56 26L57 26L57 27L58 27L58 26L59 26L59 25L60 25L60 24L59 24L59 23L60 23L60 22L59 22L59 23L58 23L58 22L55 22L55 21L54 21L54 20L55 20L55 19L56 19L56 18L57 18L57 17L56 17L56 15L55 15L55 13L56 13L56 12L54 12L54 11L56 11L56 10L55 10L55 9L54 9L54 10L53 10L53 11L52 11L52 10L51 10L51 9L50 9L50 8L49 8L49 9L48 9L48 8L47 8L47 7L48 7L48 6L49 6L49 7L50 7L50 5L48 5L48 4L47 4L47 7L46 7L46 6L45 6L45 5L44 5L44 4L43 4L43 5L44 5L44 6L43 6L43 7L42 7L42 4L41 4L41 5L40 5L40 4L39 4L39 3L38 3L38 4L37 4L37 5L36 5L36 4L35 4L35 3L34 3L34 2L33 2L33 3L32 3L32 2L31 2L31 3L32 3L32 4L33 4L33 5L34 5L34 6L33 6L33 7L34 7L34 8L33 8L33 9L30 9L30 10L31 10L31 11L30 11L30 13L28 13L28 16L27 16L27 14L26 14L26 12L27 12L27 11L26 11L26 12L24 12L24 10L25 10L25 7L26 7L26 5L24 5L24 6L23 6L23 7L22 7L22 6L21 6L21 5L20 5L20 6L19 6L19 5L18 5L18 4L19 4L19 3L20 3L20 2L19 2L19 3L18 3L18 2ZM33 3L33 4L34 4L34 5L35 5L35 6L34 6L34 7L35 7L35 8L34 8L34 9L33 9L33 10L32 10L32 11L33 11L33 12L32 12L32 15L30 15L30 17L26 17L26 16L24 16L24 18L26 18L26 19L27 19L27 18L30 18L30 19L32 19L32 21L30 21L30 20L26 20L26 21L25 21L25 22L24 22L24 21L23 21L23 20L22 20L22 21L21 21L21 20L20 20L20 19L21 19L21 18L20 18L20 17L19 17L19 16L20 16L20 15L19 15L19 14L18 14L18 15L17 15L17 14L16 14L16 13L15 13L15 12L16 12L16 11L15 11L15 12L13 12L13 11L10 11L10 10L9 10L9 11L10 11L10 12L11 12L11 13L12 13L12 12L13 12L13 13L14 13L14 15L15 15L15 16L14 16L14 17L15 17L15 20L16 20L16 19L17 19L17 22L16 22L16 21L14 21L14 20L13 20L13 21L12 21L12 19L14 19L14 18L13 18L13 15L12 15L12 14L11 14L11 16L12 16L12 17L11 17L11 19L10 19L10 20L11 20L11 21L10 21L10 22L9 22L9 21L8 21L8 22L6 22L6 21L7 21L7 20L6 20L6 19L3 19L3 21L4 21L4 22L6 22L6 23L8 23L8 25L9 25L9 24L10 24L10 22L11 22L11 23L12 23L12 24L11 24L11 25L10 25L10 27L9 27L9 28L10 28L10 30L12 30L12 31L13 31L13 32L12 32L12 36L13 36L13 38L12 38L12 39L13 39L13 40L14 40L14 41L15 41L15 42L16 42L16 43L15 43L15 44L16 44L16 43L17 43L17 44L18 44L18 45L17 45L17 46L16 46L16 47L17 47L17 48L18 48L18 47L19 47L19 48L20 48L20 49L21 49L21 50L22 50L22 51L19 51L19 52L22 52L22 51L23 51L23 50L22 50L22 48L24 48L24 50L27 50L27 48L28 48L28 47L27 47L27 46L28 46L28 45L27 45L27 44L28 44L28 43L27 43L27 42L26 42L26 40L27 40L27 39L26 39L26 37L27 37L27 36L28 36L28 39L29 39L29 40L28 40L28 42L29 42L29 41L30 41L30 43L29 43L29 45L31 45L31 44L32 44L32 45L33 45L33 44L32 44L32 43L31 43L31 42L32 42L32 40L30 40L30 39L32 39L32 38L29 38L29 36L28 36L28 35L29 35L29 34L28 34L28 35L25 35L25 34L24 34L24 33L26 33L26 34L27 34L27 33L30 33L30 35L31 35L31 36L30 36L30 37L31 37L31 36L32 36L32 37L33 37L33 40L34 40L34 41L33 41L33 42L34 42L34 41L35 41L35 42L36 42L36 43L34 43L34 45L35 45L35 46L36 46L36 47L35 47L35 48L34 48L34 47L33 47L33 48L34 48L34 49L33 49L33 51L34 51L34 52L36 52L36 53L34 53L34 55L35 55L35 56L34 56L34 57L35 57L35 58L36 58L36 57L37 57L37 56L38 56L38 55L37 55L37 54L38 54L38 53L39 53L39 54L40 54L40 55L39 55L39 57L41 57L41 54L42 54L42 53L41 53L41 54L40 54L40 53L39 53L39 52L38 52L38 51L37 51L37 50L38 50L38 49L37 49L37 48L40 48L40 49L39 49L39 50L41 50L41 49L42 49L42 48L41 48L41 46L42 46L42 45L41 45L41 44L43 44L43 43L41 43L41 41L42 41L42 40L43 40L43 39L44 39L44 38L45 38L45 36L46 36L46 37L47 37L47 38L48 38L48 39L47 39L47 40L48 40L48 41L51 41L51 40L49 40L49 38L50 38L50 37L51 37L51 38L52 38L52 37L53 37L53 38L54 38L54 37L53 37L53 36L52 36L52 37L51 37L51 36L50 36L50 35L49 35L49 34L50 34L50 33L51 33L51 34L52 34L52 33L51 33L51 32L50 32L50 31L49 31L49 30L48 30L48 29L49 29L49 27L50 27L50 26L48 26L48 25L49 25L49 23L50 23L50 24L52 24L52 23L53 23L53 24L54 24L54 25L53 25L53 26L54 26L54 25L55 25L55 26L56 26L56 25L57 25L57 26L58 26L58 25L57 25L57 24L58 24L58 23L55 23L55 24L54 24L54 21L53 21L53 22L52 22L52 21L51 21L51 20L52 20L52 19L53 19L53 20L54 20L54 17L55 17L55 16L54 16L54 15L51 15L51 16L50 16L50 15L49 15L49 14L48 14L48 13L50 13L50 12L52 12L52 11L51 11L51 10L50 10L50 12L49 12L49 10L48 10L48 9L47 9L47 8L46 8L46 7L45 7L45 6L44 6L44 8L42 8L42 9L45 9L45 10L44 10L44 13L43 13L43 14L45 14L45 15L43 15L43 16L42 16L42 15L41 15L41 14L42 14L42 13L41 13L41 12L42 12L42 11L41 11L41 10L40 10L40 11L39 11L39 12L38 12L38 9L41 9L41 6L40 6L40 5L39 5L39 4L38 4L38 5L37 5L37 6L36 6L36 5L35 5L35 4L34 4L34 3ZM51 3L51 4L52 4L52 3ZM29 5L29 8L32 8L32 5ZM20 6L20 7L21 7L21 6ZM24 6L24 7L23 7L23 8L24 8L24 7L25 7L25 6ZM27 6L27 8L26 8L26 10L29 10L29 9L28 9L28 6ZM30 6L30 7L31 7L31 6ZM35 6L35 7L36 7L36 6ZM37 6L37 9L36 9L36 8L35 8L35 9L34 9L34 10L33 10L33 11L34 11L34 12L33 12L33 15L32 15L32 16L31 16L31 17L30 17L30 18L31 18L31 17L32 17L32 16L34 16L34 14L35 14L35 17L34 17L34 19L33 19L33 23L32 23L32 22L29 22L29 21L26 21L26 22L25 22L25 23L24 23L24 22L23 22L23 23L24 23L24 24L23 24L23 26L24 26L24 28L23 28L23 27L22 27L22 25L20 25L20 26L21 26L21 27L20 27L20 28L19 28L19 29L18 29L18 28L17 28L17 27L18 27L18 26L19 26L19 24L18 24L18 26L17 26L17 23L16 23L16 22L14 22L14 21L13 21L13 22L12 22L12 23L13 23L13 22L14 22L14 23L15 23L15 25L14 25L14 26L15 26L15 27L16 27L16 28L14 28L14 27L13 27L13 25L11 25L11 26L12 26L12 30L14 30L14 29L16 29L16 30L15 30L15 31L16 31L16 32L14 32L14 33L15 33L15 34L14 34L14 35L13 35L13 36L14 36L14 35L15 35L15 37L14 37L14 38L13 38L13 39L14 39L14 40L15 40L15 41L16 41L16 42L17 42L17 43L19 43L19 45L18 45L18 46L17 46L17 47L18 47L18 46L19 46L19 47L20 47L20 48L21 48L21 47L20 47L20 46L21 46L21 45L22 45L22 44L23 44L23 43L24 43L24 45L23 45L23 46L22 46L22 47L23 47L23 46L25 46L25 47L24 47L24 48L25 48L25 47L26 47L26 46L27 46L27 45L26 45L26 46L25 46L25 43L26 43L26 44L27 44L27 43L26 43L26 42L25 42L25 39L24 39L24 38L25 38L25 37L26 37L26 36L25 36L25 35L24 35L24 36L23 36L23 35L22 35L22 34L23 34L23 33L22 33L22 32L23 32L23 31L24 31L24 32L25 32L25 31L26 31L26 32L28 32L28 31L27 31L27 30L28 30L28 26L27 26L27 25L29 25L29 27L30 27L30 28L31 28L31 25L32 25L32 27L34 27L34 29L33 29L33 31L34 31L34 32L33 32L33 33L34 33L34 36L35 36L35 37L34 37L34 38L35 38L35 39L34 39L34 40L35 40L35 41L36 41L36 42L37 42L37 41L38 41L38 44L37 44L37 45L36 45L36 44L35 44L35 45L36 45L36 46L37 46L37 47L40 47L40 46L41 46L41 45L40 45L40 44L39 44L39 43L40 43L40 41L38 41L38 40L39 40L39 39L40 39L40 38L41 38L41 40L42 40L42 38L43 38L43 36L41 36L41 37L40 37L40 36L39 36L39 35L40 35L40 34L41 34L41 35L44 35L44 34L46 34L46 36L47 36L47 37L48 37L48 38L49 38L49 37L48 37L48 34L47 34L47 33L42 33L42 32L44 32L44 30L45 30L45 29L44 29L44 27L43 27L43 25L40 25L40 26L39 26L39 24L37 24L37 25L36 25L36 24L35 24L35 23L36 23L36 22L37 22L37 23L40 23L40 22L41 22L41 23L42 23L42 22L45 22L45 23L46 23L46 24L45 24L45 25L46 25L46 26L45 26L45 27L46 27L46 28L47 28L47 29L46 29L46 31L45 31L45 32L47 32L47 31L48 31L48 30L47 30L47 29L48 29L48 28L47 28L47 27L48 27L48 26L47 26L47 25L48 25L48 24L47 24L47 23L48 23L48 22L47 22L47 21L48 21L48 19L50 19L50 20L49 20L49 21L50 21L50 23L52 23L52 22L51 22L51 21L50 21L50 20L51 20L51 19L52 19L52 18L53 18L53 17L54 17L54 16L51 16L51 17L50 17L50 16L49 16L49 17L50 17L50 18L48 18L48 16L47 16L47 15L48 15L48 14L47 14L47 13L48 13L48 12L47 12L47 11L48 11L48 10L47 10L47 9L46 9L46 8L45 8L45 9L46 9L46 10L45 10L45 11L46 11L46 12L45 12L45 13L46 13L46 16L45 16L45 17L44 17L44 18L45 18L45 19L46 19L46 20L45 20L45 21L44 21L44 20L43 20L43 17L42 17L42 16L41 16L41 17L40 17L40 14L41 14L41 13L40 13L40 12L39 12L39 13L38 13L38 12L37 12L37 13L36 13L36 12L35 12L35 11L36 11L36 10L37 10L37 9L38 9L38 8L40 8L40 6L39 6L39 7L38 7L38 6ZM35 9L35 10L36 10L36 9ZM58 9L58 10L57 10L57 11L58 11L58 10L59 10L59 11L60 11L60 10L59 10L59 9ZM0 11L0 12L1 12L1 11ZM28 11L28 12L29 12L29 11ZM3 12L3 13L2 13L2 14L4 14L4 12ZM34 12L34 13L35 13L35 14L36 14L36 17L35 17L35 18L36 18L36 19L34 19L34 20L36 20L36 21L34 21L34 23L33 23L33 24L32 24L32 23L31 23L31 24L32 24L32 25L33 25L33 26L34 26L34 25L35 25L35 26L36 26L36 27L35 27L35 28L36 28L36 29L35 29L35 30L36 30L36 33L37 33L37 34L38 34L38 35L36 35L36 34L35 34L35 36L36 36L36 37L35 37L35 38L36 38L36 39L35 39L35 40L36 40L36 41L37 41L37 40L38 40L38 39L37 39L37 38L38 38L38 37L39 37L39 38L40 38L40 37L39 37L39 36L38 36L38 35L39 35L39 34L40 34L40 33L41 33L41 34L42 34L42 33L41 33L41 30L42 30L42 31L43 31L43 30L44 30L44 29L43 29L43 28L42 28L42 27L39 27L39 28L38 28L38 27L37 27L37 26L38 26L38 25L37 25L37 26L36 26L36 25L35 25L35 24L34 24L34 23L35 23L35 22L36 22L36 21L37 21L37 22L38 22L38 21L39 21L39 22L40 22L40 21L41 21L41 22L42 22L42 21L43 21L43 20L42 20L42 19L41 19L41 18L40 18L40 19L39 19L39 18L38 18L38 17L39 17L39 16L38 16L38 15L37 15L37 14L38 14L38 13L37 13L37 14L36 14L36 13L35 13L35 12ZM46 12L46 13L47 13L47 12ZM53 12L53 13L54 13L54 12ZM30 13L30 14L31 14L31 13ZM39 13L39 14L40 14L40 13ZM60 13L60 14L59 14L59 15L61 15L61 13ZM15 14L15 15L16 15L16 16L17 16L17 17L16 17L16 18L17 18L17 17L18 17L18 16L19 16L19 15L18 15L18 16L17 16L17 15L16 15L16 14ZM23 14L23 15L24 15L24 14ZM36 17L36 18L37 18L37 19L38 19L38 20L37 20L37 21L38 21L38 20L39 20L39 21L40 21L40 20L39 20L39 19L38 19L38 18L37 18L37 17ZM51 17L51 18L52 18L52 17ZM19 18L19 19L18 19L18 20L19 20L19 19L20 19L20 18ZM47 18L47 19L48 19L48 18ZM24 19L24 20L25 20L25 19ZM4 20L4 21L6 21L6 20ZM46 20L46 21L45 21L45 22L46 22L46 21L47 21L47 20ZM19 21L19 22L18 22L18 23L20 23L20 24L22 24L22 22L21 22L21 21ZM20 22L20 23L21 23L21 22ZM26 22L26 23L27 23L27 22ZM29 23L29 24L30 24L30 23ZM26 24L26 25L27 25L27 24ZM33 24L33 25L34 25L34 24ZM46 24L46 25L47 25L47 24ZM55 24L55 25L56 25L56 24ZM15 25L15 26L16 26L16 27L17 27L17 26L16 26L16 25ZM51 25L51 26L52 26L52 25ZM0 27L0 28L1 28L1 27ZM21 27L21 28L22 28L22 29L21 29L21 30L20 30L20 29L19 29L19 30L18 30L18 29L17 29L17 30L16 30L16 31L17 31L17 32L16 32L16 34L18 34L18 35L19 35L19 36L17 36L17 35L16 35L16 36L17 36L17 37L18 37L18 39L19 39L19 40L18 40L18 41L19 41L19 40L20 40L20 42L22 42L22 43L20 43L20 44L22 44L22 43L23 43L23 40L24 40L24 39L23 39L23 38L24 38L24 37L23 37L23 36L22 36L22 35L19 35L19 34L20 34L20 33L19 33L19 32L20 32L20 31L21 31L21 30L22 30L22 31L23 31L23 28L22 28L22 27ZM25 27L25 28L26 28L26 29L25 29L25 30L27 30L27 27ZM13 28L13 29L14 29L14 28ZM37 28L37 29L36 29L36 30L37 30L37 31L39 31L39 32L37 32L37 33L38 33L38 34L39 34L39 33L40 33L40 30L41 30L41 29L42 29L42 30L43 30L43 29L42 29L42 28L41 28L41 29L40 29L40 28L39 28L39 29L38 29L38 28ZM5 29L5 32L8 32L8 29ZM29 29L29 32L32 32L32 29ZM37 29L37 30L38 30L38 29ZM39 29L39 30L40 30L40 29ZM53 29L53 32L56 32L56 29ZM6 30L6 31L7 31L7 30ZM17 30L17 31L18 31L18 32L17 32L17 33L18 33L18 32L19 32L19 31L20 31L20 30L19 30L19 31L18 31L18 30ZM30 30L30 31L31 31L31 30ZM54 30L54 31L55 31L55 30ZM3 31L3 34L4 34L4 35L3 35L3 36L1 36L1 37L2 37L2 38L4 38L4 39L3 39L3 40L7 40L7 39L6 39L6 38L9 38L9 37L6 37L6 38L4 38L4 37L3 37L3 36L7 36L7 35L5 35L5 34L7 34L7 33L5 33L5 34L4 34L4 31ZM10 32L10 33L9 33L9 34L10 34L10 36L11 36L11 34L10 34L10 33L11 33L11 32ZM49 32L49 33L50 33L50 32ZM31 33L31 35L32 35L32 36L33 36L33 34L32 34L32 33ZM56 35L56 36L57 36L57 38L56 38L56 39L57 39L57 38L58 38L58 36L57 36L57 35ZM19 36L19 37L20 37L20 38L19 38L19 39L20 39L20 40L22 40L22 38L21 38L21 37L22 37L22 36ZM37 36L37 37L36 37L36 38L37 38L37 37L38 37L38 36ZM41 37L41 38L42 38L42 37ZM16 38L16 39L15 39L15 40L16 40L16 39L17 39L17 38ZM20 38L20 39L21 39L21 38ZM10 39L10 40L11 40L11 43L10 43L10 42L8 42L8 44L9 44L9 45L8 45L8 46L9 46L9 45L10 45L10 44L12 44L12 42L13 42L13 44L14 44L14 42L13 42L13 41L12 41L12 40L11 40L11 39ZM3 41L3 43L4 43L4 41ZM6 42L6 43L7 43L7 42ZM24 42L24 43L25 43L25 42ZM52 42L52 43L53 43L53 42ZM60 42L60 43L61 43L61 42ZM1 43L1 44L2 44L2 43ZM9 43L9 44L10 44L10 43ZM30 43L30 44L31 44L31 43ZM38 44L38 45L37 45L37 46L38 46L38 45L39 45L39 46L40 46L40 45L39 45L39 44ZM19 45L19 46L20 46L20 45ZM6 46L6 47L7 47L7 46ZM57 46L57 47L58 47L58 46ZM35 48L35 49L34 49L34 51L36 51L36 48ZM49 48L49 49L50 49L50 48ZM6 49L6 50L7 50L7 49ZM12 50L12 53L11 53L11 52L10 52L10 53L11 53L11 54L9 54L9 55L11 55L11 54L12 54L12 55L13 55L13 57L16 57L16 58L17 58L17 59L19 59L19 56L20 56L20 55L19 55L19 54L18 54L18 55L19 55L19 56L18 56L18 58L17 58L17 55L15 55L15 56L14 56L14 54L12 54L12 53L13 53L13 50ZM59 50L59 51L60 51L60 50ZM3 51L3 52L4 52L4 51ZM14 51L14 53L16 53L16 54L17 54L17 51L16 51L16 52L15 52L15 51ZM27 52L27 54L28 54L28 52ZM37 52L37 53L36 53L36 54L35 54L35 55L36 55L36 54L37 54L37 53L38 53L38 52ZM29 53L29 56L32 56L32 53ZM50 53L50 55L49 55L49 56L50 56L50 55L52 55L52 54L51 54L51 53ZM53 53L53 56L56 56L56 53ZM24 54L24 55L23 55L23 56L22 56L22 57L21 57L21 58L22 58L22 57L23 57L23 56L24 56L24 55L25 55L25 54ZM30 54L30 55L31 55L31 54ZM54 54L54 55L55 55L55 54ZM57 54L57 55L58 55L58 56L57 56L57 57L58 57L58 58L57 58L57 59L58 59L58 58L59 58L59 59L60 59L60 58L59 58L59 57L60 57L60 56L59 56L59 55L60 55L60 54L59 54L59 55L58 55L58 54ZM42 55L42 56L43 56L43 55ZM26 56L26 57L27 57L27 58L28 58L28 57L27 57L27 56ZM35 56L35 57L36 57L36 56ZM8 58L8 61L10 61L10 59L9 59L9 58ZM54 58L54 59L55 59L55 58ZM0 0L0 7L7 7L7 0ZM1 1L1 6L6 6L6 1ZM2 2L2 5L5 5L5 2ZM54 0L54 7L61 7L61 0ZM55 1L55 6L60 6L60 1ZM56 2L56 5L59 5L59 2ZM0 54L0 61L7 61L7 54ZM1 55L1 60L6 60L6 55ZM2 56L2 59L5 59L5 56Z" fill="#000000"/></g></g></svg>
