<?xml version="1.0" encoding="UTF-8"?>
<svg xmlns="http://www.w3.org/2000/svg" version="1.1" width="180" height="180" viewBox="0 0 180 180"><rect x="0" y="0" width="180" height="180" fill="#ffffff"/><g transform="scale(3.158)"><g transform="translate(0,0)"><path fill-rule="evenodd" d="M9 0L9 2L8 2L8 3L9 3L9 2L10 2L10 4L9 4L9 5L11 5L11 6L10 6L10 7L11 7L11 8L10 8L10 9L9 9L9 6L8 6L8 8L4 8L4 9L3 9L3 8L0 8L0 9L1 9L1 11L2 11L2 10L4 10L4 9L5 9L5 12L4 12L4 11L3 11L3 12L4 12L4 13L5 13L5 15L8 15L8 16L4 16L4 15L3 15L3 16L2 16L2 13L0 13L0 15L1 15L1 17L0 17L0 21L2 21L2 19L1 19L1 18L2 18L2 17L3 17L3 16L4 16L4 17L5 17L5 18L6 18L6 19L5 19L5 20L6 20L6 21L5 21L5 22L6 22L6 23L7 23L7 24L6 24L6 25L7 25L7 24L10 24L10 23L11 23L11 25L12 25L12 24L14 24L14 25L13 25L13 26L9 26L9 25L8 25L8 26L5 26L5 23L4 23L4 22L1 22L1 24L2 24L2 25L1 25L1 26L0 26L0 31L1 31L1 32L0 32L0 33L3 33L3 31L4 31L4 34L3 34L3 37L2 37L2 36L1 36L1 35L0 35L0 39L2 39L2 38L3 38L3 37L4 37L4 39L5 39L5 41L4 41L4 40L3 40L3 41L0 41L0 42L1 42L1 43L3 43L3 41L4 41L4 42L5 42L5 43L4 43L4 44L2 44L2 45L0 45L0 48L5 48L5 47L7 47L7 46L9 46L9 47L10 47L10 48L11 48L11 47L12 47L12 48L14 48L14 49L15 49L15 48L16 48L16 47L17 47L17 49L19 49L19 50L18 50L18 51L15 51L15 52L14 52L14 50L13 50L13 49L12 49L12 51L13 51L13 52L12 52L12 53L11 53L11 52L10 52L10 51L9 51L9 50L10 50L10 49L8 49L8 53L10 53L10 56L9 56L9 54L8 54L8 57L11 57L11 56L12 56L12 57L15 57L15 56L14 56L14 55L13 55L13 54L14 54L14 53L15 53L15 52L16 52L16 54L18 54L18 55L16 55L16 56L18 56L18 57L20 57L20 55L21 55L21 54L22 54L22 55L23 55L23 56L22 56L22 57L24 57L24 55L25 55L25 56L26 56L26 57L27 57L27 56L28 56L28 57L30 57L30 55L29 55L29 54L30 54L30 53L31 53L31 55L32 55L32 57L35 57L35 56L36 56L36 57L39 57L39 56L38 56L38 55L35 55L35 56L34 56L34 55L32 55L32 53L33 53L33 52L34 52L34 53L37 53L37 50L38 50L38 49L39 49L39 50L40 50L40 51L39 51L39 52L38 52L38 53L39 53L39 54L40 54L40 57L41 57L41 56L42 56L42 57L47 57L47 56L48 56L48 57L50 57L50 55L51 55L51 56L52 56L52 57L53 57L53 56L52 56L52 55L53 55L53 54L54 54L54 55L55 55L55 56L54 56L54 57L57 57L57 56L56 56L56 55L57 55L57 54L56 54L56 53L55 53L55 54L54 54L54 53L53 53L53 50L54 50L54 49L53 49L53 48L54 48L54 47L55 47L55 48L56 48L56 49L55 49L55 50L56 50L56 51L55 51L55 52L57 52L57 48L56 48L56 47L57 47L57 44L56 44L56 43L57 43L57 40L56 40L56 41L53 41L53 42L51 42L51 41L52 41L52 40L51 40L51 38L50 38L50 39L49 39L49 40L48 40L48 41L47 41L47 40L46 40L46 39L45 39L45 38L46 38L46 37L45 37L45 36L47 36L47 35L45 35L45 30L46 30L46 29L47 29L47 30L48 30L48 31L49 31L49 32L48 32L48 33L47 33L47 34L48 34L48 35L49 35L49 34L50 34L50 36L48 36L48 37L47 37L47 38L49 38L49 37L51 37L51 35L53 35L53 34L54 34L54 35L55 35L55 36L56 36L56 37L55 37L55 38L54 38L54 36L53 36L53 38L52 38L52 39L53 39L53 40L54 40L54 39L55 39L55 38L56 38L56 39L57 39L57 38L56 38L56 37L57 37L57 36L56 36L56 35L57 35L57 32L56 32L56 31L57 31L57 28L56 28L56 27L57 27L57 24L55 24L55 26L54 26L54 27L53 27L53 24L54 24L54 23L57 23L57 21L55 21L55 20L57 20L57 16L56 16L56 15L57 15L57 12L56 12L56 11L57 11L57 9L55 9L55 8L54 8L54 9L53 9L53 10L52 10L52 9L51 9L51 8L49 8L49 10L50 10L50 9L51 9L51 10L52 10L52 11L47 11L47 12L46 12L46 10L44 10L44 9L47 9L47 8L48 8L48 7L49 7L49 6L48 6L48 7L47 7L47 5L48 5L48 0L46 0L46 1L43 1L43 0L42 0L42 1L41 1L41 0L40 0L40 1L39 1L39 0L38 0L38 1L37 1L37 2L38 2L38 3L37 3L37 4L35 4L35 2L36 2L36 0L32 0L32 1L31 1L31 0L26 0L26 1L25 1L25 0L24 0L24 1L22 1L22 3L23 3L23 4L24 4L24 5L23 5L23 6L22 6L22 5L20 5L20 3L21 3L21 2L20 2L20 1L21 1L21 0L20 0L20 1L19 1L19 2L18 2L18 1L17 1L17 0L16 0L16 1L17 1L17 2L14 2L14 0ZM12 1L12 3L11 3L11 4L12 4L12 6L11 6L11 7L12 7L12 6L13 6L13 7L14 7L14 8L13 8L13 9L14 9L14 8L15 8L15 9L16 9L16 10L14 10L14 11L16 11L16 12L14 12L14 14L13 14L13 12L12 12L12 13L11 13L11 12L10 12L10 11L11 11L11 10L12 10L12 11L13 11L13 10L12 10L12 8L11 8L11 10L10 10L10 11L9 11L9 10L7 10L7 9L6 9L6 10L7 10L7 11L6 11L6 12L5 12L5 13L6 13L6 14L8 14L8 13L9 13L9 12L10 12L10 13L11 13L11 15L12 15L12 16L13 16L13 17L14 17L14 16L15 16L15 19L14 19L14 18L12 18L12 19L10 19L10 18L11 18L11 16L10 16L10 15L9 15L9 17L10 17L10 18L7 18L7 17L6 17L6 18L7 18L7 19L6 19L6 20L7 20L7 21L6 21L6 22L7 22L7 23L9 23L9 22L8 22L8 19L10 19L10 20L9 20L9 21L11 21L11 22L12 22L12 23L13 23L13 22L14 22L14 23L15 23L15 25L16 25L16 26L13 26L13 28L12 28L12 27L11 27L11 29L13 29L13 28L14 28L14 27L16 27L16 28L15 28L15 29L14 29L14 30L15 30L15 31L14 31L14 33L15 33L15 34L13 34L13 33L12 33L12 32L13 32L13 31L11 31L11 33L9 33L9 32L10 32L10 31L6 31L6 32L5 32L5 33L6 33L6 34L8 34L8 33L9 33L9 35L10 35L10 37L9 37L9 39L8 39L8 40L7 40L7 39L6 39L6 40L7 40L7 41L6 41L6 42L7 42L7 43L6 43L6 44L4 44L4 45L2 45L2 46L1 46L1 47L2 47L2 46L3 46L3 47L5 47L5 46L4 46L4 45L6 45L6 46L7 46L7 45L6 45L6 44L7 44L7 43L8 43L8 45L9 45L9 46L10 46L10 45L11 45L11 46L15 46L15 47L14 47L14 48L15 48L15 47L16 47L16 46L17 46L17 47L18 47L18 48L19 48L19 49L20 49L20 50L19 50L19 51L18 51L18 52L17 52L17 53L18 53L18 52L19 52L19 53L20 53L20 54L19 54L19 55L18 55L18 56L19 56L19 55L20 55L20 54L21 54L21 52L22 52L22 50L21 50L21 49L22 49L22 48L23 48L23 49L24 49L24 50L23 50L23 51L25 51L25 49L24 49L24 48L28 48L28 47L30 47L30 46L31 46L31 47L32 47L32 46L33 46L33 47L34 47L34 49L33 49L33 50L34 50L34 51L36 51L36 50L37 50L37 49L38 49L38 48L39 48L39 49L40 49L40 50L41 50L41 51L42 51L42 52L41 52L41 53L42 53L42 54L41 54L41 55L42 55L42 56L44 56L44 54L45 54L45 55L47 55L47 53L48 53L48 52L47 52L47 51L48 51L48 50L47 50L47 49L48 49L48 48L49 48L49 47L50 47L50 46L51 46L51 47L52 47L52 48L53 48L53 47L52 47L52 46L55 46L55 47L56 47L56 46L55 46L55 45L56 45L56 44L55 44L55 43L56 43L56 42L53 42L53 43L54 43L54 44L52 44L52 46L51 46L51 44L50 44L50 45L48 45L48 44L49 44L49 43L50 43L50 42L49 42L49 41L51 41L51 40L49 40L49 41L48 41L48 42L47 42L47 41L46 41L46 40L45 40L45 43L46 43L46 44L45 44L45 45L44 45L44 44L43 44L43 43L44 43L44 42L43 42L43 40L42 40L42 39L44 39L44 38L45 38L45 37L44 37L44 36L43 36L43 35L44 35L44 34L43 34L43 33L44 33L44 32L43 32L43 31L44 31L44 30L45 30L45 29L46 29L46 28L47 28L47 29L48 29L48 28L47 28L47 27L48 27L48 26L49 26L49 25L50 25L50 26L51 26L51 25L52 25L52 24L51 24L51 23L54 23L54 22L55 22L55 21L54 21L54 22L53 22L53 21L52 21L52 18L53 18L53 20L55 20L55 19L54 19L54 18L55 18L55 17L56 17L56 16L55 16L55 15L56 15L56 14L54 14L54 13L56 13L56 12L55 12L55 11L56 11L56 10L55 10L55 11L52 11L52 12L47 12L47 13L46 13L46 12L45 12L45 13L44 13L44 12L43 12L43 9L41 9L41 11L42 11L42 12L41 12L41 13L40 13L40 12L39 12L39 11L40 11L40 10L39 10L39 9L40 9L40 6L41 6L41 7L42 7L42 6L41 6L41 5L42 5L42 4L43 4L43 5L44 5L44 6L43 6L43 7L44 7L44 6L45 6L45 8L47 8L47 7L46 7L46 6L45 6L45 5L47 5L47 3L46 3L46 2L47 2L47 1L46 1L46 2L43 2L43 1L42 1L42 2L41 2L41 1L40 1L40 3L38 3L38 4L41 4L41 5L38 5L38 6L37 6L37 7L38 7L38 8L37 8L37 9L36 9L36 5L35 5L35 7L34 7L34 6L33 6L33 7L34 7L34 8L33 8L33 9L32 9L32 5L31 5L31 9L30 9L30 11L29 11L29 13L30 13L30 16L29 16L29 15L28 15L28 14L27 14L27 15L28 15L28 16L26 16L26 15L25 15L25 13L27 13L27 11L28 11L28 9L26 9L26 6L25 6L25 5L26 5L26 4L25 4L25 5L24 5L24 6L23 6L23 7L22 7L22 6L21 6L21 8L20 8L20 6L19 6L19 3L20 3L20 2L19 2L19 3L18 3L18 2L17 2L17 3L14 3L14 2L13 2L13 1ZM24 1L24 2L23 2L23 3L24 3L24 2L25 2L25 3L27 3L27 4L29 4L29 3L30 3L30 4L31 4L31 3L32 3L32 4L34 4L34 3L33 3L33 1L32 1L32 2L31 2L31 1L28 1L28 2L25 2L25 1ZM30 2L30 3L31 3L31 2ZM42 2L42 3L41 3L41 4L42 4L42 3L43 3L43 4L44 4L44 5L45 5L45 4L46 4L46 3L45 3L45 4L44 4L44 3L43 3L43 2ZM13 3L13 4L14 4L14 3ZM17 3L17 4L16 4L16 5L17 5L17 6L16 6L16 7L15 7L15 6L14 6L14 5L13 5L13 6L14 6L14 7L15 7L15 8L16 8L16 7L17 7L17 6L18 6L18 7L19 7L19 6L18 6L18 5L17 5L17 4L18 4L18 3ZM27 5L27 8L30 8L30 5ZM24 6L24 7L23 7L23 8L22 8L22 11L21 11L21 10L20 10L20 8L18 8L18 9L17 9L17 10L16 10L16 11L17 11L17 10L18 10L18 11L19 11L19 10L20 10L20 11L21 11L21 12L22 12L22 13L21 13L21 14L22 14L22 15L19 15L19 14L20 14L20 13L19 13L19 12L18 12L18 13L19 13L19 14L18 14L18 15L17 15L17 14L16 14L16 13L15 13L15 14L14 14L14 15L13 15L13 14L12 14L12 15L13 15L13 16L14 16L14 15L15 15L15 16L16 16L16 15L17 15L17 16L18 16L18 17L17 17L17 18L18 18L18 19L16 19L16 22L20 22L20 23L16 23L16 24L18 24L18 25L17 25L17 26L16 26L16 27L17 27L17 30L16 30L16 29L15 29L15 30L16 30L16 31L15 31L15 32L16 32L16 31L17 31L17 32L18 32L18 33L17 33L17 34L18 34L18 35L16 35L16 34L15 34L15 35L16 35L16 36L14 36L14 35L13 35L13 34L12 34L12 33L11 33L11 37L15 37L15 39L14 39L14 38L13 38L13 39L11 39L11 38L10 38L10 39L9 39L9 42L8 42L8 41L7 41L7 42L8 42L8 43L9 43L9 42L10 42L10 44L11 44L11 45L15 45L15 46L16 46L16 45L15 45L15 44L16 44L16 43L17 43L17 42L18 42L18 43L19 43L19 44L18 44L18 45L19 45L19 46L18 46L18 47L21 47L21 48L22 48L22 47L25 47L25 46L26 46L26 47L28 47L28 46L27 46L27 44L26 44L26 45L25 45L25 46L24 46L24 45L23 45L23 44L24 44L24 43L23 43L23 42L24 42L24 39L25 39L25 40L26 40L26 41L25 41L25 43L28 43L28 44L29 44L29 45L35 45L35 44L36 44L36 45L37 45L37 44L38 44L38 45L39 45L39 46L35 46L35 48L36 48L36 49L35 49L35 50L36 50L36 49L37 49L37 48L38 48L38 47L39 47L39 48L40 48L40 49L41 49L41 50L42 50L42 49L43 49L43 50L44 50L44 51L43 51L43 52L42 52L42 53L43 53L43 54L44 54L44 53L45 53L45 54L46 54L46 53L47 53L47 52L46 52L46 51L45 51L45 50L46 50L46 49L47 49L47 48L45 48L45 46L46 46L46 45L47 45L47 46L48 46L48 47L49 47L49 46L48 46L48 45L47 45L47 44L46 44L46 45L45 45L45 46L44 46L44 45L43 45L43 44L42 44L42 45L43 45L43 46L44 46L44 49L43 49L43 48L42 48L42 46L40 46L40 45L41 45L41 43L39 43L39 44L38 44L38 41L39 41L39 42L42 42L42 41L41 41L41 38L42 38L42 37L43 37L43 38L44 38L44 37L43 37L43 36L42 36L42 35L41 35L41 34L42 34L42 33L43 33L43 32L42 32L42 30L40 30L40 29L41 29L41 28L42 28L42 29L43 29L43 30L44 30L44 29L45 29L45 28L46 28L46 26L44 26L44 27L43 27L43 28L42 28L42 27L41 27L41 26L40 26L40 25L42 25L42 24L43 24L43 25L45 25L45 24L46 24L46 25L48 25L48 23L49 23L49 24L50 24L50 25L51 25L51 24L50 24L50 23L51 23L51 22L52 22L52 21L51 21L51 22L50 22L50 21L49 21L49 22L48 22L48 21L47 21L47 22L46 22L46 21L45 21L45 20L47 20L47 19L48 19L48 18L47 18L47 19L45 19L45 18L44 18L44 17L46 17L46 16L48 16L48 15L49 15L49 14L50 14L50 13L49 13L49 14L48 14L48 13L47 13L47 14L48 14L48 15L46 15L46 16L44 16L44 15L45 15L45 14L46 14L46 13L45 13L45 14L44 14L44 13L43 13L43 12L42 12L42 13L41 13L41 14L40 14L40 13L39 13L39 12L38 12L38 13L37 13L37 10L38 10L38 9L37 9L37 10L36 10L36 9L35 9L35 10L36 10L36 11L35 11L35 12L36 12L36 13L35 13L35 15L34 15L34 17L35 17L35 18L36 18L36 19L35 19L35 20L34 20L34 19L31 19L31 20L30 20L30 21L31 21L31 22L32 22L32 25L31 25L31 24L30 24L30 22L28 22L28 21L29 21L29 19L28 19L28 21L27 21L27 22L26 22L26 19L27 19L27 18L30 18L30 17L31 17L31 18L33 18L33 15L31 15L31 16L30 16L30 17L29 17L29 16L28 16L28 17L26 17L26 18L24 18L24 17L23 17L23 16L24 16L24 14L23 14L23 12L24 12L24 11L26 11L26 10L24 10L24 7L25 7L25 6ZM28 6L28 7L29 7L29 6ZM38 6L38 7L39 7L39 6ZM18 9L18 10L19 10L19 9ZM33 9L33 10L32 10L32 11L31 11L31 12L30 12L30 13L31 13L31 14L33 14L33 12L34 12L34 9ZM23 10L23 11L22 11L22 12L23 12L23 11L24 11L24 10ZM8 11L8 12L9 12L9 11ZM6 12L6 13L7 13L7 12ZM31 12L31 13L32 13L32 12ZM52 12L52 13L51 13L51 14L52 14L52 16L50 16L50 17L53 17L53 18L54 18L54 17L53 17L53 15L54 15L54 14L53 14L53 12ZM36 13L36 14L37 14L37 13ZM38 13L38 16L37 16L37 15L36 15L36 16L37 16L37 17L36 17L36 18L37 18L37 21L32 21L32 20L31 20L31 21L32 21L32 22L33 22L33 25L34 25L34 26L31 26L31 25L30 25L30 26L31 26L31 29L32 29L32 30L34 30L34 32L35 32L35 33L32 33L32 31L31 31L31 32L30 32L30 31L29 31L29 32L28 32L28 33L26 33L26 31L24 31L24 30L26 30L26 28L25 28L25 27L24 27L24 26L26 26L26 25L27 25L27 26L29 26L29 25L27 25L27 24L28 24L28 22L27 22L27 23L26 23L26 22L25 22L25 19L24 19L24 18L23 18L23 19L22 19L22 18L21 18L21 17L22 17L22 16L23 16L23 15L22 15L22 16L19 16L19 15L18 15L18 16L19 16L19 17L20 17L20 18L19 18L19 19L18 19L18 20L17 20L17 21L18 21L18 20L19 20L19 21L20 21L20 22L21 22L21 23L20 23L20 26L19 26L19 25L18 25L18 27L22 27L22 28L21 28L21 29L20 29L20 28L18 28L18 30L17 30L17 31L18 31L18 32L19 32L19 33L20 33L20 34L19 34L19 35L18 35L18 36L17 36L17 37L16 37L16 38L17 38L17 39L16 39L16 40L14 40L14 39L13 39L13 40L14 40L14 41L13 41L13 42L14 42L14 43L11 43L11 44L15 44L15 43L16 43L16 42L17 42L17 41L18 41L18 40L17 40L17 39L20 39L20 42L19 42L19 43L20 43L20 44L19 44L19 45L20 45L20 46L21 46L21 47L22 47L22 46L21 46L21 45L22 45L22 44L23 44L23 43L22 43L22 40L21 40L21 39L24 39L24 38L25 38L25 36L23 36L23 37L24 37L24 38L22 38L22 37L21 37L21 36L22 36L22 34L21 34L21 33L22 33L22 32L23 32L23 33L24 33L24 34L23 34L23 35L25 35L25 33L26 33L26 36L27 36L27 37L26 37L26 38L27 38L27 39L28 39L28 38L29 38L29 37L30 37L30 38L31 38L31 39L30 39L30 40L28 40L28 42L29 42L29 41L30 41L30 40L31 40L31 41L32 41L32 42L31 42L31 44L32 44L32 43L33 43L33 44L35 44L35 42L36 42L36 43L37 43L37 41L38 41L38 40L39 40L39 41L40 41L40 40L39 40L39 39L40 39L40 38L41 38L41 37L42 37L42 36L41 36L41 37L35 37L35 36L36 36L36 34L37 34L37 35L38 35L38 36L39 36L39 35L40 35L40 34L41 34L41 33L42 33L42 32L41 32L41 33L40 33L40 32L39 32L39 31L40 31L40 30L39 30L39 29L40 29L40 28L37 28L37 29L36 29L36 30L35 30L35 29L32 29L32 27L33 27L33 28L35 28L35 27L36 27L36 26L35 26L35 25L36 25L36 23L35 23L35 22L37 22L37 24L38 24L38 23L39 23L39 25L38 25L38 27L40 27L40 26L39 26L39 25L40 25L40 23L41 23L41 24L42 24L42 23L43 23L43 24L44 24L44 22L45 22L45 23L46 23L46 22L45 22L45 21L44 21L44 20L43 20L43 19L44 19L44 18L43 18L43 17L44 17L44 16L41 16L41 17L40 17L40 16L39 16L39 15L40 15L40 14L39 14L39 13ZM42 13L42 14L41 14L41 15L44 15L44 14L43 14L43 13ZM15 14L15 15L16 15L16 14ZM31 16L31 17L32 17L32 16ZM38 16L38 17L37 17L37 18L38 18L38 17L39 17L39 18L40 18L40 19L39 19L39 20L38 20L38 21L39 21L39 22L42 22L42 21L43 21L43 22L44 22L44 21L43 21L43 20L42 20L42 19L41 19L41 18L42 18L42 17L41 17L41 18L40 18L40 17L39 17L39 16ZM20 18L20 19L19 19L19 20L20 20L20 21L22 21L22 22L24 22L24 23L23 23L23 24L22 24L22 23L21 23L21 24L22 24L22 27L23 27L23 26L24 26L24 25L23 25L23 24L24 24L24 23L25 23L25 24L26 24L26 23L25 23L25 22L24 22L24 21L23 21L23 20L24 20L24 19L23 19L23 20L20 20L20 19L21 19L21 18ZM49 19L49 20L51 20L51 19ZM3 20L3 21L4 21L4 20ZM14 20L14 21L15 21L15 20ZM41 20L41 21L42 21L42 20ZM12 21L12 22L13 22L13 21ZM47 22L47 23L48 23L48 22ZM49 22L49 23L50 23L50 22ZM3 23L3 27L4 27L4 23ZM34 24L34 25L35 25L35 24ZM55 26L55 27L54 27L54 29L53 29L53 31L52 31L52 34L53 34L53 33L54 33L54 34L56 34L56 32L55 32L55 31L56 31L56 30L54 30L54 29L56 29L56 28L55 28L55 27L56 27L56 26ZM1 27L1 28L2 28L2 27ZM5 27L5 30L8 30L8 27ZM27 27L27 30L30 30L30 27ZM49 27L49 30L52 30L52 27ZM3 28L3 29L4 29L4 28ZM6 28L6 29L7 29L7 28ZM22 28L22 29L21 29L21 30L22 30L22 31L19 31L19 30L20 30L20 29L19 29L19 30L18 30L18 31L19 31L19 32L22 32L22 31L23 31L23 32L24 32L24 31L23 31L23 28ZM28 28L28 29L29 29L29 28ZM43 28L43 29L44 29L44 28ZM50 28L50 29L51 29L51 28ZM9 29L9 30L10 30L10 29ZM37 29L37 30L36 30L36 31L35 31L35 32L36 32L36 33L35 33L35 34L36 34L36 33L37 33L37 34L38 34L38 33L39 33L39 34L40 34L40 33L39 33L39 32L38 32L38 31L37 31L37 30L38 30L38 29ZM1 30L1 31L3 31L3 30ZM46 31L46 32L47 32L47 31ZM6 32L6 33L7 33L7 32ZM37 32L37 33L38 33L38 32ZM49 32L49 33L48 33L48 34L49 34L49 33L50 33L50 34L51 34L51 33L50 33L50 32ZM29 33L29 34L27 34L27 36L28 36L28 37L27 37L27 38L28 38L28 37L29 37L29 36L28 36L28 35L29 35L29 34L30 34L30 37L31 37L31 38L32 38L32 41L33 41L33 43L34 43L34 41L35 41L35 40L34 40L34 39L33 39L33 38L32 38L32 37L34 37L34 34L31 34L31 33ZM4 34L4 36L5 36L5 38L8 38L8 35L5 35L5 34ZM20 34L20 35L19 35L19 36L18 36L18 37L17 37L17 38L20 38L20 39L21 39L21 38L20 38L20 37L19 37L19 36L20 36L20 35L21 35L21 34ZM6 36L6 37L7 37L7 36ZM31 36L31 37L32 37L32 36ZM1 37L1 38L2 38L2 37ZM35 38L35 39L36 39L36 41L37 41L37 40L38 40L38 38ZM53 38L53 39L54 39L54 38ZM10 40L10 41L11 41L11 42L12 42L12 41L11 41L11 40ZM33 40L33 41L34 41L34 40ZM14 41L14 42L16 42L16 41ZM26 41L26 42L27 42L27 41ZM48 42L48 43L49 43L49 42ZM21 43L21 44L20 44L20 45L21 45L21 44L22 44L22 43ZM39 44L39 45L40 45L40 44ZM39 46L39 47L40 47L40 46ZM6 48L6 49L7 49L7 48ZM41 48L41 49L42 49L42 48ZM27 49L27 52L30 52L30 49ZM31 49L31 51L32 51L32 49ZM44 49L44 50L45 50L45 49ZM49 49L49 52L52 52L52 49ZM20 50L20 51L19 51L19 52L20 52L20 51L21 51L21 50ZM28 50L28 51L29 51L29 50ZM50 50L50 51L51 51L51 50ZM23 52L23 53L24 53L24 54L23 54L23 55L24 55L24 54L25 54L25 55L26 55L26 56L27 56L27 55L26 55L26 54L25 54L25 52ZM31 52L31 53L32 53L32 52ZM43 52L43 53L44 53L44 52ZM45 52L45 53L46 53L46 52ZM12 53L12 54L11 54L11 55L12 55L12 54L13 54L13 53ZM49 53L49 54L51 54L51 55L52 55L52 53ZM55 54L55 55L56 55L56 54ZM48 55L48 56L49 56L49 55ZM0 0L0 7L7 7L7 0ZM1 1L1 6L6 6L6 1ZM2 2L2 5L5 5L5 2ZM50 0L50 7L57 7L57 0ZM51 1L51 6L56 6L56 1ZM52 2L52 5L55 5L55 2ZM0 50L0 57L7 57L7 50ZM1 51L1 56L6 56L6 51ZM2 52L2 55L5 55L5 52Z" fill="#000000"/></g></g></svg>
