<?xml version="1.0" encoding="UTF-8"?>
<svg xmlns="http://www.w3.org/2000/svg" version="1.1" width="170" height="170" viewBox="0 0 170 170"><rect x="0" y="0" width="170" height="170" fill="#ffffff"/><g transform="scale(2.787)"><g transform="translate(0,0)"><path fill-rule="evenodd" d="M8 0L8 1L9 1L9 2L8 2L8 5L9 5L9 6L8 6L8 7L9 7L9 8L8 8L8 9L7 9L7 8L6 8L6 9L4 9L4 8L0 8L0 9L2 9L2 10L0 10L0 11L2 11L2 10L3 10L3 11L5 11L5 13L7 13L7 14L6 14L6 15L7 15L7 16L6 16L6 17L8 17L8 16L9 16L9 15L10 15L10 16L11 16L11 15L12 15L12 16L13 16L13 18L14 18L14 19L13 19L13 20L11 20L11 21L10 21L10 20L9 20L9 21L7 21L7 20L8 20L8 19L10 19L10 18L12 18L12 17L9 17L9 18L3 18L3 19L2 19L2 17L1 17L1 15L3 15L3 17L4 17L4 14L3 14L3 13L4 13L4 12L3 12L3 13L2 13L2 14L1 14L1 15L0 15L0 20L1 20L1 21L2 21L2 22L3 22L3 19L4 19L4 23L2 23L2 24L4 24L4 25L3 25L3 26L2 26L2 27L0 27L0 37L1 37L1 36L2 36L2 33L1 33L1 28L2 28L2 29L3 29L3 30L2 30L2 31L3 31L3 34L4 34L4 35L3 35L3 38L0 38L0 40L1 40L1 41L0 41L0 43L1 43L1 42L2 42L2 43L4 43L4 42L5 42L5 40L6 40L6 41L7 41L7 40L9 40L9 41L8 41L8 43L7 43L7 42L6 42L6 43L7 43L7 44L5 44L5 45L4 45L4 44L2 44L2 45L3 45L3 46L4 46L4 47L1 47L1 48L0 48L0 50L2 50L2 51L0 51L0 53L4 53L4 52L5 52L5 51L8 51L8 54L9 54L9 56L10 56L10 57L8 57L8 61L9 61L9 59L10 59L10 61L11 61L11 60L12 60L12 58L13 58L13 59L14 59L14 60L13 60L13 61L14 61L14 60L15 60L15 61L19 61L19 60L18 60L18 59L19 59L19 58L23 58L23 59L22 59L22 60L21 60L21 59L20 59L20 61L22 61L22 60L23 60L23 61L24 61L24 60L23 60L23 59L25 59L25 56L24 56L24 57L23 57L23 56L21 56L21 55L22 55L22 54L21 54L21 55L20 55L20 56L19 56L19 57L17 57L17 58L16 58L16 57L14 57L14 55L16 55L16 54L17 54L17 53L18 53L18 55L19 55L19 54L20 54L20 53L18 53L18 52L19 52L19 51L18 51L18 52L17 52L17 51L16 51L16 54L15 54L15 53L14 53L14 52L13 52L13 50L18 50L18 49L19 49L19 50L20 50L20 51L22 51L22 48L23 48L23 51L24 51L24 53L25 53L25 51L26 51L26 54L23 54L23 55L27 55L27 56L26 56L26 57L27 57L27 56L28 56L28 57L30 57L30 58L31 58L31 60L29 60L29 61L31 61L31 60L33 60L33 61L34 61L34 60L35 60L35 59L36 59L36 61L37 61L37 60L38 60L38 59L36 59L36 58L38 58L38 57L36 57L36 58L34 58L34 57L35 57L35 56L37 56L37 54L38 54L38 56L39 56L39 59L40 59L40 57L41 57L41 55L42 55L42 59L41 59L41 60L43 60L43 59L44 59L44 60L45 60L45 61L47 61L47 59L48 59L48 61L49 61L49 60L50 60L50 61L52 61L52 60L53 60L53 61L54 61L54 60L53 60L53 59L54 59L54 58L53 58L53 57L56 57L56 59L55 59L55 60L56 60L56 59L57 59L57 58L58 58L58 57L57 57L57 55L58 55L58 54L59 54L59 53L60 53L60 52L61 52L61 51L60 51L60 52L58 52L58 54L57 54L57 52L56 52L56 51L55 51L55 52L52 52L52 54L50 54L50 53L49 53L49 54L48 54L48 55L47 55L47 53L48 53L48 50L47 50L47 52L46 52L46 51L44 51L44 50L46 50L46 49L49 49L49 48L50 48L50 46L49 46L49 45L48 45L48 44L52 44L52 45L53 45L53 44L55 44L55 45L54 45L54 46L53 46L53 47L52 47L52 46L51 46L51 49L50 49L50 50L49 50L49 51L50 51L50 52L51 52L51 49L52 49L52 48L53 48L53 47L54 47L54 49L53 49L53 50L52 50L52 51L53 51L53 50L54 50L54 49L55 49L55 50L57 50L57 51L58 51L58 49L59 49L59 50L61 50L61 48L60 48L60 47L58 47L58 48L56 48L56 47L57 47L57 46L58 46L58 45L57 45L57 43L58 43L58 42L59 42L59 41L60 41L60 43L61 43L61 40L58 40L58 39L59 39L59 38L61 38L61 36L60 36L60 37L59 37L59 35L60 35L60 34L59 34L59 35L58 35L58 36L57 36L57 34L56 34L56 33L57 33L57 31L58 31L58 30L59 30L59 33L60 33L60 31L61 31L61 29L60 29L60 30L59 30L59 28L58 28L58 27L59 27L59 26L60 26L60 25L61 25L61 24L60 24L60 25L59 25L59 23L60 23L60 22L59 22L59 23L58 23L58 24L57 24L57 22L58 22L58 21L57 21L57 22L56 22L56 23L55 23L55 21L56 21L56 20L55 20L55 19L53 19L53 22L54 22L54 23L55 23L55 24L54 24L54 25L53 25L53 24L52 24L52 25L53 25L53 26L52 26L52 27L51 27L51 23L52 23L52 22L51 22L51 23L50 23L50 25L49 25L49 23L48 23L48 22L46 22L46 21L47 21L47 20L49 20L49 21L51 21L51 20L50 20L50 19L52 19L52 18L54 18L54 17L55 17L55 18L56 18L56 17L57 17L57 16L58 16L58 18L57 18L57 20L58 20L58 18L59 18L59 16L61 16L61 15L59 15L59 14L61 14L61 13L59 13L59 11L60 11L60 12L61 12L61 11L60 11L60 10L59 10L59 11L58 11L58 12L57 12L57 10L58 10L58 9L59 9L59 8L56 8L56 9L57 9L57 10L56 10L56 11L55 11L55 9L54 9L54 8L53 8L53 6L52 6L52 7L51 7L51 5L52 5L52 4L53 4L53 0L51 0L51 2L50 2L50 0L48 0L48 1L44 1L44 2L43 2L43 0L42 0L42 1L41 1L41 2L43 2L43 3L42 3L42 4L40 4L40 2L39 2L39 1L40 1L40 0L39 0L39 1L38 1L38 2L36 2L36 4L35 4L35 5L36 5L36 4L37 4L37 3L38 3L38 2L39 2L39 4L38 4L38 5L37 5L37 6L36 6L36 7L35 7L35 6L34 6L34 7L35 7L35 8L34 8L34 9L33 9L33 4L34 4L34 3L35 3L35 1L34 1L34 0L30 0L30 1L29 1L29 2L28 2L28 0L25 0L25 1L24 1L24 0L23 0L23 1L22 1L22 0L21 0L21 1L22 1L22 2L21 2L21 3L20 3L20 0L19 0L19 3L18 3L18 4L17 4L17 5L16 5L16 3L17 3L17 2L18 2L18 0L17 0L17 2L16 2L16 0L15 0L15 2L14 2L14 0L12 0L12 1L13 1L13 2L14 2L14 3L15 3L15 4L14 4L14 5L12 5L12 4L13 4L13 3L12 3L12 2L10 2L10 1L11 1L11 0L10 0L10 1L9 1L9 0ZM36 0L36 1L37 1L37 0ZM25 1L25 2L26 2L26 3L24 3L24 5L22 5L22 4L23 4L23 3L22 3L22 4L21 4L21 5L19 5L19 10L18 10L18 9L17 9L17 7L18 7L18 6L17 6L17 7L16 7L16 5L14 5L14 6L13 6L13 8L12 8L12 5L11 5L11 8L9 8L9 9L8 9L8 10L11 10L11 8L12 8L12 9L13 9L13 10L12 10L12 11L9 11L9 13L10 13L10 12L12 12L12 13L11 13L11 14L13 14L13 16L14 16L14 18L15 18L15 17L16 17L16 18L17 18L17 19L18 19L18 20L15 20L15 21L16 21L16 22L15 22L15 24L12 24L12 23L14 23L14 21L13 21L13 22L12 22L12 23L11 23L11 25L14 25L14 26L15 26L15 27L16 27L16 28L15 28L15 29L16 29L16 28L17 28L17 30L16 30L16 32L17 32L17 33L16 33L16 35L15 35L15 34L14 34L14 33L13 33L13 32L14 32L14 31L15 31L15 30L14 30L14 29L13 29L13 30L12 30L12 28L14 28L14 27L12 27L12 28L11 28L11 26L10 26L10 25L9 25L9 24L7 24L7 23L9 23L9 22L10 22L10 21L9 21L9 22L7 22L7 21L6 21L6 20L7 20L7 19L6 19L6 20L5 20L5 21L6 21L6 22L5 22L5 23L4 23L4 24L5 24L5 23L6 23L6 24L7 24L7 25L6 25L6 26L7 26L7 27L6 27L6 28L7 28L7 27L8 27L8 28L11 28L11 30L10 30L10 31L9 31L9 32L10 32L10 31L11 31L11 33L10 33L10 34L8 34L8 33L4 33L4 34L5 34L5 35L6 35L6 36L8 36L8 35L13 35L13 36L14 36L14 37L15 37L15 39L14 39L14 38L12 38L12 40L11 40L11 41L12 41L12 40L13 40L13 41L15 41L15 42L11 42L11 43L10 43L10 42L9 42L9 43L8 43L8 44L9 44L9 45L8 45L8 46L7 46L7 45L6 45L6 46L7 46L7 47L5 47L5 48L2 48L2 50L7 50L7 49L6 49L6 48L7 48L7 47L8 47L8 46L9 46L9 45L12 45L12 43L13 43L13 44L14 44L14 46L10 46L10 47L9 47L9 48L10 48L10 50L9 50L9 49L8 49L8 51L11 51L11 53L12 53L12 54L10 54L10 53L9 53L9 54L10 54L10 55L11 55L11 57L10 57L10 58L11 58L11 57L12 57L12 54L14 54L14 53L13 53L13 52L12 52L12 49L11 49L11 48L12 48L12 47L13 47L13 49L15 49L15 48L16 48L16 49L18 49L18 47L17 47L17 46L19 46L19 47L20 47L20 48L19 48L19 49L20 49L20 48L21 48L21 47L23 47L23 48L25 48L25 47L26 47L26 50L27 50L27 51L28 51L28 52L27 52L27 53L28 53L28 52L29 52L29 51L31 51L31 52L33 52L33 54L34 54L34 53L35 53L35 55L33 55L33 57L32 57L32 58L33 58L33 60L34 60L34 58L33 58L33 57L34 57L34 56L35 56L35 55L36 55L36 54L37 54L37 53L38 53L38 54L39 54L39 56L40 56L40 55L41 55L41 54L42 54L42 55L44 55L44 56L43 56L43 57L44 57L44 58L45 58L45 60L46 60L46 58L48 58L48 59L51 59L51 58L52 58L52 59L53 59L53 58L52 58L52 55L50 55L50 54L49 54L49 55L48 55L48 56L47 56L47 55L45 55L45 54L46 54L46 52L45 52L45 53L44 53L44 51L43 51L43 50L44 50L44 49L46 49L46 47L45 47L45 48L43 48L43 47L44 47L44 46L45 46L45 42L46 42L46 41L47 41L47 44L48 44L48 43L50 43L50 42L52 42L52 44L53 44L53 42L54 42L54 41L56 41L56 42L55 42L55 44L56 44L56 43L57 43L57 42L58 42L58 40L57 40L57 39L58 39L58 38L59 38L59 37L57 37L57 36L56 36L56 37L57 37L57 38L56 38L56 39L55 39L55 36L54 36L54 35L56 35L56 34L54 34L54 33L52 33L52 29L51 29L51 28L49 28L49 27L50 27L50 26L49 26L49 27L48 27L48 26L47 26L47 25L48 25L48 23L47 23L47 24L46 24L46 22L45 22L45 17L46 17L46 16L48 16L48 17L49 17L49 15L47 15L47 14L48 14L48 13L47 13L47 12L48 12L48 11L49 11L49 12L50 12L50 10L51 10L51 8L50 8L50 6L49 6L49 8L47 8L47 7L48 7L48 6L47 6L47 5L49 5L49 4L48 4L48 3L47 3L47 2L46 2L46 3L47 3L47 4L46 4L46 5L44 5L44 4L45 4L45 3L43 3L43 4L42 4L42 5L44 5L44 6L43 6L43 7L42 7L42 6L41 6L41 9L40 9L40 4L39 4L39 5L38 5L38 6L37 6L37 8L35 8L35 9L34 9L34 10L33 10L33 11L32 11L32 9L31 9L31 10L30 10L30 9L28 9L28 3L27 3L27 2L26 2L26 1ZM30 1L30 3L29 3L29 4L30 4L30 3L31 3L31 4L33 4L33 3L34 3L34 2L32 2L32 3L31 3L31 1ZM48 1L48 2L49 2L49 1ZM15 2L15 3L16 3L16 2ZM9 3L9 5L10 5L10 3ZM19 3L19 4L20 4L20 3ZM51 3L51 4L52 4L52 3ZM25 4L25 5L24 5L24 7L23 7L23 6L22 6L22 7L23 7L23 8L21 8L21 9L22 9L22 10L19 10L19 12L18 12L18 10L17 10L17 11L16 11L16 12L15 12L15 14L14 14L14 16L18 16L18 15L17 15L17 14L19 14L19 15L20 15L20 14L21 14L21 13L22 13L22 12L23 12L23 13L24 13L24 12L27 12L27 14L24 14L24 15L23 15L23 14L22 14L22 15L23 15L23 16L24 16L24 15L26 15L26 17L25 17L25 18L23 18L23 17L21 17L21 19L20 19L20 18L19 18L19 17L20 17L20 16L19 16L19 17L18 17L18 19L20 19L20 20L19 20L19 22L20 22L20 23L21 23L21 22L23 22L23 23L24 23L24 24L25 24L25 25L26 25L26 26L25 26L25 27L26 27L26 26L27 26L27 28L24 28L24 26L23 26L23 25L22 25L22 26L23 26L23 27L21 27L21 26L20 26L20 25L19 25L19 24L18 24L18 22L17 22L17 23L16 23L16 24L15 24L15 25L17 25L17 24L18 24L18 25L19 25L19 26L16 26L16 27L17 27L17 28L23 28L23 29L22 29L22 32L21 32L21 31L20 31L20 32L19 32L19 33L18 33L18 34L17 34L17 35L16 35L16 36L15 36L15 37L17 37L17 38L16 38L16 39L15 39L15 40L16 40L16 42L15 42L15 43L14 43L14 44L15 44L15 43L16 43L16 42L17 42L17 45L18 45L18 44L19 44L19 45L21 45L21 46L20 46L20 47L21 47L21 46L23 46L23 47L25 47L25 44L24 44L24 45L23 45L23 43L25 43L25 42L24 42L24 41L25 41L25 40L26 40L26 41L27 41L27 45L26 45L26 47L27 47L27 48L28 48L28 49L27 49L27 50L28 50L28 51L29 51L29 50L28 50L28 49L29 49L29 48L28 48L28 46L29 46L29 47L30 47L30 50L31 50L31 51L33 51L33 52L34 52L34 50L33 50L33 49L32 49L32 50L31 50L31 48L32 48L32 47L30 47L30 46L29 46L29 45L30 45L30 42L32 42L32 44L31 44L31 45L32 45L32 44L33 44L33 43L35 43L35 44L34 44L34 45L33 45L33 46L34 46L34 48L35 48L35 49L36 49L36 50L37 50L37 51L39 51L39 49L40 49L40 50L41 50L41 49L40 49L40 48L39 48L39 49L38 49L38 50L37 50L37 48L38 48L38 47L36 47L36 46L37 46L37 45L39 45L39 44L37 44L37 42L36 42L36 43L35 43L35 41L36 41L36 40L35 40L35 41L34 41L34 42L32 42L32 41L33 41L33 40L34 40L34 39L33 39L33 38L32 38L32 34L30 34L30 33L33 33L33 35L34 35L34 36L33 36L33 37L34 37L34 36L35 36L35 35L36 35L36 37L35 37L35 38L36 38L36 37L37 37L37 36L38 36L38 38L37 38L37 41L38 41L38 39L39 39L39 38L40 38L40 40L39 40L39 42L38 42L38 43L40 43L40 45L41 45L41 47L43 47L43 45L44 45L44 43L42 43L42 44L41 44L41 43L40 43L40 42L42 42L42 41L43 41L43 42L45 42L45 40L46 40L46 38L45 38L45 37L46 37L46 36L48 36L48 37L47 37L47 38L49 38L49 36L50 36L50 34L49 34L49 35L48 35L48 34L44 34L44 35L43 35L43 33L44 33L44 32L43 32L43 33L42 33L42 34L41 34L41 35L43 35L43 36L45 36L45 37L44 37L44 38L42 38L42 36L41 36L41 38L40 38L40 35L37 35L37 33L39 33L39 34L40 34L40 33L41 33L41 32L42 32L42 31L40 31L40 30L42 30L42 29L43 29L43 30L45 30L45 33L48 33L48 32L49 32L49 33L50 33L50 32L51 32L51 30L50 30L50 32L49 32L49 31L47 31L47 29L46 29L46 27L43 27L43 26L42 26L42 27L43 27L43 28L41 28L41 26L39 26L39 25L38 25L38 26L37 26L37 27L38 27L38 28L39 28L39 27L40 27L40 28L41 28L41 29L40 29L40 30L39 30L39 32L37 32L37 30L38 30L38 29L37 29L37 30L36 30L36 31L35 31L35 29L36 29L36 28L35 28L35 29L34 29L34 30L33 30L33 28L34 28L34 27L33 27L33 28L31 28L31 27L32 27L32 26L31 26L31 25L30 25L30 26L28 26L28 25L27 25L27 24L30 24L30 23L31 23L31 24L32 24L32 23L33 23L33 22L34 22L34 24L33 24L33 25L34 25L34 24L35 24L35 23L36 23L36 25L35 25L35 26L36 26L36 25L37 25L37 23L36 23L36 22L37 22L37 21L39 21L39 22L38 22L38 23L39 23L39 22L40 22L40 23L41 23L41 20L42 20L42 24L41 24L41 25L44 25L44 24L45 24L45 25L46 25L46 24L45 24L45 23L44 23L44 20L42 20L42 19L39 19L39 20L37 20L37 18L38 18L38 17L37 17L37 18L36 18L36 17L35 17L35 16L36 16L36 15L33 15L33 16L32 16L32 17L31 17L31 18L30 18L30 16L31 16L31 15L32 15L32 13L31 13L31 15L30 15L30 16L29 16L29 17L27 17L27 16L28 16L28 15L27 15L27 14L30 14L30 13L29 13L29 12L28 12L28 11L24 11L24 12L23 12L23 11L22 11L22 10L24 10L24 9L25 9L25 10L26 10L26 8L27 8L27 6L26 6L26 4ZM29 5L29 8L32 8L32 5ZM9 6L9 7L10 7L10 6ZM14 6L14 8L13 8L13 9L14 9L14 10L13 10L13 13L14 13L14 11L15 11L15 10L16 10L16 9L14 9L14 8L15 8L15 6ZM20 6L20 7L21 7L21 6ZM25 6L25 7L24 7L24 8L23 8L23 9L24 9L24 8L25 8L25 7L26 7L26 6ZM30 6L30 7L31 7L31 6ZM38 6L38 8L37 8L37 9L36 9L36 10L34 10L34 12L33 12L33 13L34 13L34 12L35 12L35 11L36 11L36 13L35 13L35 14L36 14L36 13L37 13L37 11L36 11L36 10L38 10L38 8L39 8L39 6ZM44 6L44 7L43 7L43 8L44 8L44 7L45 7L45 6ZM46 6L46 7L47 7L47 6ZM46 8L46 9L45 9L45 10L44 10L44 9L41 9L41 11L43 11L43 12L42 12L42 13L43 13L43 12L45 12L45 13L44 13L44 14L45 14L45 15L44 15L44 17L43 17L43 18L44 18L44 17L45 17L45 16L46 16L46 14L45 14L45 13L46 13L46 12L47 12L47 11L48 11L48 10L50 10L50 8L49 8L49 9L48 9L48 10L46 10L46 9L47 9L47 8ZM52 8L52 11L51 11L51 12L52 12L52 11L53 11L53 13L52 13L52 14L51 14L51 15L50 15L50 16L51 16L51 17L50 17L50 18L52 18L52 16L51 16L51 15L53 15L53 16L54 16L54 14L56 14L56 15L58 15L58 16L59 16L59 15L58 15L58 14L59 14L59 13L57 13L57 12L56 12L56 13L54 13L54 12L55 12L55 11L53 11L53 10L54 10L54 9L53 9L53 8ZM60 8L60 9L61 9L61 8ZM6 9L6 10L5 10L5 11L6 11L6 12L7 12L7 13L8 13L8 11L6 11L6 10L7 10L7 9ZM39 10L39 11L40 11L40 10ZM43 10L43 11L44 11L44 10ZM45 10L45 12L46 12L46 10ZM20 11L20 12L19 12L19 14L20 14L20 12L22 12L22 11ZM31 11L31 12L32 12L32 11ZM39 12L39 13L38 13L38 14L37 14L37 15L38 15L38 16L39 16L39 15L38 15L38 14L40 14L40 16L41 16L41 17L42 17L42 16L43 16L43 14L41 14L41 13L40 13L40 12ZM16 13L16 14L17 14L17 13ZM53 13L53 14L54 14L54 13ZM56 13L56 14L57 14L57 13ZM7 14L7 15L8 15L8 14ZM41 15L41 16L42 16L42 15ZM33 16L33 18L31 18L31 19L30 19L30 18L29 18L29 19L28 19L28 22L29 22L29 23L30 23L30 21L29 21L29 20L32 20L32 21L31 21L31 23L32 23L32 21L34 21L34 22L36 22L36 21L37 21L37 20L35 20L35 19L36 19L36 18L35 18L35 19L33 19L33 18L34 18L34 16ZM60 17L60 19L59 19L59 20L60 20L60 19L61 19L61 17ZM22 18L22 19L21 19L21 21L20 21L20 22L21 22L21 21L22 21L22 20L23 20L23 18ZM25 18L25 19L24 19L24 20L26 20L26 21L27 21L27 18ZM48 18L48 19L49 19L49 18ZM1 19L1 20L2 20L2 19ZM32 19L32 20L33 20L33 19ZM46 19L46 20L47 20L47 19ZM34 20L34 21L35 21L35 20ZM39 20L39 21L40 21L40 20ZM54 20L54 21L55 21L55 20ZM23 21L23 22L24 22L24 21ZM0 22L0 26L1 26L1 22ZM6 22L6 23L7 23L7 22ZM26 22L26 23L27 23L27 22ZM55 24L55 25L54 25L54 26L53 26L53 27L52 27L52 28L54 28L54 26L56 26L56 27L58 27L58 26L59 26L59 25L57 25L57 24ZM7 25L7 26L8 26L8 27L10 27L10 26L8 26L8 25ZM56 25L56 26L57 26L57 25ZM3 26L3 27L4 27L4 28L5 28L5 27L4 27L4 26ZM30 26L30 27L28 27L28 28L30 28L30 27L31 27L31 26ZM60 27L60 28L61 28L61 27ZM43 28L43 29L44 29L44 28ZM57 28L57 30L58 30L58 28ZM5 29L5 32L8 32L8 29ZM18 29L18 30L17 30L17 31L19 31L19 30L20 30L20 29ZM24 29L24 31L23 31L23 32L22 32L22 34L21 34L21 33L20 33L20 34L18 34L18 35L17 35L17 37L18 37L18 36L19 36L19 37L21 37L21 38L20 38L20 39L16 39L16 40L17 40L17 42L18 42L18 43L19 43L19 44L20 44L20 43L21 43L21 45L22 45L22 43L21 43L21 42L23 42L23 40L24 40L24 39L25 39L25 37L26 37L26 40L27 40L27 41L28 41L28 44L29 44L29 42L30 42L30 41L32 41L32 40L33 40L33 39L31 39L31 36L30 36L30 34L29 34L29 33L27 33L27 32L28 32L28 31L27 31L27 30L28 30L28 29L26 29L26 30L25 30L25 29ZM29 29L29 32L32 32L32 29ZM45 29L45 30L46 30L46 29ZM48 29L48 30L49 30L49 29ZM53 29L53 32L56 32L56 29ZM6 30L6 31L7 31L7 30ZM30 30L30 31L31 31L31 30ZM54 30L54 31L55 31L55 30ZM12 31L12 32L13 32L13 31ZM26 31L26 32L27 32L27 31ZM33 31L33 33L34 33L34 34L36 34L36 33L37 33L37 32L36 32L36 33L34 33L34 32L35 32L35 31ZM46 31L46 32L47 32L47 31ZM39 32L39 33L40 33L40 32ZM12 33L12 34L13 34L13 35L14 35L14 34L13 34L13 33ZM23 33L23 35L22 35L22 36L21 36L21 34L20 34L20 36L21 36L21 37L22 37L22 38L21 38L21 39L24 39L24 36L25 36L25 34L26 34L26 36L27 36L27 38L30 38L30 36L29 36L29 35L27 35L27 34L26 34L26 33L25 33L25 34L24 34L24 33ZM51 33L51 34L52 34L52 33ZM6 34L6 35L7 35L7 34ZM53 34L53 35L51 35L51 37L50 37L50 39L48 39L48 40L47 40L47 41L48 41L48 42L49 42L49 41L51 41L51 40L50 40L50 39L51 39L51 37L52 37L52 36L53 36L53 35L54 35L54 34ZM45 35L45 36L46 36L46 35ZM10 36L10 39L11 39L11 36ZM22 36L22 37L23 37L23 36ZM4 37L4 38L3 38L3 40L2 40L2 41L4 41L4 38L5 38L5 39L6 39L6 40L7 40L7 39L6 39L6 38L9 38L9 37L6 37L6 38L5 38L5 37ZM44 38L44 39L45 39L45 38ZM52 38L52 40L53 40L53 41L54 41L54 38ZM13 39L13 40L14 40L14 39ZM42 39L42 40L40 40L40 41L42 41L42 40L43 40L43 39ZM18 40L18 41L19 41L19 43L20 43L20 41L21 41L21 40ZM48 40L48 41L49 41L49 40ZM0 44L0 46L1 46L1 44ZM35 44L35 45L34 45L34 46L36 46L36 45L37 45L37 44ZM46 45L46 46L48 46L48 47L49 47L49 46L48 46L48 45ZM55 45L55 46L54 46L54 47L56 47L56 46L57 46L57 45ZM59 45L59 46L60 46L60 45ZM14 46L14 47L16 47L16 48L17 48L17 47L16 47L16 46ZM39 46L39 47L40 47L40 46ZM35 47L35 48L36 48L36 47ZM42 48L42 49L43 49L43 48ZM59 48L59 49L60 49L60 48ZM24 49L24 51L25 51L25 49ZM3 51L3 52L4 52L4 51ZM40 51L40 52L41 52L41 53L39 53L39 52L38 52L38 53L39 53L39 54L41 54L41 53L43 53L43 54L44 54L44 53L43 53L43 52L41 52L41 51ZM6 52L6 53L7 53L7 52ZM35 52L35 53L36 53L36 52ZM29 53L29 56L32 56L32 53ZM53 53L53 56L56 56L56 53ZM27 54L27 55L28 55L28 54ZM30 54L30 55L31 55L31 54ZM54 54L54 55L55 55L55 54ZM60 54L60 55L59 55L59 56L60 56L60 58L59 58L59 59L58 59L58 60L57 60L57 61L61 61L61 60L59 60L59 59L60 59L60 58L61 58L61 54ZM49 55L49 56L50 56L50 55ZM20 56L20 57L21 57L21 56ZM46 56L46 57L45 57L45 58L46 58L46 57L47 57L47 56ZM13 57L13 58L14 58L14 59L15 59L15 60L17 60L17 59L16 59L16 58L14 58L14 57ZM48 57L48 58L50 58L50 57ZM26 58L26 59L27 59L27 58ZM25 60L25 61L26 61L26 60ZM0 0L0 7L7 7L7 0ZM1 1L1 6L6 6L6 1ZM2 2L2 5L5 5L5 2ZM54 0L54 7L61 7L61 0ZM55 1L55 6L60 6L60 1ZM56 2L56 5L59 5L59 2ZM0 54L0 61L7 61L7 54ZM1 55L1 60L6 60L6 55ZM2 56L2 59L5 59L5 56Z" fill="#000000"/></g></g></svg>
