<?xml version="1.0" encoding="UTF-8"?>
<svg xmlns="http://www.w3.org/2000/svg" version="1.1" width="180" height="180" viewBox="0 0 180 180"><rect x="0" y="0" width="180" height="180" fill="#ffffff"/><g transform="scale(3.673)"><g transform="translate(0,0)"><path fill-rule="evenodd" d="M8 0L8 1L9 1L9 2L8 2L8 5L9 5L9 6L8 6L8 7L9 7L9 8L8 8L8 9L7 9L7 8L6 8L6 9L7 9L7 10L6 10L6 11L5 11L5 9L4 9L4 8L0 8L0 9L3 9L3 13L2 13L2 14L3 14L3 13L4 13L4 16L5 16L5 17L7 17L7 18L4 18L4 17L2 17L2 18L3 18L3 19L2 19L2 20L1 20L1 19L0 19L0 20L1 20L1 21L0 21L0 22L1 22L1 24L0 24L0 25L3 25L3 24L4 24L4 27L3 27L3 26L2 26L2 27L3 27L3 28L2 28L2 29L3 29L3 30L1 30L1 27L0 27L0 32L1 32L1 34L0 34L0 38L1 38L1 40L0 40L0 41L3 41L3 40L4 40L4 39L2 39L2 38L3 38L3 37L7 37L7 38L5 38L5 39L8 39L8 42L9 42L9 39L10 39L10 43L9 43L9 44L10 44L10 45L8 45L8 49L9 49L9 46L10 46L10 48L11 48L11 45L12 45L12 46L13 46L13 45L12 45L12 43L16 43L16 44L18 44L18 43L19 43L19 42L20 42L20 41L18 41L18 40L19 40L19 39L18 39L18 38L19 38L19 36L20 36L20 38L21 38L21 39L23 39L23 40L21 40L21 41L22 41L22 46L23 46L23 45L25 45L25 47L26 47L26 46L27 46L27 47L29 47L29 49L31 49L31 48L33 48L33 49L34 49L34 48L36 48L36 49L37 49L37 48L38 48L38 47L36 47L36 46L37 46L37 45L38 45L38 44L39 44L39 43L40 43L40 45L39 45L39 46L41 46L41 47L40 47L40 48L39 48L39 49L40 49L40 48L41 48L41 47L42 47L42 46L43 46L43 45L44 45L44 47L43 47L43 48L44 48L44 47L45 47L45 46L46 46L46 45L45 45L45 43L46 43L46 42L47 42L47 44L48 44L48 45L47 45L47 47L46 47L46 48L45 48L45 49L49 49L49 48L47 48L47 47L49 47L49 46L48 46L48 45L49 45L49 41L48 41L48 42L47 42L47 40L49 40L49 39L47 39L47 40L46 40L46 39L45 39L45 40L40 40L40 42L38 42L38 41L37 41L37 42L36 42L36 39L35 39L35 41L34 41L34 42L33 42L33 43L35 43L35 44L33 44L33 45L32 45L32 46L33 46L33 45L35 45L35 44L37 44L37 45L36 45L36 46L34 46L34 48L33 48L33 47L31 47L31 45L30 45L30 46L27 46L27 43L28 43L28 45L29 45L29 44L30 44L30 43L28 43L28 42L30 42L30 41L28 41L28 40L31 40L31 38L34 38L34 37L35 37L35 38L36 38L36 37L37 37L37 36L38 36L38 34L37 34L37 33L38 33L38 32L40 32L40 33L41 33L41 34L43 34L43 33L45 33L45 34L44 34L44 35L42 35L42 37L41 37L41 38L42 38L42 37L43 37L43 36L44 36L44 38L43 38L43 39L44 39L44 38L45 38L45 37L46 37L46 38L48 38L48 36L49 36L49 35L46 35L46 36L44 36L44 35L45 35L45 34L46 34L46 33L47 33L47 32L48 32L48 33L49 33L49 30L48 30L48 31L47 31L47 30L45 30L45 31L44 31L44 32L43 32L43 30L44 30L44 29L43 29L43 30L42 30L42 31L41 31L41 32L40 32L40 30L41 30L41 29L42 29L42 28L41 28L41 29L40 29L40 30L38 30L38 29L39 29L39 28L38 28L38 29L37 29L37 30L36 30L36 32L37 32L37 33L35 33L35 32L34 32L34 33L33 33L33 34L32 34L32 36L30 36L30 37L29 37L29 38L28 38L28 39L26 39L26 40L24 40L24 39L25 39L25 38L27 38L27 37L28 37L28 36L27 36L27 35L28 35L28 34L26 34L26 33L29 33L29 35L31 35L31 33L32 33L32 32L31 32L31 33L29 33L29 31L28 31L28 30L29 30L29 29L31 29L31 31L32 31L32 29L33 29L33 30L34 30L34 31L35 31L35 29L36 29L36 28L35 28L35 29L33 29L33 27L32 27L32 26L33 26L33 25L34 25L34 24L36 24L36 25L35 25L35 26L36 26L36 25L37 25L37 24L39 24L39 25L38 25L38 26L37 26L37 27L39 27L39 25L40 25L40 27L45 27L45 28L46 28L46 29L47 29L47 28L46 28L46 27L48 27L48 26L49 26L49 25L47 25L47 26L46 26L46 27L45 27L45 25L46 25L46 24L47 24L47 23L48 23L48 24L49 24L49 23L48 23L48 22L47 22L47 23L46 23L46 24L45 24L45 22L46 22L46 21L45 21L45 22L43 22L43 21L44 21L44 20L43 20L43 21L41 21L41 22L40 22L40 20L37 20L37 19L40 19L40 18L41 18L41 17L42 17L42 16L43 16L43 15L44 15L44 17L43 17L43 18L44 18L44 17L45 17L45 16L46 16L46 18L45 18L45 19L46 19L46 18L47 18L47 17L48 17L48 19L49 19L49 17L48 17L48 16L49 16L49 15L48 15L48 16L46 16L46 14L45 14L45 13L47 13L47 14L49 14L49 12L48 12L48 13L47 13L47 11L48 11L48 9L49 9L49 8L48 8L48 9L47 9L47 8L44 8L44 9L45 9L45 10L44 10L44 11L43 11L43 9L42 9L42 8L41 8L41 9L42 9L42 10L41 10L41 11L40 11L40 13L41 13L41 14L42 14L42 16L41 16L41 17L40 17L40 15L38 15L38 14L39 14L39 11L36 11L36 10L38 10L38 9L40 9L40 7L41 7L41 6L40 6L40 7L39 7L39 5L37 5L37 6L36 6L36 7L35 7L35 6L34 6L34 8L36 8L36 7L37 7L37 6L38 6L38 8L37 8L37 9L36 9L36 10L34 10L34 9L33 9L33 10L32 10L32 11L30 11L30 10L31 10L31 9L32 9L32 8L31 8L31 9L29 9L29 8L30 8L30 7L31 7L31 5L30 5L30 7L29 7L29 5L28 5L28 4L26 4L26 3L27 3L27 2L26 2L26 3L25 3L25 1L26 1L26 0L25 0L25 1L22 1L22 0L21 0L21 1L20 1L20 2L19 2L19 1L17 1L17 2L16 2L16 0L14 0L14 2L15 2L15 4L13 4L13 6L12 6L12 7L11 7L11 6L10 6L10 5L12 5L12 4L10 4L10 2L11 2L11 3L12 3L12 1L13 1L13 0ZM27 0L27 1L29 1L29 2L31 2L31 3L29 3L29 4L32 4L32 5L33 5L33 4L34 4L34 3L35 3L35 2L36 2L36 4L35 4L35 5L36 5L36 4L37 4L37 3L38 3L38 2L39 2L39 4L40 4L40 3L41 3L41 0L40 0L40 1L35 1L35 2L34 2L34 3L33 3L33 1L34 1L34 0L33 0L33 1L32 1L32 2L31 2L31 0L30 0L30 1L29 1L29 0ZM21 1L21 2L20 2L20 3L19 3L19 5L14 5L14 6L13 6L13 7L12 7L12 8L11 8L11 10L7 10L7 11L6 11L6 12L5 12L5 11L4 11L4 13L6 13L6 14L7 14L7 15L6 15L6 16L7 16L7 17L8 17L8 18L7 18L7 19L6 19L6 20L7 20L7 19L8 19L8 18L11 18L11 17L12 17L12 19L16 19L16 18L13 18L13 17L14 17L14 16L15 16L15 17L16 17L16 16L17 16L17 19L18 19L18 20L17 20L17 23L16 23L16 20L14 20L14 22L13 22L13 23L12 23L12 24L13 24L13 25L12 25L12 30L10 30L10 29L11 29L11 28L10 28L10 27L11 27L11 26L10 26L10 24L9 24L9 26L10 26L10 27L9 27L9 28L10 28L10 29L9 29L9 31L8 31L8 28L7 28L7 27L6 27L6 28L5 28L5 29L6 29L6 30L4 30L4 32L2 32L2 33L3 33L3 34L1 34L1 35L4 35L4 36L5 36L5 35L6 35L6 36L8 36L8 37L9 37L9 36L10 36L10 35L11 35L11 37L10 37L10 39L12 39L12 40L11 40L11 41L12 41L12 42L11 42L11 43L12 43L12 42L13 42L13 41L14 41L14 40L15 40L15 42L16 42L16 40L17 40L17 39L16 39L16 38L17 38L17 37L18 37L18 36L19 36L19 35L20 35L20 36L22 36L22 37L21 37L21 38L23 38L23 39L24 39L24 38L25 38L25 37L27 37L27 36L24 36L24 35L25 35L25 34L23 34L23 33L24 33L24 32L27 32L27 30L28 30L28 29L29 29L29 28L30 28L30 27L29 27L29 26L32 26L32 25L33 25L33 24L34 24L34 23L33 23L33 24L31 24L31 23L32 23L32 22L36 22L36 23L39 23L39 24L40 24L40 22L39 22L39 21L37 21L37 20L35 20L35 19L36 19L36 18L39 18L39 17L37 17L37 16L38 16L38 15L37 15L37 14L38 14L38 12L37 12L37 13L36 13L36 11L35 11L35 12L34 12L34 10L33 10L33 11L32 11L32 13L31 13L31 12L30 12L30 11L28 11L28 10L29 10L29 9L26 9L26 10L24 10L24 9L22 9L22 10L21 10L21 9L19 9L19 8L21 8L21 7L22 7L22 4L21 4L21 3L22 3L22 1ZM17 2L17 3L16 3L16 4L18 4L18 2ZM23 3L23 4L24 4L24 3ZM32 3L32 4L33 4L33 3ZM20 4L20 5L19 5L19 6L18 6L18 7L17 7L17 6L16 6L16 7L15 7L15 6L14 6L14 8L12 8L12 10L11 10L11 11L12 11L12 12L13 12L13 13L14 13L14 14L12 14L12 13L10 13L10 14L8 14L8 13L9 13L9 12L10 12L10 11L8 11L8 12L6 12L6 13L7 13L7 14L8 14L8 15L7 15L7 16L8 16L8 17L11 17L11 16L14 16L14 14L15 14L15 16L16 16L16 15L17 15L17 14L18 14L18 15L19 15L19 12L20 12L20 11L21 11L21 10L20 10L20 11L19 11L19 12L18 12L18 13L17 13L17 14L15 14L15 12L16 12L16 11L18 11L18 10L19 10L19 9L18 9L18 7L19 7L19 6L20 6L20 7L21 7L21 4ZM23 5L23 8L26 8L26 5ZM27 5L27 7L28 7L28 5ZM9 6L9 7L10 7L10 6ZM24 6L24 7L25 7L25 6ZM32 6L32 7L33 7L33 6ZM14 8L14 9L15 9L15 10L14 10L14 11L16 11L16 10L17 10L17 8ZM46 9L46 10L45 10L45 12L43 12L43 11L41 11L41 13L42 13L42 14L44 14L44 15L45 15L45 14L44 14L44 13L45 13L45 12L46 12L46 11L47 11L47 9ZM0 10L0 14L1 14L1 10ZM23 10L23 11L22 11L22 12L21 12L21 13L20 13L20 14L21 14L21 13L23 13L23 14L22 14L22 15L21 15L21 17L22 17L22 18L21 18L21 19L20 19L20 21L21 21L21 23L22 23L22 24L20 24L20 23L19 23L19 22L18 22L18 23L17 23L17 24L16 24L16 23L15 23L15 22L14 22L14 23L13 23L13 24L14 24L14 23L15 23L15 26L14 26L14 28L13 28L13 30L14 30L14 28L17 28L17 29L16 29L16 30L15 30L15 31L14 31L14 32L13 32L13 31L11 31L11 32L10 32L10 33L9 33L9 32L8 32L8 31L7 31L7 30L6 30L6 31L7 31L7 32L6 32L6 33L7 33L7 34L6 34L6 35L7 35L7 34L8 34L8 33L9 33L9 35L8 35L8 36L9 36L9 35L10 35L10 33L11 33L11 34L13 34L13 33L14 33L14 35L15 35L15 33L16 33L16 32L15 32L15 31L16 31L16 30L17 30L17 33L18 33L18 32L19 32L19 33L21 33L21 34L20 34L20 35L22 35L22 36L23 36L23 35L22 35L22 33L21 33L21 32L20 32L20 28L19 28L19 27L20 27L20 26L21 26L21 28L24 28L24 29L25 29L25 28L24 28L24 27L26 27L26 28L27 28L27 29L28 29L28 27L27 27L27 24L28 24L28 21L29 21L29 22L30 22L30 23L31 23L31 21L32 21L32 19L31 19L31 21L30 21L30 19L28 19L28 18L30 18L30 16L31 16L31 15L32 15L32 17L31 17L31 18L32 18L32 17L33 17L33 16L34 16L34 15L33 15L33 14L30 14L30 15L27 15L27 14L28 14L28 13L26 13L26 11L25 11L25 12L24 12L24 13L23 13L23 11L24 11L24 10ZM29 12L29 13L30 13L30 12ZM33 12L33 13L34 13L34 12ZM42 12L42 13L43 13L43 12ZM35 13L35 14L36 14L36 13ZM10 14L10 15L12 15L12 14ZM23 14L23 15L22 15L22 16L24 16L24 17L23 17L23 18L22 18L22 19L21 19L21 21L22 21L22 22L23 22L23 21L24 21L24 22L25 22L25 19L26 19L26 18L28 18L28 17L29 17L29 16L28 16L28 17L27 17L27 16L25 16L25 15L26 15L26 14L25 14L25 15L24 15L24 14ZM1 15L1 16L0 16L0 17L1 17L1 16L2 16L2 15ZM35 16L35 17L34 17L34 18L33 18L33 19L35 19L35 17L36 17L36 16ZM18 17L18 19L19 19L19 18L20 18L20 17ZM24 17L24 18L25 18L25 17ZM3 19L3 20L2 20L2 21L1 21L1 22L2 22L2 21L5 21L5 22L7 22L7 21L5 21L5 20L4 20L4 19ZM9 19L9 20L10 20L10 21L9 21L9 23L10 23L10 22L12 22L12 20L11 20L11 19ZM23 19L23 20L24 20L24 19ZM27 19L27 20L26 20L26 22L27 22L27 20L28 20L28 19ZM41 19L41 20L42 20L42 19ZM34 20L34 21L35 21L35 20ZM47 20L47 21L48 21L48 20ZM36 21L36 22L37 22L37 21ZM2 23L2 24L3 24L3 23ZM5 23L5 26L8 26L8 23ZM23 23L23 26L26 26L26 23ZM41 23L41 26L44 26L44 23ZM6 24L6 25L7 25L7 24ZM19 24L19 26L17 26L17 25L16 25L16 26L15 26L15 27L17 27L17 28L18 28L18 29L17 29L17 30L18 30L18 31L19 31L19 30L18 30L18 29L19 29L19 28L18 28L18 27L19 27L19 26L20 26L20 24ZM24 24L24 25L25 25L25 24ZM29 24L29 25L31 25L31 24ZM42 24L42 25L43 25L43 24ZM21 25L21 26L22 26L22 25ZM31 27L31 29L32 29L32 27ZM6 28L6 29L7 29L7 28ZM48 28L48 29L49 29L49 28ZM22 29L22 30L23 30L23 29ZM24 30L24 31L23 31L23 32L24 32L24 31L26 31L26 30ZM37 30L37 32L38 32L38 30ZM45 31L45 33L46 33L46 32L47 32L47 31ZM7 32L7 33L8 33L8 32ZM14 32L14 33L15 33L15 32ZM41 32L41 33L42 33L42 32ZM34 33L34 34L33 34L33 36L32 36L32 37L33 37L33 36L34 36L34 34L35 34L35 37L36 37L36 35L37 35L37 34L35 34L35 33ZM4 34L4 35L5 35L5 34ZM17 34L17 35L16 35L16 36L15 36L15 37L13 37L13 35L12 35L12 39L13 39L13 40L12 40L12 41L13 41L13 40L14 40L14 39L15 39L15 40L16 40L16 39L15 39L15 37L17 37L17 35L18 35L18 34ZM39 34L39 37L38 37L38 38L37 38L37 39L38 39L38 40L39 40L39 37L40 37L40 36L41 36L41 35L40 35L40 34ZM1 36L1 37L3 37L3 36ZM23 37L23 38L24 38L24 37ZM30 37L30 38L29 38L29 39L30 39L30 38L31 38L31 37ZM8 38L8 39L9 39L9 38ZM13 38L13 39L14 39L14 38ZM32 39L32 41L31 41L31 42L32 42L32 41L33 41L33 40L34 40L34 39ZM6 40L6 41L7 41L7 40ZM45 40L45 42L46 42L46 40ZM17 41L17 43L18 43L18 41ZM23 41L23 44L26 44L26 41ZM27 41L27 42L28 42L28 41ZM41 41L41 44L44 44L44 41ZM24 42L24 43L25 43L25 42ZM35 42L35 43L36 43L36 42ZM37 42L37 44L38 44L38 42ZM42 42L42 43L43 43L43 42ZM20 43L20 45L21 45L21 43ZM14 44L14 45L15 45L15 46L14 46L14 47L13 47L13 48L14 48L14 47L15 47L15 46L16 46L16 45L15 45L15 44ZM17 46L17 47L16 47L16 49L17 49L17 47L18 47L18 46ZM20 46L20 47L19 47L19 48L18 48L18 49L19 49L19 48L20 48L20 49L22 49L22 48L23 48L23 49L25 49L25 48L23 48L23 47L22 47L22 48L20 48L20 47L21 47L21 46ZM30 47L30 48L31 48L31 47ZM26 48L26 49L28 49L28 48ZM0 0L0 7L7 7L7 0ZM1 1L1 6L6 6L6 1ZM2 2L2 5L5 5L5 2ZM42 0L42 7L49 7L49 0ZM43 1L43 6L48 6L48 1ZM44 2L44 5L47 5L47 2ZM0 42L0 49L7 49L7 42ZM1 43L1 48L6 48L6 43ZM2 44L2 47L5 47L5 44Z" fill="#000000"/></g></g></svg>
