<?xml version="1.0" encoding="UTF-8"?>
<svg xmlns="http://www.w3.org/2000/svg" version="1.1" width="180" height="180" viewBox="0 0 180 180"><rect x="0" y="0" width="180" height="180" fill="#ffffff"/><g transform="scale(2.951)"><g transform="translate(0,0)"><path fill-rule="evenodd" d="M8 0L8 1L9 1L9 2L8 2L8 5L9 5L9 6L8 6L8 7L9 7L9 8L8 8L8 9L7 9L7 8L6 8L6 9L7 9L7 10L5 10L5 9L4 9L4 8L0 8L0 9L1 9L1 10L0 10L0 15L2 15L2 14L3 14L3 13L4 13L4 12L3 12L3 11L4 11L4 10L5 10L5 11L7 11L7 12L5 12L5 14L6 14L6 15L4 15L4 16L2 16L2 17L1 17L1 16L0 16L0 17L1 17L1 18L2 18L2 19L0 19L0 23L1 23L1 25L0 25L0 26L2 26L2 25L4 25L4 24L2 24L2 22L1 22L1 20L2 20L2 21L3 21L3 22L4 22L4 23L5 23L5 22L6 22L6 23L7 23L7 24L6 24L6 25L7 25L7 24L8 24L8 25L9 25L9 24L8 24L8 23L9 23L9 22L11 22L11 23L10 23L10 24L11 24L11 26L15 26L15 25L17 25L17 24L18 24L18 25L19 25L19 27L18 27L18 28L19 28L19 29L20 29L20 28L21 28L21 29L22 29L22 28L23 28L23 29L25 29L25 30L24 30L24 31L23 31L23 30L22 30L22 32L19 32L19 34L18 34L18 33L17 33L17 32L18 32L18 31L20 31L20 30L18 30L18 29L17 29L17 28L16 28L16 27L17 27L17 26L16 26L16 27L13 27L13 30L12 30L12 29L11 29L11 27L9 27L9 26L5 26L5 27L7 27L7 28L4 28L4 26L3 26L3 27L1 27L1 29L0 29L0 30L1 30L1 31L0 31L0 34L1 34L1 31L2 31L2 33L3 33L3 35L2 35L2 36L1 36L1 35L0 35L0 37L2 37L2 38L1 38L1 39L0 39L0 42L1 42L1 39L3 39L3 40L2 40L2 41L4 41L4 42L3 42L3 46L2 46L2 45L1 45L1 44L2 44L2 43L1 43L1 44L0 44L0 47L1 47L1 48L3 48L3 49L1 49L1 50L2 50L2 51L0 51L0 53L4 53L4 52L5 52L5 51L8 51L8 50L6 50L6 49L7 49L7 48L8 48L8 49L9 49L9 50L10 50L10 51L12 51L12 52L13 52L13 51L14 51L14 52L15 52L15 51L14 51L14 50L17 50L17 51L16 51L16 54L15 54L15 53L14 53L14 55L15 55L15 57L13 57L13 56L9 56L9 57L8 57L8 61L11 61L11 60L9 60L9 57L10 57L10 58L11 58L11 59L14 59L14 60L15 60L15 61L21 61L21 59L20 59L20 60L19 60L19 58L21 58L21 57L23 57L23 56L24 56L24 58L22 58L22 60L23 60L23 59L24 59L24 58L25 58L25 56L24 56L24 55L28 55L28 57L30 57L30 58L31 58L31 57L35 57L35 56L37 56L37 57L36 57L36 58L32 58L32 59L30 59L30 60L29 60L29 61L32 61L32 60L33 60L33 61L34 61L34 60L35 60L35 61L36 61L36 60L35 60L35 59L36 59L36 58L37 58L37 59L38 59L38 61L39 61L39 59L38 59L38 58L37 58L37 57L39 57L39 58L41 58L41 60L42 60L42 61L43 61L43 60L45 60L45 61L46 61L46 60L47 60L47 58L46 58L46 57L44 57L44 58L46 58L46 60L45 60L45 59L43 59L43 57L42 57L42 55L43 55L43 54L44 54L44 53L45 53L45 52L46 52L46 51L44 51L44 50L46 50L46 49L44 49L44 50L42 50L42 49L43 49L43 45L44 45L44 44L42 44L42 43L40 43L40 42L42 42L42 41L40 41L40 42L38 42L38 41L37 41L37 42L36 42L36 43L38 43L38 44L39 44L39 45L41 45L41 53L39 53L39 52L38 52L38 51L40 51L40 49L39 49L39 46L37 46L37 45L35 45L35 44L34 44L34 43L35 43L35 41L36 41L36 40L35 40L35 41L34 41L34 40L33 40L33 42L32 42L32 39L33 39L33 38L34 38L34 39L36 39L36 38L35 38L35 37L37 37L37 39L38 39L38 38L39 38L39 39L40 39L40 40L41 40L41 39L40 39L40 38L42 38L42 37L43 37L43 36L45 36L45 37L44 37L44 38L43 38L43 41L45 41L45 39L44 39L44 38L45 38L45 37L46 37L46 36L47 36L47 35L48 35L48 37L47 37L47 38L48 38L48 39L49 39L49 36L50 36L50 35L48 35L48 34L49 34L49 33L48 33L48 34L46 34L46 36L45 36L45 34L44 34L44 31L43 31L43 30L44 30L44 29L45 29L45 28L46 28L46 25L44 25L44 26L45 26L45 27L44 27L44 29L43 29L43 30L42 30L42 28L43 28L43 26L42 26L42 28L41 28L41 25L40 25L40 23L39 23L39 25L38 25L38 27L37 27L37 26L35 26L35 27L34 27L34 28L32 28L32 26L34 26L34 25L35 25L35 24L34 24L34 25L31 25L31 27L30 27L30 28L28 28L28 27L29 27L29 26L30 26L30 23L31 23L31 24L32 24L32 23L34 23L34 21L36 21L36 22L35 22L35 23L36 23L36 25L37 25L37 24L38 24L38 23L37 23L37 21L39 21L39 20L40 20L40 21L41 21L41 20L42 20L42 18L41 18L41 17L42 17L42 16L43 16L43 15L44 15L44 17L45 17L45 18L46 18L46 19L47 19L47 20L46 20L46 21L45 21L45 22L44 22L44 24L45 24L45 22L46 22L46 24L47 24L47 25L49 25L49 24L50 24L50 22L49 22L49 21L51 21L51 23L52 23L52 24L51 24L51 25L50 25L50 26L49 26L49 27L51 27L51 26L52 26L52 27L53 27L53 26L54 26L54 28L52 28L52 29L51 29L51 30L50 30L50 29L49 29L49 30L48 30L48 31L47 31L47 29L48 29L48 28L47 28L47 29L46 29L46 30L45 30L45 31L47 31L47 32L51 32L51 30L52 30L52 34L51 34L51 37L50 37L50 39L51 39L51 37L52 37L52 36L54 36L54 37L53 37L53 38L54 38L54 37L55 37L55 36L56 36L56 38L55 38L55 39L56 39L56 38L57 38L57 36L56 36L56 35L52 35L52 34L53 34L53 33L54 33L54 34L55 34L55 33L57 33L57 31L58 31L58 30L60 30L60 31L61 31L61 29L60 29L60 28L61 28L61 27L60 27L60 26L61 26L61 25L60 25L60 24L61 24L61 23L60 23L60 24L59 24L59 23L58 23L58 25L59 25L59 26L58 26L58 27L56 27L56 26L54 26L54 25L53 25L53 22L52 22L52 20L49 20L49 18L48 18L48 19L47 19L47 17L48 17L48 16L47 16L47 17L45 17L45 15L44 15L44 14L45 14L45 13L46 13L46 12L47 12L47 11L48 11L48 13L47 13L47 14L48 14L48 13L49 13L49 12L50 12L50 11L48 11L48 8L49 8L49 9L50 9L50 8L51 8L51 9L52 9L52 7L53 7L53 6L52 6L52 7L51 7L51 5L52 5L52 4L53 4L53 0L51 0L51 2L50 2L50 0L48 0L48 1L45 1L45 2L44 2L44 0L42 0L42 2L43 2L43 3L42 3L42 4L41 4L41 2L40 2L40 5L39 5L39 4L38 4L38 3L37 3L37 2L36 2L36 3L34 3L34 2L35 2L35 1L34 1L34 0L32 0L32 1L31 1L31 0L30 0L30 1L31 1L31 2L33 2L33 3L31 3L31 4L30 4L30 2L28 2L28 3L27 3L27 5L28 5L28 8L27 8L27 6L26 6L26 5L25 5L25 6L24 6L24 7L23 7L23 4L22 4L22 3L26 3L26 2L27 2L27 1L28 1L28 0L26 0L26 2L25 2L25 1L24 1L24 0L23 0L23 2L22 2L22 3L21 3L21 1L22 1L22 0L21 0L21 1L20 1L20 2L19 2L19 3L18 3L18 0L17 0L17 2L16 2L16 0L15 0L15 1L14 1L14 0L12 0L12 1L11 1L11 0ZM36 0L36 1L38 1L38 0ZM10 1L10 2L9 2L9 4L10 4L10 5L12 5L12 6L11 6L11 7L10 7L10 6L9 6L9 7L10 7L10 8L9 8L9 9L8 9L8 10L7 10L7 11L8 11L8 10L9 10L9 13L8 13L8 12L7 12L7 13L6 13L6 14L7 14L7 13L8 13L8 14L9 14L9 15L6 15L6 16L5 16L5 17L4 17L4 18L3 18L3 19L4 19L4 20L3 20L3 21L4 21L4 22L5 22L5 21L6 21L6 22L7 22L7 23L8 23L8 22L9 22L9 21L11 21L11 22L13 22L13 23L11 23L11 24L12 24L12 25L14 25L14 24L17 24L17 23L16 23L16 22L18 22L18 24L19 24L19 25L20 25L20 26L22 26L22 25L24 25L24 26L23 26L23 28L24 28L24 27L25 27L25 28L27 28L27 27L26 27L26 25L25 25L25 22L26 22L26 23L30 23L30 20L31 20L31 22L33 22L33 21L32 21L32 19L33 19L33 20L35 20L35 19L37 19L37 20L36 20L36 21L37 21L37 20L39 20L39 19L38 19L38 18L39 18L39 17L38 17L38 16L39 16L39 15L40 15L40 14L38 14L38 13L42 13L42 14L41 14L41 16L40 16L40 17L41 17L41 16L42 16L42 14L44 14L44 13L45 13L45 12L46 12L46 10L47 10L47 9L46 9L46 6L47 6L47 7L48 7L48 6L49 6L49 8L50 8L50 5L49 5L49 4L50 4L50 3L49 3L49 4L48 4L48 2L49 2L49 1L48 1L48 2L47 2L47 3L46 3L46 2L45 2L45 3L43 3L43 4L42 4L42 5L40 5L40 6L39 6L39 8L38 8L38 4L37 4L37 3L36 3L36 4L35 4L35 7L34 7L34 5L33 5L33 9L31 9L31 10L30 10L30 9L27 9L27 8L26 8L26 10L24 10L24 8L25 8L25 7L26 7L26 6L25 6L25 7L24 7L24 8L23 8L23 7L22 7L22 4L21 4L21 5L20 5L20 3L19 3L19 5L20 5L20 6L19 6L19 10L18 10L18 9L16 9L16 8L17 8L17 7L18 7L18 6L17 6L17 7L16 7L16 5L18 5L18 4L16 4L16 2L14 2L14 1L13 1L13 2L12 2L12 3L13 3L13 2L14 2L14 5L15 5L15 7L14 7L14 6L13 6L13 4L11 4L11 3L10 3L10 2L11 2L11 1ZM45 3L45 4L44 4L44 5L42 5L42 7L41 7L41 6L40 6L40 9L39 9L39 11L40 11L40 9L41 9L41 11L42 11L42 10L43 10L43 9L44 9L44 10L45 10L45 9L44 9L44 8L43 8L43 9L41 9L41 8L42 8L42 7L43 7L43 6L44 6L44 7L45 7L45 6L44 6L44 5L45 5L45 4L46 4L46 3ZM51 3L51 4L52 4L52 3ZM47 4L47 5L48 5L48 4ZM29 5L29 8L32 8L32 5ZM36 5L36 7L35 7L35 8L34 8L34 9L35 9L35 8L37 8L37 9L36 9L36 10L35 10L35 12L36 12L36 13L38 13L38 10L37 10L37 9L38 9L38 8L37 8L37 5ZM12 6L12 7L11 7L11 8L10 8L10 9L9 9L9 10L11 10L11 13L9 13L9 14L11 14L11 16L10 16L10 17L8 17L8 19L7 19L7 18L6 18L6 17L7 17L7 16L6 16L6 17L5 17L5 19L7 19L7 20L6 20L6 21L9 21L9 20L10 20L10 19L11 19L11 18L12 18L12 20L14 20L14 21L13 21L13 22L14 22L14 23L13 23L13 24L14 24L14 23L15 23L15 22L16 22L16 21L15 21L15 20L17 20L17 21L18 21L18 19L20 19L20 18L19 18L19 17L20 17L20 16L19 16L19 17L18 17L18 16L17 16L17 15L15 15L15 14L14 14L14 13L13 13L13 12L15 12L15 13L17 13L17 14L18 14L18 15L21 15L21 13L22 13L22 15L23 15L23 14L24 14L24 13L22 13L22 12L23 12L23 11L24 11L24 10L23 10L23 8L22 8L22 9L21 9L21 10L19 10L19 12L18 12L18 13L17 13L17 11L18 11L18 10L17 10L17 11L16 11L16 12L15 12L15 10L16 10L16 9L15 9L15 10L14 10L14 11L12 11L12 10L13 10L13 9L14 9L14 8L12 8L12 7L13 7L13 6ZM20 6L20 8L21 8L21 6ZM30 6L30 7L31 7L31 6ZM53 8L53 9L54 9L54 10L53 10L53 11L52 11L52 10L51 10L51 11L52 11L52 12L51 12L51 13L50 13L50 15L49 15L49 16L50 16L50 17L51 17L51 16L50 16L50 15L53 15L53 14L54 14L54 16L52 16L52 18L50 18L50 19L52 19L52 18L53 18L53 17L54 17L54 16L55 16L55 14L54 14L54 13L55 13L55 12L57 12L57 13L56 13L56 14L57 14L57 13L59 13L59 12L60 12L60 11L58 11L58 10L57 10L57 9L59 9L59 8L56 8L56 10L57 10L57 11L55 11L55 12L54 12L54 13L53 13L53 11L54 11L54 10L55 10L55 9L54 9L54 8ZM60 8L60 9L61 9L61 8ZM2 9L2 11L3 11L3 9ZM22 10L22 11L20 11L20 12L19 12L19 13L20 13L20 12L22 12L22 11L23 11L23 10ZM26 10L26 11L27 11L27 14L29 14L29 15L30 15L30 16L31 16L31 15L32 15L32 14L31 14L31 15L30 15L30 13L29 13L29 12L28 12L28 11L27 11L27 10ZM29 10L29 11L30 11L30 10ZM31 10L31 13L33 13L33 14L34 14L34 12L33 12L33 11L32 11L32 10ZM36 10L36 12L37 12L37 10ZM43 11L43 12L42 12L42 13L43 13L43 12L45 12L45 11ZM57 11L57 12L58 12L58 11ZM2 12L2 13L3 13L3 12ZM25 12L25 13L26 13L26 12ZM51 13L51 14L53 14L53 13ZM60 13L60 14L61 14L61 13ZM13 14L13 16L12 16L12 18L13 18L13 16L14 16L14 18L15 18L15 17L16 17L16 18L18 18L18 17L17 17L17 16L14 16L14 14ZM25 14L25 15L24 15L24 16L25 16L25 15L26 15L26 14ZM58 14L58 15L56 15L56 17L55 17L55 18L56 18L56 17L57 17L57 16L58 16L58 18L59 18L59 17L60 17L60 19L59 19L59 20L60 20L60 19L61 19L61 17L60 17L60 16L61 16L61 15L60 15L60 16L58 16L58 15L59 15L59 14ZM27 15L27 16L26 16L26 17L25 17L25 18L23 18L23 17L21 17L21 19L22 19L22 18L23 18L23 20L22 20L22 21L21 21L21 20L19 20L19 21L21 21L21 22L20 22L20 23L19 23L19 24L20 24L20 23L21 23L21 22L23 22L23 20L24 20L24 22L25 22L25 21L26 21L26 22L29 22L29 21L26 21L26 20L27 20L27 19L29 19L29 17L28 17L28 18L27 18L27 16L28 16L28 15ZM33 15L33 16L32 16L32 17L31 17L31 19L32 19L32 18L33 18L33 19L34 19L34 18L35 18L35 17L36 17L36 18L37 18L37 17L36 17L36 15L35 15L35 17L34 17L34 18L33 18L33 16L34 16L34 15ZM37 15L37 16L38 16L38 15ZM10 17L10 18L9 18L9 19L8 19L8 20L9 20L9 19L10 19L10 18L11 18L11 17ZM25 18L25 19L24 19L24 20L26 20L26 19L27 19L27 18ZM43 18L43 19L44 19L44 18ZM40 19L40 20L41 20L41 19ZM53 19L53 20L54 20L54 19ZM43 20L43 21L42 21L42 22L41 22L41 24L42 24L42 25L43 25L43 24L42 24L42 23L43 23L43 21L44 21L44 20ZM47 20L47 21L46 21L46 22L48 22L48 23L47 23L47 24L48 24L48 23L49 23L49 22L48 22L48 21L49 21L49 20ZM55 20L55 21L54 21L54 24L56 24L56 20ZM22 23L22 24L21 24L21 25L22 25L22 24L24 24L24 23ZM28 24L28 25L27 25L27 26L29 26L29 24ZM39 25L39 28L37 28L37 30L36 30L36 27L35 27L35 28L34 28L34 29L35 29L35 30L36 30L36 31L35 31L35 32L34 32L34 31L33 31L33 33L28 33L28 31L27 31L27 30L28 30L28 29L27 29L27 30L25 30L25 31L24 31L24 32L22 32L22 34L21 34L21 33L20 33L20 34L19 34L19 35L18 35L18 36L19 36L19 38L20 38L20 39L16 39L16 38L17 38L17 37L16 37L16 35L17 35L17 33L16 33L16 35L14 35L14 36L13 36L13 37L14 37L14 36L15 36L15 38L13 38L13 39L12 39L12 40L11 40L11 42L14 42L14 43L13 43L13 45L12 45L12 43L10 43L10 42L7 42L7 41L5 41L5 40L8 40L8 39L10 39L10 37L9 37L9 36L10 36L10 35L11 35L11 36L12 36L12 34L9 34L9 36L8 36L8 35L6 35L6 36L7 36L7 37L6 37L6 38L8 38L8 39L5 39L5 38L4 38L4 37L5 37L5 33L4 33L4 31L3 31L3 33L4 33L4 36L2 36L2 37L3 37L3 39L4 39L4 41L5 41L5 42L4 42L4 43L6 43L6 44L7 44L7 45L6 45L6 46L8 46L8 47L9 47L9 48L10 48L10 50L11 50L11 49L12 49L12 51L13 51L13 49L12 49L12 48L14 48L14 49L15 49L15 47L16 47L16 49L17 49L17 50L18 50L18 48L19 48L19 47L20 47L20 48L21 48L21 47L23 47L23 48L22 48L22 50L20 50L20 51L18 51L18 52L17 52L17 56L16 56L16 58L15 58L15 60L16 60L16 58L17 58L17 59L18 59L18 58L17 58L17 57L19 57L19 56L20 56L20 57L21 57L21 56L23 56L23 53L24 53L24 54L25 54L25 53L24 53L24 51L25 51L25 52L27 52L27 54L28 54L28 52L29 52L29 51L31 51L31 52L33 52L33 51L34 51L34 53L33 53L33 55L34 55L34 56L35 56L35 54L34 54L34 53L36 53L36 54L37 54L37 56L39 56L39 57L40 57L40 56L39 56L39 55L38 55L38 54L39 54L39 53L38 53L38 52L37 52L37 50L38 50L38 49L37 49L37 50L36 50L36 48L35 48L35 47L34 47L34 46L35 46L35 45L34 45L34 46L33 46L33 45L31 45L31 44L32 44L32 42L31 42L31 44L30 44L30 42L29 42L29 44L30 44L30 45L29 45L29 46L28 46L28 48L27 48L27 47L26 47L26 46L27 46L27 45L28 45L28 43L27 43L27 44L26 44L26 43L24 43L24 42L27 42L27 41L26 41L26 40L28 40L28 41L31 41L31 40L29 40L29 39L31 39L31 38L32 38L32 37L33 37L33 35L34 35L34 36L35 36L35 35L38 35L38 36L37 36L37 37L39 37L39 38L40 38L40 35L39 35L39 32L40 32L40 31L42 31L42 33L41 33L41 34L42 34L42 33L43 33L43 31L42 31L42 30L41 30L41 28L40 28L40 25ZM52 25L52 26L53 26L53 25ZM8 27L8 28L9 28L9 27ZM21 27L21 28L22 28L22 27ZM58 27L58 28L60 28L60 27ZM3 28L3 29L2 29L2 30L3 30L3 29L4 29L4 28ZM39 28L39 29L38 29L38 30L39 30L39 31L40 31L40 28ZM5 29L5 32L8 32L8 29ZM14 29L14 32L15 32L15 31L16 31L16 32L17 32L17 31L18 31L18 30L16 30L16 29ZM29 29L29 32L32 32L32 29ZM53 29L53 32L56 32L56 29ZM57 29L57 30L58 30L58 29ZM6 30L6 31L7 31L7 30ZM9 30L9 31L10 31L10 32L9 32L9 33L10 33L10 32L11 32L11 33L13 33L13 34L15 34L15 33L13 33L13 32L11 32L11 31L12 31L12 30L11 30L11 31L10 31L10 30ZM30 30L30 31L31 31L31 30ZM49 30L49 31L50 31L50 30ZM54 30L54 31L55 31L55 30ZM26 31L26 32L25 32L25 33L26 33L26 35L25 35L25 34L24 34L24 33L23 33L23 35L22 35L22 36L20 36L20 35L19 35L19 36L20 36L20 38L21 38L21 37L22 37L22 39L21 39L21 40L18 40L18 41L19 41L19 43L17 43L17 45L18 45L18 44L19 44L19 46L20 46L20 47L21 47L21 46L20 46L20 45L22 45L22 46L23 46L23 47L24 47L24 48L23 48L23 50L22 50L22 51L21 51L21 52L22 52L22 51L24 51L24 49L25 49L25 48L26 48L26 47L25 47L25 45L26 45L26 44L24 44L24 43L23 43L23 44L22 44L22 43L20 43L20 41L21 41L21 40L22 40L22 39L23 39L23 41L25 41L25 40L26 40L26 38L27 38L27 37L28 37L28 36L29 36L29 38L28 38L28 39L29 39L29 38L30 38L30 36L32 36L32 35L31 35L31 34L30 34L30 36L29 36L29 35L28 35L28 36L27 36L27 37L26 37L26 35L27 35L27 33L26 33L26 32L27 32L27 31ZM36 31L36 32L37 32L37 31ZM59 32L59 33L58 33L58 34L57 34L57 35L58 35L58 38L59 38L59 40L58 40L58 39L57 39L57 40L58 40L58 43L59 43L59 42L60 42L60 43L61 43L61 42L60 42L60 41L61 41L61 40L60 40L60 38L61 38L61 36L60 36L60 37L59 37L59 35L60 35L60 34L59 34L59 33L61 33L61 32ZM6 33L6 34L7 34L7 33ZM33 33L33 34L34 34L34 33ZM37 33L37 34L38 34L38 33ZM43 34L43 35L41 35L41 37L42 37L42 36L43 36L43 35L44 35L44 34ZM58 34L58 35L59 35L59 34ZM22 36L22 37L23 37L23 39L25 39L25 38L26 38L26 37L25 37L25 36ZM8 37L8 38L9 38L9 37ZM11 37L11 38L12 38L12 37ZM14 39L14 42L15 42L15 41L16 41L16 42L17 42L17 40L16 40L16 39ZM50 40L50 41L46 41L46 43L47 43L47 44L46 44L46 45L45 45L45 46L44 46L44 48L45 48L45 46L46 46L46 48L47 48L47 47L48 47L48 49L47 49L47 50L48 50L48 49L49 49L49 51L48 51L48 52L47 52L47 53L46 53L46 54L45 54L45 55L46 55L46 56L49 56L49 57L48 57L48 58L49 58L49 57L50 57L50 56L51 56L51 55L52 55L52 58L53 58L53 59L54 59L54 58L55 58L55 57L56 57L56 59L55 59L55 60L56 60L56 59L57 59L57 58L58 58L58 56L57 56L57 55L58 55L58 54L59 54L59 56L60 56L60 58L59 58L59 59L58 59L58 60L57 60L57 61L61 61L61 60L59 60L59 59L60 59L60 58L61 58L61 52L58 52L58 51L57 51L57 52L52 52L52 54L51 54L51 55L50 55L50 56L49 56L49 55L47 55L47 53L48 53L48 54L50 54L50 53L51 53L51 52L50 52L50 53L48 53L48 52L49 52L49 51L54 51L54 50L55 50L55 51L56 51L56 50L57 50L57 49L59 49L59 50L61 50L61 47L60 47L60 46L59 46L59 47L58 47L58 48L55 48L55 47L54 47L54 46L55 46L55 45L54 45L54 46L53 46L53 47L54 47L54 48L55 48L55 49L53 49L53 48L52 48L52 47L51 47L51 46L52 46L52 45L53 45L53 43L52 43L52 45L51 45L51 46L50 46L50 47L49 47L49 46L46 46L46 45L47 45L47 44L49 44L49 45L50 45L50 44L51 44L51 42L53 42L53 41L54 41L54 40L53 40L53 41L51 41L51 40ZM59 40L59 41L60 41L60 40ZM50 41L50 42L49 42L49 44L50 44L50 42L51 42L51 41ZM55 41L55 42L54 42L54 44L55 44L55 42L56 42L56 41ZM6 42L6 43L7 43L7 42ZM33 42L33 43L34 43L34 42ZM43 42L43 43L44 43L44 42ZM14 43L14 44L16 44L16 43ZM19 43L19 44L20 44L20 43ZM56 43L56 45L57 45L57 46L56 46L56 47L57 47L57 46L58 46L58 45L57 45L57 43ZM8 44L8 45L9 45L9 44ZM23 44L23 46L24 46L24 44ZM10 45L10 46L11 46L11 47L10 47L10 48L11 48L11 47L15 47L15 45L14 45L14 46L11 46L11 45ZM16 46L16 47L17 47L17 48L18 48L18 46ZM29 46L29 47L30 47L30 46ZM32 46L32 49L31 49L31 48L30 48L30 49L29 49L29 50L28 50L28 49L27 49L27 50L28 50L28 51L27 51L27 52L28 52L28 51L29 51L29 50L31 50L31 51L33 51L33 50L32 50L32 49L35 49L35 48L33 48L33 46ZM36 46L36 47L37 47L37 48L38 48L38 47L37 47L37 46ZM4 47L4 49L5 49L5 48L7 48L7 47ZM50 47L50 48L49 48L49 49L51 49L51 47ZM59 47L59 49L60 49L60 47ZM55 49L55 50L56 50L56 49ZM3 51L3 52L4 52L4 51ZM35 51L35 52L36 52L36 51ZM42 51L42 52L43 52L43 53L44 53L44 51ZM6 52L6 53L8 53L8 54L9 54L9 52ZM10 52L10 53L11 53L11 52ZM18 53L18 55L19 55L19 54L20 54L20 53ZM29 53L29 56L32 56L32 53ZM53 53L53 56L56 56L56 53ZM57 53L57 54L58 54L58 53ZM59 53L59 54L60 54L60 53ZM11 54L11 55L13 55L13 54ZM21 54L21 55L20 55L20 56L21 56L21 55L22 55L22 54ZM30 54L30 55L31 55L31 54ZM40 54L40 55L42 55L42 54ZM54 54L54 55L55 55L55 54ZM26 56L26 57L27 57L27 56ZM11 57L11 58L13 58L13 57ZM53 57L53 58L54 58L54 57ZM27 58L27 59L25 59L25 60L24 60L24 61L25 61L25 60L27 60L27 59L28 59L28 58ZM33 59L33 60L34 60L34 59ZM49 59L49 60L48 60L48 61L49 61L49 60L50 60L50 61L52 61L52 60L51 60L51 59ZM0 0L0 7L7 7L7 0ZM1 1L1 6L6 6L6 1ZM2 2L2 5L5 5L5 2ZM54 0L54 7L61 7L61 0ZM55 1L55 6L60 6L60 1ZM56 2L56 5L59 5L59 2ZM0 54L0 61L7 61L7 54ZM1 55L1 60L6 60L6 55ZM2 56L2 59L5 59L5 56Z" fill="#000000"/></g></g></svg>
